%TF.GenerationSoftware,KiCad,Pcbnew,10.0.5*%
%TF.CreationDate,2026-10-02T21:58:29-03:00*%
%TF.ProjectId,PQ_ADCS,50515f41-4443-4532-9e6b-696361645f70,2.0*%
%TF.SameCoordinates,Original*%
%TF.FileFunction,Copper,L2,Inr*%
%TF.FilePolarity,Positive*%
%FSLAX46Y46*%
G04 Gerber Fmt 4.6, Leading zero omitted, Abs format (unit mm)*
G04 Created by KiCad (PCBNEW 10.0.5) date 2026-10-02 21:58:29*
%MOMM*%
%LPD*%
G01*
G04 APERTURE LIST*
%TA.AperFunction,ComponentPad*%
%ADD10C,6.400000*%
%TD*%
%TA.AperFunction,ComponentPad*%
%ADD11R,1.700000X1.700000*%
%TD*%
%TA.AperFunction,ComponentPad*%
%ADD12O,1.700000X1.700000*%
%TD*%
%TA.AperFunction,ViaPad*%
%ADD13C,0.400000*%
%TD*%
G04 APERTURE END LIST*
D10*
%TO.N,GND*%
%TO.C,H4*%
X133500000Y-111500000D03*
%TD*%
D11*
%TO.N,SDA1*%
%TO.C,J1*%
X138570000Y-78509200D03*
D12*
%TO.N,SCL1*%
X141110000Y-78509200D03*
%TO.N,UART_RX*%
X143650000Y-78509200D03*
%TO.N,KILLSWITCH+*%
X146190000Y-78509200D03*
%TO.N,PFO*%
X148730000Y-78509200D03*
%TO.N,BATT-*%
X151270000Y-78509200D03*
%TO.N,SCL3*%
X153810000Y-78509200D03*
%TO.N,UART_TX*%
X156350000Y-78509200D03*
%TO.N,GND*%
X158890000Y-78509200D03*
%TO.N,3V3_PERM*%
X161430000Y-78509200D03*
%TD*%
D11*
%TO.N,STM32_PA15*%
%TO.C,J2*%
X166490800Y-83570000D03*
D12*
%TO.N,SWO*%
X166490800Y-86110000D03*
%TO.N,BATT_NTC*%
X166490800Y-88650000D03*
%TO.N,SOLAR_Y*%
X166490800Y-91190000D03*
%TO.N,SEL_PH2*%
X166490800Y-93730000D03*
%TO.N,SEL_PH1*%
X166490800Y-96270000D03*
%TO.N,GND*%
X166490800Y-98810000D03*
%TO.N,HEATER_PWR*%
X166490800Y-101350000D03*
%TO.N,BURNCOMMS*%
X166490800Y-103890000D03*
%TO.N,SOLAR_Z*%
X166490800Y-106430000D03*
%TD*%
D10*
%TO.N,GND*%
%TO.C,H1*%
X133500000Y-78500000D03*
%TD*%
D11*
%TO.N,GND*%
%TO.C,J3*%
X161430000Y-111490800D03*
D12*
%TO.N,STM32_PB0*%
X158890000Y-111490800D03*
%TO.N,ADCS_POWER*%
X156350000Y-111490800D03*
%TO.N,STM32_PA9*%
X153810000Y-111490800D03*
%TO.N,ADC_PH*%
X151270000Y-111490800D03*
%TO.N,P{slash}L_POWER*%
X148730000Y-111490800D03*
%TO.N,SEL_PH0*%
X146190000Y-111490800D03*
%TO.N,VCC_UMBILICAL*%
X143650000Y-111490800D03*
%TO.N,FAULT*%
X141110000Y-111490800D03*
%TO.N,CHRG*%
X138570000Y-111490800D03*
%TD*%
D11*
%TO.N,SOLAR_X*%
%TO.C,J4*%
X133509200Y-106430000D03*
D12*
%TO.N,CHRGOFF*%
X133509200Y-103890000D03*
%TO.N,CLPROG*%
X133509200Y-101350000D03*
%TO.N,SDA3*%
X133509200Y-98810000D03*
%TO.N,NRST*%
X133509200Y-96270000D03*
%TO.N,SWDIO*%
X133509200Y-93730000D03*
%TO.N,SWCLK*%
X133509200Y-91190000D03*
%TO.N,DAC_PL*%
X133509200Y-88650000D03*
%TO.N,ADC_PL*%
X133509200Y-86110000D03*
%TO.N,PH_PL*%
X133509200Y-83570000D03*
%TD*%
D10*
%TO.N,GND*%
%TO.C,H3*%
X166500000Y-111500000D03*
%TD*%
%TO.N,GND*%
%TO.C,H2*%
X166500000Y-78500000D03*
%TD*%
D11*
%TO.N,/+MAG-Y*%
%TO.C,J12*%
X148735800Y-95022000D03*
D12*
%TO.N,/+MAG+Y*%
X151275800Y-95022000D03*
%TD*%
D13*
%TO.N,GND*%
X163200000Y-102100000D03*
X138600000Y-81200000D03*
X134800000Y-84900000D03*
X135900000Y-97200000D03*
X141700000Y-95700000D03*
X153000000Y-81900000D03*
X147400000Y-98300000D03*
X134800000Y-95000000D03*
X147500000Y-106400000D03*
X153700000Y-94300000D03*
X145500000Y-100200000D03*
X146000000Y-82000000D03*
X144526000Y-102870000D03*
X160675000Y-90375000D03*
X161300000Y-106700000D03*
X149700000Y-98300000D03*
X153000000Y-108600000D03*
X162700000Y-81300000D03*
X134800000Y-89900000D03*
X139319000Y-103700000D03*
X154200000Y-91600000D03*
X154892888Y-102915069D03*
X145600000Y-88700000D03*
X162100000Y-109200000D03*
X157575000Y-101400000D03*
X154100000Y-89000000D03*
X136900000Y-89300000D03*
X141782800Y-100634800D03*
X158300000Y-89900000D03*
X163000000Y-98600000D03*
X163900000Y-104600000D03*
%TO.N,SCL3*%
X147750000Y-84200000D03*
X163800000Y-88400000D03*
X147200000Y-91200000D03*
X157300000Y-108800000D03*
X149900000Y-109100000D03*
X146500000Y-107684800D03*
X136900000Y-85900000D03*
X137600000Y-101200000D03*
X154506200Y-100900000D03*
X160500000Y-101700000D03*
X151200000Y-101384800D03*
%TO.N,3V3_PERM*%
X136900000Y-86800000D03*
X155500000Y-99900000D03*
X145750000Y-86650000D03*
X162600000Y-90470798D03*
X161397890Y-99317760D03*
X136900000Y-88470225D03*
X152000000Y-105800000D03*
X160700000Y-106100000D03*
X163900000Y-86875000D03*
X149000000Y-86800000D03*
X159400000Y-109100000D03*
X152600000Y-92900000D03*
X161400000Y-101700000D03*
X154150000Y-87850000D03*
X141900000Y-87000000D03*
X137700000Y-103100000D03*
X164675000Y-83625000D03*
X155700000Y-97000000D03*
%TO.N,SDA3*%
X148805800Y-106422000D03*
X157600000Y-100800000D03*
X157238909Y-108138909D03*
X146475000Y-91700000D03*
X137600000Y-102200000D03*
X136900000Y-87600000D03*
X154700000Y-102400000D03*
X146750000Y-84200000D03*
X163800000Y-87800000D03*
X161600000Y-100600000D03*
%TO.N,ADC_PH*%
X149450000Y-102250000D03*
X150700000Y-103300000D03*
%TO.N,SEL_PH0*%
X163800000Y-89022000D03*
%TO.N,/PHT1*%
X137600000Y-99200000D03*
%TO.N,/+MAG+X*%
X161200000Y-96400000D03*
X153700000Y-95200000D03*
%TO.N,/-MAG-X*%
X142400000Y-101650000D03*
X150750000Y-96850000D03*
%TO.N,SWO*%
X149805800Y-106422000D03*
%TO.N,SOLAR_Y*%
X146000000Y-82800000D03*
X156000000Y-106950000D03*
X156000000Y-108600000D03*
%TO.N,HEATER_PWR*%
X158250500Y-88900000D03*
X163000000Y-97600000D03*
%TO.N,BURNCOMMS*%
X155600000Y-95400000D03*
X142000000Y-98200000D03*
X160600000Y-105100000D03*
%TO.N,SOLAR_Z*%
X163400000Y-85300000D03*
X141750000Y-92800000D03*
%TO.N,/PHT3*%
X145400000Y-95800000D03*
%TO.N,/PHT5*%
X160000000Y-93850000D03*
%TO.N,/PHT2*%
X136900000Y-85000000D03*
X136000000Y-104600000D03*
X163900000Y-104000000D03*
%TO.N,SOLAR_X*%
X158250000Y-96327818D03*
X142270941Y-107142433D03*
X143550000Y-106253491D03*
X137650000Y-106200000D03*
%TO.N,NRST*%
X142000000Y-98900000D03*
%TO.N,SWDIO*%
X144000000Y-105850000D03*
%TO.N,SWCLK*%
X145000000Y-105850000D03*
%TO.N,PH_PL*%
X152882600Y-83515200D03*
X154282200Y-83517800D03*
X149750000Y-84200000D03*
%TO.N,/PHT4*%
X141700000Y-82900000D03*
%TO.N,/+MAG+Z*%
X163900000Y-103400000D03*
X162100000Y-108075000D03*
X161100000Y-109425000D03*
X138850000Y-92600000D03*
%TO.N,/-MAG-Z*%
X162000000Y-102900000D03*
X162700000Y-86150000D03*
X163825000Y-101150000D03*
X162000000Y-101225000D03*
%TO.N,/+MAG+Y*%
X153025000Y-95800000D03*
X159775000Y-96476198D03*
%TO.N,/-MAG-Y*%
X153325000Y-106450000D03*
X158250000Y-97105636D03*
%TO.N,/+MAG-Y*%
X153800000Y-103400000D03*
X150650000Y-98175000D03*
%TO.N,/+MAG-Z*%
X142025000Y-89350000D03*
X162450000Y-85350000D03*
%TO.N,/+MAG-X*%
X158050000Y-98000000D03*
X136900000Y-105450000D03*
%TD*%
%TA.AperFunction,Conductor*%
%TO.N,GND*%
G36*
X132279588Y-112542330D02*
G01*
X132457670Y-112720412D01*
X132562577Y-112796631D01*
X131210446Y-114148763D01*
X131210445Y-114148763D01*
X131412528Y-114314609D01*
X131412534Y-114314614D01*
X131698472Y-114505673D01*
X132001733Y-114667768D01*
X132001767Y-114667784D01*
X132319465Y-114799378D01*
X132340511Y-114805763D01*
X132390707Y-114840749D01*
X132410753Y-114898557D01*
X132392991Y-114957108D01*
X132344207Y-114994036D01*
X132311772Y-114999500D01*
X131004320Y-114999500D01*
X130995691Y-114999123D01*
X130880536Y-114989048D01*
X130847091Y-114986121D01*
X130836415Y-114984597D01*
X130821718Y-114981674D01*
X130804974Y-114978343D01*
X130798671Y-114976873D01*
X130671489Y-114942796D01*
X130659225Y-114938633D01*
X130651755Y-114935539D01*
X130640289Y-114930789D01*
X130636339Y-114929051D01*
X130508097Y-114869252D01*
X130493152Y-114860623D01*
X130364632Y-114770632D01*
X130351412Y-114759540D01*
X130240459Y-114648587D01*
X130229367Y-114635367D01*
X130139376Y-114506847D01*
X130130747Y-114491902D01*
X130070947Y-114363658D01*
X130069210Y-114359709D01*
X130067603Y-114355832D01*
X130061363Y-114340765D01*
X130057204Y-114328517D01*
X130023125Y-114201327D01*
X130021658Y-114195039D01*
X130015397Y-114163559D01*
X130013880Y-114152934D01*
X130000877Y-114004308D01*
X130000500Y-113995681D01*
X130000500Y-112688227D01*
X130019407Y-112630036D01*
X130068907Y-112594072D01*
X130130093Y-112594072D01*
X130179593Y-112630036D01*
X130194237Y-112659489D01*
X130200620Y-112680531D01*
X130332215Y-112998232D01*
X130332231Y-112998266D01*
X130494326Y-113301527D01*
X130685385Y-113587465D01*
X130685390Y-113587471D01*
X130851235Y-113789552D01*
X132203366Y-112437420D01*
X132279588Y-112542330D01*
G37*
%TD.AperFunction*%
%TA.AperFunction,Conductor*%
G36*
X135020785Y-75010952D02*
G01*
X136985335Y-75993226D01*
X136989527Y-75996247D01*
X136997063Y-75999369D01*
X136999849Y-76000640D01*
X137002903Y-76000749D01*
X137011046Y-76001327D01*
X137016148Y-76000500D01*
X162983852Y-76000500D01*
X162988953Y-76001327D01*
X162997097Y-76000749D01*
X163000124Y-76000641D01*
X163002781Y-75999425D01*
X163010827Y-75996065D01*
X163014916Y-75993100D01*
X164979215Y-75010952D01*
X165023489Y-75000500D01*
X165311772Y-75000500D01*
X165369963Y-75019407D01*
X165405927Y-75068907D01*
X165405927Y-75130093D01*
X165369963Y-75179593D01*
X165340511Y-75194237D01*
X165319465Y-75200621D01*
X165001767Y-75332215D01*
X165001733Y-75332231D01*
X164698472Y-75494326D01*
X164412536Y-75685384D01*
X164210446Y-75851235D01*
X165562578Y-77203367D01*
X165457670Y-77279588D01*
X165279588Y-77457670D01*
X165203367Y-77562578D01*
X163851235Y-76210446D01*
X163685384Y-76412536D01*
X163494326Y-76698472D01*
X163332231Y-77001733D01*
X163332215Y-77001767D01*
X163200620Y-77319468D01*
X163100796Y-77648539D01*
X163033706Y-77985827D01*
X163000000Y-78328058D01*
X163000000Y-78671941D01*
X163033706Y-79014172D01*
X163100796Y-79351460D01*
X163200620Y-79680531D01*
X163332215Y-79998232D01*
X163332231Y-79998266D01*
X163494326Y-80301527D01*
X163685385Y-80587465D01*
X163685390Y-80587471D01*
X163851235Y-80789552D01*
X165203366Y-79437420D01*
X165279588Y-79542330D01*
X165457670Y-79720412D01*
X165562577Y-79796631D01*
X164210446Y-81148763D01*
X164210445Y-81148763D01*
X164412528Y-81314609D01*
X164412534Y-81314614D01*
X164698472Y-81505673D01*
X165001733Y-81667768D01*
X165001767Y-81667784D01*
X165319468Y-81799379D01*
X165648539Y-81899203D01*
X165985829Y-81966293D01*
X165985825Y-81966293D01*
X166328059Y-82000000D01*
X166671941Y-82000000D01*
X167014172Y-81966293D01*
X167351460Y-81899203D01*
X167680531Y-81799379D01*
X167998232Y-81667784D01*
X167998266Y-81667768D01*
X168301527Y-81505673D01*
X168587463Y-81314615D01*
X168789552Y-81148763D01*
X167437421Y-79796632D01*
X167542330Y-79720412D01*
X167720412Y-79542330D01*
X167796632Y-79437421D01*
X169148763Y-80789552D01*
X169314615Y-80587463D01*
X169505673Y-80301527D01*
X169667768Y-79998266D01*
X169667784Y-79998232D01*
X169799379Y-79680531D01*
X169805763Y-79659489D01*
X169840748Y-79609293D01*
X169898556Y-79589246D01*
X169957107Y-79607007D01*
X169994036Y-79655791D01*
X169999500Y-79688227D01*
X169999500Y-79976510D01*
X169989048Y-80020784D01*
X169006644Y-81985591D01*
X169003574Y-81989875D01*
X169000576Y-81997172D01*
X168999367Y-81999846D01*
X168999268Y-82002762D01*
X168998691Y-82011166D01*
X168999500Y-82016149D01*
X168999500Y-107983851D01*
X168998672Y-107988953D01*
X168999251Y-107997097D01*
X168999359Y-108000150D01*
X169000629Y-108002933D01*
X169003752Y-108010474D01*
X169006773Y-108014665D01*
X169989048Y-109979214D01*
X169999500Y-110023488D01*
X169999500Y-110311772D01*
X169980593Y-110369963D01*
X169931093Y-110405927D01*
X169869907Y-110405927D01*
X169820407Y-110369963D01*
X169805763Y-110340511D01*
X169799378Y-110319465D01*
X169667784Y-110001767D01*
X169667768Y-110001733D01*
X169505673Y-109698472D01*
X169314614Y-109412534D01*
X169314609Y-109412528D01*
X169148763Y-109210446D01*
X167796631Y-110562577D01*
X167720412Y-110457670D01*
X167542330Y-110279588D01*
X167437420Y-110203366D01*
X168789552Y-108851235D01*
X168789553Y-108851235D01*
X168587471Y-108685390D01*
X168587465Y-108685385D01*
X168301527Y-108494326D01*
X167998266Y-108332231D01*
X167998232Y-108332215D01*
X167680531Y-108200620D01*
X167351460Y-108100796D01*
X167014170Y-108033706D01*
X167014174Y-108033706D01*
X166671941Y-108000000D01*
X166328059Y-108000000D01*
X165985827Y-108033706D01*
X165648539Y-108100796D01*
X165319468Y-108200620D01*
X165001767Y-108332215D01*
X165001733Y-108332231D01*
X164698472Y-108494326D01*
X164412536Y-108685384D01*
X164210446Y-108851235D01*
X165562578Y-110203367D01*
X165457670Y-110279588D01*
X165279588Y-110457670D01*
X165203367Y-110562578D01*
X163851235Y-109210446D01*
X163685384Y-109412536D01*
X163494326Y-109698472D01*
X163332231Y-110001733D01*
X163332215Y-110001767D01*
X163200620Y-110319468D01*
X163100796Y-110648539D01*
X163033706Y-110985827D01*
X163000000Y-111328058D01*
X163000000Y-111671941D01*
X163033706Y-112014172D01*
X163100796Y-112351460D01*
X163200620Y-112680531D01*
X163332215Y-112998232D01*
X163332231Y-112998266D01*
X163494326Y-113301527D01*
X163685385Y-113587465D01*
X163685390Y-113587471D01*
X163851235Y-113789552D01*
X165203366Y-112437420D01*
X165279588Y-112542330D01*
X165457670Y-112720412D01*
X165562577Y-112796631D01*
X164210446Y-114148763D01*
X164210445Y-114148763D01*
X164412528Y-114314609D01*
X164412534Y-114314614D01*
X164698472Y-114505673D01*
X165001733Y-114667768D01*
X165001767Y-114667784D01*
X165319465Y-114799378D01*
X165340511Y-114805763D01*
X165390707Y-114840749D01*
X165410753Y-114898557D01*
X165392991Y-114957108D01*
X165344207Y-114994036D01*
X165311772Y-114999500D01*
X165023489Y-114999500D01*
X164979215Y-114989048D01*
X163014665Y-114006773D01*
X163010474Y-114003752D01*
X163002933Y-114000629D01*
X163000150Y-113999359D01*
X162997097Y-113999251D01*
X162988953Y-113998672D01*
X162983852Y-113999500D01*
X137016148Y-113999500D01*
X137011046Y-113998672D01*
X137002903Y-113999251D01*
X136999821Y-113999360D01*
X136996915Y-114000682D01*
X136989875Y-114003574D01*
X136985591Y-114006644D01*
X135020785Y-114989048D01*
X134976511Y-114999500D01*
X134688228Y-114999500D01*
X134630037Y-114980593D01*
X134594073Y-114931093D01*
X134594073Y-114869907D01*
X134630037Y-114820407D01*
X134659489Y-114805763D01*
X134680534Y-114799378D01*
X134998232Y-114667784D01*
X134998266Y-114667768D01*
X135301527Y-114505673D01*
X135587463Y-114314615D01*
X135789552Y-114148763D01*
X134437421Y-112796632D01*
X134542330Y-112720412D01*
X134720412Y-112542330D01*
X134796632Y-112437421D01*
X136148763Y-113789552D01*
X136314615Y-113587463D01*
X136505673Y-113301527D01*
X136667768Y-112998266D01*
X136667784Y-112998232D01*
X136799379Y-112680531D01*
X136899203Y-112351460D01*
X136966293Y-112014172D01*
X137000000Y-111671941D01*
X137000000Y-111387332D01*
X137519500Y-111387332D01*
X137519500Y-111594267D01*
X137559869Y-111797218D01*
X137639058Y-111988397D01*
X137723108Y-112114187D01*
X137754023Y-112160455D01*
X137900345Y-112306777D01*
X138072402Y-112421741D01*
X138263580Y-112500930D01*
X138466535Y-112541300D01*
X138466536Y-112541300D01*
X138673464Y-112541300D01*
X138673465Y-112541300D01*
X138876420Y-112500930D01*
X139067598Y-112421741D01*
X139239655Y-112306777D01*
X139385977Y-112160455D01*
X139500941Y-111988398D01*
X139580130Y-111797220D01*
X139620500Y-111594265D01*
X139620500Y-111387335D01*
X139620499Y-111387332D01*
X140059500Y-111387332D01*
X140059500Y-111594267D01*
X140099869Y-111797218D01*
X140179058Y-111988397D01*
X140263108Y-112114187D01*
X140294023Y-112160455D01*
X140440345Y-112306777D01*
X140612402Y-112421741D01*
X140803580Y-112500930D01*
X141006535Y-112541300D01*
X141006536Y-112541300D01*
X141213464Y-112541300D01*
X141213465Y-112541300D01*
X141416420Y-112500930D01*
X141607598Y-112421741D01*
X141779655Y-112306777D01*
X141925977Y-112160455D01*
X142040941Y-111988398D01*
X142120130Y-111797220D01*
X142160500Y-111594265D01*
X142160500Y-111387335D01*
X142160499Y-111387332D01*
X142599500Y-111387332D01*
X142599500Y-111594267D01*
X142639869Y-111797218D01*
X142719058Y-111988397D01*
X142803108Y-112114187D01*
X142834023Y-112160455D01*
X142980345Y-112306777D01*
X143152402Y-112421741D01*
X143343580Y-112500930D01*
X143546535Y-112541300D01*
X143546536Y-112541300D01*
X143753464Y-112541300D01*
X143753465Y-112541300D01*
X143956420Y-112500930D01*
X144147598Y-112421741D01*
X144319655Y-112306777D01*
X144465977Y-112160455D01*
X144580941Y-111988398D01*
X144660130Y-111797220D01*
X144700500Y-111594265D01*
X144700500Y-111387335D01*
X144700499Y-111387332D01*
X145139500Y-111387332D01*
X145139500Y-111594267D01*
X145179869Y-111797218D01*
X145259058Y-111988397D01*
X145343108Y-112114187D01*
X145374023Y-112160455D01*
X145520345Y-112306777D01*
X145692402Y-112421741D01*
X145883580Y-112500930D01*
X146086535Y-112541300D01*
X146086536Y-112541300D01*
X146293464Y-112541300D01*
X146293465Y-112541300D01*
X146496420Y-112500930D01*
X146687598Y-112421741D01*
X146859655Y-112306777D01*
X147005977Y-112160455D01*
X147120941Y-111988398D01*
X147200130Y-111797220D01*
X147240500Y-111594265D01*
X147240500Y-111387335D01*
X147240499Y-111387332D01*
X147679500Y-111387332D01*
X147679500Y-111594267D01*
X147719869Y-111797218D01*
X147799058Y-111988397D01*
X147883108Y-112114187D01*
X147914023Y-112160455D01*
X148060345Y-112306777D01*
X148232402Y-112421741D01*
X148423580Y-112500930D01*
X148626535Y-112541300D01*
X148626536Y-112541300D01*
X148833464Y-112541300D01*
X148833465Y-112541300D01*
X149036420Y-112500930D01*
X149227598Y-112421741D01*
X149399655Y-112306777D01*
X149545977Y-112160455D01*
X149660941Y-111988398D01*
X149740130Y-111797220D01*
X149780500Y-111594265D01*
X149780500Y-111387335D01*
X149780499Y-111387332D01*
X150219500Y-111387332D01*
X150219500Y-111594267D01*
X150259869Y-111797218D01*
X150339058Y-111988397D01*
X150423108Y-112114187D01*
X150454023Y-112160455D01*
X150600345Y-112306777D01*
X150772402Y-112421741D01*
X150963580Y-112500930D01*
X151166535Y-112541300D01*
X151166536Y-112541300D01*
X151373464Y-112541300D01*
X151373465Y-112541300D01*
X151576420Y-112500930D01*
X151767598Y-112421741D01*
X151939655Y-112306777D01*
X152085977Y-112160455D01*
X152200941Y-111988398D01*
X152280130Y-111797220D01*
X152320500Y-111594265D01*
X152320500Y-111387335D01*
X152320499Y-111387332D01*
X152759500Y-111387332D01*
X152759500Y-111594267D01*
X152799869Y-111797218D01*
X152879058Y-111988397D01*
X152963108Y-112114187D01*
X152994023Y-112160455D01*
X153140345Y-112306777D01*
X153312402Y-112421741D01*
X153503580Y-112500930D01*
X153706535Y-112541300D01*
X153706536Y-112541300D01*
X153913464Y-112541300D01*
X153913465Y-112541300D01*
X154116420Y-112500930D01*
X154307598Y-112421741D01*
X154479655Y-112306777D01*
X154625977Y-112160455D01*
X154740941Y-111988398D01*
X154820130Y-111797220D01*
X154860500Y-111594265D01*
X154860500Y-111387335D01*
X154860499Y-111387332D01*
X155299500Y-111387332D01*
X155299500Y-111594267D01*
X155339869Y-111797218D01*
X155419058Y-111988397D01*
X155503108Y-112114187D01*
X155534023Y-112160455D01*
X155680345Y-112306777D01*
X155852402Y-112421741D01*
X156043580Y-112500930D01*
X156246535Y-112541300D01*
X156246536Y-112541300D01*
X156453464Y-112541300D01*
X156453465Y-112541300D01*
X156656420Y-112500930D01*
X156847598Y-112421741D01*
X157019655Y-112306777D01*
X157165977Y-112160455D01*
X157280941Y-111988398D01*
X157360130Y-111797220D01*
X157400500Y-111594265D01*
X157400500Y-111387335D01*
X157400499Y-111387332D01*
X157839500Y-111387332D01*
X157839500Y-111594267D01*
X157879869Y-111797218D01*
X157959058Y-111988397D01*
X158043108Y-112114187D01*
X158074023Y-112160455D01*
X158220345Y-112306777D01*
X158392402Y-112421741D01*
X158583580Y-112500930D01*
X158786535Y-112541300D01*
X158786536Y-112541300D01*
X158993464Y-112541300D01*
X158993465Y-112541300D01*
X159196420Y-112500930D01*
X159387598Y-112421741D01*
X159559655Y-112306777D01*
X159705977Y-112160455D01*
X159820941Y-111988398D01*
X159900130Y-111797220D01*
X159940500Y-111594265D01*
X159940500Y-111387335D01*
X159900130Y-111184380D01*
X159820941Y-110993202D01*
X159705977Y-110821145D01*
X159559655Y-110674823D01*
X159520318Y-110648539D01*
X159441691Y-110596002D01*
X160280000Y-110596002D01*
X160280000Y-111236799D01*
X160280001Y-111236800D01*
X160999297Y-111236800D01*
X160964075Y-111297807D01*
X160930000Y-111424974D01*
X160930000Y-111556626D01*
X160964075Y-111683793D01*
X160999297Y-111744800D01*
X160280002Y-111744800D01*
X160280001Y-111744801D01*
X160280001Y-112385591D01*
X160282909Y-112410674D01*
X160328213Y-112513277D01*
X160407522Y-112592586D01*
X160510127Y-112637890D01*
X160535203Y-112640799D01*
X161175998Y-112640799D01*
X161176000Y-112640798D01*
X161176000Y-111921502D01*
X161237007Y-111956725D01*
X161364174Y-111990800D01*
X161495826Y-111990800D01*
X161622993Y-111956725D01*
X161684000Y-111921502D01*
X161684000Y-112640798D01*
X161684001Y-112640799D01*
X162324790Y-112640799D01*
X162324791Y-112640798D01*
X162349874Y-112637890D01*
X162452477Y-112592586D01*
X162531786Y-112513277D01*
X162577090Y-112410672D01*
X162579999Y-112385597D01*
X162580000Y-112385595D01*
X162580000Y-111744801D01*
X162579999Y-111744800D01*
X161860703Y-111744800D01*
X161895925Y-111683793D01*
X161930000Y-111556626D01*
X161930000Y-111424974D01*
X161895925Y-111297807D01*
X161860703Y-111236800D01*
X162579998Y-111236800D01*
X162579999Y-111236799D01*
X162579999Y-110596010D01*
X162579998Y-110596008D01*
X162577090Y-110570925D01*
X162531786Y-110468322D01*
X162452477Y-110389013D01*
X162349872Y-110343709D01*
X162324797Y-110340800D01*
X161684001Y-110340800D01*
X161684000Y-110340801D01*
X161684000Y-111060097D01*
X161622993Y-111024875D01*
X161495826Y-110990800D01*
X161364174Y-110990800D01*
X161237007Y-111024875D01*
X161176000Y-111060097D01*
X161176000Y-110340801D01*
X161175999Y-110340800D01*
X160535210Y-110340800D01*
X160535207Y-110340801D01*
X160510125Y-110343709D01*
X160407522Y-110389013D01*
X160328213Y-110468322D01*
X160282909Y-110570927D01*
X160280000Y-110596002D01*
X159441691Y-110596002D01*
X159387597Y-110559858D01*
X159196418Y-110480669D01*
X158993467Y-110440300D01*
X158993465Y-110440300D01*
X158786535Y-110440300D01*
X158786532Y-110440300D01*
X158583581Y-110480669D01*
X158392402Y-110559858D01*
X158220348Y-110674820D01*
X158074020Y-110821148D01*
X157959058Y-110993202D01*
X157879869Y-111184381D01*
X157839500Y-111387332D01*
X157400499Y-111387332D01*
X157360130Y-111184380D01*
X157280941Y-110993202D01*
X157165977Y-110821145D01*
X157019655Y-110674823D01*
X157019651Y-110674820D01*
X156847597Y-110559858D01*
X156656418Y-110480669D01*
X156453467Y-110440300D01*
X156453465Y-110440300D01*
X156246535Y-110440300D01*
X156246532Y-110440300D01*
X156043581Y-110480669D01*
X155852402Y-110559858D01*
X155680348Y-110674820D01*
X155534020Y-110821148D01*
X155419058Y-110993202D01*
X155339869Y-111184381D01*
X155299500Y-111387332D01*
X154860499Y-111387332D01*
X154820130Y-111184380D01*
X154740941Y-110993202D01*
X154625977Y-110821145D01*
X154479655Y-110674823D01*
X154479651Y-110674820D01*
X154307597Y-110559858D01*
X154116418Y-110480669D01*
X153913467Y-110440300D01*
X153913465Y-110440300D01*
X153706535Y-110440300D01*
X153706532Y-110440300D01*
X153503581Y-110480669D01*
X153312402Y-110559858D01*
X153140348Y-110674820D01*
X152994020Y-110821148D01*
X152879058Y-110993202D01*
X152799869Y-111184381D01*
X152759500Y-111387332D01*
X152320499Y-111387332D01*
X152280130Y-111184380D01*
X152200941Y-110993202D01*
X152085977Y-110821145D01*
X151939655Y-110674823D01*
X151939651Y-110674820D01*
X151767597Y-110559858D01*
X151576418Y-110480669D01*
X151373467Y-110440300D01*
X151373465Y-110440300D01*
X151166535Y-110440300D01*
X151166532Y-110440300D01*
X150963581Y-110480669D01*
X150772402Y-110559858D01*
X150600348Y-110674820D01*
X150454020Y-110821148D01*
X150339058Y-110993202D01*
X150259869Y-111184381D01*
X150219500Y-111387332D01*
X149780499Y-111387332D01*
X149740130Y-111184380D01*
X149660941Y-110993202D01*
X149545977Y-110821145D01*
X149399655Y-110674823D01*
X149399651Y-110674820D01*
X149227597Y-110559858D01*
X149036418Y-110480669D01*
X148833467Y-110440300D01*
X148833465Y-110440300D01*
X148626535Y-110440300D01*
X148626532Y-110440300D01*
X148423581Y-110480669D01*
X148232402Y-110559858D01*
X148060348Y-110674820D01*
X147914020Y-110821148D01*
X147799058Y-110993202D01*
X147719869Y-111184381D01*
X147679500Y-111387332D01*
X147240499Y-111387332D01*
X147200130Y-111184380D01*
X147120941Y-110993202D01*
X147005977Y-110821145D01*
X146859655Y-110674823D01*
X146859651Y-110674820D01*
X146687597Y-110559858D01*
X146496418Y-110480669D01*
X146293467Y-110440300D01*
X146293465Y-110440300D01*
X146086535Y-110440300D01*
X146086532Y-110440300D01*
X145883581Y-110480669D01*
X145692402Y-110559858D01*
X145520348Y-110674820D01*
X145374020Y-110821148D01*
X145259058Y-110993202D01*
X145179869Y-111184381D01*
X145139500Y-111387332D01*
X144700499Y-111387332D01*
X144660130Y-111184380D01*
X144580941Y-110993202D01*
X144465977Y-110821145D01*
X144319655Y-110674823D01*
X144319651Y-110674820D01*
X144147597Y-110559858D01*
X143956418Y-110480669D01*
X143753467Y-110440300D01*
X143753465Y-110440300D01*
X143546535Y-110440300D01*
X143546532Y-110440300D01*
X143343581Y-110480669D01*
X143152402Y-110559858D01*
X142980348Y-110674820D01*
X142834020Y-110821148D01*
X142719058Y-110993202D01*
X142639869Y-111184381D01*
X142599500Y-111387332D01*
X142160499Y-111387332D01*
X142120130Y-111184380D01*
X142040941Y-110993202D01*
X141925977Y-110821145D01*
X141779655Y-110674823D01*
X141779651Y-110674820D01*
X141607597Y-110559858D01*
X141416418Y-110480669D01*
X141213467Y-110440300D01*
X141213465Y-110440300D01*
X141006535Y-110440300D01*
X141006532Y-110440300D01*
X140803581Y-110480669D01*
X140612402Y-110559858D01*
X140440348Y-110674820D01*
X140294020Y-110821148D01*
X140179058Y-110993202D01*
X140099869Y-111184381D01*
X140059500Y-111387332D01*
X139620499Y-111387332D01*
X139580130Y-111184380D01*
X139500941Y-110993202D01*
X139385977Y-110821145D01*
X139239655Y-110674823D01*
X139239651Y-110674820D01*
X139067597Y-110559858D01*
X138876418Y-110480669D01*
X138673467Y-110440300D01*
X138673465Y-110440300D01*
X138466535Y-110440300D01*
X138466532Y-110440300D01*
X138263581Y-110480669D01*
X138072402Y-110559858D01*
X137900348Y-110674820D01*
X137754020Y-110821148D01*
X137639058Y-110993202D01*
X137559869Y-111184381D01*
X137519500Y-111387332D01*
X137000000Y-111387332D01*
X137000000Y-111328058D01*
X136966293Y-110985827D01*
X136899203Y-110648539D01*
X136799379Y-110319468D01*
X136667784Y-110001767D01*
X136667768Y-110001733D01*
X136505673Y-109698472D01*
X136314614Y-109412534D01*
X136314609Y-109412528D01*
X136148763Y-109210446D01*
X134796631Y-110562577D01*
X134720412Y-110457670D01*
X134542330Y-110279588D01*
X134437420Y-110203366D01*
X135593515Y-109047273D01*
X149499500Y-109047273D01*
X149499500Y-109152727D01*
X149506564Y-109179089D01*
X149526794Y-109254589D01*
X149526794Y-109254590D01*
X149562414Y-109316285D01*
X149579520Y-109345913D01*
X149654087Y-109420480D01*
X149745413Y-109473207D01*
X149847273Y-109500500D01*
X149847275Y-109500500D01*
X149952725Y-109500500D01*
X149952727Y-109500500D01*
X150054587Y-109473207D01*
X150145913Y-109420480D01*
X150220480Y-109345913D01*
X150273207Y-109254587D01*
X150300500Y-109152727D01*
X150300500Y-109047273D01*
X150273207Y-108945413D01*
X150220480Y-108854087D01*
X150145913Y-108779520D01*
X150102731Y-108754589D01*
X150054589Y-108726794D01*
X150054588Y-108726793D01*
X150054587Y-108726793D01*
X149952727Y-108699500D01*
X149847273Y-108699500D01*
X149745413Y-108726793D01*
X149745412Y-108726793D01*
X149745410Y-108726794D01*
X149745409Y-108726794D01*
X149654089Y-108779518D01*
X149579518Y-108854089D01*
X149526794Y-108945409D01*
X149526794Y-108945410D01*
X149526793Y-108945412D01*
X149526793Y-108945413D01*
X149499500Y-109047273D01*
X135593515Y-109047273D01*
X135670008Y-108970780D01*
X135789552Y-108851235D01*
X135789553Y-108851235D01*
X135587471Y-108685390D01*
X135587465Y-108685385D01*
X135494248Y-108623099D01*
X135380767Y-108547273D01*
X155599500Y-108547273D01*
X155599500Y-108652727D01*
X155624834Y-108747274D01*
X155626794Y-108754589D01*
X155626794Y-108754590D01*
X155679518Y-108845910D01*
X155679520Y-108845913D01*
X155754087Y-108920480D01*
X155845413Y-108973207D01*
X155947273Y-109000500D01*
X155947275Y-109000500D01*
X156052725Y-109000500D01*
X156052727Y-109000500D01*
X156154587Y-108973207D01*
X156245913Y-108920480D01*
X156320480Y-108845913D01*
X156373207Y-108754587D01*
X156400500Y-108652727D01*
X156400500Y-108547273D01*
X156373207Y-108445413D01*
X156365342Y-108431791D01*
X156320481Y-108354089D01*
X156320480Y-108354087D01*
X156245913Y-108279520D01*
X156159426Y-108229587D01*
X156154589Y-108226794D01*
X156154588Y-108226793D01*
X156154587Y-108226793D01*
X156052727Y-108199500D01*
X155947273Y-108199500D01*
X155845413Y-108226793D01*
X155845412Y-108226793D01*
X155845410Y-108226794D01*
X155845409Y-108226794D01*
X155754089Y-108279518D01*
X155679518Y-108354089D01*
X155626794Y-108445409D01*
X155626794Y-108445410D01*
X155626793Y-108445412D01*
X155626793Y-108445413D01*
X155599500Y-108547273D01*
X135380767Y-108547273D01*
X135301527Y-108494326D01*
X134998266Y-108332231D01*
X134998232Y-108332215D01*
X134680531Y-108200620D01*
X134351460Y-108100796D01*
X134277989Y-108086182D01*
X156838409Y-108086182D01*
X156838409Y-108191636D01*
X156865702Y-108293496D01*
X156865703Y-108293498D01*
X156865703Y-108293499D01*
X156900684Y-108354087D01*
X156918429Y-108384822D01*
X156965400Y-108431793D01*
X156993176Y-108486308D01*
X156983605Y-108546740D01*
X156981132Y-108551295D01*
X156979520Y-108554086D01*
X156979520Y-108554087D01*
X156926793Y-108645413D01*
X156899500Y-108747273D01*
X156899500Y-108852727D01*
X156924335Y-108945413D01*
X156926794Y-108954589D01*
X156926794Y-108954590D01*
X156967157Y-109024500D01*
X156979520Y-109045913D01*
X157054087Y-109120480D01*
X157145413Y-109173207D01*
X157247273Y-109200500D01*
X157247275Y-109200500D01*
X157352725Y-109200500D01*
X157352727Y-109200500D01*
X157454587Y-109173207D01*
X157545913Y-109120480D01*
X157619120Y-109047273D01*
X158999500Y-109047273D01*
X158999500Y-109152727D01*
X159006564Y-109179089D01*
X159026794Y-109254589D01*
X159026794Y-109254590D01*
X159062414Y-109316285D01*
X159079520Y-109345913D01*
X159154087Y-109420480D01*
X159245413Y-109473207D01*
X159347273Y-109500500D01*
X159347275Y-109500500D01*
X159452725Y-109500500D01*
X159452727Y-109500500D01*
X159554587Y-109473207D01*
X159645913Y-109420480D01*
X159694120Y-109372273D01*
X160699500Y-109372273D01*
X160699500Y-109477727D01*
X160705602Y-109500500D01*
X160726794Y-109579589D01*
X160726794Y-109579590D01*
X160779518Y-109670910D01*
X160779520Y-109670913D01*
X160854087Y-109745480D01*
X160945413Y-109798207D01*
X161047273Y-109825500D01*
X161047275Y-109825500D01*
X161152725Y-109825500D01*
X161152727Y-109825500D01*
X161254587Y-109798207D01*
X161345913Y-109745480D01*
X161420480Y-109670913D01*
X161473207Y-109579587D01*
X161500500Y-109477727D01*
X161500500Y-109372273D01*
X161473207Y-109270413D01*
X161420480Y-109179087D01*
X161345913Y-109104520D01*
X161254587Y-109051793D01*
X161152727Y-109024500D01*
X161047273Y-109024500D01*
X160945413Y-109051793D01*
X160945412Y-109051793D01*
X160945410Y-109051794D01*
X160945409Y-109051794D01*
X160854089Y-109104518D01*
X160779518Y-109179089D01*
X160726794Y-109270409D01*
X160726794Y-109270410D01*
X160726793Y-109270412D01*
X160726793Y-109270413D01*
X160699500Y-109372273D01*
X159694120Y-109372273D01*
X159720480Y-109345913D01*
X159773207Y-109254587D01*
X159800500Y-109152727D01*
X159800500Y-109047273D01*
X159773207Y-108945413D01*
X159720480Y-108854087D01*
X159645913Y-108779520D01*
X159602731Y-108754589D01*
X159554589Y-108726794D01*
X159554588Y-108726793D01*
X159554587Y-108726793D01*
X159452727Y-108699500D01*
X159347273Y-108699500D01*
X159245413Y-108726793D01*
X159245412Y-108726793D01*
X159245410Y-108726794D01*
X159245409Y-108726794D01*
X159154089Y-108779518D01*
X159079518Y-108854089D01*
X159026794Y-108945409D01*
X159026794Y-108945410D01*
X159026793Y-108945412D01*
X159026793Y-108945413D01*
X158999500Y-109047273D01*
X157619120Y-109047273D01*
X157620480Y-109045913D01*
X157673207Y-108954587D01*
X157700500Y-108852727D01*
X157700500Y-108747273D01*
X157673207Y-108645413D01*
X157620480Y-108554087D01*
X157573507Y-108507114D01*
X157545732Y-108452600D01*
X157555303Y-108392168D01*
X157557777Y-108387612D01*
X157559386Y-108384824D01*
X157559389Y-108384822D01*
X157612116Y-108293496D01*
X157639409Y-108191636D01*
X157639409Y-108086182D01*
X157622285Y-108022273D01*
X161699500Y-108022273D01*
X161699500Y-108127727D01*
X161726045Y-108226794D01*
X161726794Y-108229589D01*
X161726794Y-108229590D01*
X161779518Y-108320910D01*
X161779520Y-108320913D01*
X161854087Y-108395480D01*
X161945413Y-108448207D01*
X162047273Y-108475500D01*
X162047275Y-108475500D01*
X162152725Y-108475500D01*
X162152727Y-108475500D01*
X162254587Y-108448207D01*
X162345913Y-108395480D01*
X162420480Y-108320913D01*
X162473207Y-108229587D01*
X162500500Y-108127727D01*
X162500500Y-108022273D01*
X162473207Y-107920413D01*
X162420480Y-107829087D01*
X162345913Y-107754520D01*
X162316480Y-107737527D01*
X162254589Y-107701794D01*
X162254588Y-107701793D01*
X162254587Y-107701793D01*
X162152727Y-107674500D01*
X162047273Y-107674500D01*
X161945413Y-107701793D01*
X161945412Y-107701793D01*
X161945410Y-107701794D01*
X161945409Y-107701794D01*
X161854089Y-107754518D01*
X161779518Y-107829089D01*
X161726794Y-107920409D01*
X161726794Y-107920410D01*
X161726793Y-107920412D01*
X161726793Y-107920413D01*
X161699500Y-108022273D01*
X157622285Y-108022273D01*
X157612116Y-107984322D01*
X157559389Y-107892996D01*
X157484822Y-107818429D01*
X157393496Y-107765702D01*
X157291636Y-107738409D01*
X157186182Y-107738409D01*
X157084322Y-107765702D01*
X157084321Y-107765702D01*
X157084319Y-107765703D01*
X157084318Y-107765703D01*
X156992998Y-107818427D01*
X156918427Y-107892998D01*
X156865703Y-107984318D01*
X156865703Y-107984319D01*
X156865702Y-107984321D01*
X156865702Y-107984322D01*
X156838409Y-108086182D01*
X134277989Y-108086182D01*
X134014170Y-108033706D01*
X134014174Y-108033706D01*
X133671941Y-108000000D01*
X133328059Y-108000000D01*
X132985827Y-108033706D01*
X132648539Y-108100796D01*
X132319468Y-108200620D01*
X132001767Y-108332215D01*
X132001733Y-108332231D01*
X131698472Y-108494326D01*
X131412536Y-108685384D01*
X131210446Y-108851235D01*
X132562578Y-110203367D01*
X132457670Y-110279588D01*
X132279588Y-110457670D01*
X132203367Y-110562578D01*
X130851235Y-109210446D01*
X130685384Y-109412536D01*
X130494326Y-109698472D01*
X130332231Y-110001733D01*
X130332215Y-110001767D01*
X130200621Y-110319465D01*
X130194237Y-110340511D01*
X130159251Y-110390707D01*
X130101443Y-110410753D01*
X130042892Y-110392991D01*
X130005964Y-110344207D01*
X130000500Y-110311772D01*
X130000500Y-110023487D01*
X130010952Y-109979213D01*
X130030860Y-109939397D01*
X130993100Y-108014916D01*
X130996065Y-108010827D01*
X130999425Y-108002781D01*
X131000641Y-108000124D01*
X131000749Y-107997097D01*
X131001327Y-107988953D01*
X131000500Y-107983851D01*
X131000500Y-107632073D01*
X146099500Y-107632073D01*
X146099500Y-107737527D01*
X146124034Y-107829089D01*
X146126794Y-107839389D01*
X146126794Y-107839390D01*
X146173573Y-107920413D01*
X146179520Y-107930713D01*
X146254087Y-108005280D01*
X146345413Y-108058007D01*
X146447273Y-108085300D01*
X146447275Y-108085300D01*
X146552725Y-108085300D01*
X146552727Y-108085300D01*
X146654587Y-108058007D01*
X146745913Y-108005280D01*
X146820480Y-107930713D01*
X146873207Y-107839387D01*
X146900500Y-107737527D01*
X146900500Y-107632073D01*
X146873207Y-107530213D01*
X146873059Y-107529957D01*
X146834351Y-107462913D01*
X146820480Y-107438887D01*
X146745913Y-107364320D01*
X146740060Y-107360941D01*
X146654589Y-107311594D01*
X146654588Y-107311593D01*
X146654587Y-107311593D01*
X146552727Y-107284300D01*
X146447273Y-107284300D01*
X146345413Y-107311593D01*
X146345412Y-107311593D01*
X146345410Y-107311594D01*
X146345409Y-107311594D01*
X146254089Y-107364318D01*
X146179518Y-107438889D01*
X146126794Y-107530209D01*
X146126794Y-107530210D01*
X146126793Y-107530212D01*
X146126793Y-107530213D01*
X146099500Y-107632073D01*
X131000500Y-107632073D01*
X131000500Y-105560253D01*
X132458700Y-105560253D01*
X132458700Y-107299746D01*
X132458701Y-107299758D01*
X132470332Y-107358227D01*
X132470334Y-107358233D01*
X132514645Y-107424548D01*
X132514648Y-107424552D01*
X132580969Y-107468867D01*
X132625431Y-107477711D01*
X132639441Y-107480498D01*
X132639446Y-107480498D01*
X132639452Y-107480500D01*
X132639453Y-107480500D01*
X134378947Y-107480500D01*
X134378948Y-107480500D01*
X134437431Y-107468867D01*
X134503752Y-107424552D01*
X134548067Y-107358231D01*
X134559700Y-107299748D01*
X134559700Y-107089706D01*
X141870441Y-107089706D01*
X141870441Y-107195160D01*
X141884058Y-107245979D01*
X141897735Y-107297022D01*
X141897735Y-107297023D01*
X141950459Y-107388343D01*
X141950461Y-107388346D01*
X142025028Y-107462913D01*
X142116354Y-107515640D01*
X142218214Y-107542933D01*
X142218216Y-107542933D01*
X142323666Y-107542933D01*
X142323668Y-107542933D01*
X142425528Y-107515640D01*
X142516854Y-107462913D01*
X142591421Y-107388346D01*
X142644148Y-107297020D01*
X142671441Y-107195160D01*
X142671441Y-107089706D01*
X142644148Y-106987846D01*
X142591856Y-106897273D01*
X155599500Y-106897273D01*
X155599500Y-107002727D01*
X155626793Y-107104587D01*
X155626794Y-107104589D01*
X155626794Y-107104590D01*
X155679084Y-107195158D01*
X155679520Y-107195913D01*
X155754087Y-107270480D01*
X155845413Y-107323207D01*
X155947273Y-107350500D01*
X155947275Y-107350500D01*
X156052725Y-107350500D01*
X156052727Y-107350500D01*
X156154587Y-107323207D01*
X156245913Y-107270480D01*
X156320480Y-107195913D01*
X156373207Y-107104587D01*
X156400500Y-107002727D01*
X156400500Y-106897273D01*
X156373207Y-106795413D01*
X156320480Y-106704087D01*
X156245913Y-106629520D01*
X156241025Y-106626698D01*
X156154589Y-106576794D01*
X156154588Y-106576793D01*
X156154587Y-106576793D01*
X156052727Y-106549500D01*
X155947273Y-106549500D01*
X155845413Y-106576793D01*
X155845412Y-106576793D01*
X155845410Y-106576794D01*
X155845409Y-106576794D01*
X155754089Y-106629518D01*
X155679518Y-106704089D01*
X155626794Y-106795409D01*
X155626794Y-106795410D01*
X155626793Y-106795412D01*
X155626793Y-106795413D01*
X155599500Y-106897273D01*
X142591856Y-106897273D01*
X142591421Y-106896520D01*
X142516854Y-106821953D01*
X142487570Y-106805046D01*
X142425530Y-106769227D01*
X142425529Y-106769226D01*
X142425528Y-106769226D01*
X142323668Y-106741933D01*
X142218214Y-106741933D01*
X142116354Y-106769226D01*
X142116353Y-106769226D01*
X142116351Y-106769227D01*
X142116350Y-106769227D01*
X142025030Y-106821951D01*
X141950459Y-106896522D01*
X141897735Y-106987842D01*
X141897735Y-106987843D01*
X141897734Y-106987845D01*
X141897734Y-106987846D01*
X141870441Y-107089706D01*
X134559700Y-107089706D01*
X134559700Y-106147273D01*
X137249500Y-106147273D01*
X137249500Y-106252727D01*
X137274469Y-106345912D01*
X137276794Y-106354589D01*
X137276794Y-106354590D01*
X137329518Y-106445910D01*
X137329520Y-106445913D01*
X137404087Y-106520480D01*
X137495413Y-106573207D01*
X137597273Y-106600500D01*
X137597275Y-106600500D01*
X137702725Y-106600500D01*
X137702727Y-106600500D01*
X137804587Y-106573207D01*
X137895913Y-106520480D01*
X137970480Y-106445913D01*
X138023207Y-106354587D01*
X138050500Y-106252727D01*
X138050500Y-106200764D01*
X143149500Y-106200764D01*
X143149500Y-106306218D01*
X143176793Y-106408078D01*
X143176794Y-106408080D01*
X143176794Y-106408081D01*
X143229518Y-106499401D01*
X143229520Y-106499404D01*
X143304087Y-106573971D01*
X143395413Y-106626698D01*
X143497273Y-106653991D01*
X143497275Y-106653991D01*
X143602725Y-106653991D01*
X143602727Y-106653991D01*
X143704587Y-106626698D01*
X143795913Y-106573971D01*
X143870480Y-106499404D01*
X143923207Y-106408078D01*
X143933605Y-106369273D01*
X148405300Y-106369273D01*
X148405300Y-106474727D01*
X148432593Y-106576587D01*
X148432594Y-106576589D01*
X148432594Y-106576590D01*
X148477282Y-106653991D01*
X148485320Y-106667913D01*
X148559887Y-106742480D01*
X148651213Y-106795207D01*
X148753073Y-106822500D01*
X148753075Y-106822500D01*
X148858525Y-106822500D01*
X148858527Y-106822500D01*
X148960387Y-106795207D01*
X149051713Y-106742480D01*
X149126280Y-106667913D01*
X149179007Y-106576587D01*
X149206300Y-106474727D01*
X149206300Y-106369273D01*
X149405300Y-106369273D01*
X149405300Y-106474727D01*
X149432593Y-106576587D01*
X149432594Y-106576589D01*
X149432594Y-106576590D01*
X149477282Y-106653991D01*
X149485320Y-106667913D01*
X149559887Y-106742480D01*
X149651213Y-106795207D01*
X149753073Y-106822500D01*
X149753075Y-106822500D01*
X149858525Y-106822500D01*
X149858527Y-106822500D01*
X149960387Y-106795207D01*
X150051713Y-106742480D01*
X150126280Y-106667913D01*
X150179007Y-106576587D01*
X150206300Y-106474727D01*
X150206300Y-106397273D01*
X152924500Y-106397273D01*
X152924500Y-106502727D01*
X152944346Y-106576793D01*
X152951794Y-106604589D01*
X152951794Y-106604590D01*
X152980316Y-106653991D01*
X153004520Y-106695913D01*
X153079087Y-106770480D01*
X153170413Y-106823207D01*
X153272273Y-106850500D01*
X153272275Y-106850500D01*
X153377725Y-106850500D01*
X153377727Y-106850500D01*
X153479587Y-106823207D01*
X153570913Y-106770480D01*
X153645480Y-106695913D01*
X153698207Y-106604587D01*
X153725500Y-106502727D01*
X153725500Y-106397273D01*
X153698207Y-106295413D01*
X153682039Y-106267410D01*
X153645481Y-106204089D01*
X153645480Y-106204087D01*
X153570913Y-106129520D01*
X153565716Y-106126519D01*
X153565715Y-106126518D01*
X153479589Y-106076794D01*
X153479588Y-106076793D01*
X153479587Y-106076793D01*
X153377727Y-106049500D01*
X153272273Y-106049500D01*
X153170413Y-106076793D01*
X153170412Y-106076793D01*
X153170410Y-106076794D01*
X153170409Y-106076794D01*
X153079089Y-106129518D01*
X153004518Y-106204089D01*
X152951794Y-106295409D01*
X152951794Y-106295410D01*
X152951793Y-106295412D01*
X152951793Y-106295413D01*
X152924500Y-106397273D01*
X150206300Y-106397273D01*
X150206300Y-106369273D01*
X150179007Y-106267413D01*
X150169242Y-106250500D01*
X150126281Y-106176089D01*
X150126280Y-106176087D01*
X150051713Y-106101520D01*
X150042001Y-106095913D01*
X149960389Y-106048794D01*
X149960388Y-106048793D01*
X149960387Y-106048793D01*
X149858527Y-106021500D01*
X149753073Y-106021500D01*
X149651213Y-106048793D01*
X149651212Y-106048793D01*
X149651210Y-106048794D01*
X149651209Y-106048794D01*
X149559889Y-106101518D01*
X149485318Y-106176089D01*
X149432594Y-106267409D01*
X149432594Y-106267410D01*
X149432593Y-106267412D01*
X149432593Y-106267413D01*
X149405300Y-106369273D01*
X149206300Y-106369273D01*
X149179007Y-106267413D01*
X149169242Y-106250500D01*
X149126281Y-106176089D01*
X149126280Y-106176087D01*
X149051713Y-106101520D01*
X149042001Y-106095913D01*
X148960389Y-106048794D01*
X148960388Y-106048793D01*
X148960387Y-106048793D01*
X148858527Y-106021500D01*
X148753073Y-106021500D01*
X148651213Y-106048793D01*
X148651212Y-106048793D01*
X148651210Y-106048794D01*
X148651209Y-106048794D01*
X148559889Y-106101518D01*
X148485318Y-106176089D01*
X148432594Y-106267409D01*
X148432594Y-106267410D01*
X148432593Y-106267412D01*
X148432593Y-106267413D01*
X148405300Y-106369273D01*
X143933605Y-106369273D01*
X143945056Y-106326536D01*
X143945768Y-106323880D01*
X143979090Y-106272564D01*
X144036211Y-106250636D01*
X144041395Y-106250500D01*
X144052725Y-106250500D01*
X144052727Y-106250500D01*
X144154587Y-106223207D01*
X144245913Y-106170480D01*
X144320480Y-106095913D01*
X144373207Y-106004587D01*
X144400500Y-105902727D01*
X144400500Y-105797273D01*
X144599500Y-105797273D01*
X144599500Y-105902727D01*
X144626793Y-106004587D01*
X144626794Y-106004589D01*
X144626794Y-106004590D01*
X144679518Y-106095910D01*
X144679520Y-106095913D01*
X144754087Y-106170480D01*
X144845413Y-106223207D01*
X144947273Y-106250500D01*
X144947275Y-106250500D01*
X145052725Y-106250500D01*
X145052727Y-106250500D01*
X145154587Y-106223207D01*
X145245913Y-106170480D01*
X145320480Y-106095913D01*
X145373207Y-106004587D01*
X145400500Y-105902727D01*
X145400500Y-105797273D01*
X145387103Y-105747273D01*
X151599500Y-105747273D01*
X151599500Y-105852727D01*
X151624335Y-105945413D01*
X151626794Y-105954589D01*
X151626794Y-105954590D01*
X151679231Y-106045413D01*
X151679520Y-106045913D01*
X151754087Y-106120480D01*
X151845413Y-106173207D01*
X151947273Y-106200500D01*
X151947275Y-106200500D01*
X152052725Y-106200500D01*
X152052727Y-106200500D01*
X152154587Y-106173207D01*
X152245913Y-106120480D01*
X152319120Y-106047273D01*
X160299500Y-106047273D01*
X160299500Y-106152727D01*
X160326295Y-106252727D01*
X160326794Y-106254589D01*
X160326794Y-106254590D01*
X160374467Y-106337161D01*
X160379520Y-106345913D01*
X160454087Y-106420480D01*
X160545413Y-106473207D01*
X160647273Y-106500500D01*
X160647275Y-106500500D01*
X160752725Y-106500500D01*
X160752727Y-106500500D01*
X160854587Y-106473207D01*
X160945913Y-106420480D01*
X161020480Y-106345913D01*
X161031670Y-106326532D01*
X165440300Y-106326532D01*
X165440300Y-106533467D01*
X165480669Y-106736418D01*
X165559858Y-106927597D01*
X165559859Y-106927598D01*
X165674823Y-107099655D01*
X165821145Y-107245977D01*
X165993202Y-107360941D01*
X166184380Y-107440130D01*
X166387335Y-107480500D01*
X166387336Y-107480500D01*
X166594264Y-107480500D01*
X166594265Y-107480500D01*
X166797220Y-107440130D01*
X166988398Y-107360941D01*
X167160455Y-107245977D01*
X167306777Y-107099655D01*
X167421741Y-106927598D01*
X167500930Y-106736420D01*
X167541300Y-106533465D01*
X167541300Y-106326535D01*
X167500930Y-106123580D01*
X167421741Y-105932402D01*
X167306777Y-105760345D01*
X167160455Y-105614023D01*
X167160451Y-105614020D01*
X166988397Y-105499058D01*
X166797218Y-105419869D01*
X166594267Y-105379500D01*
X166594265Y-105379500D01*
X166387335Y-105379500D01*
X166387332Y-105379500D01*
X166184381Y-105419869D01*
X165993202Y-105499058D01*
X165821148Y-105614020D01*
X165674820Y-105760348D01*
X165559858Y-105932402D01*
X165480669Y-106123581D01*
X165440300Y-106326532D01*
X161031670Y-106326532D01*
X161073207Y-106254587D01*
X161100500Y-106152727D01*
X161100500Y-106047273D01*
X161073207Y-105945413D01*
X161020480Y-105854087D01*
X160945913Y-105779520D01*
X160930255Y-105770480D01*
X160854589Y-105726794D01*
X160854588Y-105726793D01*
X160854587Y-105726793D01*
X160752727Y-105699500D01*
X160647273Y-105699500D01*
X160545413Y-105726793D01*
X160545412Y-105726793D01*
X160545410Y-105726794D01*
X160545409Y-105726794D01*
X160454089Y-105779518D01*
X160379518Y-105854089D01*
X160326794Y-105945409D01*
X160326794Y-105945410D01*
X160326793Y-105945412D01*
X160326793Y-105945413D01*
X160299500Y-106047273D01*
X152319120Y-106047273D01*
X152320480Y-106045913D01*
X152373207Y-105954587D01*
X152400500Y-105852727D01*
X152400500Y-105747273D01*
X152373207Y-105645413D01*
X152349347Y-105604087D01*
X152320481Y-105554089D01*
X152320480Y-105554087D01*
X152245913Y-105479520D01*
X152241191Y-105476794D01*
X152154589Y-105426794D01*
X152154588Y-105426793D01*
X152154587Y-105426793D01*
X152052727Y-105399500D01*
X151947273Y-105399500D01*
X151845413Y-105426793D01*
X151845412Y-105426793D01*
X151845410Y-105426794D01*
X151845409Y-105426794D01*
X151754089Y-105479518D01*
X151679518Y-105554089D01*
X151626794Y-105645409D01*
X151626794Y-105645410D01*
X151626793Y-105645412D01*
X151626793Y-105645413D01*
X151599500Y-105747273D01*
X145387103Y-105747273D01*
X145373207Y-105695413D01*
X145320480Y-105604087D01*
X145245913Y-105529520D01*
X145193151Y-105499058D01*
X145154589Y-105476794D01*
X145154588Y-105476793D01*
X145154587Y-105476793D01*
X145052727Y-105449500D01*
X144947273Y-105449500D01*
X144845413Y-105476793D01*
X144845412Y-105476793D01*
X144845410Y-105476794D01*
X144845409Y-105476794D01*
X144754089Y-105529518D01*
X144679518Y-105604089D01*
X144626794Y-105695409D01*
X144626794Y-105695410D01*
X144626793Y-105695412D01*
X144626793Y-105695413D01*
X144599500Y-105797273D01*
X144400500Y-105797273D01*
X144373207Y-105695413D01*
X144320480Y-105604087D01*
X144245913Y-105529520D01*
X144193151Y-105499058D01*
X144154589Y-105476794D01*
X144154588Y-105476793D01*
X144154587Y-105476793D01*
X144052727Y-105449500D01*
X143947273Y-105449500D01*
X143845413Y-105476793D01*
X143845412Y-105476793D01*
X143845410Y-105476794D01*
X143845409Y-105476794D01*
X143754089Y-105529518D01*
X143679518Y-105604089D01*
X143626794Y-105695409D01*
X143626794Y-105695410D01*
X143626793Y-105695412D01*
X143626793Y-105695413D01*
X143604258Y-105779518D01*
X143604232Y-105779614D01*
X143570908Y-105830928D01*
X143513786Y-105852855D01*
X143508605Y-105852991D01*
X143497273Y-105852991D01*
X143395413Y-105880284D01*
X143395412Y-105880284D01*
X143395410Y-105880285D01*
X143395409Y-105880285D01*
X143304089Y-105933009D01*
X143229518Y-106007580D01*
X143176794Y-106098900D01*
X143176794Y-106098901D01*
X143176793Y-106098903D01*
X143176793Y-106098904D01*
X143149500Y-106200764D01*
X138050500Y-106200764D01*
X138050500Y-106147273D01*
X138023207Y-106045413D01*
X137970480Y-105954087D01*
X137895913Y-105879520D01*
X137851865Y-105854089D01*
X137804589Y-105826794D01*
X137804588Y-105826793D01*
X137804587Y-105826793D01*
X137702727Y-105799500D01*
X137597273Y-105799500D01*
X137495413Y-105826793D01*
X137495412Y-105826793D01*
X137495410Y-105826794D01*
X137495409Y-105826794D01*
X137404089Y-105879518D01*
X137329518Y-105954089D01*
X137276794Y-106045409D01*
X137276794Y-106045410D01*
X137276793Y-106045412D01*
X137276793Y-106045413D01*
X137249500Y-106147273D01*
X134559700Y-106147273D01*
X134559700Y-105560252D01*
X134548067Y-105501769D01*
X134546256Y-105499058D01*
X134510662Y-105445789D01*
X134510660Y-105445787D01*
X134503752Y-105435448D01*
X134490801Y-105426794D01*
X134446620Y-105397273D01*
X136499500Y-105397273D01*
X136499500Y-105502727D01*
X136514911Y-105560241D01*
X136526794Y-105604589D01*
X136526794Y-105604590D01*
X136579231Y-105695413D01*
X136579520Y-105695913D01*
X136654087Y-105770480D01*
X136745413Y-105823207D01*
X136847273Y-105850500D01*
X136847275Y-105850500D01*
X136952725Y-105850500D01*
X136952727Y-105850500D01*
X137054587Y-105823207D01*
X137145913Y-105770480D01*
X137220480Y-105695913D01*
X137273207Y-105604587D01*
X137300500Y-105502727D01*
X137300500Y-105397273D01*
X137273207Y-105295413D01*
X137220480Y-105204087D01*
X137145913Y-105129520D01*
X137140716Y-105126519D01*
X137140715Y-105126518D01*
X137054589Y-105076794D01*
X137054588Y-105076793D01*
X137054587Y-105076793D01*
X136952727Y-105049500D01*
X136847273Y-105049500D01*
X136745413Y-105076793D01*
X136745412Y-105076793D01*
X136745410Y-105076794D01*
X136745409Y-105076794D01*
X136654089Y-105129518D01*
X136579518Y-105204089D01*
X136526794Y-105295409D01*
X136526794Y-105295410D01*
X136526793Y-105295412D01*
X136526793Y-105295413D01*
X136499500Y-105397273D01*
X134446620Y-105397273D01*
X134437433Y-105391134D01*
X134437431Y-105391133D01*
X134437428Y-105391132D01*
X134437427Y-105391132D01*
X134378958Y-105379501D01*
X134378948Y-105379500D01*
X132639452Y-105379500D01*
X132639451Y-105379500D01*
X132639441Y-105379501D01*
X132580972Y-105391132D01*
X132580966Y-105391134D01*
X132514651Y-105435445D01*
X132514645Y-105435451D01*
X132470334Y-105501766D01*
X132470332Y-105501772D01*
X132458701Y-105560241D01*
X132458700Y-105560253D01*
X131000500Y-105560253D01*
X131000500Y-105047273D01*
X160199500Y-105047273D01*
X160199500Y-105152727D01*
X160226793Y-105254587D01*
X160226794Y-105254589D01*
X160226794Y-105254590D01*
X160279518Y-105345910D01*
X160279520Y-105345913D01*
X160354087Y-105420480D01*
X160445413Y-105473207D01*
X160547273Y-105500500D01*
X160547275Y-105500500D01*
X160652725Y-105500500D01*
X160652727Y-105500500D01*
X160754587Y-105473207D01*
X160845913Y-105420480D01*
X160920480Y-105345913D01*
X160973207Y-105254587D01*
X161000500Y-105152727D01*
X161000500Y-105047273D01*
X160973207Y-104945413D01*
X160970370Y-104940500D01*
X160920481Y-104854089D01*
X160920480Y-104854087D01*
X160845913Y-104779520D01*
X160802731Y-104754589D01*
X160754589Y-104726794D01*
X160754588Y-104726793D01*
X160754587Y-104726793D01*
X160652727Y-104699500D01*
X160547273Y-104699500D01*
X160445413Y-104726793D01*
X160445412Y-104726793D01*
X160445410Y-104726794D01*
X160445409Y-104726794D01*
X160354089Y-104779518D01*
X160279518Y-104854089D01*
X160226794Y-104945409D01*
X160226794Y-104945410D01*
X160226793Y-104945412D01*
X160226793Y-104945413D01*
X160199500Y-105047273D01*
X131000500Y-105047273D01*
X131000500Y-103786532D01*
X132458700Y-103786532D01*
X132458700Y-103993467D01*
X132499069Y-104196418D01*
X132578258Y-104387597D01*
X132684950Y-104547274D01*
X132693223Y-104559655D01*
X132839545Y-104705977D01*
X133011602Y-104820941D01*
X133202780Y-104900130D01*
X133405735Y-104940500D01*
X133405736Y-104940500D01*
X133612664Y-104940500D01*
X133612665Y-104940500D01*
X133815620Y-104900130D01*
X134006798Y-104820941D01*
X134178855Y-104705977D01*
X134325177Y-104559655D01*
X134333450Y-104547273D01*
X135599500Y-104547273D01*
X135599500Y-104652727D01*
X135613769Y-104705979D01*
X135626794Y-104754589D01*
X135626794Y-104754590D01*
X135665102Y-104820941D01*
X135679520Y-104845913D01*
X135754087Y-104920480D01*
X135845413Y-104973207D01*
X135947273Y-105000500D01*
X135947275Y-105000500D01*
X136052725Y-105000500D01*
X136052727Y-105000500D01*
X136154587Y-104973207D01*
X136245913Y-104920480D01*
X136320480Y-104845913D01*
X136373207Y-104754587D01*
X136400500Y-104652727D01*
X136400500Y-104547273D01*
X136373207Y-104445413D01*
X136320480Y-104354087D01*
X136245913Y-104279520D01*
X136154587Y-104226793D01*
X136052727Y-104199500D01*
X135947273Y-104199500D01*
X135845413Y-104226793D01*
X135845412Y-104226793D01*
X135845410Y-104226794D01*
X135845409Y-104226794D01*
X135754089Y-104279518D01*
X135679518Y-104354089D01*
X135626794Y-104445409D01*
X135626794Y-104445410D01*
X135626793Y-104445412D01*
X135626793Y-104445413D01*
X135599500Y-104547273D01*
X134333450Y-104547273D01*
X134440141Y-104387598D01*
X134519330Y-104196420D01*
X134559700Y-103993465D01*
X134559700Y-103786535D01*
X134519330Y-103583580D01*
X134440141Y-103392402D01*
X134325177Y-103220345D01*
X134178855Y-103074023D01*
X134178851Y-103074020D01*
X134006797Y-102959058D01*
X133815618Y-102879869D01*
X133612667Y-102839500D01*
X133612665Y-102839500D01*
X133405735Y-102839500D01*
X133405732Y-102839500D01*
X133202781Y-102879869D01*
X133011602Y-102959058D01*
X132839548Y-103074020D01*
X132693220Y-103220348D01*
X132578258Y-103392402D01*
X132499069Y-103583581D01*
X132458700Y-103786532D01*
X131000500Y-103786532D01*
X131000500Y-101246532D01*
X132458700Y-101246532D01*
X132458700Y-101453467D01*
X132499069Y-101656418D01*
X132578258Y-101847597D01*
X132660366Y-101970481D01*
X132693223Y-102019655D01*
X132839545Y-102165977D01*
X133011602Y-102280941D01*
X133202780Y-102360130D01*
X133405735Y-102400500D01*
X133405736Y-102400500D01*
X133612664Y-102400500D01*
X133612665Y-102400500D01*
X133815620Y-102360130D01*
X134006798Y-102280941D01*
X134178855Y-102165977D01*
X134197559Y-102147273D01*
X137199500Y-102147273D01*
X137199500Y-102252727D01*
X137224834Y-102347274D01*
X137226794Y-102354589D01*
X137226794Y-102354590D01*
X137255662Y-102404590D01*
X137279520Y-102445913D01*
X137354087Y-102520480D01*
X137365023Y-102526794D01*
X137445409Y-102573205D01*
X137445411Y-102573206D01*
X137445413Y-102573207D01*
X137464545Y-102578333D01*
X137515860Y-102611658D01*
X137537786Y-102668779D01*
X137521950Y-102727880D01*
X137488423Y-102759696D01*
X137454088Y-102779519D01*
X137379518Y-102854089D01*
X137326794Y-102945409D01*
X137326794Y-102945410D01*
X137326793Y-102945412D01*
X137326793Y-102945413D01*
X137299500Y-103047273D01*
X137299500Y-103152727D01*
X137324834Y-103247274D01*
X137326794Y-103254589D01*
X137326794Y-103254590D01*
X137379518Y-103345910D01*
X137379520Y-103345913D01*
X137454087Y-103420480D01*
X137545413Y-103473207D01*
X137647273Y-103500500D01*
X137647275Y-103500500D01*
X137752725Y-103500500D01*
X137752727Y-103500500D01*
X137854587Y-103473207D01*
X137945913Y-103420480D01*
X138020480Y-103345913D01*
X138073207Y-103254587D01*
X138074209Y-103250844D01*
X138075166Y-103247273D01*
X150299500Y-103247273D01*
X150299500Y-103352727D01*
X150326295Y-103452727D01*
X150326794Y-103454589D01*
X150326794Y-103454590D01*
X150379518Y-103545910D01*
X150379520Y-103545913D01*
X150454087Y-103620480D01*
X150545413Y-103673207D01*
X150647273Y-103700500D01*
X150647275Y-103700500D01*
X150752725Y-103700500D01*
X150752727Y-103700500D01*
X150854587Y-103673207D01*
X150945913Y-103620480D01*
X151020480Y-103545913D01*
X151073207Y-103454587D01*
X151100500Y-103352727D01*
X151100500Y-103347273D01*
X153399500Y-103347273D01*
X153399500Y-103452727D01*
X153424469Y-103545913D01*
X153426794Y-103554589D01*
X153426794Y-103554590D01*
X153479518Y-103645910D01*
X153479520Y-103645913D01*
X153554087Y-103720480D01*
X153645413Y-103773207D01*
X153747273Y-103800500D01*
X153747275Y-103800500D01*
X153852725Y-103800500D01*
X153852727Y-103800500D01*
X153954587Y-103773207D01*
X154045913Y-103720480D01*
X154120480Y-103645913D01*
X154173207Y-103554587D01*
X154200500Y-103452727D01*
X154200500Y-103347273D01*
X163499500Y-103347273D01*
X163499500Y-103452727D01*
X163526793Y-103554587D01*
X163579520Y-103645913D01*
X163579521Y-103645914D01*
X163582169Y-103650500D01*
X163594890Y-103710348D01*
X163582169Y-103749500D01*
X163579521Y-103754085D01*
X163579520Y-103754087D01*
X163526793Y-103845413D01*
X163499500Y-103947273D01*
X163499500Y-104052727D01*
X163526793Y-104154587D01*
X163526794Y-104154589D01*
X163526794Y-104154590D01*
X163579518Y-104245910D01*
X163579520Y-104245913D01*
X163654087Y-104320480D01*
X163745413Y-104373207D01*
X163847273Y-104400500D01*
X163847275Y-104400500D01*
X163952725Y-104400500D01*
X163952727Y-104400500D01*
X164054587Y-104373207D01*
X164145913Y-104320480D01*
X164220480Y-104245913D01*
X164273207Y-104154587D01*
X164300500Y-104052727D01*
X164300500Y-103947273D01*
X164273207Y-103845413D01*
X164239212Y-103786532D01*
X165440300Y-103786532D01*
X165440300Y-103993467D01*
X165480669Y-104196418D01*
X165559858Y-104387597D01*
X165666550Y-104547274D01*
X165674823Y-104559655D01*
X165821145Y-104705977D01*
X165993202Y-104820941D01*
X166184380Y-104900130D01*
X166387335Y-104940500D01*
X166387336Y-104940500D01*
X166594264Y-104940500D01*
X166594265Y-104940500D01*
X166797220Y-104900130D01*
X166988398Y-104820941D01*
X167160455Y-104705977D01*
X167306777Y-104559655D01*
X167421741Y-104387598D01*
X167500930Y-104196420D01*
X167541300Y-103993465D01*
X167541300Y-103786535D01*
X167500930Y-103583580D01*
X167421741Y-103392402D01*
X167306777Y-103220345D01*
X167160455Y-103074023D01*
X167160451Y-103074020D01*
X166988397Y-102959058D01*
X166797218Y-102879869D01*
X166594267Y-102839500D01*
X166594265Y-102839500D01*
X166387335Y-102839500D01*
X166387332Y-102839500D01*
X166184381Y-102879869D01*
X165993202Y-102959058D01*
X165821148Y-103074020D01*
X165674820Y-103220348D01*
X165559858Y-103392402D01*
X165480669Y-103583581D01*
X165440300Y-103786532D01*
X164239212Y-103786532D01*
X164220480Y-103754087D01*
X164220478Y-103754085D01*
X164217831Y-103749500D01*
X164205109Y-103689652D01*
X164217831Y-103650499D01*
X164220477Y-103645915D01*
X164220480Y-103645913D01*
X164273207Y-103554587D01*
X164300500Y-103452727D01*
X164300500Y-103347273D01*
X164273207Y-103245413D01*
X164255740Y-103215160D01*
X164220481Y-103154089D01*
X164220480Y-103154087D01*
X164145913Y-103079520D01*
X164102731Y-103054589D01*
X164054589Y-103026794D01*
X164054588Y-103026793D01*
X164054587Y-103026793D01*
X163952727Y-102999500D01*
X163847273Y-102999500D01*
X163745413Y-103026793D01*
X163745412Y-103026793D01*
X163745410Y-103026794D01*
X163745409Y-103026794D01*
X163654089Y-103079518D01*
X163579518Y-103154089D01*
X163526794Y-103245409D01*
X163526794Y-103245410D01*
X163526793Y-103245412D01*
X163526793Y-103245413D01*
X163499500Y-103347273D01*
X154200500Y-103347273D01*
X154173207Y-103245413D01*
X154155740Y-103215160D01*
X154120481Y-103154089D01*
X154120480Y-103154087D01*
X154045913Y-103079520D01*
X154002731Y-103054589D01*
X153954589Y-103026794D01*
X153954588Y-103026793D01*
X153954587Y-103026793D01*
X153852727Y-102999500D01*
X153747273Y-102999500D01*
X153645413Y-103026793D01*
X153645412Y-103026793D01*
X153645410Y-103026794D01*
X153645409Y-103026794D01*
X153554089Y-103079518D01*
X153479518Y-103154089D01*
X153426794Y-103245409D01*
X153426794Y-103245410D01*
X153426793Y-103245412D01*
X153426793Y-103245413D01*
X153399500Y-103347273D01*
X151100500Y-103347273D01*
X151100500Y-103247273D01*
X151073207Y-103145413D01*
X151020480Y-103054087D01*
X150945913Y-102979520D01*
X150910473Y-102959059D01*
X150854589Y-102926794D01*
X150854588Y-102926793D01*
X150854587Y-102926793D01*
X150752727Y-102899500D01*
X150647273Y-102899500D01*
X150545413Y-102926793D01*
X150545412Y-102926793D01*
X150545410Y-102926794D01*
X150545409Y-102926794D01*
X150454089Y-102979518D01*
X150379518Y-103054089D01*
X150326794Y-103145409D01*
X150326794Y-103145410D01*
X150326793Y-103145412D01*
X150326793Y-103145413D01*
X150299500Y-103247273D01*
X138075166Y-103247273D01*
X138083772Y-103215160D01*
X138089639Y-103193258D01*
X138100500Y-103152727D01*
X138100500Y-103047273D01*
X138073207Y-102945413D01*
X138062457Y-102926794D01*
X138020481Y-102854089D01*
X138020480Y-102854087D01*
X138013666Y-102847273D01*
X161599500Y-102847273D01*
X161599500Y-102952727D01*
X161624834Y-103047274D01*
X161626794Y-103054589D01*
X161626794Y-103054590D01*
X161679231Y-103145413D01*
X161679520Y-103145913D01*
X161754087Y-103220480D01*
X161845413Y-103273207D01*
X161947273Y-103300500D01*
X161947275Y-103300500D01*
X162052725Y-103300500D01*
X162052727Y-103300500D01*
X162154587Y-103273207D01*
X162186835Y-103254589D01*
X162199506Y-103247273D01*
X162245913Y-103220480D01*
X162320480Y-103145913D01*
X162373207Y-103054587D01*
X162400500Y-102952727D01*
X162400500Y-102847273D01*
X162373207Y-102745413D01*
X162363084Y-102727880D01*
X162320481Y-102654089D01*
X162320480Y-102654087D01*
X162245913Y-102579520D01*
X162243857Y-102578333D01*
X162154589Y-102526794D01*
X162154588Y-102526793D01*
X162154587Y-102526793D01*
X162052727Y-102499500D01*
X161947273Y-102499500D01*
X161845413Y-102526793D01*
X161845412Y-102526793D01*
X161845410Y-102526794D01*
X161845409Y-102526794D01*
X161754089Y-102579518D01*
X161679518Y-102654089D01*
X161626794Y-102745409D01*
X161626794Y-102745410D01*
X161626793Y-102745412D01*
X161626793Y-102745413D01*
X161599500Y-102847273D01*
X138013666Y-102847273D01*
X137945913Y-102779520D01*
X137934977Y-102773206D01*
X137854590Y-102726794D01*
X137854586Y-102726792D01*
X137835451Y-102721665D01*
X137784138Y-102688339D01*
X137762213Y-102631217D01*
X137778050Y-102572117D01*
X137811577Y-102540303D01*
X137845913Y-102520480D01*
X137920480Y-102445913D01*
X137973207Y-102354587D01*
X138000500Y-102252727D01*
X138000500Y-102197273D01*
X149049500Y-102197273D01*
X149049500Y-102302727D01*
X149064881Y-102360130D01*
X149076794Y-102404589D01*
X149076794Y-102404590D01*
X149129518Y-102495910D01*
X149129520Y-102495913D01*
X149204087Y-102570480D01*
X149295413Y-102623207D01*
X149397273Y-102650500D01*
X149397275Y-102650500D01*
X149502725Y-102650500D01*
X149502727Y-102650500D01*
X149604587Y-102623207D01*
X149695913Y-102570480D01*
X149770480Y-102495913D01*
X149823207Y-102404587D01*
X149838564Y-102347273D01*
X154299500Y-102347273D01*
X154299500Y-102452727D01*
X154326793Y-102554587D01*
X154326794Y-102554589D01*
X154326794Y-102554590D01*
X154371035Y-102631217D01*
X154379520Y-102645913D01*
X154454087Y-102720480D01*
X154545413Y-102773207D01*
X154647273Y-102800500D01*
X154647275Y-102800500D01*
X154752725Y-102800500D01*
X154752727Y-102800500D01*
X154854587Y-102773207D01*
X154945913Y-102720480D01*
X155020480Y-102645913D01*
X155073207Y-102554587D01*
X155100500Y-102452727D01*
X155100500Y-102347273D01*
X155073207Y-102245413D01*
X155020480Y-102154087D01*
X154945913Y-102079520D01*
X154934975Y-102073205D01*
X154854589Y-102026794D01*
X154854588Y-102026793D01*
X154854587Y-102026793D01*
X154752727Y-101999500D01*
X154647273Y-101999500D01*
X154545413Y-102026793D01*
X154545412Y-102026793D01*
X154545410Y-102026794D01*
X154545409Y-102026794D01*
X154454089Y-102079518D01*
X154379518Y-102154089D01*
X154326794Y-102245409D01*
X154326794Y-102245410D01*
X154326793Y-102245412D01*
X154326793Y-102245413D01*
X154299500Y-102347273D01*
X149838564Y-102347273D01*
X149850500Y-102302727D01*
X149850500Y-102197273D01*
X149823207Y-102095413D01*
X149810386Y-102073207D01*
X149770481Y-102004089D01*
X149770480Y-102004087D01*
X149695913Y-101929520D01*
X149609310Y-101879520D01*
X149604589Y-101876794D01*
X149604588Y-101876793D01*
X149604587Y-101876793D01*
X149502727Y-101849500D01*
X149397273Y-101849500D01*
X149295413Y-101876793D01*
X149295412Y-101876793D01*
X149295410Y-101876794D01*
X149295409Y-101876794D01*
X149204089Y-101929518D01*
X149129518Y-102004089D01*
X149076794Y-102095409D01*
X149076794Y-102095410D01*
X149076793Y-102095412D01*
X149076793Y-102095413D01*
X149049500Y-102197273D01*
X138000500Y-102197273D01*
X138000500Y-102147273D01*
X137973207Y-102045413D01*
X137962457Y-102026794D01*
X137920481Y-101954089D01*
X137920480Y-101954087D01*
X137845913Y-101879520D01*
X137841191Y-101876794D01*
X137754589Y-101826794D01*
X137754588Y-101826793D01*
X137754587Y-101826793D01*
X137652727Y-101799500D01*
X137547273Y-101799500D01*
X137445413Y-101826793D01*
X137445412Y-101826793D01*
X137445410Y-101826794D01*
X137445409Y-101826794D01*
X137354089Y-101879518D01*
X137279518Y-101954089D01*
X137226794Y-102045409D01*
X137226794Y-102045410D01*
X137226793Y-102045412D01*
X137226793Y-102045413D01*
X137199500Y-102147273D01*
X134197559Y-102147273D01*
X134325177Y-102019655D01*
X134440141Y-101847598D01*
X134519330Y-101656420D01*
X134559700Y-101453465D01*
X134559700Y-101246535D01*
X134544929Y-101172274D01*
X134542507Y-101160098D01*
X134539956Y-101147273D01*
X137199500Y-101147273D01*
X137199500Y-101252727D01*
X137220761Y-101332074D01*
X137226794Y-101354589D01*
X137226794Y-101354590D01*
X137274677Y-101437525D01*
X137279520Y-101445913D01*
X137354087Y-101520480D01*
X137445413Y-101573207D01*
X137547273Y-101600500D01*
X137547275Y-101600500D01*
X137652725Y-101600500D01*
X137652727Y-101600500D01*
X137664770Y-101597273D01*
X141999500Y-101597273D01*
X141999500Y-101702727D01*
X142025430Y-101799500D01*
X142026794Y-101804589D01*
X142026794Y-101804590D01*
X142079518Y-101895910D01*
X142079520Y-101895913D01*
X142154087Y-101970480D01*
X142245413Y-102023207D01*
X142347273Y-102050500D01*
X142347275Y-102050500D01*
X142452725Y-102050500D01*
X142452727Y-102050500D01*
X142554587Y-102023207D01*
X142645913Y-101970480D01*
X142720480Y-101895913D01*
X142773207Y-101804587D01*
X142800500Y-101702727D01*
X142800500Y-101597273D01*
X142773207Y-101495413D01*
X142749347Y-101454087D01*
X142720481Y-101404089D01*
X142720480Y-101404087D01*
X142648466Y-101332073D01*
X150799500Y-101332073D01*
X150799500Y-101437527D01*
X150822458Y-101523207D01*
X150826794Y-101539389D01*
X150826794Y-101539390D01*
X150876510Y-101625500D01*
X150879520Y-101630713D01*
X150954087Y-101705280D01*
X151045413Y-101758007D01*
X151147273Y-101785300D01*
X151147275Y-101785300D01*
X151252725Y-101785300D01*
X151252727Y-101785300D01*
X151354587Y-101758007D01*
X151445913Y-101705280D01*
X151503920Y-101647273D01*
X160099500Y-101647273D01*
X160099500Y-101752727D01*
X160125430Y-101849500D01*
X160126794Y-101854589D01*
X160126794Y-101854590D01*
X160179518Y-101945910D01*
X160179520Y-101945913D01*
X160254087Y-102020480D01*
X160345413Y-102073207D01*
X160447273Y-102100500D01*
X160447275Y-102100500D01*
X160552725Y-102100500D01*
X160552727Y-102100500D01*
X160654587Y-102073207D01*
X160745913Y-102020480D01*
X160820480Y-101945913D01*
X160864264Y-101870075D01*
X160909733Y-101829136D01*
X160970583Y-101822740D01*
X161023571Y-101853333D01*
X161035732Y-101870071D01*
X161079520Y-101945913D01*
X161154087Y-102020480D01*
X161245413Y-102073207D01*
X161347273Y-102100500D01*
X161347275Y-102100500D01*
X161452725Y-102100500D01*
X161452727Y-102100500D01*
X161554587Y-102073207D01*
X161645913Y-102020480D01*
X161720480Y-101945913D01*
X161773207Y-101854587D01*
X161800500Y-101752727D01*
X161800500Y-101715191D01*
X161819407Y-101657000D01*
X161868907Y-101621036D01*
X161925123Y-101619565D01*
X161947273Y-101625500D01*
X161947274Y-101625500D01*
X162052725Y-101625500D01*
X162052727Y-101625500D01*
X162154587Y-101598207D01*
X162245913Y-101545480D01*
X162320480Y-101470913D01*
X162373207Y-101379587D01*
X162400500Y-101277727D01*
X162400500Y-101172273D01*
X162380404Y-101097273D01*
X163424500Y-101097273D01*
X163424500Y-101202727D01*
X163444596Y-101277727D01*
X163451794Y-101304589D01*
X163451794Y-101304590D01*
X163495094Y-101379587D01*
X163504520Y-101395913D01*
X163579087Y-101470480D01*
X163670413Y-101523207D01*
X163772273Y-101550500D01*
X163772275Y-101550500D01*
X163877725Y-101550500D01*
X163877727Y-101550500D01*
X163979587Y-101523207D01*
X164070913Y-101470480D01*
X164145480Y-101395913D01*
X164198207Y-101304587D01*
X164213763Y-101246532D01*
X165440300Y-101246532D01*
X165440300Y-101453467D01*
X165480669Y-101656418D01*
X165559858Y-101847597D01*
X165641966Y-101970481D01*
X165674823Y-102019655D01*
X165821145Y-102165977D01*
X165993202Y-102280941D01*
X166184380Y-102360130D01*
X166387335Y-102400500D01*
X166387336Y-102400500D01*
X166594264Y-102400500D01*
X166594265Y-102400500D01*
X166797220Y-102360130D01*
X166988398Y-102280941D01*
X167160455Y-102165977D01*
X167306777Y-102019655D01*
X167421741Y-101847598D01*
X167500930Y-101656420D01*
X167541300Y-101453465D01*
X167541300Y-101246535D01*
X167500930Y-101043580D01*
X167421741Y-100852402D01*
X167306777Y-100680345D01*
X167160455Y-100534023D01*
X167149636Y-100526794D01*
X166988397Y-100419058D01*
X166797218Y-100339869D01*
X166594267Y-100299500D01*
X166594265Y-100299500D01*
X166387335Y-100299500D01*
X166387332Y-100299500D01*
X166184381Y-100339869D01*
X165993202Y-100419058D01*
X165821148Y-100534020D01*
X165674820Y-100680348D01*
X165559858Y-100852402D01*
X165480669Y-101043581D01*
X165440300Y-101246532D01*
X164213763Y-101246532D01*
X164225500Y-101202727D01*
X164225500Y-101097273D01*
X164198207Y-100995413D01*
X164188782Y-100979089D01*
X164145481Y-100904089D01*
X164145480Y-100904087D01*
X164070913Y-100829520D01*
X164066191Y-100826794D01*
X163979589Y-100776794D01*
X163979588Y-100776793D01*
X163979587Y-100776793D01*
X163877727Y-100749500D01*
X163772273Y-100749500D01*
X163670413Y-100776793D01*
X163670412Y-100776793D01*
X163670410Y-100776794D01*
X163670409Y-100776794D01*
X163579089Y-100829518D01*
X163504518Y-100904089D01*
X163451794Y-100995409D01*
X163451794Y-100995410D01*
X163451793Y-100995412D01*
X163451793Y-100995413D01*
X163424500Y-101097273D01*
X162380404Y-101097273D01*
X162373207Y-101070413D01*
X162320480Y-100979087D01*
X162245913Y-100904520D01*
X162245166Y-100904089D01*
X162154589Y-100851794D01*
X162154588Y-100851793D01*
X162154587Y-100851793D01*
X162056679Y-100825559D01*
X162005367Y-100792236D01*
X161983440Y-100735115D01*
X161986677Y-100704313D01*
X162000500Y-100652727D01*
X162000500Y-100547273D01*
X161973207Y-100445413D01*
X161962457Y-100426794D01*
X161920481Y-100354089D01*
X161920480Y-100354087D01*
X161845913Y-100279520D01*
X161834975Y-100273205D01*
X161754589Y-100226794D01*
X161754588Y-100226793D01*
X161754587Y-100226793D01*
X161652727Y-100199500D01*
X161547273Y-100199500D01*
X161445413Y-100226793D01*
X161445412Y-100226793D01*
X161445410Y-100226794D01*
X161445409Y-100226794D01*
X161354089Y-100279518D01*
X161279518Y-100354089D01*
X161226794Y-100445409D01*
X161226794Y-100445410D01*
X161226793Y-100445412D01*
X161226793Y-100445413D01*
X161199500Y-100547273D01*
X161199500Y-100652727D01*
X161224834Y-100747274D01*
X161226794Y-100754589D01*
X161226794Y-100754590D01*
X161279518Y-100845910D01*
X161279520Y-100845913D01*
X161354087Y-100920480D01*
X161354089Y-100920481D01*
X161445409Y-100973205D01*
X161445410Y-100973205D01*
X161445413Y-100973207D01*
X161543319Y-100999440D01*
X161594632Y-101032763D01*
X161616559Y-101089884D01*
X161613322Y-101120688D01*
X161599500Y-101172273D01*
X161599500Y-101209808D01*
X161580593Y-101267999D01*
X161531093Y-101303963D01*
X161474879Y-101305435D01*
X161452729Y-101299500D01*
X161452727Y-101299500D01*
X161347273Y-101299500D01*
X161245413Y-101326793D01*
X161245412Y-101326793D01*
X161245410Y-101326794D01*
X161245409Y-101326794D01*
X161154089Y-101379518D01*
X161079518Y-101454089D01*
X161035736Y-101529922D01*
X160990267Y-101570863D01*
X160929416Y-101577259D01*
X160876428Y-101546666D01*
X160864264Y-101529922D01*
X160820481Y-101454089D01*
X160820480Y-101454087D01*
X160745913Y-101379520D01*
X160702731Y-101354589D01*
X160654589Y-101326794D01*
X160654588Y-101326793D01*
X160654587Y-101326793D01*
X160552727Y-101299500D01*
X160447273Y-101299500D01*
X160345413Y-101326793D01*
X160345412Y-101326793D01*
X160345410Y-101326794D01*
X160345409Y-101326794D01*
X160254089Y-101379518D01*
X160179518Y-101454089D01*
X160126794Y-101545409D01*
X160126794Y-101545410D01*
X160126793Y-101545412D01*
X160126793Y-101545413D01*
X160099500Y-101647273D01*
X151503920Y-101647273D01*
X151520480Y-101630713D01*
X151573207Y-101539387D01*
X151600500Y-101437527D01*
X151600500Y-101332073D01*
X151573207Y-101230213D01*
X151557337Y-101202726D01*
X151520481Y-101138889D01*
X151520480Y-101138887D01*
X151445913Y-101064320D01*
X151429060Y-101054590D01*
X151354589Y-101011594D01*
X151354588Y-101011593D01*
X151354587Y-101011593D01*
X151252727Y-100984300D01*
X151147273Y-100984300D01*
X151045413Y-101011593D01*
X151045412Y-101011593D01*
X151045410Y-101011594D01*
X151045409Y-101011594D01*
X150954089Y-101064318D01*
X150879518Y-101138889D01*
X150826794Y-101230209D01*
X150826794Y-101230210D01*
X150826793Y-101230212D01*
X150826793Y-101230213D01*
X150799500Y-101332073D01*
X142648466Y-101332073D01*
X142645913Y-101329520D01*
X142641191Y-101326794D01*
X142554589Y-101276794D01*
X142554588Y-101276793D01*
X142554587Y-101276793D01*
X142452727Y-101249500D01*
X142347273Y-101249500D01*
X142245413Y-101276793D01*
X142245412Y-101276793D01*
X142245410Y-101276794D01*
X142245409Y-101276794D01*
X142154089Y-101329518D01*
X142079518Y-101404089D01*
X142026794Y-101495409D01*
X142026794Y-101495410D01*
X142026793Y-101495412D01*
X142026793Y-101495413D01*
X141999500Y-101597273D01*
X137664770Y-101597273D01*
X137754587Y-101573207D01*
X137845913Y-101520480D01*
X137920480Y-101445913D01*
X137973207Y-101354587D01*
X138000500Y-101252727D01*
X138000500Y-101147273D01*
X137973207Y-101045413D01*
X137972149Y-101043581D01*
X137920481Y-100954089D01*
X137920480Y-100954087D01*
X137845913Y-100879520D01*
X137798943Y-100852402D01*
X137790059Y-100847273D01*
X154105700Y-100847273D01*
X154105700Y-100952727D01*
X154130669Y-101045913D01*
X154132994Y-101054589D01*
X154132994Y-101054590D01*
X154185718Y-101145910D01*
X154185720Y-101145913D01*
X154260287Y-101220480D01*
X154351613Y-101273207D01*
X154453473Y-101300500D01*
X154453475Y-101300500D01*
X154558925Y-101300500D01*
X154558927Y-101300500D01*
X154660787Y-101273207D01*
X154752113Y-101220480D01*
X154826680Y-101145913D01*
X154879407Y-101054587D01*
X154906700Y-100952727D01*
X154906700Y-100847273D01*
X154879905Y-100747273D01*
X157199500Y-100747273D01*
X157199500Y-100852727D01*
X157226295Y-100952727D01*
X157226794Y-100954589D01*
X157226794Y-100954590D01*
X157279231Y-101045413D01*
X157279520Y-101045913D01*
X157354087Y-101120480D01*
X157445413Y-101173207D01*
X157547273Y-101200500D01*
X157547275Y-101200500D01*
X157652725Y-101200500D01*
X157652727Y-101200500D01*
X157754587Y-101173207D01*
X157845913Y-101120480D01*
X157920480Y-101045913D01*
X157973207Y-100954587D01*
X158000500Y-100852727D01*
X158000500Y-100747273D01*
X157973207Y-100645413D01*
X157920480Y-100554087D01*
X157845913Y-100479520D01*
X157754587Y-100426793D01*
X157652727Y-100399500D01*
X157547273Y-100399500D01*
X157445413Y-100426793D01*
X157445412Y-100426793D01*
X157445410Y-100426794D01*
X157445409Y-100426794D01*
X157354089Y-100479518D01*
X157279518Y-100554089D01*
X157226794Y-100645409D01*
X157226794Y-100645410D01*
X157226793Y-100645412D01*
X157226793Y-100645413D01*
X157199500Y-100747273D01*
X154879905Y-100747273D01*
X154879407Y-100745413D01*
X154873461Y-100735115D01*
X154826681Y-100654089D01*
X154826680Y-100654087D01*
X154752113Y-100579520D01*
X154708065Y-100554089D01*
X154660789Y-100526794D01*
X154660788Y-100526793D01*
X154660787Y-100526793D01*
X154558927Y-100499500D01*
X154453473Y-100499500D01*
X154351613Y-100526793D01*
X154351612Y-100526793D01*
X154351610Y-100526794D01*
X154351609Y-100526794D01*
X154260289Y-100579518D01*
X154185718Y-100654089D01*
X154132994Y-100745409D01*
X154132994Y-100745410D01*
X154132993Y-100745412D01*
X154132993Y-100745413D01*
X154105700Y-100847273D01*
X137790059Y-100847273D01*
X137754589Y-100826794D01*
X137754588Y-100826793D01*
X137754587Y-100826793D01*
X137652727Y-100799500D01*
X137547273Y-100799500D01*
X137445413Y-100826793D01*
X137445412Y-100826793D01*
X137445410Y-100826794D01*
X137445409Y-100826794D01*
X137354089Y-100879518D01*
X137279518Y-100954089D01*
X137226794Y-101045409D01*
X137226794Y-101045410D01*
X137226793Y-101045412D01*
X137226793Y-101045413D01*
X137199500Y-101147273D01*
X134539956Y-101147273D01*
X134524667Y-101070412D01*
X134519330Y-101043580D01*
X134440141Y-100852402D01*
X134325177Y-100680345D01*
X134178855Y-100534023D01*
X134168036Y-100526794D01*
X134006797Y-100419058D01*
X133815618Y-100339869D01*
X133612667Y-100299500D01*
X133612665Y-100299500D01*
X133405735Y-100299500D01*
X133405732Y-100299500D01*
X133202781Y-100339869D01*
X133011602Y-100419058D01*
X132839548Y-100534020D01*
X132693220Y-100680348D01*
X132578258Y-100852402D01*
X132499069Y-101043581D01*
X132458700Y-101246532D01*
X131000500Y-101246532D01*
X131000500Y-98706532D01*
X132458700Y-98706532D01*
X132458700Y-98913467D01*
X132499069Y-99116418D01*
X132578258Y-99307597D01*
X132648505Y-99412730D01*
X132693223Y-99479655D01*
X132839545Y-99625977D01*
X133011602Y-99740941D01*
X133202780Y-99820130D01*
X133405735Y-99860500D01*
X133405736Y-99860500D01*
X133612664Y-99860500D01*
X133612665Y-99860500D01*
X133679162Y-99847273D01*
X155099500Y-99847273D01*
X155099500Y-99952727D01*
X155126793Y-100054587D01*
X155126794Y-100054589D01*
X155126794Y-100054590D01*
X155179518Y-100145910D01*
X155179520Y-100145913D01*
X155254087Y-100220480D01*
X155345413Y-100273207D01*
X155447273Y-100300500D01*
X155447275Y-100300500D01*
X155552725Y-100300500D01*
X155552727Y-100300500D01*
X155654587Y-100273207D01*
X155745913Y-100220480D01*
X155820480Y-100145913D01*
X155873207Y-100054587D01*
X155900500Y-99952727D01*
X155900500Y-99847273D01*
X155873207Y-99745413D01*
X155841771Y-99690965D01*
X155820481Y-99654089D01*
X155820480Y-99654087D01*
X155745913Y-99579520D01*
X155734975Y-99573205D01*
X155654589Y-99526794D01*
X155654588Y-99526793D01*
X155654587Y-99526793D01*
X155552727Y-99499500D01*
X155447273Y-99499500D01*
X155345413Y-99526793D01*
X155345412Y-99526793D01*
X155345410Y-99526794D01*
X155345409Y-99526794D01*
X155254089Y-99579518D01*
X155179518Y-99654089D01*
X155126794Y-99745409D01*
X155126794Y-99745410D01*
X155126793Y-99745412D01*
X155126793Y-99745413D01*
X155099500Y-99847273D01*
X133679162Y-99847273D01*
X133815620Y-99820130D01*
X134006798Y-99740941D01*
X134178855Y-99625977D01*
X134325177Y-99479655D01*
X134440141Y-99307598D01*
X134506550Y-99147273D01*
X137199500Y-99147273D01*
X137199500Y-99252727D01*
X137226793Y-99354587D01*
X137226794Y-99354589D01*
X137226794Y-99354590D01*
X137260364Y-99412734D01*
X137279520Y-99445913D01*
X137354087Y-99520480D01*
X137445413Y-99573207D01*
X137547273Y-99600500D01*
X137547275Y-99600500D01*
X137652725Y-99600500D01*
X137652727Y-99600500D01*
X137754587Y-99573207D01*
X137845913Y-99520480D01*
X137920480Y-99445913D01*
X137973207Y-99354587D01*
X138000500Y-99252727D01*
X138000500Y-99147273D01*
X137973207Y-99045413D01*
X137945417Y-98997280D01*
X137920481Y-98954089D01*
X137920480Y-98954087D01*
X137845913Y-98879520D01*
X137790061Y-98847274D01*
X137754589Y-98826794D01*
X137754588Y-98826793D01*
X137754587Y-98826793D01*
X137652727Y-98799500D01*
X137547273Y-98799500D01*
X137445413Y-98826793D01*
X137445412Y-98826793D01*
X137445410Y-98826794D01*
X137445409Y-98826794D01*
X137354089Y-98879518D01*
X137279518Y-98954089D01*
X137226794Y-99045409D01*
X137226794Y-99045410D01*
X137226793Y-99045412D01*
X137226793Y-99045413D01*
X137199500Y-99147273D01*
X134506550Y-99147273D01*
X134519330Y-99116420D01*
X134559700Y-98913465D01*
X134559700Y-98706535D01*
X134519330Y-98503580D01*
X134440141Y-98312402D01*
X134400268Y-98252727D01*
X134362221Y-98195785D01*
X134362220Y-98195784D01*
X134329806Y-98147273D01*
X141599500Y-98147273D01*
X141599500Y-98252727D01*
X141626793Y-98354587D01*
X141626794Y-98354589D01*
X141626794Y-98354590D01*
X141665086Y-98420913D01*
X141679520Y-98445913D01*
X141713605Y-98479998D01*
X141741381Y-98534513D01*
X141731810Y-98594945D01*
X141713606Y-98620000D01*
X141679520Y-98654087D01*
X141679518Y-98654089D01*
X141626794Y-98745409D01*
X141626794Y-98745410D01*
X141626793Y-98745412D01*
X141626793Y-98745413D01*
X141599500Y-98847273D01*
X141599500Y-98952727D01*
X141624335Y-99045413D01*
X141626794Y-99054589D01*
X141626794Y-99054590D01*
X141662491Y-99116418D01*
X141679520Y-99145913D01*
X141754087Y-99220480D01*
X141845413Y-99273207D01*
X141947273Y-99300500D01*
X141947275Y-99300500D01*
X142052725Y-99300500D01*
X142052727Y-99300500D01*
X142154587Y-99273207D01*
X142168745Y-99265033D01*
X160997390Y-99265033D01*
X160997390Y-99370487D01*
X161024683Y-99472347D01*
X161024684Y-99472349D01*
X161024684Y-99472350D01*
X161077408Y-99563670D01*
X161077410Y-99563673D01*
X161151977Y-99638240D01*
X161243303Y-99690967D01*
X161345163Y-99718260D01*
X161345165Y-99718260D01*
X161450615Y-99718260D01*
X161450617Y-99718260D01*
X161552477Y-99690967D01*
X161643803Y-99638240D01*
X161718370Y-99563673D01*
X161771097Y-99472347D01*
X161798390Y-99370487D01*
X161798390Y-99265033D01*
X161771097Y-99163173D01*
X161718370Y-99071847D01*
X161643803Y-98997280D01*
X161568990Y-98954087D01*
X161552479Y-98944554D01*
X161552478Y-98944553D01*
X161552477Y-98944553D01*
X161450617Y-98917260D01*
X161345163Y-98917260D01*
X161243303Y-98944553D01*
X161243302Y-98944553D01*
X161243300Y-98944554D01*
X161243299Y-98944554D01*
X161151979Y-98997278D01*
X161077408Y-99071849D01*
X161024684Y-99163169D01*
X161024684Y-99163170D01*
X161024683Y-99163172D01*
X161024683Y-99163173D01*
X160997390Y-99265033D01*
X142168745Y-99265033D01*
X142245913Y-99220480D01*
X142320480Y-99145913D01*
X142373207Y-99054587D01*
X142400500Y-98952727D01*
X142400500Y-98847273D01*
X142373207Y-98745413D01*
X142350761Y-98706536D01*
X142320481Y-98654089D01*
X142320480Y-98654087D01*
X142286394Y-98620001D01*
X142258619Y-98565487D01*
X142268190Y-98505055D01*
X142286393Y-98479999D01*
X142320480Y-98445913D01*
X142373207Y-98354587D01*
X142400500Y-98252727D01*
X142400500Y-98147273D01*
X142393801Y-98122273D01*
X150249500Y-98122273D01*
X150249500Y-98227727D01*
X150276793Y-98329587D01*
X150276794Y-98329589D01*
X150276794Y-98329590D01*
X150323162Y-98409901D01*
X150329520Y-98420913D01*
X150404087Y-98495480D01*
X150495413Y-98548207D01*
X150597273Y-98575500D01*
X150597275Y-98575500D01*
X150702725Y-98575500D01*
X150702727Y-98575500D01*
X150775503Y-98556000D01*
X165366695Y-98556000D01*
X166060097Y-98556000D01*
X166024875Y-98617007D01*
X165990800Y-98744174D01*
X165990800Y-98875826D01*
X166024875Y-99002993D01*
X166060097Y-99064000D01*
X165366695Y-99064000D01*
X165369116Y-99079289D01*
X165425050Y-99251440D01*
X165507231Y-99412730D01*
X165507233Y-99412734D01*
X165613624Y-99559169D01*
X165741630Y-99687175D01*
X165888065Y-99793566D01*
X165888069Y-99793568D01*
X166049359Y-99875749D01*
X166221510Y-99931683D01*
X166236800Y-99934105D01*
X166236800Y-99240702D01*
X166297807Y-99275925D01*
X166424974Y-99310000D01*
X166556626Y-99310000D01*
X166683793Y-99275925D01*
X166744800Y-99240702D01*
X166744800Y-99934104D01*
X166760089Y-99931683D01*
X166932240Y-99875749D01*
X167093530Y-99793568D01*
X167093534Y-99793566D01*
X167239969Y-99687175D01*
X167367975Y-99559169D01*
X167474366Y-99412734D01*
X167474368Y-99412730D01*
X167556549Y-99251440D01*
X167612483Y-99079289D01*
X167614905Y-99064000D01*
X166921503Y-99064000D01*
X166956725Y-99002993D01*
X166990800Y-98875826D01*
X166990800Y-98744174D01*
X166956725Y-98617007D01*
X166921503Y-98556000D01*
X167614905Y-98556000D01*
X167612483Y-98540710D01*
X167556549Y-98368559D01*
X167474368Y-98207269D01*
X167474366Y-98207265D01*
X167367975Y-98060830D01*
X167239969Y-97932824D01*
X167093534Y-97826433D01*
X167093530Y-97826431D01*
X166932240Y-97744250D01*
X166760088Y-97688315D01*
X166744800Y-97685893D01*
X166744800Y-98379297D01*
X166683793Y-98344075D01*
X166556626Y-98310000D01*
X166424974Y-98310000D01*
X166297807Y-98344075D01*
X166236800Y-98379297D01*
X166236800Y-97685893D01*
X166221511Y-97688315D01*
X166049359Y-97744250D01*
X165888069Y-97826431D01*
X165888065Y-97826433D01*
X165741630Y-97932824D01*
X165613624Y-98060830D01*
X165507233Y-98207265D01*
X165507231Y-98207269D01*
X165425050Y-98368559D01*
X165369116Y-98540710D01*
X165366695Y-98556000D01*
X150775503Y-98556000D01*
X150804587Y-98548207D01*
X150895913Y-98495480D01*
X150970480Y-98420913D01*
X151023207Y-98329587D01*
X151050500Y-98227727D01*
X151050500Y-98122273D01*
X151023207Y-98020413D01*
X150980980Y-97947273D01*
X157649500Y-97947273D01*
X157649500Y-98052727D01*
X157674834Y-98147274D01*
X157676794Y-98154589D01*
X157676794Y-98154590D01*
X157719019Y-98227725D01*
X157729520Y-98245913D01*
X157804087Y-98320480D01*
X157895413Y-98373207D01*
X157997273Y-98400500D01*
X157997275Y-98400500D01*
X158102725Y-98400500D01*
X158102727Y-98400500D01*
X158204587Y-98373207D01*
X158295913Y-98320480D01*
X158370480Y-98245913D01*
X158423207Y-98154587D01*
X158450500Y-98052727D01*
X158450500Y-97947273D01*
X158423207Y-97845413D01*
X158412457Y-97826794D01*
X158370481Y-97754089D01*
X158370480Y-97754087D01*
X158295913Y-97679520D01*
X158295910Y-97679518D01*
X158295906Y-97679514D01*
X158290767Y-97675571D01*
X158292385Y-97673461D01*
X158287626Y-97668173D01*
X158272259Y-97658106D01*
X158267662Y-97645988D01*
X158258991Y-97636352D01*
X158257075Y-97618076D01*
X158250559Y-97600898D01*
X158253963Y-97588391D01*
X158252612Y-97575500D01*
X158261803Y-97559589D01*
X158265156Y-97547273D01*
X162599500Y-97547273D01*
X162599500Y-97652727D01*
X162626659Y-97754087D01*
X162626794Y-97754589D01*
X162626794Y-97754590D01*
X162679231Y-97845413D01*
X162679520Y-97845913D01*
X162754087Y-97920480D01*
X162845413Y-97973207D01*
X162947273Y-98000500D01*
X162947275Y-98000500D01*
X163052725Y-98000500D01*
X163052727Y-98000500D01*
X163154587Y-97973207D01*
X163245913Y-97920480D01*
X163320480Y-97845913D01*
X163373207Y-97754587D01*
X163400500Y-97652727D01*
X163400500Y-97547273D01*
X163373207Y-97445413D01*
X163362066Y-97426117D01*
X163320481Y-97354089D01*
X163320480Y-97354087D01*
X163245913Y-97279520D01*
X163154587Y-97226793D01*
X163052727Y-97199500D01*
X162947273Y-97199500D01*
X162845413Y-97226793D01*
X162845412Y-97226793D01*
X162845410Y-97226794D01*
X162845409Y-97226794D01*
X162754089Y-97279518D01*
X162679518Y-97354089D01*
X162626794Y-97445409D01*
X162626794Y-97445410D01*
X162626793Y-97445412D01*
X162626793Y-97445413D01*
X162599500Y-97547273D01*
X158265156Y-97547273D01*
X158266630Y-97541861D01*
X158275935Y-97535128D01*
X158283220Y-97522520D01*
X158314332Y-97503545D01*
X158318987Y-97501779D01*
X158404587Y-97478843D01*
X158495913Y-97426116D01*
X158570480Y-97351549D01*
X158623207Y-97260223D01*
X158650500Y-97158363D01*
X158650500Y-97052909D01*
X158623207Y-96951049D01*
X158616626Y-96939651D01*
X158588055Y-96890165D01*
X158570480Y-96859723D01*
X158497485Y-96786728D01*
X158469710Y-96732214D01*
X158479281Y-96671782D01*
X158497484Y-96646726D01*
X158570480Y-96573731D01*
X158623207Y-96482405D01*
X158638998Y-96423471D01*
X159374500Y-96423471D01*
X159374500Y-96528925D01*
X159400724Y-96626794D01*
X159401794Y-96630787D01*
X159401794Y-96630788D01*
X159453578Y-96720480D01*
X159454520Y-96722111D01*
X159529087Y-96796678D01*
X159620413Y-96849405D01*
X159722273Y-96876698D01*
X159722275Y-96876698D01*
X159827725Y-96876698D01*
X159827727Y-96876698D01*
X159929587Y-96849405D01*
X160020913Y-96796678D01*
X160095480Y-96722111D01*
X160148207Y-96630785D01*
X160175500Y-96528925D01*
X160175500Y-96423471D01*
X160155083Y-96347273D01*
X160799500Y-96347273D01*
X160799500Y-96452727D01*
X160826793Y-96554587D01*
X160826794Y-96554589D01*
X160826794Y-96554590D01*
X160879518Y-96645910D01*
X160879520Y-96645913D01*
X160954087Y-96720480D01*
X161045413Y-96773207D01*
X161147273Y-96800500D01*
X161147275Y-96800500D01*
X161252725Y-96800500D01*
X161252727Y-96800500D01*
X161354587Y-96773207D01*
X161445913Y-96720480D01*
X161520480Y-96645913D01*
X161573207Y-96554587D01*
X161600500Y-96452727D01*
X161600500Y-96347273D01*
X161573207Y-96245413D01*
X161527665Y-96166532D01*
X165440300Y-96166532D01*
X165440300Y-96373467D01*
X165480669Y-96576418D01*
X165559858Y-96767597D01*
X165674820Y-96939651D01*
X165674823Y-96939655D01*
X165821145Y-97085977D01*
X165993202Y-97200941D01*
X166184380Y-97280130D01*
X166387335Y-97320500D01*
X166387336Y-97320500D01*
X166594264Y-97320500D01*
X166594265Y-97320500D01*
X166797220Y-97280130D01*
X166988398Y-97200941D01*
X167160455Y-97085977D01*
X167306777Y-96939655D01*
X167421741Y-96767598D01*
X167500930Y-96576420D01*
X167541300Y-96373465D01*
X167541300Y-96166535D01*
X167500930Y-95963580D01*
X167421741Y-95772402D01*
X167306777Y-95600345D01*
X167160455Y-95454023D01*
X167160451Y-95454020D01*
X166988397Y-95339058D01*
X166797218Y-95259869D01*
X166594267Y-95219500D01*
X166594265Y-95219500D01*
X166387335Y-95219500D01*
X166387332Y-95219500D01*
X166184381Y-95259869D01*
X165993202Y-95339058D01*
X165821148Y-95454020D01*
X165674820Y-95600348D01*
X165559858Y-95772402D01*
X165480669Y-95963581D01*
X165440300Y-96166532D01*
X161527665Y-96166532D01*
X161520480Y-96154087D01*
X161445913Y-96079520D01*
X161439293Y-96075698D01*
X161354589Y-96026794D01*
X161354588Y-96026793D01*
X161354587Y-96026793D01*
X161252727Y-95999500D01*
X161147273Y-95999500D01*
X161045413Y-96026793D01*
X161045412Y-96026793D01*
X161045410Y-96026794D01*
X161045409Y-96026794D01*
X160954089Y-96079518D01*
X160879518Y-96154089D01*
X160826794Y-96245409D01*
X160826794Y-96245410D01*
X160826794Y-96245411D01*
X160826793Y-96245413D01*
X160799500Y-96347273D01*
X160155083Y-96347273D01*
X160148207Y-96321611D01*
X160095480Y-96230285D01*
X160020913Y-96155718D01*
X160018091Y-96154089D01*
X159929589Y-96102992D01*
X159929588Y-96102991D01*
X159929587Y-96102991D01*
X159827727Y-96075698D01*
X159722273Y-96075698D01*
X159620413Y-96102991D01*
X159620412Y-96102991D01*
X159620410Y-96102992D01*
X159620409Y-96102992D01*
X159529089Y-96155716D01*
X159454518Y-96230287D01*
X159401794Y-96321607D01*
X159401794Y-96321608D01*
X159401793Y-96321610D01*
X159401793Y-96321611D01*
X159374500Y-96423471D01*
X158638998Y-96423471D01*
X158650500Y-96380545D01*
X158650500Y-96275091D01*
X158623207Y-96173231D01*
X158619339Y-96166532D01*
X158570481Y-96081907D01*
X158570480Y-96081905D01*
X158495913Y-96007338D01*
X158482337Y-95999500D01*
X158404589Y-95954612D01*
X158404588Y-95954611D01*
X158404587Y-95954611D01*
X158302727Y-95927318D01*
X158197273Y-95927318D01*
X158095413Y-95954611D01*
X158095412Y-95954611D01*
X158095410Y-95954612D01*
X158095409Y-95954612D01*
X158004089Y-96007336D01*
X157929518Y-96081907D01*
X157876794Y-96173227D01*
X157876794Y-96173228D01*
X157876793Y-96173230D01*
X157876793Y-96173231D01*
X157849500Y-96275091D01*
X157849500Y-96380545D01*
X157875290Y-96476794D01*
X157876794Y-96482407D01*
X157876794Y-96482408D01*
X157918467Y-96554587D01*
X157929520Y-96573731D01*
X158002514Y-96646725D01*
X158030290Y-96701240D01*
X158020719Y-96761672D01*
X158002515Y-96786727D01*
X157943834Y-96845409D01*
X157929518Y-96859725D01*
X157876794Y-96951045D01*
X157876794Y-96951046D01*
X157876793Y-96951048D01*
X157876793Y-96951049D01*
X157849500Y-97052909D01*
X157849500Y-97158363D01*
X157866875Y-97223207D01*
X157876794Y-97260225D01*
X157876794Y-97260226D01*
X157929518Y-97351546D01*
X157929520Y-97351549D01*
X158004087Y-97426116D01*
X158004089Y-97426117D01*
X158004093Y-97426121D01*
X158009233Y-97430065D01*
X158007612Y-97432177D01*
X158041000Y-97469265D01*
X158047391Y-97530116D01*
X158016794Y-97583102D01*
X157976179Y-97605152D01*
X157895411Y-97626793D01*
X157895409Y-97626794D01*
X157804089Y-97679518D01*
X157729518Y-97754089D01*
X157676794Y-97845409D01*
X157676794Y-97845410D01*
X157676793Y-97845412D01*
X157676793Y-97845413D01*
X157649500Y-97947273D01*
X150980980Y-97947273D01*
X150970480Y-97929087D01*
X150895913Y-97854520D01*
X150881005Y-97845913D01*
X150804589Y-97801794D01*
X150804588Y-97801793D01*
X150804587Y-97801793D01*
X150702727Y-97774500D01*
X150597273Y-97774500D01*
X150495413Y-97801793D01*
X150495412Y-97801793D01*
X150495410Y-97801794D01*
X150495409Y-97801794D01*
X150404089Y-97854518D01*
X150329518Y-97929089D01*
X150276794Y-98020409D01*
X150276794Y-98020410D01*
X150276793Y-98020412D01*
X150276793Y-98020413D01*
X150249500Y-98122273D01*
X142393801Y-98122273D01*
X142373207Y-98045413D01*
X142320480Y-97954087D01*
X142245913Y-97879520D01*
X142202608Y-97854518D01*
X142154589Y-97826794D01*
X142154588Y-97826793D01*
X142154587Y-97826793D01*
X142052727Y-97799500D01*
X141947273Y-97799500D01*
X141845413Y-97826793D01*
X141845412Y-97826793D01*
X141845410Y-97826794D01*
X141845409Y-97826794D01*
X141754089Y-97879518D01*
X141679518Y-97954089D01*
X141626794Y-98045409D01*
X141626794Y-98045410D01*
X141626794Y-98045411D01*
X141626793Y-98045413D01*
X141599500Y-98147273D01*
X134329806Y-98147273D01*
X134325180Y-98140349D01*
X134325179Y-98140348D01*
X134325177Y-98140345D01*
X134178855Y-97994023D01*
X134173261Y-97990285D01*
X134006797Y-97879058D01*
X133815618Y-97799869D01*
X133612667Y-97759500D01*
X133612665Y-97759500D01*
X133405735Y-97759500D01*
X133405732Y-97759500D01*
X133202781Y-97799869D01*
X133011602Y-97879058D01*
X132839548Y-97994020D01*
X132693220Y-98140348D01*
X132578258Y-98312402D01*
X132499069Y-98503581D01*
X132458700Y-98706532D01*
X131000500Y-98706532D01*
X131000500Y-96166532D01*
X132458700Y-96166532D01*
X132458700Y-96373467D01*
X132499069Y-96576418D01*
X132578258Y-96767597D01*
X132693220Y-96939651D01*
X132693223Y-96939655D01*
X132839545Y-97085977D01*
X133011602Y-97200941D01*
X133202780Y-97280130D01*
X133405735Y-97320500D01*
X133405736Y-97320500D01*
X133612664Y-97320500D01*
X133612665Y-97320500D01*
X133815620Y-97280130D01*
X134006798Y-97200941D01*
X134178855Y-97085977D01*
X134325177Y-96939655D01*
X134420313Y-96797273D01*
X150349500Y-96797273D01*
X150349500Y-96902727D01*
X150362447Y-96951045D01*
X150376794Y-97004589D01*
X150376794Y-97004590D01*
X150429518Y-97095910D01*
X150429520Y-97095913D01*
X150504087Y-97170480D01*
X150595413Y-97223207D01*
X150697273Y-97250500D01*
X150697275Y-97250500D01*
X150802725Y-97250500D01*
X150802727Y-97250500D01*
X150904587Y-97223207D01*
X150995913Y-97170480D01*
X151070480Y-97095913D01*
X151123207Y-97004587D01*
X151138564Y-96947273D01*
X155299500Y-96947273D01*
X155299500Y-97052727D01*
X155308410Y-97085979D01*
X155326794Y-97154589D01*
X155326794Y-97154590D01*
X155379518Y-97245910D01*
X155379520Y-97245913D01*
X155454087Y-97320480D01*
X155545413Y-97373207D01*
X155647273Y-97400500D01*
X155647275Y-97400500D01*
X155752725Y-97400500D01*
X155752727Y-97400500D01*
X155854587Y-97373207D01*
X155945913Y-97320480D01*
X156020480Y-97245913D01*
X156073207Y-97154587D01*
X156100500Y-97052727D01*
X156100500Y-96947273D01*
X156073207Y-96845413D01*
X156045070Y-96796679D01*
X156031518Y-96773205D01*
X156020480Y-96754087D01*
X155945913Y-96679520D01*
X155932510Y-96671782D01*
X155854589Y-96626794D01*
X155854588Y-96626793D01*
X155854587Y-96626793D01*
X155752727Y-96599500D01*
X155647273Y-96599500D01*
X155545413Y-96626793D01*
X155545412Y-96626793D01*
X155545410Y-96626794D01*
X155545409Y-96626794D01*
X155454089Y-96679518D01*
X155379518Y-96754089D01*
X155326794Y-96845409D01*
X155326794Y-96845410D01*
X155326793Y-96845412D01*
X155326793Y-96845413D01*
X155299500Y-96947273D01*
X151138564Y-96947273D01*
X151150500Y-96902727D01*
X151150500Y-96797273D01*
X151123207Y-96695413D01*
X151094626Y-96645910D01*
X151070481Y-96604089D01*
X151070480Y-96604087D01*
X150995913Y-96529520D01*
X150994882Y-96528925D01*
X150904589Y-96476794D01*
X150904588Y-96476793D01*
X150904587Y-96476793D01*
X150802727Y-96449500D01*
X150697273Y-96449500D01*
X150595413Y-96476793D01*
X150595412Y-96476793D01*
X150595410Y-96476794D01*
X150595409Y-96476794D01*
X150504089Y-96529518D01*
X150429518Y-96604089D01*
X150376794Y-96695409D01*
X150376794Y-96695410D01*
X150376793Y-96695412D01*
X150376793Y-96695413D01*
X150349500Y-96797273D01*
X134420313Y-96797273D01*
X134440141Y-96767598D01*
X134519330Y-96576420D01*
X134559700Y-96373465D01*
X134559700Y-96166535D01*
X134519330Y-95963580D01*
X134440141Y-95772402D01*
X134423350Y-95747273D01*
X144999500Y-95747273D01*
X144999500Y-95852727D01*
X145026352Y-95952941D01*
X145026794Y-95954589D01*
X145026794Y-95954590D01*
X145071562Y-96032130D01*
X145079520Y-96045913D01*
X145154087Y-96120480D01*
X145245413Y-96173207D01*
X145347273Y-96200500D01*
X145347275Y-96200500D01*
X145452725Y-96200500D01*
X145452727Y-96200500D01*
X145554587Y-96173207D01*
X145645913Y-96120480D01*
X145720480Y-96045913D01*
X145773207Y-95954587D01*
X145800500Y-95852727D01*
X145800500Y-95747273D01*
X145773207Y-95645413D01*
X145720480Y-95554087D01*
X145645913Y-95479520D01*
X145554587Y-95426793D01*
X145452727Y-95399500D01*
X145347273Y-95399500D01*
X145245413Y-95426793D01*
X145245412Y-95426793D01*
X145245410Y-95426794D01*
X145245409Y-95426794D01*
X145154089Y-95479518D01*
X145079518Y-95554089D01*
X145026794Y-95645409D01*
X145026794Y-95645410D01*
X145026793Y-95645412D01*
X145026793Y-95645413D01*
X144999500Y-95747273D01*
X134423350Y-95747273D01*
X134325177Y-95600345D01*
X134178855Y-95454023D01*
X134178851Y-95454020D01*
X134006797Y-95339058D01*
X133815618Y-95259869D01*
X133612667Y-95219500D01*
X133612665Y-95219500D01*
X133405735Y-95219500D01*
X133405732Y-95219500D01*
X133202781Y-95259869D01*
X133011602Y-95339058D01*
X132839548Y-95454020D01*
X132693220Y-95600348D01*
X132578258Y-95772402D01*
X132499069Y-95963581D01*
X132458700Y-96166532D01*
X131000500Y-96166532D01*
X131000500Y-93626532D01*
X132458700Y-93626532D01*
X132458700Y-93833467D01*
X132499069Y-94036418D01*
X132578258Y-94227597D01*
X132693220Y-94399651D01*
X132693223Y-94399655D01*
X132839545Y-94545977D01*
X133011602Y-94660941D01*
X133202780Y-94740130D01*
X133405735Y-94780500D01*
X133405736Y-94780500D01*
X133612664Y-94780500D01*
X133612665Y-94780500D01*
X133815620Y-94740130D01*
X134006798Y-94660941D01*
X134178855Y-94545977D01*
X134325177Y-94399655D01*
X134440141Y-94227598D01*
X134471350Y-94152253D01*
X147685300Y-94152253D01*
X147685300Y-95891746D01*
X147685301Y-95891758D01*
X147696932Y-95950227D01*
X147696934Y-95950233D01*
X147705853Y-95963581D01*
X147741248Y-96016552D01*
X147807569Y-96060867D01*
X147852031Y-96069711D01*
X147866041Y-96072498D01*
X147866046Y-96072498D01*
X147866052Y-96072500D01*
X147866053Y-96072500D01*
X149605547Y-96072500D01*
X149605548Y-96072500D01*
X149664031Y-96060867D01*
X149730352Y-96016552D01*
X149774667Y-95950231D01*
X149786300Y-95891748D01*
X149786300Y-94918532D01*
X150225300Y-94918532D01*
X150225300Y-95125467D01*
X150265669Y-95328418D01*
X150344858Y-95519597D01*
X150428923Y-95645410D01*
X150459823Y-95691655D01*
X150606145Y-95837977D01*
X150778202Y-95952941D01*
X150969380Y-96032130D01*
X151172335Y-96072500D01*
X151172336Y-96072500D01*
X151379264Y-96072500D01*
X151379265Y-96072500D01*
X151582220Y-96032130D01*
X151773398Y-95952941D01*
X151945455Y-95837977D01*
X152036159Y-95747273D01*
X152624500Y-95747273D01*
X152624500Y-95852727D01*
X152651352Y-95952941D01*
X152651794Y-95954589D01*
X152651794Y-95954590D01*
X152696562Y-96032130D01*
X152704520Y-96045913D01*
X152779087Y-96120480D01*
X152870413Y-96173207D01*
X152972273Y-96200500D01*
X152972275Y-96200500D01*
X153077725Y-96200500D01*
X153077727Y-96200500D01*
X153179587Y-96173207D01*
X153270913Y-96120480D01*
X153345480Y-96045913D01*
X153398207Y-95954587D01*
X153425500Y-95852727D01*
X153425500Y-95747273D01*
X153410024Y-95689515D01*
X153413225Y-95628415D01*
X153451730Y-95580865D01*
X153510830Y-95565029D01*
X153543539Y-95572430D01*
X153545404Y-95573202D01*
X153545413Y-95573207D01*
X153647273Y-95600500D01*
X153647275Y-95600500D01*
X153752725Y-95600500D01*
X153752727Y-95600500D01*
X153854587Y-95573207D01*
X153945913Y-95520480D01*
X154020480Y-95445913D01*
X154073207Y-95354587D01*
X154074209Y-95350844D01*
X154075166Y-95347273D01*
X155199500Y-95347273D01*
X155199500Y-95452727D01*
X155226659Y-95554087D01*
X155226794Y-95554589D01*
X155226794Y-95554590D01*
X155279231Y-95645413D01*
X155279520Y-95645913D01*
X155354087Y-95720480D01*
X155445413Y-95773207D01*
X155547273Y-95800500D01*
X155547275Y-95800500D01*
X155652725Y-95800500D01*
X155652727Y-95800500D01*
X155754587Y-95773207D01*
X155845913Y-95720480D01*
X155920480Y-95645913D01*
X155973207Y-95554587D01*
X156000500Y-95452727D01*
X156000500Y-95347273D01*
X155973207Y-95245413D01*
X155920480Y-95154087D01*
X155845913Y-95079520D01*
X155754587Y-95026793D01*
X155652727Y-94999500D01*
X155547273Y-94999500D01*
X155445413Y-95026793D01*
X155445412Y-95026793D01*
X155445410Y-95026794D01*
X155445409Y-95026794D01*
X155354089Y-95079518D01*
X155279518Y-95154089D01*
X155226794Y-95245409D01*
X155226794Y-95245410D01*
X155226793Y-95245412D01*
X155226793Y-95245413D01*
X155199500Y-95347273D01*
X154075166Y-95347273D01*
X154083772Y-95315160D01*
X154089639Y-95293258D01*
X154100500Y-95252727D01*
X154100500Y-95147273D01*
X154073207Y-95045413D01*
X154062457Y-95026794D01*
X154020481Y-94954089D01*
X154020480Y-94954087D01*
X153945913Y-94879520D01*
X153854587Y-94826793D01*
X153752727Y-94799500D01*
X153647273Y-94799500D01*
X153545413Y-94826793D01*
X153545412Y-94826793D01*
X153545410Y-94826794D01*
X153545409Y-94826794D01*
X153454089Y-94879518D01*
X153379518Y-94954089D01*
X153326794Y-95045409D01*
X153326794Y-95045410D01*
X153326793Y-95045412D01*
X153326793Y-95045413D01*
X153299500Y-95147273D01*
X153299500Y-95252727D01*
X153301414Y-95259869D01*
X153314976Y-95310483D01*
X153311773Y-95371585D01*
X153273268Y-95419135D01*
X153214167Y-95434970D01*
X153181466Y-95427571D01*
X153179592Y-95426794D01*
X153140068Y-95416204D01*
X153077727Y-95399500D01*
X152972273Y-95399500D01*
X152870413Y-95426793D01*
X152870412Y-95426793D01*
X152870410Y-95426794D01*
X152870409Y-95426794D01*
X152779089Y-95479518D01*
X152704518Y-95554089D01*
X152651794Y-95645409D01*
X152651794Y-95645410D01*
X152651793Y-95645412D01*
X152651793Y-95645413D01*
X152624500Y-95747273D01*
X152036159Y-95747273D01*
X152091777Y-95691655D01*
X152122678Y-95645409D01*
X152170921Y-95573207D01*
X152206741Y-95519598D01*
X152285930Y-95328420D01*
X152326300Y-95125465D01*
X152326300Y-94918535D01*
X152285930Y-94715580D01*
X152206741Y-94524402D01*
X152091777Y-94352345D01*
X151945455Y-94206023D01*
X151945451Y-94206020D01*
X151773397Y-94091058D01*
X151582218Y-94011869D01*
X151379267Y-93971500D01*
X151379265Y-93971500D01*
X151172335Y-93971500D01*
X151172332Y-93971500D01*
X150969381Y-94011869D01*
X150778202Y-94091058D01*
X150606148Y-94206020D01*
X150459820Y-94352348D01*
X150344858Y-94524402D01*
X150265669Y-94715581D01*
X150225300Y-94918532D01*
X149786300Y-94918532D01*
X149786300Y-94152252D01*
X149774667Y-94093769D01*
X149730352Y-94027448D01*
X149730348Y-94027445D01*
X149664033Y-93983134D01*
X149664031Y-93983133D01*
X149664028Y-93983132D01*
X149664027Y-93983132D01*
X149605558Y-93971501D01*
X149605548Y-93971500D01*
X147866052Y-93971500D01*
X147866051Y-93971500D01*
X147866041Y-93971501D01*
X147807572Y-93983132D01*
X147807566Y-93983134D01*
X147741251Y-94027445D01*
X147741245Y-94027451D01*
X147696934Y-94093766D01*
X147696932Y-94093772D01*
X147685301Y-94152241D01*
X147685300Y-94152253D01*
X134471350Y-94152253D01*
X134519330Y-94036420D01*
X134559700Y-93833465D01*
X134559700Y-93797273D01*
X159599500Y-93797273D01*
X159599500Y-93902727D01*
X159621045Y-93983134D01*
X159626794Y-94004589D01*
X159626794Y-94004590D01*
X159678280Y-94093766D01*
X159679520Y-94095913D01*
X159754087Y-94170480D01*
X159845413Y-94223207D01*
X159947273Y-94250500D01*
X159947275Y-94250500D01*
X160052725Y-94250500D01*
X160052727Y-94250500D01*
X160154587Y-94223207D01*
X160245913Y-94170480D01*
X160320480Y-94095913D01*
X160373207Y-94004587D01*
X160400500Y-93902727D01*
X160400500Y-93797273D01*
X160373207Y-93695413D01*
X160333439Y-93626532D01*
X165440300Y-93626532D01*
X165440300Y-93833467D01*
X165480669Y-94036418D01*
X165559858Y-94227597D01*
X165674820Y-94399651D01*
X165674823Y-94399655D01*
X165821145Y-94545977D01*
X165993202Y-94660941D01*
X166184380Y-94740130D01*
X166387335Y-94780500D01*
X166387336Y-94780500D01*
X166594264Y-94780500D01*
X166594265Y-94780500D01*
X166797220Y-94740130D01*
X166988398Y-94660941D01*
X167160455Y-94545977D01*
X167306777Y-94399655D01*
X167421741Y-94227598D01*
X167500930Y-94036420D01*
X167541300Y-93833465D01*
X167541300Y-93626535D01*
X167500930Y-93423580D01*
X167421741Y-93232402D01*
X167306777Y-93060345D01*
X167160455Y-92914023D01*
X167160451Y-92914020D01*
X166988397Y-92799058D01*
X166797218Y-92719869D01*
X166594267Y-92679500D01*
X166594265Y-92679500D01*
X166387335Y-92679500D01*
X166387332Y-92679500D01*
X166184381Y-92719869D01*
X165993202Y-92799058D01*
X165821148Y-92914020D01*
X165674820Y-93060348D01*
X165559858Y-93232402D01*
X165480669Y-93423581D01*
X165440300Y-93626532D01*
X160333439Y-93626532D01*
X160320480Y-93604087D01*
X160245913Y-93529520D01*
X160154587Y-93476793D01*
X160052727Y-93449500D01*
X159947273Y-93449500D01*
X159845413Y-93476793D01*
X159845412Y-93476793D01*
X159845410Y-93476794D01*
X159845409Y-93476794D01*
X159754089Y-93529518D01*
X159679518Y-93604089D01*
X159626794Y-93695409D01*
X159626794Y-93695410D01*
X159626793Y-93695412D01*
X159626793Y-93695413D01*
X159599500Y-93797273D01*
X134559700Y-93797273D01*
X134559700Y-93626535D01*
X134519330Y-93423580D01*
X134440141Y-93232402D01*
X134325177Y-93060345D01*
X134178855Y-92914023D01*
X134178851Y-92914020D01*
X134006797Y-92799058D01*
X133815618Y-92719869D01*
X133612667Y-92679500D01*
X133612665Y-92679500D01*
X133405735Y-92679500D01*
X133405732Y-92679500D01*
X133202781Y-92719869D01*
X133011602Y-92799058D01*
X132839548Y-92914020D01*
X132693220Y-93060348D01*
X132578258Y-93232402D01*
X132499069Y-93423581D01*
X132458700Y-93626532D01*
X131000500Y-93626532D01*
X131000500Y-92547273D01*
X138449500Y-92547273D01*
X138449500Y-92652727D01*
X138474834Y-92747274D01*
X138476794Y-92754589D01*
X138476794Y-92754590D01*
X138529518Y-92845910D01*
X138529520Y-92845913D01*
X138604087Y-92920480D01*
X138695413Y-92973207D01*
X138797273Y-93000500D01*
X138797275Y-93000500D01*
X138902725Y-93000500D01*
X138902727Y-93000500D01*
X139004587Y-92973207D01*
X139095913Y-92920480D01*
X139170480Y-92845913D01*
X139223207Y-92754587D01*
X139224209Y-92750844D01*
X139225166Y-92747273D01*
X141349500Y-92747273D01*
X141349500Y-92852727D01*
X141376295Y-92952727D01*
X141376794Y-92954589D01*
X141376794Y-92954590D01*
X141429518Y-93045910D01*
X141429520Y-93045913D01*
X141504087Y-93120480D01*
X141595413Y-93173207D01*
X141697273Y-93200500D01*
X141697275Y-93200500D01*
X141802725Y-93200500D01*
X141802727Y-93200500D01*
X141904587Y-93173207D01*
X141995913Y-93120480D01*
X142070480Y-93045913D01*
X142123207Y-92954587D01*
X142150500Y-92852727D01*
X142150500Y-92847273D01*
X152199500Y-92847273D01*
X152199500Y-92952727D01*
X152224469Y-93045913D01*
X152226794Y-93054589D01*
X152226794Y-93054590D01*
X152279518Y-93145910D01*
X152279520Y-93145913D01*
X152354087Y-93220480D01*
X152445413Y-93273207D01*
X152547273Y-93300500D01*
X152547275Y-93300500D01*
X152652725Y-93300500D01*
X152652727Y-93300500D01*
X152754587Y-93273207D01*
X152845913Y-93220480D01*
X152920480Y-93145913D01*
X152973207Y-93054587D01*
X153000500Y-92952727D01*
X153000500Y-92847273D01*
X152973207Y-92745413D01*
X152955740Y-92715160D01*
X152920481Y-92654089D01*
X152920480Y-92654087D01*
X152845913Y-92579520D01*
X152801865Y-92554089D01*
X152754589Y-92526794D01*
X152754588Y-92526793D01*
X152754587Y-92526793D01*
X152652727Y-92499500D01*
X152547273Y-92499500D01*
X152445413Y-92526793D01*
X152445412Y-92526793D01*
X152445410Y-92526794D01*
X152445409Y-92526794D01*
X152354089Y-92579518D01*
X152279518Y-92654089D01*
X152226794Y-92745409D01*
X152226794Y-92745410D01*
X152226793Y-92745412D01*
X152226793Y-92745413D01*
X152199500Y-92847273D01*
X142150500Y-92847273D01*
X142150500Y-92747273D01*
X142123207Y-92645413D01*
X142070480Y-92554087D01*
X141995913Y-92479520D01*
X141904587Y-92426793D01*
X141802727Y-92399500D01*
X141697273Y-92399500D01*
X141595413Y-92426793D01*
X141595412Y-92426793D01*
X141595410Y-92426794D01*
X141595409Y-92426794D01*
X141504089Y-92479518D01*
X141429518Y-92554089D01*
X141376794Y-92645409D01*
X141376794Y-92645410D01*
X141376793Y-92645412D01*
X141376793Y-92645413D01*
X141349500Y-92747273D01*
X139225166Y-92747273D01*
X139233772Y-92715160D01*
X139243326Y-92679500D01*
X139250500Y-92652727D01*
X139250500Y-92547273D01*
X139223207Y-92445413D01*
X139212457Y-92426794D01*
X139170481Y-92354089D01*
X139170480Y-92354087D01*
X139095913Y-92279520D01*
X139028328Y-92240500D01*
X139004589Y-92226794D01*
X139004588Y-92226793D01*
X139004587Y-92226793D01*
X138902727Y-92199500D01*
X138797273Y-92199500D01*
X138695413Y-92226793D01*
X138695412Y-92226793D01*
X138695410Y-92226794D01*
X138695409Y-92226794D01*
X138604089Y-92279518D01*
X138529518Y-92354089D01*
X138476794Y-92445409D01*
X138476794Y-92445410D01*
X138476793Y-92445412D01*
X138476793Y-92445413D01*
X138449500Y-92547273D01*
X131000500Y-92547273D01*
X131000500Y-91086532D01*
X132458700Y-91086532D01*
X132458700Y-91293467D01*
X132499069Y-91496418D01*
X132578258Y-91687597D01*
X132693220Y-91859651D01*
X132693223Y-91859655D01*
X132839545Y-92005977D01*
X133011602Y-92120941D01*
X133202780Y-92200130D01*
X133405735Y-92240500D01*
X133405736Y-92240500D01*
X133612664Y-92240500D01*
X133612665Y-92240500D01*
X133815620Y-92200130D01*
X134006798Y-92120941D01*
X134178855Y-92005977D01*
X134325177Y-91859655D01*
X134440141Y-91687598D01*
X134456844Y-91647273D01*
X146074500Y-91647273D01*
X146074500Y-91752727D01*
X146101793Y-91854587D01*
X146101794Y-91854589D01*
X146101794Y-91854590D01*
X146154518Y-91945910D01*
X146154520Y-91945913D01*
X146229087Y-92020480D01*
X146320413Y-92073207D01*
X146422273Y-92100500D01*
X146422275Y-92100500D01*
X146527725Y-92100500D01*
X146527727Y-92100500D01*
X146629587Y-92073207D01*
X146720913Y-92020480D01*
X146795480Y-91945913D01*
X146848207Y-91854587D01*
X146875500Y-91752727D01*
X146875500Y-91647273D01*
X146875500Y-91646580D01*
X146894407Y-91588389D01*
X146943907Y-91552425D01*
X147005093Y-91552425D01*
X147023994Y-91560841D01*
X147045413Y-91573207D01*
X147147273Y-91600500D01*
X147147275Y-91600500D01*
X147252725Y-91600500D01*
X147252727Y-91600500D01*
X147354587Y-91573207D01*
X147445913Y-91520480D01*
X147520480Y-91445913D01*
X147573207Y-91354587D01*
X147600500Y-91252727D01*
X147600500Y-91147273D01*
X147584225Y-91086532D01*
X165440300Y-91086532D01*
X165440300Y-91293467D01*
X165480669Y-91496418D01*
X165559858Y-91687597D01*
X165674820Y-91859651D01*
X165674823Y-91859655D01*
X165821145Y-92005977D01*
X165993202Y-92120941D01*
X166184380Y-92200130D01*
X166387335Y-92240500D01*
X166387336Y-92240500D01*
X166594264Y-92240500D01*
X166594265Y-92240500D01*
X166797220Y-92200130D01*
X166988398Y-92120941D01*
X167160455Y-92005977D01*
X167306777Y-91859655D01*
X167421741Y-91687598D01*
X167500930Y-91496420D01*
X167541300Y-91293465D01*
X167541300Y-91086535D01*
X167500930Y-90883580D01*
X167421741Y-90692402D01*
X167306777Y-90520345D01*
X167160455Y-90374023D01*
X167073933Y-90316211D01*
X166988397Y-90259058D01*
X166797218Y-90179869D01*
X166594267Y-90139500D01*
X166594265Y-90139500D01*
X166387335Y-90139500D01*
X166387332Y-90139500D01*
X166184381Y-90179869D01*
X165993202Y-90259058D01*
X165821148Y-90374020D01*
X165674820Y-90520348D01*
X165559858Y-90692402D01*
X165480669Y-90883581D01*
X165440300Y-91086532D01*
X147584225Y-91086532D01*
X147573207Y-91045413D01*
X147520480Y-90954087D01*
X147445913Y-90879520D01*
X147354587Y-90826793D01*
X147252727Y-90799500D01*
X147147273Y-90799500D01*
X147045413Y-90826793D01*
X147045412Y-90826793D01*
X147045410Y-90826794D01*
X147045409Y-90826794D01*
X146954089Y-90879518D01*
X146879518Y-90954089D01*
X146826794Y-91045409D01*
X146826794Y-91045410D01*
X146826793Y-91045412D01*
X146826793Y-91045413D01*
X146810213Y-91107293D01*
X146799500Y-91147274D01*
X146799500Y-91253419D01*
X146780593Y-91311610D01*
X146731093Y-91347574D01*
X146669907Y-91347574D01*
X146651001Y-91339156D01*
X146629588Y-91326793D01*
X146595633Y-91317695D01*
X146527727Y-91299500D01*
X146422273Y-91299500D01*
X146320413Y-91326793D01*
X146320412Y-91326793D01*
X146320410Y-91326794D01*
X146320409Y-91326794D01*
X146229089Y-91379518D01*
X146154518Y-91454089D01*
X146101794Y-91545409D01*
X146101794Y-91545410D01*
X146101793Y-91545412D01*
X146101793Y-91545413D01*
X146074500Y-91647273D01*
X134456844Y-91647273D01*
X134519330Y-91496420D01*
X134559700Y-91293465D01*
X134559700Y-91086535D01*
X134519330Y-90883580D01*
X134440141Y-90692402D01*
X134325177Y-90520345D01*
X134222903Y-90418071D01*
X162199500Y-90418071D01*
X162199500Y-90523525D01*
X162226793Y-90625385D01*
X162226794Y-90625387D01*
X162226794Y-90625388D01*
X162265485Y-90692402D01*
X162279520Y-90716711D01*
X162354087Y-90791278D01*
X162445413Y-90844005D01*
X162547273Y-90871298D01*
X162547275Y-90871298D01*
X162652725Y-90871298D01*
X162652727Y-90871298D01*
X162754587Y-90844005D01*
X162845913Y-90791278D01*
X162920480Y-90716711D01*
X162973207Y-90625385D01*
X163000500Y-90523525D01*
X163000500Y-90418071D01*
X162973207Y-90316211D01*
X162920480Y-90224885D01*
X162845913Y-90150318D01*
X162754587Y-90097591D01*
X162652727Y-90070298D01*
X162547273Y-90070298D01*
X162445413Y-90097591D01*
X162445412Y-90097591D01*
X162445410Y-90097592D01*
X162445409Y-90097592D01*
X162354089Y-90150316D01*
X162279518Y-90224887D01*
X162226794Y-90316207D01*
X162226794Y-90316208D01*
X162226793Y-90316210D01*
X162226793Y-90316211D01*
X162199500Y-90418071D01*
X134222903Y-90418071D01*
X134178855Y-90374023D01*
X134092333Y-90316211D01*
X134006797Y-90259058D01*
X133815618Y-90179869D01*
X133612667Y-90139500D01*
X133612665Y-90139500D01*
X133405735Y-90139500D01*
X133405732Y-90139500D01*
X133202781Y-90179869D01*
X133011602Y-90259058D01*
X132839548Y-90374020D01*
X132693220Y-90520348D01*
X132578258Y-90692402D01*
X132499069Y-90883581D01*
X132458700Y-91086532D01*
X131000500Y-91086532D01*
X131000500Y-88546532D01*
X132458700Y-88546532D01*
X132458700Y-88753467D01*
X132499069Y-88956418D01*
X132578258Y-89147597D01*
X132680424Y-89300500D01*
X132693223Y-89319655D01*
X132839545Y-89465977D01*
X133011602Y-89580941D01*
X133202780Y-89660130D01*
X133405735Y-89700500D01*
X133405736Y-89700500D01*
X133612664Y-89700500D01*
X133612665Y-89700500D01*
X133815620Y-89660130D01*
X134006798Y-89580941D01*
X134178855Y-89465977D01*
X134325177Y-89319655D01*
X134340132Y-89297273D01*
X141624500Y-89297273D01*
X141624500Y-89402727D01*
X141651793Y-89504587D01*
X141651794Y-89504589D01*
X141651794Y-89504590D01*
X141695876Y-89580941D01*
X141704520Y-89595913D01*
X141779087Y-89670480D01*
X141870413Y-89723207D01*
X141972273Y-89750500D01*
X141972275Y-89750500D01*
X142077725Y-89750500D01*
X142077727Y-89750500D01*
X142179587Y-89723207D01*
X142270913Y-89670480D01*
X142345480Y-89595913D01*
X142398207Y-89504587D01*
X142425500Y-89402727D01*
X142425500Y-89297273D01*
X142398207Y-89195413D01*
X142370600Y-89147597D01*
X142345481Y-89104089D01*
X142345480Y-89104087D01*
X142270913Y-89029520D01*
X142179587Y-88976793D01*
X142077727Y-88949500D01*
X141972273Y-88949500D01*
X141870413Y-88976793D01*
X141870412Y-88976793D01*
X141870410Y-88976794D01*
X141870409Y-88976794D01*
X141779089Y-89029518D01*
X141704518Y-89104089D01*
X141651794Y-89195409D01*
X141651794Y-89195410D01*
X141651793Y-89195412D01*
X141651793Y-89195413D01*
X141624500Y-89297273D01*
X134340132Y-89297273D01*
X134440141Y-89147598D01*
X134519330Y-88956420D01*
X134559700Y-88753465D01*
X134559700Y-88546535D01*
X134519330Y-88343580D01*
X134440141Y-88152402D01*
X134325177Y-87980345D01*
X134178855Y-87834023D01*
X134123856Y-87797274D01*
X134006797Y-87719058D01*
X133815618Y-87639869D01*
X133612667Y-87599500D01*
X133612665Y-87599500D01*
X133405735Y-87599500D01*
X133405732Y-87599500D01*
X133202781Y-87639869D01*
X133011602Y-87719058D01*
X132839548Y-87834020D01*
X132693220Y-87980348D01*
X132578258Y-88152402D01*
X132499069Y-88343581D01*
X132458700Y-88546532D01*
X131000500Y-88546532D01*
X131000500Y-86006532D01*
X132458700Y-86006532D01*
X132458700Y-86213467D01*
X132499069Y-86416418D01*
X132578258Y-86607597D01*
X132653636Y-86720409D01*
X132693223Y-86779655D01*
X132839545Y-86925977D01*
X133011602Y-87040941D01*
X133202780Y-87120130D01*
X133405735Y-87160500D01*
X133405736Y-87160500D01*
X133612664Y-87160500D01*
X133612665Y-87160500D01*
X133815620Y-87120130D01*
X134006798Y-87040941D01*
X134178855Y-86925977D01*
X134325177Y-86779655D01*
X134440141Y-86607598D01*
X134519330Y-86416420D01*
X134559700Y-86213465D01*
X134559700Y-86006535D01*
X134519330Y-85803580D01*
X134440141Y-85612402D01*
X134325177Y-85440345D01*
X134178855Y-85294023D01*
X134137914Y-85266667D01*
X134006797Y-85179058D01*
X133815618Y-85099869D01*
X133612667Y-85059500D01*
X133612665Y-85059500D01*
X133405735Y-85059500D01*
X133405732Y-85059500D01*
X133202781Y-85099869D01*
X133011602Y-85179058D01*
X132839548Y-85294020D01*
X132693220Y-85440348D01*
X132578258Y-85612402D01*
X132499069Y-85803581D01*
X132458700Y-86006532D01*
X131000500Y-86006532D01*
X131000500Y-84947273D01*
X136499500Y-84947273D01*
X136499500Y-85052727D01*
X136524335Y-85145413D01*
X136526794Y-85154589D01*
X136526794Y-85154590D01*
X136554906Y-85203281D01*
X136579520Y-85245913D01*
X136654087Y-85320480D01*
X136654089Y-85320481D01*
X136729922Y-85364264D01*
X136770863Y-85409733D01*
X136777259Y-85470584D01*
X136746666Y-85523572D01*
X136729922Y-85535736D01*
X136654089Y-85579518D01*
X136579518Y-85654089D01*
X136526794Y-85745409D01*
X136526794Y-85745410D01*
X136526793Y-85745412D01*
X136526793Y-85745413D01*
X136499500Y-85847273D01*
X136499500Y-85952727D01*
X136510938Y-85995413D01*
X136526794Y-86054589D01*
X136526794Y-86054590D01*
X136551438Y-86097274D01*
X136579520Y-86145913D01*
X136654087Y-86220480D01*
X136654089Y-86220481D01*
X136729922Y-86264264D01*
X136770863Y-86309733D01*
X136777259Y-86370584D01*
X136746666Y-86423572D01*
X136729922Y-86435736D01*
X136654089Y-86479518D01*
X136579518Y-86554089D01*
X136526794Y-86645409D01*
X136526794Y-86645410D01*
X136526793Y-86645412D01*
X136526793Y-86645413D01*
X136499500Y-86747273D01*
X136499500Y-86852727D01*
X136524834Y-86947274D01*
X136526794Y-86954589D01*
X136526794Y-86954590D01*
X136570094Y-87029587D01*
X136579520Y-87045913D01*
X136654087Y-87120480D01*
X136654089Y-87120481D01*
X136654090Y-87120482D01*
X136655363Y-87121459D01*
X136656013Y-87122405D01*
X136658676Y-87125068D01*
X136658182Y-87125561D01*
X136690018Y-87171885D01*
X136688415Y-87233049D01*
X136658275Y-87274531D01*
X136658676Y-87274932D01*
X136656149Y-87277458D01*
X136655363Y-87278541D01*
X136654090Y-87279517D01*
X136579518Y-87354089D01*
X136526794Y-87445409D01*
X136526794Y-87445410D01*
X136526793Y-87445412D01*
X136526793Y-87445413D01*
X136499500Y-87547273D01*
X136499500Y-87652727D01*
X136526793Y-87754587D01*
X136526794Y-87754589D01*
X136526794Y-87754590D01*
X136572655Y-87834023D01*
X136579520Y-87845913D01*
X136654087Y-87920480D01*
X136654089Y-87920481D01*
X136704136Y-87949376D01*
X136745077Y-87994845D01*
X136751473Y-88055695D01*
X136720880Y-88108683D01*
X136704137Y-88120848D01*
X136654088Y-88149744D01*
X136579518Y-88224314D01*
X136526794Y-88315634D01*
X136526794Y-88315635D01*
X136526793Y-88315637D01*
X136526793Y-88315638D01*
X136499500Y-88417498D01*
X136499500Y-88522952D01*
X136526793Y-88624812D01*
X136526794Y-88624814D01*
X136526794Y-88624815D01*
X136579518Y-88716135D01*
X136579520Y-88716138D01*
X136654087Y-88790705D01*
X136745413Y-88843432D01*
X136847273Y-88870725D01*
X136847275Y-88870725D01*
X136952725Y-88870725D01*
X136952727Y-88870725D01*
X137040252Y-88847273D01*
X157850000Y-88847273D01*
X157850000Y-88952727D01*
X157877293Y-89054587D01*
X157877294Y-89054589D01*
X157877294Y-89054590D01*
X157930018Y-89145910D01*
X157930020Y-89145913D01*
X158004587Y-89220480D01*
X158095913Y-89273207D01*
X158197773Y-89300500D01*
X158197775Y-89300500D01*
X158303225Y-89300500D01*
X158303227Y-89300500D01*
X158405087Y-89273207D01*
X158496413Y-89220480D01*
X158570980Y-89145913D01*
X158623707Y-89054587D01*
X158651000Y-88952727D01*
X158651000Y-88847273D01*
X158623707Y-88745413D01*
X158606803Y-88716135D01*
X158570981Y-88654089D01*
X158570980Y-88654087D01*
X158496413Y-88579520D01*
X158453231Y-88554589D01*
X158405089Y-88526794D01*
X158405088Y-88526793D01*
X158405087Y-88526793D01*
X158303227Y-88499500D01*
X158197773Y-88499500D01*
X158095913Y-88526793D01*
X158095912Y-88526793D01*
X158095910Y-88526794D01*
X158095909Y-88526794D01*
X158004589Y-88579518D01*
X157930018Y-88654089D01*
X157877294Y-88745409D01*
X157877294Y-88745410D01*
X157877293Y-88745412D01*
X157877293Y-88745413D01*
X157850000Y-88847273D01*
X137040252Y-88847273D01*
X137054587Y-88843432D01*
X137145913Y-88790705D01*
X137220480Y-88716138D01*
X137273207Y-88624812D01*
X137300500Y-88522952D01*
X137300500Y-88417498D01*
X137273207Y-88315638D01*
X137220480Y-88224312D01*
X137145913Y-88149745D01*
X137095862Y-88120848D01*
X137054922Y-88075378D01*
X137048527Y-88014528D01*
X137079120Y-87961540D01*
X137095858Y-87949378D01*
X137145913Y-87920480D01*
X137220480Y-87845913D01*
X137248562Y-87797273D01*
X153749500Y-87797273D01*
X153749500Y-87902727D01*
X153774183Y-87994845D01*
X153776794Y-88004589D01*
X153776794Y-88004590D01*
X153806300Y-88055695D01*
X153829520Y-88095913D01*
X153904087Y-88170480D01*
X153995413Y-88223207D01*
X154097273Y-88250500D01*
X154097275Y-88250500D01*
X154202725Y-88250500D01*
X154202727Y-88250500D01*
X154304587Y-88223207D01*
X154395913Y-88170480D01*
X154470480Y-88095913D01*
X154523207Y-88004587D01*
X154550500Y-87902727D01*
X154550500Y-87797273D01*
X154537103Y-87747273D01*
X163399500Y-87747273D01*
X163399500Y-87852727D01*
X163426793Y-87954587D01*
X163479520Y-88045913D01*
X163479521Y-88045914D01*
X163482169Y-88050500D01*
X163494890Y-88110348D01*
X163482169Y-88149500D01*
X163479521Y-88154085D01*
X163479520Y-88154087D01*
X163426793Y-88245413D01*
X163399500Y-88347273D01*
X163399500Y-88452727D01*
X163424636Y-88546536D01*
X163426794Y-88554589D01*
X163426794Y-88554590D01*
X163479517Y-88645909D01*
X163483221Y-88650736D01*
X163503642Y-88708413D01*
X163486262Y-88767078D01*
X163483221Y-88771264D01*
X163479517Y-88776090D01*
X163426794Y-88867409D01*
X163426794Y-88867410D01*
X163426793Y-88867412D01*
X163426793Y-88867413D01*
X163399500Y-88969273D01*
X163399500Y-89074727D01*
X163419026Y-89147598D01*
X163426794Y-89176589D01*
X163426794Y-89176590D01*
X163479518Y-89267910D01*
X163479520Y-89267913D01*
X163554087Y-89342480D01*
X163645413Y-89395207D01*
X163747273Y-89422500D01*
X163747275Y-89422500D01*
X163852725Y-89422500D01*
X163852727Y-89422500D01*
X163954587Y-89395207D01*
X164045913Y-89342480D01*
X164120480Y-89267913D01*
X164173207Y-89176587D01*
X164200500Y-89074727D01*
X164200500Y-88969273D01*
X164173207Y-88867413D01*
X164159360Y-88843430D01*
X164120483Y-88776092D01*
X164120482Y-88776091D01*
X164120480Y-88776087D01*
X164120476Y-88776083D01*
X164116782Y-88771269D01*
X164096357Y-88713593D01*
X164106602Y-88667073D01*
X164113742Y-88652650D01*
X164120480Y-88645913D01*
X164173207Y-88554587D01*
X164175365Y-88546532D01*
X165440300Y-88546532D01*
X165440300Y-88753467D01*
X165480669Y-88956418D01*
X165559858Y-89147597D01*
X165662024Y-89300500D01*
X165674823Y-89319655D01*
X165821145Y-89465977D01*
X165993202Y-89580941D01*
X166184380Y-89660130D01*
X166387335Y-89700500D01*
X166387336Y-89700500D01*
X166594264Y-89700500D01*
X166594265Y-89700500D01*
X166797220Y-89660130D01*
X166988398Y-89580941D01*
X167160455Y-89465977D01*
X167306777Y-89319655D01*
X167421741Y-89147598D01*
X167500930Y-88956420D01*
X167541300Y-88753465D01*
X167541300Y-88546535D01*
X167500930Y-88343580D01*
X167421741Y-88152402D01*
X167306777Y-87980345D01*
X167160455Y-87834023D01*
X167105456Y-87797274D01*
X166988397Y-87719058D01*
X166797218Y-87639869D01*
X166594267Y-87599500D01*
X166594265Y-87599500D01*
X166387335Y-87599500D01*
X166387332Y-87599500D01*
X166184381Y-87639869D01*
X165993202Y-87719058D01*
X165821148Y-87834020D01*
X165674820Y-87980348D01*
X165559858Y-88152402D01*
X165480669Y-88343581D01*
X165440300Y-88546532D01*
X164175365Y-88546532D01*
X164200500Y-88452727D01*
X164200500Y-88347273D01*
X164173207Y-88245413D01*
X164120480Y-88154087D01*
X164120477Y-88154084D01*
X164117831Y-88149501D01*
X164105109Y-88089652D01*
X164117831Y-88050499D01*
X164120477Y-88045915D01*
X164120480Y-88045913D01*
X164173207Y-87954587D01*
X164200500Y-87852727D01*
X164200500Y-87747273D01*
X164173207Y-87645413D01*
X164149347Y-87604087D01*
X164120481Y-87554089D01*
X164120480Y-87554087D01*
X164045913Y-87479520D01*
X164045910Y-87479518D01*
X163982001Y-87442620D01*
X163941060Y-87397151D01*
X163934664Y-87336300D01*
X163965257Y-87283312D01*
X164005876Y-87261258D01*
X164054587Y-87248207D01*
X164145913Y-87195480D01*
X164220480Y-87120913D01*
X164273207Y-87029587D01*
X164300500Y-86927727D01*
X164300500Y-86822273D01*
X164273207Y-86720413D01*
X164262995Y-86702726D01*
X164220481Y-86629089D01*
X164220480Y-86629087D01*
X164145913Y-86554520D01*
X164145166Y-86554089D01*
X164054589Y-86501794D01*
X164054588Y-86501793D01*
X164054587Y-86501793D01*
X163952727Y-86474500D01*
X163847273Y-86474500D01*
X163745413Y-86501793D01*
X163745412Y-86501793D01*
X163745410Y-86501794D01*
X163745409Y-86501794D01*
X163654089Y-86554518D01*
X163579518Y-86629089D01*
X163526794Y-86720409D01*
X163526794Y-86720410D01*
X163526793Y-86720412D01*
X163526793Y-86720413D01*
X163499500Y-86822273D01*
X163499500Y-86927727D01*
X163506698Y-86954589D01*
X163526794Y-87029589D01*
X163526794Y-87029590D01*
X163579271Y-87120482D01*
X163579520Y-87120913D01*
X163654087Y-87195480D01*
X163717999Y-87232380D01*
X163758939Y-87277848D01*
X163765335Y-87338698D01*
X163734742Y-87391686D01*
X163694121Y-87413742D01*
X163645411Y-87426793D01*
X163645409Y-87426794D01*
X163554089Y-87479518D01*
X163479518Y-87554089D01*
X163426794Y-87645409D01*
X163426794Y-87645410D01*
X163426793Y-87645412D01*
X163426793Y-87645413D01*
X163399500Y-87747273D01*
X154537103Y-87747273D01*
X154523207Y-87695413D01*
X154470480Y-87604087D01*
X154395913Y-87529520D01*
X154309310Y-87479520D01*
X154304589Y-87476794D01*
X154304588Y-87476793D01*
X154304587Y-87476793D01*
X154202727Y-87449500D01*
X154097273Y-87449500D01*
X153995413Y-87476793D01*
X153995412Y-87476793D01*
X153995410Y-87476794D01*
X153995409Y-87476794D01*
X153904089Y-87529518D01*
X153829518Y-87604089D01*
X153776794Y-87695409D01*
X153776794Y-87695410D01*
X153776793Y-87695412D01*
X153776793Y-87695413D01*
X153749500Y-87797273D01*
X137248562Y-87797273D01*
X137273207Y-87754587D01*
X137300500Y-87652727D01*
X137300500Y-87547273D01*
X137273207Y-87445413D01*
X137271594Y-87442620D01*
X137220481Y-87354089D01*
X137220480Y-87354087D01*
X137145913Y-87279520D01*
X137145910Y-87279518D01*
X137145909Y-87279517D01*
X137144642Y-87278545D01*
X137143993Y-87277601D01*
X137141324Y-87274932D01*
X137141818Y-87274437D01*
X137109983Y-87228123D01*
X137111582Y-87166958D01*
X137141725Y-87125469D01*
X137141324Y-87125068D01*
X137143858Y-87122533D01*
X137144642Y-87121455D01*
X137145907Y-87120483D01*
X137145913Y-87120480D01*
X137220480Y-87045913D01*
X137273207Y-86954587D01*
X137274209Y-86950844D01*
X137275166Y-86947273D01*
X141499500Y-86947273D01*
X141499500Y-87052727D01*
X141518991Y-87125469D01*
X141526794Y-87154589D01*
X141526794Y-87154590D01*
X141572093Y-87233049D01*
X141579520Y-87245913D01*
X141654087Y-87320480D01*
X141745413Y-87373207D01*
X141847273Y-87400500D01*
X141847275Y-87400500D01*
X141952725Y-87400500D01*
X141952727Y-87400500D01*
X142054587Y-87373207D01*
X142145913Y-87320480D01*
X142220480Y-87245913D01*
X142273207Y-87154587D01*
X142300500Y-87052727D01*
X142300500Y-86947273D01*
X142273207Y-86845413D01*
X142220480Y-86754087D01*
X142145913Y-86679520D01*
X142140716Y-86676519D01*
X142140715Y-86676518D01*
X142054589Y-86626794D01*
X142054588Y-86626793D01*
X142054587Y-86626793D01*
X141952727Y-86599500D01*
X141847273Y-86599500D01*
X141745413Y-86626793D01*
X141745412Y-86626793D01*
X141745410Y-86626794D01*
X141745409Y-86626794D01*
X141654089Y-86679518D01*
X141579518Y-86754089D01*
X141526794Y-86845409D01*
X141526794Y-86845410D01*
X141526793Y-86845412D01*
X141526793Y-86845413D01*
X141499500Y-86947273D01*
X137275166Y-86947273D01*
X137283772Y-86915160D01*
X137289639Y-86893258D01*
X137300500Y-86852727D01*
X137300500Y-86747273D01*
X137273207Y-86645413D01*
X137263782Y-86629089D01*
X137245413Y-86597273D01*
X145349500Y-86597273D01*
X145349500Y-86702727D01*
X145370113Y-86779655D01*
X145376794Y-86804589D01*
X145376794Y-86804590D01*
X145429518Y-86895910D01*
X145429520Y-86895913D01*
X145504087Y-86970480D01*
X145595413Y-87023207D01*
X145697273Y-87050500D01*
X145697275Y-87050500D01*
X145802725Y-87050500D01*
X145802727Y-87050500D01*
X145904587Y-87023207D01*
X145995913Y-86970480D01*
X146070480Y-86895913D01*
X146123207Y-86804587D01*
X146138564Y-86747273D01*
X148599500Y-86747273D01*
X148599500Y-86852727D01*
X148624834Y-86947274D01*
X148626794Y-86954589D01*
X148626794Y-86954590D01*
X148670094Y-87029587D01*
X148679520Y-87045913D01*
X148754087Y-87120480D01*
X148845413Y-87173207D01*
X148947273Y-87200500D01*
X148947275Y-87200500D01*
X149052725Y-87200500D01*
X149052727Y-87200500D01*
X149154587Y-87173207D01*
X149245913Y-87120480D01*
X149320480Y-87045913D01*
X149373207Y-86954587D01*
X149400500Y-86852727D01*
X149400500Y-86747273D01*
X149373207Y-86645413D01*
X149363782Y-86629089D01*
X149320481Y-86554089D01*
X149320480Y-86554087D01*
X149245913Y-86479520D01*
X149237218Y-86474500D01*
X149154589Y-86426794D01*
X149154588Y-86426793D01*
X149154587Y-86426793D01*
X149052727Y-86399500D01*
X148947273Y-86399500D01*
X148845413Y-86426793D01*
X148845412Y-86426793D01*
X148845410Y-86426794D01*
X148845409Y-86426794D01*
X148754089Y-86479518D01*
X148679518Y-86554089D01*
X148626794Y-86645409D01*
X148626794Y-86645410D01*
X148626793Y-86645412D01*
X148626793Y-86645413D01*
X148599500Y-86747273D01*
X146138564Y-86747273D01*
X146150500Y-86702727D01*
X146150500Y-86597273D01*
X146123207Y-86495413D01*
X146070480Y-86404087D01*
X145995913Y-86329520D01*
X145952731Y-86304589D01*
X145904589Y-86276794D01*
X145904588Y-86276793D01*
X145904587Y-86276793D01*
X145802727Y-86249500D01*
X145697273Y-86249500D01*
X145595413Y-86276793D01*
X145595412Y-86276793D01*
X145595410Y-86276794D01*
X145595409Y-86276794D01*
X145504089Y-86329518D01*
X145429518Y-86404089D01*
X145376794Y-86495409D01*
X145376794Y-86495410D01*
X145376793Y-86495412D01*
X145376793Y-86495413D01*
X145349500Y-86597273D01*
X137245413Y-86597273D01*
X137220481Y-86554089D01*
X137220480Y-86554087D01*
X137145913Y-86479520D01*
X137070075Y-86435735D01*
X137029136Y-86390267D01*
X137022740Y-86329417D01*
X137053333Y-86276429D01*
X137070071Y-86264267D01*
X137145913Y-86220480D01*
X137220480Y-86145913D01*
X137273207Y-86054587D01*
X137300500Y-85952727D01*
X137300500Y-85847273D01*
X137273207Y-85745413D01*
X137267093Y-85734824D01*
X137220481Y-85654089D01*
X137220480Y-85654087D01*
X137145913Y-85579520D01*
X137070075Y-85535735D01*
X137029136Y-85490267D01*
X137022740Y-85429417D01*
X137053333Y-85376429D01*
X137070071Y-85364267D01*
X137145913Y-85320480D01*
X137169120Y-85297273D01*
X162049500Y-85297273D01*
X162049500Y-85402727D01*
X162072956Y-85490267D01*
X162076794Y-85504589D01*
X162076794Y-85504590D01*
X162129518Y-85595910D01*
X162129520Y-85595913D01*
X162204087Y-85670480D01*
X162295413Y-85723207D01*
X162338772Y-85734825D01*
X162390085Y-85768148D01*
X162412012Y-85825269D01*
X162396177Y-85884370D01*
X162383156Y-85900450D01*
X162379520Y-85904085D01*
X162326794Y-85995409D01*
X162326794Y-85995410D01*
X162326794Y-85995411D01*
X162326793Y-85995413D01*
X162299500Y-86097273D01*
X162299500Y-86202727D01*
X162319346Y-86276793D01*
X162326794Y-86304589D01*
X162326794Y-86304590D01*
X162364896Y-86370584D01*
X162379520Y-86395913D01*
X162454087Y-86470480D01*
X162545413Y-86523207D01*
X162647273Y-86550500D01*
X162647275Y-86550500D01*
X162752725Y-86550500D01*
X162752727Y-86550500D01*
X162854587Y-86523207D01*
X162945913Y-86470480D01*
X163020480Y-86395913D01*
X163073207Y-86304587D01*
X163100500Y-86202727D01*
X163100500Y-86097273D01*
X163076186Y-86006532D01*
X165440300Y-86006532D01*
X165440300Y-86213467D01*
X165480669Y-86416418D01*
X165559858Y-86607597D01*
X165635236Y-86720409D01*
X165674823Y-86779655D01*
X165821145Y-86925977D01*
X165993202Y-87040941D01*
X166184380Y-87120130D01*
X166387335Y-87160500D01*
X166387336Y-87160500D01*
X166594264Y-87160500D01*
X166594265Y-87160500D01*
X166797220Y-87120130D01*
X166988398Y-87040941D01*
X167160455Y-86925977D01*
X167306777Y-86779655D01*
X167421741Y-86607598D01*
X167500930Y-86416420D01*
X167541300Y-86213465D01*
X167541300Y-86006535D01*
X167500930Y-85803580D01*
X167421741Y-85612402D01*
X167306777Y-85440345D01*
X167160455Y-85294023D01*
X167119514Y-85266667D01*
X166988397Y-85179058D01*
X166797218Y-85099869D01*
X166594267Y-85059500D01*
X166594265Y-85059500D01*
X166387335Y-85059500D01*
X166387332Y-85059500D01*
X166184381Y-85099869D01*
X165993202Y-85179058D01*
X165821148Y-85294020D01*
X165674820Y-85440348D01*
X165559858Y-85612402D01*
X165480669Y-85803581D01*
X165440300Y-86006532D01*
X163076186Y-86006532D01*
X163073207Y-85995413D01*
X163020480Y-85904087D01*
X162945913Y-85829520D01*
X162945910Y-85829518D01*
X162854590Y-85776794D01*
X162854583Y-85776791D01*
X162811227Y-85765174D01*
X162759913Y-85731850D01*
X162737987Y-85674728D01*
X162753823Y-85615628D01*
X162766847Y-85599545D01*
X162770480Y-85595913D01*
X162823207Y-85504587D01*
X162836072Y-85456571D01*
X162869394Y-85405259D01*
X162926515Y-85383332D01*
X162985616Y-85399167D01*
X163024122Y-85446716D01*
X163026267Y-85453316D01*
X163026794Y-85454590D01*
X163055662Y-85504590D01*
X163079520Y-85545913D01*
X163154087Y-85620480D01*
X163245413Y-85673207D01*
X163347273Y-85700500D01*
X163347275Y-85700500D01*
X163452725Y-85700500D01*
X163452727Y-85700500D01*
X163554587Y-85673207D01*
X163645913Y-85620480D01*
X163720480Y-85545913D01*
X163773207Y-85454587D01*
X163800500Y-85352727D01*
X163800500Y-85247273D01*
X163773207Y-85145413D01*
X163749347Y-85104087D01*
X163720481Y-85054089D01*
X163720480Y-85054087D01*
X163645913Y-84979520D01*
X163641191Y-84976794D01*
X163554589Y-84926794D01*
X163554588Y-84926793D01*
X163554587Y-84926793D01*
X163452727Y-84899500D01*
X163347273Y-84899500D01*
X163245413Y-84926793D01*
X163245412Y-84926793D01*
X163245410Y-84926794D01*
X163245409Y-84926794D01*
X163154089Y-84979518D01*
X163079518Y-85054089D01*
X163026794Y-85145409D01*
X163026791Y-85145416D01*
X163013927Y-85193427D01*
X162980603Y-85244741D01*
X162923481Y-85266667D01*
X162864381Y-85250831D01*
X162825876Y-85203281D01*
X162823732Y-85196681D01*
X162823205Y-85195409D01*
X162770481Y-85104089D01*
X162770480Y-85104087D01*
X162695913Y-85029520D01*
X162609310Y-84979520D01*
X162604589Y-84976794D01*
X162604588Y-84976793D01*
X162604587Y-84976793D01*
X162502727Y-84949500D01*
X162397273Y-84949500D01*
X162295413Y-84976793D01*
X162295412Y-84976793D01*
X162295410Y-84976794D01*
X162295409Y-84976794D01*
X162204089Y-85029518D01*
X162129518Y-85104089D01*
X162076794Y-85195409D01*
X162076794Y-85195410D01*
X162076793Y-85195412D01*
X162076793Y-85195413D01*
X162049500Y-85297273D01*
X137169120Y-85297273D01*
X137220480Y-85245913D01*
X137273207Y-85154587D01*
X137300500Y-85052727D01*
X137300500Y-84947273D01*
X137273207Y-84845413D01*
X137220480Y-84754087D01*
X137145913Y-84679520D01*
X137054587Y-84626793D01*
X136952727Y-84599500D01*
X136847273Y-84599500D01*
X136745413Y-84626793D01*
X136745412Y-84626793D01*
X136745410Y-84626794D01*
X136745409Y-84626794D01*
X136654089Y-84679518D01*
X136579518Y-84754089D01*
X136526794Y-84845409D01*
X136526794Y-84845410D01*
X136526793Y-84845412D01*
X136526793Y-84845413D01*
X136499500Y-84947273D01*
X131000500Y-84947273D01*
X131000500Y-83466532D01*
X132458700Y-83466532D01*
X132458700Y-83673467D01*
X132499069Y-83876418D01*
X132578258Y-84067597D01*
X132631496Y-84147274D01*
X132693223Y-84239655D01*
X132839545Y-84385977D01*
X133011602Y-84500941D01*
X133202780Y-84580130D01*
X133405735Y-84620500D01*
X133405736Y-84620500D01*
X133612664Y-84620500D01*
X133612665Y-84620500D01*
X133815620Y-84580130D01*
X134006798Y-84500941D01*
X134178855Y-84385977D01*
X134325177Y-84239655D01*
X134386904Y-84147273D01*
X146349500Y-84147273D01*
X146349500Y-84252727D01*
X146376793Y-84354587D01*
X146376794Y-84354589D01*
X146376794Y-84354590D01*
X146425966Y-84439758D01*
X146429520Y-84445913D01*
X146504087Y-84520480D01*
X146595413Y-84573207D01*
X146697273Y-84600500D01*
X146697275Y-84600500D01*
X146802725Y-84600500D01*
X146802727Y-84600500D01*
X146904587Y-84573207D01*
X146995913Y-84520480D01*
X147070480Y-84445913D01*
X147123207Y-84354587D01*
X147150500Y-84252727D01*
X147150500Y-84147273D01*
X147349500Y-84147273D01*
X147349500Y-84252727D01*
X147376793Y-84354587D01*
X147376794Y-84354589D01*
X147376794Y-84354590D01*
X147425966Y-84439758D01*
X147429520Y-84445913D01*
X147504087Y-84520480D01*
X147595413Y-84573207D01*
X147697273Y-84600500D01*
X147697275Y-84600500D01*
X147802725Y-84600500D01*
X147802727Y-84600500D01*
X147904587Y-84573207D01*
X147995913Y-84520480D01*
X148070480Y-84445913D01*
X148123207Y-84354587D01*
X148150500Y-84252727D01*
X148150500Y-84147273D01*
X149349500Y-84147273D01*
X149349500Y-84252727D01*
X149376793Y-84354587D01*
X149376794Y-84354589D01*
X149376794Y-84354590D01*
X149425966Y-84439758D01*
X149429520Y-84445913D01*
X149504087Y-84520480D01*
X149595413Y-84573207D01*
X149697273Y-84600500D01*
X149697275Y-84600500D01*
X149802725Y-84600500D01*
X149802727Y-84600500D01*
X149904587Y-84573207D01*
X149995913Y-84520480D01*
X150070480Y-84445913D01*
X150123207Y-84354587D01*
X150150500Y-84252727D01*
X150150500Y-84147273D01*
X150123207Y-84045413D01*
X150095951Y-83998205D01*
X150070481Y-83954089D01*
X150070480Y-83954087D01*
X149995913Y-83879520D01*
X149990540Y-83876418D01*
X149904589Y-83826794D01*
X149904588Y-83826793D01*
X149904587Y-83826793D01*
X149802727Y-83799500D01*
X149697273Y-83799500D01*
X149595413Y-83826793D01*
X149595412Y-83826793D01*
X149595410Y-83826794D01*
X149595409Y-83826794D01*
X149504089Y-83879518D01*
X149429518Y-83954089D01*
X149376794Y-84045409D01*
X149376794Y-84045410D01*
X149376793Y-84045412D01*
X149376793Y-84045413D01*
X149349500Y-84147273D01*
X148150500Y-84147273D01*
X148123207Y-84045413D01*
X148095951Y-83998205D01*
X148070481Y-83954089D01*
X148070480Y-83954087D01*
X147995913Y-83879520D01*
X147990540Y-83876418D01*
X147904589Y-83826794D01*
X147904588Y-83826793D01*
X147904587Y-83826793D01*
X147802727Y-83799500D01*
X147697273Y-83799500D01*
X147595413Y-83826793D01*
X147595412Y-83826793D01*
X147595410Y-83826794D01*
X147595409Y-83826794D01*
X147504089Y-83879518D01*
X147429518Y-83954089D01*
X147376794Y-84045409D01*
X147376794Y-84045410D01*
X147376793Y-84045412D01*
X147376793Y-84045413D01*
X147349500Y-84147273D01*
X147150500Y-84147273D01*
X147123207Y-84045413D01*
X147095951Y-83998205D01*
X147070481Y-83954089D01*
X147070480Y-83954087D01*
X146995913Y-83879520D01*
X146990540Y-83876418D01*
X146904589Y-83826794D01*
X146904588Y-83826793D01*
X146904587Y-83826793D01*
X146802727Y-83799500D01*
X146697273Y-83799500D01*
X146595413Y-83826793D01*
X146595412Y-83826793D01*
X146595410Y-83826794D01*
X146595409Y-83826794D01*
X146504089Y-83879518D01*
X146429518Y-83954089D01*
X146376794Y-84045409D01*
X146376794Y-84045410D01*
X146376793Y-84045412D01*
X146376793Y-84045413D01*
X146349500Y-84147273D01*
X134386904Y-84147273D01*
X134440141Y-84067598D01*
X134519330Y-83876420D01*
X134559700Y-83673465D01*
X134559700Y-83466535D01*
X134559699Y-83466532D01*
X134558892Y-83462473D01*
X152482100Y-83462473D01*
X152482100Y-83567927D01*
X152483265Y-83572274D01*
X152509394Y-83669789D01*
X152509394Y-83669790D01*
X152562118Y-83761110D01*
X152562120Y-83761113D01*
X152636687Y-83835680D01*
X152728013Y-83888407D01*
X152829873Y-83915700D01*
X152829875Y-83915700D01*
X152935325Y-83915700D01*
X152935327Y-83915700D01*
X153037187Y-83888407D01*
X153128513Y-83835680D01*
X153203080Y-83761113D01*
X153255807Y-83669787D01*
X153283100Y-83567927D01*
X153283100Y-83465073D01*
X153881700Y-83465073D01*
X153881700Y-83570527D01*
X153908993Y-83672387D01*
X153908994Y-83672389D01*
X153908994Y-83672390D01*
X153960217Y-83761110D01*
X153961720Y-83763713D01*
X154036287Y-83838280D01*
X154127613Y-83891007D01*
X154229473Y-83918300D01*
X154229475Y-83918300D01*
X154334925Y-83918300D01*
X154334927Y-83918300D01*
X154436787Y-83891007D01*
X154528113Y-83838280D01*
X154602680Y-83763713D01*
X154655407Y-83672387D01*
X154682232Y-83572273D01*
X164274500Y-83572273D01*
X164274500Y-83677727D01*
X164296843Y-83761113D01*
X164301794Y-83779589D01*
X164301794Y-83779590D01*
X164335679Y-83838280D01*
X164354520Y-83870913D01*
X164429087Y-83945480D01*
X164520413Y-83998207D01*
X164622273Y-84025500D01*
X164622275Y-84025500D01*
X164727725Y-84025500D01*
X164727727Y-84025500D01*
X164829587Y-83998207D01*
X164920913Y-83945480D01*
X164995480Y-83870913D01*
X165048207Y-83779587D01*
X165075500Y-83677727D01*
X165075500Y-83572273D01*
X165048207Y-83470413D01*
X165045967Y-83466534D01*
X164995481Y-83379089D01*
X164995480Y-83379087D01*
X164920913Y-83304520D01*
X164913950Y-83300500D01*
X164829589Y-83251794D01*
X164829588Y-83251793D01*
X164829587Y-83251793D01*
X164727727Y-83224500D01*
X164622273Y-83224500D01*
X164520413Y-83251793D01*
X164520412Y-83251793D01*
X164520410Y-83251794D01*
X164520409Y-83251794D01*
X164429089Y-83304518D01*
X164354518Y-83379089D01*
X164301794Y-83470409D01*
X164301794Y-83470410D01*
X164301793Y-83470412D01*
X164301793Y-83470413D01*
X164274500Y-83572273D01*
X154682232Y-83572273D01*
X154682700Y-83570527D01*
X154682700Y-83465073D01*
X154655407Y-83363213D01*
X154602680Y-83271887D01*
X154528113Y-83197320D01*
X154523606Y-83194718D01*
X154436789Y-83144594D01*
X154436788Y-83144593D01*
X154436787Y-83144593D01*
X154334927Y-83117300D01*
X154229473Y-83117300D01*
X154127613Y-83144593D01*
X154127612Y-83144593D01*
X154127610Y-83144594D01*
X154127609Y-83144594D01*
X154036289Y-83197318D01*
X153961718Y-83271889D01*
X153908994Y-83363209D01*
X153908994Y-83363210D01*
X153908993Y-83363212D01*
X153908993Y-83363213D01*
X153881700Y-83465073D01*
X153283100Y-83465073D01*
X153283100Y-83462473D01*
X153255807Y-83360613D01*
X153203080Y-83269287D01*
X153128513Y-83194720D01*
X153091251Y-83173207D01*
X153037189Y-83141994D01*
X153037188Y-83141993D01*
X153037187Y-83141993D01*
X152935327Y-83114700D01*
X152829873Y-83114700D01*
X152728013Y-83141993D01*
X152728012Y-83141993D01*
X152728010Y-83141994D01*
X152728009Y-83141994D01*
X152636689Y-83194718D01*
X152562118Y-83269289D01*
X152509394Y-83360609D01*
X152509394Y-83360610D01*
X152509393Y-83360612D01*
X152509393Y-83360613D01*
X152482100Y-83462473D01*
X134558892Y-83462473D01*
X134521245Y-83273207D01*
X134519330Y-83263580D01*
X134440141Y-83072402D01*
X134325177Y-82900345D01*
X134272105Y-82847273D01*
X141299500Y-82847273D01*
X141299500Y-82952727D01*
X141324469Y-83045913D01*
X141326794Y-83054589D01*
X141326794Y-83054590D01*
X141377257Y-83141993D01*
X141379520Y-83145913D01*
X141454087Y-83220480D01*
X141545413Y-83273207D01*
X141647273Y-83300500D01*
X141647275Y-83300500D01*
X141752725Y-83300500D01*
X141752727Y-83300500D01*
X141854587Y-83273207D01*
X141945913Y-83220480D01*
X142020480Y-83145913D01*
X142073207Y-83054587D01*
X142100500Y-82952727D01*
X142100500Y-82847273D01*
X142073705Y-82747273D01*
X145599500Y-82747273D01*
X145599500Y-82852727D01*
X145626295Y-82952727D01*
X145626794Y-82954589D01*
X145626794Y-82954590D01*
X145679518Y-83045910D01*
X145679520Y-83045913D01*
X145754087Y-83120480D01*
X145845413Y-83173207D01*
X145947273Y-83200500D01*
X145947275Y-83200500D01*
X146052725Y-83200500D01*
X146052727Y-83200500D01*
X146154587Y-83173207D01*
X146245913Y-83120480D01*
X146320480Y-83045913D01*
X146373207Y-82954587D01*
X146400500Y-82852727D01*
X146400500Y-82747273D01*
X146387901Y-82700253D01*
X165440300Y-82700253D01*
X165440300Y-84439746D01*
X165440301Y-84439758D01*
X165451932Y-84498227D01*
X165451934Y-84498233D01*
X165466800Y-84520481D01*
X165496248Y-84564552D01*
X165562569Y-84608867D01*
X165607031Y-84617711D01*
X165621041Y-84620498D01*
X165621046Y-84620498D01*
X165621052Y-84620500D01*
X165621053Y-84620500D01*
X167360547Y-84620500D01*
X167360548Y-84620500D01*
X167419031Y-84608867D01*
X167485352Y-84564552D01*
X167529667Y-84498231D01*
X167541300Y-84439748D01*
X167541300Y-82700252D01*
X167529667Y-82641769D01*
X167485352Y-82575448D01*
X167485348Y-82575445D01*
X167419033Y-82531134D01*
X167419031Y-82531133D01*
X167419028Y-82531132D01*
X167419027Y-82531132D01*
X167360558Y-82519501D01*
X167360548Y-82519500D01*
X165621052Y-82519500D01*
X165621051Y-82519500D01*
X165621041Y-82519501D01*
X165562572Y-82531132D01*
X165562566Y-82531134D01*
X165496251Y-82575445D01*
X165496245Y-82575451D01*
X165451934Y-82641766D01*
X165451932Y-82641772D01*
X165440301Y-82700241D01*
X165440300Y-82700253D01*
X146387901Y-82700253D01*
X146373207Y-82645413D01*
X146371101Y-82641766D01*
X146320481Y-82554089D01*
X146320480Y-82554087D01*
X146245913Y-82479520D01*
X146154587Y-82426793D01*
X146052727Y-82399500D01*
X145947273Y-82399500D01*
X145845413Y-82426793D01*
X145845412Y-82426793D01*
X145845410Y-82426794D01*
X145845409Y-82426794D01*
X145754089Y-82479518D01*
X145679518Y-82554089D01*
X145626794Y-82645409D01*
X145626794Y-82645410D01*
X145626794Y-82645411D01*
X145626793Y-82645413D01*
X145599500Y-82747273D01*
X142073705Y-82747273D01*
X142073207Y-82745413D01*
X142020480Y-82654087D01*
X141945913Y-82579520D01*
X141938865Y-82575451D01*
X141854589Y-82526794D01*
X141854588Y-82526793D01*
X141854587Y-82526793D01*
X141752727Y-82499500D01*
X141647273Y-82499500D01*
X141545413Y-82526793D01*
X141545412Y-82526793D01*
X141545410Y-82526794D01*
X141545409Y-82526794D01*
X141454089Y-82579518D01*
X141379518Y-82654089D01*
X141326794Y-82745409D01*
X141326794Y-82745410D01*
X141326793Y-82745412D01*
X141326793Y-82745413D01*
X141299500Y-82847273D01*
X134272105Y-82847273D01*
X134178855Y-82754023D01*
X134178851Y-82754020D01*
X134006797Y-82639058D01*
X133815618Y-82559869D01*
X133612667Y-82519500D01*
X133612665Y-82519500D01*
X133405735Y-82519500D01*
X133405732Y-82519500D01*
X133202781Y-82559869D01*
X133011602Y-82639058D01*
X132839548Y-82754020D01*
X132693220Y-82900348D01*
X132578258Y-83072402D01*
X132499069Y-83263581D01*
X132458700Y-83466532D01*
X131000500Y-83466532D01*
X131000500Y-82016149D01*
X131001308Y-82011166D01*
X131000732Y-82002762D01*
X131000633Y-81999872D01*
X130999478Y-81997324D01*
X130996248Y-81989528D01*
X130993226Y-81985335D01*
X130010952Y-80020785D01*
X130000500Y-79976511D01*
X130000500Y-79688227D01*
X130019407Y-79630036D01*
X130068907Y-79594072D01*
X130130093Y-79594072D01*
X130179593Y-79630036D01*
X130194237Y-79659489D01*
X130200620Y-79680531D01*
X130332215Y-79998232D01*
X130332231Y-79998266D01*
X130494326Y-80301527D01*
X130685385Y-80587465D01*
X130685390Y-80587471D01*
X130851235Y-80789552D01*
X132203366Y-79437420D01*
X132279588Y-79542330D01*
X132457670Y-79720412D01*
X132562577Y-79796631D01*
X131210446Y-81148763D01*
X131210445Y-81148763D01*
X131412528Y-81314609D01*
X131412534Y-81314614D01*
X131698472Y-81505673D01*
X132001733Y-81667768D01*
X132001767Y-81667784D01*
X132319468Y-81799379D01*
X132648539Y-81899203D01*
X132985829Y-81966293D01*
X132985825Y-81966293D01*
X133328059Y-82000000D01*
X133671941Y-82000000D01*
X134014172Y-81966293D01*
X134351460Y-81899203D01*
X134680531Y-81799379D01*
X134998232Y-81667784D01*
X134998266Y-81667768D01*
X135301527Y-81505673D01*
X135587463Y-81314615D01*
X135789552Y-81148763D01*
X134437421Y-79796632D01*
X134542330Y-79720412D01*
X134720412Y-79542330D01*
X134796632Y-79437421D01*
X136148763Y-80789552D01*
X136314615Y-80587463D01*
X136505673Y-80301527D01*
X136667768Y-79998266D01*
X136667784Y-79998232D01*
X136799379Y-79680531D01*
X136899203Y-79351460D01*
X136966293Y-79014172D01*
X137000000Y-78671941D01*
X137000000Y-78328058D01*
X136966293Y-77985827D01*
X136900270Y-77653902D01*
X136899203Y-77648539D01*
X136896447Y-77639453D01*
X137519500Y-77639453D01*
X137519500Y-79378946D01*
X137519501Y-79378958D01*
X137531132Y-79437427D01*
X137531134Y-79437433D01*
X137575445Y-79503748D01*
X137575448Y-79503752D01*
X137641769Y-79548067D01*
X137686231Y-79556911D01*
X137700241Y-79559698D01*
X137700246Y-79559698D01*
X137700252Y-79559700D01*
X137700253Y-79559700D01*
X139439747Y-79559700D01*
X139439748Y-79559700D01*
X139498231Y-79548067D01*
X139564552Y-79503752D01*
X139608867Y-79437431D01*
X139620500Y-79378948D01*
X139620500Y-78405732D01*
X140059500Y-78405732D01*
X140059500Y-78612667D01*
X140099869Y-78815618D01*
X140179058Y-79006797D01*
X140294020Y-79178851D01*
X140294023Y-79178855D01*
X140440345Y-79325177D01*
X140612402Y-79440141D01*
X140803580Y-79519330D01*
X141006535Y-79559700D01*
X141006536Y-79559700D01*
X141213464Y-79559700D01*
X141213465Y-79559700D01*
X141416420Y-79519330D01*
X141607598Y-79440141D01*
X141779655Y-79325177D01*
X141925977Y-79178855D01*
X142040941Y-79006798D01*
X142120130Y-78815620D01*
X142160500Y-78612665D01*
X142160500Y-78405735D01*
X142160499Y-78405732D01*
X142599500Y-78405732D01*
X142599500Y-78612667D01*
X142639869Y-78815618D01*
X142719058Y-79006797D01*
X142834020Y-79178851D01*
X142834023Y-79178855D01*
X142980345Y-79325177D01*
X143152402Y-79440141D01*
X143343580Y-79519330D01*
X143546535Y-79559700D01*
X143546536Y-79559700D01*
X143753464Y-79559700D01*
X143753465Y-79559700D01*
X143956420Y-79519330D01*
X144147598Y-79440141D01*
X144319655Y-79325177D01*
X144465977Y-79178855D01*
X144580941Y-79006798D01*
X144660130Y-78815620D01*
X144700500Y-78612665D01*
X144700500Y-78405735D01*
X144700499Y-78405732D01*
X145139500Y-78405732D01*
X145139500Y-78612667D01*
X145179869Y-78815618D01*
X145259058Y-79006797D01*
X145374020Y-79178851D01*
X145374023Y-79178855D01*
X145520345Y-79325177D01*
X145692402Y-79440141D01*
X145883580Y-79519330D01*
X146086535Y-79559700D01*
X146086536Y-79559700D01*
X146293464Y-79559700D01*
X146293465Y-79559700D01*
X146496420Y-79519330D01*
X146687598Y-79440141D01*
X146859655Y-79325177D01*
X147005977Y-79178855D01*
X147120941Y-79006798D01*
X147200130Y-78815620D01*
X147240500Y-78612665D01*
X147240500Y-78405735D01*
X147240499Y-78405732D01*
X147679500Y-78405732D01*
X147679500Y-78612667D01*
X147719869Y-78815618D01*
X147799058Y-79006797D01*
X147914020Y-79178851D01*
X147914023Y-79178855D01*
X148060345Y-79325177D01*
X148232402Y-79440141D01*
X148423580Y-79519330D01*
X148626535Y-79559700D01*
X148626536Y-79559700D01*
X148833464Y-79559700D01*
X148833465Y-79559700D01*
X149036420Y-79519330D01*
X149227598Y-79440141D01*
X149399655Y-79325177D01*
X149545977Y-79178855D01*
X149660941Y-79006798D01*
X149740130Y-78815620D01*
X149780500Y-78612665D01*
X149780500Y-78405735D01*
X149780499Y-78405732D01*
X150219500Y-78405732D01*
X150219500Y-78612667D01*
X150259869Y-78815618D01*
X150339058Y-79006797D01*
X150454020Y-79178851D01*
X150454023Y-79178855D01*
X150600345Y-79325177D01*
X150772402Y-79440141D01*
X150963580Y-79519330D01*
X151166535Y-79559700D01*
X151166536Y-79559700D01*
X151373464Y-79559700D01*
X151373465Y-79559700D01*
X151576420Y-79519330D01*
X151767598Y-79440141D01*
X151939655Y-79325177D01*
X152085977Y-79178855D01*
X152200941Y-79006798D01*
X152280130Y-78815620D01*
X152320500Y-78612665D01*
X152320500Y-78405735D01*
X152320499Y-78405732D01*
X152759500Y-78405732D01*
X152759500Y-78612667D01*
X152799869Y-78815618D01*
X152879058Y-79006797D01*
X152994020Y-79178851D01*
X152994023Y-79178855D01*
X153140345Y-79325177D01*
X153312402Y-79440141D01*
X153503580Y-79519330D01*
X153706535Y-79559700D01*
X153706536Y-79559700D01*
X153913464Y-79559700D01*
X153913465Y-79559700D01*
X154116420Y-79519330D01*
X154307598Y-79440141D01*
X154479655Y-79325177D01*
X154625977Y-79178855D01*
X154740941Y-79006798D01*
X154820130Y-78815620D01*
X154860500Y-78612665D01*
X154860500Y-78405735D01*
X154860499Y-78405732D01*
X155299500Y-78405732D01*
X155299500Y-78612667D01*
X155339869Y-78815618D01*
X155419058Y-79006797D01*
X155534020Y-79178851D01*
X155534023Y-79178855D01*
X155680345Y-79325177D01*
X155852402Y-79440141D01*
X156043580Y-79519330D01*
X156246535Y-79559700D01*
X156246536Y-79559700D01*
X156453464Y-79559700D01*
X156453465Y-79559700D01*
X156656420Y-79519330D01*
X156847598Y-79440141D01*
X157019655Y-79325177D01*
X157165977Y-79178855D01*
X157280941Y-79006798D01*
X157360130Y-78815620D01*
X157400500Y-78612665D01*
X157400500Y-78405735D01*
X157370557Y-78255200D01*
X157765895Y-78255200D01*
X158459297Y-78255200D01*
X158424075Y-78316207D01*
X158390000Y-78443374D01*
X158390000Y-78575026D01*
X158424075Y-78702193D01*
X158459297Y-78763200D01*
X157765895Y-78763200D01*
X157768316Y-78778489D01*
X157824250Y-78950640D01*
X157906431Y-79111930D01*
X157906433Y-79111934D01*
X158012824Y-79258369D01*
X158140830Y-79386375D01*
X158287265Y-79492766D01*
X158287269Y-79492768D01*
X158448559Y-79574949D01*
X158620710Y-79630883D01*
X158636000Y-79633305D01*
X158636000Y-78939902D01*
X158697007Y-78975125D01*
X158824174Y-79009200D01*
X158955826Y-79009200D01*
X159082993Y-78975125D01*
X159144000Y-78939902D01*
X159144000Y-79633304D01*
X159159289Y-79630883D01*
X159331440Y-79574949D01*
X159492730Y-79492768D01*
X159492734Y-79492766D01*
X159639169Y-79386375D01*
X159767175Y-79258369D01*
X159873566Y-79111934D01*
X159873568Y-79111930D01*
X159955749Y-78950640D01*
X160011683Y-78778489D01*
X160014105Y-78763200D01*
X159320703Y-78763200D01*
X159355925Y-78702193D01*
X159390000Y-78575026D01*
X159390000Y-78443374D01*
X159379914Y-78405732D01*
X160379500Y-78405732D01*
X160379500Y-78612667D01*
X160419869Y-78815618D01*
X160499058Y-79006797D01*
X160614020Y-79178851D01*
X160614023Y-79178855D01*
X160760345Y-79325177D01*
X160932402Y-79440141D01*
X161123580Y-79519330D01*
X161326535Y-79559700D01*
X161326536Y-79559700D01*
X161533464Y-79559700D01*
X161533465Y-79559700D01*
X161736420Y-79519330D01*
X161927598Y-79440141D01*
X162099655Y-79325177D01*
X162245977Y-79178855D01*
X162360941Y-79006798D01*
X162440130Y-78815620D01*
X162480500Y-78612665D01*
X162480500Y-78405735D01*
X162440130Y-78202780D01*
X162360941Y-78011602D01*
X162245977Y-77839545D01*
X162099655Y-77693223D01*
X162040807Y-77653902D01*
X161927597Y-77578258D01*
X161736418Y-77499069D01*
X161533467Y-77458700D01*
X161533465Y-77458700D01*
X161326535Y-77458700D01*
X161326532Y-77458700D01*
X161123581Y-77499069D01*
X160932402Y-77578258D01*
X160760348Y-77693220D01*
X160614020Y-77839548D01*
X160499058Y-78011602D01*
X160419869Y-78202781D01*
X160379500Y-78405732D01*
X159379914Y-78405732D01*
X159355925Y-78316207D01*
X159320703Y-78255200D01*
X160014105Y-78255200D01*
X160011683Y-78239910D01*
X159955749Y-78067759D01*
X159873568Y-77906469D01*
X159873566Y-77906465D01*
X159767175Y-77760030D01*
X159639169Y-77632024D01*
X159492734Y-77525633D01*
X159492730Y-77525631D01*
X159331440Y-77443450D01*
X159159288Y-77387515D01*
X159144000Y-77385093D01*
X159144000Y-78078497D01*
X159082993Y-78043275D01*
X158955826Y-78009200D01*
X158824174Y-78009200D01*
X158697007Y-78043275D01*
X158636000Y-78078497D01*
X158636000Y-77385093D01*
X158620711Y-77387515D01*
X158448559Y-77443450D01*
X158287269Y-77525631D01*
X158287265Y-77525633D01*
X158140830Y-77632024D01*
X158012824Y-77760030D01*
X157906433Y-77906465D01*
X157906431Y-77906469D01*
X157824250Y-78067759D01*
X157768316Y-78239910D01*
X157765895Y-78255200D01*
X157370557Y-78255200D01*
X157360130Y-78202780D01*
X157280941Y-78011602D01*
X157165977Y-77839545D01*
X157019655Y-77693223D01*
X156960807Y-77653902D01*
X156847597Y-77578258D01*
X156656418Y-77499069D01*
X156453467Y-77458700D01*
X156453465Y-77458700D01*
X156246535Y-77458700D01*
X156246532Y-77458700D01*
X156043581Y-77499069D01*
X155852402Y-77578258D01*
X155680348Y-77693220D01*
X155534020Y-77839548D01*
X155419058Y-78011602D01*
X155339869Y-78202781D01*
X155299500Y-78405732D01*
X154860499Y-78405732D01*
X154820130Y-78202780D01*
X154740941Y-78011602D01*
X154625977Y-77839545D01*
X154479655Y-77693223D01*
X154420807Y-77653902D01*
X154307597Y-77578258D01*
X154116418Y-77499069D01*
X153913467Y-77458700D01*
X153913465Y-77458700D01*
X153706535Y-77458700D01*
X153706532Y-77458700D01*
X153503581Y-77499069D01*
X153312402Y-77578258D01*
X153140348Y-77693220D01*
X152994020Y-77839548D01*
X152879058Y-78011602D01*
X152799869Y-78202781D01*
X152759500Y-78405732D01*
X152320499Y-78405732D01*
X152280130Y-78202780D01*
X152200941Y-78011602D01*
X152085977Y-77839545D01*
X151939655Y-77693223D01*
X151880807Y-77653902D01*
X151767597Y-77578258D01*
X151576418Y-77499069D01*
X151373467Y-77458700D01*
X151373465Y-77458700D01*
X151166535Y-77458700D01*
X151166532Y-77458700D01*
X150963581Y-77499069D01*
X150772402Y-77578258D01*
X150600348Y-77693220D01*
X150454020Y-77839548D01*
X150339058Y-78011602D01*
X150259869Y-78202781D01*
X150219500Y-78405732D01*
X149780499Y-78405732D01*
X149740130Y-78202780D01*
X149660941Y-78011602D01*
X149545977Y-77839545D01*
X149399655Y-77693223D01*
X149340807Y-77653902D01*
X149227597Y-77578258D01*
X149036418Y-77499069D01*
X148833467Y-77458700D01*
X148833465Y-77458700D01*
X148626535Y-77458700D01*
X148626532Y-77458700D01*
X148423581Y-77499069D01*
X148232402Y-77578258D01*
X148060348Y-77693220D01*
X147914020Y-77839548D01*
X147799058Y-78011602D01*
X147719869Y-78202781D01*
X147679500Y-78405732D01*
X147240499Y-78405732D01*
X147200130Y-78202780D01*
X147120941Y-78011602D01*
X147005977Y-77839545D01*
X146859655Y-77693223D01*
X146800807Y-77653902D01*
X146687597Y-77578258D01*
X146496418Y-77499069D01*
X146293467Y-77458700D01*
X146293465Y-77458700D01*
X146086535Y-77458700D01*
X146086532Y-77458700D01*
X145883581Y-77499069D01*
X145692402Y-77578258D01*
X145520348Y-77693220D01*
X145374020Y-77839548D01*
X145259058Y-78011602D01*
X145179869Y-78202781D01*
X145139500Y-78405732D01*
X144700499Y-78405732D01*
X144660130Y-78202780D01*
X144580941Y-78011602D01*
X144465977Y-77839545D01*
X144319655Y-77693223D01*
X144260807Y-77653902D01*
X144147597Y-77578258D01*
X143956418Y-77499069D01*
X143753467Y-77458700D01*
X143753465Y-77458700D01*
X143546535Y-77458700D01*
X143546532Y-77458700D01*
X143343581Y-77499069D01*
X143152402Y-77578258D01*
X142980348Y-77693220D01*
X142834020Y-77839548D01*
X142719058Y-78011602D01*
X142639869Y-78202781D01*
X142599500Y-78405732D01*
X142160499Y-78405732D01*
X142120130Y-78202780D01*
X142040941Y-78011602D01*
X141925977Y-77839545D01*
X141779655Y-77693223D01*
X141720807Y-77653902D01*
X141607597Y-77578258D01*
X141416418Y-77499069D01*
X141213467Y-77458700D01*
X141213465Y-77458700D01*
X141006535Y-77458700D01*
X141006532Y-77458700D01*
X140803581Y-77499069D01*
X140612402Y-77578258D01*
X140440348Y-77693220D01*
X140294020Y-77839548D01*
X140179058Y-78011602D01*
X140099869Y-78202781D01*
X140059500Y-78405732D01*
X139620500Y-78405732D01*
X139620500Y-77639452D01*
X139619022Y-77632024D01*
X139617711Y-77625431D01*
X139608867Y-77580969D01*
X139564552Y-77514648D01*
X139564548Y-77514645D01*
X139498233Y-77470334D01*
X139498231Y-77470333D01*
X139498228Y-77470332D01*
X139498227Y-77470332D01*
X139439758Y-77458701D01*
X139439748Y-77458700D01*
X137700252Y-77458700D01*
X137700251Y-77458700D01*
X137700241Y-77458701D01*
X137641772Y-77470332D01*
X137641766Y-77470334D01*
X137575451Y-77514645D01*
X137575445Y-77514651D01*
X137531134Y-77580966D01*
X137531132Y-77580972D01*
X137519501Y-77639441D01*
X137519500Y-77639453D01*
X136896447Y-77639453D01*
X136799379Y-77319468D01*
X136667784Y-77001767D01*
X136667768Y-77001733D01*
X136505673Y-76698472D01*
X136314614Y-76412534D01*
X136314609Y-76412528D01*
X136148763Y-76210446D01*
X134796631Y-77562577D01*
X134720412Y-77457670D01*
X134542330Y-77279588D01*
X134437420Y-77203366D01*
X135789552Y-75851235D01*
X135789553Y-75851235D01*
X135587471Y-75685390D01*
X135587465Y-75685385D01*
X135301527Y-75494326D01*
X134998266Y-75332231D01*
X134998232Y-75332215D01*
X134680534Y-75200621D01*
X134659489Y-75194237D01*
X134609293Y-75159251D01*
X134589247Y-75101443D01*
X134607009Y-75042892D01*
X134655793Y-75005964D01*
X134688228Y-75000500D01*
X134976511Y-75000500D01*
X135020785Y-75010952D01*
G37*
%TD.AperFunction*%
%TA.AperFunction,Conductor*%
G36*
X169148763Y-113789552D02*
G01*
X169314615Y-113587463D01*
X169505673Y-113301527D01*
X169667768Y-112998266D01*
X169667784Y-112998232D01*
X169799379Y-112680531D01*
X169805763Y-112659489D01*
X169840748Y-112609293D01*
X169898556Y-112589246D01*
X169957107Y-112607007D01*
X169994036Y-112655791D01*
X169999500Y-112688227D01*
X169999500Y-113995679D01*
X169999123Y-114004308D01*
X169986122Y-114152906D01*
X169984596Y-114163596D01*
X169978343Y-114195024D01*
X169976873Y-114201327D01*
X169942796Y-114328509D01*
X169938632Y-114340776D01*
X169930789Y-114359709D01*
X169929051Y-114363658D01*
X169869252Y-114491901D01*
X169860623Y-114506847D01*
X169770632Y-114635367D01*
X169759540Y-114648587D01*
X169648587Y-114759540D01*
X169635367Y-114770632D01*
X169506847Y-114860623D01*
X169491901Y-114869252D01*
X169363658Y-114929051D01*
X169359709Y-114930789D01*
X169340776Y-114938632D01*
X169328509Y-114942796D01*
X169201327Y-114976873D01*
X169195024Y-114978343D01*
X169170357Y-114983250D01*
X169163589Y-114984596D01*
X169152906Y-114986122D01*
X169004309Y-114999123D01*
X168995680Y-114999500D01*
X167688228Y-114999500D01*
X167630037Y-114980593D01*
X167594073Y-114931093D01*
X167594073Y-114869907D01*
X167630037Y-114820407D01*
X167659489Y-114805763D01*
X167680534Y-114799378D01*
X167998232Y-114667784D01*
X167998266Y-114667768D01*
X168301527Y-114505673D01*
X168587463Y-114314615D01*
X168789552Y-114148763D01*
X167437421Y-112796632D01*
X167542330Y-112720412D01*
X167720412Y-112542330D01*
X167796632Y-112437421D01*
X169148763Y-113789552D01*
G37*
%TD.AperFunction*%
%TA.AperFunction,Conductor*%
G36*
X132369963Y-75019407D02*
G01*
X132405927Y-75068907D01*
X132405927Y-75130093D01*
X132369963Y-75179593D01*
X132340511Y-75194237D01*
X132319465Y-75200621D01*
X132001767Y-75332215D01*
X132001733Y-75332231D01*
X131698472Y-75494326D01*
X131412536Y-75685384D01*
X131210446Y-75851235D01*
X132562578Y-77203367D01*
X132457670Y-77279588D01*
X132279588Y-77457670D01*
X132203367Y-77562578D01*
X130851235Y-76210446D01*
X130685384Y-76412536D01*
X130494326Y-76698472D01*
X130332231Y-77001733D01*
X130332215Y-77001767D01*
X130200621Y-77319465D01*
X130194237Y-77340511D01*
X130159251Y-77390707D01*
X130101443Y-77410753D01*
X130042892Y-77392991D01*
X130005964Y-77344207D01*
X130000500Y-77311772D01*
X130000500Y-76004318D01*
X130000877Y-75995691D01*
X130001104Y-75993097D01*
X130013880Y-75847062D01*
X130015396Y-75836445D01*
X130021661Y-75804946D01*
X130023125Y-75798671D01*
X130038829Y-75740062D01*
X130057207Y-75671472D01*
X130061357Y-75659247D01*
X130069246Y-75640203D01*
X130070915Y-75636409D01*
X130130750Y-75508091D01*
X130139370Y-75493161D01*
X130229372Y-75364625D01*
X130240453Y-75351418D01*
X130351418Y-75240453D01*
X130364625Y-75229372D01*
X130493161Y-75139370D01*
X130508091Y-75130750D01*
X130636409Y-75070915D01*
X130640203Y-75069246D01*
X130659247Y-75061357D01*
X130671472Y-75057207D01*
X130798679Y-75023122D01*
X130804946Y-75021661D01*
X130836445Y-75015396D01*
X130847062Y-75013880D01*
X130988619Y-75001495D01*
X130995692Y-75000877D01*
X131004319Y-75000500D01*
X132311772Y-75000500D01*
X132369963Y-75019407D01*
G37*
%TD.AperFunction*%
%TA.AperFunction,Conductor*%
G36*
X169004314Y-75000877D02*
G01*
X169154379Y-75014022D01*
X169165025Y-75015542D01*
X169192744Y-75021059D01*
X169199004Y-75022519D01*
X169329723Y-75057560D01*
X169341965Y-75061717D01*
X169356485Y-75067733D01*
X169360357Y-75069437D01*
X169491943Y-75130813D01*
X169506875Y-75139436D01*
X169635414Y-75229459D01*
X169648630Y-75240550D01*
X169759590Y-75351534D01*
X169770673Y-75364746D01*
X169860662Y-75493294D01*
X169869289Y-75508239D01*
X169930611Y-75639781D01*
X169932350Y-75643736D01*
X169938350Y-75658226D01*
X169942511Y-75670488D01*
X169977515Y-75801180D01*
X169978986Y-75807492D01*
X169984486Y-75835161D01*
X169986010Y-75845843D01*
X169999124Y-75995905D01*
X169999500Y-76004524D01*
X169999500Y-77311772D01*
X169980593Y-77369963D01*
X169931093Y-77405927D01*
X169869907Y-77405927D01*
X169820407Y-77369963D01*
X169805763Y-77340511D01*
X169799378Y-77319465D01*
X169667784Y-77001767D01*
X169667768Y-77001733D01*
X169505673Y-76698472D01*
X169314614Y-76412534D01*
X169314609Y-76412528D01*
X169148763Y-76210446D01*
X167796631Y-77562577D01*
X167720412Y-77457670D01*
X167542330Y-77279588D01*
X167437420Y-77203366D01*
X168789552Y-75851235D01*
X168789553Y-75851235D01*
X168587471Y-75685390D01*
X168587465Y-75685385D01*
X168301527Y-75494326D01*
X167998266Y-75332231D01*
X167998232Y-75332215D01*
X167680534Y-75200621D01*
X167659489Y-75194237D01*
X167609293Y-75159251D01*
X167589247Y-75101443D01*
X167607009Y-75042892D01*
X167655793Y-75005964D01*
X167688228Y-75000500D01*
X168995678Y-75000500D01*
X169004314Y-75000877D01*
G37*
%TD.AperFunction*%
%TD*%
M02*
