%TF.GenerationSoftware,KiCad,Pcbnew,10.0.5*%
%TF.CreationDate,2026-10-02T21:58:29-03:00*%
%TF.ProjectId,PQ_ADCS,50515f41-4443-4532-9e6b-696361645f70,2.0*%
%TF.SameCoordinates,Original*%
%TF.FileFunction,Copper,L3,Inr*%
%TF.FilePolarity,Positive*%
%FSLAX46Y46*%
G04 Gerber Fmt 4.6, Leading zero omitted, Abs format (unit mm)*
G04 Created by KiCad (PCBNEW 10.0.5) date 2026-10-02 21:58:29*
%MOMM*%
%LPD*%
G01*
G04 APERTURE LIST*
%TA.AperFunction,ComponentPad*%
%ADD10C,6.400000*%
%TD*%
%TA.AperFunction,ComponentPad*%
%ADD11R,1.700000X1.700000*%
%TD*%
%TA.AperFunction,ComponentPad*%
%ADD12O,1.700000X1.700000*%
%TD*%
%TA.AperFunction,ViaPad*%
%ADD13C,0.400000*%
%TD*%
%TA.AperFunction,Conductor*%
%ADD14C,0.200000*%
%TD*%
%TA.AperFunction,Conductor*%
%ADD15C,0.300000*%
%TD*%
G04 APERTURE END LIST*
D10*
%TO.N,GND*%
%TO.C,H4*%
X133500000Y-111500000D03*
%TD*%
D11*
%TO.N,SDA1*%
%TO.C,J1*%
X138570000Y-78509200D03*
D12*
%TO.N,SCL1*%
X141110000Y-78509200D03*
%TO.N,UART_RX*%
X143650000Y-78509200D03*
%TO.N,KILLSWITCH+*%
X146190000Y-78509200D03*
%TO.N,PFO*%
X148730000Y-78509200D03*
%TO.N,BATT-*%
X151270000Y-78509200D03*
%TO.N,SCL3*%
X153810000Y-78509200D03*
%TO.N,UART_TX*%
X156350000Y-78509200D03*
%TO.N,GND*%
X158890000Y-78509200D03*
%TO.N,3V3_PERM*%
X161430000Y-78509200D03*
%TD*%
D11*
%TO.N,STM32_PA15*%
%TO.C,J2*%
X166490800Y-83570000D03*
D12*
%TO.N,SWO*%
X166490800Y-86110000D03*
%TO.N,BATT_NTC*%
X166490800Y-88650000D03*
%TO.N,SOLAR_Y*%
X166490800Y-91190000D03*
%TO.N,SEL_PH2*%
X166490800Y-93730000D03*
%TO.N,SEL_PH1*%
X166490800Y-96270000D03*
%TO.N,GND*%
X166490800Y-98810000D03*
%TO.N,HEATER_PWR*%
X166490800Y-101350000D03*
%TO.N,BURNCOMMS*%
X166490800Y-103890000D03*
%TO.N,SOLAR_Z*%
X166490800Y-106430000D03*
%TD*%
D10*
%TO.N,GND*%
%TO.C,H1*%
X133500000Y-78500000D03*
%TD*%
D11*
%TO.N,GND*%
%TO.C,J3*%
X161430000Y-111490800D03*
D12*
%TO.N,STM32_PB0*%
X158890000Y-111490800D03*
%TO.N,ADCS_POWER*%
X156350000Y-111490800D03*
%TO.N,STM32_PA9*%
X153810000Y-111490800D03*
%TO.N,ADC_PH*%
X151270000Y-111490800D03*
%TO.N,P{slash}L_POWER*%
X148730000Y-111490800D03*
%TO.N,SEL_PH0*%
X146190000Y-111490800D03*
%TO.N,VCC_UMBILICAL*%
X143650000Y-111490800D03*
%TO.N,FAULT*%
X141110000Y-111490800D03*
%TO.N,CHRG*%
X138570000Y-111490800D03*
%TD*%
D11*
%TO.N,SOLAR_X*%
%TO.C,J4*%
X133509200Y-106430000D03*
D12*
%TO.N,CHRGOFF*%
X133509200Y-103890000D03*
%TO.N,CLPROG*%
X133509200Y-101350000D03*
%TO.N,SDA3*%
X133509200Y-98810000D03*
%TO.N,NRST*%
X133509200Y-96270000D03*
%TO.N,SWDIO*%
X133509200Y-93730000D03*
%TO.N,SWCLK*%
X133509200Y-91190000D03*
%TO.N,DAC_PL*%
X133509200Y-88650000D03*
%TO.N,ADC_PL*%
X133509200Y-86110000D03*
%TO.N,PH_PL*%
X133509200Y-83570000D03*
%TD*%
D10*
%TO.N,GND*%
%TO.C,H3*%
X166500000Y-111500000D03*
%TD*%
%TO.N,GND*%
%TO.C,H2*%
X166500000Y-78500000D03*
%TD*%
D11*
%TO.N,/+MAG-Y*%
%TO.C,J12*%
X148735800Y-95022000D03*
D12*
%TO.N,/+MAG+Y*%
X151275800Y-95022000D03*
%TD*%
D13*
%TO.N,GND*%
X163200000Y-102100000D03*
X138600000Y-81200000D03*
X134800000Y-84900000D03*
X135900000Y-97200000D03*
X141700000Y-95700000D03*
X153000000Y-81900000D03*
X147400000Y-98300000D03*
X134800000Y-95000000D03*
X147500000Y-106400000D03*
X153700000Y-94300000D03*
X145500000Y-100200000D03*
X146000000Y-82000000D03*
X144526000Y-102870000D03*
X160675000Y-90375000D03*
X161300000Y-106700000D03*
X149700000Y-98300000D03*
X153000000Y-108600000D03*
X162700000Y-81300000D03*
X134800000Y-89900000D03*
X139319000Y-103700000D03*
X154200000Y-91600000D03*
X154892888Y-102915069D03*
X145600000Y-88700000D03*
X162100000Y-109200000D03*
X157575000Y-101400000D03*
X154100000Y-89000000D03*
X136900000Y-89300000D03*
X141782800Y-100634800D03*
X158300000Y-89900000D03*
X163000000Y-98600000D03*
X163900000Y-104600000D03*
%TO.N,SCL3*%
X147750000Y-84200000D03*
X163800000Y-88400000D03*
X147200000Y-91200000D03*
X157300000Y-108800000D03*
X149900000Y-109100000D03*
X146500000Y-107684800D03*
X136900000Y-85900000D03*
X137600000Y-101200000D03*
X154506200Y-100900000D03*
X160500000Y-101700000D03*
X151200000Y-101384800D03*
%TO.N,3V3_PERM*%
X136900000Y-86800000D03*
X155500000Y-99900000D03*
X145750000Y-86650000D03*
X162600000Y-90470798D03*
X161397890Y-99317760D03*
X136900000Y-88470225D03*
X152000000Y-105800000D03*
X160700000Y-106100000D03*
X163900000Y-86875000D03*
X149000000Y-86800000D03*
X159400000Y-109100000D03*
X152600000Y-92900000D03*
X161400000Y-101700000D03*
X154150000Y-87850000D03*
X141900000Y-87000000D03*
X137700000Y-103100000D03*
X164675000Y-83625000D03*
X155700000Y-97000000D03*
%TO.N,SDA3*%
X148805800Y-106422000D03*
X157600000Y-100800000D03*
X157238909Y-108138909D03*
X146475000Y-91700000D03*
X137600000Y-102200000D03*
X136900000Y-87600000D03*
X154700000Y-102400000D03*
X146750000Y-84200000D03*
X163800000Y-87800000D03*
X161600000Y-100600000D03*
%TO.N,ADC_PH*%
X149450000Y-102250000D03*
X150700000Y-103300000D03*
%TO.N,SEL_PH0*%
X163800000Y-89022000D03*
%TO.N,/PHT1*%
X137600000Y-99200000D03*
%TO.N,/+MAG+X*%
X161200000Y-96400000D03*
X153700000Y-95200000D03*
%TO.N,/-MAG-X*%
X142400000Y-101650000D03*
X150750000Y-96850000D03*
%TO.N,SWO*%
X149805800Y-106422000D03*
%TO.N,SOLAR_Y*%
X146000000Y-82800000D03*
X156000000Y-106950000D03*
X156000000Y-108600000D03*
%TO.N,HEATER_PWR*%
X158250500Y-88900000D03*
X163000000Y-97600000D03*
%TO.N,BURNCOMMS*%
X155600000Y-95400000D03*
X142000000Y-98200000D03*
X160600000Y-105100000D03*
%TO.N,SOLAR_Z*%
X163400000Y-85300000D03*
X141750000Y-92800000D03*
%TO.N,/PHT3*%
X145400000Y-95800000D03*
%TO.N,/PHT5*%
X160000000Y-93850000D03*
%TO.N,/PHT2*%
X136900000Y-85000000D03*
X136000000Y-104600000D03*
X163900000Y-104000000D03*
%TO.N,SOLAR_X*%
X158250000Y-96327818D03*
X142270941Y-107142433D03*
X143550000Y-106253491D03*
X137650000Y-106200000D03*
%TO.N,NRST*%
X142000000Y-98900000D03*
%TO.N,SWDIO*%
X144000000Y-105850000D03*
%TO.N,SWCLK*%
X145000000Y-105850000D03*
%TO.N,PH_PL*%
X152882600Y-83515200D03*
X154282200Y-83517800D03*
X149750000Y-84200000D03*
%TO.N,/PHT4*%
X141700000Y-82900000D03*
%TO.N,/+MAG+Z*%
X163900000Y-103400000D03*
X162100000Y-108075000D03*
X161100000Y-109425000D03*
X138850000Y-92600000D03*
%TO.N,/-MAG-Z*%
X162000000Y-102900000D03*
X162700000Y-86150000D03*
X163825000Y-101150000D03*
X162000000Y-101225000D03*
%TO.N,/+MAG+Y*%
X153025000Y-95800000D03*
X159775000Y-96476198D03*
%TO.N,/-MAG-Y*%
X153325000Y-106450000D03*
X158250000Y-97105636D03*
%TO.N,/+MAG-Y*%
X153800000Y-103400000D03*
X150650000Y-98175000D03*
%TO.N,/+MAG-Z*%
X142025000Y-89350000D03*
X162450000Y-85350000D03*
%TO.N,/+MAG-X*%
X158050000Y-98000000D03*
X136900000Y-105450000D03*
%TD*%
%TO.N,ADC_PH*%
D14*
X150500000Y-103300000D02*
X149450000Y-102250000D01*
X150700000Y-103300000D02*
X150500000Y-103300000D01*
%TO.N,/+MAG+X*%
X161200000Y-96400000D02*
X160900000Y-96100000D01*
X160900000Y-96100000D02*
X160550000Y-96100000D01*
X155000000Y-93900000D02*
X153700000Y-95200000D01*
X160550000Y-96100000D02*
X158350000Y-93900000D01*
X155350000Y-93900000D02*
X155000000Y-93900000D01*
X158350000Y-93900000D02*
X155350000Y-93900000D01*
%TO.N,/-MAG-X*%
X142400000Y-101650000D02*
X142400000Y-99937811D01*
X142641479Y-96850000D02*
X150750000Y-96850000D01*
X141499000Y-99036811D02*
X141499000Y-97992479D01*
X141499000Y-97992479D02*
X142641479Y-96850000D01*
X142400000Y-99937811D02*
X141499000Y-99036811D01*
%TO.N,SOLAR_Y*%
D15*
X156000000Y-106950000D02*
X156000000Y-108600000D01*
X165100000Y-85300000D02*
X165100000Y-89790000D01*
X162600000Y-82800000D02*
X165100000Y-85300000D01*
X165100000Y-89790000D02*
X166500000Y-91190000D01*
X146000000Y-82800000D02*
X162600000Y-82800000D01*
%TO.N,HEATER_PWR*%
X162700000Y-97300000D02*
X162700000Y-93300000D01*
X162700000Y-93300000D02*
X158300000Y-88900000D01*
X163000000Y-97600000D02*
X162700000Y-97300000D01*
X158300000Y-88900000D02*
X158250500Y-88900000D01*
%TO.N,BURNCOMMS*%
X142800000Y-98200000D02*
X142000000Y-98200000D01*
X159000000Y-96300000D02*
X159000000Y-103500000D01*
X155600000Y-95400000D02*
X156000000Y-95000000D01*
X155000000Y-95600000D02*
X155000000Y-98100000D01*
X155600000Y-95400000D02*
X155200000Y-95400000D01*
X155000000Y-98100000D02*
X154100000Y-99000000D01*
X154100000Y-99000000D02*
X143600000Y-99000000D01*
X155200000Y-95400000D02*
X155000000Y-95600000D01*
X143600000Y-99000000D02*
X142800000Y-98200000D01*
X157700000Y-95000000D02*
X159000000Y-96300000D01*
X156000000Y-95000000D02*
X157700000Y-95000000D01*
X159000000Y-103500000D02*
X160600000Y-105100000D01*
%TO.N,SOLAR_Z*%
X163400000Y-85300000D02*
X164450000Y-86350000D01*
X152500000Y-84300000D02*
X149200000Y-87600000D01*
X164450000Y-86350000D02*
X164450000Y-105522000D01*
X140400000Y-89150000D02*
X140400000Y-91450000D01*
X164450000Y-105522000D02*
X165358000Y-106430000D01*
X140400000Y-91450000D02*
X141750000Y-92800000D01*
X165358000Y-106430000D02*
X166490800Y-106430000D01*
X141950000Y-87600000D02*
X140400000Y-89150000D01*
X163400000Y-85300000D02*
X162400000Y-84300000D01*
X149200000Y-87600000D02*
X141950000Y-87600000D01*
X162400000Y-84300000D02*
X152500000Y-84300000D01*
%TO.N,SOLAR_X*%
X156550000Y-98027818D02*
X156550000Y-103050000D01*
X156550000Y-103050000D02*
X155100000Y-104500000D01*
X138800000Y-106200000D02*
X137650000Y-106200000D01*
X138800000Y-106200000D02*
X141328508Y-106200000D01*
X143100000Y-105575000D02*
X143100000Y-105803491D01*
X141328508Y-106200000D02*
X142270941Y-107142433D01*
X158250000Y-96327818D02*
X156550000Y-98027818D01*
X144175000Y-104500000D02*
X143100000Y-105575000D01*
X143100000Y-105803491D02*
X143550000Y-106253491D01*
X155100000Y-104500000D02*
X144175000Y-104500000D01*
%TO.N,PH_PL*%
D14*
X154222200Y-83517800D02*
X154282200Y-83517800D01*
%TO.N,/+MAG+Z*%
X163162189Y-103500000D02*
X162699000Y-103963189D01*
X162699000Y-107476000D02*
X162100000Y-108075000D01*
X135525000Y-96937189D02*
X135525000Y-95925000D01*
X160925000Y-109600000D02*
X137975000Y-109600000D01*
X135525000Y-97462811D02*
X135449000Y-97386811D01*
X135525000Y-95925000D02*
X138850000Y-92600000D01*
X135525000Y-107150000D02*
X135525000Y-97462811D01*
X163800000Y-103500000D02*
X163162189Y-103500000D01*
X160925000Y-109600000D02*
X161100000Y-109425000D01*
X135449000Y-97386811D02*
X135449000Y-97013189D01*
X163900000Y-103400000D02*
X163800000Y-103500000D01*
X135449000Y-97013189D02*
X135525000Y-96937189D01*
X137975000Y-109600000D02*
X135525000Y-107150000D01*
X162699000Y-103963189D02*
X162699000Y-107476000D01*
%TO.N,/-MAG-Z*%
X164000000Y-90825000D02*
X164000000Y-100248000D01*
X164000000Y-100248000D02*
X163999000Y-100249000D01*
X162000000Y-102900000D02*
X162000000Y-101225000D01*
X163274000Y-86724000D02*
X163274000Y-90099000D01*
X163825000Y-101150000D02*
X163999000Y-100976000D01*
X163999000Y-100976000D02*
X163999000Y-100249000D01*
X162700000Y-86150000D02*
X163274000Y-86724000D01*
X163274000Y-90099000D02*
X164000000Y-90825000D01*
%TO.N,/+MAG+Y*%
X154550000Y-92650000D02*
X153025000Y-94175000D01*
X160275000Y-92650000D02*
X154550000Y-92650000D01*
X153025000Y-94175000D02*
X153025000Y-95800000D01*
X159775000Y-96476198D02*
X160151198Y-96476198D01*
X160775000Y-97100000D02*
X161351000Y-97100000D01*
X161951000Y-96500000D02*
X161951000Y-94326000D01*
X161951000Y-94326000D02*
X160275000Y-92650000D01*
X161351000Y-97100000D02*
X161951000Y-96500000D01*
X160151198Y-96476198D02*
X160775000Y-97100000D01*
%TO.N,/-MAG-Y*%
X158501000Y-97356636D02*
X158250000Y-97105636D01*
X158501000Y-105068979D02*
X158501000Y-97356636D01*
X153325000Y-106450000D02*
X157119979Y-106450000D01*
X157119979Y-106450000D02*
X158501000Y-105068979D01*
%TO.N,/+MAG-Y*%
X150275000Y-96250000D02*
X152050000Y-96250000D01*
X152575000Y-97575000D02*
X152575000Y-97750000D01*
X152575000Y-97750000D02*
X152150000Y-98175000D01*
X149047000Y-95022000D02*
X150275000Y-96250000D01*
X152150000Y-98175000D02*
X150650000Y-98175000D01*
X152050000Y-96250000D02*
X152575000Y-96775000D01*
X152575000Y-96775000D02*
X152575000Y-97575000D01*
X148735800Y-95022000D02*
X149047000Y-95022000D01*
%TO.N,/+MAG-Z*%
X155650000Y-85350000D02*
X162450000Y-85350000D01*
X142025000Y-89350000D02*
X151650000Y-89350000D01*
X151650000Y-89350000D02*
X155650000Y-85350000D01*
%TO.N,/+MAG-X*%
X145050000Y-107050000D02*
X144150000Y-107950000D01*
X153151000Y-105549000D02*
X150850000Y-107850000D01*
X148250000Y-107850000D02*
X147450000Y-107050000D01*
X136500000Y-107250000D02*
X136500000Y-105850000D01*
X147450000Y-107050000D02*
X145050000Y-107050000D01*
X158050000Y-104050000D02*
X156551000Y-105549000D01*
X144150000Y-107950000D02*
X137200000Y-107950000D01*
X136500000Y-105850000D02*
X136900000Y-105450000D01*
X158050000Y-98000000D02*
X158050000Y-104050000D01*
X137200000Y-107950000D02*
X136500000Y-107250000D01*
X150850000Y-107850000D02*
X148250000Y-107850000D01*
X156551000Y-105549000D02*
X153151000Y-105549000D01*
%TD*%
%TA.AperFunction,Conductor*%
%TO.N,3V3_PERM*%
G36*
X160094482Y-96985875D02*
G01*
X160529087Y-97420480D01*
X160529089Y-97420481D01*
X160529093Y-97420484D01*
X160620408Y-97473205D01*
X160620409Y-97473205D01*
X160620412Y-97473207D01*
X160722273Y-97500500D01*
X160722275Y-97500500D01*
X161403725Y-97500500D01*
X161403727Y-97500500D01*
X161505588Y-97473207D01*
X161596913Y-97420480D01*
X161995143Y-97022249D01*
X162061936Y-96983687D01*
X162139064Y-96983687D01*
X162205859Y-97022251D01*
X162244423Y-97089046D01*
X162249500Y-97127610D01*
X162249500Y-97359309D01*
X162272572Y-97445414D01*
X162272572Y-97445415D01*
X162280199Y-97473883D01*
X162280201Y-97473887D01*
X162339508Y-97576610D01*
X162339509Y-97576611D01*
X162339511Y-97576614D01*
X162418693Y-97655796D01*
X162497150Y-97734253D01*
X162526725Y-97785461D01*
X162529869Y-97784159D01*
X162533609Y-97793189D01*
X162599495Y-97907307D01*
X162599498Y-97907311D01*
X162599500Y-97907314D01*
X162686829Y-97994643D01*
X162725392Y-98061436D01*
X162725392Y-98138564D01*
X162686829Y-98205356D01*
X162619448Y-98272738D01*
X162599498Y-98292688D01*
X162599497Y-98292689D01*
X162533609Y-98406812D01*
X162499500Y-98534106D01*
X162499500Y-98534108D01*
X162499500Y-98665892D01*
X162533608Y-98793186D01*
X162550718Y-98822821D01*
X162599497Y-98907310D01*
X162599498Y-98907311D01*
X162599500Y-98907314D01*
X162692686Y-99000500D01*
X162692688Y-99000501D01*
X162692689Y-99000502D01*
X162703622Y-99006814D01*
X162806814Y-99066392D01*
X162934108Y-99100500D01*
X163065892Y-99100500D01*
X163193186Y-99066392D01*
X163307314Y-99000500D01*
X163345143Y-98962670D01*
X163411936Y-98924108D01*
X163489064Y-98924108D01*
X163555859Y-98962672D01*
X163594423Y-99029467D01*
X163599500Y-99068031D01*
X163599500Y-100178910D01*
X163598500Y-100194169D01*
X163598500Y-100616817D01*
X163578538Y-100691317D01*
X163524003Y-100745853D01*
X163517683Y-100749501D01*
X163424502Y-100842683D01*
X163424497Y-100842689D01*
X163358609Y-100956812D01*
X163358608Y-100956814D01*
X163346902Y-101000502D01*
X163324500Y-101084106D01*
X163324500Y-101084108D01*
X163324500Y-101215892D01*
X163346902Y-101299500D01*
X163358609Y-101343189D01*
X163377553Y-101376001D01*
X163397515Y-101450501D01*
X163377552Y-101525001D01*
X163323014Y-101579538D01*
X163248515Y-101599500D01*
X163134108Y-101599500D01*
X163006814Y-101633608D01*
X163006812Y-101633608D01*
X163006812Y-101633609D01*
X162892689Y-101699497D01*
X162799497Y-101792689D01*
X162738585Y-101898193D01*
X162733608Y-101906814D01*
X162721234Y-101952994D01*
X162699500Y-102034106D01*
X162699500Y-102034108D01*
X162699500Y-102165892D01*
X162733608Y-102293186D01*
X162746718Y-102315893D01*
X162799497Y-102407310D01*
X162799498Y-102407311D01*
X162799500Y-102407314D01*
X162892686Y-102500500D01*
X163006814Y-102566392D01*
X163134108Y-102600500D01*
X163265892Y-102600500D01*
X163393186Y-102566392D01*
X163507314Y-102500500D01*
X163600500Y-102407314D01*
X163666392Y-102293186D01*
X163700500Y-102165892D01*
X163700500Y-102034108D01*
X163666392Y-101906814D01*
X163665504Y-101905276D01*
X163647447Y-101873999D01*
X163627485Y-101799499D01*
X163647448Y-101724999D01*
X163701986Y-101670462D01*
X163776485Y-101650500D01*
X163850500Y-101650500D01*
X163925000Y-101670462D01*
X163979538Y-101725000D01*
X163999500Y-101799500D01*
X163999500Y-102750500D01*
X163979538Y-102825000D01*
X163925000Y-102879538D01*
X163850500Y-102899500D01*
X163834108Y-102899500D01*
X163706814Y-102933608D01*
X163706812Y-102933608D01*
X163706812Y-102933609D01*
X163592689Y-102999497D01*
X163536326Y-103055860D01*
X163469531Y-103094423D01*
X163430968Y-103099500D01*
X163109459Y-103099500D01*
X163007597Y-103126794D01*
X162916282Y-103179515D01*
X162916278Y-103179518D01*
X162378518Y-103717278D01*
X162378515Y-103717282D01*
X162325793Y-103808598D01*
X162313471Y-103854588D01*
X162298500Y-103910458D01*
X162298500Y-107248388D01*
X162278538Y-107322888D01*
X162254859Y-107353747D01*
X162062336Y-107546269D01*
X161995543Y-107584833D01*
X161906810Y-107608609D01*
X161792689Y-107674497D01*
X161699497Y-107767689D01*
X161633609Y-107881812D01*
X161599500Y-108009106D01*
X161599500Y-108009108D01*
X161599500Y-108140892D01*
X161633608Y-108268186D01*
X161634933Y-108270481D01*
X161699497Y-108382310D01*
X161699498Y-108382311D01*
X161699500Y-108382314D01*
X161792686Y-108475500D01*
X161792688Y-108475501D01*
X161792689Y-108475502D01*
X161849777Y-108508462D01*
X161904315Y-108563000D01*
X161924277Y-108637500D01*
X161904315Y-108712000D01*
X161849777Y-108766538D01*
X161792689Y-108799497D01*
X161699497Y-108892689D01*
X161641395Y-108993326D01*
X161586857Y-109047864D01*
X161512357Y-109067826D01*
X161437857Y-109047864D01*
X161415090Y-109030394D01*
X161415055Y-109030441D01*
X161407310Y-109024497D01*
X161323310Y-108976000D01*
X161293186Y-108958608D01*
X161165892Y-108924500D01*
X161034108Y-108924500D01*
X160906814Y-108958608D01*
X160906812Y-108958608D01*
X160906812Y-108958609D01*
X160792689Y-109024497D01*
X160792683Y-109024502D01*
X160699502Y-109117682D01*
X160699500Y-109117686D01*
X160695277Y-109124999D01*
X160640742Y-109179536D01*
X160566243Y-109199500D01*
X157903928Y-109199500D01*
X157829428Y-109179538D01*
X157774890Y-109125000D01*
X157754928Y-109050500D01*
X157764422Y-109002767D01*
X157763864Y-109002618D01*
X157766145Y-108994102D01*
X157766269Y-108993483D01*
X157766390Y-108993190D01*
X157766390Y-108993188D01*
X157766392Y-108993186D01*
X157800500Y-108865892D01*
X157800500Y-108734108D01*
X157766392Y-108606814D01*
X157700500Y-108492686D01*
X157700499Y-108492685D01*
X157699554Y-108491048D01*
X157679592Y-108416548D01*
X157699553Y-108342049D01*
X157705301Y-108332095D01*
X157739409Y-108204801D01*
X157739409Y-108073017D01*
X157705301Y-107945723D01*
X157639409Y-107831595D01*
X157546223Y-107738409D01*
X157546220Y-107738407D01*
X157546219Y-107738406D01*
X157475423Y-107697532D01*
X157432095Y-107672517D01*
X157304801Y-107638409D01*
X157173017Y-107638409D01*
X157045723Y-107672517D01*
X157045721Y-107672517D01*
X157045721Y-107672518D01*
X156931598Y-107738406D01*
X156838406Y-107831598D01*
X156772518Y-107945721D01*
X156772517Y-107945723D01*
X156753624Y-108016233D01*
X156743423Y-108054304D01*
X156704858Y-108121098D01*
X156677723Y-108136763D01*
X156728538Y-108187578D01*
X156743423Y-108223514D01*
X156772517Y-108332095D01*
X156839354Y-108447860D01*
X156848948Y-108483667D01*
X156859283Y-108519246D01*
X156858899Y-108520806D01*
X156859316Y-108522360D01*
X156849723Y-108558161D01*
X156840883Y-108594147D01*
X156839357Y-108596854D01*
X156833609Y-108606809D01*
X156799500Y-108734106D01*
X156799500Y-108865893D01*
X156833609Y-108993190D01*
X156833731Y-108993483D01*
X156833772Y-108993796D01*
X156836136Y-109002618D01*
X156834974Y-109002929D01*
X156843797Y-109069951D01*
X156814280Y-109141208D01*
X156753089Y-109188159D01*
X156696072Y-109199500D01*
X156468031Y-109199500D01*
X156393531Y-109179538D01*
X156338993Y-109125000D01*
X156319031Y-109050500D01*
X156338993Y-108976000D01*
X156362668Y-108945145D01*
X156400500Y-108907314D01*
X156466392Y-108793186D01*
X156500500Y-108665892D01*
X156500500Y-108534108D01*
X156466392Y-108406814D01*
X156466390Y-108406811D01*
X156466390Y-108406809D01*
X156462654Y-108397789D01*
X156465798Y-108396486D01*
X156460799Y-108377822D01*
X156450533Y-108342477D01*
X156450916Y-108340917D01*
X156450500Y-108339363D01*
X156450500Y-108262078D01*
X156470462Y-108187578D01*
X156521276Y-108136763D01*
X156494141Y-108121097D01*
X156455577Y-108054302D01*
X156450500Y-108015739D01*
X156450500Y-107210636D01*
X156465804Y-107153517D01*
X156462653Y-107152212D01*
X156466386Y-107143195D01*
X156466392Y-107143186D01*
X156500500Y-107015892D01*
X156500500Y-106999500D01*
X156520462Y-106925000D01*
X156575000Y-106870462D01*
X156649500Y-106850500D01*
X157172704Y-106850500D01*
X157172706Y-106850500D01*
X157274567Y-106823207D01*
X157365892Y-106770480D01*
X157502266Y-106634106D01*
X160799500Y-106634106D01*
X160799500Y-106765893D01*
X160800730Y-106770484D01*
X160833608Y-106893186D01*
X160851976Y-106925000D01*
X160899497Y-107007310D01*
X160899498Y-107007311D01*
X160899500Y-107007314D01*
X160992686Y-107100500D01*
X161106814Y-107166392D01*
X161234108Y-107200500D01*
X161365892Y-107200500D01*
X161493186Y-107166392D01*
X161607314Y-107100500D01*
X161700500Y-107007314D01*
X161766392Y-106893186D01*
X161800500Y-106765892D01*
X161800500Y-106634108D01*
X161766392Y-106506814D01*
X161700500Y-106392686D01*
X161607314Y-106299500D01*
X161607311Y-106299498D01*
X161607310Y-106299497D01*
X161522445Y-106250501D01*
X161493186Y-106233608D01*
X161365892Y-106199500D01*
X161234108Y-106199500D01*
X161106814Y-106233608D01*
X161106812Y-106233608D01*
X161106812Y-106233609D01*
X160992689Y-106299497D01*
X160899497Y-106392689D01*
X160844532Y-106487893D01*
X160833608Y-106506814D01*
X160829930Y-106520542D01*
X160799500Y-106634106D01*
X157502266Y-106634106D01*
X158734645Y-105401724D01*
X158734650Y-105401721D01*
X158746911Y-105389459D01*
X158746913Y-105389459D01*
X158821480Y-105314892D01*
X158874207Y-105223566D01*
X158879426Y-105204088D01*
X158901501Y-105121706D01*
X158901501Y-105016252D01*
X158901501Y-105007124D01*
X158901500Y-105007106D01*
X158901500Y-104398321D01*
X158921462Y-104323821D01*
X158976000Y-104269283D01*
X159050500Y-104249321D01*
X159125000Y-104269283D01*
X159155859Y-104292962D01*
X160097150Y-105234253D01*
X160126723Y-105285465D01*
X160129870Y-105284162D01*
X160133607Y-105293184D01*
X160199497Y-105407310D01*
X160199498Y-105407311D01*
X160199500Y-105407314D01*
X160292686Y-105500500D01*
X160292688Y-105500501D01*
X160292689Y-105500502D01*
X160319344Y-105515891D01*
X160406814Y-105566392D01*
X160534108Y-105600500D01*
X160665892Y-105600500D01*
X160793186Y-105566392D01*
X160907314Y-105500500D01*
X161000500Y-105407314D01*
X161066392Y-105293186D01*
X161100500Y-105165892D01*
X161100500Y-105034108D01*
X161066392Y-104906814D01*
X161016360Y-104820157D01*
X161000502Y-104792689D01*
X161000501Y-104792688D01*
X161000500Y-104792686D01*
X160907314Y-104699500D01*
X160907311Y-104699498D01*
X160907310Y-104699497D01*
X160793184Y-104633607D01*
X160784162Y-104629870D01*
X160785465Y-104626723D01*
X160734253Y-104597150D01*
X159494141Y-103357037D01*
X159455577Y-103290242D01*
X159450500Y-103251678D01*
X159450500Y-101634106D01*
X159999500Y-101634106D01*
X159999500Y-101634108D01*
X159999500Y-101765892D01*
X160033608Y-101893186D01*
X160040588Y-101905276D01*
X160099497Y-102007310D01*
X160099498Y-102007311D01*
X160099500Y-102007314D01*
X160192686Y-102100500D01*
X160306814Y-102166392D01*
X160434108Y-102200500D01*
X160565892Y-102200500D01*
X160693186Y-102166392D01*
X160807314Y-102100500D01*
X160900500Y-102007314D01*
X160966392Y-101893186D01*
X161000500Y-101765892D01*
X161000500Y-101634108D01*
X160966392Y-101506814D01*
X160915222Y-101418186D01*
X160900502Y-101392689D01*
X160900501Y-101392688D01*
X160900500Y-101392686D01*
X160807314Y-101299500D01*
X160807311Y-101299498D01*
X160807310Y-101299497D01*
X160736514Y-101258623D01*
X160693186Y-101233608D01*
X160565892Y-101199500D01*
X160434108Y-101199500D01*
X160306814Y-101233608D01*
X160306812Y-101233608D01*
X160306812Y-101233609D01*
X160192689Y-101299497D01*
X160099497Y-101392689D01*
X160057234Y-101465892D01*
X160033608Y-101506814D01*
X160017778Y-101565890D01*
X159999500Y-101634106D01*
X159450500Y-101634106D01*
X159450500Y-100534106D01*
X161099500Y-100534106D01*
X161099500Y-100665893D01*
X161108505Y-100699500D01*
X161133608Y-100793186D01*
X161157233Y-100834106D01*
X161199497Y-100907310D01*
X161199498Y-100907311D01*
X161199500Y-100907314D01*
X161292686Y-101000500D01*
X161292688Y-101000501D01*
X161292689Y-101000502D01*
X161303622Y-101006814D01*
X161406814Y-101066392D01*
X161406816Y-101066392D01*
X161407514Y-101066682D01*
X161408113Y-101067142D01*
X161415272Y-101071275D01*
X161414728Y-101072217D01*
X161468706Y-101113632D01*
X161498224Y-101184888D01*
X161499500Y-101204342D01*
X161499500Y-101290893D01*
X161501806Y-101299500D01*
X161533608Y-101418186D01*
X161579538Y-101497739D01*
X161599500Y-101572237D01*
X161599500Y-102552761D01*
X161579538Y-102627261D01*
X161550929Y-102676814D01*
X161533608Y-102706814D01*
X161520467Y-102755859D01*
X161499500Y-102834106D01*
X161499500Y-102834108D01*
X161499500Y-102965892D01*
X161533608Y-103093186D01*
X161553011Y-103126793D01*
X161599497Y-103207310D01*
X161599498Y-103207311D01*
X161599500Y-103207314D01*
X161692686Y-103300500D01*
X161806814Y-103366392D01*
X161934108Y-103400500D01*
X162065892Y-103400500D01*
X162193186Y-103366392D01*
X162307314Y-103300500D01*
X162400500Y-103207314D01*
X162466392Y-103093186D01*
X162500500Y-102965892D01*
X162500500Y-102834108D01*
X162466392Y-102706814D01*
X162420462Y-102627261D01*
X162400500Y-102552761D01*
X162400500Y-101572238D01*
X162420461Y-101497739D01*
X162466392Y-101418186D01*
X162500500Y-101290892D01*
X162500500Y-101159108D01*
X162466392Y-101031814D01*
X162414601Y-100942110D01*
X162400502Y-100917689D01*
X162400501Y-100917688D01*
X162400500Y-100917686D01*
X162307314Y-100824500D01*
X162307311Y-100824498D01*
X162307310Y-100824497D01*
X162193178Y-100758603D01*
X162192474Y-100758312D01*
X162191869Y-100757848D01*
X162184728Y-100753725D01*
X162185270Y-100752784D01*
X162131286Y-100711357D01*
X162101774Y-100640099D01*
X162100500Y-100620657D01*
X162100500Y-100534108D01*
X162100499Y-100534106D01*
X162066392Y-100406814D01*
X162000500Y-100292686D01*
X161907314Y-100199500D01*
X161907311Y-100199498D01*
X161907310Y-100199497D01*
X161828935Y-100154248D01*
X161793186Y-100133608D01*
X161665892Y-100099500D01*
X161534108Y-100099500D01*
X161406814Y-100133608D01*
X161406812Y-100133608D01*
X161406812Y-100133609D01*
X161292689Y-100199497D01*
X161199497Y-100292689D01*
X161137832Y-100399497D01*
X161133608Y-100406814D01*
X161117778Y-100465890D01*
X161099500Y-100534106D01*
X159450500Y-100534106D01*
X159450500Y-97101584D01*
X159470462Y-97027084D01*
X159525000Y-96972546D01*
X159599500Y-96952584D01*
X159638062Y-96957661D01*
X159671310Y-96966570D01*
X159709102Y-96976697D01*
X159709108Y-96976698D01*
X159840892Y-96976698D01*
X159950563Y-96947312D01*
X160027687Y-96947312D01*
X160094482Y-96985875D01*
G37*
%TD.AperFunction*%
%TA.AperFunction,Conductor*%
G36*
X163899453Y-86436556D02*
G01*
X163955859Y-86492962D01*
X163994423Y-86559757D01*
X163999500Y-86598321D01*
X163999500Y-87150500D01*
X163979538Y-87225000D01*
X163925000Y-87279538D01*
X163850500Y-87299500D01*
X163823500Y-87299500D01*
X163749000Y-87279538D01*
X163694462Y-87225000D01*
X163674500Y-87150500D01*
X163674500Y-86788744D01*
X163674501Y-86788731D01*
X163674501Y-86671276D01*
X163674501Y-86671273D01*
X163650172Y-86580478D01*
X163650172Y-86503353D01*
X163688735Y-86436558D01*
X163755530Y-86397993D01*
X163832658Y-86397993D01*
X163899453Y-86436556D01*
G37*
%TD.AperFunction*%
%TA.AperFunction,Conductor*%
G36*
X135168183Y-75084651D02*
G01*
X136978078Y-75989598D01*
X136984299Y-75994082D01*
X136995419Y-75998688D01*
X136999834Y-76000703D01*
X137004675Y-76000875D01*
X137016688Y-76001728D01*
X137024261Y-76000500D01*
X162975739Y-76000500D01*
X162983311Y-76001728D01*
X162995325Y-76000875D01*
X163000127Y-76000704D01*
X163004357Y-75998767D01*
X163016234Y-75993808D01*
X163022307Y-75989405D01*
X163434023Y-75783547D01*
X164831820Y-75084649D01*
X164907379Y-75069188D01*
X164980549Y-75093578D01*
X165031722Y-75151285D01*
X165047184Y-75226847D01*
X165022794Y-75300017D01*
X164968690Y-75349326D01*
X164698215Y-75493898D01*
X164412245Y-75684977D01*
X164412240Y-75684980D01*
X164412240Y-75684981D01*
X164344905Y-75740241D01*
X164146373Y-75903172D01*
X163903172Y-76146373D01*
X163684977Y-76412245D01*
X163493898Y-76698214D01*
X163331769Y-77001537D01*
X163200150Y-77319292D01*
X163100311Y-77648417D01*
X163033212Y-77985742D01*
X163033209Y-77985760D01*
X163022696Y-78092502D01*
X162995528Y-78164687D01*
X162935907Y-78213616D01*
X162859809Y-78226179D01*
X162787624Y-78199011D01*
X162738695Y-78139390D01*
X162732706Y-78123940D01*
X162688506Y-77987907D01*
X162688504Y-77987903D01*
X162591464Y-77797451D01*
X162591464Y-77797450D01*
X162465829Y-77624529D01*
X162314670Y-77473370D01*
X162141748Y-77347735D01*
X161951296Y-77250695D01*
X161951292Y-77250693D01*
X161747994Y-77184638D01*
X161684000Y-77174502D01*
X161684000Y-78078497D01*
X161622993Y-78043275D01*
X161495826Y-78009200D01*
X161364174Y-78009200D01*
X161237007Y-78043275D01*
X161176000Y-78078497D01*
X161176000Y-77174502D01*
X161112005Y-77184638D01*
X160908707Y-77250693D01*
X160908703Y-77250695D01*
X160718251Y-77347735D01*
X160718250Y-77347735D01*
X160545329Y-77473370D01*
X160394170Y-77624529D01*
X160268535Y-77797450D01*
X160268535Y-77797451D01*
X160176319Y-77978435D01*
X160124710Y-78035752D01*
X160051357Y-78059586D01*
X159975914Y-78043550D01*
X159918597Y-77991941D01*
X159910800Y-77978436D01*
X159873998Y-77906209D01*
X159873994Y-77906203D01*
X159794981Y-77797451D01*
X159767553Y-77759699D01*
X159639501Y-77631647D01*
X159492994Y-77525204D01*
X159331639Y-77442989D01*
X159159409Y-77387029D01*
X158980546Y-77358700D01*
X158799454Y-77358700D01*
X158620591Y-77387029D01*
X158448360Y-77442989D01*
X158287004Y-77525205D01*
X158287003Y-77525205D01*
X158140500Y-77631646D01*
X158140497Y-77631648D01*
X158012448Y-77759697D01*
X158012446Y-77759700D01*
X157906005Y-77906203D01*
X157906005Y-77906204D01*
X157823789Y-78067560D01*
X157767827Y-78239795D01*
X157767165Y-78243979D01*
X157735794Y-78314438D01*
X157673396Y-78359773D01*
X157596690Y-78367834D01*
X157526231Y-78336463D01*
X157480896Y-78274065D01*
X157472835Y-78243979D01*
X157472172Y-78239795D01*
X157472171Y-78239791D01*
X157416211Y-78067561D01*
X157333996Y-77906206D01*
X157227553Y-77759699D01*
X157099501Y-77631647D01*
X156952994Y-77525204D01*
X156791639Y-77442989D01*
X156619409Y-77387029D01*
X156440546Y-77358700D01*
X156259454Y-77358700D01*
X156080591Y-77387029D01*
X155908360Y-77442989D01*
X155747004Y-77525205D01*
X155747003Y-77525205D01*
X155600500Y-77631646D01*
X155600497Y-77631648D01*
X155472448Y-77759697D01*
X155472446Y-77759700D01*
X155366005Y-77906203D01*
X155366005Y-77906204D01*
X155283789Y-78067560D01*
X155227827Y-78239795D01*
X155227165Y-78243979D01*
X155195794Y-78314438D01*
X155133396Y-78359773D01*
X155056690Y-78367834D01*
X154986231Y-78336463D01*
X154940896Y-78274065D01*
X154932835Y-78243979D01*
X154932172Y-78239795D01*
X154932171Y-78239791D01*
X154876211Y-78067561D01*
X154793996Y-77906206D01*
X154687553Y-77759699D01*
X154559501Y-77631647D01*
X154412994Y-77525204D01*
X154251639Y-77442989D01*
X154079409Y-77387029D01*
X153900546Y-77358700D01*
X153719454Y-77358700D01*
X153540591Y-77387029D01*
X153368360Y-77442989D01*
X153207004Y-77525205D01*
X153207003Y-77525205D01*
X153060500Y-77631646D01*
X153060497Y-77631648D01*
X152932448Y-77759697D01*
X152932446Y-77759700D01*
X152826005Y-77906203D01*
X152826005Y-77906204D01*
X152743789Y-78067560D01*
X152687827Y-78239795D01*
X152687165Y-78243979D01*
X152655794Y-78314438D01*
X152593396Y-78359773D01*
X152516690Y-78367834D01*
X152446231Y-78336463D01*
X152400896Y-78274065D01*
X152392835Y-78243979D01*
X152392172Y-78239795D01*
X152392171Y-78239791D01*
X152336211Y-78067561D01*
X152253996Y-77906206D01*
X152147553Y-77759699D01*
X152019501Y-77631647D01*
X151872994Y-77525204D01*
X151711639Y-77442989D01*
X151539409Y-77387029D01*
X151360546Y-77358700D01*
X151179454Y-77358700D01*
X151000591Y-77387029D01*
X150828360Y-77442989D01*
X150667004Y-77525205D01*
X150667003Y-77525205D01*
X150520500Y-77631646D01*
X150520497Y-77631648D01*
X150392448Y-77759697D01*
X150392446Y-77759700D01*
X150286005Y-77906203D01*
X150286005Y-77906204D01*
X150203789Y-78067560D01*
X150147827Y-78239795D01*
X150147165Y-78243979D01*
X150115794Y-78314438D01*
X150053396Y-78359773D01*
X149976690Y-78367834D01*
X149906231Y-78336463D01*
X149860896Y-78274065D01*
X149852835Y-78243979D01*
X149852172Y-78239795D01*
X149852171Y-78239791D01*
X149796211Y-78067561D01*
X149713996Y-77906206D01*
X149607553Y-77759699D01*
X149479501Y-77631647D01*
X149332994Y-77525204D01*
X149171639Y-77442989D01*
X148999409Y-77387029D01*
X148820546Y-77358700D01*
X148639454Y-77358700D01*
X148460591Y-77387029D01*
X148288360Y-77442989D01*
X148127004Y-77525205D01*
X148127003Y-77525205D01*
X147980500Y-77631646D01*
X147980497Y-77631648D01*
X147852448Y-77759697D01*
X147852446Y-77759700D01*
X147746005Y-77906203D01*
X147746005Y-77906204D01*
X147663789Y-78067560D01*
X147607827Y-78239795D01*
X147607165Y-78243979D01*
X147575794Y-78314438D01*
X147513396Y-78359773D01*
X147436690Y-78367834D01*
X147366231Y-78336463D01*
X147320896Y-78274065D01*
X147312835Y-78243979D01*
X147312172Y-78239795D01*
X147312171Y-78239791D01*
X147256211Y-78067561D01*
X147173996Y-77906206D01*
X147067553Y-77759699D01*
X146939501Y-77631647D01*
X146792994Y-77525204D01*
X146631639Y-77442989D01*
X146459409Y-77387029D01*
X146280546Y-77358700D01*
X146099454Y-77358700D01*
X145920591Y-77387029D01*
X145748360Y-77442989D01*
X145587004Y-77525205D01*
X145587003Y-77525205D01*
X145440500Y-77631646D01*
X145440497Y-77631648D01*
X145312448Y-77759697D01*
X145312446Y-77759700D01*
X145206005Y-77906203D01*
X145206005Y-77906204D01*
X145123789Y-78067560D01*
X145067827Y-78239795D01*
X145067165Y-78243979D01*
X145035794Y-78314438D01*
X144973396Y-78359773D01*
X144896690Y-78367834D01*
X144826231Y-78336463D01*
X144780896Y-78274065D01*
X144772835Y-78243979D01*
X144772172Y-78239795D01*
X144772171Y-78239791D01*
X144716211Y-78067561D01*
X144633996Y-77906206D01*
X144527553Y-77759699D01*
X144399501Y-77631647D01*
X144252994Y-77525204D01*
X144091639Y-77442989D01*
X143919409Y-77387029D01*
X143740546Y-77358700D01*
X143559454Y-77358700D01*
X143380591Y-77387029D01*
X143208360Y-77442989D01*
X143047004Y-77525205D01*
X143047003Y-77525205D01*
X142900500Y-77631646D01*
X142900497Y-77631648D01*
X142772448Y-77759697D01*
X142772446Y-77759700D01*
X142666005Y-77906203D01*
X142666005Y-77906204D01*
X142583789Y-78067560D01*
X142527827Y-78239795D01*
X142527165Y-78243979D01*
X142495794Y-78314438D01*
X142433396Y-78359773D01*
X142356690Y-78367834D01*
X142286231Y-78336463D01*
X142240896Y-78274065D01*
X142232835Y-78243979D01*
X142232172Y-78239795D01*
X142232171Y-78239791D01*
X142176211Y-78067561D01*
X142093996Y-77906206D01*
X141987553Y-77759699D01*
X141859501Y-77631647D01*
X141712994Y-77525204D01*
X141551639Y-77442989D01*
X141379409Y-77387029D01*
X141200546Y-77358700D01*
X141019454Y-77358700D01*
X140840591Y-77387029D01*
X140668360Y-77442989D01*
X140507004Y-77525205D01*
X140507003Y-77525205D01*
X140360500Y-77631646D01*
X140360497Y-77631648D01*
X140232448Y-77759697D01*
X140232446Y-77759700D01*
X140126005Y-77906203D01*
X140126005Y-77906204D01*
X140043787Y-78067563D01*
X140043785Y-78067568D01*
X140011206Y-78167838D01*
X139969200Y-78232523D01*
X139900478Y-78267539D01*
X139823456Y-78263502D01*
X139758771Y-78221496D01*
X139723755Y-78152774D01*
X139720499Y-78121795D01*
X139720499Y-77614333D01*
X139717585Y-77589210D01*
X139717584Y-77589208D01*
X139672206Y-77486435D01*
X139592765Y-77406994D01*
X139592764Y-77406993D01*
X139489994Y-77361616D01*
X139489991Y-77361615D01*
X139489982Y-77361614D01*
X139464865Y-77358700D01*
X139464859Y-77358700D01*
X137675133Y-77358700D01*
X137650010Y-77361614D01*
X137650007Y-77361615D01*
X137547235Y-77406993D01*
X137467793Y-77486435D01*
X137422416Y-77589205D01*
X137422415Y-77589208D01*
X137422415Y-77589209D01*
X137419500Y-77614335D01*
X137419500Y-77614336D01*
X137419500Y-77614340D01*
X137419500Y-79404066D01*
X137422414Y-79429189D01*
X137422415Y-79429192D01*
X137467793Y-79531964D01*
X137467794Y-79531965D01*
X137547235Y-79611406D01*
X137650009Y-79656785D01*
X137675135Y-79659700D01*
X139464864Y-79659699D01*
X139464866Y-79659699D01*
X139477427Y-79658242D01*
X139489991Y-79656785D01*
X139592765Y-79611406D01*
X139672206Y-79531965D01*
X139717585Y-79429191D01*
X139720500Y-79404065D01*
X139720499Y-78896602D01*
X139740461Y-78822105D01*
X139794999Y-78767567D01*
X139869499Y-78747605D01*
X139943999Y-78767567D01*
X139998537Y-78822105D01*
X140011206Y-78850562D01*
X140043785Y-78950831D01*
X140043787Y-78950836D01*
X140076099Y-79014250D01*
X140126004Y-79112194D01*
X140232447Y-79258701D01*
X140360499Y-79386753D01*
X140507006Y-79493196D01*
X140668361Y-79575411D01*
X140840591Y-79631371D01*
X141019454Y-79659700D01*
X141019458Y-79659700D01*
X141200542Y-79659700D01*
X141200546Y-79659700D01*
X141379409Y-79631371D01*
X141551639Y-79575411D01*
X141712994Y-79493196D01*
X141859501Y-79386753D01*
X141987553Y-79258701D01*
X142093996Y-79112194D01*
X142176211Y-78950839D01*
X142232171Y-78778609D01*
X142232834Y-78774423D01*
X142264204Y-78703962D01*
X142326602Y-78658627D01*
X142403307Y-78650564D01*
X142473768Y-78681934D01*
X142519103Y-78744332D01*
X142527166Y-78774423D01*
X142527828Y-78778608D01*
X142568974Y-78905243D01*
X142583789Y-78950839D01*
X142666004Y-79112194D01*
X142772447Y-79258701D01*
X142900499Y-79386753D01*
X143047006Y-79493196D01*
X143208361Y-79575411D01*
X143380591Y-79631371D01*
X143559454Y-79659700D01*
X143559458Y-79659700D01*
X143740542Y-79659700D01*
X143740546Y-79659700D01*
X143919409Y-79631371D01*
X144091639Y-79575411D01*
X144252994Y-79493196D01*
X144399501Y-79386753D01*
X144527553Y-79258701D01*
X144633996Y-79112194D01*
X144716211Y-78950839D01*
X144772171Y-78778609D01*
X144772834Y-78774423D01*
X144804204Y-78703962D01*
X144866602Y-78658627D01*
X144943307Y-78650564D01*
X145013768Y-78681934D01*
X145059103Y-78744332D01*
X145067166Y-78774423D01*
X145067828Y-78778608D01*
X145108974Y-78905243D01*
X145123789Y-78950839D01*
X145206004Y-79112194D01*
X145312447Y-79258701D01*
X145440499Y-79386753D01*
X145587006Y-79493196D01*
X145748361Y-79575411D01*
X145920591Y-79631371D01*
X146099454Y-79659700D01*
X146099458Y-79659700D01*
X146280542Y-79659700D01*
X146280546Y-79659700D01*
X146459409Y-79631371D01*
X146631639Y-79575411D01*
X146792994Y-79493196D01*
X146939501Y-79386753D01*
X147067553Y-79258701D01*
X147173996Y-79112194D01*
X147256211Y-78950839D01*
X147312171Y-78778609D01*
X147312834Y-78774423D01*
X147344204Y-78703962D01*
X147406602Y-78658627D01*
X147483307Y-78650564D01*
X147553768Y-78681934D01*
X147599103Y-78744332D01*
X147607166Y-78774423D01*
X147607828Y-78778608D01*
X147648974Y-78905243D01*
X147663789Y-78950839D01*
X147746004Y-79112194D01*
X147852447Y-79258701D01*
X147980499Y-79386753D01*
X148127006Y-79493196D01*
X148288361Y-79575411D01*
X148460591Y-79631371D01*
X148639454Y-79659700D01*
X148639458Y-79659700D01*
X148820542Y-79659700D01*
X148820546Y-79659700D01*
X148999409Y-79631371D01*
X149171639Y-79575411D01*
X149332994Y-79493196D01*
X149479501Y-79386753D01*
X149607553Y-79258701D01*
X149713996Y-79112194D01*
X149796211Y-78950839D01*
X149852171Y-78778609D01*
X149852834Y-78774423D01*
X149884204Y-78703962D01*
X149946602Y-78658627D01*
X150023307Y-78650564D01*
X150093768Y-78681934D01*
X150139103Y-78744332D01*
X150147166Y-78774423D01*
X150147828Y-78778608D01*
X150188974Y-78905243D01*
X150203789Y-78950839D01*
X150286004Y-79112194D01*
X150392447Y-79258701D01*
X150520499Y-79386753D01*
X150667006Y-79493196D01*
X150828361Y-79575411D01*
X151000591Y-79631371D01*
X151179454Y-79659700D01*
X151179458Y-79659700D01*
X151360542Y-79659700D01*
X151360546Y-79659700D01*
X151539409Y-79631371D01*
X151711639Y-79575411D01*
X151872994Y-79493196D01*
X152019501Y-79386753D01*
X152147553Y-79258701D01*
X152253996Y-79112194D01*
X152336211Y-78950839D01*
X152392171Y-78778609D01*
X152392834Y-78774423D01*
X152424204Y-78703962D01*
X152486602Y-78658627D01*
X152563307Y-78650564D01*
X152633768Y-78681934D01*
X152679103Y-78744332D01*
X152687166Y-78774423D01*
X152687828Y-78778608D01*
X152728974Y-78905243D01*
X152743789Y-78950839D01*
X152826004Y-79112194D01*
X152932447Y-79258701D01*
X153060499Y-79386753D01*
X153207006Y-79493196D01*
X153368361Y-79575411D01*
X153540591Y-79631371D01*
X153719454Y-79659700D01*
X153719458Y-79659700D01*
X153900542Y-79659700D01*
X153900546Y-79659700D01*
X154079409Y-79631371D01*
X154251639Y-79575411D01*
X154412994Y-79493196D01*
X154559501Y-79386753D01*
X154687553Y-79258701D01*
X154793996Y-79112194D01*
X154876211Y-78950839D01*
X154932171Y-78778609D01*
X154932834Y-78774423D01*
X154964204Y-78703962D01*
X155026602Y-78658627D01*
X155103307Y-78650564D01*
X155173768Y-78681934D01*
X155219103Y-78744332D01*
X155227166Y-78774423D01*
X155227828Y-78778608D01*
X155268974Y-78905243D01*
X155283789Y-78950839D01*
X155366004Y-79112194D01*
X155472447Y-79258701D01*
X155600499Y-79386753D01*
X155747006Y-79493196D01*
X155908361Y-79575411D01*
X156080591Y-79631371D01*
X156259454Y-79659700D01*
X156259458Y-79659700D01*
X156440542Y-79659700D01*
X156440546Y-79659700D01*
X156619409Y-79631371D01*
X156791639Y-79575411D01*
X156952994Y-79493196D01*
X157099501Y-79386753D01*
X157227553Y-79258701D01*
X157333996Y-79112194D01*
X157416211Y-78950839D01*
X157472171Y-78778609D01*
X157472834Y-78774423D01*
X157504204Y-78703962D01*
X157566602Y-78658627D01*
X157643307Y-78650564D01*
X157713768Y-78681934D01*
X157759103Y-78744332D01*
X157767166Y-78774423D01*
X157767828Y-78778608D01*
X157808974Y-78905243D01*
X157823789Y-78950839D01*
X157906004Y-79112194D01*
X158012447Y-79258701D01*
X158140499Y-79386753D01*
X158287006Y-79493196D01*
X158448361Y-79575411D01*
X158620591Y-79631371D01*
X158799454Y-79659700D01*
X158799458Y-79659700D01*
X158980542Y-79659700D01*
X158980546Y-79659700D01*
X159159409Y-79631371D01*
X159331639Y-79575411D01*
X159492994Y-79493196D01*
X159639501Y-79386753D01*
X159767553Y-79258701D01*
X159873996Y-79112194D01*
X159910799Y-79039963D01*
X159962408Y-78982647D01*
X160035761Y-78958813D01*
X160111204Y-78974849D01*
X160168521Y-79026458D01*
X160176319Y-79039964D01*
X160268535Y-79220948D01*
X160268535Y-79220949D01*
X160394170Y-79393870D01*
X160545329Y-79545029D01*
X160718251Y-79670664D01*
X160908703Y-79767704D01*
X160908715Y-79767709D01*
X161111996Y-79833759D01*
X161111996Y-79833760D01*
X161176000Y-79843896D01*
X161176000Y-78939902D01*
X161237007Y-78975125D01*
X161364174Y-79009200D01*
X161495826Y-79009200D01*
X161622993Y-78975125D01*
X161684000Y-78939902D01*
X161684000Y-79843896D01*
X161748003Y-79833760D01*
X161748003Y-79833759D01*
X161951284Y-79767709D01*
X161951296Y-79767704D01*
X162141748Y-79670664D01*
X162141749Y-79670664D01*
X162314670Y-79545029D01*
X162465829Y-79393870D01*
X162591464Y-79220949D01*
X162591464Y-79220948D01*
X162688504Y-79030496D01*
X162688506Y-79030492D01*
X162734097Y-78890179D01*
X162776104Y-78825494D01*
X162844826Y-78790478D01*
X162921848Y-78794514D01*
X162986533Y-78836521D01*
X163021549Y-78905243D01*
X163024087Y-78921610D01*
X163032714Y-79009200D01*
X163033212Y-79014258D01*
X163100311Y-79351582D01*
X163200150Y-79680707D01*
X163331769Y-79998462D01*
X163493898Y-80301785D01*
X163493903Y-80301792D01*
X163684981Y-80587760D01*
X163903172Y-80853627D01*
X164146373Y-81096828D01*
X164412240Y-81315019D01*
X164529225Y-81393186D01*
X164698214Y-81506101D01*
X164849875Y-81587165D01*
X165001538Y-81668231D01*
X165226224Y-81761299D01*
X165319292Y-81799849D01*
X165319294Y-81799849D01*
X165319295Y-81799850D01*
X165648422Y-81899690D01*
X165985750Y-81966789D01*
X166328031Y-82000500D01*
X166328036Y-82000500D01*
X166671964Y-82000500D01*
X166671969Y-82000500D01*
X167014250Y-81966789D01*
X167351578Y-81899690D01*
X167680705Y-81799850D01*
X167998462Y-81668231D01*
X168301787Y-81506100D01*
X168587760Y-81315019D01*
X168853627Y-81096828D01*
X169096828Y-80853627D01*
X169315019Y-80587760D01*
X169506100Y-80301787D01*
X169650660Y-80031334D01*
X169703379Y-79975047D01*
X169777186Y-79952658D01*
X169852300Y-79970171D01*
X169908593Y-80022895D01*
X169930982Y-80096702D01*
X169915332Y-80168213D01*
X169010207Y-81978465D01*
X169005649Y-81984826D01*
X169001233Y-81995574D01*
X168999309Y-81999831D01*
X168999151Y-82004468D01*
X168998300Y-82016870D01*
X168999500Y-82024262D01*
X168999500Y-107975738D01*
X168998271Y-107983310D01*
X168999125Y-107995323D01*
X168999296Y-108000166D01*
X169001310Y-108004577D01*
X169005917Y-108015700D01*
X169010401Y-108021921D01*
X169915355Y-109831828D01*
X169930817Y-109907390D01*
X169906427Y-109980560D01*
X169848720Y-110031733D01*
X169773158Y-110047195D01*
X169699988Y-110022805D01*
X169650679Y-109968701D01*
X169506101Y-109698214D01*
X169378543Y-109507310D01*
X169315019Y-109412240D01*
X169096828Y-109146373D01*
X168853627Y-108903172D01*
X168587760Y-108684981D01*
X168516700Y-108637500D01*
X168301785Y-108493898D01*
X167998462Y-108331769D01*
X167680707Y-108200150D01*
X167351582Y-108100311D01*
X167351579Y-108100310D01*
X167351578Y-108100310D01*
X167236068Y-108077333D01*
X167014257Y-108033212D01*
X167014258Y-108033212D01*
X167014252Y-108033211D01*
X167014250Y-108033211D01*
X166671969Y-107999500D01*
X166328031Y-107999500D01*
X165985750Y-108033211D01*
X165985747Y-108033211D01*
X165985742Y-108033212D01*
X165648417Y-108100311D01*
X165319292Y-108200150D01*
X165001537Y-108331769D01*
X164698214Y-108493898D01*
X164412245Y-108684977D01*
X164412240Y-108684980D01*
X164412240Y-108684981D01*
X164146373Y-108903172D01*
X163903172Y-109146373D01*
X163805086Y-109265892D01*
X163684977Y-109412245D01*
X163493898Y-109698214D01*
X163331769Y-110001537D01*
X163200150Y-110319292D01*
X163100311Y-110648417D01*
X163033212Y-110985742D01*
X163033211Y-110985747D01*
X163033211Y-110985750D01*
X162999500Y-111328031D01*
X162999500Y-111671969D01*
X163033211Y-112014250D01*
X163033212Y-112014257D01*
X163100311Y-112351582D01*
X163200150Y-112680707D01*
X163331769Y-112998462D01*
X163493898Y-113301785D01*
X163682400Y-113583898D01*
X163684981Y-113587760D01*
X163903172Y-113853627D01*
X164146373Y-114096828D01*
X164412240Y-114315019D01*
X164486523Y-114364653D01*
X164698214Y-114506101D01*
X164803501Y-114562378D01*
X164968688Y-114650672D01*
X165024980Y-114703395D01*
X165047369Y-114777202D01*
X165029855Y-114852315D01*
X164977131Y-114908608D01*
X164903324Y-114930997D01*
X164831814Y-114915347D01*
X163021921Y-114010401D01*
X163015700Y-114005917D01*
X163004577Y-114001310D01*
X163000166Y-113999296D01*
X162995325Y-113999125D01*
X162983311Y-113998271D01*
X162975739Y-113999500D01*
X137024261Y-113999500D01*
X137016688Y-113998271D01*
X137004675Y-113999125D01*
X136999791Y-113999298D01*
X136995205Y-114001384D01*
X136984827Y-114005648D01*
X136978465Y-114010207D01*
X135168186Y-114915347D01*
X135092624Y-114930809D01*
X135019454Y-114906419D01*
X134968281Y-114848712D01*
X134952819Y-114773150D01*
X134977209Y-114699980D01*
X135031311Y-114650672D01*
X135301787Y-114506100D01*
X135587760Y-114315019D01*
X135853627Y-114096828D01*
X136096828Y-113853627D01*
X136315019Y-113587760D01*
X136506100Y-113301787D01*
X136668231Y-112998462D01*
X136799850Y-112680705D01*
X136899690Y-112351578D01*
X136966789Y-112014250D01*
X137000500Y-111671969D01*
X137000500Y-111400254D01*
X137419500Y-111400254D01*
X137419500Y-111581346D01*
X137447829Y-111760209D01*
X137503789Y-111932439D01*
X137586004Y-112093794D01*
X137692447Y-112240301D01*
X137820499Y-112368353D01*
X137967006Y-112474796D01*
X138128361Y-112557011D01*
X138300591Y-112612971D01*
X138479454Y-112641300D01*
X138479458Y-112641300D01*
X138660542Y-112641300D01*
X138660546Y-112641300D01*
X138839409Y-112612971D01*
X139011639Y-112557011D01*
X139172994Y-112474796D01*
X139319501Y-112368353D01*
X139447553Y-112240301D01*
X139553996Y-112093794D01*
X139636211Y-111932439D01*
X139692171Y-111760209D01*
X139692834Y-111756023D01*
X139724204Y-111685562D01*
X139786602Y-111640227D01*
X139863307Y-111632164D01*
X139933768Y-111663534D01*
X139979103Y-111725932D01*
X139987166Y-111756023D01*
X139987828Y-111760208D01*
X140016101Y-111847223D01*
X140043789Y-111932439D01*
X140126004Y-112093794D01*
X140232447Y-112240301D01*
X140360499Y-112368353D01*
X140507006Y-112474796D01*
X140668361Y-112557011D01*
X140840591Y-112612971D01*
X141019454Y-112641300D01*
X141019458Y-112641300D01*
X141200542Y-112641300D01*
X141200546Y-112641300D01*
X141379409Y-112612971D01*
X141551639Y-112557011D01*
X141712994Y-112474796D01*
X141859501Y-112368353D01*
X141987553Y-112240301D01*
X142093996Y-112093794D01*
X142176211Y-111932439D01*
X142232171Y-111760209D01*
X142232834Y-111756023D01*
X142264204Y-111685562D01*
X142326602Y-111640227D01*
X142403307Y-111632164D01*
X142473768Y-111663534D01*
X142519103Y-111725932D01*
X142527166Y-111756023D01*
X142527828Y-111760208D01*
X142556101Y-111847223D01*
X142583789Y-111932439D01*
X142666004Y-112093794D01*
X142772447Y-112240301D01*
X142900499Y-112368353D01*
X143047006Y-112474796D01*
X143208361Y-112557011D01*
X143380591Y-112612971D01*
X143559454Y-112641300D01*
X143559458Y-112641300D01*
X143740542Y-112641300D01*
X143740546Y-112641300D01*
X143919409Y-112612971D01*
X144091639Y-112557011D01*
X144252994Y-112474796D01*
X144399501Y-112368353D01*
X144527553Y-112240301D01*
X144633996Y-112093794D01*
X144716211Y-111932439D01*
X144772171Y-111760209D01*
X144772834Y-111756023D01*
X144804204Y-111685562D01*
X144866602Y-111640227D01*
X144943307Y-111632164D01*
X145013768Y-111663534D01*
X145059103Y-111725932D01*
X145067166Y-111756023D01*
X145067828Y-111760208D01*
X145096101Y-111847223D01*
X145123789Y-111932439D01*
X145206004Y-112093794D01*
X145312447Y-112240301D01*
X145440499Y-112368353D01*
X145587006Y-112474796D01*
X145748361Y-112557011D01*
X145920591Y-112612971D01*
X146099454Y-112641300D01*
X146099458Y-112641300D01*
X146280542Y-112641300D01*
X146280546Y-112641300D01*
X146459409Y-112612971D01*
X146631639Y-112557011D01*
X146792994Y-112474796D01*
X146939501Y-112368353D01*
X147067553Y-112240301D01*
X147173996Y-112093794D01*
X147256211Y-111932439D01*
X147312171Y-111760209D01*
X147312834Y-111756023D01*
X147344204Y-111685562D01*
X147406602Y-111640227D01*
X147483307Y-111632164D01*
X147553768Y-111663534D01*
X147599103Y-111725932D01*
X147607166Y-111756023D01*
X147607828Y-111760208D01*
X147636101Y-111847223D01*
X147663789Y-111932439D01*
X147746004Y-112093794D01*
X147852447Y-112240301D01*
X147980499Y-112368353D01*
X148127006Y-112474796D01*
X148288361Y-112557011D01*
X148460591Y-112612971D01*
X148639454Y-112641300D01*
X148639458Y-112641300D01*
X148820542Y-112641300D01*
X148820546Y-112641300D01*
X148999409Y-112612971D01*
X149171639Y-112557011D01*
X149332994Y-112474796D01*
X149479501Y-112368353D01*
X149607553Y-112240301D01*
X149713996Y-112093794D01*
X149796211Y-111932439D01*
X149852171Y-111760209D01*
X149852834Y-111756023D01*
X149884204Y-111685562D01*
X149946602Y-111640227D01*
X150023307Y-111632164D01*
X150093768Y-111663534D01*
X150139103Y-111725932D01*
X150147166Y-111756023D01*
X150147828Y-111760208D01*
X150176101Y-111847223D01*
X150203789Y-111932439D01*
X150286004Y-112093794D01*
X150392447Y-112240301D01*
X150520499Y-112368353D01*
X150667006Y-112474796D01*
X150828361Y-112557011D01*
X151000591Y-112612971D01*
X151179454Y-112641300D01*
X151179458Y-112641300D01*
X151360542Y-112641300D01*
X151360546Y-112641300D01*
X151539409Y-112612971D01*
X151711639Y-112557011D01*
X151872994Y-112474796D01*
X152019501Y-112368353D01*
X152147553Y-112240301D01*
X152253996Y-112093794D01*
X152336211Y-111932439D01*
X152392171Y-111760209D01*
X152392834Y-111756023D01*
X152424204Y-111685562D01*
X152486602Y-111640227D01*
X152563307Y-111632164D01*
X152633768Y-111663534D01*
X152679103Y-111725932D01*
X152687166Y-111756023D01*
X152687828Y-111760208D01*
X152716101Y-111847223D01*
X152743789Y-111932439D01*
X152826004Y-112093794D01*
X152932447Y-112240301D01*
X153060499Y-112368353D01*
X153207006Y-112474796D01*
X153368361Y-112557011D01*
X153540591Y-112612971D01*
X153719454Y-112641300D01*
X153719458Y-112641300D01*
X153900542Y-112641300D01*
X153900546Y-112641300D01*
X154079409Y-112612971D01*
X154251639Y-112557011D01*
X154412994Y-112474796D01*
X154559501Y-112368353D01*
X154687553Y-112240301D01*
X154793996Y-112093794D01*
X154876211Y-111932439D01*
X154932171Y-111760209D01*
X154932834Y-111756023D01*
X154964204Y-111685562D01*
X155026602Y-111640227D01*
X155103307Y-111632164D01*
X155173768Y-111663534D01*
X155219103Y-111725932D01*
X155227166Y-111756023D01*
X155227828Y-111760208D01*
X155256101Y-111847223D01*
X155283789Y-111932439D01*
X155366004Y-112093794D01*
X155472447Y-112240301D01*
X155600499Y-112368353D01*
X155747006Y-112474796D01*
X155908361Y-112557011D01*
X156080591Y-112612971D01*
X156259454Y-112641300D01*
X156259458Y-112641300D01*
X156440542Y-112641300D01*
X156440546Y-112641300D01*
X156619409Y-112612971D01*
X156791639Y-112557011D01*
X156952994Y-112474796D01*
X157099501Y-112368353D01*
X157227553Y-112240301D01*
X157333996Y-112093794D01*
X157416211Y-111932439D01*
X157472171Y-111760209D01*
X157472834Y-111756023D01*
X157504204Y-111685562D01*
X157566602Y-111640227D01*
X157643307Y-111632164D01*
X157713768Y-111663534D01*
X157759103Y-111725932D01*
X157767166Y-111756023D01*
X157767828Y-111760208D01*
X157796101Y-111847223D01*
X157823789Y-111932439D01*
X157906004Y-112093794D01*
X158012447Y-112240301D01*
X158140499Y-112368353D01*
X158287006Y-112474796D01*
X158448361Y-112557011D01*
X158620591Y-112612971D01*
X158799454Y-112641300D01*
X158799458Y-112641300D01*
X158980542Y-112641300D01*
X158980546Y-112641300D01*
X159159409Y-112612971D01*
X159331639Y-112557011D01*
X159492994Y-112474796D01*
X159639501Y-112368353D01*
X159767553Y-112240301D01*
X159873996Y-112093794D01*
X159956211Y-111932439D01*
X159988792Y-111832160D01*
X160030798Y-111767477D01*
X160099519Y-111732460D01*
X160176542Y-111736496D01*
X160241227Y-111778502D01*
X160276244Y-111847223D01*
X160279500Y-111878204D01*
X160279500Y-112385666D01*
X160282414Y-112410789D01*
X160282415Y-112410792D01*
X160327793Y-112513564D01*
X160327794Y-112513565D01*
X160407235Y-112593006D01*
X160510009Y-112638385D01*
X160535135Y-112641300D01*
X162324864Y-112641299D01*
X162324866Y-112641299D01*
X162337427Y-112639842D01*
X162349991Y-112638385D01*
X162452765Y-112593006D01*
X162532206Y-112513565D01*
X162577585Y-112410791D01*
X162580500Y-112385665D01*
X162580499Y-110595936D01*
X162577585Y-110570809D01*
X162532206Y-110468035D01*
X162452765Y-110388594D01*
X162452764Y-110388593D01*
X162349994Y-110343216D01*
X162349991Y-110343215D01*
X162349982Y-110343214D01*
X162324865Y-110340300D01*
X162324859Y-110340300D01*
X160535133Y-110340300D01*
X160510010Y-110343214D01*
X160510007Y-110343215D01*
X160407235Y-110388593D01*
X160327793Y-110468035D01*
X160282416Y-110570805D01*
X160282415Y-110570808D01*
X160282415Y-110570809D01*
X160279500Y-110595935D01*
X160279500Y-110595936D01*
X160279500Y-110595940D01*
X160279500Y-111103394D01*
X160259538Y-111177894D01*
X160205000Y-111232432D01*
X160130500Y-111252394D01*
X160056000Y-111232432D01*
X160001462Y-111177894D01*
X159988792Y-111149437D01*
X159973832Y-111103394D01*
X159956211Y-111049161D01*
X159873996Y-110887806D01*
X159767553Y-110741299D01*
X159639501Y-110613247D01*
X159492994Y-110506804D01*
X159331639Y-110424589D01*
X159159409Y-110368629D01*
X158980546Y-110340300D01*
X158799454Y-110340300D01*
X158620591Y-110368629D01*
X158448360Y-110424589D01*
X158287004Y-110506805D01*
X158287003Y-110506805D01*
X158140500Y-110613246D01*
X158140497Y-110613248D01*
X158012448Y-110741297D01*
X158012446Y-110741300D01*
X157906005Y-110887803D01*
X157906005Y-110887804D01*
X157823789Y-111049160D01*
X157767827Y-111221395D01*
X157767165Y-111225579D01*
X157735794Y-111296038D01*
X157673396Y-111341373D01*
X157596690Y-111349434D01*
X157526231Y-111318063D01*
X157480896Y-111255665D01*
X157472835Y-111225579D01*
X157472172Y-111221395D01*
X157433832Y-111103394D01*
X157416211Y-111049161D01*
X157333996Y-110887806D01*
X157227553Y-110741299D01*
X157099501Y-110613247D01*
X156952994Y-110506804D01*
X156791639Y-110424589D01*
X156619409Y-110368629D01*
X156440546Y-110340300D01*
X156259454Y-110340300D01*
X156080591Y-110368629D01*
X155908360Y-110424589D01*
X155747004Y-110506805D01*
X155747003Y-110506805D01*
X155600500Y-110613246D01*
X155600497Y-110613248D01*
X155472448Y-110741297D01*
X155472446Y-110741300D01*
X155366005Y-110887803D01*
X155366005Y-110887804D01*
X155283789Y-111049160D01*
X155227827Y-111221395D01*
X155227165Y-111225579D01*
X155195794Y-111296038D01*
X155133396Y-111341373D01*
X155056690Y-111349434D01*
X154986231Y-111318063D01*
X154940896Y-111255665D01*
X154932835Y-111225579D01*
X154932172Y-111221395D01*
X154893832Y-111103394D01*
X154876211Y-111049161D01*
X154793996Y-110887806D01*
X154687553Y-110741299D01*
X154559501Y-110613247D01*
X154412994Y-110506804D01*
X154251639Y-110424589D01*
X154079409Y-110368629D01*
X153900546Y-110340300D01*
X153719454Y-110340300D01*
X153540591Y-110368629D01*
X153368360Y-110424589D01*
X153207004Y-110506805D01*
X153207003Y-110506805D01*
X153060500Y-110613246D01*
X153060497Y-110613248D01*
X152932448Y-110741297D01*
X152932446Y-110741300D01*
X152826005Y-110887803D01*
X152826005Y-110887804D01*
X152743789Y-111049160D01*
X152687827Y-111221395D01*
X152687165Y-111225579D01*
X152655794Y-111296038D01*
X152593396Y-111341373D01*
X152516690Y-111349434D01*
X152446231Y-111318063D01*
X152400896Y-111255665D01*
X152392835Y-111225579D01*
X152392172Y-111221395D01*
X152353832Y-111103394D01*
X152336211Y-111049161D01*
X152253996Y-110887806D01*
X152147553Y-110741299D01*
X152019501Y-110613247D01*
X151872994Y-110506804D01*
X151711639Y-110424589D01*
X151539409Y-110368629D01*
X151360546Y-110340300D01*
X151179454Y-110340300D01*
X151000591Y-110368629D01*
X150828360Y-110424589D01*
X150667004Y-110506805D01*
X150667003Y-110506805D01*
X150520500Y-110613246D01*
X150520497Y-110613248D01*
X150392448Y-110741297D01*
X150392446Y-110741300D01*
X150286005Y-110887803D01*
X150286005Y-110887804D01*
X150203789Y-111049160D01*
X150147827Y-111221395D01*
X150147165Y-111225579D01*
X150115794Y-111296038D01*
X150053396Y-111341373D01*
X149976690Y-111349434D01*
X149906231Y-111318063D01*
X149860896Y-111255665D01*
X149852835Y-111225579D01*
X149852172Y-111221395D01*
X149813832Y-111103394D01*
X149796211Y-111049161D01*
X149713996Y-110887806D01*
X149607553Y-110741299D01*
X149479501Y-110613247D01*
X149332994Y-110506804D01*
X149171639Y-110424589D01*
X148999409Y-110368629D01*
X148820546Y-110340300D01*
X148639454Y-110340300D01*
X148460591Y-110368629D01*
X148288360Y-110424589D01*
X148127004Y-110506805D01*
X148127003Y-110506805D01*
X147980500Y-110613246D01*
X147980497Y-110613248D01*
X147852448Y-110741297D01*
X147852446Y-110741300D01*
X147746005Y-110887803D01*
X147746005Y-110887804D01*
X147663789Y-111049160D01*
X147607827Y-111221395D01*
X147607165Y-111225579D01*
X147575794Y-111296038D01*
X147513396Y-111341373D01*
X147436690Y-111349434D01*
X147366231Y-111318063D01*
X147320896Y-111255665D01*
X147312835Y-111225579D01*
X147312172Y-111221395D01*
X147273832Y-111103394D01*
X147256211Y-111049161D01*
X147173996Y-110887806D01*
X147067553Y-110741299D01*
X146939501Y-110613247D01*
X146792994Y-110506804D01*
X146631639Y-110424589D01*
X146459409Y-110368629D01*
X146280546Y-110340300D01*
X146099454Y-110340300D01*
X145920591Y-110368629D01*
X145748360Y-110424589D01*
X145587004Y-110506805D01*
X145587003Y-110506805D01*
X145440500Y-110613246D01*
X145440497Y-110613248D01*
X145312448Y-110741297D01*
X145312446Y-110741300D01*
X145206005Y-110887803D01*
X145206005Y-110887804D01*
X145123789Y-111049160D01*
X145067827Y-111221395D01*
X145067165Y-111225579D01*
X145035794Y-111296038D01*
X144973396Y-111341373D01*
X144896690Y-111349434D01*
X144826231Y-111318063D01*
X144780896Y-111255665D01*
X144772835Y-111225579D01*
X144772172Y-111221395D01*
X144733832Y-111103394D01*
X144716211Y-111049161D01*
X144633996Y-110887806D01*
X144527553Y-110741299D01*
X144399501Y-110613247D01*
X144252994Y-110506804D01*
X144091639Y-110424589D01*
X143919409Y-110368629D01*
X143740546Y-110340300D01*
X143559454Y-110340300D01*
X143380591Y-110368629D01*
X143208360Y-110424589D01*
X143047004Y-110506805D01*
X143047003Y-110506805D01*
X142900500Y-110613246D01*
X142900497Y-110613248D01*
X142772448Y-110741297D01*
X142772446Y-110741300D01*
X142666005Y-110887803D01*
X142666005Y-110887804D01*
X142583789Y-111049160D01*
X142527827Y-111221395D01*
X142527165Y-111225579D01*
X142495794Y-111296038D01*
X142433396Y-111341373D01*
X142356690Y-111349434D01*
X142286231Y-111318063D01*
X142240896Y-111255665D01*
X142232835Y-111225579D01*
X142232172Y-111221395D01*
X142193832Y-111103394D01*
X142176211Y-111049161D01*
X142093996Y-110887806D01*
X141987553Y-110741299D01*
X141859501Y-110613247D01*
X141712994Y-110506804D01*
X141551639Y-110424589D01*
X141379409Y-110368629D01*
X141200546Y-110340300D01*
X141019454Y-110340300D01*
X140840591Y-110368629D01*
X140668360Y-110424589D01*
X140507004Y-110506805D01*
X140507003Y-110506805D01*
X140360500Y-110613246D01*
X140360497Y-110613248D01*
X140232448Y-110741297D01*
X140232446Y-110741300D01*
X140126005Y-110887803D01*
X140126005Y-110887804D01*
X140043789Y-111049160D01*
X139987827Y-111221395D01*
X139987165Y-111225579D01*
X139955794Y-111296038D01*
X139893396Y-111341373D01*
X139816690Y-111349434D01*
X139746231Y-111318063D01*
X139700896Y-111255665D01*
X139692835Y-111225579D01*
X139692172Y-111221395D01*
X139653832Y-111103394D01*
X139636211Y-111049161D01*
X139553996Y-110887806D01*
X139447553Y-110741299D01*
X139319501Y-110613247D01*
X139172994Y-110506804D01*
X139011639Y-110424589D01*
X138839409Y-110368629D01*
X138660546Y-110340300D01*
X138479454Y-110340300D01*
X138300591Y-110368629D01*
X138128360Y-110424589D01*
X137967004Y-110506805D01*
X137967003Y-110506805D01*
X137820500Y-110613246D01*
X137820497Y-110613248D01*
X137692448Y-110741297D01*
X137692446Y-110741300D01*
X137586005Y-110887803D01*
X137586005Y-110887804D01*
X137503789Y-111049160D01*
X137503789Y-111049161D01*
X137447829Y-111221391D01*
X137419500Y-111400254D01*
X137000500Y-111400254D01*
X137000500Y-111328031D01*
X136966789Y-110985750D01*
X136899690Y-110648422D01*
X136799850Y-110319295D01*
X136668231Y-110001538D01*
X136574138Y-109825502D01*
X136506101Y-109698214D01*
X136378543Y-109507310D01*
X136315019Y-109412240D01*
X136096828Y-109146373D01*
X135853627Y-108903172D01*
X135587760Y-108684981D01*
X135516700Y-108637500D01*
X135301785Y-108493898D01*
X134998462Y-108331769D01*
X134680707Y-108200150D01*
X134351582Y-108100311D01*
X134351579Y-108100310D01*
X134351578Y-108100310D01*
X134236068Y-108077333D01*
X134014257Y-108033212D01*
X134014258Y-108033212D01*
X134014252Y-108033211D01*
X134014250Y-108033211D01*
X133671969Y-107999500D01*
X133328031Y-107999500D01*
X132985750Y-108033211D01*
X132985747Y-108033211D01*
X132985742Y-108033212D01*
X132648417Y-108100311D01*
X132319292Y-108200150D01*
X132001537Y-108331769D01*
X131698214Y-108493898D01*
X131412245Y-108684977D01*
X131412240Y-108684980D01*
X131412240Y-108684981D01*
X131146373Y-108903172D01*
X130903172Y-109146373D01*
X130805086Y-109265892D01*
X130684977Y-109412245D01*
X130493898Y-109698215D01*
X130349319Y-109968703D01*
X130296595Y-110024996D01*
X130222788Y-110047385D01*
X130147675Y-110029871D01*
X130091382Y-109977147D01*
X130068993Y-109903340D01*
X130084642Y-109831833D01*
X130989407Y-108022302D01*
X130993808Y-108016233D01*
X130998767Y-108004357D01*
X131000704Y-108000127D01*
X131000875Y-107995323D01*
X131001728Y-107983310D01*
X131000500Y-107975738D01*
X131000500Y-83479454D01*
X132358700Y-83479454D01*
X132358700Y-83660546D01*
X132387029Y-83839409D01*
X132442989Y-84011639D01*
X132525204Y-84172994D01*
X132631647Y-84319501D01*
X132759699Y-84447553D01*
X132906206Y-84553996D01*
X133067561Y-84636211D01*
X133239791Y-84692171D01*
X133239792Y-84692171D01*
X133239795Y-84692172D01*
X133243979Y-84692835D01*
X133314438Y-84724206D01*
X133359773Y-84786604D01*
X133367834Y-84863310D01*
X133336463Y-84933769D01*
X133274065Y-84979104D01*
X133243979Y-84987165D01*
X133239795Y-84987827D01*
X133067560Y-85043789D01*
X132906204Y-85126005D01*
X132906203Y-85126005D01*
X132759700Y-85232446D01*
X132759697Y-85232448D01*
X132631648Y-85360497D01*
X132631646Y-85360500D01*
X132525205Y-85507003D01*
X132525205Y-85507004D01*
X132442989Y-85668360D01*
X132402121Y-85794141D01*
X132387029Y-85840591D01*
X132358700Y-86019454D01*
X132358700Y-86200546D01*
X132387029Y-86379409D01*
X132442989Y-86551639D01*
X132525204Y-86712994D01*
X132631647Y-86859501D01*
X132759699Y-86987553D01*
X132906206Y-87093996D01*
X133067561Y-87176211D01*
X133239791Y-87232171D01*
X133239792Y-87232171D01*
X133239795Y-87232172D01*
X133243979Y-87232835D01*
X133314438Y-87264206D01*
X133359773Y-87326604D01*
X133367834Y-87403310D01*
X133336463Y-87473769D01*
X133274065Y-87519104D01*
X133243979Y-87527165D01*
X133239795Y-87527827D01*
X133067560Y-87583789D01*
X132906204Y-87666005D01*
X132906203Y-87666005D01*
X132759700Y-87772446D01*
X132759697Y-87772448D01*
X132631648Y-87900497D01*
X132631646Y-87900500D01*
X132525205Y-88047003D01*
X132525205Y-88047004D01*
X132442989Y-88208360D01*
X132411635Y-88304859D01*
X132387029Y-88380591D01*
X132358700Y-88559454D01*
X132358700Y-88740546D01*
X132387029Y-88919409D01*
X132442989Y-89091639D01*
X132512630Y-89228317D01*
X132525205Y-89252995D01*
X132525205Y-89252996D01*
X132568899Y-89313136D01*
X132631647Y-89399501D01*
X132759699Y-89527553D01*
X132906206Y-89633996D01*
X133067561Y-89716211D01*
X133239791Y-89772171D01*
X133239792Y-89772171D01*
X133239795Y-89772172D01*
X133243979Y-89772835D01*
X133314438Y-89804206D01*
X133359773Y-89866604D01*
X133367834Y-89943310D01*
X133336463Y-90013769D01*
X133274065Y-90059104D01*
X133243979Y-90067165D01*
X133239795Y-90067827D01*
X133067560Y-90123789D01*
X132906204Y-90206005D01*
X132906203Y-90206005D01*
X132759700Y-90312446D01*
X132759697Y-90312448D01*
X132631648Y-90440497D01*
X132631646Y-90440500D01*
X132525205Y-90587003D01*
X132525205Y-90587004D01*
X132442989Y-90748360D01*
X132396096Y-90892686D01*
X132387029Y-90920591D01*
X132358700Y-91099454D01*
X132358700Y-91280546D01*
X132387029Y-91459409D01*
X132442989Y-91631639D01*
X132525204Y-91792994D01*
X132631647Y-91939501D01*
X132759699Y-92067553D01*
X132906206Y-92173996D01*
X133067561Y-92256211D01*
X133239791Y-92312171D01*
X133239792Y-92312171D01*
X133239795Y-92312172D01*
X133243979Y-92312835D01*
X133314438Y-92344206D01*
X133359773Y-92406604D01*
X133367834Y-92483310D01*
X133336463Y-92553769D01*
X133274065Y-92599104D01*
X133243979Y-92607165D01*
X133239795Y-92607827D01*
X133067560Y-92663789D01*
X132906204Y-92746005D01*
X132906203Y-92746005D01*
X132759700Y-92852446D01*
X132759697Y-92852448D01*
X132631648Y-92980497D01*
X132631646Y-92980500D01*
X132525205Y-93127003D01*
X132525205Y-93127004D01*
X132442989Y-93288360D01*
X132392757Y-93442962D01*
X132387029Y-93460591D01*
X132358700Y-93639454D01*
X132358700Y-93820546D01*
X132387029Y-93999409D01*
X132442989Y-94171639D01*
X132511234Y-94305577D01*
X132525205Y-94332995D01*
X132525205Y-94332996D01*
X132555723Y-94375000D01*
X132631647Y-94479501D01*
X132759699Y-94607553D01*
X132906206Y-94713996D01*
X133067561Y-94796211D01*
X133239791Y-94852171D01*
X133239792Y-94852171D01*
X133239795Y-94852172D01*
X133243979Y-94852835D01*
X133314438Y-94884206D01*
X133359773Y-94946604D01*
X133367834Y-95023310D01*
X133336463Y-95093769D01*
X133274065Y-95139104D01*
X133243979Y-95147165D01*
X133239795Y-95147827D01*
X133067560Y-95203789D01*
X132906204Y-95286005D01*
X132906203Y-95286005D01*
X132759700Y-95392446D01*
X132759697Y-95392448D01*
X132631648Y-95520497D01*
X132631646Y-95520500D01*
X132525205Y-95667003D01*
X132525205Y-95667004D01*
X132442989Y-95828360D01*
X132395344Y-95975000D01*
X132387029Y-96000591D01*
X132358700Y-96179454D01*
X132358700Y-96360546D01*
X132387029Y-96539409D01*
X132442989Y-96711639D01*
X132525204Y-96872994D01*
X132631647Y-97019501D01*
X132759699Y-97147553D01*
X132906206Y-97253996D01*
X133067561Y-97336211D01*
X133239791Y-97392171D01*
X133239792Y-97392171D01*
X133239795Y-97392172D01*
X133243979Y-97392835D01*
X133314438Y-97424206D01*
X133359773Y-97486604D01*
X133367834Y-97563310D01*
X133336463Y-97633769D01*
X133274065Y-97679104D01*
X133243979Y-97687165D01*
X133239795Y-97687827D01*
X133067560Y-97743789D01*
X132906204Y-97826005D01*
X132906203Y-97826005D01*
X132759700Y-97932446D01*
X132759697Y-97932448D01*
X132631648Y-98060497D01*
X132631646Y-98060500D01*
X132525205Y-98207003D01*
X132525205Y-98207004D01*
X132442989Y-98368360D01*
X132398314Y-98505859D01*
X132387029Y-98540591D01*
X132358700Y-98719454D01*
X132358700Y-98900546D01*
X132387029Y-99079409D01*
X132442989Y-99251639D01*
X132515111Y-99393186D01*
X132525205Y-99412995D01*
X132525205Y-99412996D01*
X132553375Y-99451768D01*
X132631647Y-99559501D01*
X132759699Y-99687553D01*
X132906206Y-99793996D01*
X133067561Y-99876211D01*
X133239791Y-99932171D01*
X133239792Y-99932171D01*
X133239795Y-99932172D01*
X133243979Y-99932835D01*
X133314438Y-99964206D01*
X133359773Y-100026604D01*
X133367834Y-100103310D01*
X133336463Y-100173769D01*
X133274065Y-100219104D01*
X133243979Y-100227165D01*
X133239795Y-100227827D01*
X133067560Y-100283789D01*
X132906204Y-100366005D01*
X132906203Y-100366005D01*
X132759700Y-100472446D01*
X132759697Y-100472448D01*
X132631648Y-100600497D01*
X132631646Y-100600500D01*
X132525205Y-100747003D01*
X132525205Y-100747004D01*
X132442989Y-100908360D01*
X132424296Y-100965892D01*
X132387029Y-101080591D01*
X132358700Y-101259454D01*
X132358700Y-101440546D01*
X132387029Y-101619409D01*
X132442989Y-101791639D01*
X132519953Y-101942689D01*
X132525205Y-101952995D01*
X132525205Y-101952996D01*
X132578425Y-102026247D01*
X132631647Y-102099501D01*
X132759699Y-102227553D01*
X132906206Y-102333996D01*
X133067561Y-102416211D01*
X133239791Y-102472171D01*
X133239792Y-102472171D01*
X133239795Y-102472172D01*
X133243979Y-102472835D01*
X133314438Y-102504206D01*
X133359773Y-102566604D01*
X133367834Y-102643310D01*
X133336463Y-102713769D01*
X133274065Y-102759104D01*
X133243979Y-102767165D01*
X133239795Y-102767827D01*
X133067560Y-102823789D01*
X132906204Y-102906005D01*
X132906203Y-102906005D01*
X132759700Y-103012446D01*
X132759697Y-103012448D01*
X132631648Y-103140497D01*
X132631646Y-103140500D01*
X132525205Y-103287003D01*
X132525205Y-103287004D01*
X132442989Y-103448360D01*
X132428424Y-103493187D01*
X132387029Y-103620591D01*
X132358700Y-103799454D01*
X132358700Y-103980546D01*
X132387029Y-104159409D01*
X132442989Y-104331639D01*
X132525204Y-104492994D01*
X132631647Y-104639501D01*
X132759699Y-104767553D01*
X132906206Y-104873996D01*
X133008491Y-104926113D01*
X133067561Y-104956211D01*
X133167837Y-104988792D01*
X133232523Y-105030798D01*
X133267539Y-105099520D01*
X133263503Y-105176542D01*
X133221497Y-105241228D01*
X133152775Y-105276244D01*
X133121795Y-105279500D01*
X132614333Y-105279500D01*
X132589210Y-105282414D01*
X132589207Y-105282415D01*
X132486435Y-105327793D01*
X132406993Y-105407235D01*
X132361616Y-105510005D01*
X132361615Y-105510008D01*
X132361615Y-105510009D01*
X132358700Y-105535135D01*
X132358700Y-105535136D01*
X132358700Y-105535140D01*
X132358700Y-107324866D01*
X132361614Y-107349989D01*
X132361615Y-107349992D01*
X132406993Y-107452764D01*
X132406994Y-107452765D01*
X132486435Y-107532206D01*
X132589209Y-107577585D01*
X132614335Y-107580500D01*
X134404064Y-107580499D01*
X134404066Y-107580499D01*
X134416627Y-107579042D01*
X134429191Y-107577585D01*
X134531965Y-107532206D01*
X134611406Y-107452765D01*
X134656785Y-107349991D01*
X134659700Y-107324865D01*
X134659699Y-105535136D01*
X134656785Y-105510009D01*
X134611406Y-105407235D01*
X134531965Y-105327794D01*
X134531964Y-105327793D01*
X134429194Y-105282416D01*
X134429191Y-105282415D01*
X134429182Y-105282414D01*
X134404065Y-105279500D01*
X134404059Y-105279500D01*
X133896605Y-105279500D01*
X133822105Y-105259538D01*
X133767567Y-105205000D01*
X133747605Y-105130500D01*
X133767567Y-105056000D01*
X133822105Y-105001462D01*
X133850563Y-104988792D01*
X133866518Y-104983608D01*
X133950839Y-104956211D01*
X134112194Y-104873996D01*
X134258701Y-104767553D01*
X134386753Y-104639501D01*
X134493196Y-104492994D01*
X134575411Y-104331639D01*
X134631371Y-104159409D01*
X134659700Y-103980546D01*
X134659700Y-103799454D01*
X134631371Y-103620591D01*
X134575411Y-103448361D01*
X134493196Y-103287006D01*
X134386753Y-103140499D01*
X134258701Y-103012447D01*
X134112194Y-102906004D01*
X133950839Y-102823789D01*
X133949503Y-102823355D01*
X133778608Y-102767828D01*
X133774423Y-102767166D01*
X133703962Y-102735796D01*
X133658627Y-102673398D01*
X133650564Y-102596693D01*
X133681934Y-102526232D01*
X133744332Y-102480897D01*
X133774423Y-102472834D01*
X133774562Y-102472811D01*
X133778609Y-102472171D01*
X133950839Y-102416211D01*
X134112194Y-102333996D01*
X134258701Y-102227553D01*
X134386753Y-102099501D01*
X134493196Y-101952994D01*
X134575411Y-101791639D01*
X134631371Y-101619409D01*
X134659700Y-101440546D01*
X134659700Y-101259454D01*
X134631371Y-101080591D01*
X134575411Y-100908361D01*
X134493196Y-100747006D01*
X134386753Y-100600499D01*
X134258701Y-100472447D01*
X134112194Y-100366004D01*
X133950839Y-100283789D01*
X133949291Y-100283286D01*
X133778608Y-100227828D01*
X133774423Y-100227166D01*
X133703962Y-100195796D01*
X133658627Y-100133398D01*
X133650564Y-100056693D01*
X133681934Y-99986232D01*
X133744332Y-99940897D01*
X133774423Y-99932834D01*
X133774562Y-99932811D01*
X133778609Y-99932171D01*
X133950839Y-99876211D01*
X134112194Y-99793996D01*
X134258701Y-99687553D01*
X134386753Y-99559501D01*
X134493196Y-99412994D01*
X134575411Y-99251639D01*
X134631371Y-99079409D01*
X134659700Y-98900546D01*
X134659700Y-98719454D01*
X134631371Y-98540591D01*
X134575411Y-98368361D01*
X134493196Y-98207006D01*
X134491999Y-98205359D01*
X134458542Y-98159309D01*
X134386753Y-98060499D01*
X134258701Y-97932447D01*
X134112194Y-97826004D01*
X133950839Y-97743789D01*
X133911044Y-97730859D01*
X133778608Y-97687828D01*
X133774423Y-97687166D01*
X133703962Y-97655796D01*
X133658627Y-97593398D01*
X133650564Y-97516693D01*
X133681934Y-97446232D01*
X133744332Y-97400897D01*
X133774423Y-97392834D01*
X133774562Y-97392811D01*
X133778609Y-97392171D01*
X133950839Y-97336211D01*
X134112194Y-97253996D01*
X134258701Y-97147553D01*
X134386753Y-97019501D01*
X134493196Y-96872994D01*
X134575411Y-96711639D01*
X134631371Y-96539409D01*
X134659700Y-96360546D01*
X134659700Y-96179454D01*
X134631371Y-96000591D01*
X134575411Y-95828361D01*
X134508783Y-95697598D01*
X134492747Y-95622156D01*
X134516580Y-95548803D01*
X134573897Y-95497194D01*
X134649340Y-95481157D01*
X134680107Y-95486030D01*
X134690753Y-95488883D01*
X134734102Y-95500499D01*
X134734108Y-95500500D01*
X134865892Y-95500500D01*
X134993186Y-95466392D01*
X135016912Y-95452693D01*
X135091409Y-95432729D01*
X135165910Y-95452689D01*
X135220449Y-95507225D01*
X135240414Y-95581724D01*
X135220454Y-95656225D01*
X135209626Y-95672432D01*
X135204518Y-95679088D01*
X135151793Y-95770409D01*
X135144349Y-95798195D01*
X135136266Y-95828361D01*
X135130602Y-95849500D01*
X135124500Y-95872272D01*
X135124500Y-96734313D01*
X135104538Y-96808812D01*
X135075793Y-96858599D01*
X135075791Y-96858603D01*
X135054114Y-96939509D01*
X135048501Y-96960456D01*
X135048500Y-96960465D01*
X135048500Y-97439540D01*
X135075794Y-97541403D01*
X135104536Y-97591183D01*
X135124500Y-97665682D01*
X135124500Y-107202729D01*
X135151794Y-107304591D01*
X135204515Y-107395906D01*
X135204518Y-107395910D01*
X135204520Y-107395913D01*
X137729087Y-109920480D01*
X137729089Y-109920481D01*
X137729093Y-109920484D01*
X137820408Y-109973205D01*
X137820409Y-109973205D01*
X137820412Y-109973207D01*
X137922273Y-110000500D01*
X137922275Y-110000500D01*
X160977725Y-110000500D01*
X160977727Y-110000500D01*
X161079588Y-109973207D01*
X161142051Y-109937143D01*
X161177981Y-109922260D01*
X161293186Y-109891392D01*
X161407314Y-109825500D01*
X161500500Y-109732314D01*
X161558605Y-109631672D01*
X161613141Y-109577136D01*
X161687641Y-109557173D01*
X161762141Y-109577135D01*
X161784909Y-109594605D01*
X161784945Y-109594559D01*
X161792684Y-109600498D01*
X161792686Y-109600500D01*
X161906814Y-109666392D01*
X162034108Y-109700500D01*
X162165892Y-109700500D01*
X162293186Y-109666392D01*
X162407314Y-109600500D01*
X162500500Y-109507314D01*
X162566392Y-109393186D01*
X162600500Y-109265892D01*
X162600500Y-109134108D01*
X162566392Y-109006814D01*
X162500500Y-108892686D01*
X162407314Y-108799500D01*
X162407311Y-108799498D01*
X162407310Y-108799497D01*
X162350222Y-108766538D01*
X162295684Y-108712000D01*
X162275722Y-108637501D01*
X162295684Y-108563000D01*
X162350222Y-108508462D01*
X162407314Y-108475500D01*
X162500500Y-108382314D01*
X162566392Y-108268186D01*
X162590166Y-108179455D01*
X162628725Y-108112666D01*
X163019480Y-107721913D01*
X163072207Y-107630588D01*
X163099500Y-107528727D01*
X163099500Y-107423273D01*
X163099500Y-104190800D01*
X163119462Y-104116300D01*
X163143139Y-104085443D01*
X163149044Y-104079538D01*
X163166968Y-104061613D01*
X163233760Y-104023050D01*
X163310888Y-104023048D01*
X163377684Y-104061611D01*
X163416249Y-104128405D01*
X163416249Y-104128406D01*
X163433607Y-104193184D01*
X163433608Y-104193186D01*
X163452265Y-104225502D01*
X163472226Y-104300002D01*
X163452265Y-104374498D01*
X163433609Y-104406811D01*
X163399500Y-104534106D01*
X163399500Y-104534108D01*
X163399500Y-104665892D01*
X163433608Y-104793186D01*
X163433609Y-104793187D01*
X163499497Y-104907310D01*
X163499498Y-104907311D01*
X163499500Y-104907314D01*
X163592686Y-105000500D01*
X163706814Y-105066392D01*
X163834108Y-105100500D01*
X163850500Y-105100500D01*
X163925000Y-105120462D01*
X163979538Y-105175000D01*
X163999500Y-105249500D01*
X163999500Y-105581309D01*
X164016080Y-105643185D01*
X164030202Y-105695891D01*
X164089506Y-105798607D01*
X164089509Y-105798611D01*
X164089511Y-105798614D01*
X165081386Y-106790489D01*
X165081388Y-106790490D01*
X165081389Y-106790491D01*
X165138051Y-106823205D01*
X165184113Y-106849799D01*
X165201978Y-106854585D01*
X165201983Y-106854588D01*
X165201983Y-106854587D01*
X165298691Y-106880500D01*
X165337797Y-106880500D01*
X165412297Y-106900462D01*
X165466835Y-106955000D01*
X165470551Y-106961845D01*
X165501400Y-107022389D01*
X165506805Y-107032995D01*
X165506805Y-107032996D01*
X165553505Y-107097273D01*
X165613247Y-107179501D01*
X165741299Y-107307553D01*
X165887806Y-107413996D01*
X166049161Y-107496211D01*
X166221391Y-107552171D01*
X166400254Y-107580500D01*
X166400258Y-107580500D01*
X166581342Y-107580500D01*
X166581346Y-107580500D01*
X166760209Y-107552171D01*
X166932439Y-107496211D01*
X167093794Y-107413996D01*
X167240301Y-107307553D01*
X167368353Y-107179501D01*
X167474796Y-107032994D01*
X167557011Y-106871639D01*
X167612971Y-106699409D01*
X167641300Y-106520546D01*
X167641300Y-106339454D01*
X167612971Y-106160591D01*
X167557011Y-105988361D01*
X167474796Y-105827006D01*
X167455782Y-105800836D01*
X167440790Y-105780201D01*
X167368353Y-105680499D01*
X167240301Y-105552447D01*
X167093794Y-105446004D01*
X166932439Y-105363789D01*
X166889474Y-105349829D01*
X166760208Y-105307828D01*
X166756023Y-105307166D01*
X166685562Y-105275796D01*
X166640227Y-105213398D01*
X166632164Y-105136693D01*
X166663534Y-105066232D01*
X166725932Y-105020897D01*
X166756023Y-105012834D01*
X166756162Y-105012811D01*
X166760209Y-105012171D01*
X166932439Y-104956211D01*
X167093794Y-104873996D01*
X167240301Y-104767553D01*
X167368353Y-104639501D01*
X167474796Y-104492994D01*
X167557011Y-104331639D01*
X167612971Y-104159409D01*
X167641300Y-103980546D01*
X167641300Y-103799454D01*
X167612971Y-103620591D01*
X167557011Y-103448361D01*
X167474796Y-103287006D01*
X167368353Y-103140499D01*
X167240301Y-103012447D01*
X167093794Y-102906004D01*
X166932439Y-102823789D01*
X166931103Y-102823355D01*
X166760208Y-102767828D01*
X166756023Y-102767166D01*
X166685562Y-102735796D01*
X166640227Y-102673398D01*
X166632164Y-102596693D01*
X166663534Y-102526232D01*
X166725932Y-102480897D01*
X166756023Y-102472834D01*
X166756162Y-102472811D01*
X166760209Y-102472171D01*
X166932439Y-102416211D01*
X167093794Y-102333996D01*
X167240301Y-102227553D01*
X167368353Y-102099501D01*
X167474796Y-101952994D01*
X167557011Y-101791639D01*
X167612971Y-101619409D01*
X167641300Y-101440546D01*
X167641300Y-101259454D01*
X167612971Y-101080591D01*
X167557011Y-100908361D01*
X167474796Y-100747006D01*
X167368353Y-100600499D01*
X167240301Y-100472447D01*
X167093794Y-100366004D01*
X166932439Y-100283789D01*
X166930891Y-100283286D01*
X166760208Y-100227828D01*
X166756023Y-100227166D01*
X166685562Y-100195796D01*
X166640227Y-100133398D01*
X166632164Y-100056693D01*
X166663534Y-99986232D01*
X166725932Y-99940897D01*
X166756023Y-99932834D01*
X166756162Y-99932811D01*
X166760209Y-99932171D01*
X166932439Y-99876211D01*
X167093794Y-99793996D01*
X167240301Y-99687553D01*
X167368353Y-99559501D01*
X167474796Y-99412994D01*
X167557011Y-99251639D01*
X167612971Y-99079409D01*
X167641300Y-98900546D01*
X167641300Y-98719454D01*
X167612971Y-98540591D01*
X167557011Y-98368361D01*
X167474796Y-98207006D01*
X167473599Y-98205359D01*
X167440142Y-98159309D01*
X167368353Y-98060499D01*
X167240301Y-97932447D01*
X167093794Y-97826004D01*
X166932439Y-97743789D01*
X166892644Y-97730859D01*
X166760208Y-97687828D01*
X166756023Y-97687166D01*
X166685562Y-97655796D01*
X166640227Y-97593398D01*
X166632164Y-97516693D01*
X166663534Y-97446232D01*
X166725932Y-97400897D01*
X166756023Y-97392834D01*
X166756162Y-97392811D01*
X166760209Y-97392171D01*
X166932439Y-97336211D01*
X167093794Y-97253996D01*
X167240301Y-97147553D01*
X167368353Y-97019501D01*
X167474796Y-96872994D01*
X167557011Y-96711639D01*
X167612971Y-96539409D01*
X167641300Y-96360546D01*
X167641300Y-96179454D01*
X167612971Y-96000591D01*
X167557011Y-95828361D01*
X167474796Y-95667006D01*
X167474348Y-95666390D01*
X167412835Y-95581724D01*
X167368353Y-95520499D01*
X167240301Y-95392447D01*
X167093794Y-95286004D01*
X166932439Y-95203789D01*
X166899806Y-95193186D01*
X166760208Y-95147828D01*
X166756023Y-95147166D01*
X166685562Y-95115796D01*
X166640227Y-95053398D01*
X166632164Y-94976693D01*
X166663534Y-94906232D01*
X166725932Y-94860897D01*
X166756023Y-94852834D01*
X166756162Y-94852811D01*
X166760209Y-94852171D01*
X166932439Y-94796211D01*
X167093794Y-94713996D01*
X167240301Y-94607553D01*
X167368353Y-94479501D01*
X167474796Y-94332994D01*
X167557011Y-94171639D01*
X167612971Y-93999409D01*
X167641300Y-93820546D01*
X167641300Y-93639454D01*
X167612971Y-93460591D01*
X167557011Y-93288361D01*
X167474796Y-93127006D01*
X167474146Y-93126112D01*
X167448029Y-93090164D01*
X167368353Y-92980499D01*
X167240301Y-92852447D01*
X167093794Y-92746004D01*
X166932439Y-92663789D01*
X166760208Y-92607828D01*
X166756023Y-92607166D01*
X166685562Y-92575796D01*
X166640227Y-92513398D01*
X166632164Y-92436693D01*
X166663534Y-92366232D01*
X166725932Y-92320897D01*
X166756023Y-92312834D01*
X166756162Y-92312811D01*
X166760209Y-92312171D01*
X166932439Y-92256211D01*
X167093794Y-92173996D01*
X167240301Y-92067553D01*
X167368353Y-91939501D01*
X167474796Y-91792994D01*
X167557011Y-91631639D01*
X167612971Y-91459409D01*
X167641300Y-91280546D01*
X167641300Y-91099454D01*
X167612971Y-90920591D01*
X167557011Y-90748361D01*
X167474796Y-90587006D01*
X167368353Y-90440499D01*
X167240301Y-90312447D01*
X167093794Y-90206004D01*
X166932439Y-90123789D01*
X166916035Y-90118459D01*
X166760208Y-90067828D01*
X166756023Y-90067166D01*
X166685562Y-90035796D01*
X166640227Y-89973398D01*
X166632164Y-89896693D01*
X166663534Y-89826232D01*
X166725932Y-89780897D01*
X166756023Y-89772834D01*
X166756162Y-89772811D01*
X166760209Y-89772171D01*
X166932439Y-89716211D01*
X167093794Y-89633996D01*
X167240301Y-89527553D01*
X167368353Y-89399501D01*
X167474796Y-89252994D01*
X167557011Y-89091639D01*
X167612971Y-88919409D01*
X167641300Y-88740546D01*
X167641300Y-88559454D01*
X167612971Y-88380591D01*
X167557011Y-88208361D01*
X167474796Y-88047006D01*
X167368353Y-87900499D01*
X167240301Y-87772447D01*
X167093794Y-87666004D01*
X166932439Y-87583789D01*
X166760208Y-87527828D01*
X166756023Y-87527166D01*
X166685562Y-87495796D01*
X166640227Y-87433398D01*
X166632164Y-87356693D01*
X166663534Y-87286232D01*
X166725932Y-87240897D01*
X166756023Y-87232834D01*
X166756162Y-87232811D01*
X166760209Y-87232171D01*
X166932439Y-87176211D01*
X167093794Y-87093996D01*
X167240301Y-86987553D01*
X167368353Y-86859501D01*
X167474796Y-86712994D01*
X167557011Y-86551639D01*
X167612971Y-86379409D01*
X167641300Y-86200546D01*
X167641300Y-86019454D01*
X167612971Y-85840591D01*
X167557011Y-85668361D01*
X167474796Y-85507006D01*
X167368353Y-85360499D01*
X167240301Y-85232447D01*
X167093794Y-85126004D01*
X166932439Y-85043789D01*
X166888517Y-85029518D01*
X166832161Y-85011207D01*
X166767476Y-84969200D01*
X166732460Y-84900478D01*
X166736496Y-84823456D01*
X166778503Y-84758771D01*
X166847225Y-84723755D01*
X166878201Y-84720499D01*
X167385664Y-84720499D01*
X167385667Y-84720499D01*
X167400740Y-84718750D01*
X167410791Y-84717585D01*
X167513565Y-84672206D01*
X167593006Y-84592765D01*
X167638385Y-84489991D01*
X167641300Y-84464865D01*
X167641299Y-82675136D01*
X167638385Y-82650009D01*
X167593006Y-82547235D01*
X167513565Y-82467794D01*
X167513564Y-82467793D01*
X167410794Y-82422416D01*
X167410791Y-82422415D01*
X167410782Y-82422414D01*
X167385665Y-82419500D01*
X167385659Y-82419500D01*
X165595933Y-82419500D01*
X165570810Y-82422414D01*
X165570807Y-82422415D01*
X165468035Y-82467793D01*
X165388593Y-82547235D01*
X165343216Y-82650005D01*
X165343215Y-82650008D01*
X165343215Y-82650009D01*
X165340300Y-82675135D01*
X165340300Y-82675136D01*
X165340300Y-82675140D01*
X165340300Y-84464866D01*
X165343214Y-84489989D01*
X165343214Y-84489990D01*
X165350264Y-84505956D01*
X165362094Y-84582172D01*
X165334231Y-84654091D01*
X165274142Y-84702444D01*
X165197926Y-84714274D01*
X165126007Y-84686411D01*
X165108606Y-84671503D01*
X162876614Y-82439511D01*
X162876611Y-82439509D01*
X162876610Y-82439508D01*
X162820661Y-82407206D01*
X162773887Y-82380201D01*
X162747784Y-82373207D01*
X162747783Y-82373206D01*
X162659309Y-82349500D01*
X153576485Y-82349500D01*
X153501985Y-82329538D01*
X153447447Y-82275000D01*
X153427485Y-82200500D01*
X153447447Y-82126001D01*
X153466390Y-82093189D01*
X153466389Y-82093189D01*
X153466392Y-82093186D01*
X153500500Y-81965892D01*
X153500500Y-81834108D01*
X153466392Y-81706814D01*
X153405013Y-81600502D01*
X153400502Y-81592689D01*
X153400501Y-81592688D01*
X153400500Y-81592686D01*
X153307314Y-81499500D01*
X153307311Y-81499498D01*
X153307310Y-81499497D01*
X153236514Y-81458623D01*
X153193186Y-81433608D01*
X153065892Y-81399500D01*
X152934108Y-81399500D01*
X152806814Y-81433608D01*
X152806812Y-81433608D01*
X152806812Y-81433609D01*
X152692689Y-81499497D01*
X152599497Y-81592689D01*
X152533609Y-81706812D01*
X152499500Y-81834106D01*
X152499500Y-81965893D01*
X152533609Y-82093189D01*
X152552553Y-82126001D01*
X152572515Y-82200501D01*
X152552552Y-82275001D01*
X152498014Y-82329538D01*
X152423515Y-82349500D01*
X146618688Y-82349500D01*
X146544188Y-82329538D01*
X146489650Y-82275000D01*
X146469688Y-82200500D01*
X146474764Y-82161939D01*
X146500500Y-82065892D01*
X146500500Y-81934108D01*
X146466392Y-81806814D01*
X146405013Y-81700502D01*
X146400502Y-81692689D01*
X146400501Y-81692688D01*
X146400500Y-81692686D01*
X146307314Y-81599500D01*
X146307311Y-81599498D01*
X146307310Y-81599497D01*
X146236514Y-81558623D01*
X146193186Y-81533608D01*
X146065892Y-81499500D01*
X145934108Y-81499500D01*
X145806814Y-81533608D01*
X145806812Y-81533608D01*
X145806812Y-81533609D01*
X145692689Y-81599497D01*
X145599497Y-81692689D01*
X145533609Y-81806812D01*
X145499500Y-81934106D01*
X145499500Y-81934108D01*
X145499500Y-82065892D01*
X145533608Y-82193186D01*
X145541765Y-82207314D01*
X145599499Y-82307313D01*
X145601017Y-82309291D01*
X145601971Y-82311595D01*
X145604383Y-82315772D01*
X145603833Y-82316089D01*
X145630535Y-82380547D01*
X145620470Y-82457016D01*
X145601017Y-82490709D01*
X145599499Y-82492686D01*
X145533609Y-82606812D01*
X145499500Y-82734106D01*
X145499500Y-82734108D01*
X145499500Y-82865892D01*
X145533608Y-82993186D01*
X145533609Y-82993187D01*
X145599497Y-83107310D01*
X145599498Y-83107311D01*
X145599500Y-83107314D01*
X145692686Y-83200500D01*
X145806814Y-83266392D01*
X145934108Y-83300500D01*
X146065892Y-83300500D01*
X146193186Y-83266392D01*
X146193189Y-83266390D01*
X146193190Y-83266390D01*
X146202211Y-83262654D01*
X146203516Y-83265806D01*
X146260629Y-83250500D01*
X152241189Y-83250500D01*
X152315689Y-83270462D01*
X152370227Y-83325000D01*
X152390189Y-83399500D01*
X152385113Y-83438062D01*
X152382100Y-83449306D01*
X152382100Y-83581095D01*
X152414826Y-83703229D01*
X152414826Y-83780357D01*
X152376262Y-83847152D01*
X152334442Y-83875095D01*
X152334571Y-83875318D01*
X152331172Y-83877280D01*
X152327925Y-83879450D01*
X152326116Y-83880199D01*
X152223385Y-83939510D01*
X149057038Y-87105859D01*
X148990243Y-87144423D01*
X148951679Y-87149500D01*
X141890687Y-87149500D01*
X141800326Y-87173712D01*
X141800326Y-87173713D01*
X141776113Y-87180201D01*
X141673389Y-87239508D01*
X140039508Y-88873389D01*
X139980201Y-88976113D01*
X139975760Y-88992689D01*
X139973713Y-89000327D01*
X139949500Y-89090687D01*
X139949500Y-91509309D01*
X139966620Y-91573203D01*
X139966622Y-91573207D01*
X139980201Y-91623887D01*
X140039508Y-91726610D01*
X140039509Y-91726611D01*
X140039511Y-91726614D01*
X140646505Y-92333608D01*
X141247150Y-92934253D01*
X141276725Y-92985461D01*
X141279869Y-92984159D01*
X141283609Y-92993189D01*
X141349495Y-93107307D01*
X141349498Y-93107311D01*
X141349500Y-93107314D01*
X141442686Y-93200500D01*
X141556814Y-93266392D01*
X141684108Y-93300500D01*
X141815892Y-93300500D01*
X141943186Y-93266392D01*
X142057314Y-93200500D01*
X142150500Y-93107314D01*
X142216392Y-92993186D01*
X142250500Y-92865892D01*
X142250500Y-92734108D01*
X142216392Y-92606814D01*
X142162458Y-92513398D01*
X142150502Y-92492689D01*
X142150501Y-92492688D01*
X142150500Y-92492686D01*
X142057314Y-92399500D01*
X142057311Y-92399498D01*
X142057307Y-92399495D01*
X141943189Y-92333609D01*
X141934159Y-92329869D01*
X141935461Y-92326725D01*
X141884253Y-92297150D01*
X141221209Y-91634106D01*
X145974500Y-91634106D01*
X145974500Y-91634108D01*
X145974500Y-91765892D01*
X146008608Y-91893186D01*
X146008609Y-91893187D01*
X146074497Y-92007310D01*
X146074498Y-92007311D01*
X146074500Y-92007314D01*
X146167686Y-92100500D01*
X146281814Y-92166392D01*
X146409108Y-92200500D01*
X146540892Y-92200500D01*
X146668186Y-92166392D01*
X146782314Y-92100500D01*
X146875500Y-92007314D01*
X146941392Y-91893186D01*
X146964009Y-91808774D01*
X147002573Y-91741981D01*
X147069368Y-91703417D01*
X147127377Y-91699614D01*
X147134108Y-91700500D01*
X147265892Y-91700500D01*
X147393186Y-91666392D01*
X147507314Y-91600500D01*
X147600500Y-91507314D01*
X147666392Y-91393186D01*
X147700500Y-91265892D01*
X147700500Y-91134108D01*
X147666392Y-91006814D01*
X147600500Y-90892686D01*
X147507314Y-90799500D01*
X147507311Y-90799498D01*
X147507310Y-90799497D01*
X147418732Y-90748357D01*
X147393186Y-90733608D01*
X147265892Y-90699500D01*
X147134108Y-90699500D01*
X147006814Y-90733608D01*
X147006812Y-90733608D01*
X147006812Y-90733609D01*
X146892689Y-90799497D01*
X146799497Y-90892689D01*
X146733609Y-91006811D01*
X146710990Y-91091225D01*
X146672425Y-91158019D01*
X146605629Y-91196582D01*
X146547630Y-91200386D01*
X146540896Y-91199500D01*
X146540892Y-91199500D01*
X146409108Y-91199500D01*
X146281814Y-91233608D01*
X146281812Y-91233608D01*
X146281812Y-91233609D01*
X146167689Y-91299497D01*
X146074497Y-91392689D01*
X146035977Y-91459409D01*
X146008608Y-91506814D01*
X146001295Y-91534106D01*
X145974500Y-91634106D01*
X141221209Y-91634106D01*
X140894141Y-91307038D01*
X140855577Y-91240243D01*
X140850500Y-91201679D01*
X140850500Y-89398321D01*
X140870462Y-89323821D01*
X140894141Y-89292962D01*
X142092962Y-88094141D01*
X142159757Y-88055577D01*
X142198321Y-88050500D01*
X145181969Y-88050500D01*
X145256469Y-88070462D01*
X145311007Y-88125000D01*
X145330969Y-88199500D01*
X145311007Y-88274000D01*
X145287331Y-88304854D01*
X145211595Y-88380591D01*
X145199498Y-88392688D01*
X145199497Y-88392689D01*
X145133609Y-88506812D01*
X145133608Y-88506814D01*
X145117778Y-88565890D01*
X145099500Y-88634106D01*
X145099500Y-88765891D01*
X145100775Y-88775578D01*
X145098438Y-88775885D01*
X145098443Y-88839053D01*
X145059884Y-88905851D01*
X144993092Y-88944420D01*
X144954517Y-88949500D01*
X142372239Y-88949500D01*
X142297739Y-88929538D01*
X142280193Y-88919408D01*
X142218186Y-88883608D01*
X142090892Y-88849500D01*
X141959108Y-88849500D01*
X141831814Y-88883608D01*
X141831812Y-88883608D01*
X141831812Y-88883609D01*
X141717689Y-88949497D01*
X141624497Y-89042689D01*
X141558609Y-89156812D01*
X141524500Y-89284106D01*
X141524500Y-89284108D01*
X141524500Y-89415892D01*
X141558608Y-89543186D01*
X141558609Y-89543187D01*
X141624497Y-89657310D01*
X141624498Y-89657311D01*
X141624500Y-89657314D01*
X141717686Y-89750500D01*
X141831814Y-89816392D01*
X141959108Y-89850500D01*
X142090892Y-89850500D01*
X142218186Y-89816392D01*
X142297739Y-89770462D01*
X142372239Y-89750500D01*
X151702725Y-89750500D01*
X151702727Y-89750500D01*
X151804588Y-89723207D01*
X151895913Y-89670480D01*
X152632287Y-88934106D01*
X153599500Y-88934106D01*
X153599500Y-88934108D01*
X153599500Y-89065892D01*
X153633608Y-89193186D01*
X153633609Y-89193187D01*
X153699497Y-89307310D01*
X153699498Y-89307311D01*
X153699500Y-89307314D01*
X153792686Y-89400500D01*
X153906814Y-89466392D01*
X154034108Y-89500500D01*
X154165892Y-89500500D01*
X154293186Y-89466392D01*
X154407314Y-89400500D01*
X154500500Y-89307314D01*
X154566392Y-89193186D01*
X154600500Y-89065892D01*
X154600500Y-88934108D01*
X154566392Y-88806814D01*
X154500500Y-88692686D01*
X154407314Y-88599500D01*
X154407311Y-88599498D01*
X154407310Y-88599497D01*
X154336514Y-88558623D01*
X154293186Y-88533608D01*
X154165892Y-88499500D01*
X154034108Y-88499500D01*
X153906814Y-88533608D01*
X153906812Y-88533608D01*
X153906812Y-88533609D01*
X153792689Y-88599497D01*
X153699497Y-88692689D01*
X153637831Y-88799500D01*
X153633608Y-88806814D01*
X153617778Y-88865890D01*
X153599500Y-88934106D01*
X152632287Y-88934106D01*
X155772252Y-85794141D01*
X155839047Y-85755577D01*
X155877611Y-85750500D01*
X162096072Y-85750500D01*
X162170572Y-85770462D01*
X162225110Y-85825000D01*
X162245072Y-85899500D01*
X162235577Y-85947232D01*
X162236136Y-85947382D01*
X162233854Y-85955897D01*
X162233731Y-85956517D01*
X162233609Y-85956809D01*
X162199500Y-86084106D01*
X162199500Y-86084107D01*
X162199500Y-86084108D01*
X162199500Y-86215892D01*
X162233608Y-86343186D01*
X162233609Y-86343187D01*
X162299497Y-86457310D01*
X162299498Y-86457311D01*
X162299500Y-86457314D01*
X162392686Y-86550500D01*
X162392688Y-86550501D01*
X162392689Y-86550502D01*
X162425444Y-86569413D01*
X162506814Y-86616392D01*
X162595542Y-86640165D01*
X162662335Y-86678727D01*
X162829859Y-86846251D01*
X162868423Y-86913046D01*
X162873500Y-86951610D01*
X162873500Y-90151729D01*
X162900794Y-90253591D01*
X162953515Y-90344906D01*
X162953518Y-90344910D01*
X162953520Y-90344913D01*
X163555860Y-90947253D01*
X163594423Y-91014046D01*
X163599500Y-91052610D01*
X163599500Y-97131969D01*
X163579538Y-97206469D01*
X163525000Y-97261007D01*
X163450500Y-97280969D01*
X163376000Y-97261007D01*
X163345145Y-97237331D01*
X163307314Y-97199500D01*
X163307311Y-97199498D01*
X163307310Y-97199497D01*
X163225000Y-97151976D01*
X163170462Y-97097438D01*
X163150500Y-97022938D01*
X163150500Y-93240691D01*
X163150499Y-93240689D01*
X163139730Y-93200500D01*
X163119799Y-93126114D01*
X163119799Y-93126113D01*
X163060490Y-93023386D01*
X161002816Y-90965713D01*
X160964253Y-90898919D01*
X160964253Y-90821791D01*
X161002815Y-90754998D01*
X161075500Y-90682314D01*
X161141392Y-90568186D01*
X161175500Y-90440892D01*
X161175500Y-90309108D01*
X161141392Y-90181814D01*
X161075582Y-90067828D01*
X161075502Y-90067689D01*
X161075501Y-90067688D01*
X161075500Y-90067686D01*
X160982314Y-89974500D01*
X160982311Y-89974498D01*
X160982310Y-89974497D01*
X160910619Y-89933107D01*
X160868186Y-89908608D01*
X160740892Y-89874500D01*
X160609108Y-89874500D01*
X160481814Y-89908608D01*
X160481812Y-89908608D01*
X160481812Y-89908609D01*
X160367689Y-89974497D01*
X160367688Y-89974498D01*
X160367686Y-89974499D01*
X160367686Y-89974500D01*
X160295001Y-90047184D01*
X160228209Y-90085747D01*
X160151081Y-90085747D01*
X160084286Y-90047183D01*
X158693843Y-88656740D01*
X158670166Y-88625883D01*
X158651000Y-88592686D01*
X158650998Y-88592684D01*
X158650997Y-88592682D01*
X158557816Y-88499502D01*
X158557810Y-88499497D01*
X158487014Y-88458623D01*
X158443686Y-88433608D01*
X158316392Y-88399500D01*
X158184608Y-88399500D01*
X158057314Y-88433608D01*
X158057312Y-88433608D01*
X158057312Y-88433609D01*
X157943189Y-88499497D01*
X157849997Y-88592689D01*
X157784109Y-88706812D01*
X157750000Y-88834106D01*
X157750000Y-88965893D01*
X157752739Y-88976114D01*
X157784108Y-89093186D01*
X157784109Y-89093187D01*
X157849997Y-89207310D01*
X157849998Y-89207311D01*
X157850000Y-89207314D01*
X157943186Y-89300500D01*
X157943192Y-89300503D01*
X157949006Y-89304965D01*
X157995956Y-89366157D01*
X158006021Y-89442626D01*
X157976503Y-89513882D01*
X157963656Y-89528530D01*
X157899497Y-89592689D01*
X157854583Y-89670484D01*
X157833608Y-89706814D01*
X157821902Y-89750502D01*
X157799500Y-89834106D01*
X157799500Y-89965893D01*
X157801806Y-89974498D01*
X157833608Y-90093186D01*
X157851277Y-90123789D01*
X157899497Y-90207310D01*
X157899498Y-90207311D01*
X157899500Y-90207314D01*
X157992686Y-90300500D01*
X158106814Y-90366392D01*
X158234108Y-90400500D01*
X158365892Y-90400500D01*
X158493186Y-90366392D01*
X158607314Y-90300500D01*
X158700500Y-90207314D01*
X158702125Y-90204498D01*
X158704425Y-90202198D01*
X158706450Y-90199560D01*
X158706796Y-90199826D01*
X158756657Y-90149957D01*
X158831156Y-90129989D01*
X158905657Y-90149945D01*
X158936527Y-90173630D01*
X162205859Y-93442962D01*
X162244423Y-93509757D01*
X162249500Y-93548321D01*
X162249500Y-93698389D01*
X162229538Y-93772889D01*
X162175000Y-93827427D01*
X162100500Y-93847389D01*
X162026000Y-93827427D01*
X161995141Y-93803748D01*
X161261855Y-93070462D01*
X160520913Y-92329520D01*
X160520910Y-92329518D01*
X160520906Y-92329515D01*
X160429591Y-92276794D01*
X160429588Y-92276793D01*
X160402295Y-92269480D01*
X160327729Y-92249500D01*
X160327727Y-92249500D01*
X154618031Y-92249500D01*
X154543531Y-92229538D01*
X154488993Y-92175000D01*
X154469031Y-92100500D01*
X154488993Y-92026000D01*
X154512668Y-91995145D01*
X154600500Y-91907314D01*
X154666392Y-91793186D01*
X154700500Y-91665892D01*
X154700500Y-91534108D01*
X154666392Y-91406814D01*
X154604434Y-91299500D01*
X154600502Y-91292689D01*
X154600501Y-91292688D01*
X154600500Y-91292686D01*
X154507314Y-91199500D01*
X154507311Y-91199498D01*
X154507310Y-91199497D01*
X154435467Y-91158019D01*
X154393186Y-91133608D01*
X154265892Y-91099500D01*
X154134108Y-91099500D01*
X154006814Y-91133608D01*
X154006812Y-91133608D01*
X154006812Y-91133609D01*
X153892689Y-91199497D01*
X153799497Y-91292689D01*
X153733609Y-91406812D01*
X153699500Y-91534106D01*
X153699500Y-91534108D01*
X153699500Y-91665892D01*
X153733608Y-91793186D01*
X153733609Y-91793187D01*
X153799497Y-91907310D01*
X153799498Y-91907311D01*
X153799500Y-91907314D01*
X153892686Y-92000500D01*
X154006814Y-92066392D01*
X154134108Y-92100500D01*
X154173389Y-92100500D01*
X154247889Y-92120462D01*
X154302427Y-92175000D01*
X154322389Y-92249500D01*
X154302427Y-92324000D01*
X154278748Y-92354859D01*
X152704518Y-93929089D01*
X152704515Y-93929093D01*
X152651794Y-94020408D01*
X152651793Y-94020412D01*
X152631563Y-94095913D01*
X152628642Y-94106814D01*
X152624500Y-94122272D01*
X152624500Y-94514146D01*
X152604538Y-94588646D01*
X152550000Y-94643184D01*
X152475500Y-94663146D01*
X152401000Y-94643184D01*
X152346462Y-94588646D01*
X152342740Y-94581791D01*
X152319845Y-94536858D01*
X152259796Y-94419006D01*
X152153353Y-94272499D01*
X152025301Y-94144447D01*
X151878794Y-94038004D01*
X151717439Y-93955789D01*
X151545209Y-93899829D01*
X151366346Y-93871500D01*
X151185254Y-93871500D01*
X151008468Y-93899500D01*
X151006391Y-93899829D01*
X150834160Y-93955789D01*
X150672804Y-94038005D01*
X150672803Y-94038005D01*
X150526300Y-94144446D01*
X150526297Y-94144448D01*
X150398248Y-94272497D01*
X150398246Y-94272500D01*
X150291805Y-94419003D01*
X150291805Y-94419004D01*
X150209589Y-94580360D01*
X150177007Y-94680639D01*
X150135000Y-94745324D01*
X150066278Y-94780340D01*
X149989256Y-94776304D01*
X149924571Y-94734297D01*
X149889555Y-94665575D01*
X149886299Y-94634596D01*
X149886299Y-94127133D01*
X149883385Y-94102010D01*
X149883384Y-94102008D01*
X149838006Y-93999235D01*
X149758565Y-93919794D01*
X149758564Y-93919793D01*
X149655794Y-93874416D01*
X149655791Y-93874415D01*
X149655782Y-93874414D01*
X149630665Y-93871500D01*
X149630659Y-93871500D01*
X147840933Y-93871500D01*
X147815810Y-93874414D01*
X147815807Y-93874415D01*
X147713035Y-93919793D01*
X147633593Y-93999235D01*
X147588216Y-94102005D01*
X147588215Y-94102008D01*
X147588215Y-94102009D01*
X147585300Y-94127135D01*
X147585300Y-94127136D01*
X147585300Y-94127140D01*
X147585300Y-95916866D01*
X147588214Y-95941989D01*
X147588215Y-95941992D01*
X147633593Y-96044764D01*
X147713035Y-96124206D01*
X147803603Y-96164196D01*
X147863692Y-96212549D01*
X147891554Y-96284469D01*
X147879723Y-96360684D01*
X147831370Y-96420773D01*
X147759450Y-96448635D01*
X147743419Y-96449500D01*
X145818031Y-96449500D01*
X145743531Y-96429538D01*
X145688993Y-96375000D01*
X145669031Y-96300500D01*
X145688993Y-96226000D01*
X145712668Y-96195145D01*
X145800500Y-96107314D01*
X145866392Y-95993186D01*
X145900500Y-95865892D01*
X145900500Y-95734108D01*
X145866392Y-95606814D01*
X145808656Y-95506812D01*
X145800502Y-95492689D01*
X145800501Y-95492688D01*
X145800500Y-95492686D01*
X145707314Y-95399500D01*
X145707311Y-95399498D01*
X145707310Y-95399497D01*
X145636514Y-95358623D01*
X145593186Y-95333608D01*
X145465892Y-95299500D01*
X145334108Y-95299500D01*
X145206814Y-95333608D01*
X145206812Y-95333608D01*
X145206812Y-95333609D01*
X145092689Y-95399497D01*
X144999497Y-95492689D01*
X144941476Y-95593186D01*
X144933608Y-95606814D01*
X144917778Y-95665890D01*
X144899500Y-95734106D01*
X144899500Y-95734108D01*
X144899500Y-95865892D01*
X144933608Y-95993186D01*
X144943203Y-96009805D01*
X144999497Y-96107310D01*
X144999498Y-96107311D01*
X144999500Y-96107314D01*
X145087329Y-96195143D01*
X145125892Y-96261936D01*
X145125892Y-96339064D01*
X145087328Y-96405859D01*
X145020533Y-96444423D01*
X144981969Y-96449500D01*
X142588749Y-96449500D01*
X142486887Y-96476794D01*
X142395572Y-96529515D01*
X142395568Y-96529518D01*
X141178518Y-97746568D01*
X141178515Y-97746572D01*
X141125794Y-97837887D01*
X141125793Y-97837891D01*
X141101972Y-97926793D01*
X141100457Y-97932447D01*
X141098500Y-97939752D01*
X141098500Y-99089540D01*
X141125794Y-99191402D01*
X141178515Y-99282717D01*
X141178518Y-99282721D01*
X141178520Y-99282724D01*
X141495296Y-99599500D01*
X141781424Y-99885628D01*
X141819988Y-99952423D01*
X141819988Y-100029551D01*
X141781424Y-100096346D01*
X141714630Y-100134910D01*
X141658150Y-100150043D01*
X141589614Y-100168408D01*
X141589612Y-100168408D01*
X141589612Y-100168409D01*
X141475489Y-100234297D01*
X141382297Y-100327489D01*
X141316409Y-100441612D01*
X141316408Y-100441614D01*
X141302723Y-100492686D01*
X141282300Y-100568906D01*
X141282300Y-100700693D01*
X141289946Y-100729226D01*
X141316408Y-100827986D01*
X141324895Y-100842686D01*
X141382297Y-100942110D01*
X141382298Y-100942111D01*
X141382300Y-100942114D01*
X141475486Y-101035300D01*
X141589614Y-101101192D01*
X141716908Y-101135300D01*
X141850500Y-101135300D01*
X141925000Y-101155262D01*
X141979538Y-101209800D01*
X141999500Y-101284300D01*
X141999500Y-101302761D01*
X141979538Y-101377261D01*
X141937143Y-101450692D01*
X141933608Y-101456814D01*
X141920077Y-101507314D01*
X141899500Y-101584106D01*
X141899500Y-101584108D01*
X141899500Y-101715892D01*
X141933608Y-101843186D01*
X141947005Y-101866390D01*
X141999497Y-101957310D01*
X141999498Y-101957311D01*
X141999500Y-101957314D01*
X142092686Y-102050500D01*
X142092688Y-102050501D01*
X142092689Y-102050502D01*
X142103622Y-102056814D01*
X142206814Y-102116392D01*
X142334108Y-102150500D01*
X142465892Y-102150500D01*
X142593186Y-102116392D01*
X142707314Y-102050500D01*
X142800500Y-101957314D01*
X142866392Y-101843186D01*
X142900500Y-101715892D01*
X142900500Y-101584108D01*
X142866392Y-101456814D01*
X142824146Y-101383641D01*
X142820462Y-101377260D01*
X142807420Y-101328587D01*
X142804826Y-101318906D01*
X150699500Y-101318906D01*
X150699500Y-101318908D01*
X150699500Y-101450692D01*
X150733608Y-101577986D01*
X150755782Y-101616392D01*
X150799497Y-101692110D01*
X150799498Y-101692111D01*
X150799500Y-101692114D01*
X150892686Y-101785300D01*
X151006814Y-101851192D01*
X151134108Y-101885300D01*
X151265892Y-101885300D01*
X151393186Y-101851192D01*
X151507314Y-101785300D01*
X151600500Y-101692114D01*
X151666392Y-101577986D01*
X151700500Y-101450692D01*
X151700500Y-101318908D01*
X151666392Y-101191614D01*
X151609565Y-101093187D01*
X151600502Y-101077489D01*
X151600501Y-101077488D01*
X151600500Y-101077486D01*
X151507314Y-100984300D01*
X151507311Y-100984298D01*
X151507310Y-100984297D01*
X151453759Y-100953380D01*
X151434239Y-100942110D01*
X151393186Y-100918408D01*
X151265892Y-100884300D01*
X151134108Y-100884300D01*
X151006814Y-100918408D01*
X151006812Y-100918408D01*
X151006812Y-100918409D01*
X150892689Y-100984297D01*
X150799497Y-101077489D01*
X150752375Y-101159108D01*
X150733608Y-101191614D01*
X150728735Y-101209800D01*
X150699500Y-101318906D01*
X142804826Y-101318906D01*
X142800500Y-101302761D01*
X142800500Y-100834106D01*
X154005700Y-100834106D01*
X154005700Y-100965893D01*
X154010632Y-100984300D01*
X154039808Y-101093186D01*
X154051613Y-101113632D01*
X154105697Y-101207310D01*
X154105698Y-101207311D01*
X154105700Y-101207314D01*
X154198886Y-101300500D01*
X154313014Y-101366392D01*
X154440308Y-101400500D01*
X154572092Y-101400500D01*
X154699386Y-101366392D01*
X154813514Y-101300500D01*
X154906700Y-101207314D01*
X154972592Y-101093186D01*
X155006700Y-100965892D01*
X155006700Y-100834108D01*
X154972592Y-100706814D01*
X154911213Y-100600502D01*
X154906702Y-100592689D01*
X154906701Y-100592688D01*
X154906700Y-100592686D01*
X154813514Y-100499500D01*
X154813511Y-100499498D01*
X154813510Y-100499497D01*
X154742714Y-100458623D01*
X154699386Y-100433608D01*
X154572092Y-100399500D01*
X154440308Y-100399500D01*
X154313014Y-100433608D01*
X154313012Y-100433608D01*
X154313012Y-100433609D01*
X154198889Y-100499497D01*
X154105697Y-100592689D01*
X154043342Y-100700693D01*
X154039808Y-100706814D01*
X154027238Y-100753725D01*
X154005700Y-100834106D01*
X142800500Y-100834106D01*
X142800500Y-99885084D01*
X142800499Y-99885082D01*
X142773207Y-99783224D01*
X142738055Y-99722340D01*
X142720481Y-99691899D01*
X142421095Y-99392513D01*
X142382531Y-99325718D01*
X142382531Y-99248590D01*
X142397417Y-99212653D01*
X142400498Y-99207315D01*
X142400500Y-99207314D01*
X142466392Y-99093186D01*
X142500500Y-98965892D01*
X142500500Y-98897321D01*
X142520462Y-98822821D01*
X142575000Y-98768283D01*
X142649500Y-98748321D01*
X142724000Y-98768283D01*
X142754858Y-98791961D01*
X143323386Y-99360490D01*
X143426113Y-99419799D01*
X143450317Y-99426283D01*
X143450324Y-99426287D01*
X143450325Y-99426286D01*
X143474539Y-99432774D01*
X143540691Y-99450500D01*
X143540694Y-99450500D01*
X145241223Y-99450500D01*
X145315723Y-99470462D01*
X145370261Y-99525000D01*
X145390223Y-99599500D01*
X145370261Y-99674000D01*
X145315723Y-99728538D01*
X145314849Y-99728969D01*
X145192689Y-99799497D01*
X145099497Y-99892689D01*
X145045491Y-99986232D01*
X145033608Y-100006814D01*
X145027516Y-100029551D01*
X144999500Y-100134106D01*
X144999500Y-100134108D01*
X144999500Y-100265892D01*
X145033608Y-100393186D01*
X145041475Y-100406812D01*
X145099497Y-100507310D01*
X145099498Y-100507311D01*
X145099500Y-100507314D01*
X145192686Y-100600500D01*
X145306814Y-100666392D01*
X145434108Y-100700500D01*
X145565892Y-100700500D01*
X145693186Y-100666392D01*
X145807314Y-100600500D01*
X145900500Y-100507314D01*
X145966392Y-100393186D01*
X146000500Y-100265892D01*
X146000500Y-100134108D01*
X145966392Y-100006814D01*
X145900500Y-99892686D01*
X145807314Y-99799500D01*
X145807311Y-99799498D01*
X145807310Y-99799497D01*
X145684728Y-99728725D01*
X145686578Y-99725519D01*
X145640535Y-99690163D01*
X145611045Y-99618895D01*
X145621139Y-99542431D01*
X145668114Y-99481258D01*
X145739382Y-99451768D01*
X145758777Y-99450500D01*
X154159306Y-99450500D01*
X154159309Y-99450500D01*
X154249673Y-99426286D01*
X154273887Y-99419799D01*
X154376614Y-99360489D01*
X155360489Y-98376614D01*
X155419799Y-98273887D01*
X155429310Y-98238392D01*
X155450500Y-98159309D01*
X155450500Y-96049500D01*
X155470462Y-95975000D01*
X155525000Y-95920462D01*
X155599500Y-95900500D01*
X155665892Y-95900500D01*
X155793186Y-95866392D01*
X155907314Y-95800500D01*
X156000500Y-95707314D01*
X156066392Y-95593186D01*
X156066393Y-95593179D01*
X156070129Y-95584163D01*
X156073289Y-95585472D01*
X156102786Y-95534315D01*
X156142965Y-95494137D01*
X156209760Y-95455576D01*
X156248320Y-95450500D01*
X157451679Y-95450500D01*
X157526179Y-95470462D01*
X157557038Y-95494141D01*
X157861091Y-95798195D01*
X157899655Y-95864990D01*
X157899655Y-95942118D01*
X157861094Y-96008910D01*
X157849500Y-96020504D01*
X157849495Y-96020510D01*
X157783609Y-96134628D01*
X157779869Y-96143659D01*
X157776721Y-96142355D01*
X157747151Y-96193562D01*
X156189509Y-97751206D01*
X156189506Y-97751210D01*
X156130202Y-97853927D01*
X156130201Y-97853931D01*
X156125028Y-97873239D01*
X156124123Y-97876615D01*
X156099500Y-97968505D01*
X156099500Y-102801678D01*
X156079538Y-102876178D01*
X156055859Y-102907037D01*
X154957038Y-104005859D01*
X154890243Y-104044423D01*
X154851679Y-104049500D01*
X154218031Y-104049500D01*
X154143531Y-104029538D01*
X154088993Y-103975000D01*
X154069031Y-103900500D01*
X154088993Y-103826000D01*
X154112668Y-103795145D01*
X154200500Y-103707314D01*
X154266392Y-103593186D01*
X154300500Y-103465892D01*
X154300500Y-103390212D01*
X154320462Y-103315712D01*
X154375000Y-103261174D01*
X154449500Y-103241212D01*
X154524000Y-103261174D01*
X154554854Y-103284849D01*
X154585574Y-103315569D01*
X154585576Y-103315570D01*
X154585577Y-103315571D01*
X154604704Y-103326614D01*
X154699702Y-103381461D01*
X154826996Y-103415569D01*
X154958780Y-103415569D01*
X155086074Y-103381461D01*
X155200202Y-103315569D01*
X155293388Y-103222383D01*
X155359280Y-103108255D01*
X155393388Y-102980961D01*
X155393388Y-102849177D01*
X155359280Y-102721883D01*
X155293388Y-102607755D01*
X155244140Y-102558507D01*
X155205577Y-102491712D01*
X155200500Y-102453149D01*
X155200500Y-102334108D01*
X155200499Y-102334106D01*
X155195619Y-102315893D01*
X155166392Y-102206814D01*
X155105013Y-102100502D01*
X155100502Y-102092689D01*
X155100501Y-102092688D01*
X155100500Y-102092686D01*
X155007314Y-101999500D01*
X155007311Y-101999498D01*
X155007310Y-101999497D01*
X154926763Y-101952994D01*
X154893186Y-101933608D01*
X154765892Y-101899500D01*
X154634108Y-101899500D01*
X154506814Y-101933608D01*
X154506812Y-101933608D01*
X154506812Y-101933609D01*
X154392689Y-101999497D01*
X154299497Y-102092689D01*
X154246717Y-102184108D01*
X154233608Y-102206814D01*
X154228052Y-102227551D01*
X154199500Y-102334106D01*
X154199500Y-102465893D01*
X154206418Y-102491712D01*
X154233608Y-102593186D01*
X154242020Y-102607756D01*
X154299497Y-102707310D01*
X154299498Y-102707311D01*
X154299500Y-102707314D01*
X154348748Y-102756562D01*
X154387311Y-102823355D01*
X154392388Y-102861919D01*
X154392388Y-102924857D01*
X154372426Y-102999357D01*
X154317888Y-103053895D01*
X154243388Y-103073857D01*
X154168888Y-103053895D01*
X154138033Y-103030219D01*
X154107314Y-102999500D01*
X154107311Y-102999498D01*
X154107310Y-102999497D01*
X154036514Y-102958623D01*
X153993186Y-102933608D01*
X153865892Y-102899500D01*
X153734108Y-102899500D01*
X153606814Y-102933608D01*
X153606812Y-102933608D01*
X153606812Y-102933609D01*
X153492689Y-102999497D01*
X153399497Y-103092689D01*
X153349369Y-103179515D01*
X153333608Y-103206814D01*
X153326295Y-103234106D01*
X153299500Y-103334106D01*
X153299500Y-103334108D01*
X153299500Y-103465892D01*
X153333608Y-103593186D01*
X153349430Y-103620591D01*
X153399497Y-103707310D01*
X153399498Y-103707311D01*
X153399500Y-103707314D01*
X153487329Y-103795143D01*
X153525892Y-103861936D01*
X153525892Y-103939064D01*
X153487328Y-104005859D01*
X153420533Y-104044423D01*
X153381969Y-104049500D01*
X150958777Y-104049500D01*
X150884277Y-104029538D01*
X150829739Y-103975000D01*
X150809777Y-103900500D01*
X150829739Y-103826000D01*
X150884277Y-103771462D01*
X150885150Y-103771030D01*
X150893181Y-103766393D01*
X150893186Y-103766392D01*
X151007314Y-103700500D01*
X151100500Y-103607314D01*
X151166392Y-103493186D01*
X151200500Y-103365892D01*
X151200500Y-103234108D01*
X151166392Y-103106814D01*
X151111909Y-103012447D01*
X151100502Y-102992689D01*
X151100501Y-102992688D01*
X151100500Y-102992686D01*
X151007314Y-102899500D01*
X151007311Y-102899498D01*
X151007310Y-102899497D01*
X150920152Y-102849177D01*
X150893186Y-102833608D01*
X150765892Y-102799500D01*
X150634108Y-102799500D01*
X150627611Y-102799500D01*
X150553111Y-102779538D01*
X150522252Y-102755859D01*
X149978729Y-102212336D01*
X149940166Y-102145543D01*
X149916392Y-102056814D01*
X149858943Y-101957310D01*
X149850502Y-101942689D01*
X149850501Y-101942688D01*
X149850500Y-101942686D01*
X149757314Y-101849500D01*
X149757311Y-101849498D01*
X149757310Y-101849497D01*
X149672447Y-101800502D01*
X149643186Y-101783608D01*
X149515892Y-101749500D01*
X149384108Y-101749500D01*
X149256814Y-101783608D01*
X149256812Y-101783608D01*
X149256812Y-101783609D01*
X149142689Y-101849497D01*
X149049497Y-101942689D01*
X148996717Y-102034108D01*
X148983608Y-102056814D01*
X148971902Y-102100502D01*
X148949500Y-102184106D01*
X148949500Y-102184108D01*
X148949500Y-102315892D01*
X148983608Y-102443186D01*
X149000343Y-102472171D01*
X149049497Y-102557310D01*
X149049498Y-102557311D01*
X149049500Y-102557314D01*
X149142686Y-102650500D01*
X149256814Y-102716392D01*
X149256817Y-102716392D01*
X149256820Y-102716394D01*
X149345540Y-102740166D01*
X149412336Y-102778729D01*
X150254087Y-103620480D01*
X150345412Y-103673207D01*
X150345414Y-103673207D01*
X150352729Y-103676238D01*
X150386414Y-103695688D01*
X150392682Y-103700498D01*
X150392689Y-103700502D01*
X150505946Y-103765891D01*
X150515272Y-103771275D01*
X150513421Y-103774480D01*
X150559465Y-103809837D01*
X150588955Y-103881105D01*
X150578861Y-103957569D01*
X150531886Y-104018742D01*
X150460618Y-104048232D01*
X150441223Y-104049500D01*
X144115691Y-104049500D01*
X144001110Y-104080202D01*
X143898386Y-104139509D01*
X142739509Y-105298388D01*
X142739508Y-105298389D01*
X142680201Y-105401111D01*
X142680202Y-105401111D01*
X142680201Y-105401113D01*
X142680201Y-105401114D01*
X142680036Y-105401729D01*
X142649500Y-105515689D01*
X142649500Y-105862801D01*
X142668313Y-105933010D01*
X142680202Y-105977382D01*
X142739506Y-106080098D01*
X142739509Y-106080102D01*
X142739511Y-106080105D01*
X142909906Y-106250500D01*
X143047150Y-106387744D01*
X143076725Y-106438952D01*
X143079869Y-106437650D01*
X143083609Y-106446680D01*
X143149495Y-106560798D01*
X143149498Y-106560802D01*
X143149500Y-106560805D01*
X143242686Y-106653991D01*
X143242688Y-106653992D01*
X143242689Y-106653993D01*
X143257691Y-106662654D01*
X143356814Y-106719883D01*
X143484108Y-106753991D01*
X143615892Y-106753991D01*
X143743186Y-106719883D01*
X143857314Y-106653991D01*
X143950500Y-106560805D01*
X144016392Y-106446677D01*
X144018060Y-106440448D01*
X144056622Y-106373653D01*
X144123415Y-106335087D01*
X144123416Y-106335086D01*
X144193186Y-106316392D01*
X144307314Y-106250500D01*
X144394643Y-106163170D01*
X144461436Y-106124608D01*
X144538564Y-106124608D01*
X144605356Y-106163170D01*
X144692686Y-106250500D01*
X144806814Y-106316392D01*
X144934108Y-106350500D01*
X145065892Y-106350500D01*
X145193186Y-106316392D01*
X145307314Y-106250500D01*
X145400500Y-106157314D01*
X145466392Y-106043186D01*
X145500500Y-105915892D01*
X145500500Y-105784108D01*
X145466392Y-105656814D01*
X145400500Y-105542686D01*
X145307314Y-105449500D01*
X145307311Y-105449498D01*
X145307310Y-105449497D01*
X145224572Y-105401729D01*
X145193186Y-105383608D01*
X145065892Y-105349500D01*
X144934108Y-105349500D01*
X144806814Y-105383608D01*
X144806812Y-105383608D01*
X144806812Y-105383609D01*
X144692689Y-105449497D01*
X144692688Y-105449498D01*
X144692686Y-105449499D01*
X144692686Y-105449500D01*
X144605356Y-105536829D01*
X144538564Y-105575392D01*
X144461436Y-105575392D01*
X144394643Y-105536829D01*
X144307314Y-105449500D01*
X144307311Y-105449498D01*
X144307310Y-105449497D01*
X144224572Y-105401729D01*
X144193543Y-105383814D01*
X144139006Y-105329277D01*
X144119044Y-105254777D01*
X144139006Y-105180277D01*
X144162681Y-105149422D01*
X144317963Y-104994141D01*
X144384758Y-104955577D01*
X144423322Y-104950500D01*
X152830557Y-104950500D01*
X152905057Y-104970462D01*
X152959595Y-105025000D01*
X152979557Y-105099500D01*
X152959595Y-105174000D01*
X152912046Y-105221548D01*
X152912835Y-105222575D01*
X152905086Y-105228520D01*
X150727748Y-107405859D01*
X150660953Y-107444423D01*
X150622389Y-107449500D01*
X148477611Y-107449500D01*
X148403111Y-107429538D01*
X148372252Y-107405859D01*
X147892462Y-106926069D01*
X147853898Y-106859274D01*
X147853898Y-106782146D01*
X147892460Y-106715353D01*
X147900500Y-106707314D01*
X147966392Y-106593186D01*
X148000500Y-106465892D01*
X148000500Y-106356106D01*
X148305300Y-106356106D01*
X148305300Y-106487893D01*
X148313631Y-106518983D01*
X148339408Y-106615186D01*
X148350333Y-106634108D01*
X148405297Y-106729310D01*
X148405298Y-106729311D01*
X148405300Y-106729314D01*
X148498486Y-106822500D01*
X148498488Y-106822501D01*
X148498489Y-106822502D01*
X148520343Y-106835119D01*
X148612614Y-106888392D01*
X148739908Y-106922500D01*
X148871692Y-106922500D01*
X148998986Y-106888392D01*
X149113114Y-106822500D01*
X149200443Y-106735170D01*
X149267236Y-106696608D01*
X149344364Y-106696608D01*
X149411156Y-106735170D01*
X149498486Y-106822500D01*
X149498488Y-106822501D01*
X149498489Y-106822502D01*
X149520343Y-106835119D01*
X149612614Y-106888392D01*
X149739908Y-106922500D01*
X149871692Y-106922500D01*
X149998986Y-106888392D01*
X150113114Y-106822500D01*
X150206300Y-106729314D01*
X150272192Y-106615186D01*
X150306300Y-106487892D01*
X150306300Y-106356108D01*
X150272192Y-106228814D01*
X150217513Y-106134108D01*
X150206302Y-106114689D01*
X150206301Y-106114688D01*
X150206300Y-106114686D01*
X150113114Y-106021500D01*
X150113111Y-106021498D01*
X150113110Y-106021497D01*
X150042314Y-105980623D01*
X149998986Y-105955608D01*
X149871692Y-105921500D01*
X149739908Y-105921500D01*
X149612614Y-105955608D01*
X149612612Y-105955608D01*
X149612612Y-105955609D01*
X149498489Y-106021497D01*
X149498488Y-106021498D01*
X149498486Y-106021499D01*
X149498486Y-106021500D01*
X149411156Y-106108829D01*
X149344364Y-106147392D01*
X149267236Y-106147392D01*
X149200443Y-106108829D01*
X149113114Y-106021500D01*
X149113111Y-106021498D01*
X149113110Y-106021497D01*
X149042314Y-105980623D01*
X148998986Y-105955608D01*
X148871692Y-105921500D01*
X148739908Y-105921500D01*
X148612614Y-105955608D01*
X148612612Y-105955608D01*
X148612612Y-105955609D01*
X148498489Y-106021497D01*
X148405297Y-106114689D01*
X148339409Y-106228812D01*
X148339408Y-106228814D01*
X148333597Y-106250501D01*
X148305300Y-106356106D01*
X148000500Y-106356106D01*
X148000500Y-106334108D01*
X147966392Y-106206814D01*
X147916360Y-106120157D01*
X147900502Y-106092689D01*
X147900501Y-106092688D01*
X147900500Y-106092686D01*
X147807314Y-105999500D01*
X147807311Y-105999498D01*
X147807310Y-105999497D01*
X147722442Y-105950499D01*
X147693186Y-105933608D01*
X147565892Y-105899500D01*
X147434108Y-105899500D01*
X147306814Y-105933608D01*
X147306812Y-105933608D01*
X147306812Y-105933609D01*
X147192689Y-105999497D01*
X147099497Y-106092689D01*
X147037831Y-106199500D01*
X147033608Y-106206814D01*
X147021902Y-106250501D01*
X146999500Y-106334106D01*
X146999500Y-106465891D01*
X147000775Y-106475578D01*
X146998438Y-106475885D01*
X146998443Y-106539053D01*
X146959884Y-106605851D01*
X146893092Y-106644420D01*
X146854517Y-106649500D01*
X144997270Y-106649500D01*
X144895408Y-106676794D01*
X144804093Y-106729515D01*
X144804089Y-106729518D01*
X144027748Y-107505859D01*
X143960953Y-107544423D01*
X143922389Y-107549500D01*
X142871735Y-107549500D01*
X142797235Y-107529538D01*
X142742697Y-107475000D01*
X142722735Y-107400500D01*
X142734075Y-107343484D01*
X142737327Y-107335628D01*
X142737333Y-107335619D01*
X142771441Y-107208325D01*
X142771441Y-107076541D01*
X142737333Y-106949247D01*
X142685387Y-106859274D01*
X142671443Y-106835122D01*
X142671442Y-106835121D01*
X142671441Y-106835119D01*
X142578255Y-106741933D01*
X142578252Y-106741931D01*
X142578248Y-106741928D01*
X142464130Y-106676042D01*
X142455100Y-106672302D01*
X142456402Y-106669158D01*
X142405194Y-106639583D01*
X142016111Y-106250500D01*
X141605122Y-105839511D01*
X141605119Y-105839509D01*
X141605115Y-105839506D01*
X141502398Y-105780202D01*
X141502395Y-105780201D01*
X141478181Y-105773713D01*
X141387817Y-105749500D01*
X137910636Y-105749500D01*
X137853516Y-105734194D01*
X137852211Y-105737346D01*
X137843190Y-105733609D01*
X137715892Y-105699500D01*
X137584108Y-105699500D01*
X137584101Y-105699500D01*
X137582567Y-105699912D01*
X137580979Y-105699911D01*
X137574422Y-105700775D01*
X137574308Y-105699911D01*
X137505439Y-105699906D01*
X137438647Y-105661338D01*
X137400087Y-105594540D01*
X137400091Y-105525692D01*
X137399225Y-105525578D01*
X137400091Y-105518992D01*
X137400092Y-105517416D01*
X137400499Y-105515895D01*
X137400500Y-105515891D01*
X137400500Y-105384108D01*
X137400499Y-105384106D01*
X137400366Y-105383608D01*
X137366392Y-105256814D01*
X137300500Y-105142686D01*
X137207314Y-105049500D01*
X137207311Y-105049498D01*
X137207310Y-105049497D01*
X137122447Y-105000502D01*
X137093186Y-104983608D01*
X136965892Y-104949500D01*
X136834108Y-104949500D01*
X136706814Y-104983608D01*
X136706813Y-104983608D01*
X136706811Y-104983609D01*
X136662844Y-105008993D01*
X136588344Y-105028954D01*
X136513844Y-105008991D01*
X136459307Y-104954452D01*
X136439346Y-104879952D01*
X136459307Y-104805455D01*
X136466392Y-104793186D01*
X136500500Y-104665892D01*
X136500500Y-104534108D01*
X136466392Y-104406814D01*
X136404723Y-104300000D01*
X136400502Y-104292689D01*
X136400501Y-104292688D01*
X136400500Y-104292686D01*
X136307314Y-104199500D01*
X136307311Y-104199498D01*
X136307310Y-104199497D01*
X136236514Y-104158623D01*
X136193186Y-104133608D01*
X136100001Y-104108639D01*
X136065893Y-104099500D01*
X136056213Y-104098226D01*
X136056674Y-104094723D01*
X136000000Y-104079538D01*
X135945462Y-104025000D01*
X135925500Y-103950500D01*
X135925500Y-103634106D01*
X138818500Y-103634106D01*
X138818500Y-103765893D01*
X138819942Y-103771275D01*
X138852608Y-103893186D01*
X138876234Y-103934108D01*
X138918497Y-104007310D01*
X138918498Y-104007311D01*
X138918500Y-104007314D01*
X139011686Y-104100500D01*
X139125814Y-104166392D01*
X139253108Y-104200500D01*
X139384892Y-104200500D01*
X139512186Y-104166392D01*
X139626314Y-104100500D01*
X139719500Y-104007314D01*
X139785392Y-103893186D01*
X139819500Y-103765892D01*
X139819500Y-103634108D01*
X139785392Y-103506814D01*
X139732711Y-103415568D01*
X139719502Y-103392689D01*
X139719501Y-103392688D01*
X139719500Y-103392686D01*
X139626314Y-103299500D01*
X139626311Y-103299498D01*
X139626310Y-103299497D01*
X139525356Y-103241212D01*
X139512186Y-103233608D01*
X139384892Y-103199500D01*
X139253108Y-103199500D01*
X139125814Y-103233608D01*
X139125812Y-103233608D01*
X139125812Y-103233609D01*
X139011689Y-103299497D01*
X138918497Y-103392689D01*
X138852609Y-103506812D01*
X138818500Y-103634106D01*
X135925500Y-103634106D01*
X135925500Y-102804106D01*
X144025500Y-102804106D01*
X144025500Y-102804108D01*
X144025500Y-102935892D01*
X144059608Y-103063186D01*
X144059609Y-103063187D01*
X144125497Y-103177310D01*
X144125498Y-103177311D01*
X144125500Y-103177314D01*
X144218686Y-103270500D01*
X144332814Y-103336392D01*
X144460108Y-103370500D01*
X144591892Y-103370500D01*
X144719186Y-103336392D01*
X144833314Y-103270500D01*
X144926500Y-103177314D01*
X144992392Y-103063186D01*
X145026500Y-102935892D01*
X145026500Y-102804108D01*
X144992392Y-102676814D01*
X144926500Y-102562686D01*
X144833314Y-102469500D01*
X144833311Y-102469498D01*
X144833310Y-102469497D01*
X144741013Y-102416210D01*
X144719186Y-102403608D01*
X144591892Y-102369500D01*
X144460108Y-102369500D01*
X144332814Y-102403608D01*
X144332812Y-102403608D01*
X144332812Y-102403609D01*
X144218689Y-102469497D01*
X144125497Y-102562689D01*
X144074800Y-102650500D01*
X144059608Y-102676814D01*
X144047532Y-102721883D01*
X144025500Y-102804106D01*
X135925500Y-102804106D01*
X135925500Y-101134106D01*
X137099500Y-101134106D01*
X137099500Y-101134108D01*
X137099500Y-101265892D01*
X137133608Y-101393186D01*
X137158623Y-101436514D01*
X137199497Y-101507310D01*
X137199498Y-101507311D01*
X137199500Y-101507314D01*
X137286829Y-101594643D01*
X137325392Y-101661436D01*
X137325392Y-101738564D01*
X137286829Y-101805356D01*
X137242689Y-101849497D01*
X137199498Y-101892688D01*
X137199497Y-101892689D01*
X137137832Y-101999497D01*
X137133608Y-102006814D01*
X137121902Y-102050502D01*
X137099500Y-102134106D01*
X137099500Y-102134108D01*
X137099500Y-102265892D01*
X137133608Y-102393186D01*
X137133609Y-102393187D01*
X137199497Y-102507310D01*
X137199498Y-102507311D01*
X137199500Y-102507314D01*
X137292686Y-102600500D01*
X137292688Y-102600501D01*
X137292689Y-102600502D01*
X137305257Y-102607758D01*
X137406814Y-102666392D01*
X137534108Y-102700500D01*
X137665892Y-102700500D01*
X137793186Y-102666392D01*
X137907314Y-102600500D01*
X138000500Y-102507314D01*
X138066392Y-102393186D01*
X138100500Y-102265892D01*
X138100500Y-102134108D01*
X138066392Y-102006814D01*
X138005747Y-101901774D01*
X138000502Y-101892689D01*
X138000501Y-101892688D01*
X138000500Y-101892686D01*
X137913170Y-101805356D01*
X137874608Y-101738564D01*
X137874608Y-101661436D01*
X137913170Y-101594643D01*
X138000500Y-101507314D01*
X138066392Y-101393186D01*
X138100500Y-101265892D01*
X138100500Y-101134108D01*
X138066392Y-101006814D01*
X138009550Y-100908361D01*
X138000502Y-100892689D01*
X138000501Y-100892688D01*
X138000500Y-100892686D01*
X137907314Y-100799500D01*
X137907311Y-100799498D01*
X137907310Y-100799497D01*
X137835171Y-100757848D01*
X137793186Y-100733608D01*
X137665892Y-100699500D01*
X137534108Y-100699500D01*
X137406814Y-100733608D01*
X137406812Y-100733608D01*
X137406812Y-100733609D01*
X137292689Y-100799497D01*
X137199497Y-100892689D01*
X137146608Y-100984297D01*
X137133608Y-101006814D01*
X137125975Y-101035302D01*
X137099500Y-101134106D01*
X135925500Y-101134106D01*
X135925500Y-99134106D01*
X137099500Y-99134106D01*
X137099500Y-99134108D01*
X137099500Y-99265892D01*
X137133608Y-99393186D01*
X137148973Y-99419799D01*
X137199497Y-99507310D01*
X137199498Y-99507311D01*
X137199500Y-99507314D01*
X137292686Y-99600500D01*
X137406814Y-99666392D01*
X137534108Y-99700500D01*
X137665892Y-99700500D01*
X137793186Y-99666392D01*
X137907314Y-99600500D01*
X138000500Y-99507314D01*
X138066392Y-99393186D01*
X138100500Y-99265892D01*
X138100500Y-99134108D01*
X138066392Y-99006814D01*
X138000500Y-98892686D01*
X137907314Y-98799500D01*
X137907311Y-98799498D01*
X137907310Y-98799497D01*
X137836514Y-98758623D01*
X137793186Y-98733608D01*
X137665892Y-98699500D01*
X137534108Y-98699500D01*
X137406814Y-98733608D01*
X137406812Y-98733608D01*
X137406812Y-98733609D01*
X137292689Y-98799497D01*
X137199497Y-98892689D01*
X137133609Y-99006812D01*
X137099500Y-99134106D01*
X135925500Y-99134106D01*
X135925500Y-97825654D01*
X135945462Y-97751154D01*
X136000000Y-97696616D01*
X136035932Y-97681732D01*
X136093186Y-97666392D01*
X136207314Y-97600500D01*
X136300500Y-97507314D01*
X136366392Y-97393186D01*
X136400500Y-97265892D01*
X136400500Y-97134108D01*
X136366392Y-97006814D01*
X136300500Y-96892686D01*
X136207314Y-96799500D01*
X136207311Y-96799498D01*
X136207310Y-96799497D01*
X136136514Y-96758623D01*
X136093186Y-96733608D01*
X136035934Y-96718267D01*
X135969141Y-96679703D01*
X135930577Y-96612908D01*
X135925500Y-96574345D01*
X135925500Y-96152610D01*
X135945462Y-96078110D01*
X135969137Y-96047255D01*
X136382286Y-95634106D01*
X141199500Y-95634106D01*
X141199500Y-95765893D01*
X141203152Y-95779522D01*
X141233608Y-95893186D01*
X141255197Y-95930579D01*
X141299497Y-96007310D01*
X141299498Y-96007311D01*
X141299500Y-96007314D01*
X141392686Y-96100500D01*
X141506814Y-96166392D01*
X141634108Y-96200500D01*
X141765892Y-96200500D01*
X141893186Y-96166392D01*
X142007314Y-96100500D01*
X142100500Y-96007314D01*
X142166392Y-95893186D01*
X142200500Y-95765892D01*
X142200500Y-95634108D01*
X142166392Y-95506814D01*
X142116360Y-95420157D01*
X142100502Y-95392689D01*
X142100501Y-95392688D01*
X142100500Y-95392686D01*
X142007314Y-95299500D01*
X142007311Y-95299498D01*
X142007310Y-95299497D01*
X141935315Y-95257931D01*
X141893186Y-95233608D01*
X141765892Y-95199500D01*
X141634108Y-95199500D01*
X141506814Y-95233608D01*
X141506812Y-95233608D01*
X141506812Y-95233609D01*
X141392689Y-95299497D01*
X141299497Y-95392689D01*
X141240925Y-95494141D01*
X141233608Y-95506814D01*
X141229941Y-95520500D01*
X141199500Y-95634106D01*
X136382286Y-95634106D01*
X138887664Y-93128727D01*
X138954453Y-93090167D01*
X139043186Y-93066392D01*
X139157314Y-93000500D01*
X139250500Y-92907314D01*
X139316392Y-92793186D01*
X139350500Y-92665892D01*
X139350500Y-92534108D01*
X139316392Y-92406814D01*
X139262133Y-92312835D01*
X139250502Y-92292689D01*
X139250501Y-92292688D01*
X139250500Y-92292686D01*
X139157314Y-92199500D01*
X139157311Y-92199498D01*
X139157310Y-92199497D01*
X139086514Y-92158623D01*
X139043186Y-92133608D01*
X138915892Y-92099500D01*
X138784108Y-92099500D01*
X138656814Y-92133608D01*
X138656812Y-92133608D01*
X138656812Y-92133609D01*
X138542689Y-92199497D01*
X138449497Y-92292689D01*
X138383609Y-92406810D01*
X138359833Y-92495543D01*
X138321269Y-92562336D01*
X135487437Y-95396170D01*
X135420642Y-95434734D01*
X135343514Y-95434734D01*
X135276719Y-95396170D01*
X135238155Y-95329375D01*
X135238155Y-95252247D01*
X135253038Y-95216314D01*
X135266392Y-95193186D01*
X135300500Y-95065892D01*
X135300500Y-94934108D01*
X135266392Y-94806814D01*
X135200500Y-94692686D01*
X135107314Y-94599500D01*
X135107311Y-94599498D01*
X135107310Y-94599497D01*
X135027832Y-94553611D01*
X134993186Y-94533608D01*
X134865892Y-94499500D01*
X134734108Y-94499500D01*
X134734104Y-94499500D01*
X134680107Y-94513969D01*
X134602979Y-94513969D01*
X134536184Y-94475405D01*
X134497620Y-94408610D01*
X134497620Y-94331482D01*
X134508782Y-94302404D01*
X134541837Y-94237530D01*
X134575410Y-94171642D01*
X134580067Y-94157310D01*
X134631371Y-93999409D01*
X134659700Y-93820546D01*
X134659700Y-93639454D01*
X134631371Y-93460591D01*
X134575411Y-93288361D01*
X134493196Y-93127006D01*
X134492546Y-93126112D01*
X134466429Y-93090164D01*
X134386753Y-92980499D01*
X134258701Y-92852447D01*
X134112194Y-92746004D01*
X133950839Y-92663789D01*
X133778608Y-92607828D01*
X133774423Y-92607166D01*
X133703962Y-92575796D01*
X133658627Y-92513398D01*
X133650564Y-92436693D01*
X133681934Y-92366232D01*
X133744332Y-92320897D01*
X133774423Y-92312834D01*
X133774562Y-92312811D01*
X133778609Y-92312171D01*
X133950839Y-92256211D01*
X134112194Y-92173996D01*
X134258701Y-92067553D01*
X134386753Y-91939501D01*
X134493196Y-91792994D01*
X134575411Y-91631639D01*
X134631371Y-91459409D01*
X134659700Y-91280546D01*
X134659700Y-91099454D01*
X134631371Y-90920591D01*
X134575411Y-90748361D01*
X134496981Y-90594435D01*
X134480945Y-90518994D01*
X134504778Y-90445641D01*
X134562095Y-90394032D01*
X134637538Y-90377995D01*
X134668300Y-90382867D01*
X134734108Y-90400500D01*
X134865892Y-90400500D01*
X134993186Y-90366392D01*
X135107314Y-90300500D01*
X135200500Y-90207314D01*
X135266392Y-90093186D01*
X135300500Y-89965892D01*
X135300500Y-89834108D01*
X135266392Y-89706814D01*
X135200500Y-89592686D01*
X135107314Y-89499500D01*
X135107311Y-89499498D01*
X135107310Y-89499497D01*
X135036514Y-89458623D01*
X134993186Y-89433608D01*
X134865892Y-89399500D01*
X134734108Y-89399500D01*
X134734099Y-89399501D01*
X134691907Y-89410806D01*
X134676140Y-89410805D01*
X134661142Y-89415679D01*
X134638213Y-89410805D01*
X134614779Y-89410805D01*
X134601125Y-89402921D01*
X134585700Y-89399643D01*
X134568279Y-89383957D01*
X134547985Y-89372240D01*
X134540102Y-89358586D01*
X134528383Y-89348034D01*
X134521139Y-89325741D01*
X134509422Y-89305445D01*
X134509422Y-89289678D01*
X134504549Y-89274680D01*
X134509422Y-89251751D01*
X134509423Y-89234106D01*
X136399500Y-89234106D01*
X136399500Y-89234108D01*
X136399500Y-89365892D01*
X136433608Y-89493186D01*
X136453449Y-89527551D01*
X136499497Y-89607310D01*
X136499498Y-89607311D01*
X136499500Y-89607314D01*
X136592686Y-89700500D01*
X136592688Y-89700501D01*
X136592689Y-89700502D01*
X136603622Y-89706814D01*
X136706814Y-89766392D01*
X136834108Y-89800500D01*
X136965892Y-89800500D01*
X137093186Y-89766392D01*
X137207314Y-89700500D01*
X137300500Y-89607314D01*
X137366392Y-89493186D01*
X137400500Y-89365892D01*
X137400500Y-89234108D01*
X137366392Y-89106814D01*
X137300500Y-88992686D01*
X137207314Y-88899500D01*
X137207311Y-88899498D01*
X137207310Y-88899497D01*
X137136514Y-88858623D01*
X137093186Y-88833608D01*
X136965892Y-88799500D01*
X136834108Y-88799500D01*
X136706814Y-88833608D01*
X136706812Y-88833608D01*
X136706812Y-88833609D01*
X136592689Y-88899497D01*
X136499497Y-88992689D01*
X136433609Y-89106812D01*
X136399500Y-89234106D01*
X134509423Y-89234106D01*
X134509423Y-89228317D01*
X134520581Y-89199247D01*
X134575411Y-89091639D01*
X134631371Y-88919409D01*
X134659700Y-88740546D01*
X134659700Y-88559454D01*
X134631371Y-88380591D01*
X134575411Y-88208361D01*
X134493196Y-88047006D01*
X134386753Y-87900499D01*
X134258701Y-87772447D01*
X134167548Y-87706221D01*
X134112196Y-87666005D01*
X134112190Y-87666001D01*
X134094724Y-87657102D01*
X134094723Y-87657102D01*
X133950839Y-87583789D01*
X133797930Y-87534106D01*
X136399500Y-87534106D01*
X136399500Y-87534108D01*
X136399500Y-87665892D01*
X136433608Y-87793186D01*
X136433609Y-87793187D01*
X136499497Y-87907310D01*
X136499498Y-87907311D01*
X136499500Y-87907314D01*
X136592686Y-88000500D01*
X136706814Y-88066392D01*
X136834108Y-88100500D01*
X136965892Y-88100500D01*
X137093186Y-88066392D01*
X137207314Y-88000500D01*
X137300500Y-87907314D01*
X137366392Y-87793186D01*
X137400500Y-87665892D01*
X137400500Y-87534108D01*
X137366392Y-87406814D01*
X137300500Y-87292686D01*
X137207314Y-87199500D01*
X137207311Y-87199498D01*
X137207310Y-87199497D01*
X137136514Y-87158623D01*
X137093186Y-87133608D01*
X136965892Y-87099500D01*
X136834108Y-87099500D01*
X136706814Y-87133608D01*
X136706812Y-87133608D01*
X136706812Y-87133609D01*
X136592689Y-87199497D01*
X136499497Y-87292689D01*
X136433609Y-87406812D01*
X136399500Y-87534106D01*
X133797930Y-87534106D01*
X133778608Y-87527828D01*
X133774423Y-87527166D01*
X133703962Y-87495796D01*
X133658627Y-87433398D01*
X133650564Y-87356693D01*
X133681934Y-87286232D01*
X133744332Y-87240897D01*
X133774423Y-87232834D01*
X133774562Y-87232811D01*
X133778609Y-87232171D01*
X133950839Y-87176211D01*
X134112194Y-87093996D01*
X134258701Y-86987553D01*
X134386753Y-86859501D01*
X134493196Y-86712994D01*
X134575411Y-86551639D01*
X134631371Y-86379409D01*
X134659700Y-86200546D01*
X134659700Y-86019454D01*
X134631371Y-85840591D01*
X134587904Y-85706812D01*
X134575410Y-85668357D01*
X134544190Y-85607087D01*
X134528153Y-85531645D01*
X134551986Y-85458291D01*
X134609303Y-85406682D01*
X134684745Y-85390645D01*
X134715513Y-85395518D01*
X134734104Y-85400499D01*
X134734108Y-85400500D01*
X134865892Y-85400500D01*
X134993186Y-85366392D01*
X135107314Y-85300500D01*
X135200500Y-85207314D01*
X135266392Y-85093186D01*
X135300500Y-84965892D01*
X135300500Y-84934106D01*
X136399500Y-84934106D01*
X136399500Y-84934108D01*
X136399500Y-85065892D01*
X136433608Y-85193186D01*
X136456275Y-85232446D01*
X136499497Y-85307310D01*
X136499498Y-85307311D01*
X136499500Y-85307314D01*
X136536829Y-85344643D01*
X136575392Y-85411436D01*
X136575392Y-85488564D01*
X136536829Y-85555356D01*
X136499500Y-85592686D01*
X136499498Y-85592688D01*
X136499497Y-85592689D01*
X136433609Y-85706812D01*
X136433608Y-85706814D01*
X136420542Y-85755577D01*
X136399500Y-85834106D01*
X136399500Y-85834108D01*
X136399500Y-85965892D01*
X136433608Y-86093186D01*
X136433609Y-86093187D01*
X136499497Y-86207310D01*
X136499498Y-86207311D01*
X136499500Y-86207314D01*
X136592686Y-86300500D01*
X136706814Y-86366392D01*
X136834108Y-86400500D01*
X136965892Y-86400500D01*
X137093186Y-86366392D01*
X137207314Y-86300500D01*
X137300500Y-86207314D01*
X137366392Y-86093186D01*
X137400500Y-85965892D01*
X137400500Y-85834108D01*
X137366392Y-85706814D01*
X137308946Y-85607314D01*
X137300502Y-85592689D01*
X137300501Y-85592688D01*
X137300500Y-85592686D01*
X137263170Y-85555356D01*
X137224608Y-85488564D01*
X137224608Y-85411436D01*
X137263170Y-85344643D01*
X137300500Y-85307314D01*
X137366392Y-85193186D01*
X137400500Y-85065892D01*
X137400500Y-84934108D01*
X137366392Y-84806814D01*
X137316360Y-84720157D01*
X137300502Y-84692689D01*
X137300501Y-84692688D01*
X137300500Y-84692686D01*
X137207314Y-84599500D01*
X137207311Y-84599498D01*
X137207310Y-84599497D01*
X137095375Y-84534872D01*
X137093186Y-84533608D01*
X136965892Y-84499500D01*
X136834108Y-84499500D01*
X136706814Y-84533608D01*
X136706812Y-84533608D01*
X136706812Y-84533609D01*
X136592689Y-84599497D01*
X136499497Y-84692689D01*
X136437634Y-84799840D01*
X136433608Y-84806814D01*
X136426823Y-84832137D01*
X136399500Y-84934106D01*
X135300500Y-84934106D01*
X135300500Y-84834108D01*
X135266392Y-84706814D01*
X135205012Y-84600501D01*
X135200502Y-84592689D01*
X135200501Y-84592688D01*
X135200500Y-84592686D01*
X135107314Y-84499500D01*
X135107311Y-84499498D01*
X135107310Y-84499497D01*
X135017336Y-84447551D01*
X134993186Y-84433608D01*
X134865892Y-84399500D01*
X134734108Y-84399500D01*
X134734102Y-84399500D01*
X134637036Y-84425509D01*
X134618851Y-84425509D01*
X134601379Y-84430558D01*
X134580951Y-84425509D01*
X134559908Y-84425509D01*
X134544157Y-84416415D01*
X134526504Y-84412052D01*
X134511337Y-84397466D01*
X134493113Y-84386944D01*
X134484020Y-84371194D01*
X134470913Y-84358589D01*
X134465070Y-84338372D01*
X134454550Y-84320149D01*
X134454550Y-84301964D01*
X134449501Y-84284492D01*
X134454550Y-84268422D01*
X134454550Y-84243021D01*
X134468007Y-84209617D01*
X134472482Y-84201504D01*
X134493196Y-84172994D01*
X134513011Y-84134106D01*
X146249500Y-84134106D01*
X146249500Y-84134108D01*
X146249500Y-84265892D01*
X146283608Y-84393186D01*
X146297019Y-84416415D01*
X146349497Y-84507310D01*
X146349498Y-84507311D01*
X146349500Y-84507314D01*
X146442686Y-84600500D01*
X146556814Y-84666392D01*
X146684108Y-84700500D01*
X146815892Y-84700500D01*
X146943186Y-84666392D01*
X147057314Y-84600500D01*
X147144643Y-84513170D01*
X147211436Y-84474608D01*
X147288564Y-84474608D01*
X147355356Y-84513170D01*
X147442686Y-84600500D01*
X147556814Y-84666392D01*
X147684108Y-84700500D01*
X147815892Y-84700500D01*
X147943186Y-84666392D01*
X148057314Y-84600500D01*
X148150500Y-84507314D01*
X148216392Y-84393186D01*
X148250500Y-84265892D01*
X148250500Y-84134108D01*
X148250499Y-84134106D01*
X149249500Y-84134106D01*
X149249500Y-84134108D01*
X149249500Y-84265892D01*
X149283608Y-84393186D01*
X149297019Y-84416415D01*
X149349497Y-84507310D01*
X149349498Y-84507311D01*
X149349500Y-84507314D01*
X149442686Y-84600500D01*
X149556814Y-84666392D01*
X149684108Y-84700500D01*
X149815892Y-84700500D01*
X149943186Y-84666392D01*
X150057314Y-84600500D01*
X150150500Y-84507314D01*
X150216392Y-84393186D01*
X150250500Y-84265892D01*
X150250500Y-84134108D01*
X150216392Y-84006814D01*
X150150500Y-83892686D01*
X150057314Y-83799500D01*
X150057311Y-83799498D01*
X150057310Y-83799497D01*
X149986514Y-83758623D01*
X149943186Y-83733608D01*
X149815892Y-83699500D01*
X149684108Y-83699500D01*
X149556814Y-83733608D01*
X149556812Y-83733608D01*
X149556812Y-83733609D01*
X149442689Y-83799497D01*
X149349497Y-83892689D01*
X149283609Y-84006812D01*
X149283608Y-84006814D01*
X149282315Y-84011640D01*
X149249500Y-84134106D01*
X148250499Y-84134106D01*
X148216392Y-84006814D01*
X148150500Y-83892686D01*
X148057314Y-83799500D01*
X148057311Y-83799498D01*
X148057310Y-83799497D01*
X147986514Y-83758623D01*
X147943186Y-83733608D01*
X147815892Y-83699500D01*
X147684108Y-83699500D01*
X147556814Y-83733608D01*
X147556812Y-83733608D01*
X147556812Y-83733609D01*
X147442689Y-83799497D01*
X147442688Y-83799498D01*
X147442686Y-83799499D01*
X147442686Y-83799500D01*
X147355356Y-83886829D01*
X147288564Y-83925392D01*
X147211436Y-83925392D01*
X147144643Y-83886829D01*
X147057314Y-83799500D01*
X147057311Y-83799498D01*
X147057310Y-83799497D01*
X146986514Y-83758623D01*
X146943186Y-83733608D01*
X146815892Y-83699500D01*
X146684108Y-83699500D01*
X146556814Y-83733608D01*
X146556812Y-83733608D01*
X146556812Y-83733609D01*
X146442689Y-83799497D01*
X146349497Y-83892689D01*
X146283609Y-84006812D01*
X146283608Y-84006814D01*
X146282315Y-84011640D01*
X146249500Y-84134106D01*
X134513011Y-84134106D01*
X134575411Y-84011639D01*
X134631371Y-83839409D01*
X134659700Y-83660546D01*
X134659700Y-83479454D01*
X134631371Y-83300591D01*
X134575411Y-83128361D01*
X134493196Y-82967006D01*
X134493192Y-82967000D01*
X134493189Y-82966995D01*
X134453177Y-82911924D01*
X134453175Y-82911922D01*
X134419733Y-82865893D01*
X134396639Y-82834106D01*
X141199500Y-82834106D01*
X141199500Y-82965893D01*
X141199798Y-82967004D01*
X141233608Y-83093186D01*
X141233609Y-83093187D01*
X141299497Y-83207310D01*
X141299498Y-83207311D01*
X141299500Y-83207314D01*
X141392686Y-83300500D01*
X141392688Y-83300501D01*
X141392689Y-83300502D01*
X141420157Y-83316360D01*
X141506814Y-83366392D01*
X141634108Y-83400500D01*
X141765892Y-83400500D01*
X141893186Y-83366392D01*
X142007314Y-83300500D01*
X142100500Y-83207314D01*
X142166392Y-83093186D01*
X142200500Y-82965892D01*
X142200500Y-82834108D01*
X142166392Y-82706814D01*
X142100500Y-82592686D01*
X142007314Y-82499500D01*
X142007311Y-82499498D01*
X142007310Y-82499497D01*
X141903405Y-82439508D01*
X141893186Y-82433608D01*
X141765892Y-82399500D01*
X141634108Y-82399500D01*
X141506814Y-82433608D01*
X141506812Y-82433608D01*
X141506812Y-82433609D01*
X141392689Y-82499497D01*
X141299497Y-82592689D01*
X141233609Y-82706812D01*
X141199500Y-82834106D01*
X134396639Y-82834106D01*
X134386753Y-82820499D01*
X134258701Y-82692447D01*
X134112194Y-82586004D01*
X133950839Y-82503789D01*
X133778609Y-82447829D01*
X133599746Y-82419500D01*
X133418654Y-82419500D01*
X133239791Y-82447829D01*
X133067560Y-82503789D01*
X132906204Y-82586005D01*
X132906203Y-82586005D01*
X132759700Y-82692446D01*
X132759697Y-82692448D01*
X132631648Y-82820497D01*
X132631646Y-82820500D01*
X132525205Y-82967003D01*
X132525205Y-82967004D01*
X132442989Y-83128360D01*
X132442989Y-83128361D01*
X132387029Y-83300591D01*
X132358700Y-83479454D01*
X131000500Y-83479454D01*
X131000500Y-82024262D01*
X131001699Y-82016870D01*
X131000849Y-82004468D01*
X131000691Y-81999869D01*
X130998844Y-81995795D01*
X130994082Y-81984299D01*
X130989598Y-81978078D01*
X130084651Y-80168183D01*
X130069189Y-80092621D01*
X130093579Y-80019450D01*
X130151286Y-79968278D01*
X130226848Y-79952816D01*
X130300019Y-79977206D01*
X130349327Y-80031310D01*
X130493898Y-80301785D01*
X130493903Y-80301792D01*
X130684981Y-80587760D01*
X130903172Y-80853627D01*
X131146373Y-81096828D01*
X131412240Y-81315019D01*
X131529225Y-81393186D01*
X131698214Y-81506101D01*
X131849875Y-81587165D01*
X132001538Y-81668231D01*
X132226224Y-81761299D01*
X132319292Y-81799849D01*
X132319294Y-81799849D01*
X132319295Y-81799850D01*
X132648422Y-81899690D01*
X132985750Y-81966789D01*
X133328031Y-82000500D01*
X133328036Y-82000500D01*
X133671964Y-82000500D01*
X133671969Y-82000500D01*
X134014250Y-81966789D01*
X134351578Y-81899690D01*
X134680705Y-81799850D01*
X134998462Y-81668231D01*
X135301787Y-81506100D01*
X135587760Y-81315019D01*
X135808204Y-81134106D01*
X138099500Y-81134106D01*
X138099500Y-81134108D01*
X138099500Y-81265892D01*
X138133608Y-81393186D01*
X138156946Y-81433608D01*
X138199497Y-81507310D01*
X138199498Y-81507311D01*
X138199500Y-81507314D01*
X138292686Y-81600500D01*
X138406814Y-81666392D01*
X138534108Y-81700500D01*
X138665892Y-81700500D01*
X138793186Y-81666392D01*
X138907314Y-81600500D01*
X139000500Y-81507314D01*
X139066392Y-81393186D01*
X139100500Y-81265892D01*
X139100500Y-81234106D01*
X162199500Y-81234106D01*
X162199500Y-81234108D01*
X162199500Y-81365892D01*
X162233608Y-81493186D01*
X162241763Y-81507310D01*
X162299497Y-81607310D01*
X162299498Y-81607311D01*
X162299500Y-81607314D01*
X162392686Y-81700500D01*
X162392688Y-81700501D01*
X162392689Y-81700502D01*
X162403622Y-81706814D01*
X162506814Y-81766392D01*
X162634108Y-81800500D01*
X162765892Y-81800500D01*
X162893186Y-81766392D01*
X163007314Y-81700500D01*
X163100500Y-81607314D01*
X163166392Y-81493186D01*
X163200500Y-81365892D01*
X163200500Y-81234108D01*
X163166392Y-81106814D01*
X163100500Y-80992686D01*
X163007314Y-80899500D01*
X163007311Y-80899498D01*
X163007310Y-80899497D01*
X162927858Y-80853626D01*
X162893186Y-80833608D01*
X162765892Y-80799500D01*
X162634108Y-80799500D01*
X162506814Y-80833608D01*
X162506812Y-80833608D01*
X162506812Y-80833609D01*
X162392689Y-80899497D01*
X162299497Y-80992689D01*
X162233609Y-81106812D01*
X162199500Y-81234106D01*
X139100500Y-81234106D01*
X139100500Y-81134108D01*
X139066392Y-81006814D01*
X139004434Y-80899500D01*
X139000502Y-80892689D01*
X139000501Y-80892688D01*
X139000500Y-80892686D01*
X138907314Y-80799500D01*
X138907311Y-80799498D01*
X138907310Y-80799497D01*
X138836514Y-80758623D01*
X138793186Y-80733608D01*
X138665892Y-80699500D01*
X138534108Y-80699500D01*
X138406814Y-80733608D01*
X138406812Y-80733608D01*
X138406812Y-80733609D01*
X138292689Y-80799497D01*
X138199497Y-80892689D01*
X138141765Y-80992686D01*
X138133608Y-81006814D01*
X138117778Y-81065890D01*
X138099500Y-81134106D01*
X135808204Y-81134106D01*
X135853627Y-81096828D01*
X136096828Y-80853627D01*
X136315019Y-80587760D01*
X136506100Y-80301787D01*
X136668231Y-79998462D01*
X136799850Y-79680705D01*
X136899690Y-79351578D01*
X136966789Y-79014250D01*
X137000500Y-78671969D01*
X137000500Y-78328031D01*
X136966789Y-77985750D01*
X136899690Y-77648422D01*
X136799850Y-77319295D01*
X136668231Y-77001538D01*
X136506100Y-76698213D01*
X136315019Y-76412240D01*
X136096828Y-76146373D01*
X135853627Y-75903172D01*
X135587760Y-75684981D01*
X135554025Y-75662440D01*
X135301785Y-75493898D01*
X135066642Y-75368212D01*
X135031309Y-75349326D01*
X134975017Y-75296603D01*
X134952628Y-75222796D01*
X134970142Y-75147683D01*
X135022866Y-75091390D01*
X135096673Y-75069001D01*
X135168183Y-75084651D01*
G37*
%TD.AperFunction*%
%TD*%
M02*
