M48
; DRILL file KiCad 10.0.5 date 2026-10-02T21:51:51
; FORMAT={-:-/ absolute / metric / decimal}
; #@! TF.CreationDate,2026-10-02T21:51:51-03:00
; #@! TF.GenerationSoftware,Kicad,Pcbnew,10.0.5
; #@! TF.FileFunction,Plated,1,6,PTH
FMAT,2
METRIC
; #@! TA.AperFunction,Plated,PTH,ViaDrill
T1C0.200
; #@! TA.AperFunction,Plated,PTH,ComponentDrill
T2C1.000
; #@! TA.AperFunction,Plated,PTH,ComponentDrill
T3C3.200
%
G90
G05
T1
X134.8Y-84.9
X134.8Y-89.9
X134.8Y-95.0
X135.9Y-97.2
X136.0Y-104.6
X136.9Y-85.0
X136.9Y-85.9
X136.9Y-86.8
X136.9Y-87.6
X136.9Y-88.47
X136.9Y-89.3
X136.9Y-105.45
X137.6Y-99.2
X137.6Y-101.2
X137.6Y-102.2
X137.65Y-106.2
X137.7Y-103.1
X138.6Y-81.2
X138.85Y-92.6
X139.319Y-103.7
X141.7Y-82.9
X141.7Y-95.7
X141.75Y-92.8
X141.783Y-100.635
X141.9Y-87.0
X142.0Y-98.2
X142.0Y-98.9
X142.025Y-89.35
X142.271Y-107.142
X142.4Y-101.65
X143.55Y-106.253
X144.0Y-105.85
X144.526Y-102.87
X145.0Y-105.85
X145.4Y-95.8
X145.5Y-100.2
X145.6Y-88.7
X145.75Y-86.65
X146.0Y-82.0
X146.0Y-82.8
X146.475Y-91.7
X146.5Y-107.685
X146.75Y-84.2
X147.2Y-91.2
X147.4Y-98.3
X147.5Y-106.4
X147.75Y-84.2
X148.806Y-106.422
X149.0Y-86.8
X149.45Y-102.25
X149.7Y-98.3
X149.75Y-84.2
X149.806Y-106.422
X149.9Y-109.1
X150.65Y-98.175
X150.7Y-103.3
X150.75Y-96.85
X151.2Y-101.385
X152.0Y-105.8
X152.6Y-92.9
X152.883Y-83.515
X153.0Y-81.9
X153.0Y-108.6
X153.025Y-95.8
X153.325Y-106.45
X153.7Y-94.3
X153.7Y-95.2
X153.8Y-103.4
X154.1Y-89.0
X154.15Y-87.85
X154.2Y-91.6
X154.282Y-83.518
X154.506Y-100.9
X154.7Y-102.4
X154.893Y-102.915
X155.5Y-99.9
X155.6Y-95.4
X155.7Y-97.0
X156.0Y-106.95
X156.0Y-108.6
X157.239Y-108.139
X157.3Y-108.8
X157.575Y-101.4
X157.6Y-100.8
X158.05Y-98.0
X158.25Y-96.328
X158.25Y-97.106
X158.25Y-88.9
X158.3Y-89.9
X159.4Y-109.1
X159.775Y-96.476
X160.0Y-93.85
X160.5Y-101.7
X160.6Y-105.1
X160.675Y-90.375
X160.7Y-106.1
X161.1Y-109.425
X161.2Y-96.4
X161.3Y-106.7
X161.398Y-99.318
X161.4Y-101.7
X161.6Y-100.6
X162.0Y-101.225
X162.0Y-102.9
X162.1Y-108.075
X162.1Y-109.2
X162.45Y-85.35
X162.6Y-90.471
X162.7Y-81.3
X162.7Y-86.15
X163.0Y-97.6
X163.0Y-98.6
X163.2Y-102.1
X163.4Y-85.3
X163.8Y-87.8
X163.8Y-88.4
X163.8Y-89.022
X163.825Y-101.15
X163.9Y-86.875
X163.9Y-103.4
X163.9Y-104.0
X163.9Y-104.6
X164.675Y-83.625
T2
X133.509Y-83.57
X133.509Y-86.11
X133.509Y-88.65
X133.509Y-91.19
X133.509Y-93.73
X133.509Y-96.27
X133.509Y-98.81
X133.509Y-101.35
X133.509Y-103.89
X133.509Y-106.43
X138.57Y-78.509
X138.57Y-111.491
X141.11Y-78.509
X141.11Y-111.491
X143.65Y-78.509
X143.65Y-111.491
X146.19Y-78.509
X146.19Y-111.491
X148.73Y-78.509
X148.73Y-111.491
X148.736Y-95.022
X151.27Y-78.509
X151.27Y-111.491
X151.276Y-95.022
X153.81Y-78.509
X153.81Y-111.491
X156.35Y-78.509
X156.35Y-111.491
X158.89Y-78.509
X158.89Y-111.491
X161.43Y-78.509
X161.43Y-111.491
X166.491Y-83.57
X166.491Y-86.11
X166.491Y-88.65
X166.491Y-91.19
X166.491Y-93.73
X166.491Y-96.27
X166.491Y-98.81
X166.491Y-101.35
X166.491Y-103.89
X166.491Y-106.43
T3
X133.5Y-78.5
X133.5Y-111.5
X166.5Y-78.5
X166.5Y-111.5
M30
