%TF.GenerationSoftware,KiCad,Pcbnew,10.0.5*%
%TF.CreationDate,2026-10-02T21:58:30-03:00*%
%TF.ProjectId,PQ_ADCS,50515f41-4443-4532-9e6b-696361645f70,2.0*%
%TF.SameCoordinates,Original*%
%TF.FileFunction,Profile,NP*%
%FSLAX46Y46*%
G04 Gerber Fmt 4.6, Leading zero omitted, Abs format (unit mm)*
G04 Created by KiCad (PCBNEW 10.0.5) date 2026-10-02 21:58:30*
%MOMM*%
%LPD*%
G01*
G04 APERTURE LIST*
%TA.AperFunction,Profile*%
%ADD10C,0.250000*%
%TD*%
%TA.AperFunction,Profile*%
%ADD11C,0.254000*%
%TD*%
G04 APERTURE END LIST*
D10*
X130000000Y-76000000D02*
G75*
G02*
X131000000Y-75000000I1000000J0D01*
G01*
X130000000Y-80000000D02*
X130000000Y-76000000D01*
X130000000Y-110000000D02*
X131000000Y-108000000D01*
X130000000Y-114000000D02*
X130000000Y-110000000D01*
X131000000Y-75000000D02*
X135000000Y-75000000D01*
X131000000Y-82000000D02*
X130000000Y-80000000D01*
X131000000Y-108000000D02*
X131000000Y-82000000D01*
X131000000Y-115000000D02*
G75*
G02*
X130000000Y-114000000I0J1000000D01*
G01*
X135000000Y-75000000D02*
X137000000Y-76000000D01*
X135000000Y-115000000D02*
X131000000Y-115000000D01*
X137000000Y-76000000D02*
X163000000Y-76000000D01*
X137000000Y-114000000D02*
X135000000Y-115000000D01*
X163000000Y-76000000D02*
X165000000Y-75000000D01*
X163000000Y-114000000D02*
X137000000Y-114000000D01*
X163000000Y-114000000D02*
X165000000Y-115000000D01*
X165000000Y-115000000D02*
X169000000Y-115000000D01*
D11*
X169000000Y-75000000D02*
X165000000Y-75000000D01*
X169000000Y-75000000D02*
G75*
G02*
X170000000Y-76000209I-100J-1000100D01*
G01*
D10*
X169000000Y-82000000D02*
X169000000Y-108000000D01*
X169000000Y-108000000D02*
X170000000Y-110000000D01*
X170000000Y-80000000D02*
X169000000Y-82000000D01*
X170000000Y-80000000D02*
X170000000Y-76000209D01*
X170000000Y-110000000D02*
X170000000Y-114000000D01*
X170000000Y-114000000D02*
G75*
G02*
X169000000Y-115000000I-1000000J0D01*
G01*
M02*
