%TF.GenerationSoftware,KiCad,Pcbnew,10.0.5*%
%TF.CreationDate,2026-10-02T21:58:30-03:00*%
%TF.ProjectId,PQ_ADCS,50515f41-4443-4532-9e6b-696361645f70,2.0*%
%TF.SameCoordinates,Original*%
%TF.FileFunction,Legend,Bot*%
%TF.FilePolarity,Positive*%
%FSLAX46Y46*%
G04 Gerber Fmt 4.6, Leading zero omitted, Abs format (unit mm)*
G04 Created by KiCad (PCBNEW 10.0.5) date 2026-10-02 21:58:30*
%MOMM*%
%LPD*%
G01*
G04 APERTURE LIST*
G04 Aperture macros list*
%AMRoundRect*
0 Rectangle with rounded corners*
0 $1 Rounding radius*
0 $2 $3 $4 $5 $6 $7 $8 $9 X,Y pos of 4 corners*
0 Add a 4 corners polygon primitive as box body*
4,1,4,$2,$3,$4,$5,$6,$7,$8,$9,$2,$3,0*
0 Add four circle primitives for the rounded corners*
1,1,$1+$1,$2,$3*
1,1,$1+$1,$4,$5*
1,1,$1+$1,$6,$7*
1,1,$1+$1,$8,$9*
0 Add four rect primitives between the rounded corners*
20,1,$1+$1,$2,$3,$4,$5,0*
20,1,$1+$1,$4,$5,$6,$7,0*
20,1,$1+$1,$6,$7,$8,$9,0*
20,1,$1+$1,$8,$9,$2,$3,0*%
G04 Aperture macros list end*
%ADD10C,0.298607*%
%ADD11C,0.100000*%
%ADD12C,0.150000*%
%ADD13C,0.120000*%
%ADD14C,0.200000*%
%ADD15C,0.500000*%
%ADD16C,6.400000*%
%ADD17R,1.700000X1.700000*%
%ADD18O,1.700000X1.700000*%
%ADD19R,1.500000X0.600000*%
%ADD20R,1.800000X1.200000*%
%ADD21RoundRect,0.150000X-0.150000X-0.600000X0.150000X-0.600000X0.150000X0.600000X-0.150000X0.600000X0*%
%ADD22RoundRect,0.250000X-0.350000X-0.650000X0.350000X-0.650000X0.350000X0.650000X-0.350000X0.650000X0*%
%ADD23RoundRect,0.150000X0.150000X0.600000X-0.150000X0.600000X-0.150000X-0.600000X0.150000X-0.600000X0*%
%ADD24RoundRect,0.250000X0.350000X0.650000X-0.350000X0.650000X-0.350000X-0.650000X0.350000X-0.650000X0*%
G04 APERTURE END LIST*
D10*
X142949303Y-86900000D02*
G75*
G02*
X142650697Y-86900000I-149303J0D01*
G01*
X142650697Y-86900000D02*
G75*
G02*
X142949303Y-86900000I149303J0D01*
G01*
X157149303Y-103100000D02*
G75*
G02*
X156850697Y-103100000I-149303J0D01*
G01*
X156850697Y-103100000D02*
G75*
G02*
X157149303Y-103100000I149303J0D01*
G01*
D11*
X151247618Y-102489371D02*
X151247618Y-102679847D01*
X151380951Y-102279847D02*
X151247618Y-102489371D01*
X151247618Y-102489371D02*
X151114285Y-102279847D01*
X150980951Y-102527466D02*
X150676190Y-102527466D01*
X155866666Y-87357858D02*
X155866666Y-86957858D01*
X155866666Y-86957858D02*
X155638095Y-87357858D01*
X155638095Y-87357858D02*
X155638095Y-86957858D01*
X155504761Y-86957858D02*
X155276190Y-86957858D01*
X155390476Y-87357858D02*
X155390476Y-86957858D01*
X154914285Y-87319763D02*
X154933333Y-87338811D01*
X154933333Y-87338811D02*
X154990475Y-87357858D01*
X154990475Y-87357858D02*
X155028571Y-87357858D01*
X155028571Y-87357858D02*
X155085714Y-87338811D01*
X155085714Y-87338811D02*
X155123809Y-87300715D01*
X155123809Y-87300715D02*
X155142856Y-87262620D01*
X155142856Y-87262620D02*
X155161904Y-87186430D01*
X155161904Y-87186430D02*
X155161904Y-87129287D01*
X155161904Y-87129287D02*
X155142856Y-87053096D01*
X155142856Y-87053096D02*
X155123809Y-87015001D01*
X155123809Y-87015001D02*
X155085714Y-86976906D01*
X155085714Y-86976906D02*
X155028571Y-86957858D01*
X155028571Y-86957858D02*
X154990475Y-86957858D01*
X154990475Y-86957858D02*
X154933333Y-86976906D01*
X154933333Y-86976906D02*
X154914285Y-86995953D01*
X154114285Y-87357858D02*
X154133333Y-87357858D01*
X154133333Y-87357858D02*
X154171428Y-87338811D01*
X154171428Y-87338811D02*
X154228571Y-87281668D01*
X154228571Y-87281668D02*
X154323809Y-87167382D01*
X154323809Y-87167382D02*
X154361904Y-87110239D01*
X154361904Y-87110239D02*
X154380952Y-87053096D01*
X154380952Y-87053096D02*
X154380952Y-87015001D01*
X154380952Y-87015001D02*
X154361904Y-86976906D01*
X154361904Y-86976906D02*
X154323809Y-86957858D01*
X154323809Y-86957858D02*
X154304761Y-86957858D01*
X154304761Y-86957858D02*
X154266666Y-86976906D01*
X154266666Y-86976906D02*
X154247618Y-87015001D01*
X154247618Y-87015001D02*
X154247618Y-87034049D01*
X154247618Y-87034049D02*
X154266666Y-87072144D01*
X154266666Y-87072144D02*
X154285713Y-87091191D01*
X154285713Y-87091191D02*
X154399999Y-87167382D01*
X154399999Y-87167382D02*
X154419047Y-87186430D01*
X154419047Y-87186430D02*
X154438094Y-87224525D01*
X154438094Y-87224525D02*
X154438094Y-87281668D01*
X154438094Y-87281668D02*
X154419047Y-87319763D01*
X154419047Y-87319763D02*
X154399999Y-87338811D01*
X154399999Y-87338811D02*
X154361904Y-87357858D01*
X154361904Y-87357858D02*
X154304761Y-87357858D01*
X154304761Y-87357858D02*
X154266666Y-87338811D01*
X154266666Y-87338811D02*
X154247618Y-87319763D01*
X154247618Y-87319763D02*
X154190475Y-87243572D01*
X154190475Y-87243572D02*
X154171428Y-87186430D01*
X154171428Y-87186430D02*
X154171428Y-87148334D01*
X155999999Y-88001836D02*
X155999999Y-87601836D01*
X155999999Y-87792312D02*
X155771428Y-87792312D01*
X155771428Y-88001836D02*
X155771428Y-87601836D01*
X155580951Y-87792312D02*
X155447618Y-87792312D01*
X155390475Y-88001836D02*
X155580951Y-88001836D01*
X155580951Y-88001836D02*
X155580951Y-87601836D01*
X155580951Y-87601836D02*
X155390475Y-87601836D01*
X155238094Y-87887550D02*
X155047618Y-87887550D01*
X155276189Y-88001836D02*
X155142856Y-87601836D01*
X155142856Y-87601836D02*
X155009523Y-88001836D01*
X154933332Y-87601836D02*
X154704761Y-87601836D01*
X154819047Y-88001836D02*
X154819047Y-87601836D01*
X154571427Y-87792312D02*
X154438094Y-87792312D01*
X154380951Y-88001836D02*
X154571427Y-88001836D01*
X154571427Y-88001836D02*
X154571427Y-87601836D01*
X154571427Y-87601836D02*
X154380951Y-87601836D01*
X153980951Y-88001836D02*
X154114284Y-87811360D01*
X154209522Y-88001836D02*
X154209522Y-87601836D01*
X154209522Y-87601836D02*
X154057141Y-87601836D01*
X154057141Y-87601836D02*
X154019046Y-87620884D01*
X154019046Y-87620884D02*
X153999999Y-87639931D01*
X153999999Y-87639931D02*
X153980951Y-87678027D01*
X153980951Y-87678027D02*
X153980951Y-87735169D01*
X153980951Y-87735169D02*
X153999999Y-87773265D01*
X153999999Y-87773265D02*
X154019046Y-87792312D01*
X154019046Y-87792312D02*
X154057141Y-87811360D01*
X154057141Y-87811360D02*
X154209522Y-87811360D01*
X142972533Y-89213256D02*
X142972533Y-88908495D01*
X142820152Y-89060875D02*
X143124914Y-89060875D01*
X143220152Y-88756114D02*
X143220152Y-88489447D01*
X143220152Y-88489447D02*
X142820152Y-88756114D01*
X142820152Y-88756114D02*
X142820152Y-88489447D01*
X156972533Y-89242856D02*
X156972533Y-88938095D01*
X157220152Y-88785714D02*
X157220152Y-88519047D01*
X157220152Y-88519047D02*
X156820152Y-88785714D01*
X156820152Y-88785714D02*
X156820152Y-88519047D01*
X147008808Y-88027466D02*
X146704047Y-88027466D01*
X146856427Y-88179847D02*
X146856427Y-87875085D01*
X146437380Y-87989371D02*
X146437380Y-88179847D01*
X146570713Y-87779847D02*
X146437380Y-87989371D01*
X146437380Y-87989371D02*
X146304047Y-87779847D01*
X143027466Y-101688856D02*
X143027466Y-101384095D01*
X142779847Y-101231714D02*
X143179847Y-100965047D01*
X142779847Y-100965047D02*
X143179847Y-101231714D01*
X157027466Y-101180856D02*
X157027466Y-100876095D01*
X157179847Y-101028475D02*
X156875085Y-101028475D01*
X156779847Y-100723714D02*
X157179847Y-100457047D01*
X156779847Y-100457047D02*
X157179847Y-100723714D01*
D12*
X150647619Y-97062295D02*
X150647619Y-97633723D01*
X150647619Y-97633723D02*
X150685714Y-97748009D01*
X150685714Y-97748009D02*
X150761905Y-97824200D01*
X150761905Y-97824200D02*
X150876190Y-97862295D01*
X150876190Y-97862295D02*
X150952381Y-97862295D01*
X149847619Y-97862295D02*
X150304762Y-97862295D01*
X150076190Y-97862295D02*
X150076190Y-97062295D01*
X150076190Y-97062295D02*
X150152381Y-97176580D01*
X150152381Y-97176580D02*
X150228571Y-97252771D01*
X150228571Y-97252771D02*
X150304762Y-97290866D01*
X149542857Y-97138485D02*
X149504761Y-97100390D01*
X149504761Y-97100390D02*
X149428571Y-97062295D01*
X149428571Y-97062295D02*
X149238095Y-97062295D01*
X149238095Y-97062295D02*
X149161904Y-97100390D01*
X149161904Y-97100390D02*
X149123809Y-97138485D01*
X149123809Y-97138485D02*
X149085714Y-97214676D01*
X149085714Y-97214676D02*
X149085714Y-97290866D01*
X149085714Y-97290866D02*
X149123809Y-97405152D01*
X149123809Y-97405152D02*
X149580952Y-97862295D01*
X149580952Y-97862295D02*
X149085714Y-97862295D01*
X157431695Y-88828331D02*
X158003123Y-88828331D01*
X158003123Y-88828331D02*
X158117409Y-88790236D01*
X158117409Y-88790236D02*
X158193600Y-88714045D01*
X158193600Y-88714045D02*
X158231695Y-88599760D01*
X158231695Y-88599760D02*
X158231695Y-88523569D01*
X157774552Y-89323569D02*
X157736457Y-89247379D01*
X157736457Y-89247379D02*
X157698361Y-89209284D01*
X157698361Y-89209284D02*
X157622171Y-89171188D01*
X157622171Y-89171188D02*
X157584076Y-89171188D01*
X157584076Y-89171188D02*
X157507885Y-89209284D01*
X157507885Y-89209284D02*
X157469790Y-89247379D01*
X157469790Y-89247379D02*
X157431695Y-89323569D01*
X157431695Y-89323569D02*
X157431695Y-89475950D01*
X157431695Y-89475950D02*
X157469790Y-89552141D01*
X157469790Y-89552141D02*
X157507885Y-89590236D01*
X157507885Y-89590236D02*
X157584076Y-89628331D01*
X157584076Y-89628331D02*
X157622171Y-89628331D01*
X157622171Y-89628331D02*
X157698361Y-89590236D01*
X157698361Y-89590236D02*
X157736457Y-89552141D01*
X157736457Y-89552141D02*
X157774552Y-89475950D01*
X157774552Y-89475950D02*
X157774552Y-89323569D01*
X157774552Y-89323569D02*
X157812647Y-89247379D01*
X157812647Y-89247379D02*
X157850742Y-89209284D01*
X157850742Y-89209284D02*
X157926933Y-89171188D01*
X157926933Y-89171188D02*
X158079314Y-89171188D01*
X158079314Y-89171188D02*
X158155504Y-89209284D01*
X158155504Y-89209284D02*
X158193600Y-89247379D01*
X158193600Y-89247379D02*
X158231695Y-89323569D01*
X158231695Y-89323569D02*
X158231695Y-89475950D01*
X158231695Y-89475950D02*
X158193600Y-89552141D01*
X158193600Y-89552141D02*
X158155504Y-89590236D01*
X158155504Y-89590236D02*
X158079314Y-89628331D01*
X158079314Y-89628331D02*
X157926933Y-89628331D01*
X157926933Y-89628331D02*
X157850742Y-89590236D01*
X157850742Y-89590236D02*
X157812647Y-89552141D01*
X157812647Y-89552141D02*
X157774552Y-89475950D01*
X157340266Y-86735095D02*
X157340266Y-87306523D01*
X157340266Y-87306523D02*
X157378361Y-87420809D01*
X157378361Y-87420809D02*
X157454552Y-87497000D01*
X157454552Y-87497000D02*
X157568837Y-87535095D01*
X157568837Y-87535095D02*
X157645028Y-87535095D01*
X156578361Y-86735095D02*
X156959313Y-86735095D01*
X156959313Y-86735095D02*
X156997409Y-87116047D01*
X156997409Y-87116047D02*
X156959313Y-87077952D01*
X156959313Y-87077952D02*
X156883123Y-87039857D01*
X156883123Y-87039857D02*
X156692647Y-87039857D01*
X156692647Y-87039857D02*
X156616456Y-87077952D01*
X156616456Y-87077952D02*
X156578361Y-87116047D01*
X156578361Y-87116047D02*
X156540266Y-87192238D01*
X156540266Y-87192238D02*
X156540266Y-87382714D01*
X156540266Y-87382714D02*
X156578361Y-87458904D01*
X156578361Y-87458904D02*
X156616456Y-87497000D01*
X156616456Y-87497000D02*
X156692647Y-87535095D01*
X156692647Y-87535095D02*
X156883123Y-87535095D01*
X156883123Y-87535095D02*
X156959313Y-87497000D01*
X156959313Y-87497000D02*
X156997409Y-87458904D01*
X141548295Y-100633934D02*
X142119723Y-100633934D01*
X142119723Y-100633934D02*
X142234009Y-100595839D01*
X142234009Y-100595839D02*
X142310200Y-100519648D01*
X142310200Y-100519648D02*
X142348295Y-100405363D01*
X142348295Y-100405363D02*
X142348295Y-100329172D01*
X141548295Y-101357744D02*
X141548295Y-101205363D01*
X141548295Y-101205363D02*
X141586390Y-101129172D01*
X141586390Y-101129172D02*
X141624485Y-101091077D01*
X141624485Y-101091077D02*
X141738771Y-101014887D01*
X141738771Y-101014887D02*
X141891152Y-100976791D01*
X141891152Y-100976791D02*
X142195914Y-100976791D01*
X142195914Y-100976791D02*
X142272104Y-101014887D01*
X142272104Y-101014887D02*
X142310200Y-101052982D01*
X142310200Y-101052982D02*
X142348295Y-101129172D01*
X142348295Y-101129172D02*
X142348295Y-101281553D01*
X142348295Y-101281553D02*
X142310200Y-101357744D01*
X142310200Y-101357744D02*
X142272104Y-101395839D01*
X142272104Y-101395839D02*
X142195914Y-101433934D01*
X142195914Y-101433934D02*
X142005438Y-101433934D01*
X142005438Y-101433934D02*
X141929247Y-101395839D01*
X141929247Y-101395839D02*
X141891152Y-101357744D01*
X141891152Y-101357744D02*
X141853057Y-101281553D01*
X141853057Y-101281553D02*
X141853057Y-101129172D01*
X141853057Y-101129172D02*
X141891152Y-101052982D01*
X141891152Y-101052982D02*
X141929247Y-101014887D01*
X141929247Y-101014887D02*
X142005438Y-100976791D01*
X141649895Y-88102934D02*
X142221323Y-88102934D01*
X142221323Y-88102934D02*
X142335609Y-88064839D01*
X142335609Y-88064839D02*
X142411800Y-87988648D01*
X142411800Y-87988648D02*
X142449895Y-87874363D01*
X142449895Y-87874363D02*
X142449895Y-87798172D01*
X142449895Y-88521982D02*
X142449895Y-88674363D01*
X142449895Y-88674363D02*
X142411800Y-88750553D01*
X142411800Y-88750553D02*
X142373704Y-88788649D01*
X142373704Y-88788649D02*
X142259419Y-88864839D01*
X142259419Y-88864839D02*
X142107038Y-88902934D01*
X142107038Y-88902934D02*
X141802276Y-88902934D01*
X141802276Y-88902934D02*
X141726085Y-88864839D01*
X141726085Y-88864839D02*
X141687990Y-88826744D01*
X141687990Y-88826744D02*
X141649895Y-88750553D01*
X141649895Y-88750553D02*
X141649895Y-88598172D01*
X141649895Y-88598172D02*
X141687990Y-88521982D01*
X141687990Y-88521982D02*
X141726085Y-88483887D01*
X141726085Y-88483887D02*
X141802276Y-88445791D01*
X141802276Y-88445791D02*
X141992752Y-88445791D01*
X141992752Y-88445791D02*
X142068942Y-88483887D01*
X142068942Y-88483887D02*
X142107038Y-88521982D01*
X142107038Y-88521982D02*
X142145133Y-88598172D01*
X142145133Y-88598172D02*
X142145133Y-88750553D01*
X142145133Y-88750553D02*
X142107038Y-88826744D01*
X142107038Y-88826744D02*
X142068942Y-88864839D01*
X142068942Y-88864839D02*
X141992752Y-88902934D01*
X147358819Y-86557295D02*
X147358819Y-87128723D01*
X147358819Y-87128723D02*
X147396914Y-87243009D01*
X147396914Y-87243009D02*
X147473105Y-87319200D01*
X147473105Y-87319200D02*
X147587390Y-87357295D01*
X147587390Y-87357295D02*
X147663581Y-87357295D01*
X146558819Y-87357295D02*
X147015962Y-87357295D01*
X146787390Y-87357295D02*
X146787390Y-86557295D01*
X146787390Y-86557295D02*
X146863581Y-86671580D01*
X146863581Y-86671580D02*
X146939771Y-86747771D01*
X146939771Y-86747771D02*
X147015962Y-86785866D01*
X146063580Y-86557295D02*
X145987390Y-86557295D01*
X145987390Y-86557295D02*
X145911199Y-86595390D01*
X145911199Y-86595390D02*
X145873104Y-86633485D01*
X145873104Y-86633485D02*
X145835009Y-86709676D01*
X145835009Y-86709676D02*
X145796914Y-86862057D01*
X145796914Y-86862057D02*
X145796914Y-87052533D01*
X145796914Y-87052533D02*
X145835009Y-87204914D01*
X145835009Y-87204914D02*
X145873104Y-87281104D01*
X145873104Y-87281104D02*
X145911199Y-87319200D01*
X145911199Y-87319200D02*
X145987390Y-87357295D01*
X145987390Y-87357295D02*
X146063580Y-87357295D01*
X146063580Y-87357295D02*
X146139771Y-87319200D01*
X146139771Y-87319200D02*
X146177866Y-87281104D01*
X146177866Y-87281104D02*
X146215961Y-87204914D01*
X146215961Y-87204914D02*
X146254057Y-87052533D01*
X146254057Y-87052533D02*
X146254057Y-86862057D01*
X146254057Y-86862057D02*
X146215961Y-86709676D01*
X146215961Y-86709676D02*
X146177866Y-86633485D01*
X146177866Y-86633485D02*
X146139771Y-86595390D01*
X146139771Y-86595390D02*
X146063580Y-86557295D01*
X157677295Y-100847731D02*
X158248723Y-100847731D01*
X158248723Y-100847731D02*
X158363009Y-100809636D01*
X158363009Y-100809636D02*
X158439200Y-100733445D01*
X158439200Y-100733445D02*
X158477295Y-100619160D01*
X158477295Y-100619160D02*
X158477295Y-100542969D01*
X157677295Y-101152493D02*
X157677295Y-101685827D01*
X157677295Y-101685827D02*
X158477295Y-101342969D01*
X150547219Y-102813295D02*
X150547219Y-103384723D01*
X150547219Y-103384723D02*
X150585314Y-103499009D01*
X150585314Y-103499009D02*
X150661505Y-103575200D01*
X150661505Y-103575200D02*
X150775790Y-103613295D01*
X150775790Y-103613295D02*
X150851981Y-103613295D01*
X149747219Y-103613295D02*
X150204362Y-103613295D01*
X149975790Y-103613295D02*
X149975790Y-102813295D01*
X149975790Y-102813295D02*
X150051981Y-102927580D01*
X150051981Y-102927580D02*
X150128171Y-103003771D01*
X150128171Y-103003771D02*
X150204362Y-103041866D01*
X148985314Y-103613295D02*
X149442457Y-103613295D01*
X149213885Y-103613295D02*
X149213885Y-102813295D01*
X149213885Y-102813295D02*
X149290076Y-102927580D01*
X149290076Y-102927580D02*
X149366266Y-103003771D01*
X149366266Y-103003771D02*
X149442457Y-103041866D01*
%TO.C,J12*%
D13*
X147405800Y-93692000D02*
X147405800Y-95022000D01*
X148735800Y-93692000D02*
X147405800Y-93692000D01*
X150005800Y-93692000D02*
X150005800Y-96352000D01*
X150005800Y-93692000D02*
X152605800Y-93692000D01*
X150005800Y-96352000D02*
X152605800Y-96352000D01*
X152605800Y-93692000D02*
X152605800Y-96352000D01*
%TO.C,J8*%
D11*
X159937400Y-82310600D02*
X161787400Y-82310600D01*
X159937400Y-82810600D02*
X159937400Y-82310600D01*
X159937400Y-93810600D02*
X159937400Y-94310600D01*
X159937400Y-94310600D02*
X161787400Y-94310600D01*
X164787400Y-82310600D02*
X165287400Y-82310600D01*
X165287400Y-82310600D02*
X165287400Y-94110600D01*
X165287400Y-94110600D02*
X165287400Y-94310600D01*
X165287400Y-94310600D02*
X164787400Y-94310600D01*
D14*
X159087400Y-82910600D02*
G75*
G02*
X159287400Y-82910600I100000J0D01*
G01*
X159287400Y-82910600D02*
G75*
G02*
X159087400Y-82910600I-100000J0D01*
G01*
%TO.C,J5*%
D13*
X153549200Y-79818000D02*
X158769200Y-79818000D01*
X153549200Y-80368000D02*
X153549200Y-79818000D01*
X153549200Y-82688000D02*
X153549200Y-85388000D01*
X153549200Y-85388000D02*
X154599200Y-85388000D01*
X154599200Y-85388000D02*
X154599200Y-86178000D01*
X158769200Y-79818000D02*
X158769200Y-80368000D01*
X158769200Y-82688000D02*
X158769200Y-85388000D01*
X158769200Y-85388000D02*
X157719200Y-85388000D01*
%TO.C,J6*%
D11*
X134725800Y-95685000D02*
X135225800Y-95685000D01*
X134725800Y-95885000D02*
X134725800Y-95685000D01*
X134725800Y-107685000D02*
X134725800Y-95885000D01*
X135225800Y-107685000D02*
X134725800Y-107685000D01*
X140075800Y-95685000D02*
X138225800Y-95685000D01*
X140075800Y-96185000D02*
X140075800Y-95685000D01*
X140075800Y-107185000D02*
X140075800Y-107685000D01*
X140075800Y-107685000D02*
X138225800Y-107685000D01*
D14*
X140725800Y-107085000D02*
G75*
G02*
X140925800Y-107085000I100000J0D01*
G01*
X140925800Y-107085000D02*
G75*
G02*
X140725800Y-107085000I-100000J0D01*
G01*
%TO.C,J9*%
D11*
X134712000Y-82294600D02*
X135212000Y-82294600D01*
X134712000Y-82494600D02*
X134712000Y-82294600D01*
X134712000Y-94294600D02*
X134712000Y-82494600D01*
X135212000Y-94294600D02*
X134712000Y-94294600D01*
X140062000Y-82294600D02*
X138212000Y-82294600D01*
X140062000Y-82794600D02*
X140062000Y-82294600D01*
X140062000Y-93794600D02*
X140062000Y-94294600D01*
X140062000Y-94294600D02*
X138212000Y-94294600D01*
D14*
X140712000Y-93694600D02*
G75*
G02*
X140912000Y-93694600I100000J0D01*
G01*
X140912000Y-93694600D02*
G75*
G02*
X140712000Y-93694600I-100000J0D01*
G01*
%TO.C,Annotation1*%
X149663200Y-89989000D02*
X150263200Y-89989000D01*
X149863200Y-89989000D02*
X149863200Y-91889000D01*
X149863200Y-90589000D02*
X148563200Y-91889000D01*
X149863200Y-92289000D02*
X149863200Y-92589000D01*
X150063200Y-92589000D02*
X149663200Y-92589000D01*
X150263200Y-91889000D02*
X148563200Y-91889000D01*
X151563200Y-90189000D02*
X151963200Y-90189000D01*
X151563200Y-90589000D02*
X149863200Y-90589000D01*
X151563200Y-90589000D02*
X150263200Y-91889000D01*
X151563200Y-91889000D02*
X151563200Y-90189000D01*
X151963200Y-90189000D02*
G75*
G02*
X151963200Y-90589000I0J-200000D01*
G01*
X149270307Y-91889000D02*
G75*
G02*
X147856093Y-91889000I-707107J0D01*
G01*
X147856093Y-91889000D02*
G75*
G02*
X149270307Y-91889000I707107J0D01*
G01*
X150063200Y-92089000D02*
G75*
G02*
X149663200Y-92089000I-200000J0D01*
G01*
X149663200Y-92089000D02*
G75*
G02*
X150063200Y-92089000I200000J0D01*
G01*
X152270307Y-91889000D02*
G75*
G02*
X150856093Y-91889000I-707107J0D01*
G01*
X150856093Y-91889000D02*
G75*
G02*
X152270307Y-91889000I707107J0D01*
G01*
%TO.C,J10*%
D13*
X141151200Y-79818000D02*
X152371200Y-79818000D01*
X141151200Y-80368000D02*
X141151200Y-79818000D01*
X141151200Y-82688000D02*
X141151200Y-85388000D01*
X141151200Y-85388000D02*
X142201200Y-85388000D01*
X142201200Y-85388000D02*
X142201200Y-86178000D01*
X152371200Y-79818000D02*
X152371200Y-80368000D01*
X152371200Y-82688000D02*
X152371200Y-85388000D01*
X152371200Y-85388000D02*
X151321200Y-85388000D01*
%TO.C,J7*%
D11*
X159878200Y-95676200D02*
X161728200Y-95676200D01*
X159878200Y-96176200D02*
X159878200Y-95676200D01*
X159878200Y-107176200D02*
X159878200Y-107676200D01*
X159878200Y-107676200D02*
X161728200Y-107676200D01*
X164728200Y-95676200D02*
X165228200Y-95676200D01*
X165228200Y-95676200D02*
X165228200Y-107476200D01*
X165228200Y-107476200D02*
X165228200Y-107676200D01*
X165228200Y-107676200D02*
X164728200Y-107676200D01*
D14*
X159028200Y-96276200D02*
G75*
G02*
X159228200Y-96276200I100000J0D01*
G01*
X159228200Y-96276200D02*
G75*
G02*
X159028200Y-96276200I-100000J0D01*
G01*
%TO.C,J11*%
D13*
X141414600Y-104605000D02*
X142464600Y-104605000D01*
X141414600Y-107305000D02*
X141414600Y-104605000D01*
X141414600Y-110175000D02*
X141414600Y-109625000D01*
X157584600Y-104605000D02*
X157584600Y-103815000D01*
X158634600Y-104605000D02*
X157584600Y-104605000D01*
X158634600Y-107305000D02*
X158634600Y-104605000D01*
X158634600Y-109625000D02*
X158634600Y-110175000D01*
X158634600Y-110175000D02*
X141414600Y-110175000D01*
%TD*%
%LPC*%
D15*
X135500000Y-111500000D02*
G75*
G02*
X131500000Y-111500000I-2000000J0D01*
G01*
X131500000Y-111500000D02*
G75*
G02*
X135500000Y-111500000I2000000J0D01*
G01*
X135513000Y-78475000D02*
G75*
G02*
X131513000Y-78475000I-2000000J0D01*
G01*
X131513000Y-78475000D02*
G75*
G02*
X135513000Y-78475000I2000000J0D01*
G01*
X168500000Y-78500000D02*
G75*
G02*
X164500000Y-78500000I-2000000J0D01*
G01*
X164500000Y-78500000D02*
G75*
G02*
X168500000Y-78500000I2000000J0D01*
G01*
X168500000Y-111500000D02*
G75*
G02*
X164500000Y-111500000I-2000000J0D01*
G01*
X164500000Y-111500000D02*
G75*
G02*
X168500000Y-111500000I2000000J0D01*
G01*
D16*
%TO.C,H4*%
X133500000Y-111500000D03*
%TD*%
D17*
%TO.C,J1*%
X138570000Y-78509200D03*
D18*
X141110000Y-78509200D03*
X143650000Y-78509200D03*
X146190000Y-78509200D03*
X148730000Y-78509200D03*
X151270000Y-78509200D03*
X153810000Y-78509200D03*
X156350000Y-78509200D03*
X158890000Y-78509200D03*
X161430000Y-78509200D03*
%TD*%
D17*
%TO.C,J2*%
X166490800Y-83570000D03*
D18*
X166490800Y-86110000D03*
X166490800Y-88650000D03*
X166490800Y-91190000D03*
X166490800Y-93730000D03*
X166490800Y-96270000D03*
X166490800Y-98810000D03*
X166490800Y-101350000D03*
X166490800Y-103890000D03*
X166490800Y-106430000D03*
%TD*%
D16*
%TO.C,H1*%
X133500000Y-78500000D03*
%TD*%
D17*
%TO.C,J3*%
X161430000Y-111490800D03*
D18*
X158890000Y-111490800D03*
X156350000Y-111490800D03*
X153810000Y-111490800D03*
X151270000Y-111490800D03*
X148730000Y-111490800D03*
X146190000Y-111490800D03*
X143650000Y-111490800D03*
X141110000Y-111490800D03*
X138570000Y-111490800D03*
%TD*%
D17*
%TO.C,J4*%
X133509200Y-106430000D03*
D18*
X133509200Y-103890000D03*
X133509200Y-101350000D03*
X133509200Y-98810000D03*
X133509200Y-96270000D03*
X133509200Y-93730000D03*
X133509200Y-91190000D03*
X133509200Y-88650000D03*
X133509200Y-86110000D03*
X133509200Y-83570000D03*
%TD*%
D16*
%TO.C,H3*%
X166500000Y-111500000D03*
%TD*%
%TO.C,H2*%
X166500000Y-78500000D03*
%TD*%
D17*
%TO.C,J12*%
X148735800Y-95022000D03*
D18*
X151275800Y-95022000D03*
%TD*%
D19*
%TO.C,J8*%
X159537400Y-83810600D03*
X159537400Y-84810600D03*
X159537400Y-85810600D03*
X159537400Y-86810600D03*
X159537400Y-87810600D03*
X159537400Y-88810600D03*
X159537400Y-89810600D03*
X159537400Y-90810600D03*
X159537400Y-91810600D03*
X159537400Y-92810600D03*
D20*
X163437400Y-82510600D03*
X163437400Y-94110600D03*
%TD*%
D21*
%TO.C,J5*%
X155159200Y-85428000D03*
X156159200Y-85428000D03*
X157159200Y-85428000D03*
D22*
X153859200Y-81528000D03*
X158459200Y-81528000D03*
%TD*%
D19*
%TO.C,J6*%
X140475800Y-106185000D03*
X140475800Y-105185000D03*
X140475800Y-104185000D03*
X140475800Y-103185000D03*
X140475800Y-102185000D03*
X140475800Y-101185000D03*
X140475800Y-100185000D03*
X140475800Y-99185000D03*
X140475800Y-98185000D03*
X140475800Y-97185000D03*
D20*
X136575800Y-107485000D03*
X136575800Y-95885000D03*
%TD*%
D19*
%TO.C,J9*%
X140462000Y-92794600D03*
X140462000Y-91794600D03*
X140462000Y-90794600D03*
X140462000Y-89794600D03*
X140462000Y-88794600D03*
X140462000Y-87794600D03*
X140462000Y-86794600D03*
X140462000Y-85794600D03*
X140462000Y-84794600D03*
X140462000Y-83794600D03*
D20*
X136562000Y-94094600D03*
X136562000Y-82494600D03*
%TD*%
D21*
%TO.C,J10*%
X142761200Y-85428000D03*
X143761200Y-85428000D03*
X144761200Y-85428000D03*
X145761200Y-85428000D03*
X146761200Y-85428000D03*
X147761200Y-85428000D03*
X148761200Y-85428000D03*
X149761200Y-85428000D03*
X150761200Y-85428000D03*
D22*
X141461200Y-81528000D03*
X152061200Y-81528000D03*
%TD*%
D19*
%TO.C,J7*%
X159478200Y-97176200D03*
X159478200Y-98176200D03*
X159478200Y-99176200D03*
X159478200Y-100176200D03*
X159478200Y-101176200D03*
X159478200Y-102176200D03*
X159478200Y-103176200D03*
X159478200Y-104176200D03*
X159478200Y-105176200D03*
X159478200Y-106176200D03*
D20*
X163378200Y-95876200D03*
X163378200Y-107476200D03*
%TD*%
D23*
%TO.C,J11*%
X157024600Y-104565000D03*
X156024600Y-104565000D03*
X155024600Y-104565000D03*
X154024600Y-104565000D03*
X153024600Y-104565000D03*
X152024600Y-104565000D03*
X151024600Y-104565000D03*
X150024600Y-104565000D03*
X149024600Y-104565000D03*
X148024600Y-104565000D03*
X147024600Y-104565000D03*
X146024600Y-104565000D03*
X145024600Y-104565000D03*
X144024600Y-104565000D03*
X143024600Y-104565000D03*
D24*
X158324600Y-108465000D03*
X141724600Y-108465000D03*
%TD*%
%LPD*%
M02*
