%TF.GenerationSoftware,KiCad,Pcbnew,10.0.5*%
%TF.CreationDate,2026-10-02T21:58:30-03:00*%
%TF.ProjectId,PQ_ADCS,50515f41-4443-4532-9e6b-696361645f70,2.0*%
%TF.SameCoordinates,Original*%
%TF.FileFunction,Soldermask,Bot*%
%TF.FilePolarity,Negative*%
%FSLAX46Y46*%
G04 Gerber Fmt 4.6, Leading zero omitted, Abs format (unit mm)*
G04 Created by KiCad (PCBNEW 10.0.5) date 2026-10-02 21:58:30*
%MOMM*%
%LPD*%
G01*
G04 APERTURE LIST*
G04 Aperture macros list*
%AMRoundRect*
0 Rectangle with rounded corners*
0 $1 Rounding radius*
0 $2 $3 $4 $5 $6 $7 $8 $9 X,Y pos of 4 corners*
0 Add a 4 corners polygon primitive as box body*
4,1,4,$2,$3,$4,$5,$6,$7,$8,$9,$2,$3,0*
0 Add four circle primitives for the rounded corners*
1,1,$1+$1,$2,$3*
1,1,$1+$1,$4,$5*
1,1,$1+$1,$6,$7*
1,1,$1+$1,$8,$9*
0 Add four rect primitives between the rounded corners*
20,1,$1+$1,$2,$3,$4,$5,0*
20,1,$1+$1,$4,$5,$6,$7,0*
20,1,$1+$1,$6,$7,$8,$9,0*
20,1,$1+$1,$8,$9,$2,$3,0*%
G04 Aperture macros list end*
%ADD10C,0.500000*%
%ADD11C,6.400000*%
%ADD12R,1.700000X1.700000*%
%ADD13O,1.700000X1.700000*%
%ADD14R,1.500000X0.600000*%
%ADD15R,1.800000X1.200000*%
%ADD16RoundRect,0.150000X-0.150000X-0.600000X0.150000X-0.600000X0.150000X0.600000X-0.150000X0.600000X0*%
%ADD17RoundRect,0.250000X-0.350000X-0.650000X0.350000X-0.650000X0.350000X0.650000X-0.350000X0.650000X0*%
%ADD18RoundRect,0.150000X0.150000X0.600000X-0.150000X0.600000X-0.150000X-0.600000X0.150000X-0.600000X0*%
%ADD19RoundRect,0.250000X0.350000X0.650000X-0.350000X0.650000X-0.350000X-0.650000X0.350000X-0.650000X0*%
G04 APERTURE END LIST*
D10*
X135500000Y-111500000D02*
G75*
G02*
X131500000Y-111500000I-2000000J0D01*
G01*
X131500000Y-111500000D02*
G75*
G02*
X135500000Y-111500000I2000000J0D01*
G01*
X135513000Y-78475000D02*
G75*
G02*
X131513000Y-78475000I-2000000J0D01*
G01*
X131513000Y-78475000D02*
G75*
G02*
X135513000Y-78475000I2000000J0D01*
G01*
X168500000Y-78500000D02*
G75*
G02*
X164500000Y-78500000I-2000000J0D01*
G01*
X164500000Y-78500000D02*
G75*
G02*
X168500000Y-78500000I2000000J0D01*
G01*
X168500000Y-111500000D02*
G75*
G02*
X164500000Y-111500000I-2000000J0D01*
G01*
X164500000Y-111500000D02*
G75*
G02*
X168500000Y-111500000I2000000J0D01*
G01*
D11*
%TO.C,H4*%
X133500000Y-111500000D03*
%TD*%
D12*
%TO.C,J1*%
X138570000Y-78509200D03*
D13*
X141110000Y-78509200D03*
X143650000Y-78509200D03*
X146190000Y-78509200D03*
X148730000Y-78509200D03*
X151270000Y-78509200D03*
X153810000Y-78509200D03*
X156350000Y-78509200D03*
X158890000Y-78509200D03*
X161430000Y-78509200D03*
%TD*%
D12*
%TO.C,J2*%
X166490800Y-83570000D03*
D13*
X166490800Y-86110000D03*
X166490800Y-88650000D03*
X166490800Y-91190000D03*
X166490800Y-93730000D03*
X166490800Y-96270000D03*
X166490800Y-98810000D03*
X166490800Y-101350000D03*
X166490800Y-103890000D03*
X166490800Y-106430000D03*
%TD*%
D11*
%TO.C,H1*%
X133500000Y-78500000D03*
%TD*%
D12*
%TO.C,J3*%
X161430000Y-111490800D03*
D13*
X158890000Y-111490800D03*
X156350000Y-111490800D03*
X153810000Y-111490800D03*
X151270000Y-111490800D03*
X148730000Y-111490800D03*
X146190000Y-111490800D03*
X143650000Y-111490800D03*
X141110000Y-111490800D03*
X138570000Y-111490800D03*
%TD*%
D12*
%TO.C,J4*%
X133509200Y-106430000D03*
D13*
X133509200Y-103890000D03*
X133509200Y-101350000D03*
X133509200Y-98810000D03*
X133509200Y-96270000D03*
X133509200Y-93730000D03*
X133509200Y-91190000D03*
X133509200Y-88650000D03*
X133509200Y-86110000D03*
X133509200Y-83570000D03*
%TD*%
D11*
%TO.C,H3*%
X166500000Y-111500000D03*
%TD*%
%TO.C,H2*%
X166500000Y-78500000D03*
%TD*%
D12*
%TO.C,J12*%
X148735800Y-95022000D03*
D13*
X151275800Y-95022000D03*
%TD*%
D14*
%TO.C,J8*%
X159537400Y-83810600D03*
X159537400Y-84810600D03*
X159537400Y-85810600D03*
X159537400Y-86810600D03*
X159537400Y-87810600D03*
X159537400Y-88810600D03*
X159537400Y-89810600D03*
X159537400Y-90810600D03*
X159537400Y-91810600D03*
X159537400Y-92810600D03*
D15*
X163437400Y-82510600D03*
X163437400Y-94110600D03*
%TD*%
D16*
%TO.C,J5*%
X155159200Y-85428000D03*
X156159200Y-85428000D03*
X157159200Y-85428000D03*
D17*
X153859200Y-81528000D03*
X158459200Y-81528000D03*
%TD*%
D14*
%TO.C,J6*%
X140475800Y-106185000D03*
X140475800Y-105185000D03*
X140475800Y-104185000D03*
X140475800Y-103185000D03*
X140475800Y-102185000D03*
X140475800Y-101185000D03*
X140475800Y-100185000D03*
X140475800Y-99185000D03*
X140475800Y-98185000D03*
X140475800Y-97185000D03*
D15*
X136575800Y-107485000D03*
X136575800Y-95885000D03*
%TD*%
D14*
%TO.C,J9*%
X140462000Y-92794600D03*
X140462000Y-91794600D03*
X140462000Y-90794600D03*
X140462000Y-89794600D03*
X140462000Y-88794600D03*
X140462000Y-87794600D03*
X140462000Y-86794600D03*
X140462000Y-85794600D03*
X140462000Y-84794600D03*
X140462000Y-83794600D03*
D15*
X136562000Y-94094600D03*
X136562000Y-82494600D03*
%TD*%
D16*
%TO.C,J10*%
X142761200Y-85428000D03*
X143761200Y-85428000D03*
X144761200Y-85428000D03*
X145761200Y-85428000D03*
X146761200Y-85428000D03*
X147761200Y-85428000D03*
X148761200Y-85428000D03*
X149761200Y-85428000D03*
X150761200Y-85428000D03*
D17*
X141461200Y-81528000D03*
X152061200Y-81528000D03*
%TD*%
D14*
%TO.C,J7*%
X159478200Y-97176200D03*
X159478200Y-98176200D03*
X159478200Y-99176200D03*
X159478200Y-100176200D03*
X159478200Y-101176200D03*
X159478200Y-102176200D03*
X159478200Y-103176200D03*
X159478200Y-104176200D03*
X159478200Y-105176200D03*
X159478200Y-106176200D03*
D15*
X163378200Y-95876200D03*
X163378200Y-107476200D03*
%TD*%
D18*
%TO.C,J11*%
X157024600Y-104565000D03*
X156024600Y-104565000D03*
X155024600Y-104565000D03*
X154024600Y-104565000D03*
X153024600Y-104565000D03*
X152024600Y-104565000D03*
X151024600Y-104565000D03*
X150024600Y-104565000D03*
X149024600Y-104565000D03*
X148024600Y-104565000D03*
X147024600Y-104565000D03*
X146024600Y-104565000D03*
X145024600Y-104565000D03*
X144024600Y-104565000D03*
X143024600Y-104565000D03*
D19*
X158324600Y-108465000D03*
X141724600Y-108465000D03*
%TD*%
M02*
