M48
; DRILL file KiCad 10.0.5 date 2026-10-02T22:02:35
; FORMAT={-:-/ absolute / metric / decimal}
; #@! TF.CreationDate,2026-10-02T22:02:35-03:00
; #@! TF.GenerationSoftware,Kicad,Pcbnew,10.0.5
; #@! TF.FileFunction,Plated,1,6,PTH
FMAT,2
METRIC
; #@! TA.AperFunction,Plated,PTH,ViaDrill
T1C0.300
; #@! TA.AperFunction,Plated,PTH,ViaDrill
T2C0.305
; #@! TA.AperFunction,Plated,PTH,ViaDrill
T3C0.400
; #@! TA.AperFunction,Plated,PTH,ViaDrill
T4C0.500
; #@! TA.AperFunction,Plated,PTH,ComponentDrill
T5C1.200
; #@! TA.AperFunction,Plated,PTH,ComponentDrill
T6C2.200
%
G90
G05
T1
X130.251Y-53.155
X130.251Y-55.655
X130.251Y-58.155
X130.251Y-60.655
X132.944Y-53.177
X132.944Y-55.677
X132.944Y-58.177
X132.944Y-60.677
T2
X83.972Y-38.405
X85.293Y-75.489
X98.654Y-35.992
X100.242Y-57.628
X100.243Y-56.747
X105.715Y-35.992
X116.078Y-75.895
T3
X104.826Y-74.219
X126.594Y-50.038
T4
X86.411Y-74.27
X89.203Y-74.27
X92.053Y-74.27
X106.782Y-74.219
X109.474Y-74.219
X112.166Y-74.219
X114.859Y-74.219
X118.288Y-71.679
X118.288Y-74.219
X120.345Y-58.369
X126.885Y-52.605
X126.885Y-53.877
X126.885Y-55.177
X126.885Y-57.524
X126.885Y-58.774
X126.885Y-60.022
X126.885Y-61.277
T5
X121.92Y-41.0
X121.92Y-73.0
X127.0Y-41.0
X127.0Y-73.0
X132.08Y-41.0
X132.08Y-73.0
T6
X95.0Y-36.0
X95.0Y-78.0
X109.0Y-36.0
X109.0Y-78.0
X123.0Y-47.0
X123.0Y-67.0
M30
