%TF.GenerationSoftware,KiCad,Pcbnew,10.0.5*%
%TF.CreationDate,2026-10-02T22:30:36-03:00*%
%TF.ProjectId,PQ_MagYBoard,50515f4d-6167-4594-926f-6172642e6b69,rev?*%
%TF.SameCoordinates,Original*%
%TF.FileFunction,Copper,L5,Inr*%
%TF.FilePolarity,Positive*%
%FSLAX46Y46*%
G04 Gerber Fmt 4.6, Leading zero omitted, Abs format (unit mm)*
G04 Created by KiCad (PCBNEW 10.0.5) date 2026-10-02 22:30:36*
%MOMM*%
%LPD*%
G01*
G04 APERTURE LIST*
%TA.AperFunction,ViaPad*%
%ADD10C,0.800000*%
%TD*%
%TA.AperFunction,Conductor*%
%ADD11C,0.250000*%
%TD*%
G04 APERTURE END LIST*
D10*
%TO.N,/VCC_MAG*%
X101748000Y-60385000D03*
X89154000Y-74610000D03*
X101747000Y-61265000D03*
X89154000Y-46924000D03*
X114300000Y-74610000D03*
%TD*%
%TO.N,/VCC_MAG*%
D11*
X96907000Y-55545000D02*
X106587000Y-55545000D01*
X110547000Y-51585000D02*
X110547000Y-69625000D01*
X105708000Y-64799000D02*
X97346000Y-64799000D01*
X88997000Y-73145000D02*
X88997000Y-47625000D01*
X90747000Y-49385000D02*
X112747000Y-49385000D01*
X99988000Y-58626000D02*
X103506000Y-58626000D01*
X91187000Y-70945000D02*
X91187000Y-49825000D01*
X106587000Y-55545000D02*
X106587000Y-65662000D01*
X96470000Y-55106000D02*
X107026000Y-55106000D01*
X91187000Y-49825000D02*
X112307000Y-49825000D01*
X92947000Y-51585000D02*
X110547000Y-51585000D01*
X102627000Y-61281000D02*
X101763000Y-61281000D01*
X103948000Y-58185000D02*
X103948000Y-63026000D01*
X97788000Y-64344000D02*
X97788000Y-56424000D01*
X103506000Y-62589000D02*
X99546000Y-62589000D01*
X110107000Y-52025000D02*
X110107000Y-69185000D01*
X106147000Y-65230000D02*
X96907000Y-65230000D01*
X92507000Y-51145000D02*
X110987000Y-51145000D01*
X109227000Y-52905000D02*
X109227000Y-68305000D01*
X97346000Y-55985000D02*
X106147000Y-55985000D01*
X112307000Y-71385000D02*
X90747000Y-71385000D01*
X105708000Y-56424000D02*
X105708000Y-64799000D01*
X109227000Y-68305000D02*
X93827000Y-68305000D01*
X112307000Y-49825000D02*
X112307000Y-71385000D01*
X107026000Y-66094000D02*
X96038000Y-66094000D01*
X96038000Y-54664000D02*
X107468000Y-54664000D01*
X103066000Y-62144000D02*
X99988000Y-62144000D01*
X107026000Y-55106000D02*
X107026000Y-66094000D01*
X92947000Y-69185000D02*
X92947000Y-51585000D01*
X89427000Y-48065000D02*
X114067000Y-48065000D01*
X95147000Y-66986000D02*
X95147000Y-53775000D01*
X93387000Y-52025000D02*
X110107000Y-52025000D01*
X94707000Y-53345000D02*
X108787000Y-53345000D01*
X99546000Y-62589000D02*
X99546000Y-58185000D01*
X90747000Y-71385000D02*
X90747000Y-49385000D01*
X91627000Y-70505000D02*
X91627000Y-50265000D01*
X105266000Y-56866000D02*
X105266000Y-64344000D01*
X111427000Y-50705000D02*
X111427000Y-70505000D01*
X97346000Y-64799000D02*
X97346000Y-55985000D01*
X94267000Y-52905000D02*
X109227000Y-52905000D01*
X108787000Y-67865000D02*
X94267000Y-67865000D01*
X93827000Y-52465000D02*
X109667000Y-52465000D01*
X103948000Y-63026000D02*
X99107000Y-63026000D01*
X90318000Y-71825000D02*
X90318000Y-48945000D01*
X95586000Y-66546000D02*
X95586000Y-54232000D01*
X89427000Y-72705000D02*
X89427000Y-48065000D01*
X107468000Y-66546000D02*
X95586000Y-66546000D01*
X111867000Y-70945000D02*
X91187000Y-70945000D01*
X94267000Y-67865000D02*
X94267000Y-52905000D01*
X88997000Y-47625000D02*
X114507000Y-47625000D01*
X114507000Y-73585000D02*
X88540000Y-73585000D01*
X104827000Y-63905000D02*
X98228000Y-63905000D01*
X104387000Y-63465000D02*
X98667000Y-63465000D01*
X98228000Y-63905000D02*
X98228000Y-56866000D01*
X92507000Y-69625000D02*
X92507000Y-51145000D01*
X96907000Y-65230000D02*
X96907000Y-55545000D01*
X113627000Y-48505000D02*
X113627000Y-72705000D01*
X100427000Y-59058000D02*
X103066000Y-59058000D01*
X110987000Y-70065000D02*
X92067000Y-70065000D01*
X107908000Y-54232000D02*
X107908000Y-66986000D01*
X109667000Y-52465000D02*
X109667000Y-68793000D01*
X91627000Y-50265000D02*
X111867000Y-50265000D01*
X102627000Y-61705000D02*
X100427000Y-61705000D01*
X113187000Y-48945000D02*
X113187000Y-72265000D01*
X101763000Y-61281000D02*
X101747000Y-61265000D01*
X98667000Y-63465000D02*
X98667000Y-57306000D01*
X108787000Y-53345000D02*
X108787000Y-67865000D01*
X103506000Y-58626000D02*
X103506000Y-62589000D01*
X95147000Y-53775000D02*
X108347000Y-53775000D01*
X104827000Y-57306000D02*
X104827000Y-63905000D01*
X107468000Y-54664000D02*
X107468000Y-66546000D01*
X92067000Y-70065000D02*
X92067000Y-50705000D01*
X112747000Y-49385000D02*
X112747000Y-71825000D01*
X114067000Y-73145000D02*
X88997000Y-73145000D01*
X108347000Y-67425000D02*
X94707000Y-67425000D01*
X99107000Y-57745000D02*
X104387000Y-57745000D01*
X100427000Y-61705000D02*
X100427000Y-59058000D01*
X111427000Y-70505000D02*
X91627000Y-70505000D01*
X89867000Y-72265000D02*
X89867000Y-48505000D01*
X95586000Y-54232000D02*
X107908000Y-54232000D01*
X113627000Y-72705000D02*
X89427000Y-72705000D01*
X111867000Y-50265000D02*
X111867000Y-70945000D01*
X113187000Y-72265000D02*
X89867000Y-72265000D01*
X110107000Y-69185000D02*
X92947000Y-69185000D01*
X105266000Y-64344000D02*
X97788000Y-64344000D01*
X107908000Y-66986000D02*
X95147000Y-66986000D01*
X94707000Y-67425000D02*
X94707000Y-53345000D01*
X104387000Y-57745000D02*
X104387000Y-63465000D01*
X92067000Y-50705000D02*
X111427000Y-50705000D01*
X89154000Y-46924000D02*
X89048000Y-46924000D01*
X103066000Y-59058000D02*
X103066000Y-62144000D01*
X97788000Y-56424000D02*
X105708000Y-56424000D01*
X89867000Y-48505000D02*
X113627000Y-48505000D01*
X93827000Y-68305000D02*
X93827000Y-52465000D01*
X96470000Y-65662000D02*
X96470000Y-55106000D01*
X93387000Y-68794000D02*
X93387000Y-52025000D01*
X106587000Y-65662000D02*
X96470000Y-65662000D01*
X98228000Y-56866000D02*
X105266000Y-56866000D01*
X108347000Y-53775000D02*
X108347000Y-67425000D01*
X90318000Y-48945000D02*
X113187000Y-48945000D01*
X106147000Y-55985000D02*
X106147000Y-65230000D01*
X102627000Y-61281000D02*
X102627000Y-61705000D01*
X99546000Y-58185000D02*
X103948000Y-58185000D01*
X88540000Y-73585000D02*
X88540000Y-47432000D01*
X96038000Y-66094000D02*
X96038000Y-54664000D01*
X89048000Y-46924000D02*
X88540000Y-47432000D01*
X99988000Y-62144000D02*
X99988000Y-58626000D01*
X110987000Y-51145000D02*
X110987000Y-70065000D01*
X110547000Y-69625000D02*
X92507000Y-69625000D01*
X114067000Y-48065000D02*
X114067000Y-73145000D01*
X109667000Y-68794000D02*
X93387000Y-68794000D01*
X99107000Y-63026000D02*
X99107000Y-57745000D01*
X98667000Y-57306000D02*
X104827000Y-57306000D01*
X114507000Y-47625000D02*
X114507000Y-73585000D01*
X112747000Y-71825000D02*
X90318000Y-71825000D01*
%TD*%
M02*
