%TF.GenerationSoftware,KiCad,Pcbnew,10.0.5*%
%TF.CreationDate,2026-10-02T22:30:36-03:00*%
%TF.ProjectId,PQ_MagYBoard,50515f4d-6167-4594-926f-6172642e6b69,rev?*%
%TF.SameCoordinates,Original*%
%TF.FileFunction,Legend,Bot*%
%TF.FilePolarity,Positive*%
%FSLAX46Y46*%
G04 Gerber Fmt 4.6, Leading zero omitted, Abs format (unit mm)*
G04 Created by KiCad (PCBNEW 10.0.5) date 2026-10-02 22:30:36*
%MOMM*%
%LPD*%
G01*
G04 APERTURE LIST*
%ADD10C,0.150000*%
%ADD11C,2.200000*%
%ADD12C,6.400000*%
G04 APERTURE END LIST*
D10*
X111786096Y-40162295D02*
X111786096Y-40809914D01*
X111786096Y-40809914D02*
X111748001Y-40886104D01*
X111748001Y-40886104D02*
X111709906Y-40924200D01*
X111709906Y-40924200D02*
X111633715Y-40962295D01*
X111633715Y-40962295D02*
X111481334Y-40962295D01*
X111481334Y-40962295D02*
X111405144Y-40924200D01*
X111405144Y-40924200D02*
X111367049Y-40886104D01*
X111367049Y-40886104D02*
X111328953Y-40809914D01*
X111328953Y-40809914D02*
X111328953Y-40162295D01*
X110948001Y-40428961D02*
X110948001Y-40962295D01*
X110948001Y-40505152D02*
X110909906Y-40467057D01*
X110909906Y-40467057D02*
X110833716Y-40428961D01*
X110833716Y-40428961D02*
X110719430Y-40428961D01*
X110719430Y-40428961D02*
X110643239Y-40467057D01*
X110643239Y-40467057D02*
X110605144Y-40543247D01*
X110605144Y-40543247D02*
X110605144Y-40962295D01*
X110224191Y-40962295D02*
X110224191Y-40428961D01*
X110224191Y-40162295D02*
X110262287Y-40200390D01*
X110262287Y-40200390D02*
X110224191Y-40238485D01*
X110224191Y-40238485D02*
X110186096Y-40200390D01*
X110186096Y-40200390D02*
X110224191Y-40162295D01*
X110224191Y-40162295D02*
X110224191Y-40238485D01*
X109919430Y-40428961D02*
X109728954Y-40962295D01*
X109728954Y-40962295D02*
X109538477Y-40428961D01*
X108928953Y-40924200D02*
X109005144Y-40962295D01*
X109005144Y-40962295D02*
X109157525Y-40962295D01*
X109157525Y-40962295D02*
X109233715Y-40924200D01*
X109233715Y-40924200D02*
X109271811Y-40848009D01*
X109271811Y-40848009D02*
X109271811Y-40543247D01*
X109271811Y-40543247D02*
X109233715Y-40467057D01*
X109233715Y-40467057D02*
X109157525Y-40428961D01*
X109157525Y-40428961D02*
X109005144Y-40428961D01*
X109005144Y-40428961D02*
X108928953Y-40467057D01*
X108928953Y-40467057D02*
X108890858Y-40543247D01*
X108890858Y-40543247D02*
X108890858Y-40619438D01*
X108890858Y-40619438D02*
X109271811Y-40695628D01*
X108548001Y-40962295D02*
X108548001Y-40428961D01*
X108548001Y-40581342D02*
X108509906Y-40505152D01*
X108509906Y-40505152D02*
X108471811Y-40467057D01*
X108471811Y-40467057D02*
X108395620Y-40428961D01*
X108395620Y-40428961D02*
X108319430Y-40428961D01*
X108090859Y-40924200D02*
X108014668Y-40962295D01*
X108014668Y-40962295D02*
X107862287Y-40962295D01*
X107862287Y-40962295D02*
X107786097Y-40924200D01*
X107786097Y-40924200D02*
X107748001Y-40848009D01*
X107748001Y-40848009D02*
X107748001Y-40809914D01*
X107748001Y-40809914D02*
X107786097Y-40733723D01*
X107786097Y-40733723D02*
X107862287Y-40695628D01*
X107862287Y-40695628D02*
X107976573Y-40695628D01*
X107976573Y-40695628D02*
X108052763Y-40657533D01*
X108052763Y-40657533D02*
X108090859Y-40581342D01*
X108090859Y-40581342D02*
X108090859Y-40543247D01*
X108090859Y-40543247D02*
X108052763Y-40467057D01*
X108052763Y-40467057D02*
X107976573Y-40428961D01*
X107976573Y-40428961D02*
X107862287Y-40428961D01*
X107862287Y-40428961D02*
X107786097Y-40467057D01*
X107405144Y-40962295D02*
X107405144Y-40428961D01*
X107405144Y-40162295D02*
X107443240Y-40200390D01*
X107443240Y-40200390D02*
X107405144Y-40238485D01*
X107405144Y-40238485D02*
X107367049Y-40200390D01*
X107367049Y-40200390D02*
X107405144Y-40162295D01*
X107405144Y-40162295D02*
X107405144Y-40238485D01*
X106681335Y-40962295D02*
X106681335Y-40162295D01*
X106681335Y-40924200D02*
X106757526Y-40962295D01*
X106757526Y-40962295D02*
X106909907Y-40962295D01*
X106909907Y-40962295D02*
X106986097Y-40924200D01*
X106986097Y-40924200D02*
X107024192Y-40886104D01*
X107024192Y-40886104D02*
X107062288Y-40809914D01*
X107062288Y-40809914D02*
X107062288Y-40581342D01*
X107062288Y-40581342D02*
X107024192Y-40505152D01*
X107024192Y-40505152D02*
X106986097Y-40467057D01*
X106986097Y-40467057D02*
X106909907Y-40428961D01*
X106909907Y-40428961D02*
X106757526Y-40428961D01*
X106757526Y-40428961D02*
X106681335Y-40467057D01*
X105957525Y-40962295D02*
X105957525Y-40543247D01*
X105957525Y-40543247D02*
X105995620Y-40467057D01*
X105995620Y-40467057D02*
X106071811Y-40428961D01*
X106071811Y-40428961D02*
X106224192Y-40428961D01*
X106224192Y-40428961D02*
X106300382Y-40467057D01*
X105957525Y-40924200D02*
X106033716Y-40962295D01*
X106033716Y-40962295D02*
X106224192Y-40962295D01*
X106224192Y-40962295D02*
X106300382Y-40924200D01*
X106300382Y-40924200D02*
X106338478Y-40848009D01*
X106338478Y-40848009D02*
X106338478Y-40771819D01*
X106338478Y-40771819D02*
X106300382Y-40695628D01*
X106300382Y-40695628D02*
X106224192Y-40657533D01*
X106224192Y-40657533D02*
X106033716Y-40657533D01*
X106033716Y-40657533D02*
X105957525Y-40619438D01*
X105233715Y-40962295D02*
X105233715Y-40162295D01*
X105233715Y-40924200D02*
X105309906Y-40962295D01*
X105309906Y-40962295D02*
X105462287Y-40962295D01*
X105462287Y-40962295D02*
X105538477Y-40924200D01*
X105538477Y-40924200D02*
X105576572Y-40886104D01*
X105576572Y-40886104D02*
X105614668Y-40809914D01*
X105614668Y-40809914D02*
X105614668Y-40581342D01*
X105614668Y-40581342D02*
X105576572Y-40505152D01*
X105576572Y-40505152D02*
X105538477Y-40467057D01*
X105538477Y-40467057D02*
X105462287Y-40428961D01*
X105462287Y-40428961D02*
X105309906Y-40428961D01*
X105309906Y-40428961D02*
X105233715Y-40467057D01*
X104357524Y-40162295D02*
X103900381Y-40162295D01*
X104128953Y-40962295D02*
X104128953Y-40162295D01*
X103328952Y-40924200D02*
X103405143Y-40962295D01*
X103405143Y-40962295D02*
X103557524Y-40962295D01*
X103557524Y-40962295D02*
X103633714Y-40924200D01*
X103633714Y-40924200D02*
X103671810Y-40848009D01*
X103671810Y-40848009D02*
X103671810Y-40543247D01*
X103671810Y-40543247D02*
X103633714Y-40467057D01*
X103633714Y-40467057D02*
X103557524Y-40428961D01*
X103557524Y-40428961D02*
X103405143Y-40428961D01*
X103405143Y-40428961D02*
X103328952Y-40467057D01*
X103328952Y-40467057D02*
X103290857Y-40543247D01*
X103290857Y-40543247D02*
X103290857Y-40619438D01*
X103290857Y-40619438D02*
X103671810Y-40695628D01*
X102605143Y-40924200D02*
X102681334Y-40962295D01*
X102681334Y-40962295D02*
X102833715Y-40962295D01*
X102833715Y-40962295D02*
X102909905Y-40924200D01*
X102909905Y-40924200D02*
X102948000Y-40886104D01*
X102948000Y-40886104D02*
X102986096Y-40809914D01*
X102986096Y-40809914D02*
X102986096Y-40581342D01*
X102986096Y-40581342D02*
X102948000Y-40505152D01*
X102948000Y-40505152D02*
X102909905Y-40467057D01*
X102909905Y-40467057D02*
X102833715Y-40428961D01*
X102833715Y-40428961D02*
X102681334Y-40428961D01*
X102681334Y-40428961D02*
X102605143Y-40467057D01*
X102262286Y-40428961D02*
X102262286Y-40962295D01*
X102262286Y-40505152D02*
X102224191Y-40467057D01*
X102224191Y-40467057D02*
X102148001Y-40428961D01*
X102148001Y-40428961D02*
X102033715Y-40428961D01*
X102033715Y-40428961D02*
X101957524Y-40467057D01*
X101957524Y-40467057D02*
X101919429Y-40543247D01*
X101919429Y-40543247D02*
X101919429Y-40962295D01*
X101424191Y-40962295D02*
X101500381Y-40924200D01*
X101500381Y-40924200D02*
X101538476Y-40886104D01*
X101538476Y-40886104D02*
X101576572Y-40809914D01*
X101576572Y-40809914D02*
X101576572Y-40581342D01*
X101576572Y-40581342D02*
X101538476Y-40505152D01*
X101538476Y-40505152D02*
X101500381Y-40467057D01*
X101500381Y-40467057D02*
X101424191Y-40428961D01*
X101424191Y-40428961D02*
X101309905Y-40428961D01*
X101309905Y-40428961D02*
X101233714Y-40467057D01*
X101233714Y-40467057D02*
X101195619Y-40505152D01*
X101195619Y-40505152D02*
X101157524Y-40581342D01*
X101157524Y-40581342D02*
X101157524Y-40809914D01*
X101157524Y-40809914D02*
X101195619Y-40886104D01*
X101195619Y-40886104D02*
X101233714Y-40924200D01*
X101233714Y-40924200D02*
X101309905Y-40962295D01*
X101309905Y-40962295D02*
X101424191Y-40962295D01*
X100700381Y-40962295D02*
X100776571Y-40924200D01*
X100776571Y-40924200D02*
X100814666Y-40848009D01*
X100814666Y-40848009D02*
X100814666Y-40162295D01*
X100281333Y-40962295D02*
X100357523Y-40924200D01*
X100357523Y-40924200D02*
X100395618Y-40886104D01*
X100395618Y-40886104D02*
X100433714Y-40809914D01*
X100433714Y-40809914D02*
X100433714Y-40581342D01*
X100433714Y-40581342D02*
X100395618Y-40505152D01*
X100395618Y-40505152D02*
X100357523Y-40467057D01*
X100357523Y-40467057D02*
X100281333Y-40428961D01*
X100281333Y-40428961D02*
X100167047Y-40428961D01*
X100167047Y-40428961D02*
X100090856Y-40467057D01*
X100090856Y-40467057D02*
X100052761Y-40505152D01*
X100052761Y-40505152D02*
X100014666Y-40581342D01*
X100014666Y-40581342D02*
X100014666Y-40809914D01*
X100014666Y-40809914D02*
X100052761Y-40886104D01*
X100052761Y-40886104D02*
X100090856Y-40924200D01*
X100090856Y-40924200D02*
X100167047Y-40962295D01*
X100167047Y-40962295D02*
X100281333Y-40962295D01*
X100128952Y-40124200D02*
X100243237Y-40238485D01*
X99328951Y-40428961D02*
X99328951Y-41076580D01*
X99328951Y-41076580D02*
X99367046Y-41152771D01*
X99367046Y-41152771D02*
X99405142Y-41190866D01*
X99405142Y-41190866D02*
X99481332Y-41228961D01*
X99481332Y-41228961D02*
X99595618Y-41228961D01*
X99595618Y-41228961D02*
X99671808Y-41190866D01*
X99328951Y-40924200D02*
X99405142Y-40962295D01*
X99405142Y-40962295D02*
X99557523Y-40962295D01*
X99557523Y-40962295D02*
X99633713Y-40924200D01*
X99633713Y-40924200D02*
X99671808Y-40886104D01*
X99671808Y-40886104D02*
X99709904Y-40809914D01*
X99709904Y-40809914D02*
X99709904Y-40581342D01*
X99709904Y-40581342D02*
X99671808Y-40505152D01*
X99671808Y-40505152D02*
X99633713Y-40467057D01*
X99633713Y-40467057D02*
X99557523Y-40428961D01*
X99557523Y-40428961D02*
X99405142Y-40428961D01*
X99405142Y-40428961D02*
X99328951Y-40467057D01*
X98947998Y-40962295D02*
X98947998Y-40428961D01*
X98947998Y-40162295D02*
X98986094Y-40200390D01*
X98986094Y-40200390D02*
X98947998Y-40238485D01*
X98947998Y-40238485D02*
X98909903Y-40200390D01*
X98909903Y-40200390D02*
X98947998Y-40162295D01*
X98947998Y-40162295D02*
X98947998Y-40238485D01*
X98224189Y-40924200D02*
X98300380Y-40962295D01*
X98300380Y-40962295D02*
X98452761Y-40962295D01*
X98452761Y-40962295D02*
X98528951Y-40924200D01*
X98528951Y-40924200D02*
X98567046Y-40886104D01*
X98567046Y-40886104D02*
X98605142Y-40809914D01*
X98605142Y-40809914D02*
X98605142Y-40581342D01*
X98605142Y-40581342D02*
X98567046Y-40505152D01*
X98567046Y-40505152D02*
X98528951Y-40467057D01*
X98528951Y-40467057D02*
X98452761Y-40428961D01*
X98452761Y-40428961D02*
X98300380Y-40428961D01*
X98300380Y-40428961D02*
X98224189Y-40467057D01*
X97538475Y-40962295D02*
X97538475Y-40543247D01*
X97538475Y-40543247D02*
X97576570Y-40467057D01*
X97576570Y-40467057D02*
X97652761Y-40428961D01*
X97652761Y-40428961D02*
X97805142Y-40428961D01*
X97805142Y-40428961D02*
X97881332Y-40467057D01*
X97538475Y-40924200D02*
X97614666Y-40962295D01*
X97614666Y-40962295D02*
X97805142Y-40962295D01*
X97805142Y-40962295D02*
X97881332Y-40924200D01*
X97881332Y-40924200D02*
X97919428Y-40848009D01*
X97919428Y-40848009D02*
X97919428Y-40771819D01*
X97919428Y-40771819D02*
X97881332Y-40695628D01*
X97881332Y-40695628D02*
X97805142Y-40657533D01*
X97805142Y-40657533D02*
X97614666Y-40657533D01*
X97614666Y-40657533D02*
X97538475Y-40619438D01*
X96547998Y-40962295D02*
X96547998Y-40162295D01*
X96547998Y-40162295D02*
X96090855Y-40962295D01*
X96090855Y-40962295D02*
X96090855Y-40162295D01*
X95367046Y-40962295D02*
X95367046Y-40543247D01*
X95367046Y-40543247D02*
X95405141Y-40467057D01*
X95405141Y-40467057D02*
X95481332Y-40428961D01*
X95481332Y-40428961D02*
X95633713Y-40428961D01*
X95633713Y-40428961D02*
X95709903Y-40467057D01*
X95367046Y-40924200D02*
X95443237Y-40962295D01*
X95443237Y-40962295D02*
X95633713Y-40962295D01*
X95633713Y-40962295D02*
X95709903Y-40924200D01*
X95709903Y-40924200D02*
X95747999Y-40848009D01*
X95747999Y-40848009D02*
X95747999Y-40771819D01*
X95747999Y-40771819D02*
X95709903Y-40695628D01*
X95709903Y-40695628D02*
X95633713Y-40657533D01*
X95633713Y-40657533D02*
X95443237Y-40657533D01*
X95443237Y-40657533D02*
X95367046Y-40619438D01*
X94643236Y-40924200D02*
X94719427Y-40962295D01*
X94719427Y-40962295D02*
X94871808Y-40962295D01*
X94871808Y-40962295D02*
X94947998Y-40924200D01*
X94947998Y-40924200D02*
X94986093Y-40886104D01*
X94986093Y-40886104D02*
X95024189Y-40809914D01*
X95024189Y-40809914D02*
X95024189Y-40581342D01*
X95024189Y-40581342D02*
X94986093Y-40505152D01*
X94986093Y-40505152D02*
X94947998Y-40467057D01*
X94947998Y-40467057D02*
X94871808Y-40428961D01*
X94871808Y-40428961D02*
X94719427Y-40428961D01*
X94719427Y-40428961D02*
X94643236Y-40467057D01*
X94300379Y-40962295D02*
X94300379Y-40428961D01*
X94300379Y-40162295D02*
X94338475Y-40200390D01*
X94338475Y-40200390D02*
X94300379Y-40238485D01*
X94300379Y-40238485D02*
X94262284Y-40200390D01*
X94262284Y-40200390D02*
X94300379Y-40162295D01*
X94300379Y-40162295D02*
X94300379Y-40238485D01*
X93805142Y-40962295D02*
X93881332Y-40924200D01*
X93881332Y-40924200D02*
X93919427Y-40886104D01*
X93919427Y-40886104D02*
X93957523Y-40809914D01*
X93957523Y-40809914D02*
X93957523Y-40581342D01*
X93957523Y-40581342D02*
X93919427Y-40505152D01*
X93919427Y-40505152D02*
X93881332Y-40467057D01*
X93881332Y-40467057D02*
X93805142Y-40428961D01*
X93805142Y-40428961D02*
X93690856Y-40428961D01*
X93690856Y-40428961D02*
X93614665Y-40467057D01*
X93614665Y-40467057D02*
X93576570Y-40505152D01*
X93576570Y-40505152D02*
X93538475Y-40581342D01*
X93538475Y-40581342D02*
X93538475Y-40809914D01*
X93538475Y-40809914D02*
X93576570Y-40886104D01*
X93576570Y-40886104D02*
X93614665Y-40924200D01*
X93614665Y-40924200D02*
X93690856Y-40962295D01*
X93690856Y-40962295D02*
X93805142Y-40962295D01*
X93195617Y-40428961D02*
X93195617Y-40962295D01*
X93195617Y-40505152D02*
X93157522Y-40467057D01*
X93157522Y-40467057D02*
X93081332Y-40428961D01*
X93081332Y-40428961D02*
X92967046Y-40428961D01*
X92967046Y-40428961D02*
X92890855Y-40467057D01*
X92890855Y-40467057D02*
X92852760Y-40543247D01*
X92852760Y-40543247D02*
X92852760Y-40962295D01*
X92128950Y-40962295D02*
X92128950Y-40543247D01*
X92128950Y-40543247D02*
X92167045Y-40467057D01*
X92167045Y-40467057D02*
X92243236Y-40428961D01*
X92243236Y-40428961D02*
X92395617Y-40428961D01*
X92395617Y-40428961D02*
X92471807Y-40467057D01*
X92128950Y-40924200D02*
X92205141Y-40962295D01*
X92205141Y-40962295D02*
X92395617Y-40962295D01*
X92395617Y-40962295D02*
X92471807Y-40924200D01*
X92471807Y-40924200D02*
X92509903Y-40848009D01*
X92509903Y-40848009D02*
X92509903Y-40771819D01*
X92509903Y-40771819D02*
X92471807Y-40695628D01*
X92471807Y-40695628D02*
X92395617Y-40657533D01*
X92395617Y-40657533D02*
X92205141Y-40657533D01*
X92205141Y-40657533D02*
X92128950Y-40619438D01*
X91633712Y-40962295D02*
X91709902Y-40924200D01*
X91709902Y-40924200D02*
X91747997Y-40848009D01*
X91747997Y-40848009D02*
X91747997Y-40162295D01*
X109519431Y-42593247D02*
X109786097Y-42593247D01*
X109786097Y-43012295D02*
X109786097Y-42212295D01*
X109786097Y-42212295D02*
X109405145Y-42212295D01*
X108757526Y-43012295D02*
X108757526Y-42593247D01*
X108757526Y-42593247D02*
X108795621Y-42517057D01*
X108795621Y-42517057D02*
X108871812Y-42478961D01*
X108871812Y-42478961D02*
X109024193Y-42478961D01*
X109024193Y-42478961D02*
X109100383Y-42517057D01*
X108757526Y-42974200D02*
X108833717Y-43012295D01*
X108833717Y-43012295D02*
X109024193Y-43012295D01*
X109024193Y-43012295D02*
X109100383Y-42974200D01*
X109100383Y-42974200D02*
X109138479Y-42898009D01*
X109138479Y-42898009D02*
X109138479Y-42821819D01*
X109138479Y-42821819D02*
X109100383Y-42745628D01*
X109100383Y-42745628D02*
X109024193Y-42707533D01*
X109024193Y-42707533D02*
X108833717Y-42707533D01*
X108833717Y-42707533D02*
X108757526Y-42669438D01*
X108033716Y-42974200D02*
X108109907Y-43012295D01*
X108109907Y-43012295D02*
X108262288Y-43012295D01*
X108262288Y-43012295D02*
X108338478Y-42974200D01*
X108338478Y-42974200D02*
X108376573Y-42936104D01*
X108376573Y-42936104D02*
X108414669Y-42859914D01*
X108414669Y-42859914D02*
X108414669Y-42631342D01*
X108414669Y-42631342D02*
X108376573Y-42555152D01*
X108376573Y-42555152D02*
X108338478Y-42517057D01*
X108338478Y-42517057D02*
X108262288Y-42478961D01*
X108262288Y-42478961D02*
X108109907Y-42478961D01*
X108109907Y-42478961D02*
X108033716Y-42517057D01*
X107348002Y-42478961D02*
X107348002Y-43012295D01*
X107690859Y-42478961D02*
X107690859Y-42898009D01*
X107690859Y-42898009D02*
X107652764Y-42974200D01*
X107652764Y-42974200D02*
X107576574Y-43012295D01*
X107576574Y-43012295D02*
X107462288Y-43012295D01*
X107462288Y-43012295D02*
X107386097Y-42974200D01*
X107386097Y-42974200D02*
X107348002Y-42936104D01*
X106852764Y-43012295D02*
X106928954Y-42974200D01*
X106928954Y-42974200D02*
X106967049Y-42898009D01*
X106967049Y-42898009D02*
X106967049Y-42212295D01*
X106662287Y-42478961D02*
X106357525Y-42478961D01*
X106548001Y-42212295D02*
X106548001Y-42898009D01*
X106548001Y-42898009D02*
X106509906Y-42974200D01*
X106509906Y-42974200D02*
X106433716Y-43012295D01*
X106433716Y-43012295D02*
X106357525Y-43012295D01*
X105748001Y-43012295D02*
X105748001Y-42593247D01*
X105748001Y-42593247D02*
X105786096Y-42517057D01*
X105786096Y-42517057D02*
X105862287Y-42478961D01*
X105862287Y-42478961D02*
X106014668Y-42478961D01*
X106014668Y-42478961D02*
X106090858Y-42517057D01*
X105748001Y-42974200D02*
X105824192Y-43012295D01*
X105824192Y-43012295D02*
X106014668Y-43012295D01*
X106014668Y-43012295D02*
X106090858Y-42974200D01*
X106090858Y-42974200D02*
X106128954Y-42898009D01*
X106128954Y-42898009D02*
X106128954Y-42821819D01*
X106128954Y-42821819D02*
X106090858Y-42745628D01*
X106090858Y-42745628D02*
X106014668Y-42707533D01*
X106014668Y-42707533D02*
X105824192Y-42707533D01*
X105824192Y-42707533D02*
X105748001Y-42669438D01*
X105024191Y-43012295D02*
X105024191Y-42212295D01*
X105024191Y-42974200D02*
X105100382Y-43012295D01*
X105100382Y-43012295D02*
X105252763Y-43012295D01*
X105252763Y-43012295D02*
X105328953Y-42974200D01*
X105328953Y-42974200D02*
X105367048Y-42936104D01*
X105367048Y-42936104D02*
X105405144Y-42859914D01*
X105405144Y-42859914D02*
X105405144Y-42631342D01*
X105405144Y-42631342D02*
X105367048Y-42555152D01*
X105367048Y-42555152D02*
X105328953Y-42517057D01*
X105328953Y-42517057D02*
X105252763Y-42478961D01*
X105252763Y-42478961D02*
X105100382Y-42478961D01*
X105100382Y-42478961D02*
X105024191Y-42517057D01*
X103576571Y-43012295D02*
X103843238Y-42631342D01*
X104033714Y-43012295D02*
X104033714Y-42212295D01*
X104033714Y-42212295D02*
X103728952Y-42212295D01*
X103728952Y-42212295D02*
X103652762Y-42250390D01*
X103652762Y-42250390D02*
X103614667Y-42288485D01*
X103614667Y-42288485D02*
X103576571Y-42364676D01*
X103576571Y-42364676D02*
X103576571Y-42478961D01*
X103576571Y-42478961D02*
X103614667Y-42555152D01*
X103614667Y-42555152D02*
X103652762Y-42593247D01*
X103652762Y-42593247D02*
X103728952Y-42631342D01*
X103728952Y-42631342D02*
X104033714Y-42631342D01*
X102928952Y-42974200D02*
X103005143Y-43012295D01*
X103005143Y-43012295D02*
X103157524Y-43012295D01*
X103157524Y-43012295D02*
X103233714Y-42974200D01*
X103233714Y-42974200D02*
X103271810Y-42898009D01*
X103271810Y-42898009D02*
X103271810Y-42593247D01*
X103271810Y-42593247D02*
X103233714Y-42517057D01*
X103233714Y-42517057D02*
X103157524Y-42478961D01*
X103157524Y-42478961D02*
X103005143Y-42478961D01*
X103005143Y-42478961D02*
X102928952Y-42517057D01*
X102928952Y-42517057D02*
X102890857Y-42593247D01*
X102890857Y-42593247D02*
X102890857Y-42669438D01*
X102890857Y-42669438D02*
X103271810Y-42745628D01*
X102205143Y-42478961D02*
X102205143Y-43126580D01*
X102205143Y-43126580D02*
X102243238Y-43202771D01*
X102243238Y-43202771D02*
X102281334Y-43240866D01*
X102281334Y-43240866D02*
X102357524Y-43278961D01*
X102357524Y-43278961D02*
X102471810Y-43278961D01*
X102471810Y-43278961D02*
X102548000Y-43240866D01*
X102205143Y-42974200D02*
X102281334Y-43012295D01*
X102281334Y-43012295D02*
X102433715Y-43012295D01*
X102433715Y-43012295D02*
X102509905Y-42974200D01*
X102509905Y-42974200D02*
X102548000Y-42936104D01*
X102548000Y-42936104D02*
X102586096Y-42859914D01*
X102586096Y-42859914D02*
X102586096Y-42631342D01*
X102586096Y-42631342D02*
X102548000Y-42555152D01*
X102548000Y-42555152D02*
X102509905Y-42517057D01*
X102509905Y-42517057D02*
X102433715Y-42478961D01*
X102433715Y-42478961D02*
X102281334Y-42478961D01*
X102281334Y-42478961D02*
X102205143Y-42517057D01*
X101824190Y-43012295D02*
X101824190Y-42478961D01*
X101824190Y-42212295D02*
X101862286Y-42250390D01*
X101862286Y-42250390D02*
X101824190Y-42288485D01*
X101824190Y-42288485D02*
X101786095Y-42250390D01*
X101786095Y-42250390D02*
X101824190Y-42212295D01*
X101824190Y-42212295D02*
X101824190Y-42288485D01*
X101328953Y-43012295D02*
X101405143Y-42974200D01*
X101405143Y-42974200D02*
X101443238Y-42936104D01*
X101443238Y-42936104D02*
X101481334Y-42859914D01*
X101481334Y-42859914D02*
X101481334Y-42631342D01*
X101481334Y-42631342D02*
X101443238Y-42555152D01*
X101443238Y-42555152D02*
X101405143Y-42517057D01*
X101405143Y-42517057D02*
X101328953Y-42478961D01*
X101328953Y-42478961D02*
X101214667Y-42478961D01*
X101214667Y-42478961D02*
X101138476Y-42517057D01*
X101138476Y-42517057D02*
X101100381Y-42555152D01*
X101100381Y-42555152D02*
X101062286Y-42631342D01*
X101062286Y-42631342D02*
X101062286Y-42859914D01*
X101062286Y-42859914D02*
X101100381Y-42936104D01*
X101100381Y-42936104D02*
X101138476Y-42974200D01*
X101138476Y-42974200D02*
X101214667Y-43012295D01*
X101214667Y-43012295D02*
X101328953Y-43012295D01*
X100719428Y-42478961D02*
X100719428Y-43012295D01*
X100719428Y-42555152D02*
X100681333Y-42517057D01*
X100681333Y-42517057D02*
X100605143Y-42478961D01*
X100605143Y-42478961D02*
X100490857Y-42478961D01*
X100490857Y-42478961D02*
X100414666Y-42517057D01*
X100414666Y-42517057D02*
X100376571Y-42593247D01*
X100376571Y-42593247D02*
X100376571Y-43012295D01*
X99652761Y-43012295D02*
X99652761Y-42593247D01*
X99652761Y-42593247D02*
X99690856Y-42517057D01*
X99690856Y-42517057D02*
X99767047Y-42478961D01*
X99767047Y-42478961D02*
X99919428Y-42478961D01*
X99919428Y-42478961D02*
X99995618Y-42517057D01*
X99652761Y-42974200D02*
X99728952Y-43012295D01*
X99728952Y-43012295D02*
X99919428Y-43012295D01*
X99919428Y-43012295D02*
X99995618Y-42974200D01*
X99995618Y-42974200D02*
X100033714Y-42898009D01*
X100033714Y-42898009D02*
X100033714Y-42821819D01*
X100033714Y-42821819D02*
X99995618Y-42745628D01*
X99995618Y-42745628D02*
X99919428Y-42707533D01*
X99919428Y-42707533D02*
X99728952Y-42707533D01*
X99728952Y-42707533D02*
X99652761Y-42669438D01*
X99157523Y-43012295D02*
X99233713Y-42974200D01*
X99233713Y-42974200D02*
X99271808Y-42898009D01*
X99271808Y-42898009D02*
X99271808Y-42212295D01*
X97786093Y-42936104D02*
X97824189Y-42974200D01*
X97824189Y-42974200D02*
X97938474Y-43012295D01*
X97938474Y-43012295D02*
X98014665Y-43012295D01*
X98014665Y-43012295D02*
X98128951Y-42974200D01*
X98128951Y-42974200D02*
X98205141Y-42898009D01*
X98205141Y-42898009D02*
X98243236Y-42821819D01*
X98243236Y-42821819D02*
X98281332Y-42669438D01*
X98281332Y-42669438D02*
X98281332Y-42555152D01*
X98281332Y-42555152D02*
X98243236Y-42402771D01*
X98243236Y-42402771D02*
X98205141Y-42326580D01*
X98205141Y-42326580D02*
X98128951Y-42250390D01*
X98128951Y-42250390D02*
X98014665Y-42212295D01*
X98014665Y-42212295D02*
X97938474Y-42212295D01*
X97938474Y-42212295D02*
X97824189Y-42250390D01*
X97824189Y-42250390D02*
X97786093Y-42288485D01*
X97328951Y-43012295D02*
X97405141Y-42974200D01*
X97405141Y-42974200D02*
X97443236Y-42936104D01*
X97443236Y-42936104D02*
X97481332Y-42859914D01*
X97481332Y-42859914D02*
X97481332Y-42631342D01*
X97481332Y-42631342D02*
X97443236Y-42555152D01*
X97443236Y-42555152D02*
X97405141Y-42517057D01*
X97405141Y-42517057D02*
X97328951Y-42478961D01*
X97328951Y-42478961D02*
X97214665Y-42478961D01*
X97214665Y-42478961D02*
X97138474Y-42517057D01*
X97138474Y-42517057D02*
X97100379Y-42555152D01*
X97100379Y-42555152D02*
X97062284Y-42631342D01*
X97062284Y-42631342D02*
X97062284Y-42859914D01*
X97062284Y-42859914D02*
X97100379Y-42936104D01*
X97100379Y-42936104D02*
X97138474Y-42974200D01*
X97138474Y-42974200D02*
X97214665Y-43012295D01*
X97214665Y-43012295D02*
X97328951Y-43012295D01*
X97176570Y-42174200D02*
X97290855Y-42288485D01*
X96719426Y-43012295D02*
X96719426Y-42478961D01*
X96719426Y-42631342D02*
X96681331Y-42555152D01*
X96681331Y-42555152D02*
X96643236Y-42517057D01*
X96643236Y-42517057D02*
X96567045Y-42478961D01*
X96567045Y-42478961D02*
X96490855Y-42478961D01*
X95881331Y-43012295D02*
X95881331Y-42212295D01*
X95881331Y-42974200D02*
X95957522Y-43012295D01*
X95957522Y-43012295D02*
X96109903Y-43012295D01*
X96109903Y-43012295D02*
X96186093Y-42974200D01*
X96186093Y-42974200D02*
X96224188Y-42936104D01*
X96224188Y-42936104D02*
X96262284Y-42859914D01*
X96262284Y-42859914D02*
X96262284Y-42631342D01*
X96262284Y-42631342D02*
X96224188Y-42555152D01*
X96224188Y-42555152D02*
X96186093Y-42517057D01*
X96186093Y-42517057D02*
X96109903Y-42478961D01*
X96109903Y-42478961D02*
X95957522Y-42478961D01*
X95957522Y-42478961D02*
X95881331Y-42517057D01*
X95386093Y-43012295D02*
X95462283Y-42974200D01*
X95462283Y-42974200D02*
X95500378Y-42936104D01*
X95500378Y-42936104D02*
X95538474Y-42859914D01*
X95538474Y-42859914D02*
X95538474Y-42631342D01*
X95538474Y-42631342D02*
X95500378Y-42555152D01*
X95500378Y-42555152D02*
X95462283Y-42517057D01*
X95462283Y-42517057D02*
X95386093Y-42478961D01*
X95386093Y-42478961D02*
X95271807Y-42478961D01*
X95271807Y-42478961D02*
X95195616Y-42517057D01*
X95195616Y-42517057D02*
X95157521Y-42555152D01*
X95157521Y-42555152D02*
X95119426Y-42631342D01*
X95119426Y-42631342D02*
X95119426Y-42859914D01*
X95119426Y-42859914D02*
X95157521Y-42936104D01*
X95157521Y-42936104D02*
X95195616Y-42974200D01*
X95195616Y-42974200D02*
X95271807Y-43012295D01*
X95271807Y-43012295D02*
X95386093Y-43012295D01*
X94776568Y-43012295D02*
X94776568Y-42212295D01*
X94776568Y-42517057D02*
X94700378Y-42478961D01*
X94700378Y-42478961D02*
X94547997Y-42478961D01*
X94547997Y-42478961D02*
X94471806Y-42517057D01*
X94471806Y-42517057D02*
X94433711Y-42555152D01*
X94433711Y-42555152D02*
X94395616Y-42631342D01*
X94395616Y-42631342D02*
X94395616Y-42859914D01*
X94395616Y-42859914D02*
X94433711Y-42936104D01*
X94433711Y-42936104D02*
X94471806Y-42974200D01*
X94471806Y-42974200D02*
X94547997Y-43012295D01*
X94547997Y-43012295D02*
X94700378Y-43012295D01*
X94700378Y-43012295D02*
X94776568Y-42974200D01*
X93709901Y-43012295D02*
X93709901Y-42593247D01*
X93709901Y-42593247D02*
X93747996Y-42517057D01*
X93747996Y-42517057D02*
X93824187Y-42478961D01*
X93824187Y-42478961D02*
X93976568Y-42478961D01*
X93976568Y-42478961D02*
X94052758Y-42517057D01*
X93709901Y-42974200D02*
X93786092Y-43012295D01*
X93786092Y-43012295D02*
X93976568Y-43012295D01*
X93976568Y-43012295D02*
X94052758Y-42974200D01*
X94052758Y-42974200D02*
X94090854Y-42898009D01*
X94090854Y-42898009D02*
X94090854Y-42821819D01*
X94090854Y-42821819D02*
X94052758Y-42745628D01*
X94052758Y-42745628D02*
X93976568Y-42707533D01*
X93976568Y-42707533D02*
X93786092Y-42707533D01*
X93786092Y-42707533D02*
X93709901Y-42669438D01*
X105538477Y-46808295D02*
X105538477Y-46008295D01*
X105538477Y-46008295D02*
X105233715Y-46008295D01*
X105233715Y-46008295D02*
X105157525Y-46046390D01*
X105157525Y-46046390D02*
X105119430Y-46084485D01*
X105119430Y-46084485D02*
X105081334Y-46160676D01*
X105081334Y-46160676D02*
X105081334Y-46274961D01*
X105081334Y-46274961D02*
X105119430Y-46351152D01*
X105119430Y-46351152D02*
X105157525Y-46389247D01*
X105157525Y-46389247D02*
X105233715Y-46427342D01*
X105233715Y-46427342D02*
X105538477Y-46427342D01*
X104395620Y-46808295D02*
X104395620Y-46389247D01*
X104395620Y-46389247D02*
X104433715Y-46313057D01*
X104433715Y-46313057D02*
X104509906Y-46274961D01*
X104509906Y-46274961D02*
X104662287Y-46274961D01*
X104662287Y-46274961D02*
X104738477Y-46313057D01*
X104395620Y-46770200D02*
X104471811Y-46808295D01*
X104471811Y-46808295D02*
X104662287Y-46808295D01*
X104662287Y-46808295D02*
X104738477Y-46770200D01*
X104738477Y-46770200D02*
X104776573Y-46694009D01*
X104776573Y-46694009D02*
X104776573Y-46617819D01*
X104776573Y-46617819D02*
X104738477Y-46541628D01*
X104738477Y-46541628D02*
X104662287Y-46503533D01*
X104662287Y-46503533D02*
X104471811Y-46503533D01*
X104471811Y-46503533D02*
X104395620Y-46465438D01*
X104014667Y-46808295D02*
X104014667Y-46008295D01*
X104014667Y-46313057D02*
X103938477Y-46274961D01*
X103938477Y-46274961D02*
X103786096Y-46274961D01*
X103786096Y-46274961D02*
X103709905Y-46313057D01*
X103709905Y-46313057D02*
X103671810Y-46351152D01*
X103671810Y-46351152D02*
X103633715Y-46427342D01*
X103633715Y-46427342D02*
X103633715Y-46655914D01*
X103633715Y-46655914D02*
X103671810Y-46732104D01*
X103671810Y-46732104D02*
X103709905Y-46770200D01*
X103709905Y-46770200D02*
X103786096Y-46808295D01*
X103786096Y-46808295D02*
X103938477Y-46808295D01*
X103938477Y-46808295D02*
X104014667Y-46770200D01*
X103176572Y-46808295D02*
X103252762Y-46770200D01*
X103252762Y-46770200D02*
X103290857Y-46694009D01*
X103290857Y-46694009D02*
X103290857Y-46008295D01*
X102757524Y-46808295D02*
X102833714Y-46770200D01*
X102833714Y-46770200D02*
X102871809Y-46732104D01*
X102871809Y-46732104D02*
X102909905Y-46655914D01*
X102909905Y-46655914D02*
X102909905Y-46427342D01*
X102909905Y-46427342D02*
X102871809Y-46351152D01*
X102871809Y-46351152D02*
X102833714Y-46313057D01*
X102833714Y-46313057D02*
X102757524Y-46274961D01*
X102757524Y-46274961D02*
X102643238Y-46274961D01*
X102643238Y-46274961D02*
X102567047Y-46313057D01*
X102567047Y-46313057D02*
X102528952Y-46351152D01*
X102528952Y-46351152D02*
X102490857Y-46427342D01*
X102490857Y-46427342D02*
X102490857Y-46655914D01*
X102490857Y-46655914D02*
X102528952Y-46732104D01*
X102528952Y-46732104D02*
X102567047Y-46770200D01*
X102567047Y-46770200D02*
X102643238Y-46808295D01*
X102643238Y-46808295D02*
X102757524Y-46808295D01*
X101538475Y-46808295D02*
X101538475Y-46008295D01*
X101538475Y-46008295D02*
X101271809Y-46579723D01*
X101271809Y-46579723D02*
X101005142Y-46008295D01*
X101005142Y-46008295D02*
X101005142Y-46808295D01*
X100281332Y-46808295D02*
X100281332Y-46389247D01*
X100281332Y-46389247D02*
X100319427Y-46313057D01*
X100319427Y-46313057D02*
X100395618Y-46274961D01*
X100395618Y-46274961D02*
X100547999Y-46274961D01*
X100547999Y-46274961D02*
X100624189Y-46313057D01*
X100281332Y-46770200D02*
X100357523Y-46808295D01*
X100357523Y-46808295D02*
X100547999Y-46808295D01*
X100547999Y-46808295D02*
X100624189Y-46770200D01*
X100624189Y-46770200D02*
X100662285Y-46694009D01*
X100662285Y-46694009D02*
X100662285Y-46617819D01*
X100662285Y-46617819D02*
X100624189Y-46541628D01*
X100624189Y-46541628D02*
X100547999Y-46503533D01*
X100547999Y-46503533D02*
X100357523Y-46503533D01*
X100357523Y-46503533D02*
X100281332Y-46465438D01*
X99900379Y-46808295D02*
X99900379Y-46274961D01*
X99900379Y-46427342D02*
X99862284Y-46351152D01*
X99862284Y-46351152D02*
X99824189Y-46313057D01*
X99824189Y-46313057D02*
X99747998Y-46274961D01*
X99747998Y-46274961D02*
X99671808Y-46274961D01*
X99405141Y-46808295D02*
X99405141Y-46274961D01*
X99405141Y-46008295D02*
X99443237Y-46046390D01*
X99443237Y-46046390D02*
X99405141Y-46084485D01*
X99405141Y-46084485D02*
X99367046Y-46046390D01*
X99367046Y-46046390D02*
X99405141Y-46008295D01*
X99405141Y-46008295D02*
X99405141Y-46084485D01*
X99024189Y-46274961D02*
X99024189Y-46808295D01*
X99024189Y-46351152D02*
X98986094Y-46313057D01*
X98986094Y-46313057D02*
X98909904Y-46274961D01*
X98909904Y-46274961D02*
X98795618Y-46274961D01*
X98795618Y-46274961D02*
X98719427Y-46313057D01*
X98719427Y-46313057D02*
X98681332Y-46389247D01*
X98681332Y-46389247D02*
X98681332Y-46808295D01*
X98186094Y-46808295D02*
X98262284Y-46770200D01*
X98262284Y-46770200D02*
X98300379Y-46732104D01*
X98300379Y-46732104D02*
X98338475Y-46655914D01*
X98338475Y-46655914D02*
X98338475Y-46427342D01*
X98338475Y-46427342D02*
X98300379Y-46351152D01*
X98300379Y-46351152D02*
X98262284Y-46313057D01*
X98262284Y-46313057D02*
X98186094Y-46274961D01*
X98186094Y-46274961D02*
X98071808Y-46274961D01*
X98071808Y-46274961D02*
X97995617Y-46313057D01*
X97995617Y-46313057D02*
X97957522Y-46351152D01*
X97957522Y-46351152D02*
X97919427Y-46427342D01*
X97919427Y-46427342D02*
X97919427Y-46655914D01*
X97919427Y-46655914D02*
X97957522Y-46732104D01*
X97957522Y-46732104D02*
X97995617Y-46770200D01*
X97995617Y-46770200D02*
X98071808Y-46808295D01*
X98071808Y-46808295D02*
X98186094Y-46808295D01*
X105557524Y-47896390D02*
X105633714Y-47858295D01*
X105633714Y-47858295D02*
X105748000Y-47858295D01*
X105748000Y-47858295D02*
X105862286Y-47896390D01*
X105862286Y-47896390D02*
X105938476Y-47972580D01*
X105938476Y-47972580D02*
X105976571Y-48048771D01*
X105976571Y-48048771D02*
X106014667Y-48201152D01*
X106014667Y-48201152D02*
X106014667Y-48315438D01*
X106014667Y-48315438D02*
X105976571Y-48467819D01*
X105976571Y-48467819D02*
X105938476Y-48544009D01*
X105938476Y-48544009D02*
X105862286Y-48620200D01*
X105862286Y-48620200D02*
X105748000Y-48658295D01*
X105748000Y-48658295D02*
X105671809Y-48658295D01*
X105671809Y-48658295D02*
X105557524Y-48620200D01*
X105557524Y-48620200D02*
X105519428Y-48582104D01*
X105519428Y-48582104D02*
X105519428Y-48315438D01*
X105519428Y-48315438D02*
X105671809Y-48315438D01*
X104833714Y-48124961D02*
X104833714Y-48658295D01*
X105176571Y-48124961D02*
X105176571Y-48544009D01*
X105176571Y-48544009D02*
X105138476Y-48620200D01*
X105138476Y-48620200D02*
X105062286Y-48658295D01*
X105062286Y-48658295D02*
X104948000Y-48658295D01*
X104948000Y-48658295D02*
X104871809Y-48620200D01*
X104871809Y-48620200D02*
X104833714Y-48582104D01*
X104452761Y-48658295D02*
X104452761Y-48124961D01*
X104452761Y-47858295D02*
X104490857Y-47896390D01*
X104490857Y-47896390D02*
X104452761Y-47934485D01*
X104452761Y-47934485D02*
X104414666Y-47896390D01*
X104414666Y-47896390D02*
X104452761Y-47858295D01*
X104452761Y-47858295D02*
X104452761Y-47934485D01*
X103957524Y-48658295D02*
X104033714Y-48620200D01*
X104033714Y-48620200D02*
X104071809Y-48544009D01*
X104071809Y-48544009D02*
X104071809Y-47858295D01*
X103538476Y-48658295D02*
X103614666Y-48620200D01*
X103614666Y-48620200D02*
X103652761Y-48544009D01*
X103652761Y-48544009D02*
X103652761Y-47858295D01*
X102928951Y-48620200D02*
X103005142Y-48658295D01*
X103005142Y-48658295D02*
X103157523Y-48658295D01*
X103157523Y-48658295D02*
X103233713Y-48620200D01*
X103233713Y-48620200D02*
X103271809Y-48544009D01*
X103271809Y-48544009D02*
X103271809Y-48239247D01*
X103271809Y-48239247D02*
X103233713Y-48163057D01*
X103233713Y-48163057D02*
X103157523Y-48124961D01*
X103157523Y-48124961D02*
X103005142Y-48124961D01*
X103005142Y-48124961D02*
X102928951Y-48163057D01*
X102928951Y-48163057D02*
X102890856Y-48239247D01*
X102890856Y-48239247D02*
X102890856Y-48315438D01*
X102890856Y-48315438D02*
X103271809Y-48391628D01*
X102547999Y-48658295D02*
X102547999Y-48124961D01*
X102547999Y-48277342D02*
X102509904Y-48201152D01*
X102509904Y-48201152D02*
X102471809Y-48163057D01*
X102471809Y-48163057D02*
X102395618Y-48124961D01*
X102395618Y-48124961D02*
X102319428Y-48124961D01*
X102052761Y-48658295D02*
X102052761Y-48124961D01*
X102052761Y-48201152D02*
X102014666Y-48163057D01*
X102014666Y-48163057D02*
X101938476Y-48124961D01*
X101938476Y-48124961D02*
X101824190Y-48124961D01*
X101824190Y-48124961D02*
X101747999Y-48163057D01*
X101747999Y-48163057D02*
X101709904Y-48239247D01*
X101709904Y-48239247D02*
X101709904Y-48658295D01*
X101709904Y-48239247D02*
X101671809Y-48163057D01*
X101671809Y-48163057D02*
X101595618Y-48124961D01*
X101595618Y-48124961D02*
X101481333Y-48124961D01*
X101481333Y-48124961D02*
X101405142Y-48163057D01*
X101405142Y-48163057D02*
X101367047Y-48239247D01*
X101367047Y-48239247D02*
X101367047Y-48658295D01*
X100871809Y-48658295D02*
X100947999Y-48620200D01*
X100947999Y-48620200D02*
X100986094Y-48582104D01*
X100986094Y-48582104D02*
X101024190Y-48505914D01*
X101024190Y-48505914D02*
X101024190Y-48277342D01*
X101024190Y-48277342D02*
X100986094Y-48201152D01*
X100986094Y-48201152D02*
X100947999Y-48163057D01*
X100947999Y-48163057D02*
X100871809Y-48124961D01*
X100871809Y-48124961D02*
X100757523Y-48124961D01*
X100757523Y-48124961D02*
X100681332Y-48163057D01*
X100681332Y-48163057D02*
X100643237Y-48201152D01*
X100643237Y-48201152D02*
X100605142Y-48277342D01*
X100605142Y-48277342D02*
X100605142Y-48505914D01*
X100605142Y-48505914D02*
X100643237Y-48582104D01*
X100643237Y-48582104D02*
X100681332Y-48620200D01*
X100681332Y-48620200D02*
X100757523Y-48658295D01*
X100757523Y-48658295D02*
X100871809Y-48658295D01*
X99195617Y-48658295D02*
X99462284Y-48277342D01*
X99652760Y-48658295D02*
X99652760Y-47858295D01*
X99652760Y-47858295D02*
X99347998Y-47858295D01*
X99347998Y-47858295D02*
X99271808Y-47896390D01*
X99271808Y-47896390D02*
X99233713Y-47934485D01*
X99233713Y-47934485D02*
X99195617Y-48010676D01*
X99195617Y-48010676D02*
X99195617Y-48124961D01*
X99195617Y-48124961D02*
X99233713Y-48201152D01*
X99233713Y-48201152D02*
X99271808Y-48239247D01*
X99271808Y-48239247D02*
X99347998Y-48277342D01*
X99347998Y-48277342D02*
X99652760Y-48277342D01*
X98852760Y-48658295D02*
X98852760Y-48124961D01*
X98852760Y-47858295D02*
X98890856Y-47896390D01*
X98890856Y-47896390D02*
X98852760Y-47934485D01*
X98852760Y-47934485D02*
X98814665Y-47896390D01*
X98814665Y-47896390D02*
X98852760Y-47858295D01*
X98852760Y-47858295D02*
X98852760Y-47934485D01*
X98547999Y-48124961D02*
X98357523Y-48658295D01*
X98357523Y-48658295D02*
X98167046Y-48124961D01*
X97519427Y-48658295D02*
X97519427Y-48239247D01*
X97519427Y-48239247D02*
X97557522Y-48163057D01*
X97557522Y-48163057D02*
X97633713Y-48124961D01*
X97633713Y-48124961D02*
X97786094Y-48124961D01*
X97786094Y-48124961D02*
X97862284Y-48163057D01*
X97519427Y-48620200D02*
X97595618Y-48658295D01*
X97595618Y-48658295D02*
X97786094Y-48658295D01*
X97786094Y-48658295D02*
X97862284Y-48620200D01*
X97862284Y-48620200D02*
X97900380Y-48544009D01*
X97900380Y-48544009D02*
X97900380Y-48467819D01*
X97900380Y-48467819D02*
X97862284Y-48391628D01*
X97862284Y-48391628D02*
X97786094Y-48353533D01*
X97786094Y-48353533D02*
X97595618Y-48353533D01*
X97595618Y-48353533D02*
X97519427Y-48315438D01*
X103976572Y-50279723D02*
X103595619Y-50279723D01*
X104052762Y-50508295D02*
X103786095Y-49708295D01*
X103786095Y-49708295D02*
X103519429Y-50508295D01*
X103252762Y-50508295D02*
X103252762Y-49708295D01*
X103252762Y-50013057D02*
X103176572Y-49974961D01*
X103176572Y-49974961D02*
X103024191Y-49974961D01*
X103024191Y-49974961D02*
X102948000Y-50013057D01*
X102948000Y-50013057D02*
X102909905Y-50051152D01*
X102909905Y-50051152D02*
X102871810Y-50127342D01*
X102871810Y-50127342D02*
X102871810Y-50355914D01*
X102871810Y-50355914D02*
X102909905Y-50432104D01*
X102909905Y-50432104D02*
X102948000Y-50470200D01*
X102948000Y-50470200D02*
X103024191Y-50508295D01*
X103024191Y-50508295D02*
X103176572Y-50508295D01*
X103176572Y-50508295D02*
X103252762Y-50470200D01*
X102224190Y-50470200D02*
X102300381Y-50508295D01*
X102300381Y-50508295D02*
X102452762Y-50508295D01*
X102452762Y-50508295D02*
X102528952Y-50470200D01*
X102528952Y-50470200D02*
X102567048Y-50394009D01*
X102567048Y-50394009D02*
X102567048Y-50089247D01*
X102567048Y-50089247D02*
X102528952Y-50013057D01*
X102528952Y-50013057D02*
X102452762Y-49974961D01*
X102452762Y-49974961D02*
X102300381Y-49974961D01*
X102300381Y-49974961D02*
X102224190Y-50013057D01*
X102224190Y-50013057D02*
X102186095Y-50089247D01*
X102186095Y-50089247D02*
X102186095Y-50165438D01*
X102186095Y-50165438D02*
X102567048Y-50241628D01*
X101728953Y-50508295D02*
X101805143Y-50470200D01*
X101805143Y-50470200D02*
X101843238Y-50394009D01*
X101843238Y-50394009D02*
X101843238Y-49708295D01*
X100890857Y-49708295D02*
X100700381Y-50508295D01*
X100700381Y-50508295D02*
X100548000Y-49936866D01*
X100548000Y-49936866D02*
X100395619Y-50508295D01*
X100395619Y-50508295D02*
X100205143Y-49708295D01*
X99557523Y-49974961D02*
X99557523Y-50508295D01*
X99900380Y-49974961D02*
X99900380Y-50394009D01*
X99900380Y-50394009D02*
X99862285Y-50470200D01*
X99862285Y-50470200D02*
X99786095Y-50508295D01*
X99786095Y-50508295D02*
X99671809Y-50508295D01*
X99671809Y-50508295D02*
X99595618Y-50470200D01*
X99595618Y-50470200D02*
X99557523Y-50432104D01*
X107348000Y-52358295D02*
X107348000Y-51558295D01*
X107348000Y-51558295D02*
X107081334Y-52129723D01*
X107081334Y-52129723D02*
X106814667Y-51558295D01*
X106814667Y-51558295D02*
X106814667Y-52358295D01*
X106090857Y-52358295D02*
X106090857Y-51939247D01*
X106090857Y-51939247D02*
X106128952Y-51863057D01*
X106128952Y-51863057D02*
X106205143Y-51824961D01*
X106205143Y-51824961D02*
X106357524Y-51824961D01*
X106357524Y-51824961D02*
X106433714Y-51863057D01*
X106090857Y-52320200D02*
X106167048Y-52358295D01*
X106167048Y-52358295D02*
X106357524Y-52358295D01*
X106357524Y-52358295D02*
X106433714Y-52320200D01*
X106433714Y-52320200D02*
X106471810Y-52244009D01*
X106471810Y-52244009D02*
X106471810Y-52167819D01*
X106471810Y-52167819D02*
X106433714Y-52091628D01*
X106433714Y-52091628D02*
X106357524Y-52053533D01*
X106357524Y-52053533D02*
X106167048Y-52053533D01*
X106167048Y-52053533D02*
X106090857Y-52015438D01*
X105786095Y-52358295D02*
X105367047Y-51824961D01*
X105786095Y-51824961D02*
X105367047Y-52358295D01*
X105062285Y-52358295D02*
X105062285Y-51824961D01*
X105062285Y-51558295D02*
X105100381Y-51596390D01*
X105100381Y-51596390D02*
X105062285Y-51634485D01*
X105062285Y-51634485D02*
X105024190Y-51596390D01*
X105024190Y-51596390D02*
X105062285Y-51558295D01*
X105062285Y-51558295D02*
X105062285Y-51634485D01*
X104681333Y-52358295D02*
X104681333Y-51824961D01*
X104681333Y-51901152D02*
X104643238Y-51863057D01*
X104643238Y-51863057D02*
X104567048Y-51824961D01*
X104567048Y-51824961D02*
X104452762Y-51824961D01*
X104452762Y-51824961D02*
X104376571Y-51863057D01*
X104376571Y-51863057D02*
X104338476Y-51939247D01*
X104338476Y-51939247D02*
X104338476Y-52358295D01*
X104338476Y-51939247D02*
X104300381Y-51863057D01*
X104300381Y-51863057D02*
X104224190Y-51824961D01*
X104224190Y-51824961D02*
X104109905Y-51824961D01*
X104109905Y-51824961D02*
X104033714Y-51863057D01*
X104033714Y-51863057D02*
X103995619Y-51939247D01*
X103995619Y-51939247D02*
X103995619Y-52358295D01*
X103614666Y-52358295D02*
X103614666Y-51824961D01*
X103614666Y-51558295D02*
X103652762Y-51596390D01*
X103652762Y-51596390D02*
X103614666Y-51634485D01*
X103614666Y-51634485D02*
X103576571Y-51596390D01*
X103576571Y-51596390D02*
X103614666Y-51558295D01*
X103614666Y-51558295D02*
X103614666Y-51634485D01*
X103119429Y-52358295D02*
X103195619Y-52320200D01*
X103195619Y-52320200D02*
X103233714Y-52244009D01*
X103233714Y-52244009D02*
X103233714Y-51558295D01*
X102814666Y-52358295D02*
X102814666Y-51824961D01*
X102814666Y-51558295D02*
X102852762Y-51596390D01*
X102852762Y-51596390D02*
X102814666Y-51634485D01*
X102814666Y-51634485D02*
X102776571Y-51596390D01*
X102776571Y-51596390D02*
X102814666Y-51558295D01*
X102814666Y-51558295D02*
X102814666Y-51634485D01*
X102090857Y-52358295D02*
X102090857Y-51939247D01*
X102090857Y-51939247D02*
X102128952Y-51863057D01*
X102128952Y-51863057D02*
X102205143Y-51824961D01*
X102205143Y-51824961D02*
X102357524Y-51824961D01*
X102357524Y-51824961D02*
X102433714Y-51863057D01*
X102090857Y-52320200D02*
X102167048Y-52358295D01*
X102167048Y-52358295D02*
X102357524Y-52358295D01*
X102357524Y-52358295D02*
X102433714Y-52320200D01*
X102433714Y-52320200D02*
X102471810Y-52244009D01*
X102471810Y-52244009D02*
X102471810Y-52167819D01*
X102471810Y-52167819D02*
X102433714Y-52091628D01*
X102433714Y-52091628D02*
X102357524Y-52053533D01*
X102357524Y-52053533D02*
X102167048Y-52053533D01*
X102167048Y-52053533D02*
X102090857Y-52015438D01*
X101709904Y-51824961D02*
X101709904Y-52358295D01*
X101709904Y-51901152D02*
X101671809Y-51863057D01*
X101671809Y-51863057D02*
X101595619Y-51824961D01*
X101595619Y-51824961D02*
X101481333Y-51824961D01*
X101481333Y-51824961D02*
X101405142Y-51863057D01*
X101405142Y-51863057D02*
X101367047Y-51939247D01*
X101367047Y-51939247D02*
X101367047Y-52358295D01*
X100871809Y-52358295D02*
X100947999Y-52320200D01*
X100947999Y-52320200D02*
X100986094Y-52282104D01*
X100986094Y-52282104D02*
X101024190Y-52205914D01*
X101024190Y-52205914D02*
X101024190Y-51977342D01*
X101024190Y-51977342D02*
X100986094Y-51901152D01*
X100986094Y-51901152D02*
X100947999Y-51863057D01*
X100947999Y-51863057D02*
X100871809Y-51824961D01*
X100871809Y-51824961D02*
X100757523Y-51824961D01*
X100757523Y-51824961D02*
X100681332Y-51863057D01*
X100681332Y-51863057D02*
X100643237Y-51901152D01*
X100643237Y-51901152D02*
X100605142Y-51977342D01*
X100605142Y-51977342D02*
X100605142Y-52205914D01*
X100605142Y-52205914D02*
X100643237Y-52282104D01*
X100643237Y-52282104D02*
X100681332Y-52320200D01*
X100681332Y-52320200D02*
X100757523Y-52358295D01*
X100757523Y-52358295D02*
X100871809Y-52358295D01*
X99386094Y-51939247D02*
X99652760Y-51939247D01*
X99652760Y-52358295D02*
X99652760Y-51558295D01*
X99652760Y-51558295D02*
X99271808Y-51558295D01*
X98967046Y-52358295D02*
X98967046Y-51824961D01*
X98967046Y-51977342D02*
X98928951Y-51901152D01*
X98928951Y-51901152D02*
X98890856Y-51863057D01*
X98890856Y-51863057D02*
X98814665Y-51824961D01*
X98814665Y-51824961D02*
X98738475Y-51824961D01*
X98167046Y-52320200D02*
X98243237Y-52358295D01*
X98243237Y-52358295D02*
X98395618Y-52358295D01*
X98395618Y-52358295D02*
X98471808Y-52320200D01*
X98471808Y-52320200D02*
X98509904Y-52244009D01*
X98509904Y-52244009D02*
X98509904Y-51939247D01*
X98509904Y-51939247D02*
X98471808Y-51863057D01*
X98471808Y-51863057D02*
X98395618Y-51824961D01*
X98395618Y-51824961D02*
X98243237Y-51824961D01*
X98243237Y-51824961D02*
X98167046Y-51863057D01*
X98167046Y-51863057D02*
X98128951Y-51939247D01*
X98128951Y-51939247D02*
X98128951Y-52015438D01*
X98128951Y-52015438D02*
X98509904Y-52091628D01*
X97862285Y-51824961D02*
X97443237Y-51824961D01*
X97443237Y-51824961D02*
X97862285Y-52358295D01*
X97862285Y-52358295D02*
X97443237Y-52358295D01*
X97214666Y-51824961D02*
X96795618Y-51824961D01*
X96795618Y-51824961D02*
X97214666Y-52358295D01*
X97214666Y-52358295D02*
X96795618Y-52358295D01*
X96147999Y-52358295D02*
X96147999Y-51939247D01*
X96147999Y-51939247D02*
X96186094Y-51863057D01*
X96186094Y-51863057D02*
X96262285Y-51824961D01*
X96262285Y-51824961D02*
X96414666Y-51824961D01*
X96414666Y-51824961D02*
X96490856Y-51863057D01*
X96147999Y-52320200D02*
X96224190Y-52358295D01*
X96224190Y-52358295D02*
X96414666Y-52358295D01*
X96414666Y-52358295D02*
X96490856Y-52320200D01*
X96490856Y-52320200D02*
X96528952Y-52244009D01*
X96528952Y-52244009D02*
X96528952Y-52167819D01*
X96528952Y-52167819D02*
X96490856Y-52091628D01*
X96490856Y-52091628D02*
X96414666Y-52053533D01*
X96414666Y-52053533D02*
X96224190Y-52053533D01*
X96224190Y-52053533D02*
X96147999Y-52015438D01*
X107119428Y-53789247D02*
X106852762Y-53789247D01*
X106738476Y-54208295D02*
X107119428Y-54208295D01*
X107119428Y-54208295D02*
X107119428Y-53408295D01*
X107119428Y-53408295D02*
X106738476Y-53408295D01*
X106395618Y-54208295D02*
X106395618Y-53674961D01*
X106395618Y-53751152D02*
X106357523Y-53713057D01*
X106357523Y-53713057D02*
X106281333Y-53674961D01*
X106281333Y-53674961D02*
X106167047Y-53674961D01*
X106167047Y-53674961D02*
X106090856Y-53713057D01*
X106090856Y-53713057D02*
X106052761Y-53789247D01*
X106052761Y-53789247D02*
X106052761Y-54208295D01*
X106052761Y-53789247D02*
X106014666Y-53713057D01*
X106014666Y-53713057D02*
X105938475Y-53674961D01*
X105938475Y-53674961D02*
X105824190Y-53674961D01*
X105824190Y-53674961D02*
X105747999Y-53713057D01*
X105747999Y-53713057D02*
X105709904Y-53789247D01*
X105709904Y-53789247D02*
X105709904Y-54208295D01*
X105328951Y-54208295D02*
X105328951Y-53674961D01*
X105328951Y-53408295D02*
X105367047Y-53446390D01*
X105367047Y-53446390D02*
X105328951Y-53484485D01*
X105328951Y-53484485D02*
X105290856Y-53446390D01*
X105290856Y-53446390D02*
X105328951Y-53408295D01*
X105328951Y-53408295D02*
X105328951Y-53484485D01*
X104833714Y-54208295D02*
X104909904Y-54170200D01*
X104909904Y-54170200D02*
X104947999Y-54094009D01*
X104947999Y-54094009D02*
X104947999Y-53408295D01*
X104528951Y-54208295D02*
X104528951Y-53674961D01*
X104528951Y-53408295D02*
X104567047Y-53446390D01*
X104567047Y-53446390D02*
X104528951Y-53484485D01*
X104528951Y-53484485D02*
X104490856Y-53446390D01*
X104490856Y-53446390D02*
X104528951Y-53408295D01*
X104528951Y-53408295D02*
X104528951Y-53484485D01*
X103805142Y-54208295D02*
X103805142Y-53789247D01*
X103805142Y-53789247D02*
X103843237Y-53713057D01*
X103843237Y-53713057D02*
X103919428Y-53674961D01*
X103919428Y-53674961D02*
X104071809Y-53674961D01*
X104071809Y-53674961D02*
X104147999Y-53713057D01*
X103805142Y-54170200D02*
X103881333Y-54208295D01*
X103881333Y-54208295D02*
X104071809Y-54208295D01*
X104071809Y-54208295D02*
X104147999Y-54170200D01*
X104147999Y-54170200D02*
X104186095Y-54094009D01*
X104186095Y-54094009D02*
X104186095Y-54017819D01*
X104186095Y-54017819D02*
X104147999Y-53941628D01*
X104147999Y-53941628D02*
X104071809Y-53903533D01*
X104071809Y-53903533D02*
X103881333Y-53903533D01*
X103881333Y-53903533D02*
X103805142Y-53865438D01*
X103424189Y-53674961D02*
X103424189Y-54208295D01*
X103424189Y-53751152D02*
X103386094Y-53713057D01*
X103386094Y-53713057D02*
X103309904Y-53674961D01*
X103309904Y-53674961D02*
X103195618Y-53674961D01*
X103195618Y-53674961D02*
X103119427Y-53713057D01*
X103119427Y-53713057D02*
X103081332Y-53789247D01*
X103081332Y-53789247D02*
X103081332Y-54208295D01*
X102586094Y-54208295D02*
X102662284Y-54170200D01*
X102662284Y-54170200D02*
X102700379Y-54132104D01*
X102700379Y-54132104D02*
X102738475Y-54055914D01*
X102738475Y-54055914D02*
X102738475Y-53827342D01*
X102738475Y-53827342D02*
X102700379Y-53751152D01*
X102700379Y-53751152D02*
X102662284Y-53713057D01*
X102662284Y-53713057D02*
X102586094Y-53674961D01*
X102586094Y-53674961D02*
X102471808Y-53674961D01*
X102471808Y-53674961D02*
X102395617Y-53713057D01*
X102395617Y-53713057D02*
X102357522Y-53751152D01*
X102357522Y-53751152D02*
X102319427Y-53827342D01*
X102319427Y-53827342D02*
X102319427Y-54055914D01*
X102319427Y-54055914D02*
X102357522Y-54132104D01*
X102357522Y-54132104D02*
X102395617Y-54170200D01*
X102395617Y-54170200D02*
X102471808Y-54208295D01*
X102471808Y-54208295D02*
X102586094Y-54208295D01*
X100947998Y-53446390D02*
X101024188Y-53408295D01*
X101024188Y-53408295D02*
X101138474Y-53408295D01*
X101138474Y-53408295D02*
X101252760Y-53446390D01*
X101252760Y-53446390D02*
X101328950Y-53522580D01*
X101328950Y-53522580D02*
X101367045Y-53598771D01*
X101367045Y-53598771D02*
X101405141Y-53751152D01*
X101405141Y-53751152D02*
X101405141Y-53865438D01*
X101405141Y-53865438D02*
X101367045Y-54017819D01*
X101367045Y-54017819D02*
X101328950Y-54094009D01*
X101328950Y-54094009D02*
X101252760Y-54170200D01*
X101252760Y-54170200D02*
X101138474Y-54208295D01*
X101138474Y-54208295D02*
X101062283Y-54208295D01*
X101062283Y-54208295D02*
X100947998Y-54170200D01*
X100947998Y-54170200D02*
X100909902Y-54132104D01*
X100909902Y-54132104D02*
X100909902Y-53865438D01*
X100909902Y-53865438D02*
X101062283Y-53865438D01*
X100224188Y-53674961D02*
X100224188Y-54208295D01*
X100567045Y-53674961D02*
X100567045Y-54094009D01*
X100567045Y-54094009D02*
X100528950Y-54170200D01*
X100528950Y-54170200D02*
X100452760Y-54208295D01*
X100452760Y-54208295D02*
X100338474Y-54208295D01*
X100338474Y-54208295D02*
X100262283Y-54170200D01*
X100262283Y-54170200D02*
X100224188Y-54132104D01*
X99957521Y-53674961D02*
X99652759Y-53674961D01*
X99843235Y-53408295D02*
X99843235Y-54094009D01*
X99843235Y-54094009D02*
X99805140Y-54170200D01*
X99805140Y-54170200D02*
X99728950Y-54208295D01*
X99728950Y-54208295D02*
X99652759Y-54208295D01*
X99386092Y-54208295D02*
X99386092Y-53674961D01*
X99386092Y-53408295D02*
X99424188Y-53446390D01*
X99424188Y-53446390D02*
X99386092Y-53484485D01*
X99386092Y-53484485D02*
X99347997Y-53446390D01*
X99347997Y-53446390D02*
X99386092Y-53408295D01*
X99386092Y-53408295D02*
X99386092Y-53484485D01*
X98700378Y-54170200D02*
X98776569Y-54208295D01*
X98776569Y-54208295D02*
X98928950Y-54208295D01*
X98928950Y-54208295D02*
X99005140Y-54170200D01*
X99005140Y-54170200D02*
X99043236Y-54094009D01*
X99043236Y-54094009D02*
X99043236Y-53789247D01*
X99043236Y-53789247D02*
X99005140Y-53713057D01*
X99005140Y-53713057D02*
X98928950Y-53674961D01*
X98928950Y-53674961D02*
X98776569Y-53674961D01*
X98776569Y-53674961D02*
X98700378Y-53713057D01*
X98700378Y-53713057D02*
X98662283Y-53789247D01*
X98662283Y-53789247D02*
X98662283Y-53865438D01*
X98662283Y-53865438D02*
X99043236Y-53941628D01*
X98776569Y-53370200D02*
X98890855Y-53484485D01*
X98319426Y-54208295D02*
X98319426Y-53674961D01*
X98319426Y-53827342D02*
X98281331Y-53751152D01*
X98281331Y-53751152D02*
X98243236Y-53713057D01*
X98243236Y-53713057D02*
X98167045Y-53674961D01*
X98167045Y-53674961D02*
X98090855Y-53674961D01*
X97824188Y-54208295D02*
X97824188Y-53674961D01*
X97824188Y-53827342D02*
X97786093Y-53751152D01*
X97786093Y-53751152D02*
X97747998Y-53713057D01*
X97747998Y-53713057D02*
X97671807Y-53674961D01*
X97671807Y-53674961D02*
X97595617Y-53674961D01*
X97024188Y-54170200D02*
X97100379Y-54208295D01*
X97100379Y-54208295D02*
X97252760Y-54208295D01*
X97252760Y-54208295D02*
X97328950Y-54170200D01*
X97328950Y-54170200D02*
X97367046Y-54094009D01*
X97367046Y-54094009D02*
X97367046Y-53789247D01*
X97367046Y-53789247D02*
X97328950Y-53713057D01*
X97328950Y-53713057D02*
X97252760Y-53674961D01*
X97252760Y-53674961D02*
X97100379Y-53674961D01*
X97100379Y-53674961D02*
X97024188Y-53713057D01*
X97024188Y-53713057D02*
X96986093Y-53789247D01*
X96986093Y-53789247D02*
X96986093Y-53865438D01*
X96986093Y-53865438D02*
X97367046Y-53941628D01*
X96719427Y-53674961D02*
X96300379Y-53674961D01*
X96300379Y-53674961D02*
X96719427Y-54208295D01*
X96719427Y-54208295D02*
X96300379Y-54208295D01*
X105367048Y-55829722D02*
X104986095Y-55829722D01*
X105443238Y-56058294D02*
X105176571Y-55258294D01*
X105176571Y-55258294D02*
X104909905Y-56058294D01*
X104300381Y-56058294D02*
X104300381Y-55258294D01*
X104300381Y-56020199D02*
X104376572Y-56058294D01*
X104376572Y-56058294D02*
X104528953Y-56058294D01*
X104528953Y-56058294D02*
X104605143Y-56020199D01*
X104605143Y-56020199D02*
X104643238Y-55982103D01*
X104643238Y-55982103D02*
X104681334Y-55905913D01*
X104681334Y-55905913D02*
X104681334Y-55677341D01*
X104681334Y-55677341D02*
X104643238Y-55601151D01*
X104643238Y-55601151D02*
X104605143Y-55563056D01*
X104605143Y-55563056D02*
X104528953Y-55524960D01*
X104528953Y-55524960D02*
X104376572Y-55524960D01*
X104376572Y-55524960D02*
X104300381Y-55563056D01*
X103805143Y-56058294D02*
X103881333Y-56020199D01*
X103881333Y-56020199D02*
X103919428Y-55982103D01*
X103919428Y-55982103D02*
X103957524Y-55905913D01*
X103957524Y-55905913D02*
X103957524Y-55677341D01*
X103957524Y-55677341D02*
X103919428Y-55601151D01*
X103919428Y-55601151D02*
X103881333Y-55563056D01*
X103881333Y-55563056D02*
X103805143Y-55524960D01*
X103805143Y-55524960D02*
X103690857Y-55524960D01*
X103690857Y-55524960D02*
X103614666Y-55563056D01*
X103614666Y-55563056D02*
X103576571Y-55601151D01*
X103576571Y-55601151D02*
X103538476Y-55677341D01*
X103538476Y-55677341D02*
X103538476Y-55905913D01*
X103538476Y-55905913D02*
X103576571Y-55982103D01*
X103576571Y-55982103D02*
X103614666Y-56020199D01*
X103614666Y-56020199D02*
X103690857Y-56058294D01*
X103690857Y-56058294D02*
X103805143Y-56058294D01*
X103081333Y-56058294D02*
X103157523Y-56020199D01*
X103157523Y-56020199D02*
X103195618Y-55944008D01*
X103195618Y-55944008D02*
X103195618Y-55258294D01*
X102890856Y-55524960D02*
X102586094Y-55524960D01*
X102776570Y-56058294D02*
X102776570Y-55372579D01*
X102776570Y-55372579D02*
X102738475Y-55296389D01*
X102738475Y-55296389D02*
X102662285Y-55258294D01*
X102662285Y-55258294D02*
X102586094Y-55258294D01*
X102205142Y-56058294D02*
X102281332Y-56020199D01*
X102281332Y-56020199D02*
X102319427Y-55982103D01*
X102319427Y-55982103D02*
X102357523Y-55905913D01*
X102357523Y-55905913D02*
X102357523Y-55677341D01*
X102357523Y-55677341D02*
X102319427Y-55601151D01*
X102319427Y-55601151D02*
X102281332Y-55563056D01*
X102281332Y-55563056D02*
X102205142Y-55524960D01*
X102205142Y-55524960D02*
X102090856Y-55524960D01*
X102090856Y-55524960D02*
X102014665Y-55563056D01*
X102014665Y-55563056D02*
X101976570Y-55601151D01*
X101976570Y-55601151D02*
X101938475Y-55677341D01*
X101938475Y-55677341D02*
X101938475Y-55905913D01*
X101938475Y-55905913D02*
X101976570Y-55982103D01*
X101976570Y-55982103D02*
X102014665Y-56020199D01*
X102014665Y-56020199D02*
X102090856Y-56058294D01*
X102090856Y-56058294D02*
X102205142Y-56058294D01*
X100528950Y-56058294D02*
X100795617Y-55677341D01*
X100986093Y-56058294D02*
X100986093Y-55258294D01*
X100986093Y-55258294D02*
X100681331Y-55258294D01*
X100681331Y-55258294D02*
X100605141Y-55296389D01*
X100605141Y-55296389D02*
X100567046Y-55334484D01*
X100567046Y-55334484D02*
X100528950Y-55410675D01*
X100528950Y-55410675D02*
X100528950Y-55524960D01*
X100528950Y-55524960D02*
X100567046Y-55601151D01*
X100567046Y-55601151D02*
X100605141Y-55639246D01*
X100605141Y-55639246D02*
X100681331Y-55677341D01*
X100681331Y-55677341D02*
X100986093Y-55677341D01*
X100186093Y-56058294D02*
X100186093Y-55524960D01*
X100186093Y-55258294D02*
X100224189Y-55296389D01*
X100224189Y-55296389D02*
X100186093Y-55334484D01*
X100186093Y-55334484D02*
X100147998Y-55296389D01*
X100147998Y-55296389D02*
X100186093Y-55258294D01*
X100186093Y-55258294D02*
X100186093Y-55334484D01*
X99881332Y-55524960D02*
X99462284Y-55524960D01*
X99462284Y-55524960D02*
X99881332Y-56058294D01*
X99881332Y-56058294D02*
X99462284Y-56058294D01*
X99233713Y-55524960D02*
X98814665Y-55524960D01*
X98814665Y-55524960D02*
X99233713Y-56058294D01*
X99233713Y-56058294D02*
X98814665Y-56058294D01*
X98395618Y-56058294D02*
X98471808Y-56020199D01*
X98471808Y-56020199D02*
X98509903Y-55982103D01*
X98509903Y-55982103D02*
X98547999Y-55905913D01*
X98547999Y-55905913D02*
X98547999Y-55677341D01*
X98547999Y-55677341D02*
X98509903Y-55601151D01*
X98509903Y-55601151D02*
X98471808Y-55563056D01*
X98471808Y-55563056D02*
X98395618Y-55524960D01*
X98395618Y-55524960D02*
X98281332Y-55524960D01*
X98281332Y-55524960D02*
X98205141Y-55563056D01*
X98205141Y-55563056D02*
X98167046Y-55601151D01*
X98167046Y-55601151D02*
X98128951Y-55677341D01*
X98128951Y-55677341D02*
X98128951Y-55905913D01*
X98128951Y-55905913D02*
X98167046Y-55982103D01*
X98167046Y-55982103D02*
X98205141Y-56020199D01*
X98205141Y-56020199D02*
X98281332Y-56058294D01*
X98281332Y-56058294D02*
X98395618Y-56058294D01*
X105728952Y-57908295D02*
X105728952Y-57108295D01*
X105005143Y-57374961D02*
X105005143Y-58022580D01*
X105005143Y-58022580D02*
X105043238Y-58098771D01*
X105043238Y-58098771D02*
X105081334Y-58136866D01*
X105081334Y-58136866D02*
X105157524Y-58174961D01*
X105157524Y-58174961D02*
X105271810Y-58174961D01*
X105271810Y-58174961D02*
X105348000Y-58136866D01*
X105005143Y-57870200D02*
X105081334Y-57908295D01*
X105081334Y-57908295D02*
X105233715Y-57908295D01*
X105233715Y-57908295D02*
X105309905Y-57870200D01*
X105309905Y-57870200D02*
X105348000Y-57832104D01*
X105348000Y-57832104D02*
X105386096Y-57755914D01*
X105386096Y-57755914D02*
X105386096Y-57527342D01*
X105386096Y-57527342D02*
X105348000Y-57451152D01*
X105348000Y-57451152D02*
X105309905Y-57413057D01*
X105309905Y-57413057D02*
X105233715Y-57374961D01*
X105233715Y-57374961D02*
X105081334Y-57374961D01*
X105081334Y-57374961D02*
X105005143Y-57413057D01*
X104624190Y-57374961D02*
X104624190Y-57908295D01*
X104624190Y-57451152D02*
X104586095Y-57413057D01*
X104586095Y-57413057D02*
X104509905Y-57374961D01*
X104509905Y-57374961D02*
X104395619Y-57374961D01*
X104395619Y-57374961D02*
X104319428Y-57413057D01*
X104319428Y-57413057D02*
X104281333Y-57489247D01*
X104281333Y-57489247D02*
X104281333Y-57908295D01*
X103557523Y-57908295D02*
X103557523Y-57489247D01*
X103557523Y-57489247D02*
X103595618Y-57413057D01*
X103595618Y-57413057D02*
X103671809Y-57374961D01*
X103671809Y-57374961D02*
X103824190Y-57374961D01*
X103824190Y-57374961D02*
X103900380Y-57413057D01*
X103557523Y-57870200D02*
X103633714Y-57908295D01*
X103633714Y-57908295D02*
X103824190Y-57908295D01*
X103824190Y-57908295D02*
X103900380Y-57870200D01*
X103900380Y-57870200D02*
X103938476Y-57794009D01*
X103938476Y-57794009D02*
X103938476Y-57717819D01*
X103938476Y-57717819D02*
X103900380Y-57641628D01*
X103900380Y-57641628D02*
X103824190Y-57603533D01*
X103824190Y-57603533D02*
X103633714Y-57603533D01*
X103633714Y-57603533D02*
X103557523Y-57565438D01*
X102833713Y-57870200D02*
X102909904Y-57908295D01*
X102909904Y-57908295D02*
X103062285Y-57908295D01*
X103062285Y-57908295D02*
X103138475Y-57870200D01*
X103138475Y-57870200D02*
X103176570Y-57832104D01*
X103176570Y-57832104D02*
X103214666Y-57755914D01*
X103214666Y-57755914D02*
X103214666Y-57527342D01*
X103214666Y-57527342D02*
X103176570Y-57451152D01*
X103176570Y-57451152D02*
X103138475Y-57413057D01*
X103138475Y-57413057D02*
X103062285Y-57374961D01*
X103062285Y-57374961D02*
X102909904Y-57374961D01*
X102909904Y-57374961D02*
X102833713Y-57413057D01*
X102490856Y-57908295D02*
X102490856Y-57374961D01*
X102490856Y-57108295D02*
X102528952Y-57146390D01*
X102528952Y-57146390D02*
X102490856Y-57184485D01*
X102490856Y-57184485D02*
X102452761Y-57146390D01*
X102452761Y-57146390D02*
X102490856Y-57108295D01*
X102490856Y-57108295D02*
X102490856Y-57184485D01*
X101995619Y-57908295D02*
X102071809Y-57870200D01*
X102071809Y-57870200D02*
X102109904Y-57832104D01*
X102109904Y-57832104D02*
X102148000Y-57755914D01*
X102148000Y-57755914D02*
X102148000Y-57527342D01*
X102148000Y-57527342D02*
X102109904Y-57451152D01*
X102109904Y-57451152D02*
X102071809Y-57413057D01*
X102071809Y-57413057D02*
X101995619Y-57374961D01*
X101995619Y-57374961D02*
X101881333Y-57374961D01*
X101881333Y-57374961D02*
X101805142Y-57413057D01*
X101805142Y-57413057D02*
X101767047Y-57451152D01*
X101767047Y-57451152D02*
X101728952Y-57527342D01*
X101728952Y-57527342D02*
X101728952Y-57755914D01*
X101728952Y-57755914D02*
X101767047Y-57832104D01*
X101767047Y-57832104D02*
X101805142Y-57870200D01*
X101805142Y-57870200D02*
X101881333Y-57908295D01*
X101881333Y-57908295D02*
X101995619Y-57908295D01*
X100776570Y-57908295D02*
X100776570Y-57108295D01*
X100776570Y-57108295D02*
X100471808Y-57108295D01*
X100471808Y-57108295D02*
X100395618Y-57146390D01*
X100395618Y-57146390D02*
X100357523Y-57184485D01*
X100357523Y-57184485D02*
X100319427Y-57260676D01*
X100319427Y-57260676D02*
X100319427Y-57374961D01*
X100319427Y-57374961D02*
X100357523Y-57451152D01*
X100357523Y-57451152D02*
X100395618Y-57489247D01*
X100395618Y-57489247D02*
X100471808Y-57527342D01*
X100471808Y-57527342D02*
X100776570Y-57527342D01*
X99671808Y-57870200D02*
X99747999Y-57908295D01*
X99747999Y-57908295D02*
X99900380Y-57908295D01*
X99900380Y-57908295D02*
X99976570Y-57870200D01*
X99976570Y-57870200D02*
X100014666Y-57794009D01*
X100014666Y-57794009D02*
X100014666Y-57489247D01*
X100014666Y-57489247D02*
X99976570Y-57413057D01*
X99976570Y-57413057D02*
X99900380Y-57374961D01*
X99900380Y-57374961D02*
X99747999Y-57374961D01*
X99747999Y-57374961D02*
X99671808Y-57413057D01*
X99671808Y-57413057D02*
X99633713Y-57489247D01*
X99633713Y-57489247D02*
X99633713Y-57565438D01*
X99633713Y-57565438D02*
X100014666Y-57641628D01*
X99290856Y-57908295D02*
X99290856Y-57374961D01*
X99290856Y-57527342D02*
X99252761Y-57451152D01*
X99252761Y-57451152D02*
X99214666Y-57413057D01*
X99214666Y-57413057D02*
X99138475Y-57374961D01*
X99138475Y-57374961D02*
X99062285Y-57374961D01*
X98490856Y-57870200D02*
X98567047Y-57908295D01*
X98567047Y-57908295D02*
X98719428Y-57908295D01*
X98719428Y-57908295D02*
X98795618Y-57870200D01*
X98795618Y-57870200D02*
X98833714Y-57794009D01*
X98833714Y-57794009D02*
X98833714Y-57489247D01*
X98833714Y-57489247D02*
X98795618Y-57413057D01*
X98795618Y-57413057D02*
X98719428Y-57374961D01*
X98719428Y-57374961D02*
X98567047Y-57374961D01*
X98567047Y-57374961D02*
X98490856Y-57413057D01*
X98490856Y-57413057D02*
X98452761Y-57489247D01*
X98452761Y-57489247D02*
X98452761Y-57565438D01*
X98452761Y-57565438D02*
X98833714Y-57641628D01*
X97767047Y-57908295D02*
X97767047Y-57489247D01*
X97767047Y-57489247D02*
X97805142Y-57413057D01*
X97805142Y-57413057D02*
X97881333Y-57374961D01*
X97881333Y-57374961D02*
X98033714Y-57374961D01*
X98033714Y-57374961D02*
X98109904Y-57413057D01*
X97767047Y-57870200D02*
X97843238Y-57908295D01*
X97843238Y-57908295D02*
X98033714Y-57908295D01*
X98033714Y-57908295D02*
X98109904Y-57870200D01*
X98109904Y-57870200D02*
X98148000Y-57794009D01*
X98148000Y-57794009D02*
X98148000Y-57717819D01*
X98148000Y-57717819D02*
X98109904Y-57641628D01*
X98109904Y-57641628D02*
X98033714Y-57603533D01*
X98033714Y-57603533D02*
X97843238Y-57603533D01*
X97843238Y-57603533D02*
X97767047Y-57565438D01*
X106395620Y-58996390D02*
X106471810Y-58958295D01*
X106471810Y-58958295D02*
X106586096Y-58958295D01*
X106586096Y-58958295D02*
X106700382Y-58996390D01*
X106700382Y-58996390D02*
X106776572Y-59072580D01*
X106776572Y-59072580D02*
X106814667Y-59148771D01*
X106814667Y-59148771D02*
X106852763Y-59301152D01*
X106852763Y-59301152D02*
X106852763Y-59415438D01*
X106852763Y-59415438D02*
X106814667Y-59567819D01*
X106814667Y-59567819D02*
X106776572Y-59644009D01*
X106776572Y-59644009D02*
X106700382Y-59720200D01*
X106700382Y-59720200D02*
X106586096Y-59758295D01*
X106586096Y-59758295D02*
X106509905Y-59758295D01*
X106509905Y-59758295D02*
X106395620Y-59720200D01*
X106395620Y-59720200D02*
X106357524Y-59682104D01*
X106357524Y-59682104D02*
X106357524Y-59415438D01*
X106357524Y-59415438D02*
X106509905Y-59415438D01*
X105900382Y-59758295D02*
X105976572Y-59720200D01*
X105976572Y-59720200D02*
X106014667Y-59682104D01*
X106014667Y-59682104D02*
X106052763Y-59605914D01*
X106052763Y-59605914D02*
X106052763Y-59377342D01*
X106052763Y-59377342D02*
X106014667Y-59301152D01*
X106014667Y-59301152D02*
X105976572Y-59263057D01*
X105976572Y-59263057D02*
X105900382Y-59224961D01*
X105900382Y-59224961D02*
X105786096Y-59224961D01*
X105786096Y-59224961D02*
X105709905Y-59263057D01*
X105709905Y-59263057D02*
X105671810Y-59301152D01*
X105671810Y-59301152D02*
X105633715Y-59377342D01*
X105633715Y-59377342D02*
X105633715Y-59605914D01*
X105633715Y-59605914D02*
X105671810Y-59682104D01*
X105671810Y-59682104D02*
X105709905Y-59720200D01*
X105709905Y-59720200D02*
X105786096Y-59758295D01*
X105786096Y-59758295D02*
X105900382Y-59758295D01*
X105290857Y-59224961D02*
X105290857Y-59758295D01*
X105290857Y-59301152D02*
X105252762Y-59263057D01*
X105252762Y-59263057D02*
X105176572Y-59224961D01*
X105176572Y-59224961D02*
X105062286Y-59224961D01*
X105062286Y-59224961D02*
X104986095Y-59263057D01*
X104986095Y-59263057D02*
X104948000Y-59339247D01*
X104948000Y-59339247D02*
X104948000Y-59758295D01*
X104643238Y-59224961D02*
X104224190Y-59224961D01*
X104224190Y-59224961D02*
X104643238Y-59758295D01*
X104643238Y-59758295D02*
X104224190Y-59758295D01*
X103576571Y-59758295D02*
X103576571Y-59339247D01*
X103576571Y-59339247D02*
X103614666Y-59263057D01*
X103614666Y-59263057D02*
X103690857Y-59224961D01*
X103690857Y-59224961D02*
X103843238Y-59224961D01*
X103843238Y-59224961D02*
X103919428Y-59263057D01*
X103576571Y-59720200D02*
X103652762Y-59758295D01*
X103652762Y-59758295D02*
X103843238Y-59758295D01*
X103843238Y-59758295D02*
X103919428Y-59720200D01*
X103919428Y-59720200D02*
X103957524Y-59644009D01*
X103957524Y-59644009D02*
X103957524Y-59567819D01*
X103957524Y-59567819D02*
X103919428Y-59491628D01*
X103919428Y-59491628D02*
X103843238Y-59453533D01*
X103843238Y-59453533D02*
X103652762Y-59453533D01*
X103652762Y-59453533D02*
X103576571Y-59415438D01*
X103081333Y-59758295D02*
X103157523Y-59720200D01*
X103157523Y-59720200D02*
X103195618Y-59644009D01*
X103195618Y-59644009D02*
X103195618Y-58958295D01*
X102662285Y-59758295D02*
X102738475Y-59720200D01*
X102738475Y-59720200D02*
X102776570Y-59682104D01*
X102776570Y-59682104D02*
X102814666Y-59605914D01*
X102814666Y-59605914D02*
X102814666Y-59377342D01*
X102814666Y-59377342D02*
X102776570Y-59301152D01*
X102776570Y-59301152D02*
X102738475Y-59263057D01*
X102738475Y-59263057D02*
X102662285Y-59224961D01*
X102662285Y-59224961D02*
X102547999Y-59224961D01*
X102547999Y-59224961D02*
X102471808Y-59263057D01*
X102471808Y-59263057D02*
X102433713Y-59301152D01*
X102433713Y-59301152D02*
X102395618Y-59377342D01*
X102395618Y-59377342D02*
X102395618Y-59605914D01*
X102395618Y-59605914D02*
X102433713Y-59682104D01*
X102433713Y-59682104D02*
X102471808Y-59720200D01*
X102471808Y-59720200D02*
X102547999Y-59758295D01*
X102547999Y-59758295D02*
X102662285Y-59758295D01*
X101176570Y-59339247D02*
X101443236Y-59339247D01*
X101443236Y-59758295D02*
X101443236Y-58958295D01*
X101443236Y-58958295D02*
X101062284Y-58958295D01*
X100757522Y-59758295D02*
X100757522Y-59224961D01*
X100757522Y-58958295D02*
X100795618Y-58996390D01*
X100795618Y-58996390D02*
X100757522Y-59034485D01*
X100757522Y-59034485D02*
X100719427Y-58996390D01*
X100719427Y-58996390D02*
X100757522Y-58958295D01*
X100757522Y-58958295D02*
X100757522Y-59034485D01*
X100262285Y-59758295D02*
X100338475Y-59720200D01*
X100338475Y-59720200D02*
X100376570Y-59644009D01*
X100376570Y-59644009D02*
X100376570Y-58958295D01*
X99995618Y-59720200D02*
X99919427Y-59758295D01*
X99919427Y-59758295D02*
X99767046Y-59758295D01*
X99767046Y-59758295D02*
X99690856Y-59720200D01*
X99690856Y-59720200D02*
X99652760Y-59644009D01*
X99652760Y-59644009D02*
X99652760Y-59605914D01*
X99652760Y-59605914D02*
X99690856Y-59529723D01*
X99690856Y-59529723D02*
X99767046Y-59491628D01*
X99767046Y-59491628D02*
X99881332Y-59491628D01*
X99881332Y-59491628D02*
X99957522Y-59453533D01*
X99957522Y-59453533D02*
X99995618Y-59377342D01*
X99995618Y-59377342D02*
X99995618Y-59339247D01*
X99995618Y-59339247D02*
X99957522Y-59263057D01*
X99957522Y-59263057D02*
X99881332Y-59224961D01*
X99881332Y-59224961D02*
X99767046Y-59224961D01*
X99767046Y-59224961D02*
X99690856Y-59263057D01*
X99309903Y-59758295D02*
X99309903Y-59224961D01*
X99309903Y-58958295D02*
X99347999Y-58996390D01*
X99347999Y-58996390D02*
X99309903Y-59034485D01*
X99309903Y-59034485D02*
X99271808Y-58996390D01*
X99271808Y-58996390D02*
X99309903Y-58958295D01*
X99309903Y-58958295D02*
X99309903Y-59034485D01*
X98928951Y-59224961D02*
X98928951Y-59758295D01*
X98928951Y-59301152D02*
X98890856Y-59263057D01*
X98890856Y-59263057D02*
X98814666Y-59224961D01*
X98814666Y-59224961D02*
X98700380Y-59224961D01*
X98700380Y-59224961D02*
X98624189Y-59263057D01*
X98624189Y-59263057D02*
X98586094Y-59339247D01*
X98586094Y-59339247D02*
X98586094Y-59758295D01*
X97862284Y-59224961D02*
X97862284Y-59872580D01*
X97862284Y-59872580D02*
X97900379Y-59948771D01*
X97900379Y-59948771D02*
X97938475Y-59986866D01*
X97938475Y-59986866D02*
X98014665Y-60024961D01*
X98014665Y-60024961D02*
X98128951Y-60024961D01*
X98128951Y-60024961D02*
X98205141Y-59986866D01*
X97862284Y-59720200D02*
X97938475Y-59758295D01*
X97938475Y-59758295D02*
X98090856Y-59758295D01*
X98090856Y-59758295D02*
X98167046Y-59720200D01*
X98167046Y-59720200D02*
X98205141Y-59682104D01*
X98205141Y-59682104D02*
X98243237Y-59605914D01*
X98243237Y-59605914D02*
X98243237Y-59377342D01*
X98243237Y-59377342D02*
X98205141Y-59301152D01*
X98205141Y-59301152D02*
X98167046Y-59263057D01*
X98167046Y-59263057D02*
X98090856Y-59224961D01*
X98090856Y-59224961D02*
X97938475Y-59224961D01*
X97938475Y-59224961D02*
X97862284Y-59263057D01*
X97176569Y-59720200D02*
X97252760Y-59758295D01*
X97252760Y-59758295D02*
X97405141Y-59758295D01*
X97405141Y-59758295D02*
X97481331Y-59720200D01*
X97481331Y-59720200D02*
X97519427Y-59644009D01*
X97519427Y-59644009D02*
X97519427Y-59339247D01*
X97519427Y-59339247D02*
X97481331Y-59263057D01*
X97481331Y-59263057D02*
X97405141Y-59224961D01*
X97405141Y-59224961D02*
X97252760Y-59224961D01*
X97252760Y-59224961D02*
X97176569Y-59263057D01*
X97176569Y-59263057D02*
X97138474Y-59339247D01*
X97138474Y-59339247D02*
X97138474Y-59415438D01*
X97138474Y-59415438D02*
X97519427Y-59491628D01*
X96795617Y-59758295D02*
X96795617Y-59224961D01*
X96795617Y-59377342D02*
X96757522Y-59301152D01*
X96757522Y-59301152D02*
X96719427Y-59263057D01*
X96719427Y-59263057D02*
X96643236Y-59224961D01*
X96643236Y-59224961D02*
X96567046Y-59224961D01*
X107671810Y-61608295D02*
X107671810Y-60808295D01*
X107671810Y-60808295D02*
X107405144Y-61379723D01*
X107405144Y-61379723D02*
X107138477Y-60808295D01*
X107138477Y-60808295D02*
X107138477Y-61608295D01*
X106414667Y-61608295D02*
X106414667Y-61189247D01*
X106414667Y-61189247D02*
X106452762Y-61113057D01*
X106452762Y-61113057D02*
X106528953Y-61074961D01*
X106528953Y-61074961D02*
X106681334Y-61074961D01*
X106681334Y-61074961D02*
X106757524Y-61113057D01*
X106414667Y-61570200D02*
X106490858Y-61608295D01*
X106490858Y-61608295D02*
X106681334Y-61608295D01*
X106681334Y-61608295D02*
X106757524Y-61570200D01*
X106757524Y-61570200D02*
X106795620Y-61494009D01*
X106795620Y-61494009D02*
X106795620Y-61417819D01*
X106795620Y-61417819D02*
X106757524Y-61341628D01*
X106757524Y-61341628D02*
X106681334Y-61303533D01*
X106681334Y-61303533D02*
X106490858Y-61303533D01*
X106490858Y-61303533D02*
X106414667Y-61265438D01*
X106033714Y-61074961D02*
X106033714Y-61608295D01*
X106033714Y-61151152D02*
X105995619Y-61113057D01*
X105995619Y-61113057D02*
X105919429Y-61074961D01*
X105919429Y-61074961D02*
X105805143Y-61074961D01*
X105805143Y-61074961D02*
X105728952Y-61113057D01*
X105728952Y-61113057D02*
X105690857Y-61189247D01*
X105690857Y-61189247D02*
X105690857Y-61608295D01*
X104967047Y-61074961D02*
X104967047Y-61608295D01*
X105309904Y-61074961D02*
X105309904Y-61494009D01*
X105309904Y-61494009D02*
X105271809Y-61570200D01*
X105271809Y-61570200D02*
X105195619Y-61608295D01*
X105195619Y-61608295D02*
X105081333Y-61608295D01*
X105081333Y-61608295D02*
X105005142Y-61570200D01*
X105005142Y-61570200D02*
X104967047Y-61532104D01*
X104281332Y-61570200D02*
X104357523Y-61608295D01*
X104357523Y-61608295D02*
X104509904Y-61608295D01*
X104509904Y-61608295D02*
X104586094Y-61570200D01*
X104586094Y-61570200D02*
X104624190Y-61494009D01*
X104624190Y-61494009D02*
X104624190Y-61189247D01*
X104624190Y-61189247D02*
X104586094Y-61113057D01*
X104586094Y-61113057D02*
X104509904Y-61074961D01*
X104509904Y-61074961D02*
X104357523Y-61074961D01*
X104357523Y-61074961D02*
X104281332Y-61113057D01*
X104281332Y-61113057D02*
X104243237Y-61189247D01*
X104243237Y-61189247D02*
X104243237Y-61265438D01*
X104243237Y-61265438D02*
X104624190Y-61341628D01*
X103786095Y-61608295D02*
X103862285Y-61570200D01*
X103862285Y-61570200D02*
X103900380Y-61494009D01*
X103900380Y-61494009D02*
X103900380Y-60808295D01*
X102490856Y-61608295D02*
X102871808Y-61608295D01*
X102871808Y-61608295D02*
X102871808Y-60808295D01*
X101919427Y-61570200D02*
X101995618Y-61608295D01*
X101995618Y-61608295D02*
X102147999Y-61608295D01*
X102147999Y-61608295D02*
X102224189Y-61570200D01*
X102224189Y-61570200D02*
X102262285Y-61494009D01*
X102262285Y-61494009D02*
X102262285Y-61189247D01*
X102262285Y-61189247D02*
X102224189Y-61113057D01*
X102224189Y-61113057D02*
X102147999Y-61074961D01*
X102147999Y-61074961D02*
X101995618Y-61074961D01*
X101995618Y-61074961D02*
X101919427Y-61113057D01*
X101919427Y-61113057D02*
X101881332Y-61189247D01*
X101881332Y-61189247D02*
X101881332Y-61265438D01*
X101881332Y-61265438D02*
X102262285Y-61341628D01*
X101424190Y-61608295D02*
X101500380Y-61570200D01*
X101500380Y-61570200D02*
X101538475Y-61532104D01*
X101538475Y-61532104D02*
X101576571Y-61455914D01*
X101576571Y-61455914D02*
X101576571Y-61227342D01*
X101576571Y-61227342D02*
X101538475Y-61151152D01*
X101538475Y-61151152D02*
X101500380Y-61113057D01*
X101500380Y-61113057D02*
X101424190Y-61074961D01*
X101424190Y-61074961D02*
X101309904Y-61074961D01*
X101309904Y-61074961D02*
X101233713Y-61113057D01*
X101233713Y-61113057D02*
X101195618Y-61151152D01*
X101195618Y-61151152D02*
X101157523Y-61227342D01*
X101157523Y-61227342D02*
X101157523Y-61455914D01*
X101157523Y-61455914D02*
X101195618Y-61532104D01*
X101195618Y-61532104D02*
X101233713Y-61570200D01*
X101233713Y-61570200D02*
X101309904Y-61608295D01*
X101309904Y-61608295D02*
X101424190Y-61608295D01*
X100814665Y-61074961D02*
X100814665Y-61608295D01*
X100814665Y-61151152D02*
X100776570Y-61113057D01*
X100776570Y-61113057D02*
X100700380Y-61074961D01*
X100700380Y-61074961D02*
X100586094Y-61074961D01*
X100586094Y-61074961D02*
X100509903Y-61113057D01*
X100509903Y-61113057D02*
X100471808Y-61189247D01*
X100471808Y-61189247D02*
X100471808Y-61608295D01*
X99481331Y-61608295D02*
X99481331Y-60808295D01*
X99481331Y-60808295D02*
X99176569Y-60808295D01*
X99176569Y-60808295D02*
X99100379Y-60846390D01*
X99100379Y-60846390D02*
X99062284Y-60884485D01*
X99062284Y-60884485D02*
X99024188Y-60960676D01*
X99024188Y-60960676D02*
X99024188Y-61074961D01*
X99024188Y-61074961D02*
X99062284Y-61151152D01*
X99062284Y-61151152D02*
X99100379Y-61189247D01*
X99100379Y-61189247D02*
X99176569Y-61227342D01*
X99176569Y-61227342D02*
X99481331Y-61227342D01*
X98338474Y-61608295D02*
X98338474Y-61189247D01*
X98338474Y-61189247D02*
X98376569Y-61113057D01*
X98376569Y-61113057D02*
X98452760Y-61074961D01*
X98452760Y-61074961D02*
X98605141Y-61074961D01*
X98605141Y-61074961D02*
X98681331Y-61113057D01*
X98338474Y-61570200D02*
X98414665Y-61608295D01*
X98414665Y-61608295D02*
X98605141Y-61608295D01*
X98605141Y-61608295D02*
X98681331Y-61570200D01*
X98681331Y-61570200D02*
X98719427Y-61494009D01*
X98719427Y-61494009D02*
X98719427Y-61417819D01*
X98719427Y-61417819D02*
X98681331Y-61341628D01*
X98681331Y-61341628D02*
X98605141Y-61303533D01*
X98605141Y-61303533D02*
X98414665Y-61303533D01*
X98414665Y-61303533D02*
X98338474Y-61265438D01*
X97957521Y-61608295D02*
X97957521Y-61074961D01*
X97957521Y-61227342D02*
X97919426Y-61151152D01*
X97919426Y-61151152D02*
X97881331Y-61113057D01*
X97881331Y-61113057D02*
X97805140Y-61074961D01*
X97805140Y-61074961D02*
X97728950Y-61074961D01*
X97576569Y-61074961D02*
X97271807Y-61074961D01*
X97462283Y-61608295D02*
X97462283Y-60922580D01*
X97462283Y-60922580D02*
X97424188Y-60846390D01*
X97424188Y-60846390D02*
X97347998Y-60808295D01*
X97347998Y-60808295D02*
X97271807Y-60808295D01*
X96662283Y-61608295D02*
X96662283Y-61189247D01*
X96662283Y-61189247D02*
X96700378Y-61113057D01*
X96700378Y-61113057D02*
X96776569Y-61074961D01*
X96776569Y-61074961D02*
X96928950Y-61074961D01*
X96928950Y-61074961D02*
X97005140Y-61113057D01*
X96662283Y-61570200D02*
X96738474Y-61608295D01*
X96738474Y-61608295D02*
X96928950Y-61608295D01*
X96928950Y-61608295D02*
X97005140Y-61570200D01*
X97005140Y-61570200D02*
X97043236Y-61494009D01*
X97043236Y-61494009D02*
X97043236Y-61417819D01*
X97043236Y-61417819D02*
X97005140Y-61341628D01*
X97005140Y-61341628D02*
X96928950Y-61303533D01*
X96928950Y-61303533D02*
X96738474Y-61303533D01*
X96738474Y-61303533D02*
X96662283Y-61265438D01*
X96281330Y-61608295D02*
X96281330Y-61074961D01*
X96281330Y-60808295D02*
X96319426Y-60846390D01*
X96319426Y-60846390D02*
X96281330Y-60884485D01*
X96281330Y-60884485D02*
X96243235Y-60846390D01*
X96243235Y-60846390D02*
X96281330Y-60808295D01*
X96281330Y-60808295D02*
X96281330Y-60884485D01*
X96014664Y-61074961D02*
X95709902Y-61074961D01*
X95900378Y-60808295D02*
X95900378Y-61494009D01*
X95900378Y-61494009D02*
X95862283Y-61570200D01*
X95862283Y-61570200D02*
X95786093Y-61608295D01*
X95786093Y-61608295D02*
X95709902Y-61608295D01*
X111367047Y-65208295D02*
X111367047Y-64408295D01*
X111367047Y-64408295D02*
X111062285Y-64408295D01*
X111062285Y-64408295D02*
X110986095Y-64446390D01*
X110986095Y-64446390D02*
X110948000Y-64484485D01*
X110948000Y-64484485D02*
X110909904Y-64560676D01*
X110909904Y-64560676D02*
X110909904Y-64674961D01*
X110909904Y-64674961D02*
X110948000Y-64751152D01*
X110948000Y-64751152D02*
X110986095Y-64789247D01*
X110986095Y-64789247D02*
X111062285Y-64827342D01*
X111062285Y-64827342D02*
X111367047Y-64827342D01*
X110452762Y-65208295D02*
X110528952Y-65170200D01*
X110528952Y-65170200D02*
X110567047Y-65132104D01*
X110567047Y-65132104D02*
X110605143Y-65055914D01*
X110605143Y-65055914D02*
X110605143Y-64827342D01*
X110605143Y-64827342D02*
X110567047Y-64751152D01*
X110567047Y-64751152D02*
X110528952Y-64713057D01*
X110528952Y-64713057D02*
X110452762Y-64674961D01*
X110452762Y-64674961D02*
X110338476Y-64674961D01*
X110338476Y-64674961D02*
X110262285Y-64713057D01*
X110262285Y-64713057D02*
X110224190Y-64751152D01*
X110224190Y-64751152D02*
X110186095Y-64827342D01*
X110186095Y-64827342D02*
X110186095Y-65055914D01*
X110186095Y-65055914D02*
X110224190Y-65132104D01*
X110224190Y-65132104D02*
X110262285Y-65170200D01*
X110262285Y-65170200D02*
X110338476Y-65208295D01*
X110338476Y-65208295D02*
X110452762Y-65208295D01*
X109500380Y-65170200D02*
X109576571Y-65208295D01*
X109576571Y-65208295D02*
X109728952Y-65208295D01*
X109728952Y-65208295D02*
X109805142Y-65170200D01*
X109805142Y-65170200D02*
X109843237Y-65132104D01*
X109843237Y-65132104D02*
X109881333Y-65055914D01*
X109881333Y-65055914D02*
X109881333Y-64827342D01*
X109881333Y-64827342D02*
X109843237Y-64751152D01*
X109843237Y-64751152D02*
X109805142Y-64713057D01*
X109805142Y-64713057D02*
X109728952Y-64674961D01*
X109728952Y-64674961D02*
X109576571Y-64674961D01*
X109576571Y-64674961D02*
X109500380Y-64713057D01*
X109157523Y-65208295D02*
X109157523Y-64408295D01*
X109081333Y-64903533D02*
X108852761Y-65208295D01*
X108852761Y-64674961D02*
X109157523Y-64979723D01*
X108205142Y-65170200D02*
X108281333Y-65208295D01*
X108281333Y-65208295D02*
X108433714Y-65208295D01*
X108433714Y-65208295D02*
X108509904Y-65170200D01*
X108509904Y-65170200D02*
X108548000Y-65094009D01*
X108548000Y-65094009D02*
X108548000Y-64789247D01*
X108548000Y-64789247D02*
X108509904Y-64713057D01*
X108509904Y-64713057D02*
X108433714Y-64674961D01*
X108433714Y-64674961D02*
X108281333Y-64674961D01*
X108281333Y-64674961D02*
X108205142Y-64713057D01*
X108205142Y-64713057D02*
X108167047Y-64789247D01*
X108167047Y-64789247D02*
X108167047Y-64865438D01*
X108167047Y-64865438D02*
X108548000Y-64941628D01*
X107938476Y-64674961D02*
X107633714Y-64674961D01*
X107824190Y-64408295D02*
X107824190Y-65094009D01*
X107824190Y-65094009D02*
X107786095Y-65170200D01*
X107786095Y-65170200D02*
X107709905Y-65208295D01*
X107709905Y-65208295D02*
X107633714Y-65208295D01*
X106833714Y-65284485D02*
X106909904Y-65246390D01*
X106909904Y-65246390D02*
X106986095Y-65170200D01*
X106986095Y-65170200D02*
X107100381Y-65055914D01*
X107100381Y-65055914D02*
X107176571Y-65017819D01*
X107176571Y-65017819D02*
X107252762Y-65017819D01*
X107214666Y-65208295D02*
X107290857Y-65170200D01*
X107290857Y-65170200D02*
X107367047Y-65094009D01*
X107367047Y-65094009D02*
X107405143Y-64941628D01*
X107405143Y-64941628D02*
X107405143Y-64674961D01*
X107405143Y-64674961D02*
X107367047Y-64522580D01*
X107367047Y-64522580D02*
X107290857Y-64446390D01*
X107290857Y-64446390D02*
X107214666Y-64408295D01*
X107214666Y-64408295D02*
X107062285Y-64408295D01*
X107062285Y-64408295D02*
X106986095Y-64446390D01*
X106986095Y-64446390D02*
X106909904Y-64522580D01*
X106909904Y-64522580D02*
X106871809Y-64674961D01*
X106871809Y-64674961D02*
X106871809Y-64941628D01*
X106871809Y-64941628D02*
X106909904Y-65094009D01*
X106909904Y-65094009D02*
X106986095Y-65170200D01*
X106986095Y-65170200D02*
X107062285Y-65208295D01*
X107062285Y-65208295D02*
X107214666Y-65208295D01*
X106186095Y-64674961D02*
X106186095Y-65208295D01*
X106528952Y-64674961D02*
X106528952Y-65094009D01*
X106528952Y-65094009D02*
X106490857Y-65170200D01*
X106490857Y-65170200D02*
X106414667Y-65208295D01*
X106414667Y-65208295D02*
X106300381Y-65208295D01*
X106300381Y-65208295D02*
X106224190Y-65170200D01*
X106224190Y-65170200D02*
X106186095Y-65132104D01*
X105805142Y-65208295D02*
X105805142Y-64408295D01*
X105805142Y-64713057D02*
X105728952Y-64674961D01*
X105728952Y-64674961D02*
X105576571Y-64674961D01*
X105576571Y-64674961D02*
X105500380Y-64713057D01*
X105500380Y-64713057D02*
X105462285Y-64751152D01*
X105462285Y-64751152D02*
X105424190Y-64827342D01*
X105424190Y-64827342D02*
X105424190Y-65055914D01*
X105424190Y-65055914D02*
X105462285Y-65132104D01*
X105462285Y-65132104D02*
X105500380Y-65170200D01*
X105500380Y-65170200D02*
X105576571Y-65208295D01*
X105576571Y-65208295D02*
X105728952Y-65208295D01*
X105728952Y-65208295D02*
X105805142Y-65170200D01*
X104776570Y-65170200D02*
X104852761Y-65208295D01*
X104852761Y-65208295D02*
X105005142Y-65208295D01*
X105005142Y-65208295D02*
X105081332Y-65170200D01*
X105081332Y-65170200D02*
X105119428Y-65094009D01*
X105119428Y-65094009D02*
X105119428Y-64789247D01*
X105119428Y-64789247D02*
X105081332Y-64713057D01*
X105081332Y-64713057D02*
X105005142Y-64674961D01*
X105005142Y-64674961D02*
X104852761Y-64674961D01*
X104852761Y-64674961D02*
X104776570Y-64713057D01*
X104776570Y-64713057D02*
X104738475Y-64789247D01*
X104738475Y-64789247D02*
X104738475Y-64865438D01*
X104738475Y-64865438D02*
X105119428Y-64941628D01*
X103786094Y-64903533D02*
X103176571Y-64903533D01*
X102186094Y-64408295D02*
X102186094Y-65055914D01*
X102186094Y-65055914D02*
X102147999Y-65132104D01*
X102147999Y-65132104D02*
X102109904Y-65170200D01*
X102109904Y-65170200D02*
X102033713Y-65208295D01*
X102033713Y-65208295D02*
X101881332Y-65208295D01*
X101881332Y-65208295D02*
X101805142Y-65170200D01*
X101805142Y-65170200D02*
X101767047Y-65132104D01*
X101767047Y-65132104D02*
X101728951Y-65055914D01*
X101728951Y-65055914D02*
X101728951Y-64408295D01*
X101462285Y-64408295D02*
X101005142Y-64408295D01*
X101233714Y-65208295D02*
X101233714Y-64408295D01*
X100738475Y-65208295D02*
X100738475Y-64408295D01*
X100738475Y-64408295D02*
X100281332Y-65208295D01*
X100281332Y-65208295D02*
X100281332Y-64408295D01*
X99024190Y-64789247D02*
X99290856Y-64789247D01*
X99290856Y-65208295D02*
X99290856Y-64408295D01*
X99290856Y-64408295D02*
X98909904Y-64408295D01*
X98147999Y-65208295D02*
X98414666Y-64827342D01*
X98605142Y-65208295D02*
X98605142Y-64408295D01*
X98605142Y-64408295D02*
X98300380Y-64408295D01*
X98300380Y-64408295D02*
X98224190Y-64446390D01*
X98224190Y-64446390D02*
X98186095Y-64484485D01*
X98186095Y-64484485D02*
X98147999Y-64560676D01*
X98147999Y-64560676D02*
X98147999Y-64674961D01*
X98147999Y-64674961D02*
X98186095Y-64751152D01*
X98186095Y-64751152D02*
X98224190Y-64789247D01*
X98224190Y-64789247D02*
X98300380Y-64827342D01*
X98300380Y-64827342D02*
X98605142Y-64827342D01*
X97347999Y-65132104D02*
X97386095Y-65170200D01*
X97386095Y-65170200D02*
X97500380Y-65208295D01*
X97500380Y-65208295D02*
X97576571Y-65208295D01*
X97576571Y-65208295D02*
X97690857Y-65170200D01*
X97690857Y-65170200D02*
X97767047Y-65094009D01*
X97767047Y-65094009D02*
X97805142Y-65017819D01*
X97805142Y-65017819D02*
X97843238Y-64865438D01*
X97843238Y-64865438D02*
X97843238Y-64751152D01*
X97843238Y-64751152D02*
X97805142Y-64598771D01*
X97805142Y-64598771D02*
X97767047Y-64522580D01*
X97767047Y-64522580D02*
X97690857Y-64446390D01*
X97690857Y-64446390D02*
X97576571Y-64408295D01*
X97576571Y-64408295D02*
X97500380Y-64408295D01*
X97500380Y-64408295D02*
X97386095Y-64446390D01*
X97386095Y-64446390D02*
X97347999Y-64484485D01*
X96395618Y-64903533D02*
X95786095Y-64903533D01*
X94833714Y-64484485D02*
X94795618Y-64446390D01*
X94795618Y-64446390D02*
X94719428Y-64408295D01*
X94719428Y-64408295D02*
X94528952Y-64408295D01*
X94528952Y-64408295D02*
X94452761Y-64446390D01*
X94452761Y-64446390D02*
X94414666Y-64484485D01*
X94414666Y-64484485D02*
X94376571Y-64560676D01*
X94376571Y-64560676D02*
X94376571Y-64636866D01*
X94376571Y-64636866D02*
X94414666Y-64751152D01*
X94414666Y-64751152D02*
X94871809Y-65208295D01*
X94871809Y-65208295D02*
X94376571Y-65208295D01*
X93881332Y-64408295D02*
X93805142Y-64408295D01*
X93805142Y-64408295D02*
X93728951Y-64446390D01*
X93728951Y-64446390D02*
X93690856Y-64484485D01*
X93690856Y-64484485D02*
X93652761Y-64560676D01*
X93652761Y-64560676D02*
X93614666Y-64713057D01*
X93614666Y-64713057D02*
X93614666Y-64903533D01*
X93614666Y-64903533D02*
X93652761Y-65055914D01*
X93652761Y-65055914D02*
X93690856Y-65132104D01*
X93690856Y-65132104D02*
X93728951Y-65170200D01*
X93728951Y-65170200D02*
X93805142Y-65208295D01*
X93805142Y-65208295D02*
X93881332Y-65208295D01*
X93881332Y-65208295D02*
X93957523Y-65170200D01*
X93957523Y-65170200D02*
X93995618Y-65132104D01*
X93995618Y-65132104D02*
X94033713Y-65055914D01*
X94033713Y-65055914D02*
X94071809Y-64903533D01*
X94071809Y-64903533D02*
X94071809Y-64713057D01*
X94071809Y-64713057D02*
X94033713Y-64560676D01*
X94033713Y-64560676D02*
X93995618Y-64484485D01*
X93995618Y-64484485D02*
X93957523Y-64446390D01*
X93957523Y-64446390D02*
X93881332Y-64408295D01*
X93309904Y-64484485D02*
X93271808Y-64446390D01*
X93271808Y-64446390D02*
X93195618Y-64408295D01*
X93195618Y-64408295D02*
X93005142Y-64408295D01*
X93005142Y-64408295D02*
X92928951Y-64446390D01*
X92928951Y-64446390D02*
X92890856Y-64484485D01*
X92890856Y-64484485D02*
X92852761Y-64560676D01*
X92852761Y-64560676D02*
X92852761Y-64636866D01*
X92852761Y-64636866D02*
X92890856Y-64751152D01*
X92890856Y-64751152D02*
X93347999Y-65208295D01*
X93347999Y-65208295D02*
X92852761Y-65208295D01*
X92167046Y-64408295D02*
X92319427Y-64408295D01*
X92319427Y-64408295D02*
X92395618Y-64446390D01*
X92395618Y-64446390D02*
X92433713Y-64484485D01*
X92433713Y-64484485D02*
X92509903Y-64598771D01*
X92509903Y-64598771D02*
X92547999Y-64751152D01*
X92547999Y-64751152D02*
X92547999Y-65055914D01*
X92547999Y-65055914D02*
X92509903Y-65132104D01*
X92509903Y-65132104D02*
X92471808Y-65170200D01*
X92471808Y-65170200D02*
X92395618Y-65208295D01*
X92395618Y-65208295D02*
X92243237Y-65208295D01*
X92243237Y-65208295D02*
X92167046Y-65170200D01*
X92167046Y-65170200D02*
X92128951Y-65132104D01*
X92128951Y-65132104D02*
X92090856Y-65055914D01*
X92090856Y-65055914D02*
X92090856Y-64865438D01*
X92090856Y-64865438D02*
X92128951Y-64789247D01*
X92128951Y-64789247D02*
X92167046Y-64751152D01*
X92167046Y-64751152D02*
X92243237Y-64713057D01*
X92243237Y-64713057D02*
X92395618Y-64713057D01*
X92395618Y-64713057D02*
X92471808Y-64751152D01*
X92471808Y-64751152D02*
X92509903Y-64789247D01*
X92509903Y-64789247D02*
X92547999Y-64865438D01*
%LPC*%
D11*
%TO.C,H8*%
X83748000Y-70746000D03*
%TD*%
D12*
%TO.C,H2*%
X118248000Y-44246000D03*
%TD*%
%TO.C,H1*%
X85248000Y-44246000D03*
%TD*%
D11*
%TO.C,H7*%
X119748000Y-70746000D03*
%TD*%
%TO.C,H5*%
X83748000Y-50746000D03*
%TD*%
%TO.C,H6*%
X119748000Y-50746000D03*
%TD*%
D12*
%TO.C,H4*%
X85248000Y-77246000D03*
%TD*%
%TO.C,H3*%
X118248000Y-77246000D03*
%TD*%
%LPD*%
M02*
