%TF.GenerationSoftware,KiCad,Pcbnew,10.0.5*%
%TF.CreationDate,2026-10-02T22:30:36-03:00*%
%TF.ProjectId,PQ_MagYBoard,50515f4d-6167-4594-926f-6172642e6b69,rev?*%
%TF.SameCoordinates,Original*%
%TF.FileFunction,Copper,L4,Inr*%
%TF.FilePolarity,Positive*%
%FSLAX46Y46*%
G04 Gerber Fmt 4.6, Leading zero omitted, Abs format (unit mm)*
G04 Created by KiCad (PCBNEW 10.0.5) date 2026-10-02 22:30:36*
%MOMM*%
%LPD*%
G01*
G04 APERTURE LIST*
%TA.AperFunction,ViaPad*%
%ADD10C,0.800000*%
%TD*%
%TA.AperFunction,Conductor*%
%ADD11C,0.250000*%
%TD*%
G04 APERTURE END LIST*
D10*
%TO.N,/VCC_MAG*%
X101748000Y-60385000D03*
X89154000Y-74610000D03*
X101747000Y-61265000D03*
X89154000Y-46924000D03*
X114300000Y-74610000D03*
%TD*%
%TO.N,/VCC_MAG*%
D11*
X103505000Y-62584000D02*
X99988000Y-62584000D01*
X88987000Y-73581000D02*
X88987000Y-48054000D01*
X106147000Y-65225000D02*
X97346000Y-65225000D01*
X93386000Y-69185000D02*
X93386000Y-52466000D01*
X104387000Y-57745000D02*
X104387000Y-63465000D01*
X114506000Y-47625000D02*
X114506000Y-73581000D01*
X111867000Y-70945000D02*
X91626000Y-70945000D01*
X107468000Y-54658000D02*
X107468000Y-66545000D01*
X113188000Y-48946000D02*
X113188000Y-72266000D01*
X102627000Y-59505000D02*
X102627000Y-61705000D01*
X94260000Y-53337000D02*
X108786000Y-53337000D01*
X90297000Y-49375000D02*
X112746000Y-49375000D01*
X113627000Y-72692000D02*
X89866000Y-72692000D01*
X112306000Y-49832000D02*
X112306000Y-71397000D01*
X111428000Y-70505000D02*
X92075000Y-70505000D01*
X89426000Y-73149000D02*
X89426000Y-48504000D01*
X109228000Y-68298000D02*
X94260000Y-68298000D01*
X107026000Y-66106000D02*
X96467000Y-66106000D01*
X95581000Y-66977000D02*
X95581000Y-54658000D01*
X103947000Y-58185000D02*
X103947000Y-63026000D01*
X104387000Y-63465000D02*
X99106000Y-63465000D01*
X104826000Y-63905000D02*
X98667000Y-63905000D01*
X109228000Y-52906000D02*
X109228000Y-68298000D01*
X91186000Y-71397000D02*
X91186000Y-50264000D01*
X100427000Y-59505000D02*
X102627000Y-59505000D01*
X113703000Y-74013000D02*
X88547000Y-74013000D01*
X97788000Y-56866000D02*
X105266000Y-56866000D01*
X99106000Y-58185000D02*
X103947000Y-58185000D01*
X108786000Y-53337000D02*
X108786000Y-67866000D01*
X96906000Y-55979000D02*
X106147000Y-55979000D01*
X89866000Y-72692000D02*
X89866000Y-48946000D01*
X101712000Y-61230000D02*
X101747000Y-61265000D01*
X114300000Y-74610000D02*
X113703000Y-74013000D01*
X105708000Y-56426000D02*
X105708000Y-64785000D01*
X108786000Y-67866000D02*
X94707000Y-67866000D01*
X99988000Y-59066000D02*
X103066000Y-59066000D01*
X114506000Y-73581000D02*
X88987000Y-73581000D01*
X113188000Y-72266000D02*
X90297000Y-72266000D01*
X107907000Y-66977000D02*
X95581000Y-66977000D01*
X92947000Y-52024000D02*
X110107000Y-52024000D01*
X105708000Y-64786000D02*
X97787000Y-64785000D01*
X94707000Y-67866000D02*
X94707000Y-53784000D01*
X95581000Y-54658000D02*
X107468000Y-54658000D01*
X99988000Y-62584000D02*
X99988000Y-59066000D01*
X93386000Y-52466000D02*
X109667000Y-52466000D01*
X112746000Y-71826000D02*
X90755000Y-71826000D01*
X92507000Y-70076000D02*
X92507000Y-51585000D01*
X102627000Y-61705000D02*
X100867000Y-61705000D01*
X106147000Y-55979000D02*
X106147000Y-65225000D01*
X110986000Y-70076000D02*
X92507000Y-70076000D01*
X91186000Y-50264000D02*
X111867000Y-50264000D01*
X89866000Y-48946000D02*
X113188000Y-48946000D01*
X95149000Y-67424000D02*
X95149000Y-54226000D01*
X94707000Y-53784000D02*
X108347000Y-53784000D01*
X103066000Y-59066000D02*
X103066000Y-62144000D01*
X107026000Y-55105000D02*
X107026000Y-66106000D01*
X104826000Y-57306000D02*
X104826000Y-63905000D01*
X99546000Y-58624000D02*
X103505000Y-58624000D01*
X91626000Y-50706000D02*
X111428000Y-50706000D01*
X92947000Y-69619000D02*
X92947000Y-52024000D01*
X110107000Y-52024000D02*
X110107000Y-69185000D01*
X90755000Y-49832000D02*
X112306000Y-49832000D01*
X103947000Y-63026000D02*
X99546000Y-63026000D01*
X114067000Y-48054000D02*
X114067000Y-73149000D01*
X111428000Y-50706000D02*
X111428000Y-70505000D01*
X106586000Y-55545000D02*
X106586000Y-65656000D01*
X97788000Y-64786000D02*
X97788000Y-56866000D01*
X96467000Y-66106000D02*
X96467000Y-55545000D01*
X94260000Y-68298000D02*
X94260000Y-53337000D01*
X98227000Y-57306000D02*
X104826000Y-57306000D01*
X110546000Y-69619000D02*
X92947000Y-69619000D01*
X91626000Y-70945000D02*
X91626000Y-50706000D01*
X92075000Y-51153000D02*
X110986000Y-51153000D01*
X96028000Y-55105000D02*
X107026000Y-55105000D01*
X106586000Y-65656000D02*
X96906000Y-65656000D01*
X107468000Y-66545000D02*
X96028000Y-66545000D01*
X96467000Y-55545000D02*
X106586000Y-55545000D01*
X103505000Y-58624000D02*
X103505000Y-62584000D01*
X108347000Y-67424000D02*
X95149000Y-67424000D01*
X110107000Y-69185000D02*
X93386000Y-69185000D01*
X96906000Y-65656000D02*
X96906000Y-55979000D01*
X109667000Y-52466000D02*
X109667000Y-68755000D01*
X97346000Y-65225000D02*
X97346000Y-56426000D01*
X110546000Y-51585000D02*
X110546000Y-69619000D01*
X113627000Y-48504000D02*
X113627000Y-72692000D01*
X88547000Y-74013000D02*
X88547000Y-47625000D01*
X107907000Y-54226000D02*
X107907000Y-66977000D01*
X98667000Y-57745000D02*
X104387000Y-57745000D01*
X100867000Y-61230000D02*
X101712000Y-61230000D01*
X112746000Y-49375000D02*
X112746000Y-71826000D01*
X92507000Y-51585000D02*
X110546000Y-51585000D01*
X98667000Y-63905000D02*
X98667000Y-57745000D01*
X110986000Y-51153000D02*
X110986000Y-70076000D01*
X88987000Y-48054000D02*
X114067000Y-48054000D01*
X99106000Y-63465000D02*
X99106000Y-58185000D01*
X93828000Y-68755000D02*
X93828000Y-52906000D01*
X97346000Y-56426000D02*
X105708000Y-56426000D01*
X88547000Y-47625000D02*
X114506000Y-47625000D01*
X108347000Y-53784000D02*
X108347000Y-67424000D01*
X90297000Y-72266000D02*
X90297000Y-49375000D01*
X105266000Y-64344000D02*
X98227000Y-64344000D01*
X89426000Y-48504000D02*
X113627000Y-48504000D01*
X96028000Y-66545000D02*
X96028000Y-55105000D01*
X100427000Y-62144000D02*
X100427000Y-59505000D01*
X111867000Y-50264000D02*
X111867000Y-70945000D01*
X105266000Y-56866000D02*
X105266000Y-64344000D01*
X95149000Y-54226000D02*
X107907000Y-54226000D01*
X99546000Y-63026000D02*
X99546000Y-58624000D01*
X103066000Y-62144000D02*
X100427000Y-62144000D01*
X93828000Y-52906000D02*
X109228000Y-52906000D01*
X100867000Y-61705000D02*
X100867000Y-61230000D01*
X109667000Y-68755000D02*
X93828000Y-68755000D01*
X90755000Y-71826000D02*
X90755000Y-49832000D01*
X98227000Y-64344000D02*
X98227000Y-57306000D01*
X92075000Y-70505000D02*
X92075000Y-51153000D01*
X112306000Y-71397000D02*
X91186000Y-71397000D01*
X114067000Y-73149000D02*
X89426000Y-73149000D01*
%TD*%
M02*
