%TF.GenerationSoftware,KiCad,Pcbnew,10.0.5*%
%TF.CreationDate,2026-10-02T22:32:33-03:00*%
%TF.ProjectId,pq_obc_comms,70715f6f-6263-45f6-936f-6d6d732e6b69,2.0*%
%TF.SameCoordinates,Original*%
%TF.FileFunction,Copper,L3,Inr*%
%TF.FilePolarity,Positive*%
%FSLAX46Y46*%
G04 Gerber Fmt 4.6, Leading zero omitted, Abs format (unit mm)*
G04 Created by KiCad (PCBNEW 10.0.5) date 2026-10-02 22:32:33*
%MOMM*%
%LPD*%
G01*
G04 APERTURE LIST*
%TA.AperFunction,ComponentPad*%
%ADD10R,1.700000X1.700000*%
%TD*%
%TA.AperFunction,ComponentPad*%
%ADD11O,1.700000X1.700000*%
%TD*%
%TA.AperFunction,ComponentPad*%
%ADD12C,6.400000*%
%TD*%
%TA.AperFunction,ViaPad*%
%ADD13C,0.600000*%
%TD*%
%TA.AperFunction,Conductor*%
%ADD14C,1.000000*%
%TD*%
%TA.AperFunction,Conductor*%
%ADD15C,0.400000*%
%TD*%
%TA.AperFunction,Conductor*%
%ADD16C,0.250000*%
%TD*%
%TA.AperFunction,Profile*%
%ADD17C,0.250000*%
%TD*%
%TA.AperFunction,Profile*%
%ADD18C,0.200000*%
%TD*%
G04 APERTURE END LIST*
D10*
%TO.N,GND*%
%TO.C,J3*%
X161430011Y-111490799D03*
D11*
%TO.N,STM32_PB0*%
X158890011Y-111490799D03*
%TO.N,ADCS_POWER*%
X156350011Y-111490799D03*
%TO.N,STM32_PA9*%
X153810011Y-111490799D03*
%TO.N,ADC_PH*%
X151270011Y-111490799D03*
%TO.N,P{slash}L_POWER*%
X148730011Y-111490799D03*
%TO.N,SEL_PH0*%
X146190011Y-111490799D03*
%TO.N,VCC_UMBILICAL*%
X143650011Y-111490799D03*
%TO.N,FAULT*%
X141110011Y-111490799D03*
%TO.N,CHRG*%
X138570011Y-111490799D03*
%TD*%
D10*
%TO.N,SOLAR_X*%
%TO.C,J4*%
X133509201Y-106429999D03*
D11*
%TO.N,CHRGOFF*%
X133509201Y-103889999D03*
%TO.N,CLPROG*%
X133509201Y-101349999D03*
%TO.N,SDA3*%
X133509201Y-98809999D03*
%TO.N,NRST*%
X133509201Y-96269999D03*
%TO.N,SWDIO*%
X133509201Y-93729999D03*
%TO.N,SWCLK*%
X133509201Y-91189999D03*
%TO.N,DAC_PL*%
X133509201Y-88649999D03*
%TO.N,ADC_PL*%
X133509201Y-86109999D03*
%TO.N,PH_PL*%
X133509201Y-83569999D03*
%TD*%
D12*
%TO.N,GND*%
%TO.C,H2*%
X133500000Y-78500000D03*
%TD*%
D10*
%TO.N,STM32_PA15*%
%TO.C,J2*%
X166490803Y-83569989D03*
D11*
%TO.N,SWO*%
X166490803Y-86109989D03*
%TO.N,BATT_NTC*%
X166490803Y-88649989D03*
%TO.N,SOLAR_Y*%
X166490803Y-91189989D03*
%TO.N,SEL_PH2*%
X166490803Y-93729989D03*
%TO.N,SEL_PH1*%
X166490803Y-96269989D03*
%TO.N,GND*%
X166490803Y-98809989D03*
%TO.N,HEATER_PWR*%
X166490803Y-101349989D03*
%TO.N,BURNCOMMS*%
X166490803Y-103889989D03*
%TO.N,SOLAR_Z*%
X166490803Y-106429989D03*
%TD*%
D12*
%TO.N,GND*%
%TO.C,H1*%
X133500000Y-111500000D03*
%TD*%
D10*
%TO.N,SDA1*%
%TO.C,J1*%
X138570001Y-78509197D03*
D11*
%TO.N,SCL1*%
X141110001Y-78509197D03*
%TO.N,UART_RX*%
X143650001Y-78509197D03*
%TO.N,KILLSWITCH+*%
X146190001Y-78509197D03*
%TO.N,PFO*%
X148730001Y-78509197D03*
%TO.N,BATT-*%
X151270001Y-78509197D03*
%TO.N,SCL3*%
X153810001Y-78509197D03*
%TO.N,UART_TX*%
X156350001Y-78509197D03*
%TO.N,GND*%
X158890001Y-78509197D03*
%TO.N,3V3_PERM*%
X161430001Y-78509197D03*
%TD*%
D12*
%TO.N,GND*%
%TO.C,H3*%
X166500000Y-78500000D03*
%TD*%
%TO.N,GND*%
%TO.C,H4*%
X166500000Y-111500000D03*
%TD*%
D13*
%TO.N,3V3_PERM*%
X162689800Y-102400000D03*
X153200500Y-84243200D03*
X153550500Y-100000000D03*
X161623900Y-89989600D03*
X150580000Y-101520000D03*
X147800500Y-104300000D03*
%TO.N,GND*%
X148070000Y-84190000D03*
X155150500Y-100650000D03*
X154800500Y-91200000D03*
X160350500Y-96550000D03*
X157100500Y-96400000D03*
X151437600Y-81472000D03*
X157500000Y-102750000D03*
X159300500Y-91300000D03*
X156600500Y-107450000D03*
X145138400Y-88304600D03*
X161150500Y-94400000D03*
X155150500Y-103450000D03*
X155150500Y-99150000D03*
X155200500Y-95450000D03*
X147900500Y-94900000D03*
X147000500Y-89800000D03*
X148923000Y-81475500D03*
X147000500Y-88300000D03*
X157700500Y-87000000D03*
X141300500Y-88300000D03*
X157500000Y-101500000D03*
X159400500Y-101200000D03*
X161100000Y-84600000D03*
X157400000Y-99300000D03*
X145650500Y-89650000D03*
X137900500Y-80650000D03*
X156600500Y-108400000D03*
X143131800Y-96200000D03*
X160350500Y-97600000D03*
X135638800Y-86298000D03*
X157050500Y-98150000D03*
X140700500Y-96200000D03*
X149350500Y-109400000D03*
X159400500Y-99450000D03*
X160300500Y-89950000D03*
X145750500Y-80700000D03*
X155700500Y-89000000D03*
X161150500Y-93050000D03*
X136150500Y-105850000D03*
X157450000Y-100400000D03*
X157100500Y-95250000D03*
X159800500Y-81100000D03*
X148200500Y-96900000D03*
X147100500Y-92200000D03*
X155150500Y-102150000D03*
X158300000Y-84900000D03*
X156700500Y-87000000D03*
X156700500Y-88000000D03*
X143000500Y-88300000D03*
X146000500Y-96200000D03*
X150450500Y-109400000D03*
X155700500Y-88000000D03*
X159600500Y-86000000D03*
X157700500Y-89000000D03*
X159650500Y-87150000D03*
X156600500Y-109400000D03*
X139700500Y-88300000D03*
X156700500Y-89000000D03*
X151500500Y-109400000D03*
X157700500Y-88000000D03*
X136200500Y-107200000D03*
X159400500Y-100350000D03*
X155700500Y-87000000D03*
%TO.N,VCC*%
X157940000Y-80964000D03*
X138175500Y-82275000D03*
X155908000Y-80964000D03*
X141000000Y-81100000D03*
X149300500Y-85400000D03*
X137550500Y-103775000D03*
X141700500Y-105000000D03*
X145700500Y-104200000D03*
X149225500Y-99300000D03*
X142900500Y-101275000D03*
X141700500Y-104200000D03*
X145700500Y-105000000D03*
%TO.N,OSC32_IN*%
X136500500Y-88600000D03*
%TO.N,OSC32_OUT*%
X136500500Y-89500000D03*
%TO.N,/OSC_IN*%
X136500500Y-90300000D03*
%TO.N,/OSC_OUT*%
X135450500Y-91050000D03*
%TO.N,NRST*%
X135100500Y-96950000D03*
%TO.N,SCL3*%
X136575500Y-81800000D03*
X135907500Y-92043000D03*
%TO.N,SEL_PH0*%
X145300500Y-94200000D03*
X136200500Y-93700000D03*
X146300500Y-109000000D03*
X151900500Y-98200000D03*
%TO.N,BATT_NTC*%
X136200500Y-95500000D03*
%TO.N,ADC_PL*%
X136200500Y-96600000D03*
%TO.N,CHRGOFF*%
X139850500Y-100150000D03*
%TO.N,CLPROG*%
X141400500Y-99500000D03*
%TO.N,DAC_PL*%
X142300500Y-99500000D03*
%TO.N,/PoL_ADCS_POWER_EN*%
X142300000Y-100400000D03*
%TO.N,STM32_PB0*%
X147600500Y-109600000D03*
X144900500Y-109600000D03*
%TO.N,CHRG*%
X143050500Y-102500000D03*
X145400500Y-102500000D03*
%TO.N,/HEATER_EN*%
X153600500Y-96600000D03*
%TO.N,/PoL_BURN_EN*%
X149650500Y-97100000D03*
X146800500Y-99500000D03*
%TO.N,/MOSI*%
X151700500Y-94543500D03*
X152675000Y-94543500D03*
%TO.N,/PoL_P{slash}L_EN*%
X151700500Y-93700000D03*
X152800500Y-98200000D03*
X152800500Y-96600000D03*
%TO.N,STM32_PA9*%
X152400000Y-109400000D03*
X153600000Y-95700000D03*
X153557254Y-98856754D03*
X151200500Y-91543500D03*
%TO.N,SEL_PH1*%
X151200500Y-90400000D03*
%TO.N,SEL_PH2*%
X151200000Y-89500000D03*
%TO.N,SWDIO*%
X151200500Y-88700000D03*
%TO.N,SWCLK*%
X148100500Y-85100000D03*
%TO.N,STM32_PA15*%
X164900500Y-83570000D03*
X147125000Y-85100000D03*
%TO.N,SWO*%
X164300500Y-86100000D03*
X144900000Y-85100000D03*
%TO.N,PFO*%
X144000000Y-85100000D03*
X148700500Y-80300000D03*
%TO.N,/DIO2*%
X164493200Y-87847400D03*
X162800500Y-106800000D03*
X153200500Y-86100000D03*
%TD*%
%TO.N,3V3_PERM*%
D14*
X159845000Y-83783400D02*
X161445200Y-82183200D01*
X150580000Y-101520000D02*
X150580000Y-101520500D01*
X150580000Y-101520500D02*
X147800500Y-104300000D01*
X162689800Y-92689800D02*
X162689800Y-102400000D01*
X150580000Y-101520000D02*
X152030500Y-101520000D01*
X152030500Y-101520000D02*
X153550500Y-100000000D01*
X149608800Y-87834900D02*
X153200500Y-84243200D01*
X153200500Y-84243200D02*
X153660300Y-83783400D01*
D15*
X161445200Y-78524396D02*
X161430001Y-78509197D01*
D14*
X161623900Y-91623900D02*
X162689800Y-92689800D01*
X150828000Y-101272000D02*
X150828000Y-96204000D01*
X161445200Y-82183200D02*
X161445200Y-78524396D01*
X149608800Y-94984800D02*
X149608800Y-87834900D01*
X161623900Y-88176100D02*
X162800000Y-87000000D01*
X162800000Y-83538000D02*
X161445200Y-82183200D01*
X162800000Y-87000000D02*
X162800000Y-83538000D01*
X161623900Y-89989600D02*
X161623900Y-91623900D01*
X150580000Y-101520000D02*
X150828000Y-101272000D01*
X150828000Y-96204000D02*
X149608800Y-94984800D01*
X161623900Y-89989600D02*
X161623900Y-88176100D01*
X153660300Y-83783400D02*
X159845000Y-83783400D01*
%TO.N,VCC*%
X153736500Y-80964000D02*
X157940000Y-80964000D01*
X141700500Y-102475000D02*
X141700500Y-104200000D01*
X143000000Y-83100000D02*
X151600500Y-83100000D01*
X152421950Y-82278550D02*
X149300500Y-85400000D01*
D15*
X145700500Y-104200000D02*
X145700500Y-105000000D01*
D14*
X144071600Y-86983800D02*
X144833600Y-86221800D01*
X142900500Y-101275000D02*
X141700500Y-102475000D01*
X145700500Y-104200000D02*
X145700500Y-103769900D01*
X138850500Y-102475000D02*
X137550500Y-103775000D01*
X148478700Y-86221800D02*
X149300500Y-85400000D01*
X141000000Y-81100000D02*
X139350500Y-81100000D01*
X144833600Y-86221800D02*
X148478700Y-86221800D01*
X141700500Y-102475000D02*
X138850500Y-102475000D01*
X142900500Y-101275000D02*
X144071600Y-100103900D01*
X149225500Y-100244900D02*
X149225500Y-99300000D01*
X141000000Y-81100000D02*
X143000000Y-83100000D01*
D15*
X141700500Y-104200000D02*
X141700500Y-105000000D01*
D14*
X152421950Y-82278550D02*
X153736500Y-80964000D01*
X144071600Y-100103900D02*
X144071600Y-86983800D01*
X145700500Y-103769900D02*
X149225500Y-100244900D01*
X151600500Y-83100000D02*
X152421950Y-82278550D01*
X139350500Y-81100000D02*
X138175500Y-82275000D01*
%TO.N,DAC_PL*%
D15*
X134650000Y-87500000D02*
X137300500Y-87500000D01*
X142300500Y-92500000D02*
X142300500Y-99500000D01*
X137300500Y-87500000D02*
X142300500Y-92500000D01*
X133500000Y-88650000D02*
X134650000Y-87500000D01*
%TO.N,/PoL_BURN_EN*%
D16*
X149650500Y-97100000D02*
X149200500Y-97100000D01*
X149200500Y-97100000D02*
X146800500Y-99500000D01*
%TO.N,/DIO2*%
X164493200Y-87847400D02*
X164493200Y-103163600D01*
X164493200Y-103163600D02*
X162800500Y-104856300D01*
X162800500Y-104856300D02*
X162800500Y-106800000D01*
%TD*%
%TA.AperFunction,Conductor*%
%TO.N,VCC*%
G36*
X142582248Y-102820002D02*
G01*
X142603222Y-102836905D01*
X142710022Y-102943705D01*
X142710027Y-102943709D01*
X142710029Y-102943711D01*
X142710030Y-102943712D01*
X142710032Y-102943713D01*
X142836466Y-103016710D01*
X142836468Y-103016710D01*
X142836471Y-103016712D01*
X142977499Y-103054500D01*
X142977501Y-103054500D01*
X143123499Y-103054500D01*
X143123501Y-103054500D01*
X143264529Y-103016712D01*
X143264532Y-103016710D01*
X143264533Y-103016710D01*
X143327750Y-102980211D01*
X143390971Y-102943711D01*
X143408682Y-102926000D01*
X143497778Y-102836905D01*
X143560090Y-102802879D01*
X143586873Y-102800000D01*
X144864127Y-102800000D01*
X144932248Y-102820002D01*
X144953222Y-102836905D01*
X145060022Y-102943705D01*
X145060027Y-102943709D01*
X145060029Y-102943711D01*
X145060030Y-102943712D01*
X145060032Y-102943713D01*
X145186466Y-103016710D01*
X145186468Y-103016710D01*
X145186471Y-103016712D01*
X145327499Y-103054500D01*
X145327501Y-103054500D01*
X145473499Y-103054500D01*
X145473501Y-103054500D01*
X145614529Y-103016712D01*
X145614532Y-103016710D01*
X145614533Y-103016710D01*
X145677750Y-102980211D01*
X145740971Y-102943711D01*
X145758682Y-102926000D01*
X145847778Y-102836905D01*
X145910090Y-102802879D01*
X145936873Y-102800000D01*
X145974500Y-102800000D01*
X146042621Y-102820002D01*
X146089114Y-102873658D01*
X146100500Y-102926000D01*
X146100500Y-105374000D01*
X146080498Y-105442121D01*
X146026842Y-105488614D01*
X145974500Y-105500000D01*
X141426500Y-105500000D01*
X141358379Y-105479998D01*
X141311886Y-105426342D01*
X141300500Y-105374000D01*
X141300500Y-102926000D01*
X141320502Y-102857879D01*
X141374158Y-102811386D01*
X141426500Y-102800000D01*
X142514127Y-102800000D01*
X142582248Y-102820002D01*
G37*
%TD.AperFunction*%
%TD*%
D17*
X130000000Y-76000000D02*
G75*
G02*
X131000000Y-75000000I1000000J0D01*
G01*
X130000000Y-80000000D02*
X130000000Y-76000000D01*
X130000000Y-110000000D02*
X131000000Y-108000000D01*
X130000000Y-114000000D02*
X130000000Y-110000000D01*
X131000000Y-75000000D02*
X135000000Y-75000000D01*
X131000000Y-82000000D02*
X130000000Y-80000000D01*
X131000000Y-108000000D02*
X131000000Y-82000000D01*
X131000000Y-115000000D02*
G75*
G02*
X130000000Y-114000000I0J1000000D01*
G01*
X135000000Y-75000000D02*
X137000000Y-76000000D01*
X135000000Y-115000000D02*
X131001000Y-115000000D01*
X137000000Y-76000000D02*
X150000000Y-76000000D01*
X137001000Y-114000000D02*
X135000000Y-115000000D01*
X150000000Y-76000000D02*
X163000000Y-76000000D01*
X163000000Y-76000000D02*
X165000000Y-75000000D01*
D18*
X163000500Y-114000000D02*
X137001000Y-114000000D01*
D17*
X165000000Y-75000000D02*
X169000000Y-75000000D01*
D18*
X165001000Y-115000000D02*
X163000500Y-114000000D01*
D17*
X169000000Y-75000000D02*
G75*
G02*
X170001000Y-76000000I0J-1001000D01*
G01*
D18*
X169000000Y-82000000D02*
X169001000Y-108000000D01*
X169001000Y-108000000D02*
X170001000Y-110000000D01*
X169001000Y-115001000D02*
X165001000Y-115000000D01*
D17*
X170001000Y-76000000D02*
X170001000Y-80000000D01*
X170001000Y-80000000D02*
X169001000Y-82000000D01*
D18*
X170001000Y-110000000D02*
X170001500Y-114000000D01*
X170001500Y-114000000D02*
G75*
G02*
X169001000Y-115001000I-1000800J-200D01*
G01*
M02*
