%TF.GenerationSoftware,KiCad,Pcbnew,10.0.5*%
%TF.CreationDate,2026-10-02T22:32:33-03:00*%
%TF.ProjectId,pq_obc_comms,70715f6f-6263-45f6-936f-6d6d732e6b69,2.0*%
%TF.SameCoordinates,Original*%
%TF.FileFunction,Legend,Top*%
%TF.FilePolarity,Positive*%
%FSLAX46Y46*%
G04 Gerber Fmt 4.6, Leading zero omitted, Abs format (unit mm)*
G04 Created by KiCad (PCBNEW 10.0.5) date 2026-10-02 22:32:33*
%MOMM*%
%LPD*%
G01*
G04 APERTURE LIST*
G04 Aperture macros list*
%AMRoundRect*
0 Rectangle with rounded corners*
0 $1 Rounding radius*
0 $2 $3 $4 $5 $6 $7 $8 $9 X,Y pos of 4 corners*
0 Add a 4 corners polygon primitive as box body*
4,1,4,$2,$3,$4,$5,$6,$7,$8,$9,$2,$3,0*
0 Add four circle primitives for the rounded corners*
1,1,$1+$1,$2,$3*
1,1,$1+$1,$4,$5*
1,1,$1+$1,$6,$7*
1,1,$1+$1,$8,$9*
0 Add four rect primitives between the rounded corners*
20,1,$1+$1,$2,$3,$4,$5,0*
20,1,$1+$1,$4,$5,$6,$7,0*
20,1,$1+$1,$6,$7,$8,$9,0*
20,1,$1+$1,$8,$9,$2,$3,0*%
%AMFreePoly0*
4,1,10,-0.450000,0.185000,0.450000,0.185000,0.450000,0.435000,1.200000,0.435000,1.200000,-0.235000,-1.000000,-0.235000,-1.200000,-0.035000,-1.200000,0.435000,-0.450000,0.435000,-0.450000,0.185000,-0.450000,0.185000,$1*%
%AMFreePoly1*
4,1,10,-0.450000,0.185000,0.450000,0.185000,0.450000,0.435000,1.200000,0.435000,1.200000,-0.035000,1.000000,-0.235000,-1.200000,-0.235000,-1.200000,0.435000,-0.450000,0.435000,-0.450000,0.185000,-0.450000,0.185000,$1*%
G04 Aperture macros list end*
%ADD10C,0.000000*%
%ADD11C,0.150000*%
%ADD12C,0.120000*%
%ADD13C,0.300000*%
%ADD14RoundRect,0.225000X0.250000X-0.225000X0.250000X0.225000X-0.250000X0.225000X-0.250000X-0.225000X0*%
%ADD15RoundRect,0.225000X-0.250000X0.225000X-0.250000X-0.225000X0.250000X-0.225000X0.250000X0.225000X0*%
%ADD16RoundRect,0.135000X0.185000X-0.135000X0.185000X0.135000X-0.185000X0.135000X-0.185000X-0.135000X0*%
%ADD17RoundRect,0.225000X0.225000X0.250000X-0.225000X0.250000X-0.225000X-0.250000X0.225000X-0.250000X0*%
%ADD18RoundRect,0.147500X-0.172500X0.147500X-0.172500X-0.147500X0.172500X-0.147500X0.172500X0.147500X0*%
%ADD19RoundRect,0.200000X-0.200000X-0.275000X0.200000X-0.275000X0.200000X0.275000X-0.200000X0.275000X0*%
%ADD20RoundRect,0.140000X-0.170000X0.140000X-0.170000X-0.140000X0.170000X-0.140000X0.170000X0.140000X0*%
%ADD21RoundRect,0.075000X-0.700000X-0.075000X0.700000X-0.075000X0.700000X0.075000X-0.700000X0.075000X0*%
%ADD22RoundRect,0.075000X-0.075000X-0.700000X0.075000X-0.700000X0.075000X0.700000X-0.075000X0.700000X0*%
%ADD23RoundRect,0.140000X-0.140000X-0.170000X0.140000X-0.170000X0.140000X0.170000X-0.140000X0.170000X0*%
%ADD24RoundRect,0.062500X0.350000X0.062500X-0.350000X0.062500X-0.350000X-0.062500X0.350000X-0.062500X0*%
%ADD25RoundRect,0.062500X0.062500X0.350000X-0.062500X0.350000X-0.062500X-0.350000X0.062500X-0.350000X0*%
%ADD26R,2.600000X2.600000*%
%ADD27RoundRect,0.147500X0.147500X0.172500X-0.147500X0.172500X-0.147500X-0.172500X0.147500X-0.172500X0*%
%ADD28R,1.700000X1.700000*%
%ADD29O,1.700000X1.700000*%
%ADD30RoundRect,0.225000X-0.225000X-0.250000X0.225000X-0.250000X0.225000X0.250000X-0.225000X0.250000X0*%
%ADD31RoundRect,0.065000X0.065000X0.065000X-0.065000X0.065000X-0.065000X-0.065000X0.065000X-0.065000X0*%
%ADD32RoundRect,0.065000X-0.065000X0.065000X-0.065000X-0.065000X0.065000X-0.065000X0.065000X0.065000X0*%
%ADD33RoundRect,0.065000X0.065000X-0.065000X0.065000X0.065000X-0.065000X0.065000X-0.065000X-0.065000X0*%
%ADD34C,6.400000*%
%ADD35RoundRect,0.140000X0.170000X-0.140000X0.170000X0.140000X-0.170000X0.140000X-0.170000X-0.140000X0*%
%ADD36R,1.050000X1.000000*%
%ADD37R,2.200000X1.050000*%
%ADD38RoundRect,0.200000X0.275000X-0.200000X0.275000X0.200000X-0.275000X0.200000X-0.275000X-0.200000X0*%
%ADD39RoundRect,0.212500X-0.212500X0.262500X-0.212500X-0.262500X0.212500X-0.262500X0.212500X0.262500X0*%
%ADD40RoundRect,0.218750X0.218750X0.381250X-0.218750X0.381250X-0.218750X-0.381250X0.218750X-0.381250X0*%
%ADD41FreePoly0,270.000000*%
%ADD42FreePoly1,90.000000*%
%ADD43R,0.500000X0.480000*%
%ADD44RoundRect,0.200000X0.200000X0.275000X-0.200000X0.275000X-0.200000X-0.275000X0.200000X-0.275000X0*%
%TA.AperFunction,Profile*%
%ADD45C,0.250000*%
%TD*%
%TA.AperFunction,Profile*%
%ADD46C,0.200000*%
%TD*%
G04 APERTURE END LIST*
D10*
G36*
X135075500Y-81968934D02*
G01*
X135075500Y-108031066D01*
X135031566Y-108075000D01*
X134969434Y-108075000D01*
X134925500Y-108031066D01*
X134925500Y-105383654D01*
X134931023Y-105381677D01*
X134946548Y-105374335D01*
X134961278Y-105365506D01*
X134975072Y-105355275D01*
X134987797Y-105343742D01*
X135022944Y-105308595D01*
X135034477Y-105295870D01*
X135044708Y-105282076D01*
X135053537Y-105267346D01*
X135060879Y-105251821D01*
X135066665Y-105235651D01*
X135070838Y-105218992D01*
X135073358Y-105202004D01*
X135074201Y-105184852D01*
X135074201Y-105135146D01*
X135074201Y-82264852D01*
X135074201Y-82215146D01*
X135073358Y-82197993D01*
X135070838Y-82181005D01*
X135066665Y-82164346D01*
X135060879Y-82148176D01*
X135053537Y-82132651D01*
X135044708Y-82117921D01*
X135034477Y-82104127D01*
X135022944Y-82091402D01*
X134987797Y-82056255D01*
X134975072Y-82044722D01*
X134961278Y-82034491D01*
X134946548Y-82025662D01*
X134931023Y-82018320D01*
X134925500Y-82016343D01*
X134925500Y-81968934D01*
X134969434Y-81925000D01*
X135031566Y-81925000D01*
X135075500Y-81968934D01*
G37*
G36*
X139618322Y-79931019D02*
G01*
X139625664Y-79946544D01*
X139634493Y-79961274D01*
X139644724Y-79975068D01*
X139656257Y-79987793D01*
X139691404Y-80022940D01*
X139704129Y-80034473D01*
X139717923Y-80044704D01*
X139732653Y-80053533D01*
X139748178Y-80060875D01*
X139764348Y-80066661D01*
X139781007Y-80070834D01*
X139797995Y-80073354D01*
X139815148Y-80074197D01*
X139864854Y-80074197D01*
X162735148Y-80074197D01*
X162784854Y-80074197D01*
X162802006Y-80073354D01*
X162818994Y-80070834D01*
X162835653Y-80066661D01*
X162851823Y-80060875D01*
X162867348Y-80053533D01*
X162882078Y-80044704D01*
X162895872Y-80034473D01*
X162908597Y-80022940D01*
X162943744Y-79987793D01*
X162955277Y-79975068D01*
X162965508Y-79961274D01*
X162974337Y-79946544D01*
X162981679Y-79931019D01*
X162983833Y-79925000D01*
X163031566Y-79925000D01*
X163075500Y-79968934D01*
X163075500Y-80031066D01*
X163031566Y-80075000D01*
X136969434Y-80075000D01*
X136925500Y-80031066D01*
X136925500Y-79968934D01*
X136969434Y-79925000D01*
X139616168Y-79925000D01*
X139618322Y-79931019D01*
G37*
G36*
X163075500Y-109968934D02*
G01*
X163075500Y-110031066D01*
X163031566Y-110075000D01*
X160383845Y-110075000D01*
X160381689Y-110068976D01*
X160374347Y-110053451D01*
X160365518Y-110038721D01*
X160355287Y-110024927D01*
X160343754Y-110012202D01*
X160308607Y-109977055D01*
X160295882Y-109965522D01*
X160282088Y-109955291D01*
X160267358Y-109946462D01*
X160251833Y-109939120D01*
X160235663Y-109933334D01*
X160219004Y-109929161D01*
X160202016Y-109926641D01*
X160184864Y-109925799D01*
X160135158Y-109925799D01*
X137264864Y-109925799D01*
X137215158Y-109925799D01*
X137198005Y-109926641D01*
X137181017Y-109929161D01*
X137164358Y-109933334D01*
X137148188Y-109939120D01*
X137132663Y-109946462D01*
X137117933Y-109955291D01*
X137104139Y-109965522D01*
X137091414Y-109977055D01*
X137056267Y-110012202D01*
X137044734Y-110024927D01*
X137034503Y-110038721D01*
X137025674Y-110053451D01*
X137018332Y-110068976D01*
X137016176Y-110075000D01*
X136969434Y-110075000D01*
X136925500Y-110031066D01*
X136925500Y-109968934D01*
X136969434Y-109925000D01*
X163031566Y-109925000D01*
X163075500Y-109968934D01*
G37*
G36*
X165075500Y-81968934D02*
G01*
X165075500Y-84615977D01*
X165068980Y-84618310D01*
X165053455Y-84625652D01*
X165038725Y-84634481D01*
X165024931Y-84644712D01*
X165012206Y-84656245D01*
X164977059Y-84691392D01*
X164965526Y-84704117D01*
X164955295Y-84717911D01*
X164946466Y-84732641D01*
X164939124Y-84748166D01*
X164933338Y-84764336D01*
X164929165Y-84780995D01*
X164926645Y-84797983D01*
X164925803Y-84815136D01*
X164925803Y-84864842D01*
X164925803Y-107735136D01*
X164925803Y-107784842D01*
X164926645Y-107801994D01*
X164929165Y-107818982D01*
X164933338Y-107835641D01*
X164939124Y-107851811D01*
X164946466Y-107867336D01*
X164955295Y-107882066D01*
X164965526Y-107895860D01*
X164977059Y-107908585D01*
X165012206Y-107943732D01*
X165024931Y-107955265D01*
X165038725Y-107965496D01*
X165053455Y-107974325D01*
X165068980Y-107981667D01*
X165075500Y-107984000D01*
X165075500Y-108031066D01*
X165031566Y-108075000D01*
X164969434Y-108075000D01*
X164925500Y-108031066D01*
X164925500Y-81968934D01*
X164969434Y-81925000D01*
X165031566Y-81925000D01*
X165075500Y-81968934D01*
G37*
D11*
X135000500Y-108000001D02*
G75*
G02*
X137000499Y-110000000I-1500000J-3499999D01*
G01*
X137000499Y-80000000D02*
G75*
G02*
X135000500Y-81999999I-3499999J1500000D01*
G01*
X163000501Y-110000000D02*
G75*
G02*
X165000500Y-108000001I3499999J-1500000D01*
G01*
X165000500Y-81999999D02*
G75*
G02*
X163000501Y-80000000I1500000J3499999D01*
G01*
X138814786Y-106762295D02*
X138967167Y-106762295D01*
X138967167Y-106762295D02*
X139043357Y-106800390D01*
X139043357Y-106800390D02*
X139119548Y-106876580D01*
X139119548Y-106876580D02*
X139157643Y-107028961D01*
X139157643Y-107028961D02*
X139157643Y-107295628D01*
X139157643Y-107295628D02*
X139119548Y-107448009D01*
X139119548Y-107448009D02*
X139043357Y-107524200D01*
X139043357Y-107524200D02*
X138967167Y-107562295D01*
X138967167Y-107562295D02*
X138814786Y-107562295D01*
X138814786Y-107562295D02*
X138738595Y-107524200D01*
X138738595Y-107524200D02*
X138662405Y-107448009D01*
X138662405Y-107448009D02*
X138624309Y-107295628D01*
X138624309Y-107295628D02*
X138624309Y-107028961D01*
X138624309Y-107028961D02*
X138662405Y-106876580D01*
X138662405Y-106876580D02*
X138738595Y-106800390D01*
X138738595Y-106800390D02*
X138814786Y-106762295D01*
X139767166Y-107143247D02*
X139881452Y-107181342D01*
X139881452Y-107181342D02*
X139919547Y-107219438D01*
X139919547Y-107219438D02*
X139957643Y-107295628D01*
X139957643Y-107295628D02*
X139957643Y-107409914D01*
X139957643Y-107409914D02*
X139919547Y-107486104D01*
X139919547Y-107486104D02*
X139881452Y-107524200D01*
X139881452Y-107524200D02*
X139805262Y-107562295D01*
X139805262Y-107562295D02*
X139500500Y-107562295D01*
X139500500Y-107562295D02*
X139500500Y-106762295D01*
X139500500Y-106762295D02*
X139767166Y-106762295D01*
X139767166Y-106762295D02*
X139843357Y-106800390D01*
X139843357Y-106800390D02*
X139881452Y-106838485D01*
X139881452Y-106838485D02*
X139919547Y-106914676D01*
X139919547Y-106914676D02*
X139919547Y-106990866D01*
X139919547Y-106990866D02*
X139881452Y-107067057D01*
X139881452Y-107067057D02*
X139843357Y-107105152D01*
X139843357Y-107105152D02*
X139767166Y-107143247D01*
X139767166Y-107143247D02*
X139500500Y-107143247D01*
X140757643Y-107486104D02*
X140719547Y-107524200D01*
X140719547Y-107524200D02*
X140605262Y-107562295D01*
X140605262Y-107562295D02*
X140529071Y-107562295D01*
X140529071Y-107562295D02*
X140414785Y-107524200D01*
X140414785Y-107524200D02*
X140338595Y-107448009D01*
X140338595Y-107448009D02*
X140300500Y-107371819D01*
X140300500Y-107371819D02*
X140262404Y-107219438D01*
X140262404Y-107219438D02*
X140262404Y-107105152D01*
X140262404Y-107105152D02*
X140300500Y-106952771D01*
X140300500Y-106952771D02*
X140338595Y-106876580D01*
X140338595Y-106876580D02*
X140414785Y-106800390D01*
X140414785Y-106800390D02*
X140529071Y-106762295D01*
X140529071Y-106762295D02*
X140605262Y-106762295D01*
X140605262Y-106762295D02*
X140719547Y-106800390D01*
X140719547Y-106800390D02*
X140757643Y-106838485D01*
X141748119Y-107562295D02*
X141710024Y-107562295D01*
X141710024Y-107562295D02*
X141633833Y-107524200D01*
X141633833Y-107524200D02*
X141519547Y-107409914D01*
X141519547Y-107409914D02*
X141329071Y-107181342D01*
X141329071Y-107181342D02*
X141252881Y-107067057D01*
X141252881Y-107067057D02*
X141214785Y-106952771D01*
X141214785Y-106952771D02*
X141214785Y-106876580D01*
X141214785Y-106876580D02*
X141252881Y-106800390D01*
X141252881Y-106800390D02*
X141329071Y-106762295D01*
X141329071Y-106762295D02*
X141367166Y-106762295D01*
X141367166Y-106762295D02*
X141443357Y-106800390D01*
X141443357Y-106800390D02*
X141481452Y-106876580D01*
X141481452Y-106876580D02*
X141481452Y-106914676D01*
X141481452Y-106914676D02*
X141443357Y-106990866D01*
X141443357Y-106990866D02*
X141405262Y-107028961D01*
X141405262Y-107028961D02*
X141176690Y-107181342D01*
X141176690Y-107181342D02*
X141138595Y-107219438D01*
X141138595Y-107219438D02*
X141100500Y-107295628D01*
X141100500Y-107295628D02*
X141100500Y-107409914D01*
X141100500Y-107409914D02*
X141138595Y-107486104D01*
X141138595Y-107486104D02*
X141176690Y-107524200D01*
X141176690Y-107524200D02*
X141252881Y-107562295D01*
X141252881Y-107562295D02*
X141367166Y-107562295D01*
X141367166Y-107562295D02*
X141443357Y-107524200D01*
X141443357Y-107524200D02*
X141481452Y-107486104D01*
X141481452Y-107486104D02*
X141595738Y-107333723D01*
X141595738Y-107333723D02*
X141633833Y-107219438D01*
X141633833Y-107219438D02*
X141633833Y-107143247D01*
X142548119Y-107486104D02*
X142510023Y-107524200D01*
X142510023Y-107524200D02*
X142395738Y-107562295D01*
X142395738Y-107562295D02*
X142319547Y-107562295D01*
X142319547Y-107562295D02*
X142205261Y-107524200D01*
X142205261Y-107524200D02*
X142129071Y-107448009D01*
X142129071Y-107448009D02*
X142090976Y-107371819D01*
X142090976Y-107371819D02*
X142052880Y-107219438D01*
X142052880Y-107219438D02*
X142052880Y-107105152D01*
X142052880Y-107105152D02*
X142090976Y-106952771D01*
X142090976Y-106952771D02*
X142129071Y-106876580D01*
X142129071Y-106876580D02*
X142205261Y-106800390D01*
X142205261Y-106800390D02*
X142319547Y-106762295D01*
X142319547Y-106762295D02*
X142395738Y-106762295D01*
X142395738Y-106762295D02*
X142510023Y-106800390D01*
X142510023Y-106800390D02*
X142548119Y-106838485D01*
X143043357Y-106762295D02*
X143195738Y-106762295D01*
X143195738Y-106762295D02*
X143271928Y-106800390D01*
X143271928Y-106800390D02*
X143348119Y-106876580D01*
X143348119Y-106876580D02*
X143386214Y-107028961D01*
X143386214Y-107028961D02*
X143386214Y-107295628D01*
X143386214Y-107295628D02*
X143348119Y-107448009D01*
X143348119Y-107448009D02*
X143271928Y-107524200D01*
X143271928Y-107524200D02*
X143195738Y-107562295D01*
X143195738Y-107562295D02*
X143043357Y-107562295D01*
X143043357Y-107562295D02*
X142967166Y-107524200D01*
X142967166Y-107524200D02*
X142890976Y-107448009D01*
X142890976Y-107448009D02*
X142852880Y-107295628D01*
X142852880Y-107295628D02*
X142852880Y-107028961D01*
X142852880Y-107028961D02*
X142890976Y-106876580D01*
X142890976Y-106876580D02*
X142967166Y-106800390D01*
X142967166Y-106800390D02*
X143043357Y-106762295D01*
X143729071Y-107562295D02*
X143729071Y-106762295D01*
X143729071Y-106762295D02*
X143995737Y-107333723D01*
X143995737Y-107333723D02*
X144262404Y-106762295D01*
X144262404Y-106762295D02*
X144262404Y-107562295D01*
X144643357Y-107562295D02*
X144643357Y-106762295D01*
X144643357Y-106762295D02*
X144910023Y-107333723D01*
X144910023Y-107333723D02*
X145176690Y-106762295D01*
X145176690Y-106762295D02*
X145176690Y-107562295D01*
X145519547Y-107524200D02*
X145633833Y-107562295D01*
X145633833Y-107562295D02*
X145824309Y-107562295D01*
X145824309Y-107562295D02*
X145900500Y-107524200D01*
X145900500Y-107524200D02*
X145938595Y-107486104D01*
X145938595Y-107486104D02*
X145976690Y-107409914D01*
X145976690Y-107409914D02*
X145976690Y-107333723D01*
X145976690Y-107333723D02*
X145938595Y-107257533D01*
X145938595Y-107257533D02*
X145900500Y-107219438D01*
X145900500Y-107219438D02*
X145824309Y-107181342D01*
X145824309Y-107181342D02*
X145671928Y-107143247D01*
X145671928Y-107143247D02*
X145595738Y-107105152D01*
X145595738Y-107105152D02*
X145557643Y-107067057D01*
X145557643Y-107067057D02*
X145519547Y-106990866D01*
X145519547Y-106990866D02*
X145519547Y-106914676D01*
X145519547Y-106914676D02*
X145557643Y-106838485D01*
X145557643Y-106838485D02*
X145595738Y-106800390D01*
X145595738Y-106800390D02*
X145671928Y-106762295D01*
X145671928Y-106762295D02*
X145862405Y-106762295D01*
X145862405Y-106762295D02*
X145976690Y-106800390D01*
X155485714Y-81786104D02*
X155447618Y-81824200D01*
X155447618Y-81824200D02*
X155333333Y-81862295D01*
X155333333Y-81862295D02*
X155257142Y-81862295D01*
X155257142Y-81862295D02*
X155142856Y-81824200D01*
X155142856Y-81824200D02*
X155066666Y-81748009D01*
X155066666Y-81748009D02*
X155028571Y-81671819D01*
X155028571Y-81671819D02*
X154990475Y-81519438D01*
X154990475Y-81519438D02*
X154990475Y-81405152D01*
X154990475Y-81405152D02*
X155028571Y-81252771D01*
X155028571Y-81252771D02*
X155066666Y-81176580D01*
X155066666Y-81176580D02*
X155142856Y-81100390D01*
X155142856Y-81100390D02*
X155257142Y-81062295D01*
X155257142Y-81062295D02*
X155333333Y-81062295D01*
X155333333Y-81062295D02*
X155447618Y-81100390D01*
X155447618Y-81100390D02*
X155485714Y-81138485D01*
X156247618Y-81862295D02*
X155790475Y-81862295D01*
X156019047Y-81862295D02*
X156019047Y-81062295D01*
X156019047Y-81062295D02*
X155942856Y-81176580D01*
X155942856Y-81176580D02*
X155866666Y-81252771D01*
X155866666Y-81252771D02*
X155790475Y-81290866D01*
X156704761Y-81405152D02*
X156628571Y-81367057D01*
X156628571Y-81367057D02*
X156590476Y-81328961D01*
X156590476Y-81328961D02*
X156552380Y-81252771D01*
X156552380Y-81252771D02*
X156552380Y-81214676D01*
X156552380Y-81214676D02*
X156590476Y-81138485D01*
X156590476Y-81138485D02*
X156628571Y-81100390D01*
X156628571Y-81100390D02*
X156704761Y-81062295D01*
X156704761Y-81062295D02*
X156857142Y-81062295D01*
X156857142Y-81062295D02*
X156933333Y-81100390D01*
X156933333Y-81100390D02*
X156971428Y-81138485D01*
X156971428Y-81138485D02*
X157009523Y-81214676D01*
X157009523Y-81214676D02*
X157009523Y-81252771D01*
X157009523Y-81252771D02*
X156971428Y-81328961D01*
X156971428Y-81328961D02*
X156933333Y-81367057D01*
X156933333Y-81367057D02*
X156857142Y-81405152D01*
X156857142Y-81405152D02*
X156704761Y-81405152D01*
X156704761Y-81405152D02*
X156628571Y-81443247D01*
X156628571Y-81443247D02*
X156590476Y-81481342D01*
X156590476Y-81481342D02*
X156552380Y-81557533D01*
X156552380Y-81557533D02*
X156552380Y-81709914D01*
X156552380Y-81709914D02*
X156590476Y-81786104D01*
X156590476Y-81786104D02*
X156628571Y-81824200D01*
X156628571Y-81824200D02*
X156704761Y-81862295D01*
X156704761Y-81862295D02*
X156857142Y-81862295D01*
X156857142Y-81862295D02*
X156933333Y-81824200D01*
X156933333Y-81824200D02*
X156971428Y-81786104D01*
X156971428Y-81786104D02*
X157009523Y-81709914D01*
X157009523Y-81709914D02*
X157009523Y-81557533D01*
X157009523Y-81557533D02*
X156971428Y-81481342D01*
X156971428Y-81481342D02*
X156933333Y-81443247D01*
X156933333Y-81443247D02*
X156857142Y-81405152D01*
X139286104Y-105514285D02*
X139324200Y-105552381D01*
X139324200Y-105552381D02*
X139362295Y-105666666D01*
X139362295Y-105666666D02*
X139362295Y-105742857D01*
X139362295Y-105742857D02*
X139324200Y-105857143D01*
X139324200Y-105857143D02*
X139248009Y-105933333D01*
X139248009Y-105933333D02*
X139171819Y-105971428D01*
X139171819Y-105971428D02*
X139019438Y-106009524D01*
X139019438Y-106009524D02*
X138905152Y-106009524D01*
X138905152Y-106009524D02*
X138752771Y-105971428D01*
X138752771Y-105971428D02*
X138676580Y-105933333D01*
X138676580Y-105933333D02*
X138600390Y-105857143D01*
X138600390Y-105857143D02*
X138562295Y-105742857D01*
X138562295Y-105742857D02*
X138562295Y-105666666D01*
X138562295Y-105666666D02*
X138600390Y-105552381D01*
X138600390Y-105552381D02*
X138638485Y-105514285D01*
X138562295Y-105247619D02*
X138562295Y-104752381D01*
X138562295Y-104752381D02*
X138867057Y-105019047D01*
X138867057Y-105019047D02*
X138867057Y-104904762D01*
X138867057Y-104904762D02*
X138905152Y-104828571D01*
X138905152Y-104828571D02*
X138943247Y-104790476D01*
X138943247Y-104790476D02*
X139019438Y-104752381D01*
X139019438Y-104752381D02*
X139209914Y-104752381D01*
X139209914Y-104752381D02*
X139286104Y-104790476D01*
X139286104Y-104790476D02*
X139324200Y-104828571D01*
X139324200Y-104828571D02*
X139362295Y-104904762D01*
X139362295Y-104904762D02*
X139362295Y-105133333D01*
X139362295Y-105133333D02*
X139324200Y-105209524D01*
X139324200Y-105209524D02*
X139286104Y-105247619D01*
X138638485Y-104447619D02*
X138600390Y-104409523D01*
X138600390Y-104409523D02*
X138562295Y-104333333D01*
X138562295Y-104333333D02*
X138562295Y-104142857D01*
X138562295Y-104142857D02*
X138600390Y-104066666D01*
X138600390Y-104066666D02*
X138638485Y-104028571D01*
X138638485Y-104028571D02*
X138714676Y-103990476D01*
X138714676Y-103990476D02*
X138790866Y-103990476D01*
X138790866Y-103990476D02*
X138905152Y-104028571D01*
X138905152Y-104028571D02*
X139362295Y-104485714D01*
X139362295Y-104485714D02*
X139362295Y-103990476D01*
X159985714Y-108286104D02*
X159947618Y-108324200D01*
X159947618Y-108324200D02*
X159833333Y-108362295D01*
X159833333Y-108362295D02*
X159757142Y-108362295D01*
X159757142Y-108362295D02*
X159642856Y-108324200D01*
X159642856Y-108324200D02*
X159566666Y-108248009D01*
X159566666Y-108248009D02*
X159528571Y-108171819D01*
X159528571Y-108171819D02*
X159490475Y-108019438D01*
X159490475Y-108019438D02*
X159490475Y-107905152D01*
X159490475Y-107905152D02*
X159528571Y-107752771D01*
X159528571Y-107752771D02*
X159566666Y-107676580D01*
X159566666Y-107676580D02*
X159642856Y-107600390D01*
X159642856Y-107600390D02*
X159757142Y-107562295D01*
X159757142Y-107562295D02*
X159833333Y-107562295D01*
X159833333Y-107562295D02*
X159947618Y-107600390D01*
X159947618Y-107600390D02*
X159985714Y-107638485D01*
X160747618Y-108362295D02*
X160290475Y-108362295D01*
X160519047Y-108362295D02*
X160519047Y-107562295D01*
X160519047Y-107562295D02*
X160442856Y-107676580D01*
X160442856Y-107676580D02*
X160366666Y-107752771D01*
X160366666Y-107752771D02*
X160290475Y-107790866D01*
X161471428Y-107562295D02*
X161090476Y-107562295D01*
X161090476Y-107562295D02*
X161052380Y-107943247D01*
X161052380Y-107943247D02*
X161090476Y-107905152D01*
X161090476Y-107905152D02*
X161166666Y-107867057D01*
X161166666Y-107867057D02*
X161357142Y-107867057D01*
X161357142Y-107867057D02*
X161433333Y-107905152D01*
X161433333Y-107905152D02*
X161471428Y-107943247D01*
X161471428Y-107943247D02*
X161509523Y-108019438D01*
X161509523Y-108019438D02*
X161509523Y-108209914D01*
X161509523Y-108209914D02*
X161471428Y-108286104D01*
X161471428Y-108286104D02*
X161433333Y-108324200D01*
X161433333Y-108324200D02*
X161357142Y-108362295D01*
X161357142Y-108362295D02*
X161166666Y-108362295D01*
X161166666Y-108362295D02*
X161090476Y-108324200D01*
X161090476Y-108324200D02*
X161052380Y-108286104D01*
X136786104Y-88514285D02*
X136824200Y-88552381D01*
X136824200Y-88552381D02*
X136862295Y-88666666D01*
X136862295Y-88666666D02*
X136862295Y-88742857D01*
X136862295Y-88742857D02*
X136824200Y-88857143D01*
X136824200Y-88857143D02*
X136748009Y-88933333D01*
X136748009Y-88933333D02*
X136671819Y-88971428D01*
X136671819Y-88971428D02*
X136519438Y-89009524D01*
X136519438Y-89009524D02*
X136405152Y-89009524D01*
X136405152Y-89009524D02*
X136252771Y-88971428D01*
X136252771Y-88971428D02*
X136176580Y-88933333D01*
X136176580Y-88933333D02*
X136100390Y-88857143D01*
X136100390Y-88857143D02*
X136062295Y-88742857D01*
X136062295Y-88742857D02*
X136062295Y-88666666D01*
X136062295Y-88666666D02*
X136100390Y-88552381D01*
X136100390Y-88552381D02*
X136138485Y-88514285D01*
X136062295Y-88247619D02*
X136062295Y-87752381D01*
X136062295Y-87752381D02*
X136367057Y-88019047D01*
X136367057Y-88019047D02*
X136367057Y-87904762D01*
X136367057Y-87904762D02*
X136405152Y-87828571D01*
X136405152Y-87828571D02*
X136443247Y-87790476D01*
X136443247Y-87790476D02*
X136519438Y-87752381D01*
X136519438Y-87752381D02*
X136709914Y-87752381D01*
X136709914Y-87752381D02*
X136786104Y-87790476D01*
X136786104Y-87790476D02*
X136824200Y-87828571D01*
X136824200Y-87828571D02*
X136862295Y-87904762D01*
X136862295Y-87904762D02*
X136862295Y-88133333D01*
X136862295Y-88133333D02*
X136824200Y-88209524D01*
X136824200Y-88209524D02*
X136786104Y-88247619D01*
X136062295Y-87066666D02*
X136062295Y-87219047D01*
X136062295Y-87219047D02*
X136100390Y-87295238D01*
X136100390Y-87295238D02*
X136138485Y-87333333D01*
X136138485Y-87333333D02*
X136252771Y-87409523D01*
X136252771Y-87409523D02*
X136405152Y-87447619D01*
X136405152Y-87447619D02*
X136709914Y-87447619D01*
X136709914Y-87447619D02*
X136786104Y-87409523D01*
X136786104Y-87409523D02*
X136824200Y-87371428D01*
X136824200Y-87371428D02*
X136862295Y-87295238D01*
X136862295Y-87295238D02*
X136862295Y-87142857D01*
X136862295Y-87142857D02*
X136824200Y-87066666D01*
X136824200Y-87066666D02*
X136786104Y-87028571D01*
X136786104Y-87028571D02*
X136709914Y-86990476D01*
X136709914Y-86990476D02*
X136519438Y-86990476D01*
X136519438Y-86990476D02*
X136443247Y-87028571D01*
X136443247Y-87028571D02*
X136405152Y-87066666D01*
X136405152Y-87066666D02*
X136367057Y-87142857D01*
X136367057Y-87142857D02*
X136367057Y-87295238D01*
X136367057Y-87295238D02*
X136405152Y-87371428D01*
X136405152Y-87371428D02*
X136443247Y-87409523D01*
X136443247Y-87409523D02*
X136519438Y-87447619D01*
X156866666Y-97862295D02*
X156485714Y-97862295D01*
X156485714Y-97862295D02*
X156485714Y-97062295D01*
X157057142Y-97062295D02*
X157552380Y-97062295D01*
X157552380Y-97062295D02*
X157285714Y-97367057D01*
X157285714Y-97367057D02*
X157399999Y-97367057D01*
X157399999Y-97367057D02*
X157476190Y-97405152D01*
X157476190Y-97405152D02*
X157514285Y-97443247D01*
X157514285Y-97443247D02*
X157552380Y-97519438D01*
X157552380Y-97519438D02*
X157552380Y-97709914D01*
X157552380Y-97709914D02*
X157514285Y-97786104D01*
X157514285Y-97786104D02*
X157476190Y-97824200D01*
X157476190Y-97824200D02*
X157399999Y-97862295D01*
X157399999Y-97862295D02*
X157171428Y-97862295D01*
X157171428Y-97862295D02*
X157095237Y-97824200D01*
X157095237Y-97824200D02*
X157057142Y-97786104D01*
X144366667Y-83862295D02*
X144100000Y-83481342D01*
X143909524Y-83862295D02*
X143909524Y-83062295D01*
X143909524Y-83062295D02*
X144214286Y-83062295D01*
X144214286Y-83062295D02*
X144290476Y-83100390D01*
X144290476Y-83100390D02*
X144328571Y-83138485D01*
X144328571Y-83138485D02*
X144366667Y-83214676D01*
X144366667Y-83214676D02*
X144366667Y-83328961D01*
X144366667Y-83328961D02*
X144328571Y-83405152D01*
X144328571Y-83405152D02*
X144290476Y-83443247D01*
X144290476Y-83443247D02*
X144214286Y-83481342D01*
X144214286Y-83481342D02*
X143909524Y-83481342D01*
X144823809Y-83405152D02*
X144747619Y-83367057D01*
X144747619Y-83367057D02*
X144709524Y-83328961D01*
X144709524Y-83328961D02*
X144671428Y-83252771D01*
X144671428Y-83252771D02*
X144671428Y-83214676D01*
X144671428Y-83214676D02*
X144709524Y-83138485D01*
X144709524Y-83138485D02*
X144747619Y-83100390D01*
X144747619Y-83100390D02*
X144823809Y-83062295D01*
X144823809Y-83062295D02*
X144976190Y-83062295D01*
X144976190Y-83062295D02*
X145052381Y-83100390D01*
X145052381Y-83100390D02*
X145090476Y-83138485D01*
X145090476Y-83138485D02*
X145128571Y-83214676D01*
X145128571Y-83214676D02*
X145128571Y-83252771D01*
X145128571Y-83252771D02*
X145090476Y-83328961D01*
X145090476Y-83328961D02*
X145052381Y-83367057D01*
X145052381Y-83367057D02*
X144976190Y-83405152D01*
X144976190Y-83405152D02*
X144823809Y-83405152D01*
X144823809Y-83405152D02*
X144747619Y-83443247D01*
X144747619Y-83443247D02*
X144709524Y-83481342D01*
X144709524Y-83481342D02*
X144671428Y-83557533D01*
X144671428Y-83557533D02*
X144671428Y-83709914D01*
X144671428Y-83709914D02*
X144709524Y-83786104D01*
X144709524Y-83786104D02*
X144747619Y-83824200D01*
X144747619Y-83824200D02*
X144823809Y-83862295D01*
X144823809Y-83862295D02*
X144976190Y-83862295D01*
X144976190Y-83862295D02*
X145052381Y-83824200D01*
X145052381Y-83824200D02*
X145090476Y-83786104D01*
X145090476Y-83786104D02*
X145128571Y-83709914D01*
X145128571Y-83709914D02*
X145128571Y-83557533D01*
X145128571Y-83557533D02*
X145090476Y-83481342D01*
X145090476Y-83481342D02*
X145052381Y-83443247D01*
X145052381Y-83443247D02*
X144976190Y-83405152D01*
X140786104Y-105514285D02*
X140824200Y-105552381D01*
X140824200Y-105552381D02*
X140862295Y-105666666D01*
X140862295Y-105666666D02*
X140862295Y-105742857D01*
X140862295Y-105742857D02*
X140824200Y-105857143D01*
X140824200Y-105857143D02*
X140748009Y-105933333D01*
X140748009Y-105933333D02*
X140671819Y-105971428D01*
X140671819Y-105971428D02*
X140519438Y-106009524D01*
X140519438Y-106009524D02*
X140405152Y-106009524D01*
X140405152Y-106009524D02*
X140252771Y-105971428D01*
X140252771Y-105971428D02*
X140176580Y-105933333D01*
X140176580Y-105933333D02*
X140100390Y-105857143D01*
X140100390Y-105857143D02*
X140062295Y-105742857D01*
X140062295Y-105742857D02*
X140062295Y-105666666D01*
X140062295Y-105666666D02*
X140100390Y-105552381D01*
X140100390Y-105552381D02*
X140138485Y-105514285D01*
X140062295Y-105247619D02*
X140062295Y-104752381D01*
X140062295Y-104752381D02*
X140367057Y-105019047D01*
X140367057Y-105019047D02*
X140367057Y-104904762D01*
X140367057Y-104904762D02*
X140405152Y-104828571D01*
X140405152Y-104828571D02*
X140443247Y-104790476D01*
X140443247Y-104790476D02*
X140519438Y-104752381D01*
X140519438Y-104752381D02*
X140709914Y-104752381D01*
X140709914Y-104752381D02*
X140786104Y-104790476D01*
X140786104Y-104790476D02*
X140824200Y-104828571D01*
X140824200Y-104828571D02*
X140862295Y-104904762D01*
X140862295Y-104904762D02*
X140862295Y-105133333D01*
X140862295Y-105133333D02*
X140824200Y-105209524D01*
X140824200Y-105209524D02*
X140786104Y-105247619D01*
X140062295Y-104485714D02*
X140062295Y-103990476D01*
X140062295Y-103990476D02*
X140367057Y-104257142D01*
X140367057Y-104257142D02*
X140367057Y-104142857D01*
X140367057Y-104142857D02*
X140405152Y-104066666D01*
X140405152Y-104066666D02*
X140443247Y-104028571D01*
X140443247Y-104028571D02*
X140519438Y-103990476D01*
X140519438Y-103990476D02*
X140709914Y-103990476D01*
X140709914Y-103990476D02*
X140786104Y-104028571D01*
X140786104Y-104028571D02*
X140824200Y-104066666D01*
X140824200Y-104066666D02*
X140862295Y-104142857D01*
X140862295Y-104142857D02*
X140862295Y-104371428D01*
X140862295Y-104371428D02*
X140824200Y-104447619D01*
X140824200Y-104447619D02*
X140786104Y-104485714D01*
X160178267Y-100286104D02*
X160140171Y-100324200D01*
X160140171Y-100324200D02*
X160025886Y-100362295D01*
X160025886Y-100362295D02*
X159949695Y-100362295D01*
X159949695Y-100362295D02*
X159835409Y-100324200D01*
X159835409Y-100324200D02*
X159759219Y-100248009D01*
X159759219Y-100248009D02*
X159721124Y-100171819D01*
X159721124Y-100171819D02*
X159683028Y-100019438D01*
X159683028Y-100019438D02*
X159683028Y-99905152D01*
X159683028Y-99905152D02*
X159721124Y-99752771D01*
X159721124Y-99752771D02*
X159759219Y-99676580D01*
X159759219Y-99676580D02*
X159835409Y-99600390D01*
X159835409Y-99600390D02*
X159949695Y-99562295D01*
X159949695Y-99562295D02*
X160025886Y-99562295D01*
X160025886Y-99562295D02*
X160140171Y-99600390D01*
X160140171Y-99600390D02*
X160178267Y-99638485D01*
X160863981Y-99562295D02*
X160711600Y-99562295D01*
X160711600Y-99562295D02*
X160635409Y-99600390D01*
X160635409Y-99600390D02*
X160597314Y-99638485D01*
X160597314Y-99638485D02*
X160521124Y-99752771D01*
X160521124Y-99752771D02*
X160483028Y-99905152D01*
X160483028Y-99905152D02*
X160483028Y-100209914D01*
X160483028Y-100209914D02*
X160521124Y-100286104D01*
X160521124Y-100286104D02*
X160559219Y-100324200D01*
X160559219Y-100324200D02*
X160635409Y-100362295D01*
X160635409Y-100362295D02*
X160787790Y-100362295D01*
X160787790Y-100362295D02*
X160863981Y-100324200D01*
X160863981Y-100324200D02*
X160902076Y-100286104D01*
X160902076Y-100286104D02*
X160940171Y-100209914D01*
X160940171Y-100209914D02*
X160940171Y-100019438D01*
X160940171Y-100019438D02*
X160902076Y-99943247D01*
X160902076Y-99943247D02*
X160863981Y-99905152D01*
X160863981Y-99905152D02*
X160787790Y-99867057D01*
X160787790Y-99867057D02*
X160635409Y-99867057D01*
X160635409Y-99867057D02*
X160559219Y-99905152D01*
X160559219Y-99905152D02*
X160521124Y-99943247D01*
X160521124Y-99943247D02*
X160483028Y-100019438D01*
X152062295Y-92902523D02*
X152709914Y-92902523D01*
X152709914Y-92902523D02*
X152786104Y-92864428D01*
X152786104Y-92864428D02*
X152824200Y-92826333D01*
X152824200Y-92826333D02*
X152862295Y-92750142D01*
X152862295Y-92750142D02*
X152862295Y-92597761D01*
X152862295Y-92597761D02*
X152824200Y-92521571D01*
X152824200Y-92521571D02*
X152786104Y-92483476D01*
X152786104Y-92483476D02*
X152709914Y-92445380D01*
X152709914Y-92445380D02*
X152062295Y-92445380D01*
X152862295Y-91645381D02*
X152862295Y-92102524D01*
X152862295Y-91873952D02*
X152062295Y-91873952D01*
X152062295Y-91873952D02*
X152176580Y-91950143D01*
X152176580Y-91950143D02*
X152252771Y-92026333D01*
X152252771Y-92026333D02*
X152290866Y-92102524D01*
X149366667Y-101862295D02*
X149100000Y-101481342D01*
X148909524Y-101862295D02*
X148909524Y-101062295D01*
X148909524Y-101062295D02*
X149214286Y-101062295D01*
X149214286Y-101062295D02*
X149290476Y-101100390D01*
X149290476Y-101100390D02*
X149328571Y-101138485D01*
X149328571Y-101138485D02*
X149366667Y-101214676D01*
X149366667Y-101214676D02*
X149366667Y-101328961D01*
X149366667Y-101328961D02*
X149328571Y-101405152D01*
X149328571Y-101405152D02*
X149290476Y-101443247D01*
X149290476Y-101443247D02*
X149214286Y-101481342D01*
X149214286Y-101481342D02*
X148909524Y-101481342D01*
X150052381Y-101328961D02*
X150052381Y-101862295D01*
X149861905Y-101024200D02*
X149671428Y-101595628D01*
X149671428Y-101595628D02*
X150166667Y-101595628D01*
X160366667Y-98786104D02*
X160328571Y-98824200D01*
X160328571Y-98824200D02*
X160214286Y-98862295D01*
X160214286Y-98862295D02*
X160138095Y-98862295D01*
X160138095Y-98862295D02*
X160023809Y-98824200D01*
X160023809Y-98824200D02*
X159947619Y-98748009D01*
X159947619Y-98748009D02*
X159909524Y-98671819D01*
X159909524Y-98671819D02*
X159871428Y-98519438D01*
X159871428Y-98519438D02*
X159871428Y-98405152D01*
X159871428Y-98405152D02*
X159909524Y-98252771D01*
X159909524Y-98252771D02*
X159947619Y-98176580D01*
X159947619Y-98176580D02*
X160023809Y-98100390D01*
X160023809Y-98100390D02*
X160138095Y-98062295D01*
X160138095Y-98062295D02*
X160214286Y-98062295D01*
X160214286Y-98062295D02*
X160328571Y-98100390D01*
X160328571Y-98100390D02*
X160366667Y-98138485D01*
X161090476Y-98062295D02*
X160709524Y-98062295D01*
X160709524Y-98062295D02*
X160671428Y-98443247D01*
X160671428Y-98443247D02*
X160709524Y-98405152D01*
X160709524Y-98405152D02*
X160785714Y-98367057D01*
X160785714Y-98367057D02*
X160976190Y-98367057D01*
X160976190Y-98367057D02*
X161052381Y-98405152D01*
X161052381Y-98405152D02*
X161090476Y-98443247D01*
X161090476Y-98443247D02*
X161128571Y-98519438D01*
X161128571Y-98519438D02*
X161128571Y-98709914D01*
X161128571Y-98709914D02*
X161090476Y-98786104D01*
X161090476Y-98786104D02*
X161052381Y-98824200D01*
X161052381Y-98824200D02*
X160976190Y-98862295D01*
X160976190Y-98862295D02*
X160785714Y-98862295D01*
X160785714Y-98862295D02*
X160709524Y-98824200D01*
X160709524Y-98824200D02*
X160671428Y-98786104D01*
X158366667Y-106286104D02*
X158328571Y-106324200D01*
X158328571Y-106324200D02*
X158214286Y-106362295D01*
X158214286Y-106362295D02*
X158138095Y-106362295D01*
X158138095Y-106362295D02*
X158023809Y-106324200D01*
X158023809Y-106324200D02*
X157947619Y-106248009D01*
X157947619Y-106248009D02*
X157909524Y-106171819D01*
X157909524Y-106171819D02*
X157871428Y-106019438D01*
X157871428Y-106019438D02*
X157871428Y-105905152D01*
X157871428Y-105905152D02*
X157909524Y-105752771D01*
X157909524Y-105752771D02*
X157947619Y-105676580D01*
X157947619Y-105676580D02*
X158023809Y-105600390D01*
X158023809Y-105600390D02*
X158138095Y-105562295D01*
X158138095Y-105562295D02*
X158214286Y-105562295D01*
X158214286Y-105562295D02*
X158328571Y-105600390D01*
X158328571Y-105600390D02*
X158366667Y-105638485D01*
X158823809Y-105905152D02*
X158747619Y-105867057D01*
X158747619Y-105867057D02*
X158709524Y-105828961D01*
X158709524Y-105828961D02*
X158671428Y-105752771D01*
X158671428Y-105752771D02*
X158671428Y-105714676D01*
X158671428Y-105714676D02*
X158709524Y-105638485D01*
X158709524Y-105638485D02*
X158747619Y-105600390D01*
X158747619Y-105600390D02*
X158823809Y-105562295D01*
X158823809Y-105562295D02*
X158976190Y-105562295D01*
X158976190Y-105562295D02*
X159052381Y-105600390D01*
X159052381Y-105600390D02*
X159090476Y-105638485D01*
X159090476Y-105638485D02*
X159128571Y-105714676D01*
X159128571Y-105714676D02*
X159128571Y-105752771D01*
X159128571Y-105752771D02*
X159090476Y-105828961D01*
X159090476Y-105828961D02*
X159052381Y-105867057D01*
X159052381Y-105867057D02*
X158976190Y-105905152D01*
X158976190Y-105905152D02*
X158823809Y-105905152D01*
X158823809Y-105905152D02*
X158747619Y-105943247D01*
X158747619Y-105943247D02*
X158709524Y-105981342D01*
X158709524Y-105981342D02*
X158671428Y-106057533D01*
X158671428Y-106057533D02*
X158671428Y-106209914D01*
X158671428Y-106209914D02*
X158709524Y-106286104D01*
X158709524Y-106286104D02*
X158747619Y-106324200D01*
X158747619Y-106324200D02*
X158823809Y-106362295D01*
X158823809Y-106362295D02*
X158976190Y-106362295D01*
X158976190Y-106362295D02*
X159052381Y-106324200D01*
X159052381Y-106324200D02*
X159090476Y-106286104D01*
X159090476Y-106286104D02*
X159128571Y-106209914D01*
X159128571Y-106209914D02*
X159128571Y-106057533D01*
X159128571Y-106057533D02*
X159090476Y-105981342D01*
X159090476Y-105981342D02*
X159052381Y-105943247D01*
X159052381Y-105943247D02*
X158976190Y-105905152D01*
X155890476Y-90562295D02*
X155890476Y-91209914D01*
X155890476Y-91209914D02*
X155928571Y-91286104D01*
X155928571Y-91286104D02*
X155966666Y-91324200D01*
X155966666Y-91324200D02*
X156042857Y-91362295D01*
X156042857Y-91362295D02*
X156195238Y-91362295D01*
X156195238Y-91362295D02*
X156271428Y-91324200D01*
X156271428Y-91324200D02*
X156309523Y-91286104D01*
X156309523Y-91286104D02*
X156347619Y-91209914D01*
X156347619Y-91209914D02*
X156347619Y-90562295D01*
X156690475Y-90638485D02*
X156728571Y-90600390D01*
X156728571Y-90600390D02*
X156804761Y-90562295D01*
X156804761Y-90562295D02*
X156995237Y-90562295D01*
X156995237Y-90562295D02*
X157071428Y-90600390D01*
X157071428Y-90600390D02*
X157109523Y-90638485D01*
X157109523Y-90638485D02*
X157147618Y-90714676D01*
X157147618Y-90714676D02*
X157147618Y-90790866D01*
X157147618Y-90790866D02*
X157109523Y-90905152D01*
X157109523Y-90905152D02*
X156652380Y-91362295D01*
X156652380Y-91362295D02*
X157147618Y-91362295D01*
X154866666Y-105862295D02*
X154485714Y-105862295D01*
X154485714Y-105862295D02*
X154485714Y-105062295D01*
X155514285Y-105062295D02*
X155133333Y-105062295D01*
X155133333Y-105062295D02*
X155095237Y-105443247D01*
X155095237Y-105443247D02*
X155133333Y-105405152D01*
X155133333Y-105405152D02*
X155209523Y-105367057D01*
X155209523Y-105367057D02*
X155399999Y-105367057D01*
X155399999Y-105367057D02*
X155476190Y-105405152D01*
X155476190Y-105405152D02*
X155514285Y-105443247D01*
X155514285Y-105443247D02*
X155552380Y-105519438D01*
X155552380Y-105519438D02*
X155552380Y-105709914D01*
X155552380Y-105709914D02*
X155514285Y-105786104D01*
X155514285Y-105786104D02*
X155476190Y-105824200D01*
X155476190Y-105824200D02*
X155399999Y-105862295D01*
X155399999Y-105862295D02*
X155209523Y-105862295D01*
X155209523Y-105862295D02*
X155133333Y-105824200D01*
X155133333Y-105824200D02*
X155095237Y-105786104D01*
X162485714Y-90786104D02*
X162447618Y-90824200D01*
X162447618Y-90824200D02*
X162333333Y-90862295D01*
X162333333Y-90862295D02*
X162257142Y-90862295D01*
X162257142Y-90862295D02*
X162142856Y-90824200D01*
X162142856Y-90824200D02*
X162066666Y-90748009D01*
X162066666Y-90748009D02*
X162028571Y-90671819D01*
X162028571Y-90671819D02*
X161990475Y-90519438D01*
X161990475Y-90519438D02*
X161990475Y-90405152D01*
X161990475Y-90405152D02*
X162028571Y-90252771D01*
X162028571Y-90252771D02*
X162066666Y-90176580D01*
X162066666Y-90176580D02*
X162142856Y-90100390D01*
X162142856Y-90100390D02*
X162257142Y-90062295D01*
X162257142Y-90062295D02*
X162333333Y-90062295D01*
X162333333Y-90062295D02*
X162447618Y-90100390D01*
X162447618Y-90100390D02*
X162485714Y-90138485D01*
X163247618Y-90862295D02*
X162790475Y-90862295D01*
X163019047Y-90862295D02*
X163019047Y-90062295D01*
X163019047Y-90062295D02*
X162942856Y-90176580D01*
X162942856Y-90176580D02*
X162866666Y-90252771D01*
X162866666Y-90252771D02*
X162790475Y-90290866D01*
X163933333Y-90062295D02*
X163780952Y-90062295D01*
X163780952Y-90062295D02*
X163704761Y-90100390D01*
X163704761Y-90100390D02*
X163666666Y-90138485D01*
X163666666Y-90138485D02*
X163590476Y-90252771D01*
X163590476Y-90252771D02*
X163552380Y-90405152D01*
X163552380Y-90405152D02*
X163552380Y-90709914D01*
X163552380Y-90709914D02*
X163590476Y-90786104D01*
X163590476Y-90786104D02*
X163628571Y-90824200D01*
X163628571Y-90824200D02*
X163704761Y-90862295D01*
X163704761Y-90862295D02*
X163857142Y-90862295D01*
X163857142Y-90862295D02*
X163933333Y-90824200D01*
X163933333Y-90824200D02*
X163971428Y-90786104D01*
X163971428Y-90786104D02*
X164009523Y-90709914D01*
X164009523Y-90709914D02*
X164009523Y-90519438D01*
X164009523Y-90519438D02*
X163971428Y-90443247D01*
X163971428Y-90443247D02*
X163933333Y-90405152D01*
X163933333Y-90405152D02*
X163857142Y-90367057D01*
X163857142Y-90367057D02*
X163704761Y-90367057D01*
X163704761Y-90367057D02*
X163628571Y-90405152D01*
X163628571Y-90405152D02*
X163590476Y-90443247D01*
X163590476Y-90443247D02*
X163552380Y-90519438D01*
X135812296Y-106196665D02*
X136383724Y-106196665D01*
X136383724Y-106196665D02*
X136498010Y-106234760D01*
X136498010Y-106234760D02*
X136574201Y-106310951D01*
X136574201Y-106310951D02*
X136612296Y-106425236D01*
X136612296Y-106425236D02*
X136612296Y-106501427D01*
X136078962Y-105472855D02*
X136612296Y-105472855D01*
X135774201Y-105663331D02*
X136345629Y-105853808D01*
X136345629Y-105853808D02*
X136345629Y-105358569D01*
X162366667Y-95786104D02*
X162328571Y-95824200D01*
X162328571Y-95824200D02*
X162214286Y-95862295D01*
X162214286Y-95862295D02*
X162138095Y-95862295D01*
X162138095Y-95862295D02*
X162023809Y-95824200D01*
X162023809Y-95824200D02*
X161947619Y-95748009D01*
X161947619Y-95748009D02*
X161909524Y-95671819D01*
X161909524Y-95671819D02*
X161871428Y-95519438D01*
X161871428Y-95519438D02*
X161871428Y-95405152D01*
X161871428Y-95405152D02*
X161909524Y-95252771D01*
X161909524Y-95252771D02*
X161947619Y-95176580D01*
X161947619Y-95176580D02*
X162023809Y-95100390D01*
X162023809Y-95100390D02*
X162138095Y-95062295D01*
X162138095Y-95062295D02*
X162214286Y-95062295D01*
X162214286Y-95062295D02*
X162328571Y-95100390D01*
X162328571Y-95100390D02*
X162366667Y-95138485D01*
X162671428Y-95138485D02*
X162709524Y-95100390D01*
X162709524Y-95100390D02*
X162785714Y-95062295D01*
X162785714Y-95062295D02*
X162976190Y-95062295D01*
X162976190Y-95062295D02*
X163052381Y-95100390D01*
X163052381Y-95100390D02*
X163090476Y-95138485D01*
X163090476Y-95138485D02*
X163128571Y-95214676D01*
X163128571Y-95214676D02*
X163128571Y-95290866D01*
X163128571Y-95290866D02*
X163090476Y-95405152D01*
X163090476Y-95405152D02*
X162633333Y-95862295D01*
X162633333Y-95862295D02*
X163128571Y-95862295D01*
X157985714Y-81286104D02*
X157947618Y-81324200D01*
X157947618Y-81324200D02*
X157833333Y-81362295D01*
X157833333Y-81362295D02*
X157757142Y-81362295D01*
X157757142Y-81362295D02*
X157642856Y-81324200D01*
X157642856Y-81324200D02*
X157566666Y-81248009D01*
X157566666Y-81248009D02*
X157528571Y-81171819D01*
X157528571Y-81171819D02*
X157490475Y-81019438D01*
X157490475Y-81019438D02*
X157490475Y-80905152D01*
X157490475Y-80905152D02*
X157528571Y-80752771D01*
X157528571Y-80752771D02*
X157566666Y-80676580D01*
X157566666Y-80676580D02*
X157642856Y-80600390D01*
X157642856Y-80600390D02*
X157757142Y-80562295D01*
X157757142Y-80562295D02*
X157833333Y-80562295D01*
X157833333Y-80562295D02*
X157947618Y-80600390D01*
X157947618Y-80600390D02*
X157985714Y-80638485D01*
X158747618Y-81362295D02*
X158290475Y-81362295D01*
X158519047Y-81362295D02*
X158519047Y-80562295D01*
X158519047Y-80562295D02*
X158442856Y-80676580D01*
X158442856Y-80676580D02*
X158366666Y-80752771D01*
X158366666Y-80752771D02*
X158290475Y-80790866D01*
X159014285Y-80562295D02*
X159547619Y-80562295D01*
X159547619Y-80562295D02*
X159204761Y-81362295D01*
X158390476Y-104062295D02*
X158390476Y-104709914D01*
X158390476Y-104709914D02*
X158428571Y-104786104D01*
X158428571Y-104786104D02*
X158466666Y-104824200D01*
X158466666Y-104824200D02*
X158542857Y-104862295D01*
X158542857Y-104862295D02*
X158695238Y-104862295D01*
X158695238Y-104862295D02*
X158771428Y-104824200D01*
X158771428Y-104824200D02*
X158809523Y-104786104D01*
X158809523Y-104786104D02*
X158847619Y-104709914D01*
X158847619Y-104709914D02*
X158847619Y-104062295D01*
X159609523Y-104062295D02*
X159228571Y-104062295D01*
X159228571Y-104062295D02*
X159190475Y-104443247D01*
X159190475Y-104443247D02*
X159228571Y-104405152D01*
X159228571Y-104405152D02*
X159304761Y-104367057D01*
X159304761Y-104367057D02*
X159495237Y-104367057D01*
X159495237Y-104367057D02*
X159571428Y-104405152D01*
X159571428Y-104405152D02*
X159609523Y-104443247D01*
X159609523Y-104443247D02*
X159647618Y-104519438D01*
X159647618Y-104519438D02*
X159647618Y-104709914D01*
X159647618Y-104709914D02*
X159609523Y-104786104D01*
X159609523Y-104786104D02*
X159571428Y-104824200D01*
X159571428Y-104824200D02*
X159495237Y-104862295D01*
X159495237Y-104862295D02*
X159304761Y-104862295D01*
X159304761Y-104862295D02*
X159228571Y-104824200D01*
X159228571Y-104824200D02*
X159190475Y-104786104D01*
X152485714Y-108786104D02*
X152447618Y-108824200D01*
X152447618Y-108824200D02*
X152333333Y-108862295D01*
X152333333Y-108862295D02*
X152257142Y-108862295D01*
X152257142Y-108862295D02*
X152142856Y-108824200D01*
X152142856Y-108824200D02*
X152066666Y-108748009D01*
X152066666Y-108748009D02*
X152028571Y-108671819D01*
X152028571Y-108671819D02*
X151990475Y-108519438D01*
X151990475Y-108519438D02*
X151990475Y-108405152D01*
X151990475Y-108405152D02*
X152028571Y-108252771D01*
X152028571Y-108252771D02*
X152066666Y-108176580D01*
X152066666Y-108176580D02*
X152142856Y-108100390D01*
X152142856Y-108100390D02*
X152257142Y-108062295D01*
X152257142Y-108062295D02*
X152333333Y-108062295D01*
X152333333Y-108062295D02*
X152447618Y-108100390D01*
X152447618Y-108100390D02*
X152485714Y-108138485D01*
X153247618Y-108862295D02*
X152790475Y-108862295D01*
X153019047Y-108862295D02*
X153019047Y-108062295D01*
X153019047Y-108062295D02*
X152942856Y-108176580D01*
X152942856Y-108176580D02*
X152866666Y-108252771D01*
X152866666Y-108252771D02*
X152790475Y-108290866D01*
X153742857Y-108062295D02*
X153819047Y-108062295D01*
X153819047Y-108062295D02*
X153895238Y-108100390D01*
X153895238Y-108100390D02*
X153933333Y-108138485D01*
X153933333Y-108138485D02*
X153971428Y-108214676D01*
X153971428Y-108214676D02*
X154009523Y-108367057D01*
X154009523Y-108367057D02*
X154009523Y-108557533D01*
X154009523Y-108557533D02*
X153971428Y-108709914D01*
X153971428Y-108709914D02*
X153933333Y-108786104D01*
X153933333Y-108786104D02*
X153895238Y-108824200D01*
X153895238Y-108824200D02*
X153819047Y-108862295D01*
X153819047Y-108862295D02*
X153742857Y-108862295D01*
X153742857Y-108862295D02*
X153666666Y-108824200D01*
X153666666Y-108824200D02*
X153628571Y-108786104D01*
X153628571Y-108786104D02*
X153590476Y-108709914D01*
X153590476Y-108709914D02*
X153552380Y-108557533D01*
X153552380Y-108557533D02*
X153552380Y-108367057D01*
X153552380Y-108367057D02*
X153590476Y-108214676D01*
X153590476Y-108214676D02*
X153628571Y-108138485D01*
X153628571Y-108138485D02*
X153666666Y-108100390D01*
X153666666Y-108100390D02*
X153742857Y-108062295D01*
X161366667Y-97286104D02*
X161328571Y-97324200D01*
X161328571Y-97324200D02*
X161214286Y-97362295D01*
X161214286Y-97362295D02*
X161138095Y-97362295D01*
X161138095Y-97362295D02*
X161023809Y-97324200D01*
X161023809Y-97324200D02*
X160947619Y-97248009D01*
X160947619Y-97248009D02*
X160909524Y-97171819D01*
X160909524Y-97171819D02*
X160871428Y-97019438D01*
X160871428Y-97019438D02*
X160871428Y-96905152D01*
X160871428Y-96905152D02*
X160909524Y-96752771D01*
X160909524Y-96752771D02*
X160947619Y-96676580D01*
X160947619Y-96676580D02*
X161023809Y-96600390D01*
X161023809Y-96600390D02*
X161138095Y-96562295D01*
X161138095Y-96562295D02*
X161214286Y-96562295D01*
X161214286Y-96562295D02*
X161328571Y-96600390D01*
X161328571Y-96600390D02*
X161366667Y-96638485D01*
X162052381Y-96828961D02*
X162052381Y-97362295D01*
X161861905Y-96524200D02*
X161671428Y-97095628D01*
X161671428Y-97095628D02*
X162166667Y-97095628D01*
X160366666Y-101862295D02*
X159985714Y-101862295D01*
X159985714Y-101862295D02*
X159985714Y-101062295D01*
X160976190Y-101328961D02*
X160976190Y-101862295D01*
X160785714Y-101024200D02*
X160595237Y-101595628D01*
X160595237Y-101595628D02*
X161090476Y-101595628D01*
X147733333Y-106062295D02*
X147733333Y-106633723D01*
X147733333Y-106633723D02*
X147695238Y-106748009D01*
X147695238Y-106748009D02*
X147619047Y-106824200D01*
X147619047Y-106824200D02*
X147504762Y-106862295D01*
X147504762Y-106862295D02*
X147428571Y-106862295D01*
X148457143Y-106062295D02*
X148304762Y-106062295D01*
X148304762Y-106062295D02*
X148228571Y-106100390D01*
X148228571Y-106100390D02*
X148190476Y-106138485D01*
X148190476Y-106138485D02*
X148114286Y-106252771D01*
X148114286Y-106252771D02*
X148076190Y-106405152D01*
X148076190Y-106405152D02*
X148076190Y-106709914D01*
X148076190Y-106709914D02*
X148114286Y-106786104D01*
X148114286Y-106786104D02*
X148152381Y-106824200D01*
X148152381Y-106824200D02*
X148228571Y-106862295D01*
X148228571Y-106862295D02*
X148380952Y-106862295D01*
X148380952Y-106862295D02*
X148457143Y-106824200D01*
X148457143Y-106824200D02*
X148495238Y-106786104D01*
X148495238Y-106786104D02*
X148533333Y-106709914D01*
X148533333Y-106709914D02*
X148533333Y-106519438D01*
X148533333Y-106519438D02*
X148495238Y-106443247D01*
X148495238Y-106443247D02*
X148457143Y-106405152D01*
X148457143Y-106405152D02*
X148380952Y-106367057D01*
X148380952Y-106367057D02*
X148228571Y-106367057D01*
X148228571Y-106367057D02*
X148152381Y-106405152D01*
X148152381Y-106405152D02*
X148114286Y-106443247D01*
X148114286Y-106443247D02*
X148076190Y-106519438D01*
X161312298Y-82086655D02*
X161883726Y-82086655D01*
X161883726Y-82086655D02*
X161998012Y-82124750D01*
X161998012Y-82124750D02*
X162074203Y-82200941D01*
X162074203Y-82200941D02*
X162112298Y-82315226D01*
X162112298Y-82315226D02*
X162112298Y-82391417D01*
X161388488Y-81743798D02*
X161350393Y-81705702D01*
X161350393Y-81705702D02*
X161312298Y-81629512D01*
X161312298Y-81629512D02*
X161312298Y-81439036D01*
X161312298Y-81439036D02*
X161350393Y-81362845D01*
X161350393Y-81362845D02*
X161388488Y-81324750D01*
X161388488Y-81324750D02*
X161464679Y-81286655D01*
X161464679Y-81286655D02*
X161540869Y-81286655D01*
X161540869Y-81286655D02*
X161655155Y-81324750D01*
X161655155Y-81324750D02*
X162112298Y-81781893D01*
X162112298Y-81781893D02*
X162112298Y-81286655D01*
X163862295Y-106133332D02*
X163481342Y-106399999D01*
X163862295Y-106590475D02*
X163062295Y-106590475D01*
X163062295Y-106590475D02*
X163062295Y-106285713D01*
X163062295Y-106285713D02*
X163100390Y-106209523D01*
X163100390Y-106209523D02*
X163138485Y-106171428D01*
X163138485Y-106171428D02*
X163214676Y-106133332D01*
X163214676Y-106133332D02*
X163328961Y-106133332D01*
X163328961Y-106133332D02*
X163405152Y-106171428D01*
X163405152Y-106171428D02*
X163443247Y-106209523D01*
X163443247Y-106209523D02*
X163481342Y-106285713D01*
X163481342Y-106285713D02*
X163481342Y-106590475D01*
X163062295Y-105866666D02*
X163062295Y-105371428D01*
X163062295Y-105371428D02*
X163367057Y-105638094D01*
X163367057Y-105638094D02*
X163367057Y-105523809D01*
X163367057Y-105523809D02*
X163405152Y-105447618D01*
X163405152Y-105447618D02*
X163443247Y-105409523D01*
X163443247Y-105409523D02*
X163519438Y-105371428D01*
X163519438Y-105371428D02*
X163709914Y-105371428D01*
X163709914Y-105371428D02*
X163786104Y-105409523D01*
X163786104Y-105409523D02*
X163824200Y-105447618D01*
X163824200Y-105447618D02*
X163862295Y-105523809D01*
X163862295Y-105523809D02*
X163862295Y-105752380D01*
X163862295Y-105752380D02*
X163824200Y-105828571D01*
X163824200Y-105828571D02*
X163786104Y-105866666D01*
X154286104Y-96514285D02*
X154324200Y-96552381D01*
X154324200Y-96552381D02*
X154362295Y-96666666D01*
X154362295Y-96666666D02*
X154362295Y-96742857D01*
X154362295Y-96742857D02*
X154324200Y-96857143D01*
X154324200Y-96857143D02*
X154248009Y-96933333D01*
X154248009Y-96933333D02*
X154171819Y-96971428D01*
X154171819Y-96971428D02*
X154019438Y-97009524D01*
X154019438Y-97009524D02*
X153905152Y-97009524D01*
X153905152Y-97009524D02*
X153752771Y-96971428D01*
X153752771Y-96971428D02*
X153676580Y-96933333D01*
X153676580Y-96933333D02*
X153600390Y-96857143D01*
X153600390Y-96857143D02*
X153562295Y-96742857D01*
X153562295Y-96742857D02*
X153562295Y-96666666D01*
X153562295Y-96666666D02*
X153600390Y-96552381D01*
X153600390Y-96552381D02*
X153638485Y-96514285D01*
X154362295Y-95752381D02*
X154362295Y-96209524D01*
X154362295Y-95980952D02*
X153562295Y-95980952D01*
X153562295Y-95980952D02*
X153676580Y-96057143D01*
X153676580Y-96057143D02*
X153752771Y-96133333D01*
X153752771Y-96133333D02*
X153790866Y-96209524D01*
X153638485Y-95447619D02*
X153600390Y-95409523D01*
X153600390Y-95409523D02*
X153562295Y-95333333D01*
X153562295Y-95333333D02*
X153562295Y-95142857D01*
X153562295Y-95142857D02*
X153600390Y-95066666D01*
X153600390Y-95066666D02*
X153638485Y-95028571D01*
X153638485Y-95028571D02*
X153714676Y-94990476D01*
X153714676Y-94990476D02*
X153790866Y-94990476D01*
X153790866Y-94990476D02*
X153905152Y-95028571D01*
X153905152Y-95028571D02*
X154362295Y-95485714D01*
X154362295Y-95485714D02*
X154362295Y-94990476D01*
X155786104Y-96514285D02*
X155824200Y-96552381D01*
X155824200Y-96552381D02*
X155862295Y-96666666D01*
X155862295Y-96666666D02*
X155862295Y-96742857D01*
X155862295Y-96742857D02*
X155824200Y-96857143D01*
X155824200Y-96857143D02*
X155748009Y-96933333D01*
X155748009Y-96933333D02*
X155671819Y-96971428D01*
X155671819Y-96971428D02*
X155519438Y-97009524D01*
X155519438Y-97009524D02*
X155405152Y-97009524D01*
X155405152Y-97009524D02*
X155252771Y-96971428D01*
X155252771Y-96971428D02*
X155176580Y-96933333D01*
X155176580Y-96933333D02*
X155100390Y-96857143D01*
X155100390Y-96857143D02*
X155062295Y-96742857D01*
X155062295Y-96742857D02*
X155062295Y-96666666D01*
X155062295Y-96666666D02*
X155100390Y-96552381D01*
X155100390Y-96552381D02*
X155138485Y-96514285D01*
X155862295Y-95752381D02*
X155862295Y-96209524D01*
X155862295Y-95980952D02*
X155062295Y-95980952D01*
X155062295Y-95980952D02*
X155176580Y-96057143D01*
X155176580Y-96057143D02*
X155252771Y-96133333D01*
X155252771Y-96133333D02*
X155290866Y-96209524D01*
X155862295Y-94990476D02*
X155862295Y-95447619D01*
X155862295Y-95219047D02*
X155062295Y-95219047D01*
X155062295Y-95219047D02*
X155176580Y-95295238D01*
X155176580Y-95295238D02*
X155252771Y-95371428D01*
X155252771Y-95371428D02*
X155290866Y-95447619D01*
X137862295Y-105133332D02*
X137481342Y-105399999D01*
X137862295Y-105590475D02*
X137062295Y-105590475D01*
X137062295Y-105590475D02*
X137062295Y-105285713D01*
X137062295Y-105285713D02*
X137100390Y-105209523D01*
X137100390Y-105209523D02*
X137138485Y-105171428D01*
X137138485Y-105171428D02*
X137214676Y-105133332D01*
X137214676Y-105133332D02*
X137328961Y-105133332D01*
X137328961Y-105133332D02*
X137405152Y-105171428D01*
X137405152Y-105171428D02*
X137443247Y-105209523D01*
X137443247Y-105209523D02*
X137481342Y-105285713D01*
X137481342Y-105285713D02*
X137481342Y-105590475D01*
X137138485Y-104828571D02*
X137100390Y-104790475D01*
X137100390Y-104790475D02*
X137062295Y-104714285D01*
X137062295Y-104714285D02*
X137062295Y-104523809D01*
X137062295Y-104523809D02*
X137100390Y-104447618D01*
X137100390Y-104447618D02*
X137138485Y-104409523D01*
X137138485Y-104409523D02*
X137214676Y-104371428D01*
X137214676Y-104371428D02*
X137290866Y-104371428D01*
X137290866Y-104371428D02*
X137405152Y-104409523D01*
X137405152Y-104409523D02*
X137862295Y-104866666D01*
X137862295Y-104866666D02*
X137862295Y-104371428D01*
X161813580Y-86855095D02*
X162346914Y-87655095D01*
X162346914Y-86855095D02*
X161813580Y-87655095D01*
X162613580Y-86931285D02*
X162651676Y-86893190D01*
X162651676Y-86893190D02*
X162727866Y-86855095D01*
X162727866Y-86855095D02*
X162918342Y-86855095D01*
X162918342Y-86855095D02*
X162994533Y-86893190D01*
X162994533Y-86893190D02*
X163032628Y-86931285D01*
X163032628Y-86931285D02*
X163070723Y-87007476D01*
X163070723Y-87007476D02*
X163070723Y-87083666D01*
X163070723Y-87083666D02*
X163032628Y-87197952D01*
X163032628Y-87197952D02*
X162575485Y-87655095D01*
X162575485Y-87655095D02*
X163070723Y-87655095D01*
X148985714Y-103286104D02*
X148947618Y-103324200D01*
X148947618Y-103324200D02*
X148833333Y-103362295D01*
X148833333Y-103362295D02*
X148757142Y-103362295D01*
X148757142Y-103362295D02*
X148642856Y-103324200D01*
X148642856Y-103324200D02*
X148566666Y-103248009D01*
X148566666Y-103248009D02*
X148528571Y-103171819D01*
X148528571Y-103171819D02*
X148490475Y-103019438D01*
X148490475Y-103019438D02*
X148490475Y-102905152D01*
X148490475Y-102905152D02*
X148528571Y-102752771D01*
X148528571Y-102752771D02*
X148566666Y-102676580D01*
X148566666Y-102676580D02*
X148642856Y-102600390D01*
X148642856Y-102600390D02*
X148757142Y-102562295D01*
X148757142Y-102562295D02*
X148833333Y-102562295D01*
X148833333Y-102562295D02*
X148947618Y-102600390D01*
X148947618Y-102600390D02*
X148985714Y-102638485D01*
X149747618Y-103362295D02*
X149290475Y-103362295D01*
X149519047Y-103362295D02*
X149519047Y-102562295D01*
X149519047Y-102562295D02*
X149442856Y-102676580D01*
X149442856Y-102676580D02*
X149366666Y-102752771D01*
X149366666Y-102752771D02*
X149290475Y-102790866D01*
X150433333Y-102828961D02*
X150433333Y-103362295D01*
X150242857Y-102524200D02*
X150052380Y-103095628D01*
X150052380Y-103095628D02*
X150547619Y-103095628D01*
X162366667Y-92286104D02*
X162328571Y-92324200D01*
X162328571Y-92324200D02*
X162214286Y-92362295D01*
X162214286Y-92362295D02*
X162138095Y-92362295D01*
X162138095Y-92362295D02*
X162023809Y-92324200D01*
X162023809Y-92324200D02*
X161947619Y-92248009D01*
X161947619Y-92248009D02*
X161909524Y-92171819D01*
X161909524Y-92171819D02*
X161871428Y-92019438D01*
X161871428Y-92019438D02*
X161871428Y-91905152D01*
X161871428Y-91905152D02*
X161909524Y-91752771D01*
X161909524Y-91752771D02*
X161947619Y-91676580D01*
X161947619Y-91676580D02*
X162023809Y-91600390D01*
X162023809Y-91600390D02*
X162138095Y-91562295D01*
X162138095Y-91562295D02*
X162214286Y-91562295D01*
X162214286Y-91562295D02*
X162328571Y-91600390D01*
X162328571Y-91600390D02*
X162366667Y-91638485D01*
X163128571Y-92362295D02*
X162671428Y-92362295D01*
X162900000Y-92362295D02*
X162900000Y-91562295D01*
X162900000Y-91562295D02*
X162823809Y-91676580D01*
X162823809Y-91676580D02*
X162747619Y-91752771D01*
X162747619Y-91752771D02*
X162671428Y-91790866D01*
X138303334Y-80812292D02*
X138303334Y-81383720D01*
X138303334Y-81383720D02*
X138265239Y-81498006D01*
X138265239Y-81498006D02*
X138189048Y-81574197D01*
X138189048Y-81574197D02*
X138074763Y-81612292D01*
X138074763Y-81612292D02*
X137998572Y-81612292D01*
X139103334Y-81612292D02*
X138646191Y-81612292D01*
X138874763Y-81612292D02*
X138874763Y-80812292D01*
X138874763Y-80812292D02*
X138798572Y-80926577D01*
X138798572Y-80926577D02*
X138722382Y-81002768D01*
X138722382Y-81002768D02*
X138646191Y-81040863D01*
X153866666Y-92862295D02*
X153485714Y-92862295D01*
X153485714Y-92862295D02*
X153485714Y-92062295D01*
X154476190Y-92062295D02*
X154323809Y-92062295D01*
X154323809Y-92062295D02*
X154247618Y-92100390D01*
X154247618Y-92100390D02*
X154209523Y-92138485D01*
X154209523Y-92138485D02*
X154133333Y-92252771D01*
X154133333Y-92252771D02*
X154095237Y-92405152D01*
X154095237Y-92405152D02*
X154095237Y-92709914D01*
X154095237Y-92709914D02*
X154133333Y-92786104D01*
X154133333Y-92786104D02*
X154171428Y-92824200D01*
X154171428Y-92824200D02*
X154247618Y-92862295D01*
X154247618Y-92862295D02*
X154399999Y-92862295D01*
X154399999Y-92862295D02*
X154476190Y-92824200D01*
X154476190Y-92824200D02*
X154514285Y-92786104D01*
X154514285Y-92786104D02*
X154552380Y-92709914D01*
X154552380Y-92709914D02*
X154552380Y-92519438D01*
X154552380Y-92519438D02*
X154514285Y-92443247D01*
X154514285Y-92443247D02*
X154476190Y-92405152D01*
X154476190Y-92405152D02*
X154399999Y-92367057D01*
X154399999Y-92367057D02*
X154247618Y-92367057D01*
X154247618Y-92367057D02*
X154171428Y-92405152D01*
X154171428Y-92405152D02*
X154133333Y-92443247D01*
X154133333Y-92443247D02*
X154095237Y-92519438D01*
X155366667Y-108786104D02*
X155328571Y-108824200D01*
X155328571Y-108824200D02*
X155214286Y-108862295D01*
X155214286Y-108862295D02*
X155138095Y-108862295D01*
X155138095Y-108862295D02*
X155023809Y-108824200D01*
X155023809Y-108824200D02*
X154947619Y-108748009D01*
X154947619Y-108748009D02*
X154909524Y-108671819D01*
X154909524Y-108671819D02*
X154871428Y-108519438D01*
X154871428Y-108519438D02*
X154871428Y-108405152D01*
X154871428Y-108405152D02*
X154909524Y-108252771D01*
X154909524Y-108252771D02*
X154947619Y-108176580D01*
X154947619Y-108176580D02*
X155023809Y-108100390D01*
X155023809Y-108100390D02*
X155138095Y-108062295D01*
X155138095Y-108062295D02*
X155214286Y-108062295D01*
X155214286Y-108062295D02*
X155328571Y-108100390D01*
X155328571Y-108100390D02*
X155366667Y-108138485D01*
X155747619Y-108862295D02*
X155900000Y-108862295D01*
X155900000Y-108862295D02*
X155976190Y-108824200D01*
X155976190Y-108824200D02*
X156014286Y-108786104D01*
X156014286Y-108786104D02*
X156090476Y-108671819D01*
X156090476Y-108671819D02*
X156128571Y-108519438D01*
X156128571Y-108519438D02*
X156128571Y-108214676D01*
X156128571Y-108214676D02*
X156090476Y-108138485D01*
X156090476Y-108138485D02*
X156052381Y-108100390D01*
X156052381Y-108100390D02*
X155976190Y-108062295D01*
X155976190Y-108062295D02*
X155823809Y-108062295D01*
X155823809Y-108062295D02*
X155747619Y-108100390D01*
X155747619Y-108100390D02*
X155709524Y-108138485D01*
X155709524Y-108138485D02*
X155671428Y-108214676D01*
X155671428Y-108214676D02*
X155671428Y-108405152D01*
X155671428Y-108405152D02*
X155709524Y-108481342D01*
X155709524Y-108481342D02*
X155747619Y-108519438D01*
X155747619Y-108519438D02*
X155823809Y-108557533D01*
X155823809Y-108557533D02*
X155976190Y-108557533D01*
X155976190Y-108557533D02*
X156052381Y-108519438D01*
X156052381Y-108519438D02*
X156090476Y-108481342D01*
X156090476Y-108481342D02*
X156128571Y-108405152D01*
X159866666Y-85862295D02*
X159485714Y-85862295D01*
X159485714Y-85862295D02*
X159485714Y-85062295D01*
X160057142Y-85062295D02*
X160590476Y-85062295D01*
X160590476Y-85062295D02*
X160247618Y-85862295D01*
X142286104Y-105514285D02*
X142324200Y-105552381D01*
X142324200Y-105552381D02*
X142362295Y-105666666D01*
X142362295Y-105666666D02*
X142362295Y-105742857D01*
X142362295Y-105742857D02*
X142324200Y-105857143D01*
X142324200Y-105857143D02*
X142248009Y-105933333D01*
X142248009Y-105933333D02*
X142171819Y-105971428D01*
X142171819Y-105971428D02*
X142019438Y-106009524D01*
X142019438Y-106009524D02*
X141905152Y-106009524D01*
X141905152Y-106009524D02*
X141752771Y-105971428D01*
X141752771Y-105971428D02*
X141676580Y-105933333D01*
X141676580Y-105933333D02*
X141600390Y-105857143D01*
X141600390Y-105857143D02*
X141562295Y-105742857D01*
X141562295Y-105742857D02*
X141562295Y-105666666D01*
X141562295Y-105666666D02*
X141600390Y-105552381D01*
X141600390Y-105552381D02*
X141638485Y-105514285D01*
X141562295Y-105247619D02*
X141562295Y-104752381D01*
X141562295Y-104752381D02*
X141867057Y-105019047D01*
X141867057Y-105019047D02*
X141867057Y-104904762D01*
X141867057Y-104904762D02*
X141905152Y-104828571D01*
X141905152Y-104828571D02*
X141943247Y-104790476D01*
X141943247Y-104790476D02*
X142019438Y-104752381D01*
X142019438Y-104752381D02*
X142209914Y-104752381D01*
X142209914Y-104752381D02*
X142286104Y-104790476D01*
X142286104Y-104790476D02*
X142324200Y-104828571D01*
X142324200Y-104828571D02*
X142362295Y-104904762D01*
X142362295Y-104904762D02*
X142362295Y-105133333D01*
X142362295Y-105133333D02*
X142324200Y-105209524D01*
X142324200Y-105209524D02*
X142286104Y-105247619D01*
X142362295Y-103990476D02*
X142362295Y-104447619D01*
X142362295Y-104219047D02*
X141562295Y-104219047D01*
X141562295Y-104219047D02*
X141676580Y-104295238D01*
X141676580Y-104295238D02*
X141752771Y-104371428D01*
X141752771Y-104371428D02*
X141790866Y-104447619D01*
X144366667Y-82362295D02*
X144100000Y-81981342D01*
X143909524Y-82362295D02*
X143909524Y-81562295D01*
X143909524Y-81562295D02*
X144214286Y-81562295D01*
X144214286Y-81562295D02*
X144290476Y-81600390D01*
X144290476Y-81600390D02*
X144328571Y-81638485D01*
X144328571Y-81638485D02*
X144366667Y-81714676D01*
X144366667Y-81714676D02*
X144366667Y-81828961D01*
X144366667Y-81828961D02*
X144328571Y-81905152D01*
X144328571Y-81905152D02*
X144290476Y-81943247D01*
X144290476Y-81943247D02*
X144214286Y-81981342D01*
X144214286Y-81981342D02*
X143909524Y-81981342D01*
X144633333Y-81562295D02*
X145166667Y-81562295D01*
X145166667Y-81562295D02*
X144823809Y-82362295D01*
X160866667Y-103602104D02*
X160828571Y-103640200D01*
X160828571Y-103640200D02*
X160714286Y-103678295D01*
X160714286Y-103678295D02*
X160638095Y-103678295D01*
X160638095Y-103678295D02*
X160523809Y-103640200D01*
X160523809Y-103640200D02*
X160447619Y-103564009D01*
X160447619Y-103564009D02*
X160409524Y-103487819D01*
X160409524Y-103487819D02*
X160371428Y-103335438D01*
X160371428Y-103335438D02*
X160371428Y-103221152D01*
X160371428Y-103221152D02*
X160409524Y-103068771D01*
X160409524Y-103068771D02*
X160447619Y-102992580D01*
X160447619Y-102992580D02*
X160523809Y-102916390D01*
X160523809Y-102916390D02*
X160638095Y-102878295D01*
X160638095Y-102878295D02*
X160714286Y-102878295D01*
X160714286Y-102878295D02*
X160828571Y-102916390D01*
X160828571Y-102916390D02*
X160866667Y-102954485D01*
X161133333Y-102878295D02*
X161666667Y-102878295D01*
X161666667Y-102878295D02*
X161323809Y-103678295D01*
X149485714Y-85286104D02*
X149447618Y-85324200D01*
X149447618Y-85324200D02*
X149333333Y-85362295D01*
X149333333Y-85362295D02*
X149257142Y-85362295D01*
X149257142Y-85362295D02*
X149142856Y-85324200D01*
X149142856Y-85324200D02*
X149066666Y-85248009D01*
X149066666Y-85248009D02*
X149028571Y-85171819D01*
X149028571Y-85171819D02*
X148990475Y-85019438D01*
X148990475Y-85019438D02*
X148990475Y-84905152D01*
X148990475Y-84905152D02*
X149028571Y-84752771D01*
X149028571Y-84752771D02*
X149066666Y-84676580D01*
X149066666Y-84676580D02*
X149142856Y-84600390D01*
X149142856Y-84600390D02*
X149257142Y-84562295D01*
X149257142Y-84562295D02*
X149333333Y-84562295D01*
X149333333Y-84562295D02*
X149447618Y-84600390D01*
X149447618Y-84600390D02*
X149485714Y-84638485D01*
X149752380Y-84562295D02*
X150247618Y-84562295D01*
X150247618Y-84562295D02*
X149980952Y-84867057D01*
X149980952Y-84867057D02*
X150095237Y-84867057D01*
X150095237Y-84867057D02*
X150171428Y-84905152D01*
X150171428Y-84905152D02*
X150209523Y-84943247D01*
X150209523Y-84943247D02*
X150247618Y-85019438D01*
X150247618Y-85019438D02*
X150247618Y-85209914D01*
X150247618Y-85209914D02*
X150209523Y-85286104D01*
X150209523Y-85286104D02*
X150171428Y-85324200D01*
X150171428Y-85324200D02*
X150095237Y-85362295D01*
X150095237Y-85362295D02*
X149866666Y-85362295D01*
X149866666Y-85362295D02*
X149790475Y-85324200D01*
X149790475Y-85324200D02*
X149752380Y-85286104D01*
X150971428Y-84562295D02*
X150590476Y-84562295D01*
X150590476Y-84562295D02*
X150552380Y-84943247D01*
X150552380Y-84943247D02*
X150590476Y-84905152D01*
X150590476Y-84905152D02*
X150666666Y-84867057D01*
X150666666Y-84867057D02*
X150857142Y-84867057D01*
X150857142Y-84867057D02*
X150933333Y-84905152D01*
X150933333Y-84905152D02*
X150971428Y-84943247D01*
X150971428Y-84943247D02*
X151009523Y-85019438D01*
X151009523Y-85019438D02*
X151009523Y-85209914D01*
X151009523Y-85209914D02*
X150971428Y-85286104D01*
X150971428Y-85286104D02*
X150933333Y-85324200D01*
X150933333Y-85324200D02*
X150857142Y-85362295D01*
X150857142Y-85362295D02*
X150666666Y-85362295D01*
X150666666Y-85362295D02*
X150590476Y-85324200D01*
X150590476Y-85324200D02*
X150552380Y-85286104D01*
X156866666Y-96362295D02*
X156485714Y-96362295D01*
X156485714Y-96362295D02*
X156485714Y-95562295D01*
X157552380Y-96362295D02*
X157095237Y-96362295D01*
X157323809Y-96362295D02*
X157323809Y-95562295D01*
X157323809Y-95562295D02*
X157247618Y-95676580D01*
X157247618Y-95676580D02*
X157171428Y-95752771D01*
X157171428Y-95752771D02*
X157095237Y-95790866D01*
X139485714Y-85286104D02*
X139447618Y-85324200D01*
X139447618Y-85324200D02*
X139333333Y-85362295D01*
X139333333Y-85362295D02*
X139257142Y-85362295D01*
X139257142Y-85362295D02*
X139142856Y-85324200D01*
X139142856Y-85324200D02*
X139066666Y-85248009D01*
X139066666Y-85248009D02*
X139028571Y-85171819D01*
X139028571Y-85171819D02*
X138990475Y-85019438D01*
X138990475Y-85019438D02*
X138990475Y-84905152D01*
X138990475Y-84905152D02*
X139028571Y-84752771D01*
X139028571Y-84752771D02*
X139066666Y-84676580D01*
X139066666Y-84676580D02*
X139142856Y-84600390D01*
X139142856Y-84600390D02*
X139257142Y-84562295D01*
X139257142Y-84562295D02*
X139333333Y-84562295D01*
X139333333Y-84562295D02*
X139447618Y-84600390D01*
X139447618Y-84600390D02*
X139485714Y-84638485D01*
X139752380Y-84562295D02*
X140247618Y-84562295D01*
X140247618Y-84562295D02*
X139980952Y-84867057D01*
X139980952Y-84867057D02*
X140095237Y-84867057D01*
X140095237Y-84867057D02*
X140171428Y-84905152D01*
X140171428Y-84905152D02*
X140209523Y-84943247D01*
X140209523Y-84943247D02*
X140247618Y-85019438D01*
X140247618Y-85019438D02*
X140247618Y-85209914D01*
X140247618Y-85209914D02*
X140209523Y-85286104D01*
X140209523Y-85286104D02*
X140171428Y-85324200D01*
X140171428Y-85324200D02*
X140095237Y-85362295D01*
X140095237Y-85362295D02*
X139866666Y-85362295D01*
X139866666Y-85362295D02*
X139790475Y-85324200D01*
X139790475Y-85324200D02*
X139752380Y-85286104D01*
X140933333Y-84828961D02*
X140933333Y-85362295D01*
X140742857Y-84524200D02*
X140552380Y-85095628D01*
X140552380Y-85095628D02*
X141047619Y-85095628D01*
X161490476Y-93062295D02*
X161947619Y-93062295D01*
X161719047Y-93862295D02*
X161719047Y-93062295D01*
X162214286Y-93862295D02*
X162214286Y-93062295D01*
X162214286Y-93062295D02*
X162519048Y-93062295D01*
X162519048Y-93062295D02*
X162595238Y-93100390D01*
X162595238Y-93100390D02*
X162633333Y-93138485D01*
X162633333Y-93138485D02*
X162671429Y-93214676D01*
X162671429Y-93214676D02*
X162671429Y-93328961D01*
X162671429Y-93328961D02*
X162633333Y-93405152D01*
X162633333Y-93405152D02*
X162595238Y-93443247D01*
X162595238Y-93443247D02*
X162519048Y-93481342D01*
X162519048Y-93481342D02*
X162214286Y-93481342D01*
X163433333Y-93862295D02*
X162976190Y-93862295D01*
X163204762Y-93862295D02*
X163204762Y-93062295D01*
X163204762Y-93062295D02*
X163128571Y-93176580D01*
X163128571Y-93176580D02*
X163052381Y-93252771D01*
X163052381Y-93252771D02*
X162976190Y-93290866D01*
X149485714Y-100286104D02*
X149447618Y-100324200D01*
X149447618Y-100324200D02*
X149333333Y-100362295D01*
X149333333Y-100362295D02*
X149257142Y-100362295D01*
X149257142Y-100362295D02*
X149142856Y-100324200D01*
X149142856Y-100324200D02*
X149066666Y-100248009D01*
X149066666Y-100248009D02*
X149028571Y-100171819D01*
X149028571Y-100171819D02*
X148990475Y-100019438D01*
X148990475Y-100019438D02*
X148990475Y-99905152D01*
X148990475Y-99905152D02*
X149028571Y-99752771D01*
X149028571Y-99752771D02*
X149066666Y-99676580D01*
X149066666Y-99676580D02*
X149142856Y-99600390D01*
X149142856Y-99600390D02*
X149257142Y-99562295D01*
X149257142Y-99562295D02*
X149333333Y-99562295D01*
X149333333Y-99562295D02*
X149447618Y-99600390D01*
X149447618Y-99600390D02*
X149485714Y-99638485D01*
X149752380Y-99562295D02*
X150247618Y-99562295D01*
X150247618Y-99562295D02*
X149980952Y-99867057D01*
X149980952Y-99867057D02*
X150095237Y-99867057D01*
X150095237Y-99867057D02*
X150171428Y-99905152D01*
X150171428Y-99905152D02*
X150209523Y-99943247D01*
X150209523Y-99943247D02*
X150247618Y-100019438D01*
X150247618Y-100019438D02*
X150247618Y-100209914D01*
X150247618Y-100209914D02*
X150209523Y-100286104D01*
X150209523Y-100286104D02*
X150171428Y-100324200D01*
X150171428Y-100324200D02*
X150095237Y-100362295D01*
X150095237Y-100362295D02*
X149866666Y-100362295D01*
X149866666Y-100362295D02*
X149790475Y-100324200D01*
X149790475Y-100324200D02*
X149752380Y-100286104D01*
X150514285Y-99562295D02*
X151047619Y-99562295D01*
X151047619Y-99562295D02*
X150704761Y-100362295D01*
X136866667Y-82362295D02*
X136600000Y-81981342D01*
X136409524Y-82362295D02*
X136409524Y-81562295D01*
X136409524Y-81562295D02*
X136714286Y-81562295D01*
X136714286Y-81562295D02*
X136790476Y-81600390D01*
X136790476Y-81600390D02*
X136828571Y-81638485D01*
X136828571Y-81638485D02*
X136866667Y-81714676D01*
X136866667Y-81714676D02*
X136866667Y-81828961D01*
X136866667Y-81828961D02*
X136828571Y-81905152D01*
X136828571Y-81905152D02*
X136790476Y-81943247D01*
X136790476Y-81943247D02*
X136714286Y-81981342D01*
X136714286Y-81981342D02*
X136409524Y-81981342D01*
X137628571Y-82362295D02*
X137171428Y-82362295D01*
X137400000Y-82362295D02*
X137400000Y-81562295D01*
X137400000Y-81562295D02*
X137323809Y-81676580D01*
X137323809Y-81676580D02*
X137247619Y-81752771D01*
X137247619Y-81752771D02*
X137171428Y-81790866D01*
%TO.C,C18*%
D12*
X155156900Y-83608780D02*
X155156900Y-83327620D01*
X156176900Y-83608780D02*
X156176900Y-83327620D01*
%TO.C,C32*%
X138590500Y-101909420D02*
X138590500Y-102190580D01*
X139610500Y-101909420D02*
X139610500Y-102190580D01*
D10*
%TO.C,R6*%
G36*
X138976818Y-83116774D02*
G01*
X138986757Y-83130175D01*
X138997961Y-83142538D01*
X139010324Y-83153742D01*
X139023725Y-83163681D01*
X139068381Y-83193518D01*
X139080500Y-83200781D01*
X139080500Y-83399218D01*
X139068381Y-83406481D01*
X139023725Y-83436318D01*
X139010324Y-83446257D01*
X138997961Y-83457461D01*
X138986757Y-83469824D01*
X138976818Y-83483225D01*
X138972177Y-83490171D01*
X138960500Y-83478494D01*
X138960500Y-83121506D01*
X138972177Y-83109828D01*
X138976818Y-83116774D01*
G37*
G36*
X139840500Y-83121506D02*
G01*
X139840500Y-83478494D01*
X139828822Y-83490171D01*
X139824181Y-83483225D01*
X139814242Y-83469824D01*
X139803038Y-83457461D01*
X139790675Y-83446257D01*
X139777274Y-83436318D01*
X139732618Y-83406481D01*
X139720500Y-83399218D01*
X139720500Y-83200781D01*
X139732618Y-83193518D01*
X139777274Y-83163681D01*
X139790675Y-83153742D01*
X139803038Y-83142538D01*
X139814242Y-83130175D01*
X139824181Y-83116774D01*
X139828822Y-83109828D01*
X139840500Y-83121506D01*
G37*
%TO.C,C15*%
D12*
X159861100Y-105829220D02*
X159861100Y-106110380D01*
X160881100Y-105829220D02*
X160881100Y-106110380D01*
%TO.C,C36*%
X137541080Y-85790000D02*
X137259920Y-85790000D01*
X137541080Y-86810000D02*
X137259920Y-86810000D01*
%TO.C,R8*%
X141563242Y-82977500D02*
X142037758Y-82977500D01*
X141563242Y-84022500D02*
X142037758Y-84022500D01*
%TO.C,C33*%
X140090500Y-101909420D02*
X140090500Y-102190580D01*
X141110500Y-101909420D02*
X141110500Y-102190580D01*
D10*
%TO.C,C6*%
G36*
X157995152Y-99835180D02*
G01*
X158006356Y-99847543D01*
X158018719Y-99858747D01*
X158032120Y-99868686D01*
X158078430Y-99899628D01*
X158092739Y-99908204D01*
X158097500Y-99910456D01*
X158097500Y-100022343D01*
X158092740Y-100024594D01*
X158078430Y-100033171D01*
X158032120Y-100064113D01*
X158018719Y-100074052D01*
X158006356Y-100085256D01*
X157995152Y-100097619D01*
X157987009Y-100108598D01*
X157977500Y-100099089D01*
X157977500Y-99833711D01*
X157987009Y-99824201D01*
X157995152Y-99835180D01*
G37*
G36*
X158817500Y-99833711D02*
G01*
X158817500Y-100099089D01*
X158807990Y-100108598D01*
X158799847Y-100097619D01*
X158788643Y-100085256D01*
X158776280Y-100074052D01*
X158762879Y-100064113D01*
X158716569Y-100033171D01*
X158702260Y-100024595D01*
X158697500Y-100022343D01*
X158697500Y-99910456D01*
X158702259Y-99908205D01*
X158716569Y-99899628D01*
X158762879Y-99868686D01*
X158776280Y-99858747D01*
X158788643Y-99847543D01*
X158799847Y-99835180D01*
X158807990Y-99824201D01*
X158817500Y-99833711D01*
G37*
%TO.C,U1*%
D12*
X138750000Y-87183000D02*
X138750000Y-88133000D01*
X138750000Y-88133000D02*
X137410000Y-88133000D01*
X138750000Y-97403000D02*
X138750000Y-96453000D01*
X139700000Y-87183000D02*
X138750000Y-87183000D01*
X139700000Y-97403000D02*
X138750000Y-97403000D01*
X148020000Y-87183000D02*
X148970000Y-87183000D01*
X148020000Y-97403000D02*
X148970000Y-97403000D01*
X148970000Y-87183000D02*
X148970000Y-88133000D01*
X148970000Y-97403000D02*
X148970000Y-96453000D01*
%TO.C,R4*%
X152084242Y-100997500D02*
X152558758Y-100997500D01*
X152084242Y-102042500D02*
X152558758Y-102042500D01*
D10*
%TO.C,C5*%
G36*
X158891694Y-98848759D02*
G01*
X158900271Y-98863069D01*
X158931213Y-98909379D01*
X158941152Y-98922780D01*
X158952356Y-98935143D01*
X158964719Y-98946347D01*
X158975698Y-98954490D01*
X158966189Y-98964000D01*
X158700811Y-98964000D01*
X158691301Y-98954490D01*
X158702280Y-98946347D01*
X158714643Y-98935143D01*
X158725847Y-98922780D01*
X158735786Y-98909379D01*
X158766728Y-98863069D01*
X158775304Y-98848760D01*
X158777556Y-98844000D01*
X158889443Y-98844000D01*
X158891694Y-98848759D01*
G37*
G36*
X158975698Y-98133509D02*
G01*
X158964719Y-98141652D01*
X158952356Y-98152856D01*
X158941152Y-98165219D01*
X158931213Y-98178620D01*
X158900271Y-98224930D01*
X158891695Y-98239239D01*
X158889443Y-98244000D01*
X158777556Y-98244000D01*
X158775305Y-98239240D01*
X158766728Y-98224930D01*
X158735786Y-98178620D01*
X158725847Y-98165219D01*
X158714643Y-98152856D01*
X158702280Y-98141652D01*
X158691301Y-98133509D01*
X158700811Y-98124000D01*
X158966189Y-98124000D01*
X158975698Y-98133509D01*
G37*
%TO.C,C8*%
G36*
X156800519Y-105962147D02*
G01*
X156813920Y-105972086D01*
X156860230Y-106003028D01*
X156874539Y-106011604D01*
X156879300Y-106013856D01*
X156879300Y-106125743D01*
X156874540Y-106127994D01*
X156860230Y-106136571D01*
X156813920Y-106167513D01*
X156800519Y-106177452D01*
X156791100Y-106185987D01*
X156791100Y-105953611D01*
X156800519Y-105962147D01*
G37*
G36*
X157599300Y-105937111D02*
G01*
X157599300Y-106202489D01*
X157589790Y-106211998D01*
X157581647Y-106201019D01*
X157570443Y-106188656D01*
X157558080Y-106177452D01*
X157544679Y-106167513D01*
X157498369Y-106136571D01*
X157484060Y-106127995D01*
X157479300Y-106125743D01*
X157479300Y-106013856D01*
X157484059Y-106011605D01*
X157498369Y-106003028D01*
X157544679Y-105972086D01*
X157558080Y-105962147D01*
X157570443Y-105950943D01*
X157581647Y-105938580D01*
X157589790Y-105927601D01*
X157599300Y-105937111D01*
G37*
%TO.C,U2*%
D12*
X154599300Y-85889800D02*
X154599300Y-86364800D01*
X154599300Y-90109800D02*
X154599300Y-89634800D01*
X155074300Y-85889800D02*
X154599300Y-85889800D01*
X155074300Y-90109800D02*
X154599300Y-90109800D01*
X158344300Y-85889800D02*
X158819300Y-85889800D01*
X158344300Y-90109800D02*
X158819300Y-90109800D01*
X158819300Y-85889800D02*
X158819300Y-86364800D01*
%TO.C,J3*%
X137240011Y-110160799D02*
X137240011Y-112820799D01*
X160160011Y-110160799D02*
X137240011Y-110160799D01*
X160160011Y-110160799D02*
X160160011Y-112820799D01*
X160160011Y-112820799D02*
X137240011Y-112820799D01*
X162760011Y-111490799D02*
X162760011Y-112820799D01*
X162760011Y-112820799D02*
X161430011Y-112820799D01*
%TO.C,C16*%
X162258320Y-88590000D02*
X162539480Y-88590000D01*
X162258320Y-89610000D02*
X162539480Y-89610000D01*
%TO.C,J4*%
X132179201Y-105159999D02*
X132179201Y-82239999D01*
X132179201Y-107759999D02*
X132179201Y-106429999D01*
X133509201Y-107759999D02*
X132179201Y-107759999D01*
X134839201Y-82239999D02*
X132179201Y-82239999D01*
X134839201Y-105159999D02*
X132179201Y-105159999D01*
X134839201Y-105159999D02*
X134839201Y-82239999D01*
D10*
%TO.C,C2*%
G36*
X160725694Y-95974759D02*
G01*
X160734271Y-95989069D01*
X160765213Y-96035379D01*
X160775152Y-96048780D01*
X160786356Y-96061143D01*
X160798719Y-96072347D01*
X160809698Y-96080490D01*
X160800189Y-96090000D01*
X160534811Y-96090000D01*
X160525301Y-96080490D01*
X160536280Y-96072347D01*
X160548643Y-96061143D01*
X160559847Y-96048780D01*
X160569786Y-96035379D01*
X160600728Y-95989069D01*
X160609304Y-95974760D01*
X160611556Y-95970000D01*
X160723443Y-95970000D01*
X160725694Y-95974759D01*
G37*
G36*
X160809698Y-95259509D02*
G01*
X160798719Y-95267652D01*
X160786356Y-95278856D01*
X160775152Y-95291219D01*
X160765213Y-95304620D01*
X160734271Y-95350930D01*
X160725695Y-95365239D01*
X160723443Y-95370000D01*
X160611556Y-95370000D01*
X160609305Y-95365240D01*
X160600728Y-95350930D01*
X160569786Y-95304620D01*
X160559847Y-95291219D01*
X160548643Y-95278856D01*
X160536280Y-95267652D01*
X160525301Y-95259509D01*
X160534811Y-95250000D01*
X160800189Y-95250000D01*
X160809698Y-95259509D01*
G37*
%TO.C,C17*%
D12*
X158684280Y-81891400D02*
X158403120Y-81891400D01*
X158684280Y-82911400D02*
X158403120Y-82911400D01*
%TO.C,U5*%
X157628000Y-103813000D02*
G75*
G02*
X157528000Y-103813000I-50000J0D01*
G01*
X157528000Y-103813000D02*
G75*
G02*
X157628000Y-103813000I50000J0D01*
G01*
D10*
G36*
X156478818Y-104401063D02*
G01*
X156481266Y-104417567D01*
X156485038Y-104436529D01*
X156489092Y-104452711D01*
X156494713Y-104468419D01*
X156501845Y-104483500D01*
X156510422Y-104497809D01*
X156520572Y-104513000D01*
X156510422Y-104528190D01*
X156501845Y-104542499D01*
X156494713Y-104557580D01*
X156489092Y-104573288D01*
X156485038Y-104589470D01*
X156481266Y-104608432D01*
X156478818Y-104624936D01*
X156478000Y-104641600D01*
X156478000Y-104384400D01*
X156478818Y-104401063D01*
G37*
G36*
X156993190Y-104980577D02*
G01*
X157007499Y-104989154D01*
X157022580Y-104996286D01*
X157038288Y-105001907D01*
X157054470Y-105005961D01*
X157073432Y-105009733D01*
X157089936Y-105012181D01*
X157106600Y-105013000D01*
X156849400Y-105013000D01*
X156866063Y-105012181D01*
X156882567Y-105009733D01*
X156901529Y-105005961D01*
X156917711Y-105001907D01*
X156933419Y-104996286D01*
X156948500Y-104989154D01*
X156962809Y-104980577D01*
X156978000Y-104970427D01*
X156993190Y-104980577D01*
G37*
G36*
X157089936Y-104013818D02*
G01*
X157073432Y-104016266D01*
X157054470Y-104020038D01*
X157038288Y-104024092D01*
X157022580Y-104029713D01*
X157007499Y-104036845D01*
X156993190Y-104045422D01*
X156978000Y-104055572D01*
X156962809Y-104045422D01*
X156948500Y-104036845D01*
X156933419Y-104029713D01*
X156917711Y-104024092D01*
X156901529Y-104020038D01*
X156882567Y-104016266D01*
X156866063Y-104013818D01*
X156849400Y-104013000D01*
X157106600Y-104013000D01*
X157089936Y-104013818D01*
G37*
G36*
X157393190Y-104980577D02*
G01*
X157407499Y-104989154D01*
X157422580Y-104996286D01*
X157438288Y-105001907D01*
X157454470Y-105005961D01*
X157473432Y-105009733D01*
X157489936Y-105012181D01*
X157506600Y-105013000D01*
X157249400Y-105013000D01*
X157266063Y-105012181D01*
X157282567Y-105009733D01*
X157301529Y-105005961D01*
X157317711Y-105001907D01*
X157333419Y-104996286D01*
X157348500Y-104989154D01*
X157362809Y-104980577D01*
X157378000Y-104970427D01*
X157393190Y-104980577D01*
G37*
G36*
X157489936Y-104013818D02*
G01*
X157473432Y-104016266D01*
X157454470Y-104020038D01*
X157438288Y-104024092D01*
X157422580Y-104029713D01*
X157407499Y-104036845D01*
X157393190Y-104045422D01*
X157378000Y-104055572D01*
X157362809Y-104045422D01*
X157348500Y-104036845D01*
X157333419Y-104029713D01*
X157317711Y-104024092D01*
X157301529Y-104020038D01*
X157282567Y-104016266D01*
X157266063Y-104013818D01*
X157249400Y-104013000D01*
X157506600Y-104013000D01*
X157489936Y-104013818D01*
G37*
G36*
X157878000Y-104641600D02*
G01*
X157877181Y-104624936D01*
X157874733Y-104608432D01*
X157870961Y-104589470D01*
X157866907Y-104573288D01*
X157861286Y-104557580D01*
X157854154Y-104542499D01*
X157845577Y-104528190D01*
X157835427Y-104513000D01*
X157845577Y-104497809D01*
X157854154Y-104483500D01*
X157861286Y-104468419D01*
X157866907Y-104452711D01*
X157870961Y-104436529D01*
X157874733Y-104417567D01*
X157877181Y-104401063D01*
X157878000Y-104384400D01*
X157878000Y-104641600D01*
G37*
G36*
X156478818Y-104801063D02*
G01*
X156481266Y-104817567D01*
X156485038Y-104836529D01*
X156489092Y-104852711D01*
X156494713Y-104868419D01*
X156501845Y-104883500D01*
X156510422Y-104897809D01*
X156524788Y-104919309D01*
X156534726Y-104932709D01*
X156545929Y-104945070D01*
X156558290Y-104956273D01*
X156571690Y-104966211D01*
X156593190Y-104980577D01*
X156607499Y-104989154D01*
X156622580Y-104996286D01*
X156638288Y-105001907D01*
X156654470Y-105005961D01*
X156673432Y-105009733D01*
X156689936Y-105012181D01*
X156706600Y-105013000D01*
X156548711Y-105013000D01*
X156507289Y-105013000D01*
X156478000Y-104983711D01*
X156478000Y-104942289D01*
X156478000Y-104784400D01*
X156478818Y-104801063D01*
G37*
G36*
X156689936Y-104013818D02*
G01*
X156673432Y-104016266D01*
X156654470Y-104020038D01*
X156638288Y-104024092D01*
X156622580Y-104029713D01*
X156607499Y-104036845D01*
X156593190Y-104045422D01*
X156571690Y-104059788D01*
X156558290Y-104069726D01*
X156545929Y-104080929D01*
X156534726Y-104093290D01*
X156524788Y-104106690D01*
X156510422Y-104128190D01*
X156501845Y-104142499D01*
X156494713Y-104157580D01*
X156489092Y-104173288D01*
X156485038Y-104189470D01*
X156481266Y-104208432D01*
X156478818Y-104224936D01*
X156478000Y-104241600D01*
X156478000Y-104083711D01*
X156478000Y-104042289D01*
X156507289Y-104013000D01*
X156548711Y-104013000D01*
X156706600Y-104013000D01*
X156689936Y-104013818D01*
G37*
G36*
X157878000Y-104042289D02*
G01*
X157878000Y-104083711D01*
X157878000Y-104241600D01*
X157877181Y-104224936D01*
X157874733Y-104208432D01*
X157870961Y-104189470D01*
X157866907Y-104173288D01*
X157861286Y-104157580D01*
X157854154Y-104142499D01*
X157845577Y-104128190D01*
X157831211Y-104106690D01*
X157821273Y-104093290D01*
X157810070Y-104080929D01*
X157797709Y-104069726D01*
X157784309Y-104059788D01*
X157762809Y-104045422D01*
X157748500Y-104036845D01*
X157733419Y-104029713D01*
X157717711Y-104024092D01*
X157701529Y-104020038D01*
X157682567Y-104016266D01*
X157666063Y-104013818D01*
X157649400Y-104013000D01*
X157807289Y-104013000D01*
X157848711Y-104013000D01*
X157878000Y-104042289D01*
G37*
G36*
X157878000Y-104942289D02*
G01*
X157878000Y-104983711D01*
X157848711Y-105013000D01*
X157807289Y-105013000D01*
X157649400Y-105013000D01*
X157666063Y-105012181D01*
X157682567Y-105009733D01*
X157701529Y-105005961D01*
X157717711Y-105001907D01*
X157733419Y-104996286D01*
X157748500Y-104989154D01*
X157762809Y-104980577D01*
X157784309Y-104966211D01*
X157797709Y-104956273D01*
X157810070Y-104945070D01*
X157821273Y-104932709D01*
X157831211Y-104919309D01*
X157845577Y-104897809D01*
X157854154Y-104883500D01*
X157861286Y-104868419D01*
X157866907Y-104852711D01*
X157870961Y-104836529D01*
X157874733Y-104817567D01*
X157877181Y-104801063D01*
X157878000Y-104784400D01*
X157878000Y-104942289D01*
G37*
%TO.C,C10*%
G36*
X152976952Y-105938580D02*
G01*
X152988156Y-105950943D01*
X153000519Y-105962147D01*
X153013920Y-105972086D01*
X153060230Y-106003028D01*
X153074539Y-106011604D01*
X153079300Y-106013856D01*
X153079300Y-106125743D01*
X153074540Y-106127994D01*
X153060230Y-106136571D01*
X153013920Y-106167513D01*
X153000519Y-106177452D01*
X152988156Y-106188656D01*
X152976952Y-106201019D01*
X152968809Y-106211998D01*
X152959300Y-106202489D01*
X152959300Y-105937111D01*
X152968809Y-105927601D01*
X152976952Y-105938580D01*
G37*
G36*
X153799300Y-105937111D02*
G01*
X153799300Y-106202489D01*
X153789790Y-106211998D01*
X153781647Y-106201019D01*
X153770443Y-106188656D01*
X153758080Y-106177452D01*
X153744679Y-106167513D01*
X153698369Y-106136571D01*
X153684060Y-106127995D01*
X153679300Y-106125743D01*
X153679300Y-106013856D01*
X153684059Y-106011605D01*
X153698369Y-106003028D01*
X153744679Y-105972086D01*
X153758080Y-105962147D01*
X153770443Y-105950943D01*
X153781647Y-105938580D01*
X153789790Y-105927601D01*
X153799300Y-105937111D01*
G37*
%TO.C,C4*%
G36*
X159023752Y-96993180D02*
G01*
X159034956Y-97005543D01*
X159047319Y-97016747D01*
X159060720Y-97026686D01*
X159107030Y-97057628D01*
X159121339Y-97066204D01*
X159126100Y-97068456D01*
X159126100Y-97180343D01*
X159121340Y-97182594D01*
X159107030Y-97191171D01*
X159060720Y-97222113D01*
X159047319Y-97232052D01*
X159034956Y-97243256D01*
X159023752Y-97255619D01*
X159015609Y-97266598D01*
X159006100Y-97257089D01*
X159006100Y-96991711D01*
X159015609Y-96982201D01*
X159023752Y-96993180D01*
G37*
G36*
X159846100Y-96991711D02*
G01*
X159846100Y-97257089D01*
X159836590Y-97266598D01*
X159828447Y-97255619D01*
X159817243Y-97243256D01*
X159804880Y-97232052D01*
X159791479Y-97222113D01*
X159745169Y-97191171D01*
X159730860Y-97182595D01*
X159726100Y-97180343D01*
X159726100Y-97068456D01*
X159730859Y-97066205D01*
X159745169Y-97057628D01*
X159791479Y-97026686D01*
X159804880Y-97016747D01*
X159817243Y-97005543D01*
X159828447Y-96993180D01*
X159836590Y-96982201D01*
X159846100Y-96991711D01*
G37*
%TO.C,J6*%
D12*
X148944300Y-107919800D02*
X148944300Y-105219800D01*
X151664300Y-105169800D02*
X151664300Y-105809800D01*
X151664300Y-107329800D02*
X152294300Y-107329800D01*
X151664300Y-107969800D02*
X151664300Y-107329800D01*
%TO.C,J2*%
X165160803Y-84839989D02*
X165160803Y-107759989D01*
X165160803Y-84839989D02*
X167820803Y-84839989D01*
X165160803Y-107759989D02*
X167820803Y-107759989D01*
X166490803Y-82239989D02*
X167820803Y-82239989D01*
X167820803Y-82239989D02*
X167820803Y-83569989D01*
X167820803Y-84839989D02*
X167820803Y-107759989D01*
%TO.C,R3*%
X161356800Y-106207058D02*
X161356800Y-105732542D01*
X162401800Y-106207058D02*
X162401800Y-105732542D01*
D10*
%TO.C,C12*%
G36*
X154598152Y-93672180D02*
G01*
X154609356Y-93684543D01*
X154621719Y-93695747D01*
X154635120Y-93705686D01*
X154681430Y-93736628D01*
X154695739Y-93745204D01*
X154700500Y-93747456D01*
X154700500Y-93859343D01*
X154695740Y-93861594D01*
X154681430Y-93870171D01*
X154635120Y-93901113D01*
X154621719Y-93911052D01*
X154609356Y-93922256D01*
X154598152Y-93934619D01*
X154590009Y-93945598D01*
X154580500Y-93936089D01*
X154580500Y-93670711D01*
X154590009Y-93661201D01*
X154598152Y-93672180D01*
G37*
G36*
X155420500Y-93670711D02*
G01*
X155420500Y-93936089D01*
X155410990Y-93945598D01*
X155402847Y-93934619D01*
X155391643Y-93922256D01*
X155379280Y-93911052D01*
X155365879Y-93901113D01*
X155319569Y-93870171D01*
X155305260Y-93861595D01*
X155300500Y-93859343D01*
X155300500Y-93747456D01*
X155305259Y-93745205D01*
X155319569Y-93736628D01*
X155365879Y-93705686D01*
X155379280Y-93695747D01*
X155391643Y-93684543D01*
X155402847Y-93672180D01*
X155410990Y-93661201D01*
X155420500Y-93670711D01*
G37*
%TO.C,C11*%
G36*
X155588152Y-93672180D02*
G01*
X155599356Y-93684543D01*
X155611719Y-93695747D01*
X155625120Y-93705686D01*
X155671430Y-93736628D01*
X155685739Y-93745204D01*
X155690500Y-93747456D01*
X155690500Y-93859343D01*
X155685740Y-93861594D01*
X155671430Y-93870171D01*
X155625120Y-93901113D01*
X155611719Y-93911052D01*
X155599356Y-93922256D01*
X155588152Y-93934619D01*
X155580009Y-93945598D01*
X155570500Y-93936089D01*
X155570500Y-93670711D01*
X155580009Y-93661201D01*
X155588152Y-93672180D01*
G37*
G36*
X156410500Y-93670711D02*
G01*
X156410500Y-93936089D01*
X156400990Y-93945598D01*
X156392847Y-93934619D01*
X156381643Y-93922256D01*
X156369280Y-93911052D01*
X156355879Y-93901113D01*
X156309569Y-93870171D01*
X156295260Y-93861595D01*
X156290500Y-93859343D01*
X156290500Y-93747456D01*
X156295259Y-93745205D01*
X156309569Y-93736628D01*
X156355879Y-93705686D01*
X156369280Y-93695747D01*
X156381643Y-93684543D01*
X156392847Y-93672180D01*
X156400990Y-93661201D01*
X156410500Y-93670711D01*
G37*
%TO.C,R2*%
D12*
X137028000Y-102287258D02*
X137028000Y-101812742D01*
X138073000Y-102287258D02*
X138073000Y-101812742D01*
%TO.C,C3*%
X153582100Y-83608780D02*
X153582100Y-83327620D01*
X154602100Y-83608780D02*
X154602100Y-83327620D01*
%TO.C,X2*%
D13*
X160946493Y-83970012D02*
G75*
G02*
X160746493Y-83970012I-100000J0D01*
G01*
X160746493Y-83970012D02*
G75*
G02*
X160946493Y-83970012I100000J0D01*
G01*
D10*
G36*
X163706493Y-83245159D02*
G01*
X163706493Y-83294865D01*
X163706493Y-86045159D01*
X163706493Y-86094865D01*
X163671346Y-86130012D01*
X163621640Y-86130012D01*
X161271346Y-86130012D01*
X161221640Y-86130012D01*
X161186493Y-86094865D01*
X161186493Y-86045159D01*
X161186493Y-85111583D01*
X161276493Y-85111583D01*
X161276494Y-85678440D01*
X161277312Y-85695100D01*
X161279759Y-85711601D01*
X161292087Y-85773586D01*
X161296141Y-85789770D01*
X161301761Y-85805479D01*
X161306493Y-85815483D01*
X161306493Y-86010012D01*
X161501021Y-86010012D01*
X161511024Y-86014742D01*
X161526732Y-86020363D01*
X161542915Y-86024416D01*
X161604899Y-86036745D01*
X161621401Y-86039193D01*
X161638064Y-86040011D01*
X162104921Y-86040010D01*
X162121582Y-86039192D01*
X162138082Y-86036745D01*
X162200067Y-86024417D01*
X162216251Y-86020363D01*
X162231960Y-86014743D01*
X162241964Y-86010012D01*
X162651021Y-86010012D01*
X162661024Y-86014742D01*
X162676732Y-86020363D01*
X162692915Y-86024416D01*
X162754899Y-86036745D01*
X162771401Y-86039193D01*
X162788064Y-86040011D01*
X163254921Y-86040010D01*
X163271582Y-86039192D01*
X163288082Y-86036745D01*
X163350067Y-86024417D01*
X163366251Y-86020363D01*
X163381960Y-86014743D01*
X163391964Y-86010012D01*
X163586493Y-86010012D01*
X163586493Y-85815483D01*
X163591223Y-85805480D01*
X163596844Y-85789772D01*
X163600897Y-85773589D01*
X163613226Y-85711605D01*
X163615674Y-85695103D01*
X163616492Y-85678440D01*
X163616491Y-85111583D01*
X163615673Y-85094923D01*
X163613226Y-85078422D01*
X163600898Y-85016437D01*
X163596844Y-85000253D01*
X163591224Y-84984544D01*
X163586493Y-84974540D01*
X163586493Y-84365483D01*
X163591223Y-84355480D01*
X163596844Y-84339772D01*
X163600897Y-84323589D01*
X163613226Y-84261605D01*
X163615674Y-84245103D01*
X163616492Y-84228440D01*
X163616491Y-83661583D01*
X163615673Y-83644923D01*
X163613226Y-83628422D01*
X163600898Y-83566437D01*
X163596844Y-83550253D01*
X163591224Y-83534544D01*
X163586493Y-83524540D01*
X163586493Y-83330012D01*
X163391964Y-83330012D01*
X163381961Y-83325281D01*
X163366253Y-83319660D01*
X163350070Y-83315607D01*
X163288086Y-83303278D01*
X163271584Y-83300830D01*
X163254921Y-83300012D01*
X162788064Y-83300013D01*
X162771403Y-83300831D01*
X162754903Y-83303278D01*
X162692918Y-83315606D01*
X162676734Y-83319660D01*
X162661025Y-83325280D01*
X162651021Y-83330012D01*
X162241964Y-83330012D01*
X162231961Y-83325281D01*
X162216253Y-83319660D01*
X162200070Y-83315607D01*
X162138086Y-83303278D01*
X162121584Y-83300830D01*
X162104921Y-83300012D01*
X161638064Y-83300013D01*
X161621403Y-83300831D01*
X161604903Y-83303278D01*
X161542918Y-83315606D01*
X161526734Y-83319660D01*
X161511025Y-83325280D01*
X161501021Y-83330012D01*
X161306493Y-83330012D01*
X161306493Y-83524540D01*
X161301762Y-83534543D01*
X161296141Y-83550251D01*
X161292088Y-83566434D01*
X161279759Y-83628418D01*
X161277311Y-83644920D01*
X161276493Y-83661583D01*
X161276494Y-84228440D01*
X161277312Y-84245100D01*
X161279759Y-84261601D01*
X161292087Y-84323586D01*
X161296141Y-84339770D01*
X161301761Y-84355479D01*
X161306493Y-84365483D01*
X161306493Y-84974540D01*
X161301762Y-84984543D01*
X161296141Y-85000251D01*
X161292088Y-85016434D01*
X161279759Y-85078418D01*
X161277311Y-85094920D01*
X161276493Y-85111583D01*
X161186493Y-85111583D01*
X161186493Y-83661583D01*
X161186493Y-83294865D01*
X161186493Y-83245159D01*
X161221640Y-83210012D01*
X161271346Y-83210012D01*
X163621640Y-83210012D01*
X163671346Y-83210012D01*
X163706493Y-83245159D01*
G37*
%TO.C,C14*%
D12*
X152462080Y-102510000D02*
X152180920Y-102510000D01*
X152462080Y-103530000D02*
X152180920Y-103530000D01*
D10*
%TO.C,C1*%
G36*
X160727494Y-91559359D02*
G01*
X160736071Y-91573669D01*
X160767013Y-91619979D01*
X160776952Y-91633380D01*
X160788156Y-91645743D01*
X160800519Y-91656947D01*
X160811498Y-91665090D01*
X160801989Y-91674600D01*
X160536611Y-91674600D01*
X160527101Y-91665090D01*
X160538080Y-91656947D01*
X160550443Y-91645743D01*
X160561647Y-91633380D01*
X160571586Y-91619979D01*
X160602528Y-91573669D01*
X160611104Y-91559360D01*
X160613356Y-91554600D01*
X160725243Y-91554600D01*
X160727494Y-91559359D01*
G37*
G36*
X160811498Y-90844109D02*
G01*
X160800519Y-90852252D01*
X160788156Y-90863456D01*
X160776952Y-90875819D01*
X160767013Y-90889220D01*
X160736071Y-90935530D01*
X160727495Y-90949839D01*
X160725243Y-90954600D01*
X160613356Y-90954600D01*
X160611105Y-90949840D01*
X160602528Y-90935530D01*
X160571586Y-90889220D01*
X160561647Y-90875819D01*
X160550443Y-90863456D01*
X160538080Y-90852252D01*
X160527101Y-90844109D01*
X160536611Y-90834600D01*
X160801989Y-90834600D01*
X160811498Y-90844109D01*
G37*
%TO.C,J1*%
D12*
X137240001Y-77179197D02*
X138570001Y-77179197D01*
X137240001Y-78509197D02*
X137240001Y-77179197D01*
X139840001Y-77179197D02*
X162760001Y-77179197D01*
X139840001Y-79839197D02*
X139840001Y-77179197D01*
X139840001Y-79839197D02*
X162760001Y-79839197D01*
X162760001Y-79839197D02*
X162760001Y-77179197D01*
D10*
%TO.C,C9*%
G36*
X155793752Y-105938580D02*
G01*
X155804956Y-105950943D01*
X155817319Y-105962147D01*
X155830720Y-105972086D01*
X155877030Y-106003028D01*
X155891339Y-106011604D01*
X155896100Y-106013856D01*
X155896100Y-106125743D01*
X155891340Y-106127994D01*
X155877030Y-106136571D01*
X155830720Y-106167513D01*
X155817319Y-106177452D01*
X155804956Y-106188656D01*
X155793752Y-106201019D01*
X155785609Y-106211998D01*
X155776100Y-106202489D01*
X155776100Y-105937111D01*
X155785609Y-105927601D01*
X155793752Y-105938580D01*
G37*
G36*
X156616100Y-105937111D02*
G01*
X156616100Y-106202489D01*
X156606590Y-106211998D01*
X156598447Y-106201019D01*
X156587243Y-106188656D01*
X156574880Y-106177452D01*
X156561479Y-106167513D01*
X156515169Y-106136571D01*
X156500860Y-106127995D01*
X156496100Y-106125743D01*
X156496100Y-106013856D01*
X156500859Y-106011605D01*
X156515169Y-106003028D01*
X156561479Y-105972086D01*
X156574880Y-105962147D01*
X156587243Y-105950943D01*
X156598447Y-105938580D01*
X156606590Y-105927601D01*
X156616100Y-105937111D01*
G37*
%TO.C,L7*%
D12*
X158657322Y-83517800D02*
X157858078Y-83517800D01*
X158657322Y-84637800D02*
X157858078Y-84637800D01*
%TO.C,C31*%
X141590500Y-101909420D02*
X141590500Y-102190580D01*
X142610500Y-101909420D02*
X142610500Y-102190580D01*
%TO.C,R7*%
X141563242Y-81477500D02*
X142037758Y-81477500D01*
X141563242Y-82522500D02*
X142037758Y-82522500D01*
D10*
%TO.C,C7*%
G36*
X158891694Y-103623959D02*
G01*
X158900271Y-103638269D01*
X158931213Y-103684579D01*
X158941152Y-103697980D01*
X158952356Y-103710343D01*
X158964719Y-103721547D01*
X158975698Y-103729690D01*
X158966189Y-103739200D01*
X158700811Y-103739200D01*
X158691301Y-103729690D01*
X158702280Y-103721547D01*
X158714643Y-103710343D01*
X158725847Y-103697980D01*
X158735786Y-103684579D01*
X158766728Y-103638269D01*
X158775304Y-103623960D01*
X158777556Y-103619200D01*
X158889443Y-103619200D01*
X158891694Y-103623959D01*
G37*
G36*
X158975698Y-102908709D02*
G01*
X158964719Y-102916852D01*
X158952356Y-102928056D01*
X158941152Y-102940419D01*
X158931213Y-102953820D01*
X158900271Y-103000130D01*
X158891695Y-103014439D01*
X158889443Y-103019200D01*
X158777556Y-103019200D01*
X158775305Y-103014440D01*
X158766728Y-103000130D01*
X158735786Y-102953820D01*
X158725847Y-102940419D01*
X158714643Y-102928056D01*
X158702280Y-102916852D01*
X158691301Y-102908709D01*
X158700811Y-102899200D01*
X158966189Y-102899200D01*
X158975698Y-102908709D01*
G37*
%TO.C,C35*%
D12*
X149934920Y-85790000D02*
X150216080Y-85790000D01*
X149934920Y-86810000D02*
X150216080Y-86810000D01*
%TO.C,C34*%
X137541080Y-84290000D02*
X137259920Y-84290000D01*
X137541080Y-85310000D02*
X137259920Y-85310000D01*
%TO.C,TP1*%
X156682903Y-91864199D02*
X156682903Y-92727799D01*
X156784503Y-95013799D02*
X156784503Y-92889799D01*
X157546503Y-91864199D02*
X156682903Y-91864199D01*
X157800503Y-95013799D02*
X156784503Y-95013799D01*
X159984903Y-91965799D02*
X158918103Y-91965799D01*
X159984903Y-91965799D02*
X159984903Y-95013799D01*
X159984903Y-95013799D02*
X158918103Y-95013799D01*
%TO.C,C37*%
X149859920Y-98040000D02*
X150141080Y-98040000D01*
X149859920Y-99060000D02*
X150141080Y-99060000D01*
%TO.C,R1*%
X137637758Y-82777500D02*
X137163242Y-82777500D01*
X137637758Y-83822500D02*
X137163242Y-83822500D01*
%TD*%
%LPC*%
D14*
%TO.C,C18*%
X155666900Y-84243200D03*
X155666900Y-82693200D03*
%TD*%
D15*
%TO.C,C32*%
X139100500Y-101275000D03*
X139100500Y-102825000D03*
%TD*%
D16*
%TO.C,R6*%
X139400500Y-83810000D03*
X139400500Y-82790000D03*
%TD*%
D15*
%TO.C,C15*%
X160371100Y-105194800D03*
X160371100Y-106744800D03*
%TD*%
D17*
%TO.C,C36*%
X138175500Y-86300000D03*
X136625500Y-86300000D03*
%TD*%
D18*
%TO.C,L3*%
X158366100Y-96642400D03*
X158366100Y-97612400D03*
%TD*%
D19*
%TO.C,R8*%
X140975500Y-83500000D03*
X142625500Y-83500000D03*
%TD*%
D15*
%TO.C,C33*%
X140600500Y-101275000D03*
X140600500Y-102825000D03*
%TD*%
D20*
%TO.C,C6*%
X158397500Y-99486400D03*
X158397500Y-100446400D03*
%TD*%
D21*
%TO.C,U1*%
X138185000Y-88543000D03*
X138185000Y-89043000D03*
X138185000Y-89543000D03*
X138185000Y-90043000D03*
X138185000Y-90543000D03*
X138185000Y-91043000D03*
X138185000Y-91543000D03*
X138185000Y-92043000D03*
X138185000Y-92543000D03*
X138185000Y-93043000D03*
X138185000Y-93543000D03*
X138185000Y-94043000D03*
X138185000Y-94543000D03*
X138185000Y-95043000D03*
X138185000Y-95543000D03*
X138185000Y-96043000D03*
D22*
X140110000Y-97968000D03*
X140610000Y-97968000D03*
X141110000Y-97968000D03*
X141610000Y-97968000D03*
X142110000Y-97968000D03*
X142610000Y-97968000D03*
X143110000Y-97968000D03*
X143610000Y-97968000D03*
X144110000Y-97968000D03*
X144610000Y-97968000D03*
X145110000Y-97968000D03*
X145610000Y-97968000D03*
X146110000Y-97968000D03*
X146610000Y-97968000D03*
X147110000Y-97968000D03*
X147610000Y-97968000D03*
D21*
X149535000Y-96043000D03*
X149535000Y-95543000D03*
X149535000Y-95043000D03*
X149535000Y-94543000D03*
X149535000Y-94043000D03*
X149535000Y-93543000D03*
X149535000Y-93043000D03*
X149535000Y-92543000D03*
X149535000Y-92043000D03*
X149535000Y-91543000D03*
X149535000Y-91043000D03*
X149535000Y-90543000D03*
X149535000Y-90043000D03*
X149535000Y-89543000D03*
X149535000Y-89043000D03*
X149535000Y-88543000D03*
D22*
X147610000Y-86618000D03*
X147110000Y-86618000D03*
X146610000Y-86618000D03*
X146110000Y-86618000D03*
X145610000Y-86618000D03*
X145110000Y-86618000D03*
X144610000Y-86618000D03*
X144110000Y-86618000D03*
X143610000Y-86618000D03*
X143110000Y-86618000D03*
X142610000Y-86618000D03*
X142110000Y-86618000D03*
X141610000Y-86618000D03*
X141110000Y-86618000D03*
X140610000Y-86618000D03*
X140110000Y-86618000D03*
%TD*%
D19*
%TO.C,R4*%
X151496500Y-101520000D03*
X153146500Y-101520000D03*
%TD*%
D23*
%TO.C,C5*%
X158353500Y-98544000D03*
X159313500Y-98544000D03*
%TD*%
D20*
%TO.C,C8*%
X157179300Y-105589800D03*
X157179300Y-106549800D03*
%TD*%
D24*
%TO.C,U2*%
X158646800Y-89249800D03*
X158646800Y-88749800D03*
X158646800Y-88249800D03*
X158646800Y-87749800D03*
X158646800Y-87249800D03*
X158646800Y-86749800D03*
D25*
X157959300Y-86062300D03*
X157459300Y-86062300D03*
X156959300Y-86062300D03*
X156459300Y-86062300D03*
X155959300Y-86062300D03*
X155459300Y-86062300D03*
D24*
X154771800Y-86749800D03*
X154771800Y-87249800D03*
X154771800Y-87749800D03*
X154771800Y-88249800D03*
X154771800Y-88749800D03*
X154771800Y-89249800D03*
D25*
X155459300Y-89937300D03*
X155959300Y-89937300D03*
X156459300Y-89937300D03*
X156959300Y-89937300D03*
X157459300Y-89937300D03*
X157959300Y-89937300D03*
D26*
X156709300Y-87999800D03*
%TD*%
D27*
%TO.C,L5*%
X155264300Y-106569800D03*
X154294300Y-106569800D03*
%TD*%
D28*
%TO.C,J3*%
X161430011Y-111490799D03*
D29*
X158890011Y-111490799D03*
X156350011Y-111490799D03*
X153810011Y-111490799D03*
X151270011Y-111490799D03*
X148730011Y-111490799D03*
X146190011Y-111490799D03*
X143650011Y-111490799D03*
X141110011Y-111490799D03*
X138570011Y-111490799D03*
%TD*%
D30*
%TO.C,C16*%
X161623900Y-89100000D03*
X163173900Y-89100000D03*
%TD*%
D28*
%TO.C,J4*%
X133509201Y-106429999D03*
D29*
X133509201Y-103889999D03*
X133509201Y-101349999D03*
X133509201Y-98809999D03*
X133509201Y-96269999D03*
X133509201Y-93729999D03*
X133509201Y-91189999D03*
X133509201Y-88649999D03*
X133509201Y-86109999D03*
X133509201Y-83569999D03*
%TD*%
D23*
%TO.C,C2*%
X160187500Y-95670000D03*
X161147500Y-95670000D03*
%TD*%
D17*
%TO.C,C17*%
X159318700Y-82401400D03*
X157768700Y-82401400D03*
%TD*%
D31*
%TO.C,U5*%
X157578000Y-104313000D03*
D32*
X157178000Y-104313000D03*
X156778000Y-104313000D03*
X156778000Y-104713000D03*
X157178000Y-104713000D03*
D33*
X157578000Y-104713000D03*
%TD*%
D34*
%TO.C,H2*%
X133500000Y-78500000D03*
%TD*%
D35*
%TO.C,C10*%
X153379300Y-106549800D03*
X153379300Y-105589800D03*
%TD*%
D20*
%TO.C,C4*%
X159426100Y-96644400D03*
X159426100Y-97604400D03*
%TD*%
D18*
%TO.C,L4*%
X158407500Y-101361000D03*
X158407500Y-102331000D03*
%TD*%
D36*
%TO.C,J6*%
X151829300Y-106569800D03*
D37*
X150304300Y-108044800D03*
X150304300Y-105094800D03*
%TD*%
D28*
%TO.C,J2*%
X166490803Y-83569989D03*
D29*
X166490803Y-86109989D03*
X166490803Y-88649989D03*
X166490803Y-91189989D03*
X166490803Y-93729989D03*
X166490803Y-96269989D03*
X166490803Y-98809989D03*
X166490803Y-101349989D03*
X166490803Y-103889989D03*
X166490803Y-106429989D03*
%TD*%
D38*
%TO.C,R3*%
X161879300Y-106794800D03*
X161879300Y-105144800D03*
%TD*%
D34*
%TO.C,H1*%
X133500000Y-111500000D03*
%TD*%
D20*
%TO.C,C12*%
X155000500Y-93323400D03*
X155000500Y-94283400D03*
%TD*%
%TO.C,C11*%
X155990500Y-93323400D03*
X155990500Y-94283400D03*
%TD*%
D38*
%TO.C,R2*%
X137550500Y-102875000D03*
X137550500Y-101225000D03*
%TD*%
D14*
%TO.C,C3*%
X154092100Y-84243200D03*
X154092100Y-82693200D03*
%TD*%
D39*
%TO.C,X2*%
X161871493Y-83945012D03*
X161871493Y-85395012D03*
X163021493Y-85395012D03*
X163021493Y-83945012D03*
%TD*%
D17*
%TO.C,C14*%
X153096500Y-103020000D03*
X151546500Y-103020000D03*
%TD*%
D23*
%TO.C,C1*%
X160189300Y-91254600D03*
X161149300Y-91254600D03*
%TD*%
D28*
%TO.C,J1*%
X138570001Y-78509197D03*
D29*
X141110001Y-78509197D03*
X143650001Y-78509197D03*
X146190001Y-78509197D03*
X148730001Y-78509197D03*
X151270001Y-78509197D03*
X153810001Y-78509197D03*
X156350001Y-78509197D03*
X158890001Y-78509197D03*
X161430001Y-78509197D03*
%TD*%
D27*
%TO.C,L6*%
X156075500Y-92276400D03*
X155105500Y-92276400D03*
%TD*%
D35*
%TO.C,C9*%
X156196100Y-106549800D03*
X156196100Y-105589800D03*
%TD*%
D40*
%TO.C,L7*%
X159320200Y-84077800D03*
X157195200Y-84077800D03*
%TD*%
D15*
%TO.C,C31*%
X142100500Y-101275000D03*
X142100500Y-102825000D03*
%TD*%
D19*
%TO.C,R7*%
X140975500Y-82000000D03*
X142625500Y-82000000D03*
%TD*%
D23*
%TO.C,C7*%
X158353500Y-103319200D03*
X159313500Y-103319200D03*
%TD*%
D30*
%TO.C,C35*%
X149300500Y-86300000D03*
X150850500Y-86300000D03*
%TD*%
D27*
%TO.C,L1*%
X159292500Y-95683000D03*
X158322500Y-95683000D03*
%TD*%
D17*
%TO.C,C34*%
X138175500Y-84800000D03*
X136625500Y-84800000D03*
%TD*%
D34*
%TO.C,H3*%
X166500000Y-78500000D03*
%TD*%
%TO.C,H4*%
X166500000Y-111500000D03*
%TD*%
D41*
%TO.C,TP1*%
X159174303Y-93489799D03*
D42*
X157544303Y-93489799D03*
D43*
X158359303Y-92529799D03*
X158359303Y-94449799D03*
%TD*%
D30*
%TO.C,C37*%
X149225500Y-98550000D03*
X150775500Y-98550000D03*
%TD*%
D44*
%TO.C,R1*%
X138225500Y-83300000D03*
X136575500Y-83300000D03*
%TD*%
%LPD*%
D45*
X130000000Y-76000000D02*
G75*
G02*
X131000000Y-75000000I1000000J0D01*
G01*
X130000000Y-80000000D02*
X130000000Y-76000000D01*
X130000000Y-110000000D02*
X131000000Y-108000000D01*
X130000000Y-114000000D02*
X130000000Y-110000000D01*
X131000000Y-75000000D02*
X135000000Y-75000000D01*
X131000000Y-82000000D02*
X130000000Y-80000000D01*
X131000000Y-108000000D02*
X131000000Y-82000000D01*
X131000000Y-115000000D02*
G75*
G02*
X130000000Y-114000000I0J1000000D01*
G01*
X135000000Y-75000000D02*
X137000000Y-76000000D01*
X135000000Y-115000000D02*
X131001000Y-115000000D01*
X137000000Y-76000000D02*
X150000000Y-76000000D01*
X137001000Y-114000000D02*
X135000000Y-115000000D01*
X150000000Y-76000000D02*
X163000000Y-76000000D01*
X163000000Y-76000000D02*
X165000000Y-75000000D01*
D46*
X163000500Y-114000000D02*
X137001000Y-114000000D01*
D45*
X165000000Y-75000000D02*
X169000000Y-75000000D01*
D46*
X165001000Y-115000000D02*
X163000500Y-114000000D01*
D45*
X169000000Y-75000000D02*
G75*
G02*
X170001000Y-76000000I0J-1001000D01*
G01*
D46*
X169000000Y-82000000D02*
X169001000Y-108000000D01*
X169001000Y-108000000D02*
X170001000Y-110000000D01*
X169001000Y-115001000D02*
X165001000Y-115000000D01*
D45*
X170001000Y-76000000D02*
X170001000Y-80000000D01*
X170001000Y-80000000D02*
X169001000Y-82000000D01*
D46*
X170001000Y-110000000D02*
X170001500Y-114000000D01*
X170001500Y-114000000D02*
G75*
G02*
X169001000Y-115001000I-1000800J-200D01*
G01*
M02*
