M48
; DRILL file KiCad 10.0.5 date 2026-10-02T22:32:06
; FORMAT={-:-/ absolute / metric / decimal}
; #@! TF.CreationDate,2026-10-02T22:32:06-03:00
; #@! TF.GenerationSoftware,Kicad,Pcbnew,10.0.5
; #@! TF.FileFunction,Plated,1,4,PTH
FMAT,2
METRIC
; #@! TA.AperFunction,Plated,PTH,ViaDrill
T1C0.300
; #@! TA.AperFunction,Plated,PTH,ComponentDrill
T2C1.000
; #@! TA.AperFunction,Plated,PTH,ComponentDrill
T3C3.200
%
G90
G05
T1
X135.1Y-96.95
X135.451Y-91.05
X135.639Y-86.298
X135.907Y-92.043
X136.15Y-105.85
X136.201Y-93.7
X136.201Y-95.5
X136.201Y-96.6
X136.201Y-107.2
X136.5Y-88.6
X136.5Y-89.5
X136.5Y-90.3
X136.576Y-81.8
X137.55Y-103.775
X137.9Y-80.65
X138.175Y-82.275
X139.701Y-88.3
X139.85Y-100.15
X140.701Y-96.2
X141.0Y-81.1
X141.3Y-88.3
X141.4Y-99.5
X141.701Y-104.2
X141.701Y-105.0
X142.3Y-100.4
X142.3Y-99.5
X142.9Y-101.275
X143.0Y-88.3
X143.05Y-102.5
X143.132Y-96.2
X144.0Y-85.1
X144.9Y-85.1
X144.9Y-109.6
X145.138Y-88.305
X145.3Y-94.2
X145.4Y-102.5
X145.65Y-89.65
X145.701Y-104.2
X145.701Y-105.0
X145.75Y-80.7
X146.0Y-96.2
X146.3Y-109.0
X146.8Y-99.5
X147.0Y-88.3
X147.0Y-89.8
X147.1Y-92.2
X147.125Y-85.1
X147.6Y-109.6
X147.8Y-104.3
X147.9Y-94.9
X148.07Y-84.19
X148.1Y-85.1
X148.201Y-96.9
X148.701Y-80.3
X148.923Y-81.475
X149.225Y-99.3
X149.3Y-85.4
X149.35Y-109.4
X149.65Y-97.1
X150.451Y-109.4
X150.58Y-101.52
X151.2Y-89.5
X151.201Y-88.7
X151.201Y-90.4
X151.201Y-91.543
X151.438Y-81.472
X151.5Y-109.4
X151.701Y-93.7
X151.701Y-94.543
X151.9Y-98.2
X152.4Y-109.4
X152.675Y-94.543
X152.8Y-96.6
X152.8Y-98.2
X153.201Y-84.243
X153.201Y-86.1
X153.55Y-100.0
X153.557Y-98.857
X153.6Y-95.7
X153.6Y-96.6
X154.8Y-91.2
X155.15Y-99.15
X155.15Y-100.65
X155.15Y-102.15
X155.15Y-103.45
X155.201Y-95.45
X155.701Y-87.0
X155.701Y-88.0
X155.701Y-89.0
X155.908Y-80.964
X156.6Y-107.45
X156.6Y-108.4
X156.6Y-109.4
X156.701Y-87.0
X156.701Y-88.0
X156.701Y-89.0
X157.05Y-98.15
X157.1Y-95.25
X157.1Y-96.4
X157.4Y-99.3
X157.45Y-100.4
X157.5Y-101.5
X157.5Y-102.75
X157.701Y-87.0
X157.701Y-88.0
X157.701Y-89.0
X157.94Y-80.964
X158.3Y-84.9
X159.3Y-91.3
X159.4Y-99.45
X159.4Y-100.35
X159.4Y-101.2
X159.6Y-86.0
X159.65Y-87.15
X159.8Y-81.1
X160.3Y-89.95
X160.35Y-96.55
X160.35Y-97.6
X161.1Y-84.6
X161.15Y-93.05
X161.15Y-94.4
X161.624Y-89.99
X162.69Y-102.4
X162.8Y-106.8
X164.3Y-86.1
X164.493Y-87.847
X164.9Y-83.57
T2
X133.509Y-83.57
X133.509Y-86.11
X133.509Y-88.65
X133.509Y-91.19
X133.509Y-93.73
X133.509Y-96.27
X133.509Y-98.81
X133.509Y-101.35
X133.509Y-103.89
X133.509Y-106.43
X138.57Y-78.509
X138.57Y-111.491
X141.11Y-78.509
X141.11Y-111.491
X143.65Y-78.509
X143.65Y-111.491
X146.19Y-78.509
X146.19Y-111.491
X148.73Y-78.509
X148.73Y-111.491
X151.27Y-78.509
X151.27Y-111.491
X153.81Y-78.509
X153.81Y-111.491
X156.35Y-78.509
X156.35Y-111.491
X158.89Y-78.509
X158.89Y-111.491
X161.43Y-78.509
X161.43Y-111.491
X166.491Y-83.57
X166.491Y-86.11
X166.491Y-88.65
X166.491Y-91.19
X166.491Y-93.73
X166.491Y-96.27
X166.491Y-98.81
X166.491Y-101.35
X166.491Y-103.89
X166.491Y-106.43
T3
X133.5Y-78.5
X133.5Y-111.5
X166.5Y-78.5
X166.5Y-111.5
M30
