%TF.GenerationSoftware,KiCad,Pcbnew,10.0.5*%
%TF.CreationDate,2026-10-02T22:32:33-03:00*%
%TF.ProjectId,pq_obc_comms,70715f6f-6263-45f6-936f-6d6d732e6b69,2.0*%
%TF.SameCoordinates,Original*%
%TF.FileFunction,Paste,Bot*%
%TF.FilePolarity,Positive*%
%FSLAX46Y46*%
G04 Gerber Fmt 4.6, Leading zero omitted, Abs format (unit mm)*
G04 Created by KiCad (PCBNEW 10.0.5) date 2026-10-02 22:32:33*
%MOMM*%
%LPD*%
G01*
G04 APERTURE LIST*
G04 Aperture macros list*
%AMRoundRect*
0 Rectangle with rounded corners*
0 $1 Rounding radius*
0 $2 $3 $4 $5 $6 $7 $8 $9 X,Y pos of 4 corners*
0 Add a 4 corners polygon primitive as box body*
4,1,4,$2,$3,$4,$5,$6,$7,$8,$9,$2,$3,0*
0 Add four circle primitives for the rounded corners*
1,1,$1+$1,$2,$3*
1,1,$1+$1,$4,$5*
1,1,$1+$1,$6,$7*
1,1,$1+$1,$8,$9*
0 Add four rect primitives between the rounded corners*
20,1,$1+$1,$2,$3,$4,$5,0*
20,1,$1+$1,$4,$5,$6,$7,0*
20,1,$1+$1,$6,$7,$8,$9,0*
20,1,$1+$1,$8,$9,$2,$3,0*%
G04 Aperture macros list end*
%ADD10RoundRect,0.225000X0.250000X-0.225000X0.250000X0.225000X-0.250000X0.225000X-0.250000X-0.225000X0*%
%ADD11RoundRect,0.150000X-0.150000X0.512500X-0.150000X-0.512500X0.150000X-0.512500X0.150000X0.512500X0*%
%ADD12RoundRect,0.250000X-0.450000X-0.800000X0.450000X-0.800000X0.450000X0.800000X-0.450000X0.800000X0*%
%ADD13RoundRect,0.275000X-0.275000X-0.675000X0.275000X-0.675000X0.275000X0.675000X-0.275000X0.675000X0*%
%ADD14RoundRect,0.225000X-0.225000X-0.250000X0.225000X-0.250000X0.225000X0.250000X-0.225000X0.250000X0*%
%ADD15RoundRect,0.275000X-0.375000X-0.275000X0.375000X-0.275000X0.375000X0.275000X-0.375000X0.275000X0*%
%ADD16RoundRect,0.225000X-0.250000X0.225000X-0.250000X-0.225000X0.250000X-0.225000X0.250000X0.225000X0*%
%ADD17RoundRect,0.250000X-0.800000X0.450000X-0.800000X-0.450000X0.800000X-0.450000X0.800000X0.450000X0*%
%ADD18RoundRect,0.225000X0.225000X0.250000X-0.225000X0.250000X-0.225000X-0.250000X0.225000X-0.250000X0*%
%ADD19RoundRect,0.150000X-0.512500X-0.150000X0.512500X-0.150000X0.512500X0.150000X-0.512500X0.150000X0*%
%TA.AperFunction,Profile*%
%ADD20C,0.250000*%
%TD*%
%TA.AperFunction,Profile*%
%ADD21C,0.200000*%
%TD*%
G04 APERTURE END LIST*
D10*
%TO.C,C39*%
X142700500Y-84675000D03*
X142700500Y-83125000D03*
%TD*%
%TO.C,C41*%
X144307500Y-91715000D03*
X144307500Y-90165000D03*
%TD*%
D11*
%TO.C,U7*%
X157910000Y-105955500D03*
X158860000Y-105955500D03*
X159810000Y-105955500D03*
X159810000Y-108230500D03*
X157910000Y-108230500D03*
%TD*%
D12*
%TO.C,D1*%
X157000500Y-81799990D03*
X161400500Y-81799990D03*
%TD*%
D13*
%TO.C,X3*%
X137830499Y-84700010D03*
X141230499Y-84700010D03*
%TD*%
D14*
%TO.C,C43*%
X157885000Y-104293000D03*
X159435000Y-104293000D03*
%TD*%
D11*
%TO.C,U4*%
X153410000Y-105955500D03*
X154360000Y-105955500D03*
X155310000Y-105955500D03*
X155310000Y-108230500D03*
X153410000Y-108230500D03*
%TD*%
%TO.C,U3*%
X148710000Y-105955500D03*
X149660000Y-105955500D03*
X150610000Y-105955500D03*
X150610000Y-108230500D03*
X148710000Y-108230500D03*
%TD*%
D15*
%TO.C,X1*%
X140236200Y-90111400D03*
X142536200Y-90111400D03*
X142536200Y-91911400D03*
X140236200Y-91911400D03*
%TD*%
D16*
%TO.C,C40*%
X138550500Y-90195000D03*
X138550500Y-91745000D03*
%TD*%
D14*
%TO.C,C44*%
X153385000Y-104293000D03*
X154935000Y-104293000D03*
%TD*%
D17*
%TO.C,D2*%
X143660001Y-103800000D03*
X143660001Y-108200000D03*
%TD*%
D18*
%TO.C,C45*%
X150235000Y-104293000D03*
X148685000Y-104293000D03*
%TD*%
D16*
%TO.C,C13*%
X161000500Y-102425000D03*
X161000500Y-103975000D03*
%TD*%
%TO.C,C42*%
X137850500Y-97375000D03*
X137850500Y-98925000D03*
%TD*%
D19*
%TO.C,U6*%
X161163000Y-100950000D03*
X161163000Y-100000000D03*
X161163000Y-99050000D03*
X163438000Y-99050000D03*
X163438000Y-100950000D03*
%TD*%
D10*
%TO.C,C38*%
X136400500Y-84675000D03*
X136400500Y-83125000D03*
%TD*%
D20*
X130000000Y-76000000D02*
G75*
G02*
X131000000Y-75000000I1000000J0D01*
G01*
X130000000Y-80000000D02*
X130000000Y-76000000D01*
X130000000Y-110000000D02*
X131000000Y-108000000D01*
X130000000Y-114000000D02*
X130000000Y-110000000D01*
X131000000Y-75000000D02*
X135000000Y-75000000D01*
X131000000Y-82000000D02*
X130000000Y-80000000D01*
X131000000Y-108000000D02*
X131000000Y-82000000D01*
X131000000Y-115000000D02*
G75*
G02*
X130000000Y-114000000I0J1000000D01*
G01*
X135000000Y-75000000D02*
X137000000Y-76000000D01*
X135000000Y-115000000D02*
X131001000Y-115000000D01*
X137000000Y-76000000D02*
X150000000Y-76000000D01*
X137001000Y-114000000D02*
X135000000Y-115000000D01*
X150000000Y-76000000D02*
X163000000Y-76000000D01*
X163000000Y-76000000D02*
X165000000Y-75000000D01*
D21*
X163000500Y-114000000D02*
X137001000Y-114000000D01*
D20*
X165000000Y-75000000D02*
X169000000Y-75000000D01*
D21*
X165001000Y-115000000D02*
X163000500Y-114000000D01*
D20*
X169000000Y-75000000D02*
G75*
G02*
X170001000Y-76000000I0J-1001000D01*
G01*
D21*
X169000000Y-82000000D02*
X169001000Y-108000000D01*
X169001000Y-108000000D02*
X170001000Y-110000000D01*
X169001000Y-115001000D02*
X165001000Y-115000000D01*
D20*
X170001000Y-76000000D02*
X170001000Y-80000000D01*
X170001000Y-80000000D02*
X169001000Y-82000000D01*
D21*
X170001000Y-110000000D02*
X170001500Y-114000000D01*
X170001500Y-114000000D02*
G75*
G02*
X169001000Y-115001000I-1000800J-200D01*
G01*
M02*
