%TF.GenerationSoftware,KiCad,Pcbnew,10.0.5*%
%TF.CreationDate,2026-10-02T22:32:33-03:00*%
%TF.ProjectId,pq_obc_comms,70715f6f-6263-45f6-936f-6d6d732e6b69,2.0*%
%TF.SameCoordinates,Original*%
%TF.FileFunction,Soldermask,Top*%
%TF.FilePolarity,Negative*%
%FSLAX46Y46*%
G04 Gerber Fmt 4.6, Leading zero omitted, Abs format (unit mm)*
G04 Created by KiCad (PCBNEW 10.0.5) date 2026-10-02 22:32:33*
%MOMM*%
%LPD*%
G01*
G04 APERTURE LIST*
G04 Aperture macros list*
%AMRoundRect*
0 Rectangle with rounded corners*
0 $1 Rounding radius*
0 $2 $3 $4 $5 $6 $7 $8 $9 X,Y pos of 4 corners*
0 Add a 4 corners polygon primitive as box body*
4,1,4,$2,$3,$4,$5,$6,$7,$8,$9,$2,$3,0*
0 Add four circle primitives for the rounded corners*
1,1,$1+$1,$2,$3*
1,1,$1+$1,$4,$5*
1,1,$1+$1,$6,$7*
1,1,$1+$1,$8,$9*
0 Add four rect primitives between the rounded corners*
20,1,$1+$1,$2,$3,$4,$5,0*
20,1,$1+$1,$4,$5,$6,$7,0*
20,1,$1+$1,$6,$7,$8,$9,0*
20,1,$1+$1,$8,$9,$2,$3,0*%
%AMFreePoly0*
4,1,10,-0.450000,0.185000,0.450000,0.185000,0.450000,0.435000,1.200000,0.435000,1.200000,-0.235000,-1.000000,-0.235000,-1.200000,-0.035000,-1.200000,0.435000,-0.450000,0.435000,-0.450000,0.185000,-0.450000,0.185000,$1*%
%AMFreePoly1*
4,1,10,-0.450000,0.185000,0.450000,0.185000,0.450000,0.435000,1.200000,0.435000,1.200000,-0.035000,1.000000,-0.235000,-1.200000,-0.235000,-1.200000,0.435000,-0.450000,0.435000,-0.450000,0.185000,-0.450000,0.185000,$1*%
G04 Aperture macros list end*
%ADD10RoundRect,0.225000X0.250000X-0.225000X0.250000X0.225000X-0.250000X0.225000X-0.250000X-0.225000X0*%
%ADD11RoundRect,0.225000X-0.250000X0.225000X-0.250000X-0.225000X0.250000X-0.225000X0.250000X0.225000X0*%
%ADD12RoundRect,0.135000X0.185000X-0.135000X0.185000X0.135000X-0.185000X0.135000X-0.185000X-0.135000X0*%
%ADD13RoundRect,0.225000X0.225000X0.250000X-0.225000X0.250000X-0.225000X-0.250000X0.225000X-0.250000X0*%
%ADD14RoundRect,0.147500X-0.172500X0.147500X-0.172500X-0.147500X0.172500X-0.147500X0.172500X0.147500X0*%
%ADD15RoundRect,0.200000X-0.200000X-0.275000X0.200000X-0.275000X0.200000X0.275000X-0.200000X0.275000X0*%
%ADD16RoundRect,0.140000X-0.170000X0.140000X-0.170000X-0.140000X0.170000X-0.140000X0.170000X0.140000X0*%
%ADD17RoundRect,0.075000X-0.700000X-0.075000X0.700000X-0.075000X0.700000X0.075000X-0.700000X0.075000X0*%
%ADD18RoundRect,0.075000X-0.075000X-0.700000X0.075000X-0.700000X0.075000X0.700000X-0.075000X0.700000X0*%
%ADD19RoundRect,0.140000X-0.140000X-0.170000X0.140000X-0.170000X0.140000X0.170000X-0.140000X0.170000X0*%
%ADD20RoundRect,0.062500X0.350000X0.062500X-0.350000X0.062500X-0.350000X-0.062500X0.350000X-0.062500X0*%
%ADD21RoundRect,0.062500X0.062500X0.350000X-0.062500X0.350000X-0.062500X-0.350000X0.062500X-0.350000X0*%
%ADD22R,2.600000X2.600000*%
%ADD23RoundRect,0.147500X0.147500X0.172500X-0.147500X0.172500X-0.147500X-0.172500X0.147500X-0.172500X0*%
%ADD24R,1.700000X1.700000*%
%ADD25O,1.700000X1.700000*%
%ADD26RoundRect,0.225000X-0.225000X-0.250000X0.225000X-0.250000X0.225000X0.250000X-0.225000X0.250000X0*%
%ADD27RoundRect,0.065000X0.065000X0.065000X-0.065000X0.065000X-0.065000X-0.065000X0.065000X-0.065000X0*%
%ADD28RoundRect,0.065000X-0.065000X0.065000X-0.065000X-0.065000X0.065000X-0.065000X0.065000X0.065000X0*%
%ADD29RoundRect,0.065000X0.065000X-0.065000X0.065000X0.065000X-0.065000X0.065000X-0.065000X-0.065000X0*%
%ADD30C,6.400000*%
%ADD31RoundRect,0.140000X0.170000X-0.140000X0.170000X0.140000X-0.170000X0.140000X-0.170000X-0.140000X0*%
%ADD32R,1.050000X1.000000*%
%ADD33R,2.200000X1.050000*%
%ADD34RoundRect,0.200000X0.275000X-0.200000X0.275000X0.200000X-0.275000X0.200000X-0.275000X-0.200000X0*%
%ADD35RoundRect,0.212500X-0.212500X0.262500X-0.212500X-0.262500X0.212500X-0.262500X0.212500X0.262500X0*%
%ADD36RoundRect,0.218750X0.218750X0.381250X-0.218750X0.381250X-0.218750X-0.381250X0.218750X-0.381250X0*%
%ADD37FreePoly0,270.000000*%
%ADD38FreePoly1,90.000000*%
%ADD39R,0.500000X0.480000*%
%ADD40RoundRect,0.200000X0.200000X0.275000X-0.200000X0.275000X-0.200000X-0.275000X0.200000X-0.275000X0*%
%TA.AperFunction,Profile*%
%ADD41C,0.250000*%
%TD*%
%TA.AperFunction,Profile*%
%ADD42C,0.200000*%
%TD*%
G04 APERTURE END LIST*
D10*
%TO.C,C18*%
X155666900Y-84243200D03*
X155666900Y-82693200D03*
%TD*%
D11*
%TO.C,C32*%
X139100500Y-101275000D03*
X139100500Y-102825000D03*
%TD*%
D12*
%TO.C,R6*%
X139400500Y-83810000D03*
X139400500Y-82790000D03*
%TD*%
D11*
%TO.C,C15*%
X160371100Y-105194800D03*
X160371100Y-106744800D03*
%TD*%
D13*
%TO.C,C36*%
X138175500Y-86300000D03*
X136625500Y-86300000D03*
%TD*%
D14*
%TO.C,L3*%
X158366100Y-96642400D03*
X158366100Y-97612400D03*
%TD*%
D15*
%TO.C,R8*%
X140975500Y-83500000D03*
X142625500Y-83500000D03*
%TD*%
D11*
%TO.C,C33*%
X140600500Y-101275000D03*
X140600500Y-102825000D03*
%TD*%
D16*
%TO.C,C6*%
X158397500Y-99486400D03*
X158397500Y-100446400D03*
%TD*%
D17*
%TO.C,U1*%
X138185000Y-88543000D03*
X138185000Y-89043000D03*
X138185000Y-89543000D03*
X138185000Y-90043000D03*
X138185000Y-90543000D03*
X138185000Y-91043000D03*
X138185000Y-91543000D03*
X138185000Y-92043000D03*
X138185000Y-92543000D03*
X138185000Y-93043000D03*
X138185000Y-93543000D03*
X138185000Y-94043000D03*
X138185000Y-94543000D03*
X138185000Y-95043000D03*
X138185000Y-95543000D03*
X138185000Y-96043000D03*
D18*
X140110000Y-97968000D03*
X140610000Y-97968000D03*
X141110000Y-97968000D03*
X141610000Y-97968000D03*
X142110000Y-97968000D03*
X142610000Y-97968000D03*
X143110000Y-97968000D03*
X143610000Y-97968000D03*
X144110000Y-97968000D03*
X144610000Y-97968000D03*
X145110000Y-97968000D03*
X145610000Y-97968000D03*
X146110000Y-97968000D03*
X146610000Y-97968000D03*
X147110000Y-97968000D03*
X147610000Y-97968000D03*
D17*
X149535000Y-96043000D03*
X149535000Y-95543000D03*
X149535000Y-95043000D03*
X149535000Y-94543000D03*
X149535000Y-94043000D03*
X149535000Y-93543000D03*
X149535000Y-93043000D03*
X149535000Y-92543000D03*
X149535000Y-92043000D03*
X149535000Y-91543000D03*
X149535000Y-91043000D03*
X149535000Y-90543000D03*
X149535000Y-90043000D03*
X149535000Y-89543000D03*
X149535000Y-89043000D03*
X149535000Y-88543000D03*
D18*
X147610000Y-86618000D03*
X147110000Y-86618000D03*
X146610000Y-86618000D03*
X146110000Y-86618000D03*
X145610000Y-86618000D03*
X145110000Y-86618000D03*
X144610000Y-86618000D03*
X144110000Y-86618000D03*
X143610000Y-86618000D03*
X143110000Y-86618000D03*
X142610000Y-86618000D03*
X142110000Y-86618000D03*
X141610000Y-86618000D03*
X141110000Y-86618000D03*
X140610000Y-86618000D03*
X140110000Y-86618000D03*
%TD*%
D15*
%TO.C,R4*%
X151496500Y-101520000D03*
X153146500Y-101520000D03*
%TD*%
D19*
%TO.C,C5*%
X158353500Y-98544000D03*
X159313500Y-98544000D03*
%TD*%
D16*
%TO.C,C8*%
X157179300Y-105589800D03*
X157179300Y-106549800D03*
%TD*%
D20*
%TO.C,U2*%
X158646800Y-89249800D03*
X158646800Y-88749800D03*
X158646800Y-88249800D03*
X158646800Y-87749800D03*
X158646800Y-87249800D03*
X158646800Y-86749800D03*
D21*
X157959300Y-86062300D03*
X157459300Y-86062300D03*
X156959300Y-86062300D03*
X156459300Y-86062300D03*
X155959300Y-86062300D03*
X155459300Y-86062300D03*
D20*
X154771800Y-86749800D03*
X154771800Y-87249800D03*
X154771800Y-87749800D03*
X154771800Y-88249800D03*
X154771800Y-88749800D03*
X154771800Y-89249800D03*
D21*
X155459300Y-89937300D03*
X155959300Y-89937300D03*
X156459300Y-89937300D03*
X156959300Y-89937300D03*
X157459300Y-89937300D03*
X157959300Y-89937300D03*
D22*
X156709300Y-87999800D03*
%TD*%
D23*
%TO.C,L5*%
X155264300Y-106569800D03*
X154294300Y-106569800D03*
%TD*%
D24*
%TO.C,J3*%
X161430011Y-111490799D03*
D25*
X158890011Y-111490799D03*
X156350011Y-111490799D03*
X153810011Y-111490799D03*
X151270011Y-111490799D03*
X148730011Y-111490799D03*
X146190011Y-111490799D03*
X143650011Y-111490799D03*
X141110011Y-111490799D03*
X138570011Y-111490799D03*
%TD*%
D26*
%TO.C,C16*%
X161623900Y-89100000D03*
X163173900Y-89100000D03*
%TD*%
D24*
%TO.C,J4*%
X133509201Y-106429999D03*
D25*
X133509201Y-103889999D03*
X133509201Y-101349999D03*
X133509201Y-98809999D03*
X133509201Y-96269999D03*
X133509201Y-93729999D03*
X133509201Y-91189999D03*
X133509201Y-88649999D03*
X133509201Y-86109999D03*
X133509201Y-83569999D03*
%TD*%
D19*
%TO.C,C2*%
X160187500Y-95670000D03*
X161147500Y-95670000D03*
%TD*%
D13*
%TO.C,C17*%
X159318700Y-82401400D03*
X157768700Y-82401400D03*
%TD*%
D27*
%TO.C,U5*%
X157578000Y-104313000D03*
D28*
X157178000Y-104313000D03*
X156778000Y-104313000D03*
X156778000Y-104713000D03*
X157178000Y-104713000D03*
D29*
X157578000Y-104713000D03*
%TD*%
D30*
%TO.C,H2*%
X133500000Y-78500000D03*
%TD*%
D31*
%TO.C,C10*%
X153379300Y-106549800D03*
X153379300Y-105589800D03*
%TD*%
D16*
%TO.C,C4*%
X159426100Y-96644400D03*
X159426100Y-97604400D03*
%TD*%
D14*
%TO.C,L4*%
X158407500Y-101361000D03*
X158407500Y-102331000D03*
%TD*%
D32*
%TO.C,J6*%
X151829300Y-106569800D03*
D33*
X150304300Y-108044800D03*
X150304300Y-105094800D03*
%TD*%
D24*
%TO.C,J2*%
X166490803Y-83569989D03*
D25*
X166490803Y-86109989D03*
X166490803Y-88649989D03*
X166490803Y-91189989D03*
X166490803Y-93729989D03*
X166490803Y-96269989D03*
X166490803Y-98809989D03*
X166490803Y-101349989D03*
X166490803Y-103889989D03*
X166490803Y-106429989D03*
%TD*%
D34*
%TO.C,R3*%
X161879300Y-106794800D03*
X161879300Y-105144800D03*
%TD*%
D30*
%TO.C,H1*%
X133500000Y-111500000D03*
%TD*%
D16*
%TO.C,C12*%
X155000500Y-93323400D03*
X155000500Y-94283400D03*
%TD*%
%TO.C,C11*%
X155990500Y-93323400D03*
X155990500Y-94283400D03*
%TD*%
D34*
%TO.C,R2*%
X137550500Y-102875000D03*
X137550500Y-101225000D03*
%TD*%
D10*
%TO.C,C3*%
X154092100Y-84243200D03*
X154092100Y-82693200D03*
%TD*%
D35*
%TO.C,X2*%
X161871493Y-83945012D03*
X161871493Y-85395012D03*
X163021493Y-85395012D03*
X163021493Y-83945012D03*
%TD*%
D13*
%TO.C,C14*%
X153096500Y-103020000D03*
X151546500Y-103020000D03*
%TD*%
D19*
%TO.C,C1*%
X160189300Y-91254600D03*
X161149300Y-91254600D03*
%TD*%
D24*
%TO.C,J1*%
X138570001Y-78509197D03*
D25*
X141110001Y-78509197D03*
X143650001Y-78509197D03*
X146190001Y-78509197D03*
X148730001Y-78509197D03*
X151270001Y-78509197D03*
X153810001Y-78509197D03*
X156350001Y-78509197D03*
X158890001Y-78509197D03*
X161430001Y-78509197D03*
%TD*%
D23*
%TO.C,L6*%
X156075500Y-92276400D03*
X155105500Y-92276400D03*
%TD*%
D31*
%TO.C,C9*%
X156196100Y-106549800D03*
X156196100Y-105589800D03*
%TD*%
D36*
%TO.C,L7*%
X159320200Y-84077800D03*
X157195200Y-84077800D03*
%TD*%
D11*
%TO.C,C31*%
X142100500Y-101275000D03*
X142100500Y-102825000D03*
%TD*%
D15*
%TO.C,R7*%
X140975500Y-82000000D03*
X142625500Y-82000000D03*
%TD*%
D19*
%TO.C,C7*%
X158353500Y-103319200D03*
X159313500Y-103319200D03*
%TD*%
D26*
%TO.C,C35*%
X149300500Y-86300000D03*
X150850500Y-86300000D03*
%TD*%
D23*
%TO.C,L1*%
X159292500Y-95683000D03*
X158322500Y-95683000D03*
%TD*%
D13*
%TO.C,C34*%
X138175500Y-84800000D03*
X136625500Y-84800000D03*
%TD*%
D30*
%TO.C,H3*%
X166500000Y-78500000D03*
%TD*%
%TO.C,H4*%
X166500000Y-111500000D03*
%TD*%
D37*
%TO.C,TP1*%
X159174303Y-93489799D03*
D38*
X157544303Y-93489799D03*
D39*
X158359303Y-92529799D03*
X158359303Y-94449799D03*
%TD*%
D26*
%TO.C,C37*%
X149225500Y-98550000D03*
X150775500Y-98550000D03*
%TD*%
D40*
%TO.C,R1*%
X138225500Y-83300000D03*
X136575500Y-83300000D03*
%TD*%
D41*
X130000000Y-76000000D02*
G75*
G02*
X131000000Y-75000000I1000000J0D01*
G01*
X130000000Y-80000000D02*
X130000000Y-76000000D01*
X130000000Y-110000000D02*
X131000000Y-108000000D01*
X130000000Y-114000000D02*
X130000000Y-110000000D01*
X131000000Y-75000000D02*
X135000000Y-75000000D01*
X131000000Y-82000000D02*
X130000000Y-80000000D01*
X131000000Y-108000000D02*
X131000000Y-82000000D01*
X131000000Y-115000000D02*
G75*
G02*
X130000000Y-114000000I0J1000000D01*
G01*
X135000000Y-75000000D02*
X137000000Y-76000000D01*
X135000000Y-115000000D02*
X131001000Y-115000000D01*
X137000000Y-76000000D02*
X150000000Y-76000000D01*
X137001000Y-114000000D02*
X135000000Y-115000000D01*
X150000000Y-76000000D02*
X163000000Y-76000000D01*
X163000000Y-76000000D02*
X165000000Y-75000000D01*
D42*
X163000500Y-114000000D02*
X137001000Y-114000000D01*
D41*
X165000000Y-75000000D02*
X169000000Y-75000000D01*
D42*
X165001000Y-115000000D02*
X163000500Y-114000000D01*
D41*
X169000000Y-75000000D02*
G75*
G02*
X170001000Y-76000000I0J-1001000D01*
G01*
D42*
X169000000Y-82000000D02*
X169001000Y-108000000D01*
X169001000Y-108000000D02*
X170001000Y-110000000D01*
X169001000Y-115001000D02*
X165001000Y-115000000D01*
D41*
X170001000Y-76000000D02*
X170001000Y-80000000D01*
X170001000Y-80000000D02*
X169001000Y-82000000D01*
D42*
X170001000Y-110000000D02*
X170001500Y-114000000D01*
X170001500Y-114000000D02*
G75*
G02*
X169001000Y-115001000I-1000800J-200D01*
G01*
M02*
