%TF.GenerationSoftware,KiCad,Pcbnew,10.0.5*%
%TF.CreationDate,2026-10-02T22:32:33-03:00*%
%TF.ProjectId,pq_obc_comms,70715f6f-6263-45f6-936f-6d6d732e6b69,2.0*%
%TF.SameCoordinates,Original*%
%TF.FileFunction,Legend,Bot*%
%TF.FilePolarity,Positive*%
%FSLAX46Y46*%
G04 Gerber Fmt 4.6, Leading zero omitted, Abs format (unit mm)*
G04 Created by KiCad (PCBNEW 10.0.5) date 2026-10-02 22:32:33*
%MOMM*%
%LPD*%
G01*
G04 APERTURE LIST*
G04 Aperture macros list*
%AMRoundRect*
0 Rectangle with rounded corners*
0 $1 Rounding radius*
0 $2 $3 $4 $5 $6 $7 $8 $9 X,Y pos of 4 corners*
0 Add a 4 corners polygon primitive as box body*
4,1,4,$2,$3,$4,$5,$6,$7,$8,$9,$2,$3,0*
0 Add four circle primitives for the rounded corners*
1,1,$1+$1,$2,$3*
1,1,$1+$1,$4,$5*
1,1,$1+$1,$6,$7*
1,1,$1+$1,$8,$9*
0 Add four rect primitives between the rounded corners*
20,1,$1+$1,$2,$3,$4,$5,0*
20,1,$1+$1,$4,$5,$6,$7,0*
20,1,$1+$1,$6,$7,$8,$9,0*
20,1,$1+$1,$8,$9,$2,$3,0*%
G04 Aperture macros list end*
%ADD10C,0.150000*%
%ADD11C,0.120000*%
%ADD12C,0.000000*%
%ADD13C,0.300000*%
%ADD14R,1.700000X1.700000*%
%ADD15O,1.700000X1.700000*%
%ADD16C,6.400000*%
%ADD17RoundRect,0.225000X0.250000X-0.225000X0.250000X0.225000X-0.250000X0.225000X-0.250000X-0.225000X0*%
%ADD18RoundRect,0.150000X-0.150000X0.512500X-0.150000X-0.512500X0.150000X-0.512500X0.150000X0.512500X0*%
%ADD19RoundRect,0.250000X-0.450000X-0.800000X0.450000X-0.800000X0.450000X0.800000X-0.450000X0.800000X0*%
%ADD20RoundRect,0.275000X-0.275000X-0.675000X0.275000X-0.675000X0.275000X0.675000X-0.275000X0.675000X0*%
%ADD21RoundRect,0.225000X-0.225000X-0.250000X0.225000X-0.250000X0.225000X0.250000X-0.225000X0.250000X0*%
%ADD22RoundRect,0.275000X-0.375000X-0.275000X0.375000X-0.275000X0.375000X0.275000X-0.375000X0.275000X0*%
%ADD23RoundRect,0.225000X-0.250000X0.225000X-0.250000X-0.225000X0.250000X-0.225000X0.250000X0.225000X0*%
%ADD24RoundRect,0.250000X-0.800000X0.450000X-0.800000X-0.450000X0.800000X-0.450000X0.800000X0.450000X0*%
%ADD25RoundRect,0.225000X0.225000X0.250000X-0.225000X0.250000X-0.225000X-0.250000X0.225000X-0.250000X0*%
%ADD26RoundRect,0.150000X-0.512500X-0.150000X0.512500X-0.150000X0.512500X0.150000X-0.512500X0.150000X0*%
%TA.AperFunction,Profile*%
%ADD27C,0.250000*%
%TD*%
%TA.AperFunction,Profile*%
%ADD28C,0.200000*%
%TD*%
G04 APERTURE END LIST*
D10*
X135000500Y-82000000D02*
X135000500Y-108000000D01*
X135000500Y-108000001D02*
G75*
G02*
X137000499Y-110000000I-1500000J-3499999D01*
G01*
X137000499Y-80000000D02*
G75*
G02*
X135000500Y-81999999I-3499999J1500000D01*
G01*
X137000500Y-80000000D02*
X163000500Y-80000000D01*
X137000500Y-110000000D02*
X163000500Y-110000000D01*
X163000501Y-110000000D02*
G75*
G02*
X165000500Y-108000001I3499999J-1500000D01*
G01*
X165000500Y-81999999D02*
G75*
G02*
X163000501Y-80000000I1500000J3499999D01*
G01*
X165000500Y-108000000D02*
X165000500Y-82000000D01*
X143265085Y-81786104D02*
X143303181Y-81824200D01*
X143303181Y-81824200D02*
X143417466Y-81862295D01*
X143417466Y-81862295D02*
X143493657Y-81862295D01*
X143493657Y-81862295D02*
X143607943Y-81824200D01*
X143607943Y-81824200D02*
X143684133Y-81748009D01*
X143684133Y-81748009D02*
X143722228Y-81671819D01*
X143722228Y-81671819D02*
X143760324Y-81519438D01*
X143760324Y-81519438D02*
X143760324Y-81405152D01*
X143760324Y-81405152D02*
X143722228Y-81252771D01*
X143722228Y-81252771D02*
X143684133Y-81176580D01*
X143684133Y-81176580D02*
X143607943Y-81100390D01*
X143607943Y-81100390D02*
X143493657Y-81062295D01*
X143493657Y-81062295D02*
X143417466Y-81062295D01*
X143417466Y-81062295D02*
X143303181Y-81100390D01*
X143303181Y-81100390D02*
X143265085Y-81138485D01*
X142998419Y-81062295D02*
X142503181Y-81062295D01*
X142503181Y-81062295D02*
X142769847Y-81367057D01*
X142769847Y-81367057D02*
X142655562Y-81367057D01*
X142655562Y-81367057D02*
X142579371Y-81405152D01*
X142579371Y-81405152D02*
X142541276Y-81443247D01*
X142541276Y-81443247D02*
X142503181Y-81519438D01*
X142503181Y-81519438D02*
X142503181Y-81709914D01*
X142503181Y-81709914D02*
X142541276Y-81786104D01*
X142541276Y-81786104D02*
X142579371Y-81824200D01*
X142579371Y-81824200D02*
X142655562Y-81862295D01*
X142655562Y-81862295D02*
X142884133Y-81862295D01*
X142884133Y-81862295D02*
X142960324Y-81824200D01*
X142960324Y-81824200D02*
X142998419Y-81786104D01*
X142122228Y-81862295D02*
X141969847Y-81862295D01*
X141969847Y-81862295D02*
X141893657Y-81824200D01*
X141893657Y-81824200D02*
X141855561Y-81786104D01*
X141855561Y-81786104D02*
X141779371Y-81671819D01*
X141779371Y-81671819D02*
X141741276Y-81519438D01*
X141741276Y-81519438D02*
X141741276Y-81214676D01*
X141741276Y-81214676D02*
X141779371Y-81138485D01*
X141779371Y-81138485D02*
X141817466Y-81100390D01*
X141817466Y-81100390D02*
X141893657Y-81062295D01*
X141893657Y-81062295D02*
X142046038Y-81062295D01*
X142046038Y-81062295D02*
X142122228Y-81100390D01*
X142122228Y-81100390D02*
X142160323Y-81138485D01*
X142160323Y-81138485D02*
X142198419Y-81214676D01*
X142198419Y-81214676D02*
X142198419Y-81405152D01*
X142198419Y-81405152D02*
X142160323Y-81481342D01*
X142160323Y-81481342D02*
X142122228Y-81519438D01*
X142122228Y-81519438D02*
X142046038Y-81557533D01*
X142046038Y-81557533D02*
X141893657Y-81557533D01*
X141893657Y-81557533D02*
X141817466Y-81519438D01*
X141817466Y-81519438D02*
X141779371Y-81481342D01*
X141779371Y-81481342D02*
X141741276Y-81405152D01*
X144941485Y-88331304D02*
X144979581Y-88369400D01*
X144979581Y-88369400D02*
X145093866Y-88407495D01*
X145093866Y-88407495D02*
X145170057Y-88407495D01*
X145170057Y-88407495D02*
X145284343Y-88369400D01*
X145284343Y-88369400D02*
X145360533Y-88293209D01*
X145360533Y-88293209D02*
X145398628Y-88217019D01*
X145398628Y-88217019D02*
X145436724Y-88064638D01*
X145436724Y-88064638D02*
X145436724Y-87950352D01*
X145436724Y-87950352D02*
X145398628Y-87797971D01*
X145398628Y-87797971D02*
X145360533Y-87721780D01*
X145360533Y-87721780D02*
X145284343Y-87645590D01*
X145284343Y-87645590D02*
X145170057Y-87607495D01*
X145170057Y-87607495D02*
X145093866Y-87607495D01*
X145093866Y-87607495D02*
X144979581Y-87645590D01*
X144979581Y-87645590D02*
X144941485Y-87683685D01*
X144255771Y-87874161D02*
X144255771Y-88407495D01*
X144446247Y-87569400D02*
X144636724Y-88140828D01*
X144636724Y-88140828D02*
X144141485Y-88140828D01*
X143417676Y-88407495D02*
X143874819Y-88407495D01*
X143646247Y-88407495D02*
X143646247Y-87607495D01*
X143646247Y-87607495D02*
X143722438Y-87721780D01*
X143722438Y-87721780D02*
X143798628Y-87797971D01*
X143798628Y-87797971D02*
X143874819Y-87836066D01*
X161422295Y-106483476D02*
X162069914Y-106483476D01*
X162069914Y-106483476D02*
X162146104Y-106521571D01*
X162146104Y-106521571D02*
X162184200Y-106559666D01*
X162184200Y-106559666D02*
X162222295Y-106635857D01*
X162222295Y-106635857D02*
X162222295Y-106788238D01*
X162222295Y-106788238D02*
X162184200Y-106864428D01*
X162184200Y-106864428D02*
X162146104Y-106902523D01*
X162146104Y-106902523D02*
X162069914Y-106940619D01*
X162069914Y-106940619D02*
X161422295Y-106940619D01*
X161422295Y-107245380D02*
X161422295Y-107778714D01*
X161422295Y-107778714D02*
X162222295Y-107435856D01*
X159800475Y-84794095D02*
X159800475Y-83994095D01*
X159800475Y-83994095D02*
X159609999Y-83994095D01*
X159609999Y-83994095D02*
X159495713Y-84032190D01*
X159495713Y-84032190D02*
X159419523Y-84108380D01*
X159419523Y-84108380D02*
X159381428Y-84184571D01*
X159381428Y-84184571D02*
X159343332Y-84336952D01*
X159343332Y-84336952D02*
X159343332Y-84451238D01*
X159343332Y-84451238D02*
X159381428Y-84603619D01*
X159381428Y-84603619D02*
X159419523Y-84679809D01*
X159419523Y-84679809D02*
X159495713Y-84756000D01*
X159495713Y-84756000D02*
X159609999Y-84794095D01*
X159609999Y-84794095D02*
X159800475Y-84794095D01*
X158581428Y-84794095D02*
X159038571Y-84794095D01*
X158809999Y-84794095D02*
X158809999Y-83994095D01*
X158809999Y-83994095D02*
X158886190Y-84108380D01*
X158886190Y-84108380D02*
X158962380Y-84184571D01*
X158962380Y-84184571D02*
X159038571Y-84222666D01*
X140147619Y-86312295D02*
X139614285Y-87112295D01*
X139614285Y-86312295D02*
X140147619Y-87112295D01*
X139385714Y-86312295D02*
X138890476Y-86312295D01*
X138890476Y-86312295D02*
X139157142Y-86617057D01*
X139157142Y-86617057D02*
X139042857Y-86617057D01*
X139042857Y-86617057D02*
X138966666Y-86655152D01*
X138966666Y-86655152D02*
X138928571Y-86693247D01*
X138928571Y-86693247D02*
X138890476Y-86769438D01*
X138890476Y-86769438D02*
X138890476Y-86959914D01*
X138890476Y-86959914D02*
X138928571Y-87036104D01*
X138928571Y-87036104D02*
X138966666Y-87074200D01*
X138966666Y-87074200D02*
X139042857Y-87112295D01*
X139042857Y-87112295D02*
X139271428Y-87112295D01*
X139271428Y-87112295D02*
X139347619Y-87074200D01*
X139347619Y-87074200D02*
X139385714Y-87036104D01*
X158924285Y-102725104D02*
X158962381Y-102763200D01*
X158962381Y-102763200D02*
X159076666Y-102801295D01*
X159076666Y-102801295D02*
X159152857Y-102801295D01*
X159152857Y-102801295D02*
X159267143Y-102763200D01*
X159267143Y-102763200D02*
X159343333Y-102687009D01*
X159343333Y-102687009D02*
X159381428Y-102610819D01*
X159381428Y-102610819D02*
X159419524Y-102458438D01*
X159419524Y-102458438D02*
X159419524Y-102344152D01*
X159419524Y-102344152D02*
X159381428Y-102191771D01*
X159381428Y-102191771D02*
X159343333Y-102115580D01*
X159343333Y-102115580D02*
X159267143Y-102039390D01*
X159267143Y-102039390D02*
X159152857Y-102001295D01*
X159152857Y-102001295D02*
X159076666Y-102001295D01*
X159076666Y-102001295D02*
X158962381Y-102039390D01*
X158962381Y-102039390D02*
X158924285Y-102077485D01*
X158238571Y-102267961D02*
X158238571Y-102801295D01*
X158429047Y-101963200D02*
X158619524Y-102534628D01*
X158619524Y-102534628D02*
X158124285Y-102534628D01*
X157895714Y-102001295D02*
X157400476Y-102001295D01*
X157400476Y-102001295D02*
X157667142Y-102306057D01*
X157667142Y-102306057D02*
X157552857Y-102306057D01*
X157552857Y-102306057D02*
X157476666Y-102344152D01*
X157476666Y-102344152D02*
X157438571Y-102382247D01*
X157438571Y-102382247D02*
X157400476Y-102458438D01*
X157400476Y-102458438D02*
X157400476Y-102648914D01*
X157400476Y-102648914D02*
X157438571Y-102725104D01*
X157438571Y-102725104D02*
X157476666Y-102763200D01*
X157476666Y-102763200D02*
X157552857Y-102801295D01*
X157552857Y-102801295D02*
X157781428Y-102801295D01*
X157781428Y-102801295D02*
X157857619Y-102763200D01*
X157857619Y-102763200D02*
X157895714Y-102725104D01*
X154609523Y-100562295D02*
X154609523Y-101209914D01*
X154609523Y-101209914D02*
X154571428Y-101286104D01*
X154571428Y-101286104D02*
X154533333Y-101324200D01*
X154533333Y-101324200D02*
X154457142Y-101362295D01*
X154457142Y-101362295D02*
X154304761Y-101362295D01*
X154304761Y-101362295D02*
X154228571Y-101324200D01*
X154228571Y-101324200D02*
X154190476Y-101286104D01*
X154190476Y-101286104D02*
X154152380Y-101209914D01*
X154152380Y-101209914D02*
X154152380Y-100562295D01*
X153428571Y-100828961D02*
X153428571Y-101362295D01*
X153619047Y-100524200D02*
X153809524Y-101095628D01*
X153809524Y-101095628D02*
X153314285Y-101095628D01*
X147135523Y-106655295D02*
X147135523Y-107302914D01*
X147135523Y-107302914D02*
X147097428Y-107379104D01*
X147097428Y-107379104D02*
X147059333Y-107417200D01*
X147059333Y-107417200D02*
X146983142Y-107455295D01*
X146983142Y-107455295D02*
X146830761Y-107455295D01*
X146830761Y-107455295D02*
X146754571Y-107417200D01*
X146754571Y-107417200D02*
X146716476Y-107379104D01*
X146716476Y-107379104D02*
X146678380Y-107302914D01*
X146678380Y-107302914D02*
X146678380Y-106655295D01*
X146373619Y-106655295D02*
X145878381Y-106655295D01*
X145878381Y-106655295D02*
X146145047Y-106960057D01*
X146145047Y-106960057D02*
X146030762Y-106960057D01*
X146030762Y-106960057D02*
X145954571Y-106998152D01*
X145954571Y-106998152D02*
X145916476Y-107036247D01*
X145916476Y-107036247D02*
X145878381Y-107112438D01*
X145878381Y-107112438D02*
X145878381Y-107302914D01*
X145878381Y-107302914D02*
X145916476Y-107379104D01*
X145916476Y-107379104D02*
X145954571Y-107417200D01*
X145954571Y-107417200D02*
X146030762Y-107455295D01*
X146030762Y-107455295D02*
X146259333Y-107455295D01*
X146259333Y-107455295D02*
X146335524Y-107417200D01*
X146335524Y-107417200D02*
X146373619Y-107379104D01*
X142052219Y-93559295D02*
X141518885Y-94359295D01*
X141518885Y-93559295D02*
X142052219Y-94359295D01*
X140795076Y-94359295D02*
X141252219Y-94359295D01*
X141023647Y-94359295D02*
X141023647Y-93559295D01*
X141023647Y-93559295D02*
X141099838Y-93673580D01*
X141099838Y-93673580D02*
X141176028Y-93749771D01*
X141176028Y-93749771D02*
X141252219Y-93787866D01*
X138574085Y-88356704D02*
X138612181Y-88394800D01*
X138612181Y-88394800D02*
X138726466Y-88432895D01*
X138726466Y-88432895D02*
X138802657Y-88432895D01*
X138802657Y-88432895D02*
X138916943Y-88394800D01*
X138916943Y-88394800D02*
X138993133Y-88318609D01*
X138993133Y-88318609D02*
X139031228Y-88242419D01*
X139031228Y-88242419D02*
X139069324Y-88090038D01*
X139069324Y-88090038D02*
X139069324Y-87975752D01*
X139069324Y-87975752D02*
X139031228Y-87823371D01*
X139031228Y-87823371D02*
X138993133Y-87747180D01*
X138993133Y-87747180D02*
X138916943Y-87670990D01*
X138916943Y-87670990D02*
X138802657Y-87632895D01*
X138802657Y-87632895D02*
X138726466Y-87632895D01*
X138726466Y-87632895D02*
X138612181Y-87670990D01*
X138612181Y-87670990D02*
X138574085Y-87709085D01*
X137888371Y-87899561D02*
X137888371Y-88432895D01*
X138078847Y-87594800D02*
X138269324Y-88166228D01*
X138269324Y-88166228D02*
X137774085Y-88166228D01*
X137316942Y-87632895D02*
X137240752Y-87632895D01*
X137240752Y-87632895D02*
X137164561Y-87670990D01*
X137164561Y-87670990D02*
X137126466Y-87709085D01*
X137126466Y-87709085D02*
X137088371Y-87785276D01*
X137088371Y-87785276D02*
X137050276Y-87937657D01*
X137050276Y-87937657D02*
X137050276Y-88128133D01*
X137050276Y-88128133D02*
X137088371Y-88280514D01*
X137088371Y-88280514D02*
X137126466Y-88356704D01*
X137126466Y-88356704D02*
X137164561Y-88394800D01*
X137164561Y-88394800D02*
X137240752Y-88432895D01*
X137240752Y-88432895D02*
X137316942Y-88432895D01*
X137316942Y-88432895D02*
X137393133Y-88394800D01*
X137393133Y-88394800D02*
X137431228Y-88356704D01*
X137431228Y-88356704D02*
X137469323Y-88280514D01*
X137469323Y-88280514D02*
X137507419Y-88128133D01*
X137507419Y-88128133D02*
X137507419Y-87937657D01*
X137507419Y-87937657D02*
X137469323Y-87785276D01*
X137469323Y-87785276D02*
X137431228Y-87709085D01*
X137431228Y-87709085D02*
X137393133Y-87670990D01*
X137393133Y-87670990D02*
X137316942Y-87632895D01*
X154674285Y-102729104D02*
X154712381Y-102767200D01*
X154712381Y-102767200D02*
X154826666Y-102805295D01*
X154826666Y-102805295D02*
X154902857Y-102805295D01*
X154902857Y-102805295D02*
X155017143Y-102767200D01*
X155017143Y-102767200D02*
X155093333Y-102691009D01*
X155093333Y-102691009D02*
X155131428Y-102614819D01*
X155131428Y-102614819D02*
X155169524Y-102462438D01*
X155169524Y-102462438D02*
X155169524Y-102348152D01*
X155169524Y-102348152D02*
X155131428Y-102195771D01*
X155131428Y-102195771D02*
X155093333Y-102119580D01*
X155093333Y-102119580D02*
X155017143Y-102043390D01*
X155017143Y-102043390D02*
X154902857Y-102005295D01*
X154902857Y-102005295D02*
X154826666Y-102005295D01*
X154826666Y-102005295D02*
X154712381Y-102043390D01*
X154712381Y-102043390D02*
X154674285Y-102081485D01*
X153988571Y-102271961D02*
X153988571Y-102805295D01*
X154179047Y-101967200D02*
X154369524Y-102538628D01*
X154369524Y-102538628D02*
X153874285Y-102538628D01*
X153226666Y-102271961D02*
X153226666Y-102805295D01*
X153417142Y-101967200D02*
X153607619Y-102538628D01*
X153607619Y-102538628D02*
X153112380Y-102538628D01*
X141250476Y-103862295D02*
X141250476Y-103062295D01*
X141250476Y-103062295D02*
X141060000Y-103062295D01*
X141060000Y-103062295D02*
X140945714Y-103100390D01*
X140945714Y-103100390D02*
X140869524Y-103176580D01*
X140869524Y-103176580D02*
X140831429Y-103252771D01*
X140831429Y-103252771D02*
X140793333Y-103405152D01*
X140793333Y-103405152D02*
X140793333Y-103519438D01*
X140793333Y-103519438D02*
X140831429Y-103671819D01*
X140831429Y-103671819D02*
X140869524Y-103748009D01*
X140869524Y-103748009D02*
X140945714Y-103824200D01*
X140945714Y-103824200D02*
X141060000Y-103862295D01*
X141060000Y-103862295D02*
X141250476Y-103862295D01*
X140488572Y-103138485D02*
X140450476Y-103100390D01*
X140450476Y-103100390D02*
X140374286Y-103062295D01*
X140374286Y-103062295D02*
X140183810Y-103062295D01*
X140183810Y-103062295D02*
X140107619Y-103100390D01*
X140107619Y-103100390D02*
X140069524Y-103138485D01*
X140069524Y-103138485D02*
X140031429Y-103214676D01*
X140031429Y-103214676D02*
X140031429Y-103290866D01*
X140031429Y-103290866D02*
X140069524Y-103405152D01*
X140069524Y-103405152D02*
X140526667Y-103862295D01*
X140526667Y-103862295D02*
X140031429Y-103862295D01*
X149945285Y-102602104D02*
X149983381Y-102640200D01*
X149983381Y-102640200D02*
X150097666Y-102678295D01*
X150097666Y-102678295D02*
X150173857Y-102678295D01*
X150173857Y-102678295D02*
X150288143Y-102640200D01*
X150288143Y-102640200D02*
X150364333Y-102564009D01*
X150364333Y-102564009D02*
X150402428Y-102487819D01*
X150402428Y-102487819D02*
X150440524Y-102335438D01*
X150440524Y-102335438D02*
X150440524Y-102221152D01*
X150440524Y-102221152D02*
X150402428Y-102068771D01*
X150402428Y-102068771D02*
X150364333Y-101992580D01*
X150364333Y-101992580D02*
X150288143Y-101916390D01*
X150288143Y-101916390D02*
X150173857Y-101878295D01*
X150173857Y-101878295D02*
X150097666Y-101878295D01*
X150097666Y-101878295D02*
X149983381Y-101916390D01*
X149983381Y-101916390D02*
X149945285Y-101954485D01*
X149259571Y-102144961D02*
X149259571Y-102678295D01*
X149450047Y-101840200D02*
X149640524Y-102411628D01*
X149640524Y-102411628D02*
X149145285Y-102411628D01*
X148459571Y-101878295D02*
X148840523Y-101878295D01*
X148840523Y-101878295D02*
X148878619Y-102259247D01*
X148878619Y-102259247D02*
X148840523Y-102221152D01*
X148840523Y-102221152D02*
X148764333Y-102183057D01*
X148764333Y-102183057D02*
X148573857Y-102183057D01*
X148573857Y-102183057D02*
X148497666Y-102221152D01*
X148497666Y-102221152D02*
X148459571Y-102259247D01*
X148459571Y-102259247D02*
X148421476Y-102335438D01*
X148421476Y-102335438D02*
X148421476Y-102525914D01*
X148421476Y-102525914D02*
X148459571Y-102602104D01*
X148459571Y-102602104D02*
X148497666Y-102640200D01*
X148497666Y-102640200D02*
X148573857Y-102678295D01*
X148573857Y-102678295D02*
X148764333Y-102678295D01*
X148764333Y-102678295D02*
X148840523Y-102640200D01*
X148840523Y-102640200D02*
X148878619Y-102602104D01*
X163086604Y-103185714D02*
X163124700Y-103147618D01*
X163124700Y-103147618D02*
X163162795Y-103033333D01*
X163162795Y-103033333D02*
X163162795Y-102957142D01*
X163162795Y-102957142D02*
X163124700Y-102842856D01*
X163124700Y-102842856D02*
X163048509Y-102766666D01*
X163048509Y-102766666D02*
X162972319Y-102728571D01*
X162972319Y-102728571D02*
X162819938Y-102690475D01*
X162819938Y-102690475D02*
X162705652Y-102690475D01*
X162705652Y-102690475D02*
X162553271Y-102728571D01*
X162553271Y-102728571D02*
X162477080Y-102766666D01*
X162477080Y-102766666D02*
X162400890Y-102842856D01*
X162400890Y-102842856D02*
X162362795Y-102957142D01*
X162362795Y-102957142D02*
X162362795Y-103033333D01*
X162362795Y-103033333D02*
X162400890Y-103147618D01*
X162400890Y-103147618D02*
X162438985Y-103185714D01*
X163162795Y-103947618D02*
X163162795Y-103490475D01*
X163162795Y-103719047D02*
X162362795Y-103719047D01*
X162362795Y-103719047D02*
X162477080Y-103642856D01*
X162477080Y-103642856D02*
X162553271Y-103566666D01*
X162553271Y-103566666D02*
X162591366Y-103490475D01*
X162362795Y-104214285D02*
X162362795Y-104709523D01*
X162362795Y-104709523D02*
X162667557Y-104442857D01*
X162667557Y-104442857D02*
X162667557Y-104557142D01*
X162667557Y-104557142D02*
X162705652Y-104633333D01*
X162705652Y-104633333D02*
X162743747Y-104671428D01*
X162743747Y-104671428D02*
X162819938Y-104709523D01*
X162819938Y-104709523D02*
X163010414Y-104709523D01*
X163010414Y-104709523D02*
X163086604Y-104671428D01*
X163086604Y-104671428D02*
X163124700Y-104633333D01*
X163124700Y-104633333D02*
X163162795Y-104557142D01*
X163162795Y-104557142D02*
X163162795Y-104328571D01*
X163162795Y-104328571D02*
X163124700Y-104252380D01*
X163124700Y-104252380D02*
X163086604Y-104214285D01*
X138388285Y-101173104D02*
X138426381Y-101211200D01*
X138426381Y-101211200D02*
X138540666Y-101249295D01*
X138540666Y-101249295D02*
X138616857Y-101249295D01*
X138616857Y-101249295D02*
X138731143Y-101211200D01*
X138731143Y-101211200D02*
X138807333Y-101135009D01*
X138807333Y-101135009D02*
X138845428Y-101058819D01*
X138845428Y-101058819D02*
X138883524Y-100906438D01*
X138883524Y-100906438D02*
X138883524Y-100792152D01*
X138883524Y-100792152D02*
X138845428Y-100639771D01*
X138845428Y-100639771D02*
X138807333Y-100563580D01*
X138807333Y-100563580D02*
X138731143Y-100487390D01*
X138731143Y-100487390D02*
X138616857Y-100449295D01*
X138616857Y-100449295D02*
X138540666Y-100449295D01*
X138540666Y-100449295D02*
X138426381Y-100487390D01*
X138426381Y-100487390D02*
X138388285Y-100525485D01*
X137702571Y-100715961D02*
X137702571Y-101249295D01*
X137893047Y-100411200D02*
X138083524Y-100982628D01*
X138083524Y-100982628D02*
X137588285Y-100982628D01*
X137321619Y-100525485D02*
X137283523Y-100487390D01*
X137283523Y-100487390D02*
X137207333Y-100449295D01*
X137207333Y-100449295D02*
X137016857Y-100449295D01*
X137016857Y-100449295D02*
X136940666Y-100487390D01*
X136940666Y-100487390D02*
X136902571Y-100525485D01*
X136902571Y-100525485D02*
X136864476Y-100601676D01*
X136864476Y-100601676D02*
X136864476Y-100677866D01*
X136864476Y-100677866D02*
X136902571Y-100792152D01*
X136902571Y-100792152D02*
X137359714Y-101249295D01*
X137359714Y-101249295D02*
X136864476Y-101249295D01*
X162910023Y-96712295D02*
X162910023Y-97359914D01*
X162910023Y-97359914D02*
X162871928Y-97436104D01*
X162871928Y-97436104D02*
X162833833Y-97474200D01*
X162833833Y-97474200D02*
X162757642Y-97512295D01*
X162757642Y-97512295D02*
X162605261Y-97512295D01*
X162605261Y-97512295D02*
X162529071Y-97474200D01*
X162529071Y-97474200D02*
X162490976Y-97436104D01*
X162490976Y-97436104D02*
X162452880Y-97359914D01*
X162452880Y-97359914D02*
X162452880Y-96712295D01*
X161729071Y-96712295D02*
X161881452Y-96712295D01*
X161881452Y-96712295D02*
X161957643Y-96750390D01*
X161957643Y-96750390D02*
X161995738Y-96788485D01*
X161995738Y-96788485D02*
X162071928Y-96902771D01*
X162071928Y-96902771D02*
X162110024Y-97055152D01*
X162110024Y-97055152D02*
X162110024Y-97359914D01*
X162110024Y-97359914D02*
X162071928Y-97436104D01*
X162071928Y-97436104D02*
X162033833Y-97474200D01*
X162033833Y-97474200D02*
X161957643Y-97512295D01*
X161957643Y-97512295D02*
X161805262Y-97512295D01*
X161805262Y-97512295D02*
X161729071Y-97474200D01*
X161729071Y-97474200D02*
X161690976Y-97436104D01*
X161690976Y-97436104D02*
X161652881Y-97359914D01*
X161652881Y-97359914D02*
X161652881Y-97169438D01*
X161652881Y-97169438D02*
X161690976Y-97093247D01*
X161690976Y-97093247D02*
X161729071Y-97055152D01*
X161729071Y-97055152D02*
X161805262Y-97017057D01*
X161805262Y-97017057D02*
X161957643Y-97017057D01*
X161957643Y-97017057D02*
X162033833Y-97055152D01*
X162033833Y-97055152D02*
X162071928Y-97093247D01*
X162071928Y-97093247D02*
X162110024Y-97169438D01*
X138514285Y-82286104D02*
X138552381Y-82324200D01*
X138552381Y-82324200D02*
X138666666Y-82362295D01*
X138666666Y-82362295D02*
X138742857Y-82362295D01*
X138742857Y-82362295D02*
X138857143Y-82324200D01*
X138857143Y-82324200D02*
X138933333Y-82248009D01*
X138933333Y-82248009D02*
X138971428Y-82171819D01*
X138971428Y-82171819D02*
X139009524Y-82019438D01*
X139009524Y-82019438D02*
X139009524Y-81905152D01*
X139009524Y-81905152D02*
X138971428Y-81752771D01*
X138971428Y-81752771D02*
X138933333Y-81676580D01*
X138933333Y-81676580D02*
X138857143Y-81600390D01*
X138857143Y-81600390D02*
X138742857Y-81562295D01*
X138742857Y-81562295D02*
X138666666Y-81562295D01*
X138666666Y-81562295D02*
X138552381Y-81600390D01*
X138552381Y-81600390D02*
X138514285Y-81638485D01*
X138247619Y-81562295D02*
X137752381Y-81562295D01*
X137752381Y-81562295D02*
X138019047Y-81867057D01*
X138019047Y-81867057D02*
X137904762Y-81867057D01*
X137904762Y-81867057D02*
X137828571Y-81905152D01*
X137828571Y-81905152D02*
X137790476Y-81943247D01*
X137790476Y-81943247D02*
X137752381Y-82019438D01*
X137752381Y-82019438D02*
X137752381Y-82209914D01*
X137752381Y-82209914D02*
X137790476Y-82286104D01*
X137790476Y-82286104D02*
X137828571Y-82324200D01*
X137828571Y-82324200D02*
X137904762Y-82362295D01*
X137904762Y-82362295D02*
X138133333Y-82362295D01*
X138133333Y-82362295D02*
X138209524Y-82324200D01*
X138209524Y-82324200D02*
X138247619Y-82286104D01*
X137295238Y-81905152D02*
X137371428Y-81867057D01*
X137371428Y-81867057D02*
X137409523Y-81828961D01*
X137409523Y-81828961D02*
X137447619Y-81752771D01*
X137447619Y-81752771D02*
X137447619Y-81714676D01*
X137447619Y-81714676D02*
X137409523Y-81638485D01*
X137409523Y-81638485D02*
X137371428Y-81600390D01*
X137371428Y-81600390D02*
X137295238Y-81562295D01*
X137295238Y-81562295D02*
X137142857Y-81562295D01*
X137142857Y-81562295D02*
X137066666Y-81600390D01*
X137066666Y-81600390D02*
X137028571Y-81638485D01*
X137028571Y-81638485D02*
X136990476Y-81714676D01*
X136990476Y-81714676D02*
X136990476Y-81752771D01*
X136990476Y-81752771D02*
X137028571Y-81828961D01*
X137028571Y-81828961D02*
X137066666Y-81867057D01*
X137066666Y-81867057D02*
X137142857Y-81905152D01*
X137142857Y-81905152D02*
X137295238Y-81905152D01*
X137295238Y-81905152D02*
X137371428Y-81943247D01*
X137371428Y-81943247D02*
X137409523Y-81981342D01*
X137409523Y-81981342D02*
X137447619Y-82057533D01*
X137447619Y-82057533D02*
X137447619Y-82209914D01*
X137447619Y-82209914D02*
X137409523Y-82286104D01*
X137409523Y-82286104D02*
X137371428Y-82324200D01*
X137371428Y-82324200D02*
X137295238Y-82362295D01*
X137295238Y-82362295D02*
X137142857Y-82362295D01*
X137142857Y-82362295D02*
X137066666Y-82324200D01*
X137066666Y-82324200D02*
X137028571Y-82286104D01*
X137028571Y-82286104D02*
X136990476Y-82209914D01*
X136990476Y-82209914D02*
X136990476Y-82057533D01*
X136990476Y-82057533D02*
X137028571Y-81981342D01*
X137028571Y-81981342D02*
X137066666Y-81943247D01*
X137066666Y-81943247D02*
X137142857Y-81905152D01*
%TO.C,C39*%
D11*
X142190500Y-84040580D02*
X142190500Y-83759420D01*
X143210500Y-84040580D02*
X143210500Y-83759420D01*
%TO.C,C41*%
X143797500Y-91080580D02*
X143797500Y-90799420D01*
X144817500Y-91080580D02*
X144817500Y-90799420D01*
%TO.C,U7*%
X157300000Y-107093000D02*
X157300000Y-105293000D01*
X157300000Y-107093000D02*
X157300000Y-107893000D01*
X160420000Y-107093000D02*
X160420000Y-106293000D01*
X160420000Y-107093000D02*
X160420000Y-107893000D01*
%TO.C,D1*%
X156040500Y-80439990D02*
X161100500Y-80439990D01*
X156040500Y-83159990D02*
X156040500Y-80439990D01*
X156040500Y-83159990D02*
X161100500Y-83159990D01*
D12*
%TO.C,X3*%
G36*
X141940499Y-85775157D02*
G01*
X141940499Y-85824863D01*
X141905352Y-85860010D01*
X141855646Y-85860010D01*
X137205352Y-85860010D01*
X137155646Y-85860010D01*
X137120499Y-85824863D01*
X137120499Y-85775157D01*
X137120499Y-85469115D01*
X137129720Y-85515475D01*
X137133774Y-85531658D01*
X137139394Y-85547366D01*
X137146527Y-85562448D01*
X137155104Y-85576757D01*
X137215885Y-85667721D01*
X137225823Y-85681121D01*
X137237026Y-85693482D01*
X137240499Y-85696629D01*
X137240499Y-85740010D01*
X137300780Y-85740010D01*
X137353751Y-85775404D01*
X137368060Y-85783981D01*
X137383142Y-85791114D01*
X137398850Y-85796734D01*
X137415033Y-85800788D01*
X137495245Y-85816743D01*
X137511748Y-85819191D01*
X137528411Y-85820010D01*
X138132587Y-85820010D01*
X138149249Y-85819191D01*
X138165752Y-85816743D01*
X138245964Y-85800788D01*
X138262147Y-85796734D01*
X138277855Y-85791114D01*
X138292937Y-85783981D01*
X138307246Y-85775404D01*
X138360217Y-85740010D01*
X140700780Y-85740010D01*
X140753751Y-85775404D01*
X140768060Y-85783981D01*
X140783142Y-85791114D01*
X140798850Y-85796734D01*
X140815033Y-85800788D01*
X140895245Y-85816743D01*
X140911748Y-85819191D01*
X140928411Y-85820010D01*
X141532587Y-85820010D01*
X141549249Y-85819191D01*
X141565752Y-85816743D01*
X141645964Y-85800788D01*
X141662147Y-85796734D01*
X141677855Y-85791114D01*
X141692937Y-85783981D01*
X141707246Y-85775404D01*
X141760217Y-85740010D01*
X141820499Y-85740010D01*
X141820499Y-85696629D01*
X141823971Y-85693482D01*
X141835174Y-85681121D01*
X141845112Y-85667721D01*
X141905893Y-85576757D01*
X141914470Y-85562448D01*
X141921603Y-85547366D01*
X141927223Y-85531658D01*
X141931277Y-85515475D01*
X141940499Y-85469115D01*
X141940499Y-85775157D01*
G37*
G36*
X141940499Y-83575157D02*
G01*
X141940499Y-83624863D01*
X141940499Y-83930904D01*
X141931277Y-83884544D01*
X141927223Y-83868361D01*
X141921603Y-83852653D01*
X141914470Y-83837571D01*
X141905893Y-83823262D01*
X141845112Y-83732298D01*
X141835174Y-83718898D01*
X141823971Y-83706537D01*
X141820499Y-83703390D01*
X141820499Y-83660010D01*
X141760217Y-83660010D01*
X141707246Y-83624615D01*
X141692937Y-83616038D01*
X141677855Y-83608905D01*
X141662147Y-83603285D01*
X141645964Y-83599231D01*
X141565752Y-83583276D01*
X141549249Y-83580828D01*
X141532587Y-83580010D01*
X140928411Y-83580010D01*
X140911748Y-83580828D01*
X140895245Y-83583276D01*
X140815033Y-83599231D01*
X140798850Y-83603285D01*
X140783142Y-83608905D01*
X140768060Y-83616038D01*
X140753751Y-83624615D01*
X140700780Y-83660010D01*
X138360217Y-83660010D01*
X138307246Y-83624615D01*
X138292937Y-83616038D01*
X138277855Y-83608905D01*
X138262147Y-83603285D01*
X138245964Y-83599231D01*
X138165752Y-83583276D01*
X138149249Y-83580828D01*
X138132587Y-83580010D01*
X137528411Y-83580010D01*
X137511748Y-83580828D01*
X137495245Y-83583276D01*
X137415033Y-83599231D01*
X137398850Y-83603285D01*
X137383142Y-83608905D01*
X137368060Y-83616038D01*
X137353751Y-83624615D01*
X137300780Y-83660010D01*
X137240499Y-83660010D01*
X137240499Y-83703390D01*
X137237026Y-83706537D01*
X137225823Y-83718898D01*
X137215885Y-83732298D01*
X137155104Y-83823262D01*
X137146527Y-83837571D01*
X137145500Y-83839742D01*
X137145500Y-83734567D01*
X137144657Y-83717414D01*
X137142137Y-83700426D01*
X137137964Y-83683767D01*
X137132178Y-83667597D01*
X137124836Y-83652072D01*
X137120499Y-83644836D01*
X137120499Y-83624863D01*
X137120499Y-83575157D01*
X137155646Y-83540010D01*
X137205352Y-83540010D01*
X141855646Y-83540010D01*
X141905352Y-83540010D01*
X141940499Y-83575157D01*
G37*
%TO.C,C43*%
D11*
X158519420Y-103783000D02*
X158800580Y-103783000D01*
X158519420Y-104803000D02*
X158800580Y-104803000D01*
%TO.C,U4*%
X152800000Y-107093000D02*
X152800000Y-105293000D01*
X152800000Y-107093000D02*
X152800000Y-107893000D01*
X155920000Y-107093000D02*
X155920000Y-106293000D01*
X155920000Y-107093000D02*
X155920000Y-107893000D01*
%TO.C,U3*%
X148100000Y-107093000D02*
X148100000Y-105293000D01*
X148100000Y-107093000D02*
X148100000Y-107893000D01*
X151220000Y-107093000D02*
X151220000Y-106293000D01*
X151220000Y-107093000D02*
X151220000Y-107893000D01*
%TO.C,X1*%
X142979400Y-92825800D02*
X143512800Y-92317800D01*
D13*
X140325621Y-88803400D02*
G75*
G02*
X140042779Y-88803400I-141421J0D01*
G01*
X140042779Y-88803400D02*
G75*
G02*
X140325621Y-88803400I141421J0D01*
G01*
D12*
G36*
X143546200Y-89286547D02*
G01*
X143546200Y-89336253D01*
X143546200Y-92786547D01*
X143546200Y-92836253D01*
X143511053Y-92871400D01*
X143461347Y-92871400D01*
X139211053Y-92871400D01*
X139161347Y-92871400D01*
X139126200Y-92836253D01*
X139126200Y-92786547D01*
X139126200Y-92751400D01*
X139126200Y-92193536D01*
X139153795Y-92152237D01*
X139162371Y-92137928D01*
X139169504Y-92122847D01*
X139175124Y-92107139D01*
X139179178Y-92090956D01*
X139192233Y-92025325D01*
X139194681Y-92008823D01*
X139195499Y-91992160D01*
X139195499Y-91497840D01*
X139194681Y-91481176D01*
X139192233Y-91464674D01*
X139179178Y-91399043D01*
X139175124Y-91382860D01*
X139169504Y-91367152D01*
X139162371Y-91352071D01*
X139153795Y-91337762D01*
X139126200Y-91296463D01*
X139126200Y-90643536D01*
X139153795Y-90602237D01*
X139162371Y-90587928D01*
X139169504Y-90572847D01*
X139175124Y-90557139D01*
X139179178Y-90540956D01*
X139192233Y-90475325D01*
X139194681Y-90458823D01*
X139195499Y-90442160D01*
X139195499Y-89947840D01*
X139194681Y-89931176D01*
X139192233Y-89914674D01*
X139179178Y-89849043D01*
X139175124Y-89832860D01*
X139169504Y-89817152D01*
X139162371Y-89802071D01*
X139153795Y-89787762D01*
X139126200Y-89746463D01*
X139126200Y-89371400D01*
X139246200Y-89371400D01*
X139246200Y-92751400D01*
X143426200Y-92751400D01*
X143426200Y-89371400D01*
X139246200Y-89371400D01*
X139126200Y-89371400D01*
X139126200Y-89336253D01*
X139126200Y-89286547D01*
X139161347Y-89251400D01*
X139211053Y-89251400D01*
X143461347Y-89251400D01*
X143511053Y-89251400D01*
X143546200Y-89286547D01*
G37*
%TO.C,C40*%
D11*
X138040500Y-90829420D02*
X138040500Y-91110580D01*
%TO.C,C44*%
X154019420Y-103783000D02*
X154300580Y-103783000D01*
X154019420Y-104803000D02*
X154300580Y-104803000D01*
%TO.C,D2*%
X142300001Y-102840000D02*
X142300001Y-107900000D01*
X142300001Y-102840000D02*
X145020001Y-102840000D01*
X145020001Y-102840000D02*
X145020001Y-107900000D01*
%TO.C,C45*%
X149600580Y-103783000D02*
X149319420Y-103783000D01*
X149600580Y-104803000D02*
X149319420Y-104803000D01*
%TO.C,C13*%
X160490500Y-103059420D02*
X160490500Y-103340580D01*
X161510500Y-103059420D02*
X161510500Y-103340580D01*
%TO.C,C42*%
X137340500Y-98009420D02*
X137340500Y-98290580D01*
X138360500Y-98009420D02*
X138360500Y-98290580D01*
%TO.C,U6*%
X162300500Y-98440000D02*
X161500500Y-98440000D01*
X162300500Y-98440000D02*
X163100500Y-98440000D01*
X162300500Y-101560000D02*
X160500500Y-101560000D01*
X162300500Y-101560000D02*
X163100500Y-101560000D01*
%TO.C,C38*%
X135890500Y-84040580D02*
X135890500Y-83759420D01*
X136910500Y-84040580D02*
X136910500Y-83759420D01*
%TD*%
%LPC*%
D14*
%TO.C,J3*%
X161430011Y-111490799D03*
D15*
X158890011Y-111490799D03*
X156350011Y-111490799D03*
X153810011Y-111490799D03*
X151270011Y-111490799D03*
X148730011Y-111490799D03*
X146190011Y-111490799D03*
X143650011Y-111490799D03*
X141110011Y-111490799D03*
X138570011Y-111490799D03*
%TD*%
D14*
%TO.C,J4*%
X133509201Y-106429999D03*
D15*
X133509201Y-103889999D03*
X133509201Y-101349999D03*
X133509201Y-98809999D03*
X133509201Y-96269999D03*
X133509201Y-93729999D03*
X133509201Y-91189999D03*
X133509201Y-88649999D03*
X133509201Y-86109999D03*
X133509201Y-83569999D03*
%TD*%
D16*
%TO.C,H2*%
X133500000Y-78500000D03*
%TD*%
D14*
%TO.C,J2*%
X166490803Y-83569989D03*
D15*
X166490803Y-86109989D03*
X166490803Y-88649989D03*
X166490803Y-91189989D03*
X166490803Y-93729989D03*
X166490803Y-96269989D03*
X166490803Y-98809989D03*
X166490803Y-101349989D03*
X166490803Y-103889989D03*
X166490803Y-106429989D03*
%TD*%
D16*
%TO.C,H1*%
X133500000Y-111500000D03*
%TD*%
D14*
%TO.C,J1*%
X138570001Y-78509197D03*
D15*
X141110001Y-78509197D03*
X143650001Y-78509197D03*
X146190001Y-78509197D03*
X148730001Y-78509197D03*
X151270001Y-78509197D03*
X153810001Y-78509197D03*
X156350001Y-78509197D03*
X158890001Y-78509197D03*
X161430001Y-78509197D03*
%TD*%
D16*
%TO.C,H3*%
X166500000Y-78500000D03*
%TD*%
%TO.C,H4*%
X166500000Y-111500000D03*
%TD*%
D17*
%TO.C,C39*%
X142700500Y-84675000D03*
X142700500Y-83125000D03*
%TD*%
%TO.C,C41*%
X144307500Y-91715000D03*
X144307500Y-90165000D03*
%TD*%
D18*
%TO.C,U7*%
X157910000Y-105955500D03*
X158860000Y-105955500D03*
X159810000Y-105955500D03*
X159810000Y-108230500D03*
X157910000Y-108230500D03*
%TD*%
D19*
%TO.C,D1*%
X157000500Y-81799990D03*
X161400500Y-81799990D03*
%TD*%
D20*
%TO.C,X3*%
X137830499Y-84700010D03*
X141230499Y-84700010D03*
%TD*%
D21*
%TO.C,C43*%
X157885000Y-104293000D03*
X159435000Y-104293000D03*
%TD*%
D18*
%TO.C,U4*%
X153410000Y-105955500D03*
X154360000Y-105955500D03*
X155310000Y-105955500D03*
X155310000Y-108230500D03*
X153410000Y-108230500D03*
%TD*%
%TO.C,U3*%
X148710000Y-105955500D03*
X149660000Y-105955500D03*
X150610000Y-105955500D03*
X150610000Y-108230500D03*
X148710000Y-108230500D03*
%TD*%
D22*
%TO.C,X1*%
X140236200Y-90111400D03*
X142536200Y-90111400D03*
X142536200Y-91911400D03*
X140236200Y-91911400D03*
%TD*%
D23*
%TO.C,C40*%
X138550500Y-90195000D03*
X138550500Y-91745000D03*
%TD*%
D21*
%TO.C,C44*%
X153385000Y-104293000D03*
X154935000Y-104293000D03*
%TD*%
D24*
%TO.C,D2*%
X143660001Y-103800000D03*
X143660001Y-108200000D03*
%TD*%
D25*
%TO.C,C45*%
X150235000Y-104293000D03*
X148685000Y-104293000D03*
%TD*%
D23*
%TO.C,C13*%
X161000500Y-102425000D03*
X161000500Y-103975000D03*
%TD*%
%TO.C,C42*%
X137850500Y-97375000D03*
X137850500Y-98925000D03*
%TD*%
D26*
%TO.C,U6*%
X161163000Y-100950000D03*
X161163000Y-100000000D03*
X161163000Y-99050000D03*
X163438000Y-99050000D03*
X163438000Y-100950000D03*
%TD*%
D17*
%TO.C,C38*%
X136400500Y-84675000D03*
X136400500Y-83125000D03*
%TD*%
%LPD*%
D27*
X130000000Y-76000000D02*
G75*
G02*
X131000000Y-75000000I1000000J0D01*
G01*
X130000000Y-80000000D02*
X130000000Y-76000000D01*
X130000000Y-110000000D02*
X131000000Y-108000000D01*
X130000000Y-114000000D02*
X130000000Y-110000000D01*
X131000000Y-75000000D02*
X135000000Y-75000000D01*
X131000000Y-82000000D02*
X130000000Y-80000000D01*
X131000000Y-108000000D02*
X131000000Y-82000000D01*
X131000000Y-115000000D02*
G75*
G02*
X130000000Y-114000000I0J1000000D01*
G01*
X135000000Y-75000000D02*
X137000000Y-76000000D01*
X135000000Y-115000000D02*
X131001000Y-115000000D01*
X137000000Y-76000000D02*
X150000000Y-76000000D01*
X137001000Y-114000000D02*
X135000000Y-115000000D01*
X150000000Y-76000000D02*
X163000000Y-76000000D01*
X163000000Y-76000000D02*
X165000000Y-75000000D01*
D28*
X163000500Y-114000000D02*
X137001000Y-114000000D01*
D27*
X165000000Y-75000000D02*
X169000000Y-75000000D01*
D28*
X165001000Y-115000000D02*
X163000500Y-114000000D01*
D27*
X169000000Y-75000000D02*
G75*
G02*
X170001000Y-76000000I0J-1001000D01*
G01*
D28*
X169000000Y-82000000D02*
X169001000Y-108000000D01*
X169001000Y-108000000D02*
X170001000Y-110000000D01*
X169001000Y-115001000D02*
X165001000Y-115000000D01*
D27*
X170001000Y-76000000D02*
X170001000Y-80000000D01*
X170001000Y-80000000D02*
X169001000Y-82000000D01*
D28*
X170001000Y-110000000D02*
X170001500Y-114000000D01*
X170001500Y-114000000D02*
G75*
G02*
X169001000Y-115001000I-1000800J-200D01*
G01*
M02*
