%TF.GenerationSoftware,KiCad,Pcbnew,10.0.5*%
%TF.CreationDate,2026-10-02T22:21:21-03:00*%
%TF.ProjectId,EGSE,45475345-2e6b-4696-9361-645f70636258,rev?*%
%TF.SameCoordinates,Original*%
%TF.FileFunction,Soldermask,Top*%
%TF.FilePolarity,Negative*%
%FSLAX46Y46*%
G04 Gerber Fmt 4.6, Leading zero omitted, Abs format (unit mm)*
G04 Created by KiCad (PCBNEW 10.0.5) date 2026-10-02 22:21:21*
%MOMM*%
%LPD*%
G01*
G04 APERTURE LIST*
G04 Aperture macros list*
%AMRoundRect*
0 Rectangle with rounded corners*
0 $1 Rounding radius*
0 $2 $3 $4 $5 $6 $7 $8 $9 X,Y pos of 4 corners*
0 Add a 4 corners polygon primitive as box body*
4,1,4,$2,$3,$4,$5,$6,$7,$8,$9,$2,$3,0*
0 Add four circle primitives for the rounded corners*
1,1,$1+$1,$2,$3*
1,1,$1+$1,$4,$5*
1,1,$1+$1,$6,$7*
1,1,$1+$1,$8,$9*
0 Add four rect primitives between the rounded corners*
20,1,$1+$1,$2,$3,$4,$5,0*
20,1,$1+$1,$4,$5,$6,$7,0*
20,1,$1+$1,$6,$7,$8,$9,0*
20,1,$1+$1,$8,$9,$2,$3,0*%
G04 Aperture macros list end*
%ADD10C,4.400000*%
%ADD11R,2.175000X2.175000*%
%ADD12C,2.175000*%
%ADD13RoundRect,0.200000X-0.200000X-0.600000X0.200000X-0.600000X0.200000X0.600000X-0.200000X0.600000X0*%
%ADD14RoundRect,0.250001X-0.799999X-1.249999X0.799999X-1.249999X0.799999X1.249999X-0.799999X1.249999X0*%
%ADD15C,6.400000*%
%ADD16RoundRect,0.218750X0.218750X0.381250X-0.218750X0.381250X-0.218750X-0.381250X0.218750X-0.381250X0*%
%ADD17RoundRect,0.250000X0.450000X0.800000X-0.450000X0.800000X-0.450000X-0.800000X0.450000X-0.800000X0*%
%ADD18R,1.650000X1.650000*%
%ADD19C,1.650000*%
%ADD20RoundRect,0.200000X0.200000X0.275000X-0.200000X0.275000X-0.200000X-0.275000X0.200000X-0.275000X0*%
%ADD21R,1.700000X1.700000*%
%ADD22O,1.700000X1.700000*%
%ADD23R,1.200000X1.200000*%
%ADD24C,1.200000*%
%ADD25RoundRect,0.225000X0.250000X-0.225000X0.250000X0.225000X-0.250000X0.225000X-0.250000X-0.225000X0*%
%ADD26RoundRect,0.200000X0.600000X-0.200000X0.600000X0.200000X-0.600000X0.200000X-0.600000X-0.200000X0*%
%ADD27RoundRect,0.250001X1.249999X-0.799999X1.249999X0.799999X-1.249999X0.799999X-1.249999X-0.799999X0*%
%ADD28RoundRect,0.250000X-0.450000X0.262500X-0.450000X-0.262500X0.450000X-0.262500X0.450000X0.262500X0*%
%ADD29RoundRect,0.200000X0.200000X0.600000X-0.200000X0.600000X-0.200000X-0.600000X0.200000X-0.600000X0*%
%ADD30RoundRect,0.250001X0.799999X1.249999X-0.799999X1.249999X-0.799999X-1.249999X0.799999X-1.249999X0*%
%ADD31RoundRect,0.250000X-0.800000X0.450000X-0.800000X-0.450000X0.800000X-0.450000X0.800000X0.450000X0*%
%ADD32RoundRect,0.200000X0.275000X-0.200000X0.275000X0.200000X-0.275000X0.200000X-0.275000X-0.200000X0*%
%ADD33C,1.500000*%
%ADD34RoundRect,0.062500X0.062500X-0.350000X0.062500X0.350000X-0.062500X0.350000X-0.062500X-0.350000X0*%
%ADD35RoundRect,0.062500X0.350000X-0.062500X0.350000X0.062500X-0.350000X0.062500X-0.350000X-0.062500X0*%
%ADD36R,1.600000X1.600000*%
%ADD37RoundRect,0.225000X-0.250000X0.225000X-0.250000X-0.225000X0.250000X-0.225000X0.250000X0.225000X0*%
%ADD38C,0.500000*%
%ADD39RoundRect,0.200000X-0.600000X0.200000X-0.600000X-0.200000X0.600000X-0.200000X0.600000X0.200000X0*%
%ADD40RoundRect,0.250001X-1.249999X0.799999X-1.249999X-0.799999X1.249999X-0.799999X1.249999X0.799999X0*%
%ADD41R,0.900000X0.650000*%
%ADD42C,2.717800*%
%ADD43C,1.803400*%
%ADD44R,1.447800X1.447800*%
%ADD45C,1.447800*%
%ADD46RoundRect,0.200000X-0.275000X0.200000X-0.275000X-0.200000X0.275000X-0.200000X0.275000X0.200000X0*%
%ADD47RoundRect,0.200000X-0.200000X-0.450000X0.200000X-0.450000X0.200000X0.450000X-0.200000X0.450000X0*%
%ADD48R,0.610000X1.270000*%
%ADD49R,3.910000X3.810000*%
%ADD50R,0.610000X1.020000*%
%ADD51C,1.501000*%
%ADD52RoundRect,0.062500X0.062500X-0.362500X0.062500X0.362500X-0.062500X0.362500X-0.062500X-0.362500X0*%
%ADD53RoundRect,0.062500X0.362500X-0.062500X0.362500X0.062500X-0.362500X0.062500X-0.362500X-0.062500X0*%
%ADD54R,3.650000X2.650000*%
%ADD55RoundRect,0.135000X-0.135000X-0.185000X0.135000X-0.185000X0.135000X0.185000X-0.135000X0.185000X0*%
%ADD56RoundRect,0.250000X-0.262500X-0.450000X0.262500X-0.450000X0.262500X0.450000X-0.262500X0.450000X0*%
%ADD57R,1.180000X4.400000*%
%ADD58RoundRect,0.225000X0.225000X0.250000X-0.225000X0.250000X-0.225000X-0.250000X0.225000X-0.250000X0*%
%ADD59C,1.550000*%
%ADD60RoundRect,0.250000X-0.650000X0.325000X-0.650000X-0.325000X0.650000X-0.325000X0.650000X0.325000X0*%
%ADD61R,1.000000X1.000000*%
%ADD62C,0.940000*%
%ADD63C,1.000000*%
%ADD64RoundRect,0.200000X-0.200000X-0.275000X0.200000X-0.275000X0.200000X0.275000X-0.200000X0.275000X0*%
%ADD65R,1.530000X1.530000*%
%ADD66C,1.530000*%
%ADD67R,1.725000X1.725000*%
%ADD68C,1.725000*%
%ADD69R,1.070000X1.680000*%
%ADD70RoundRect,0.150000X0.150000X0.600000X-0.150000X0.600000X-0.150000X-0.600000X0.150000X-0.600000X0*%
%ADD71RoundRect,0.250000X0.350000X0.650000X-0.350000X0.650000X-0.350000X-0.650000X0.350000X-0.650000X0*%
G04 APERTURE END LIST*
D10*
%TO.C,H21*%
X402154000Y-250942000D03*
%TD*%
D11*
%TO.C,J62*%
X341300000Y-140000000D03*
D12*
X343840000Y-140000000D03*
X346380000Y-140000000D03*
X348920000Y-140000000D03*
X351460000Y-140000000D03*
X354000000Y-140000000D03*
X356540000Y-140000000D03*
X359080000Y-140000000D03*
X361620000Y-140000000D03*
%TD*%
D13*
%TO.C,J34*%
X206200000Y-238600000D03*
X207450000Y-238600000D03*
X208700000Y-238600000D03*
X209950000Y-238600000D03*
X211200000Y-238600000D03*
X212450000Y-238600000D03*
X213700000Y-238600000D03*
X214950000Y-238600000D03*
X216200000Y-238600000D03*
X217450000Y-238600000D03*
D14*
X203650000Y-241500000D03*
X220000000Y-241500000D03*
%TD*%
D15*
%TO.C,H42*%
X296520000Y-124521367D03*
%TD*%
D16*
%TO.C,L2*%
X374238602Y-307516878D03*
X372113602Y-307516878D03*
%TD*%
D10*
%TO.C,H63*%
X270516234Y-187500000D03*
%TD*%
D17*
%TO.C,D3*%
X402767707Y-303128731D03*
X398367707Y-303128731D03*
%TD*%
D10*
%TO.C,H65*%
X270516234Y-207500000D03*
%TD*%
D18*
%TO.C,J14*%
X220320000Y-124521367D03*
D19*
X222860000Y-124521367D03*
X225400000Y-124521367D03*
X227940000Y-124521367D03*
X230480000Y-124521367D03*
X233020000Y-124521367D03*
X235560000Y-124521367D03*
X238100000Y-124521367D03*
X240640000Y-124521367D03*
X243180000Y-124521367D03*
%TD*%
D20*
%TO.C,RFG1*%
X399631787Y-286925478D03*
X397981787Y-286925478D03*
%TD*%
D21*
%TO.C,J60*%
X430784000Y-92202000D03*
D22*
X428244000Y-92202000D03*
X425704000Y-92202000D03*
X423164000Y-92202000D03*
X420624000Y-92202000D03*
X418084000Y-92202000D03*
X415544000Y-92202000D03*
X413004000Y-92202000D03*
X410464000Y-92202000D03*
X407924000Y-92202000D03*
%TD*%
D15*
%TO.C,H16*%
X435809040Y-92133246D03*
%TD*%
D13*
%TO.C,J49*%
X206200000Y-167000000D03*
X207450000Y-167000000D03*
X208700000Y-167000000D03*
X209950000Y-167000000D03*
X211200000Y-167000000D03*
X212450000Y-167000000D03*
X213700000Y-167000000D03*
X214950000Y-167000000D03*
X216200000Y-167000000D03*
X217450000Y-167000000D03*
D14*
X203650000Y-169900000D03*
X220000000Y-169900000D03*
%TD*%
D21*
%TO.C,J12*%
X296520000Y-80645000D03*
D22*
X296520000Y-83185000D03*
X296520000Y-85725000D03*
X296520000Y-88265000D03*
X296520000Y-90805000D03*
X296520000Y-93345000D03*
X296520000Y-95885000D03*
X296520000Y-98425000D03*
X296520000Y-100965000D03*
X296520000Y-103505000D03*
%TD*%
D18*
%TO.C,J18*%
X200000000Y-129667161D03*
D19*
X200000000Y-132207161D03*
X200000000Y-134747161D03*
X200000000Y-137287161D03*
X200000000Y-139827161D03*
X200000000Y-142367161D03*
X200000000Y-144907161D03*
X200000000Y-147447161D03*
X200000000Y-149987161D03*
X200000000Y-152527161D03*
%TD*%
D18*
%TO.C,J23*%
X296512877Y-129578912D03*
D19*
X296512877Y-132118912D03*
X296512877Y-134658912D03*
X296512877Y-137198912D03*
X296512877Y-139738912D03*
X296512877Y-142278912D03*
X296512877Y-144818912D03*
X296512877Y-147358912D03*
X296512877Y-149898912D03*
X296512877Y-152438912D03*
%TD*%
D23*
%TO.C,J69*%
X370876102Y-278016878D03*
D24*
X370876102Y-276016878D03*
X370876102Y-274016878D03*
%TD*%
D25*
%TO.C,C2*%
X378296148Y-292268887D03*
X378296148Y-290718887D03*
%TD*%
D18*
%TO.C,J43*%
X383000000Y-222240000D03*
D19*
X383000000Y-219700000D03*
X383000000Y-217160000D03*
X383000000Y-214620000D03*
X383000000Y-212080000D03*
X383000000Y-209540000D03*
X383000000Y-207000000D03*
X383000000Y-204460000D03*
X383000000Y-201920000D03*
X383000000Y-199380000D03*
%TD*%
D23*
%TO.C,J70*%
X382206329Y-278000000D03*
D24*
X382206329Y-276000000D03*
X382206329Y-274000000D03*
%TD*%
D18*
%TO.C,J16*%
X248260000Y-129601367D03*
D19*
X248260000Y-132141367D03*
X248260000Y-134681367D03*
X248260000Y-137221367D03*
X248260000Y-139761367D03*
X248260000Y-142301367D03*
X248260000Y-144841367D03*
X248260000Y-147381367D03*
X248260000Y-149921367D03*
X248260000Y-152461367D03*
%TD*%
D26*
%TO.C,J46*%
X287600000Y-211625000D03*
X287600000Y-210375000D03*
X287600000Y-209125000D03*
X287600000Y-207875000D03*
X287600000Y-206625000D03*
X287600000Y-205375000D03*
X287600000Y-204125000D03*
X287600000Y-202875000D03*
X287600000Y-201625000D03*
X287600000Y-200375000D03*
D27*
X290500000Y-214175000D03*
X290500000Y-197825000D03*
%TD*%
D15*
%TO.C,H73*%
X402000000Y-120000000D03*
%TD*%
D28*
%TO.C,R1*%
X396053214Y-300299488D03*
X396053214Y-302124488D03*
%TD*%
D21*
%TO.C,J7*%
X220320000Y-75565000D03*
D22*
X222860000Y-75565000D03*
X225400000Y-75565000D03*
X227940000Y-75565000D03*
X230480000Y-75565000D03*
X233020000Y-75565000D03*
X235560000Y-75565000D03*
X238100000Y-75565000D03*
X240640000Y-75565000D03*
X243180000Y-75565000D03*
%TD*%
D21*
%TO.C,J2*%
X166980000Y-103505000D03*
D22*
X166980000Y-100965000D03*
X166980000Y-98425000D03*
X166980000Y-95885000D03*
X166980000Y-93345000D03*
X166980000Y-90805000D03*
X166980000Y-88265000D03*
X166980000Y-85725000D03*
X166980000Y-83185000D03*
X166980000Y-80645000D03*
%TD*%
D29*
%TO.C,J47*%
X420625000Y-275400000D03*
X419375000Y-275400000D03*
X418125000Y-275400000D03*
X416875000Y-275400000D03*
X415625000Y-275400000D03*
X414375000Y-275400000D03*
X413125000Y-275400000D03*
X411875000Y-275400000D03*
X410625000Y-275400000D03*
X409375000Y-275400000D03*
D30*
X423175000Y-272500000D03*
X406825000Y-272500000D03*
%TD*%
D18*
%TO.C,J26*%
X263522882Y-152434357D03*
D19*
X263522882Y-149894357D03*
X263522882Y-147354357D03*
X263522882Y-144814357D03*
X263522882Y-142274357D03*
X263522882Y-139734357D03*
X263522882Y-137194357D03*
X263522882Y-134654357D03*
X263522882Y-132114357D03*
X263522882Y-129574357D03*
%TD*%
D10*
%TO.C,H53*%
X301000000Y-297220000D03*
%TD*%
D31*
%TO.C,D1*%
X374600102Y-273966878D03*
X374600102Y-278366878D03*
%TD*%
D15*
%TO.C,H5*%
X215240000Y-75565000D03*
%TD*%
%TO.C,H81*%
X139000000Y-318000000D03*
%TD*%
D10*
%TO.C,H27*%
X153139939Y-225842682D03*
%TD*%
D21*
%TO.C,J10*%
X291440000Y-108585000D03*
D22*
X288900000Y-108585000D03*
X286360000Y-108585000D03*
X283820000Y-108585000D03*
X281280000Y-108585000D03*
X278740000Y-108585000D03*
X276200000Y-108585000D03*
X273660000Y-108585000D03*
X271120000Y-108585000D03*
X268580000Y-108585000D03*
%TD*%
D15*
%TO.C,H33*%
X166980000Y-124521367D03*
%TD*%
%TO.C,H56*%
X269016234Y-181000000D03*
%TD*%
D10*
%TO.C,H64*%
X234516234Y-207500000D03*
%TD*%
D29*
%TO.C,J40*%
X235625000Y-292900000D03*
X234375000Y-292900000D03*
D30*
X238175000Y-290000000D03*
X231825000Y-290000000D03*
%TD*%
D18*
%TO.C,J44*%
X383134988Y-183291774D03*
D19*
X383134988Y-180751774D03*
X383134988Y-178211774D03*
X383134988Y-175671774D03*
X383134988Y-173131774D03*
X383134988Y-170591774D03*
X383134988Y-168051774D03*
X383134988Y-165511774D03*
X383134988Y-162971774D03*
X383134988Y-160431774D03*
%TD*%
D15*
%TO.C,H37*%
X215240000Y-124521367D03*
%TD*%
%TO.C,H40*%
X248260000Y-124521367D03*
%TD*%
D32*
%TO.C,RPF1*%
X388406384Y-292717165D03*
X388406384Y-291067165D03*
%TD*%
D21*
%TO.C,J29*%
X402844000Y-87122000D03*
D22*
X402844000Y-84582000D03*
X402844000Y-82042000D03*
X402844000Y-79502000D03*
X402844000Y-76962000D03*
X402844000Y-74422000D03*
X402844000Y-71882000D03*
X402844000Y-69342000D03*
X402844000Y-66802000D03*
X402844000Y-64262000D03*
%TD*%
D33*
%TO.C,J72*%
X405750000Y-302750000D03*
%TD*%
D26*
%TO.C,J51*%
X286000000Y-248500000D03*
X286000000Y-247250000D03*
X286000000Y-246000000D03*
X286000000Y-244750000D03*
X286000000Y-243500000D03*
X286000000Y-242250000D03*
X286000000Y-241000000D03*
X286000000Y-239750000D03*
X286000000Y-238500000D03*
X286000000Y-237250000D03*
X286000000Y-236000000D03*
X286000000Y-234750000D03*
X286000000Y-233500000D03*
X286000000Y-232250000D03*
X286000000Y-231000000D03*
D27*
X288900000Y-251050000D03*
X288900000Y-228450000D03*
%TD*%
D10*
%TO.C,H31*%
X153167000Y-297936000D03*
%TD*%
D18*
%TO.C,J45*%
X219281237Y-185974855D03*
D19*
X219281237Y-188514855D03*
X219281237Y-191054855D03*
X219281237Y-193594855D03*
X219281237Y-196134855D03*
X219281237Y-198674855D03*
X219281237Y-201214855D03*
X219281237Y-203754855D03*
X219281237Y-206294855D03*
X219281237Y-208834855D03*
%TD*%
D21*
%TO.C,J30*%
X310980000Y-202890000D03*
D22*
X310980000Y-200350000D03*
X310980000Y-197810000D03*
X310980000Y-195270000D03*
X310980000Y-192730000D03*
X310980000Y-190190000D03*
X310980000Y-187650000D03*
X310980000Y-185110000D03*
X310980000Y-182570000D03*
X310980000Y-180030000D03*
%TD*%
D15*
%TO.C,H15*%
X402848433Y-92235289D03*
%TD*%
D34*
%TO.C,IC1*%
X372727137Y-305191360D03*
X373227137Y-305191360D03*
X373727137Y-305191360D03*
D35*
X374664637Y-304253860D03*
X374664637Y-303753860D03*
X374664637Y-303253860D03*
D34*
X373727137Y-302316360D03*
X373227137Y-302316360D03*
X372727137Y-302316360D03*
D35*
X371789637Y-303253860D03*
X371789637Y-303753860D03*
X371789637Y-304253860D03*
D36*
X373227137Y-303753860D03*
%TD*%
D37*
%TO.C,C4*%
X370176102Y-301891878D03*
X370176102Y-303441878D03*
%TD*%
D18*
%TO.C,J15*%
X243180000Y-157541367D03*
D19*
X240640000Y-157541367D03*
X238100000Y-157541367D03*
X235560000Y-157541367D03*
X233020000Y-157541367D03*
X230480000Y-157541367D03*
X227940000Y-157541367D03*
X225400000Y-157541367D03*
X222860000Y-157541367D03*
X220320000Y-157541367D03*
%TD*%
D20*
%TO.C,RFG2*%
X399601102Y-284016878D03*
X397951102Y-284016878D03*
%TD*%
D18*
%TO.C,J24*%
X220552706Y-258435352D03*
D19*
X220552706Y-260975352D03*
X220552706Y-263515352D03*
X220552706Y-266055352D03*
X220552706Y-268595352D03*
X220552706Y-271135352D03*
X220552706Y-273675352D03*
X220552706Y-276215352D03*
X220552706Y-278755352D03*
X220552706Y-281295352D03*
%TD*%
D20*
%TO.C,R2*%
X390751102Y-302466878D03*
X389101102Y-302466878D03*
%TD*%
D21*
%TO.C,J11*%
X268580000Y-75565000D03*
D22*
X271120000Y-75565000D03*
X273660000Y-75565000D03*
X276200000Y-75565000D03*
X278740000Y-75565000D03*
X281280000Y-75565000D03*
X283820000Y-75565000D03*
X286360000Y-75565000D03*
X288900000Y-75565000D03*
X291440000Y-75565000D03*
%TD*%
D10*
%TO.C,H55*%
X343000000Y-297220000D03*
%TD*%
D20*
%TO.C,RFG3*%
X399551102Y-281116878D03*
X397901102Y-281116878D03*
%TD*%
D15*
%TO.C,H61*%
X344000000Y-208000000D03*
%TD*%
%TO.C,H36*%
X166980000Y-157541367D03*
%TD*%
D10*
%TO.C,*%
X456000000Y-236000000D03*
%TD*%
%TO.C,*%
X456000000Y-144000000D03*
%TD*%
D38*
%TO.C,mouse-bite-2.54mm-slot*%
X436791000Y-110828000D03*
X436791000Y-108628000D03*
X435991000Y-110828000D03*
X435991000Y-108628000D03*
X435191000Y-110828000D03*
X435191000Y-108628000D03*
%TD*%
D21*
%TO.C,J4*%
X200000000Y-80645000D03*
D22*
X200000000Y-83185000D03*
X200000000Y-85725000D03*
X200000000Y-88265000D03*
X200000000Y-90805000D03*
X200000000Y-93345000D03*
X200000000Y-95885000D03*
X200000000Y-98425000D03*
X200000000Y-100965000D03*
X200000000Y-103505000D03*
%TD*%
D15*
%TO.C,H77*%
X356000000Y-263000000D03*
%TD*%
%TO.C,H67*%
X153154000Y-249000000D03*
%TD*%
D39*
%TO.C,J36*%
X368715310Y-171438485D03*
X368715310Y-172688485D03*
X368715310Y-173938485D03*
X368715310Y-175188485D03*
X368715310Y-176438485D03*
X368715310Y-177688485D03*
X368715310Y-178938485D03*
X368715310Y-180188485D03*
X368715310Y-181438485D03*
X368715310Y-182688485D03*
D40*
X365815310Y-168888485D03*
X365815310Y-185238485D03*
%TD*%
D21*
%TO.C,J5*%
X215240000Y-103505000D03*
D22*
X215240000Y-100965000D03*
X215240000Y-98425000D03*
X215240000Y-95885000D03*
X215240000Y-93345000D03*
X215240000Y-90805000D03*
X215240000Y-88265000D03*
X215240000Y-85725000D03*
X215240000Y-83185000D03*
X215240000Y-80645000D03*
%TD*%
D10*
%TO.C,H25*%
X190985939Y-185964682D03*
%TD*%
D21*
%TO.C,J57*%
X294981088Y-190294288D03*
D22*
X294981088Y-192834288D03*
%TD*%
D10*
%TO.C,H51*%
X332000000Y-269220000D03*
%TD*%
D41*
%TO.C,R4*%
X391726102Y-292510375D03*
X391726102Y-291060375D03*
%TD*%
D42*
%TO.C,J55*%
X437380000Y-300636800D03*
D43*
X442460000Y-306986800D03*
X442460000Y-296826800D03*
X432300000Y-296826800D03*
X432300000Y-306986800D03*
%TD*%
D15*
%TO.C,H2*%
X200000000Y-75565000D03*
%TD*%
D21*
%TO.C,J32*%
X316090000Y-174980000D03*
D22*
X318630000Y-174980000D03*
X321170000Y-174980000D03*
X323710000Y-174980000D03*
X326250000Y-174980000D03*
X328790000Y-174980000D03*
X331330000Y-174980000D03*
X333870000Y-174980000D03*
X336410000Y-174980000D03*
X338950000Y-174980000D03*
%TD*%
D15*
%TO.C,H62*%
X310980000Y-174980000D03*
%TD*%
D10*
%TO.C,H20*%
X439860061Y-129157318D03*
%TD*%
D21*
%TO.C,J6*%
X243180000Y-108585000D03*
D22*
X240640000Y-108585000D03*
X238100000Y-108585000D03*
X235560000Y-108585000D03*
X233020000Y-108585000D03*
X230480000Y-108585000D03*
X227940000Y-108585000D03*
X225400000Y-108585000D03*
X222860000Y-108585000D03*
X220320000Y-108585000D03*
%TD*%
D23*
%TO.C,J71*%
X398671705Y-310739501D03*
D24*
X398671705Y-308739501D03*
X398671705Y-306739501D03*
%TD*%
D44*
%TO.C,J42*%
X363034631Y-250465723D03*
D45*
X363034631Y-247925723D03*
X363034631Y-245385723D03*
X363034631Y-242845723D03*
X363034631Y-240305723D03*
X363034631Y-237765723D03*
X363034631Y-235225723D03*
X363034631Y-232685723D03*
%TD*%
D18*
%TO.C,J13*%
X215282458Y-152472108D03*
D19*
X215282458Y-149932108D03*
X215282458Y-147392108D03*
X215282458Y-144852108D03*
X215282458Y-142312108D03*
X215282458Y-139772108D03*
X215282458Y-137232108D03*
X215282458Y-134692108D03*
X215282458Y-132152108D03*
X215282458Y-129612108D03*
%TD*%
D15*
%TO.C,H69*%
X344000000Y-174980000D03*
%TD*%
D21*
%TO.C,J61*%
X435864000Y-64262000D03*
D22*
X435864000Y-66802000D03*
X435864000Y-69342000D03*
X435864000Y-71882000D03*
X435864000Y-74422000D03*
X435864000Y-76962000D03*
X435864000Y-79502000D03*
X435864000Y-82042000D03*
X435864000Y-84582000D03*
X435864000Y-87122000D03*
%TD*%
D15*
%TO.C,H11*%
X263500000Y-108585000D03*
%TD*%
D10*
%TO.C,*%
X137000000Y-201000000D03*
%TD*%
D26*
%TO.C,J53*%
X276850000Y-293875000D03*
X276850000Y-292625000D03*
D27*
X279750000Y-296425000D03*
X279750000Y-290075000D03*
%TD*%
D15*
%TO.C,H9*%
X263500000Y-75565000D03*
%TD*%
D23*
%TO.C,J68*%
X374727102Y-292644878D03*
D24*
X374727102Y-290644878D03*
X374727102Y-288644878D03*
%TD*%
D46*
%TO.C,RPF2*%
X390182035Y-291086442D03*
X390182035Y-292736442D03*
%TD*%
D15*
%TO.C,H41*%
X263500000Y-124521367D03*
%TD*%
%TO.C,H12*%
X296520000Y-108585000D03*
%TD*%
D47*
%TO.C,J27*%
X346625000Y-247750000D03*
X347875000Y-247750000D03*
X349125000Y-247750000D03*
X350375000Y-247750000D03*
X351625000Y-247750000D03*
X352875000Y-247750000D03*
X354125000Y-247750000D03*
X355375000Y-247750000D03*
D14*
X344075000Y-250500000D03*
X357925000Y-250500000D03*
%TD*%
D13*
%TO.C,J38*%
X314786000Y-144600000D03*
X316036000Y-144600000D03*
X317286000Y-144600000D03*
X318536000Y-144600000D03*
X319786000Y-144600000D03*
X321036000Y-144600000D03*
X322286000Y-144600000D03*
X323536000Y-144600000D03*
X324786000Y-144600000D03*
D14*
X312236000Y-147500000D03*
X327336000Y-147500000D03*
%TD*%
D10*
%TO.C,H50*%
X301000000Y-283220000D03*
%TD*%
D15*
%TO.C,H48*%
X327273603Y-117000000D03*
%TD*%
%TO.C,H44*%
X263500000Y-157541367D03*
%TD*%
%TO.C,H1*%
X166980000Y-75565000D03*
%TD*%
D21*
%TO.C,J1*%
X172060000Y-75565000D03*
D22*
X174600000Y-75565000D03*
X177140000Y-75565000D03*
X179680000Y-75565000D03*
X182220000Y-75565000D03*
X184760000Y-75565000D03*
X187300000Y-75565000D03*
X189840000Y-75565000D03*
X192380000Y-75565000D03*
X194920000Y-75565000D03*
%TD*%
D15*
%TO.C,H82*%
X440000000Y-279000000D03*
%TD*%
D21*
%TO.C,J33*%
X344000000Y-180060000D03*
D22*
X344000000Y-182600000D03*
X344000000Y-185140000D03*
X344000000Y-187680000D03*
X344000000Y-190220000D03*
X344000000Y-192760000D03*
X344000000Y-195300000D03*
X344000000Y-197840000D03*
X344000000Y-200380000D03*
X344000000Y-202920000D03*
%TD*%
D15*
%TO.C,H7*%
X248260000Y-75565000D03*
%TD*%
D29*
%TO.C,J50*%
X356433056Y-135101719D03*
X355183056Y-135101719D03*
X353933056Y-135101719D03*
X352683056Y-135101719D03*
X351433056Y-135101719D03*
X350183056Y-135101719D03*
X348933056Y-135101719D03*
X347683056Y-135101719D03*
X346433056Y-135101719D03*
D30*
X358983056Y-132201719D03*
X343883056Y-132201719D03*
%TD*%
D37*
%TO.C,C5*%
X376449358Y-300291878D03*
X376449358Y-301841878D03*
%TD*%
D21*
%TO.C,J56*%
X284978000Y-192837784D03*
D22*
X284978000Y-190297784D03*
%TD*%
D48*
%TO.C,Q1*%
X378602631Y-307467606D03*
X379872631Y-307467606D03*
X381142631Y-307467606D03*
X382412631Y-307467606D03*
D49*
X380507631Y-304107606D03*
D50*
X378602631Y-302002606D03*
X379872631Y-302002606D03*
X381142631Y-302002606D03*
X382412631Y-302002606D03*
%TD*%
D10*
%TO.C,H19*%
X439860061Y-169035318D03*
%TD*%
D15*
%TO.C,H10*%
X296520000Y-75565000D03*
%TD*%
D18*
%TO.C,J67*%
X443344723Y-101737214D03*
D19*
X443344723Y-104277214D03*
X440804723Y-101737214D03*
X440804723Y-104277214D03*
X438264723Y-101737214D03*
X438264723Y-104277214D03*
X435724723Y-101737214D03*
X435724723Y-104277214D03*
X433184723Y-101737214D03*
X433184723Y-104277214D03*
X430644723Y-101737214D03*
X430644723Y-104277214D03*
X428104723Y-101737214D03*
X428104723Y-104277214D03*
X425564723Y-101737214D03*
X425564723Y-104277214D03*
X423024723Y-101737214D03*
X423024723Y-104277214D03*
X420484723Y-101737214D03*
X420484723Y-104277214D03*
X417944723Y-101737214D03*
X417944723Y-104277214D03*
X415404723Y-101737214D03*
X415404723Y-104277214D03*
X412864723Y-101737214D03*
X412864723Y-104277214D03*
X410324723Y-101737214D03*
X410324723Y-104277214D03*
X407784723Y-101737214D03*
X407784723Y-104277214D03*
X405244723Y-101737214D03*
X405244723Y-104277214D03*
X402704723Y-101737214D03*
X402704723Y-104277214D03*
X400164723Y-101737214D03*
X400164723Y-104277214D03*
X397624723Y-101737214D03*
X397624723Y-104277214D03*
X395084723Y-101737214D03*
X395084723Y-104277214D03*
%TD*%
D15*
%TO.C,H60*%
X191000000Y-235000000D03*
%TD*%
%TO.C,H8*%
X248260000Y-108585000D03*
%TD*%
%TO.C,H71*%
X402154000Y-202000000D03*
%TD*%
%TO.C,H59*%
X153000000Y-177000000D03*
%TD*%
D31*
%TO.C,D2*%
X378417511Y-273992396D03*
X378417511Y-278392396D03*
%TD*%
D10*
%TO.C,*%
X456000000Y-226000000D03*
%TD*%
D18*
%TO.C,J21*%
X268580000Y-124521367D03*
D19*
X271120000Y-124521367D03*
X273660000Y-124521367D03*
X276200000Y-124521367D03*
X278740000Y-124521367D03*
X281280000Y-124521367D03*
X283820000Y-124521367D03*
X286360000Y-124521367D03*
X288900000Y-124521367D03*
X291440000Y-124521367D03*
%TD*%
D51*
%TO.C,J73*%
X258750000Y-291980000D03*
X258750000Y-294520000D03*
%TD*%
D10*
%TO.C,H30*%
X191013000Y-258058000D03*
%TD*%
D52*
%TO.C,U1*%
X390198214Y-300097988D03*
X390698214Y-300097988D03*
X391198214Y-300097988D03*
X391698214Y-300097988D03*
X392198214Y-300097988D03*
X392698214Y-300097988D03*
X393198214Y-300097988D03*
D53*
X394148214Y-299147988D03*
X394148214Y-298647988D03*
X394148214Y-298147988D03*
X394148214Y-297647988D03*
X394148214Y-297147988D03*
D52*
X393198214Y-296197988D03*
X392698214Y-296197988D03*
X392198214Y-296197988D03*
X391698214Y-296197988D03*
X391198214Y-296197988D03*
X390698214Y-296197988D03*
X390198214Y-296197988D03*
D53*
X389248214Y-297147988D03*
X389248214Y-297647988D03*
X389248214Y-298147988D03*
X389248214Y-298647988D03*
X389248214Y-299147988D03*
D54*
X391698214Y-298147988D03*
%TD*%
D55*
%TO.C,RFB2*%
X397759413Y-293734830D03*
X398779413Y-293734830D03*
%TD*%
D15*
%TO.C,H76*%
X288000000Y-317000000D03*
%TD*%
D51*
%TO.C,J66*%
X289951596Y-192840456D03*
X289951596Y-190300456D03*
%TD*%
D10*
%TO.C,H28*%
X190985939Y-225842682D03*
%TD*%
%TO.C,H22*%
X440000000Y-250942000D03*
%TD*%
D56*
%TO.C,RP_FAULT1*%
X397356913Y-295766830D03*
X399181913Y-295766830D03*
%TD*%
D21*
%TO.C,J9*%
X263500000Y-103505000D03*
D22*
X263500000Y-100965000D03*
X263500000Y-98425000D03*
X263500000Y-95885000D03*
X263500000Y-93345000D03*
X263500000Y-90805000D03*
X263500000Y-88265000D03*
X263500000Y-85725000D03*
X263500000Y-83185000D03*
X263500000Y-80645000D03*
%TD*%
D10*
%TO.C,H49*%
X312000000Y-269220000D03*
%TD*%
D57*
%TO.C,L1*%
X385000000Y-295366153D03*
X381690000Y-295366153D03*
%TD*%
D21*
%TO.C,J59*%
X407924000Y-59182000D03*
D22*
X410464000Y-59182000D03*
X413004000Y-59182000D03*
X415544000Y-59182000D03*
X418084000Y-59182000D03*
X420624000Y-59182000D03*
X423164000Y-59182000D03*
X425704000Y-59182000D03*
X428244000Y-59182000D03*
X430784000Y-59182000D03*
%TD*%
D48*
%TO.C,Q2*%
X394031102Y-305826878D03*
X392761102Y-305826878D03*
X391491102Y-305826878D03*
X390221102Y-305826878D03*
D49*
X392126102Y-309186878D03*
D50*
X394031102Y-311291878D03*
X392761102Y-311291878D03*
X391491102Y-311291878D03*
X390221102Y-311291878D03*
%TD*%
D15*
%TO.C,H46*%
X360273603Y-117000000D03*
%TD*%
D29*
%TO.C,J48*%
X420625000Y-193000000D03*
X419375000Y-193000000D03*
X418125000Y-193000000D03*
X416875000Y-193000000D03*
X415625000Y-193000000D03*
X414375000Y-193000000D03*
X413125000Y-193000000D03*
X411875000Y-193000000D03*
X410625000Y-193000000D03*
X409375000Y-193000000D03*
D30*
X423175000Y-190100000D03*
X406825000Y-190100000D03*
%TD*%
D10*
%TO.C,H23*%
X440000000Y-211064000D03*
%TD*%
%TO.C,H26*%
X153139939Y-185964682D03*
%TD*%
D15*
%TO.C,H57*%
X269016234Y-214000000D03*
%TD*%
D10*
%TO.C,*%
X137000000Y-283000000D03*
%TD*%
D56*
%TO.C,RP_CHRG1*%
X397356913Y-297925830D03*
X399181913Y-297925830D03*
%TD*%
D21*
%TO.C,J3*%
X194920000Y-108585000D03*
D22*
X192380000Y-108585000D03*
X189840000Y-108585000D03*
X187300000Y-108585000D03*
X184760000Y-108585000D03*
X182220000Y-108585000D03*
X179680000Y-108585000D03*
X177140000Y-108585000D03*
X174600000Y-108585000D03*
X172060000Y-108585000D03*
%TD*%
D10*
%TO.C,H17*%
X402014061Y-169035318D03*
%TD*%
%TO.C,*%
X456000000Y-154000000D03*
%TD*%
D51*
%TO.C,J64*%
X271659616Y-292055693D03*
X271659616Y-294595693D03*
%TD*%
D58*
%TO.C,C1*%
X393901102Y-302466878D03*
X392351102Y-302466878D03*
%TD*%
D38*
%TO.C,mouse-bite-2.54mm-slot*%
X388164902Y-67099454D03*
X390364902Y-67099454D03*
X388164902Y-66299454D03*
X390364902Y-66299454D03*
X388164902Y-65499454D03*
X390364902Y-65499454D03*
%TD*%
D59*
%TO.C,J58*%
X255980000Y-56000000D03*
X255980000Y-58540000D03*
X258520000Y-56000000D03*
X258520000Y-58540000D03*
X261060000Y-56000000D03*
X261060000Y-58540000D03*
X263600000Y-56000000D03*
X263600000Y-58540000D03*
X266140000Y-56000000D03*
X266140000Y-58540000D03*
X268680000Y-56000000D03*
X268680000Y-58540000D03*
X271220000Y-56000000D03*
X271220000Y-58540000D03*
X273760000Y-56000000D03*
X273760000Y-58540000D03*
X276300000Y-56000000D03*
X276300000Y-58540000D03*
X278840000Y-56000000D03*
X278840000Y-58540000D03*
X281380000Y-56000000D03*
X281380000Y-58540000D03*
X283920000Y-56000000D03*
X283920000Y-58540000D03*
X286460000Y-56000000D03*
X286460000Y-58540000D03*
X289000000Y-56000000D03*
X289000000Y-58540000D03*
X291540000Y-56000000D03*
X291540000Y-58540000D03*
X294080000Y-56000000D03*
X294080000Y-58540000D03*
X296620000Y-56000000D03*
X296620000Y-58540000D03*
X299160000Y-56000000D03*
X299160000Y-58540000D03*
X301700000Y-56000000D03*
X301700000Y-58540000D03*
X304240000Y-56000000D03*
X304240000Y-58540000D03*
%TD*%
D15*
%TO.C,H78*%
X356000000Y-317000000D03*
%TD*%
%TO.C,H58*%
X236016234Y-214000000D03*
%TD*%
%TO.C,H68*%
X310980000Y-208000000D03*
%TD*%
%TO.C,H79*%
X382000000Y-59000000D03*
%TD*%
%TO.C,H14*%
X435847758Y-59193309D03*
%TD*%
D10*
%TO.C,H66*%
X234516234Y-187500000D03*
%TD*%
D15*
%TO.C,H70*%
X191000000Y-307000000D03*
%TD*%
D10*
%TO.C,*%
X137000000Y-273000000D03*
%TD*%
%TO.C,H24*%
X402154000Y-211064000D03*
%TD*%
D60*
%TO.C,C3*%
X386914386Y-300241878D03*
X386914386Y-303191878D03*
%TD*%
D15*
%TO.C,H45*%
X360273603Y-84000000D03*
%TD*%
%TO.C,H52*%
X236016234Y-181000000D03*
%TD*%
D18*
%TO.C,J19*%
X194920000Y-157541367D03*
D19*
X192380000Y-157541367D03*
X189840000Y-157541367D03*
X187300000Y-157541367D03*
X184760000Y-157541367D03*
X182220000Y-157541367D03*
X179680000Y-157541367D03*
X177140000Y-157541367D03*
X174600000Y-157541367D03*
X172060000Y-157541367D03*
%TD*%
D15*
%TO.C,H47*%
X327446103Y-83928900D03*
%TD*%
D61*
%TO.C,J25*%
X347336751Y-240794600D03*
D62*
X346066751Y-240794600D03*
X347336751Y-239524600D03*
X346066751Y-239524600D03*
D63*
X347336751Y-238254600D03*
D62*
X346066751Y-238254600D03*
X347336751Y-236984600D03*
X346066751Y-236984600D03*
X347336751Y-235714600D03*
X346066751Y-235714600D03*
%TD*%
D10*
%TO.C,H54*%
X343000000Y-283220000D03*
%TD*%
D15*
%TO.C,H80*%
X139000000Y-59000000D03*
%TD*%
%TO.C,H38*%
X215240000Y-157541367D03*
%TD*%
%TO.C,H35*%
X200000000Y-157541367D03*
%TD*%
%TO.C,H39*%
X248260000Y-157541367D03*
%TD*%
D39*
%TO.C,J35*%
X368511415Y-200324778D03*
X368511415Y-201574778D03*
X368511415Y-202824778D03*
X368511415Y-204074778D03*
X368511415Y-205324778D03*
X368511415Y-206574778D03*
X368511415Y-207824778D03*
X368511415Y-209074778D03*
X368511415Y-210324778D03*
X368511415Y-211574778D03*
D40*
X365611415Y-197774778D03*
X365611415Y-214124778D03*
%TD*%
D15*
%TO.C,H3*%
X166980000Y-108585000D03*
%TD*%
%TO.C,H72*%
X440000000Y-260000000D03*
%TD*%
D18*
%TO.C,J22*%
X291440000Y-157795367D03*
D19*
X288900000Y-157795367D03*
X286360000Y-157795367D03*
X283820000Y-157795367D03*
X281280000Y-157795367D03*
X278740000Y-157795367D03*
X276200000Y-157795367D03*
X273660000Y-157795367D03*
X271120000Y-157795367D03*
X268580000Y-157795367D03*
%TD*%
D10*
%TO.C,H32*%
X191013000Y-297936000D03*
%TD*%
D18*
%TO.C,J20*%
X167008776Y-152472313D03*
D19*
X167008776Y-149932313D03*
X167008776Y-147392313D03*
X167008776Y-144852313D03*
X167008776Y-142312313D03*
X167008776Y-139772313D03*
X167008776Y-137232313D03*
X167008776Y-134692313D03*
X167008776Y-132152313D03*
X167008776Y-129612313D03*
%TD*%
D15*
%TO.C,H75*%
X288000000Y-263000000D03*
%TD*%
D21*
%TO.C,J31*%
X338920000Y-208000000D03*
D22*
X336380000Y-208000000D03*
X333840000Y-208000000D03*
X331300000Y-208000000D03*
X328760000Y-208000000D03*
X326220000Y-208000000D03*
X323680000Y-208000000D03*
X321140000Y-208000000D03*
X318600000Y-208000000D03*
X316060000Y-208000000D03*
%TD*%
D64*
%TO.C,RFB1*%
X397825413Y-292083830D03*
X399475413Y-292083830D03*
%TD*%
D29*
%TO.C,J39*%
X330500000Y-231000000D03*
X329250000Y-231000000D03*
X328000000Y-231000000D03*
X326750000Y-231000000D03*
X325500000Y-231000000D03*
X324250000Y-231000000D03*
X323000000Y-231000000D03*
X321750000Y-231000000D03*
X320500000Y-231000000D03*
X319250000Y-231000000D03*
X318000000Y-231000000D03*
X316750000Y-231000000D03*
X315500000Y-231000000D03*
X314250000Y-231000000D03*
X313000000Y-231000000D03*
D30*
X333050000Y-228100000D03*
X310450000Y-228100000D03*
%TD*%
D15*
%TO.C,H6*%
X215240000Y-108585000D03*
%TD*%
%TO.C,H34*%
X200000000Y-124521367D03*
%TD*%
D10*
%TO.C,H18*%
X402014061Y-129157318D03*
%TD*%
D20*
%TO.C,RFV2*%
X395401730Y-284033737D03*
X393751730Y-284033737D03*
%TD*%
D65*
%TO.C,J65*%
X239682000Y-225000000D03*
D66*
X237142000Y-225000000D03*
X234602000Y-225000000D03*
%TD*%
D18*
%TO.C,J17*%
X172060000Y-124521367D03*
D19*
X174600000Y-124521367D03*
X177140000Y-124521367D03*
X179680000Y-124521367D03*
X182220000Y-124521367D03*
X184760000Y-124521367D03*
X187300000Y-124521367D03*
X189840000Y-124521367D03*
X192380000Y-124521367D03*
X194920000Y-124521367D03*
%TD*%
D10*
%TO.C,*%
X137000000Y-211000000D03*
%TD*%
D15*
%TO.C,H4*%
X200000000Y-108585000D03*
%TD*%
%TO.C,H74*%
X439860061Y-178000000D03*
%TD*%
D20*
%TO.C,RFV3*%
X395361102Y-281116878D03*
X393711102Y-281116878D03*
%TD*%
D47*
%TO.C,J28*%
X376625000Y-241750000D03*
X377875000Y-241750000D03*
X379125000Y-241750000D03*
X380375000Y-241750000D03*
X381625000Y-241750000D03*
X382875000Y-241750000D03*
X384125000Y-241750000D03*
X385375000Y-241750000D03*
D14*
X374075000Y-244500000D03*
X387925000Y-244500000D03*
%TD*%
D10*
%TO.C,H29*%
X153167000Y-258058000D03*
%TD*%
D67*
%TO.C,J63*%
X303153241Y-236764875D03*
D68*
X305693241Y-236764875D03*
X308233241Y-236764875D03*
X310773241Y-236764875D03*
X313313241Y-236764875D03*
X315853241Y-236764875D03*
X318393241Y-236764875D03*
X320933241Y-236764875D03*
X323473241Y-236764875D03*
X326013241Y-236764875D03*
X328553241Y-236764875D03*
X331093241Y-236764875D03*
X333633241Y-236764875D03*
X336173241Y-236764875D03*
X338713241Y-236764875D03*
%TD*%
D15*
%TO.C,H13*%
X402906507Y-59185761D03*
%TD*%
%TO.C,H43*%
X296520000Y-157541367D03*
%TD*%
D26*
%TO.C,J37*%
X287600000Y-182625000D03*
X287600000Y-181375000D03*
X287600000Y-180125000D03*
X287600000Y-178875000D03*
X287600000Y-177625000D03*
X287600000Y-176375000D03*
X287600000Y-175125000D03*
X287600000Y-173875000D03*
X287600000Y-172625000D03*
X287600000Y-171375000D03*
D27*
X290500000Y-185175000D03*
X290500000Y-168825000D03*
%TD*%
D42*
%TO.C,J54*%
X418800000Y-300636800D03*
D43*
X423880000Y-306986800D03*
X423880000Y-296826800D03*
X413720000Y-296826800D03*
X413720000Y-306986800D03*
%TD*%
D69*
%TO.C,F1*%
X408472036Y-306367566D03*
X405612036Y-306367566D03*
%TD*%
D21*
%TO.C,J8*%
X248260000Y-80645000D03*
D22*
X248260000Y-83185000D03*
X248260000Y-85725000D03*
X248260000Y-88265000D03*
X248260000Y-90805000D03*
X248260000Y-93345000D03*
X248260000Y-95885000D03*
X248260000Y-98425000D03*
X248260000Y-100965000D03*
X248260000Y-103505000D03*
%TD*%
D20*
%TO.C,RFV1*%
X395419740Y-286909215D03*
X393769740Y-286909215D03*
%TD*%
D70*
%TO.C,J52*%
X236225000Y-229595000D03*
X237225000Y-229595000D03*
X238225000Y-229595000D03*
D71*
X239525000Y-233495000D03*
X234925000Y-233495000D03*
%TD*%
D70*
%TO.C,J41*%
X336283000Y-144100000D03*
X337283000Y-144100000D03*
X338283000Y-144100000D03*
D71*
X339583000Y-148000000D03*
X334983000Y-148000000D03*
%TD*%
M02*
