%TF.GenerationSoftware,KiCad,Pcbnew,10.0.5*%
%TF.CreationDate,2026-10-02T22:21:21-03:00*%
%TF.ProjectId,EGSE,45475345-2e6b-4696-9361-645f70636258,rev?*%
%TF.SameCoordinates,Original*%
%TF.FileFunction,Profile,NP*%
%FSLAX46Y46*%
G04 Gerber Fmt 4.6, Leading zero omitted, Abs format (unit mm)*
G04 Created by KiCad (PCBNEW 10.0.5) date 2026-10-02 22:21:21*
%MOMM*%
%LPD*%
G01*
G04 APERTURE LIST*
%TA.AperFunction,Profile*%
%ADD10C,0.100000*%
%TD*%
G04 APERTURE END LIST*
D10*
X133000000Y-56000000D02*
G75*
G02*
X136000000Y-53000000I3000000J0D01*
G01*
X133000000Y-321000000D02*
X133000000Y-56000000D01*
X136000000Y-53000000D02*
X385000000Y-53000000D01*
X136000000Y-324000000D02*
G75*
G02*
X133000000Y-321000000I0J3000000D01*
G01*
X136000000Y-324000000D02*
X456998762Y-324000000D01*
X242000000Y-233000000D02*
X242000000Y-235000000D01*
X242000000Y-233000000D02*
G75*
G02*
X243000000Y-232000000I1000000J0D01*
G01*
X242000000Y-288000000D02*
X242000000Y-290000000D01*
X242000000Y-288000000D02*
G75*
G02*
X243000000Y-287000000I1000000J0D01*
G01*
X243000000Y-236000000D02*
G75*
G02*
X242000000Y-235000000I0J1000000D01*
G01*
X243000000Y-236000000D02*
X255000000Y-236000000D01*
X243000000Y-291000000D02*
G75*
G02*
X242000000Y-290000000I0J1000000D01*
G01*
X243000000Y-291000000D02*
X255000000Y-291000000D01*
X255000000Y-232000000D02*
X243000000Y-232000000D01*
X255000000Y-232000000D02*
G75*
G02*
X256000000Y-233000000I0J-1000000D01*
G01*
X255000000Y-287000000D02*
X243000000Y-287000000D01*
X255000000Y-287000000D02*
G75*
G02*
X256000000Y-288000000I0J-1000000D01*
G01*
X256000000Y-235000000D02*
G75*
G02*
X255000000Y-236000000I-1000000J0D01*
G01*
X256000000Y-235000000D02*
X256000000Y-233000000D01*
X256000000Y-290000000D02*
G75*
G02*
X255000000Y-291000000I-1000000J0D01*
G01*
X256000000Y-290000000D02*
X256000000Y-288000000D01*
X296003306Y-215000000D02*
X295996693Y-219000000D01*
X296003306Y-215000000D02*
G75*
G02*
X297003306Y-214000006I999994J0D01*
G01*
X297003307Y-219997765D02*
G75*
G02*
X295996696Y-219000000I-8807J997765D01*
G01*
X297003307Y-219997766D02*
X317000000Y-220002233D01*
X298000000Y-186000000D02*
X298000000Y-198000000D01*
X298000000Y-186000000D02*
G75*
G02*
X299000000Y-185000000I1000000J0D01*
G01*
X299000000Y-199000000D02*
G75*
G02*
X298000000Y-198000000I0J1000000D01*
G01*
X299000000Y-199000000D02*
X303000000Y-199000000D01*
X303000000Y-185000000D02*
X299000000Y-185000000D01*
X303000000Y-185000000D02*
G75*
G02*
X304000000Y-186000000I0J-1000000D01*
G01*
X304000000Y-198000000D02*
G75*
G02*
X303000000Y-199000000I-1000000J0D01*
G01*
X304000000Y-198000000D02*
X304000000Y-186000000D01*
X312741378Y-156000000D02*
X312741378Y-160000000D01*
X312741378Y-156000000D02*
G75*
G02*
X313741378Y-154999978I1000022J0D01*
G01*
X313000000Y-180000000D02*
X313000000Y-203000000D01*
X313000000Y-180000000D02*
G75*
G02*
X316000000Y-177000000I3000000J0D01*
G01*
X313741378Y-161000000D02*
G75*
G02*
X312741400Y-160000000I22J1000000D01*
G01*
X313741378Y-161000000D02*
X325741378Y-161000000D01*
X316000000Y-206000000D02*
G75*
G02*
X313000000Y-203000000I0J3000000D01*
G01*
X316000000Y-206000000D02*
X339000000Y-206000000D01*
X317006613Y-213999943D02*
G75*
G02*
X318006612Y-214974046I-13J-1000357D01*
G01*
X317006613Y-214000000D02*
X297003306Y-214000000D01*
X318000000Y-219002233D02*
X318006613Y-214974046D01*
X318000033Y-219002233D02*
G75*
G02*
X317000000Y-220002233I-1000033J33D01*
G01*
X325741378Y-155000000D02*
X313741378Y-155000000D01*
X325741378Y-155000000D02*
G75*
G02*
X326741400Y-156000000I22J-1000000D01*
G01*
X326741378Y-160000000D02*
G75*
G02*
X325741378Y-160999978I-999978J0D01*
G01*
X326741378Y-160000000D02*
X326741378Y-156000000D01*
X339000000Y-177000000D02*
X316000000Y-177000000D01*
X339000000Y-177000000D02*
G75*
G02*
X342000000Y-180000000I0J-3000000D01*
G01*
X342000000Y-203000000D02*
G75*
G02*
X339000000Y-206000000I-3000000J0D01*
G01*
X342000000Y-203000000D02*
X342000000Y-180000000D01*
X352000000Y-186000000D02*
X352000000Y-198000000D01*
X352000000Y-186000000D02*
G75*
G02*
X353000000Y-185000000I1000000J0D01*
G01*
X353000000Y-199000000D02*
G75*
G02*
X352000000Y-198000000I0J1000000D01*
G01*
X353000000Y-199000000D02*
X357000000Y-199000000D01*
X357000000Y-185000000D02*
X353000000Y-185000000D01*
X357000000Y-185000000D02*
G75*
G02*
X358000000Y-186000000I0J-1000000D01*
G01*
X358000000Y-198000000D02*
G75*
G02*
X357000000Y-199000000I-1000000J0D01*
G01*
X358000000Y-198000000D02*
X358000000Y-186000000D01*
X385000000Y-53000000D02*
G75*
G02*
X388000000Y-56000000I0J-3000000D01*
G01*
X387994902Y-68629454D02*
X388000581Y-93009300D01*
X388000000Y-56000000D02*
X387994902Y-63969454D01*
X388000000Y-104000000D02*
X388000000Y-105000000D01*
X388000000Y-104000000D02*
X388000581Y-93009300D01*
X388000000Y-105000000D02*
X388000000Y-108000000D01*
X390525000Y-55854600D02*
G75*
G02*
X393542576Y-53033833I3017600J-203700D01*
G01*
X390534902Y-63969454D02*
X390525000Y-55854600D01*
X390534902Y-68629454D02*
X390540581Y-93009300D01*
X390540581Y-93009300D02*
X390484520Y-105447680D01*
X391000000Y-111000000D02*
G75*
G02*
X388000000Y-108000000I0J3000000D01*
G01*
X391000000Y-111000000D02*
X404310400Y-110998000D01*
X393484520Y-108447680D02*
G75*
G02*
X390484520Y-105447680I-20J2999980D01*
G01*
X393542576Y-53033853D02*
X445000000Y-53000000D01*
X404310400Y-108458000D02*
X393484520Y-108447680D01*
X404310400Y-108458000D02*
X433661000Y-108458000D01*
X404310400Y-110998000D02*
X433661000Y-110998000D01*
X438321000Y-108458000D02*
X444999613Y-108464050D01*
X438321000Y-110998000D02*
X457000000Y-111000000D01*
X445000000Y-53000000D02*
G75*
G02*
X448000013Y-55464048I56100J-2990000D01*
G01*
X447999613Y-105464050D02*
G75*
G02*
X444999613Y-108464013I-3000013J50D01*
G01*
X448000000Y-55464050D02*
X447999613Y-105464050D01*
X457000000Y-111000000D02*
G75*
G02*
X460000000Y-114000000I0J-3000000D01*
G01*
X460000000Y-321000000D02*
G75*
G02*
X456998762Y-324000001I-3002000J2000D01*
G01*
X460000000Y-321000000D02*
X460000000Y-114000000D01*
%TO.C,mouse-bite-2.54mm-slot*%
X433661000Y-108458000D02*
G75*
G02*
X433661000Y-110998000I0J-1270000D01*
G01*
X438321000Y-110998000D02*
G75*
G02*
X438321000Y-108458000I0J1270000D01*
G01*
X387994902Y-68629454D02*
G75*
G02*
X390534902Y-68629454I1270000J0D01*
G01*
X390534902Y-63969454D02*
G75*
G02*
X387994902Y-63969454I-1270000J0D01*
G01*
%TD*%
M02*
