%TF.GenerationSoftware,KiCad,Pcbnew,10.0.5*%
%TF.CreationDate,2026-10-02T22:24:03-03:00*%
%TF.ProjectId,PQ_EPS,50515f45-5053-42e6-9b69-6361645f7063,1.3*%
%TF.SameCoordinates,Original*%
%TF.FileFunction,Legend,Top*%
%TF.FilePolarity,Positive*%
%FSLAX46Y46*%
G04 Gerber Fmt 4.6, Leading zero omitted, Abs format (unit mm)*
G04 Created by KiCad (PCBNEW 10.0.5) date 2026-10-02 22:24:03*
%MOMM*%
%LPD*%
G01*
G04 APERTURE LIST*
G04 Aperture macros list*
%AMRoundRect*
0 Rectangle with rounded corners*
0 $1 Rounding radius*
0 $2 $3 $4 $5 $6 $7 $8 $9 X,Y pos of 4 corners*
0 Add a 4 corners polygon primitive as box body*
4,1,4,$2,$3,$4,$5,$6,$7,$8,$9,$2,$3,0*
0 Add four circle primitives for the rounded corners*
1,1,$1+$1,$2,$3*
1,1,$1+$1,$4,$5*
1,1,$1+$1,$6,$7*
1,1,$1+$1,$8,$9*
0 Add four rect primitives between the rounded corners*
20,1,$1+$1,$2,$3,$4,$5,0*
20,1,$1+$1,$4,$5,$6,$7,0*
20,1,$1+$1,$6,$7,$8,$9,0*
20,1,$1+$1,$8,$9,$2,$3,0*%
G04 Aperture macros list end*
%ADD10C,0.000000*%
%ADD11C,0.150000*%
%ADD12C,0.120000*%
%ADD13C,0.100000*%
%ADD14C,0.200000*%
%ADD15R,1.700000X1.700000*%
%ADD16O,1.700000X1.700000*%
%ADD17R,1.180000X4.400000*%
%ADD18RoundRect,0.200000X-0.275000X0.200000X-0.275000X-0.200000X0.275000X-0.200000X0.275000X0.200000X0*%
%ADD19RoundRect,0.225000X-0.225000X-0.250000X0.225000X-0.250000X0.225000X0.250000X-0.225000X0.250000X0*%
%ADD20RoundRect,0.250000X0.325000X0.650000X-0.325000X0.650000X-0.325000X-0.650000X0.325000X-0.650000X0*%
%ADD21RoundRect,0.062500X-0.350000X-0.062500X0.350000X-0.062500X0.350000X0.062500X-0.350000X0.062500X0*%
%ADD22RoundRect,0.062500X-0.062500X-0.350000X0.062500X-0.350000X0.062500X0.350000X-0.062500X0.350000X0*%
%ADD23R,1.600000X1.600000*%
%ADD24RoundRect,0.250000X-0.262500X-0.450000X0.262500X-0.450000X0.262500X0.450000X-0.262500X0.450000X0*%
%ADD25RoundRect,0.200000X-0.200000X-0.275000X0.200000X-0.275000X0.200000X0.275000X-0.200000X0.275000X0*%
%ADD26RoundRect,0.200000X0.275000X-0.200000X0.275000X0.200000X-0.275000X0.200000X-0.275000X-0.200000X0*%
%ADD27RoundRect,0.225000X-0.250000X0.225000X-0.250000X-0.225000X0.250000X-0.225000X0.250000X0.225000X0*%
%ADD28RoundRect,0.218750X0.381250X-0.218750X0.381250X0.218750X-0.381250X0.218750X-0.381250X-0.218750X0*%
%ADD29C,6.400000*%
%ADD30RoundRect,0.135000X-0.185000X0.135000X-0.185000X-0.135000X0.185000X-0.135000X0.185000X0.135000X0*%
%ADD31RoundRect,0.100000X0.637500X0.100000X-0.637500X0.100000X-0.637500X-0.100000X0.637500X-0.100000X0*%
%ADD32RoundRect,0.062500X-0.362500X-0.062500X0.362500X-0.062500X0.362500X0.062500X-0.362500X0.062500X0*%
%ADD33RoundRect,0.062500X-0.062500X-0.362500X0.062500X-0.362500X0.062500X0.362500X-0.062500X0.362500X0*%
%ADD34R,2.650000X3.650000*%
%ADD35RoundRect,0.250000X0.450000X-0.262500X0.450000X0.262500X-0.450000X0.262500X-0.450000X-0.262500X0*%
%ADD36R,0.610000X1.270000*%
%ADD37R,3.910000X3.810000*%
%ADD38R,0.610000X1.020000*%
%ADD39RoundRect,0.225000X0.225000X0.250000X-0.225000X0.250000X-0.225000X-0.250000X0.225000X-0.250000X0*%
%ADD40RoundRect,0.225000X0.250000X-0.225000X0.250000X0.225000X-0.250000X0.225000X-0.250000X-0.225000X0*%
G04 APERTURE END LIST*
D10*
G36*
X116643292Y-70855077D02*
G01*
X116653523Y-70868871D01*
X116665056Y-70881596D01*
X116700203Y-70916743D01*
X116712928Y-70928276D01*
X116726722Y-70938507D01*
X116741452Y-70947336D01*
X116756977Y-70954678D01*
X116773147Y-70960464D01*
X116788382Y-70964280D01*
X116788382Y-70983684D01*
X116744448Y-71027618D01*
X116682316Y-71027618D01*
X116638382Y-70983684D01*
X116638382Y-70846884D01*
X116643292Y-70855077D01*
G37*
G36*
X116788382Y-44921552D02*
G01*
X116788382Y-47581719D01*
X116773147Y-47585535D01*
X116756977Y-47591321D01*
X116741452Y-47598663D01*
X116726722Y-47607492D01*
X116712928Y-47617723D01*
X116700203Y-47629256D01*
X116665056Y-47664403D01*
X116653523Y-47677128D01*
X116643292Y-47690922D01*
X116638382Y-47699115D01*
X116638382Y-44921552D01*
X116682316Y-44877618D01*
X116744448Y-44877618D01*
X116788382Y-44921552D01*
G37*
G36*
X91300535Y-42887852D02*
G01*
X91306321Y-42904022D01*
X91313663Y-42919547D01*
X91322492Y-42934277D01*
X91332723Y-42948071D01*
X91344256Y-42960796D01*
X91379403Y-42995943D01*
X91392128Y-43007476D01*
X91405922Y-43017707D01*
X91420652Y-43026536D01*
X91422939Y-43027618D01*
X88682316Y-43027618D01*
X88638382Y-42983684D01*
X88638382Y-42921552D01*
X88682316Y-42877618D01*
X91297971Y-42877618D01*
X91300535Y-42887852D01*
G37*
G36*
X114788382Y-42921552D02*
G01*
X114788382Y-42983684D01*
X114744448Y-43027618D01*
X114553060Y-43027618D01*
X114555347Y-43026536D01*
X114570077Y-43017707D01*
X114583871Y-43007476D01*
X114596596Y-42995943D01*
X114631743Y-42960796D01*
X114643276Y-42948071D01*
X114653507Y-42934277D01*
X114662336Y-42919547D01*
X114669678Y-42904022D01*
X114675464Y-42887852D01*
X114678028Y-42877618D01*
X114744448Y-42877618D01*
X114788382Y-42921552D01*
G37*
G36*
X116700203Y-70916743D02*
G01*
X116712928Y-70928276D01*
X116726722Y-70938507D01*
X116741452Y-70947336D01*
X116756977Y-70954678D01*
X116773147Y-70960464D01*
X116789785Y-70964632D01*
X116790282Y-70970092D01*
X116765325Y-71011956D01*
X116742926Y-71021555D01*
X116320723Y-71235122D01*
X115928927Y-71500381D01*
X115573833Y-71813069D01*
X115261145Y-72168163D01*
X114995886Y-72559959D01*
X114782319Y-72982162D01*
X114772720Y-73004561D01*
X114730856Y-73029518D01*
X114682319Y-73025102D01*
X114645646Y-72992999D01*
X114634847Y-72945473D01*
X114644447Y-72923074D01*
X114741706Y-72696502D01*
X114991734Y-72271456D01*
X115293521Y-71881453D01*
X115642217Y-71532757D01*
X116032220Y-71230970D01*
X116457266Y-70980942D01*
X116672156Y-70888697D01*
X116700203Y-70916743D01*
G37*
G36*
X114788382Y-72921552D02*
G01*
X114788382Y-72983684D01*
X114744448Y-73027618D01*
X112054207Y-73027618D01*
X112046943Y-73019603D01*
X112011796Y-72984456D01*
X111999071Y-72972923D01*
X111985277Y-72962692D01*
X111970547Y-72953863D01*
X111955022Y-72946521D01*
X111938852Y-72940735D01*
X111922193Y-72936562D01*
X111905205Y-72934042D01*
X111888053Y-72933200D01*
X111838347Y-72933200D01*
X88968053Y-72933200D01*
X88918347Y-72933200D01*
X88901194Y-72934042D01*
X88884206Y-72936562D01*
X88867547Y-72940735D01*
X88851377Y-72946521D01*
X88835852Y-72953863D01*
X88821122Y-72962692D01*
X88807328Y-72972923D01*
X88794603Y-72984456D01*
X88759456Y-73019603D01*
X88752192Y-73027618D01*
X88682316Y-73027618D01*
X88638382Y-72983684D01*
X88638382Y-72921552D01*
X88682316Y-72877618D01*
X114744448Y-72877618D01*
X114788382Y-72921552D01*
G37*
G36*
X86788382Y-44921552D02*
G01*
X86788382Y-70983684D01*
X86744448Y-71027618D01*
X86682316Y-71027618D01*
X86638382Y-70983684D01*
X86638382Y-68339523D01*
X86640077Y-68338507D01*
X86653871Y-68328276D01*
X86666596Y-68316743D01*
X86701743Y-68281596D01*
X86713276Y-68268871D01*
X86723507Y-68255077D01*
X86732336Y-68240347D01*
X86739678Y-68224822D01*
X86745464Y-68208652D01*
X86749637Y-68191993D01*
X86752157Y-68175005D01*
X86753000Y-68157853D01*
X86753000Y-68108147D01*
X86753000Y-45237853D01*
X86753000Y-45188147D01*
X86752157Y-45170994D01*
X86749637Y-45154006D01*
X86745464Y-45137347D01*
X86739678Y-45121177D01*
X86732336Y-45105652D01*
X86723507Y-45090922D01*
X86713276Y-45077128D01*
X86701743Y-45064403D01*
X86666596Y-45029256D01*
X86653871Y-45017723D01*
X86640077Y-45007492D01*
X86638382Y-45006476D01*
X86638382Y-44921552D01*
X86682316Y-44877618D01*
X86744448Y-44877618D01*
X86788382Y-44921552D01*
G37*
D11*
X86713382Y-70952619D02*
G75*
G02*
X88713381Y-72952618I-1499982J-3499981D01*
G01*
X88713381Y-42952618D02*
G75*
G02*
X86713375Y-44952600I-3499981J1500018D01*
G01*
X116713382Y-44952617D02*
G75*
G02*
X114713383Y-42952618I1500018J3500017D01*
G01*
X93977160Y-69840295D02*
X93977160Y-69040295D01*
X93977160Y-69040295D02*
X94434303Y-69840295D01*
X94434303Y-69840295D02*
X94434303Y-69040295D01*
X95158112Y-69840295D02*
X95158112Y-69421247D01*
X95158112Y-69421247D02*
X95120017Y-69345057D01*
X95120017Y-69345057D02*
X95043826Y-69306961D01*
X95043826Y-69306961D02*
X94891445Y-69306961D01*
X94891445Y-69306961D02*
X94815255Y-69345057D01*
X95158112Y-69802200D02*
X95081921Y-69840295D01*
X95081921Y-69840295D02*
X94891445Y-69840295D01*
X94891445Y-69840295D02*
X94815255Y-69802200D01*
X94815255Y-69802200D02*
X94777159Y-69726009D01*
X94777159Y-69726009D02*
X94777159Y-69649819D01*
X94777159Y-69649819D02*
X94815255Y-69573628D01*
X94815255Y-69573628D02*
X94891445Y-69535533D01*
X94891445Y-69535533D02*
X95081921Y-69535533D01*
X95081921Y-69535533D02*
X95158112Y-69497438D01*
X95539065Y-69306961D02*
X95539065Y-69840295D01*
X95539065Y-69383152D02*
X95577160Y-69345057D01*
X95577160Y-69345057D02*
X95653350Y-69306961D01*
X95653350Y-69306961D02*
X95767636Y-69306961D01*
X95767636Y-69306961D02*
X95843827Y-69345057D01*
X95843827Y-69345057D02*
X95881922Y-69421247D01*
X95881922Y-69421247D02*
X95881922Y-69840295D01*
X96377160Y-69840295D02*
X96300970Y-69802200D01*
X96300970Y-69802200D02*
X96262875Y-69764104D01*
X96262875Y-69764104D02*
X96224779Y-69687914D01*
X96224779Y-69687914D02*
X96224779Y-69459342D01*
X96224779Y-69459342D02*
X96262875Y-69383152D01*
X96262875Y-69383152D02*
X96300970Y-69345057D01*
X96300970Y-69345057D02*
X96377160Y-69306961D01*
X96377160Y-69306961D02*
X96491446Y-69306961D01*
X96491446Y-69306961D02*
X96567637Y-69345057D01*
X96567637Y-69345057D02*
X96605732Y-69383152D01*
X96605732Y-69383152D02*
X96643827Y-69459342D01*
X96643827Y-69459342D02*
X96643827Y-69687914D01*
X96643827Y-69687914D02*
X96605732Y-69764104D01*
X96605732Y-69764104D02*
X96567637Y-69802200D01*
X96567637Y-69802200D02*
X96491446Y-69840295D01*
X96491446Y-69840295D02*
X96377160Y-69840295D01*
X96948589Y-69802200D02*
X97062875Y-69840295D01*
X97062875Y-69840295D02*
X97253351Y-69840295D01*
X97253351Y-69840295D02*
X97329542Y-69802200D01*
X97329542Y-69802200D02*
X97367637Y-69764104D01*
X97367637Y-69764104D02*
X97405732Y-69687914D01*
X97405732Y-69687914D02*
X97405732Y-69611723D01*
X97405732Y-69611723D02*
X97367637Y-69535533D01*
X97367637Y-69535533D02*
X97329542Y-69497438D01*
X97329542Y-69497438D02*
X97253351Y-69459342D01*
X97253351Y-69459342D02*
X97100970Y-69421247D01*
X97100970Y-69421247D02*
X97024780Y-69383152D01*
X97024780Y-69383152D02*
X96986685Y-69345057D01*
X96986685Y-69345057D02*
X96948589Y-69268866D01*
X96948589Y-69268866D02*
X96948589Y-69192676D01*
X96948589Y-69192676D02*
X96986685Y-69116485D01*
X96986685Y-69116485D02*
X97024780Y-69078390D01*
X97024780Y-69078390D02*
X97100970Y-69040295D01*
X97100970Y-69040295D02*
X97291447Y-69040295D01*
X97291447Y-69040295D02*
X97405732Y-69078390D01*
X98091447Y-69840295D02*
X98091447Y-69421247D01*
X98091447Y-69421247D02*
X98053352Y-69345057D01*
X98053352Y-69345057D02*
X97977161Y-69306961D01*
X97977161Y-69306961D02*
X97824780Y-69306961D01*
X97824780Y-69306961D02*
X97748590Y-69345057D01*
X98091447Y-69802200D02*
X98015256Y-69840295D01*
X98015256Y-69840295D02*
X97824780Y-69840295D01*
X97824780Y-69840295D02*
X97748590Y-69802200D01*
X97748590Y-69802200D02*
X97710494Y-69726009D01*
X97710494Y-69726009D02*
X97710494Y-69649819D01*
X97710494Y-69649819D02*
X97748590Y-69573628D01*
X97748590Y-69573628D02*
X97824780Y-69535533D01*
X97824780Y-69535533D02*
X98015256Y-69535533D01*
X98015256Y-69535533D02*
X98091447Y-69497438D01*
X98358114Y-69306961D02*
X98662876Y-69306961D01*
X98472400Y-69040295D02*
X98472400Y-69726009D01*
X98472400Y-69726009D02*
X98510495Y-69802200D01*
X98510495Y-69802200D02*
X98586685Y-69840295D01*
X98586685Y-69840295D02*
X98662876Y-69840295D01*
X99920019Y-69840295D02*
X99539067Y-69840295D01*
X99539067Y-69840295D02*
X99539067Y-69040295D01*
X100529543Y-69840295D02*
X100529543Y-69421247D01*
X100529543Y-69421247D02*
X100491448Y-69345057D01*
X100491448Y-69345057D02*
X100415257Y-69306961D01*
X100415257Y-69306961D02*
X100262876Y-69306961D01*
X100262876Y-69306961D02*
X100186686Y-69345057D01*
X100529543Y-69802200D02*
X100453352Y-69840295D01*
X100453352Y-69840295D02*
X100262876Y-69840295D01*
X100262876Y-69840295D02*
X100186686Y-69802200D01*
X100186686Y-69802200D02*
X100148590Y-69726009D01*
X100148590Y-69726009D02*
X100148590Y-69649819D01*
X100148590Y-69649819D02*
X100186686Y-69573628D01*
X100186686Y-69573628D02*
X100262876Y-69535533D01*
X100262876Y-69535533D02*
X100453352Y-69535533D01*
X100453352Y-69535533D02*
X100529543Y-69497438D01*
X100910496Y-69840295D02*
X100910496Y-69040295D01*
X100910496Y-69345057D02*
X100986686Y-69306961D01*
X100986686Y-69306961D02*
X101139067Y-69306961D01*
X101139067Y-69306961D02*
X101215258Y-69345057D01*
X101215258Y-69345057D02*
X101253353Y-69383152D01*
X101253353Y-69383152D02*
X101291448Y-69459342D01*
X101291448Y-69459342D02*
X101291448Y-69687914D01*
X101291448Y-69687914D02*
X101253353Y-69764104D01*
X101253353Y-69764104D02*
X101215258Y-69802200D01*
X101215258Y-69802200D02*
X101139067Y-69840295D01*
X101139067Y-69840295D02*
X100986686Y-69840295D01*
X100986686Y-69840295D02*
X100910496Y-69802200D01*
X94477160Y-71340295D02*
X94477160Y-70540295D01*
X94477160Y-70540295D02*
X94781922Y-70540295D01*
X94781922Y-70540295D02*
X94858112Y-70578390D01*
X94858112Y-70578390D02*
X94896207Y-70616485D01*
X94896207Y-70616485D02*
X94934303Y-70692676D01*
X94934303Y-70692676D02*
X94934303Y-70806961D01*
X94934303Y-70806961D02*
X94896207Y-70883152D01*
X94896207Y-70883152D02*
X94858112Y-70921247D01*
X94858112Y-70921247D02*
X94781922Y-70959342D01*
X94781922Y-70959342D02*
X94477160Y-70959342D01*
X95391445Y-71340295D02*
X95315255Y-71302200D01*
X95315255Y-71302200D02*
X95277160Y-71264104D01*
X95277160Y-71264104D02*
X95239064Y-71187914D01*
X95239064Y-71187914D02*
X95239064Y-70959342D01*
X95239064Y-70959342D02*
X95277160Y-70883152D01*
X95277160Y-70883152D02*
X95315255Y-70845057D01*
X95315255Y-70845057D02*
X95391445Y-70806961D01*
X95391445Y-70806961D02*
X95505731Y-70806961D01*
X95505731Y-70806961D02*
X95581922Y-70845057D01*
X95581922Y-70845057D02*
X95620017Y-70883152D01*
X95620017Y-70883152D02*
X95658112Y-70959342D01*
X95658112Y-70959342D02*
X95658112Y-71187914D01*
X95658112Y-71187914D02*
X95620017Y-71264104D01*
X95620017Y-71264104D02*
X95581922Y-71302200D01*
X95581922Y-71302200D02*
X95505731Y-71340295D01*
X95505731Y-71340295D02*
X95391445Y-71340295D01*
X96458113Y-71264104D02*
X96420017Y-71302200D01*
X96420017Y-71302200D02*
X96305732Y-71340295D01*
X96305732Y-71340295D02*
X96229541Y-71340295D01*
X96229541Y-71340295D02*
X96115255Y-71302200D01*
X96115255Y-71302200D02*
X96039065Y-71226009D01*
X96039065Y-71226009D02*
X96000970Y-71149819D01*
X96000970Y-71149819D02*
X95962874Y-70997438D01*
X95962874Y-70997438D02*
X95962874Y-70883152D01*
X95962874Y-70883152D02*
X96000970Y-70730771D01*
X96000970Y-70730771D02*
X96039065Y-70654580D01*
X96039065Y-70654580D02*
X96115255Y-70578390D01*
X96115255Y-70578390D02*
X96229541Y-70540295D01*
X96229541Y-70540295D02*
X96305732Y-70540295D01*
X96305732Y-70540295D02*
X96420017Y-70578390D01*
X96420017Y-70578390D02*
X96458113Y-70616485D01*
X97143827Y-71340295D02*
X97143827Y-70921247D01*
X97143827Y-70921247D02*
X97105732Y-70845057D01*
X97105732Y-70845057D02*
X97029541Y-70806961D01*
X97029541Y-70806961D02*
X96877160Y-70806961D01*
X96877160Y-70806961D02*
X96800970Y-70845057D01*
X97143827Y-71302200D02*
X97067636Y-71340295D01*
X97067636Y-71340295D02*
X96877160Y-71340295D01*
X96877160Y-71340295D02*
X96800970Y-71302200D01*
X96800970Y-71302200D02*
X96762874Y-71226009D01*
X96762874Y-71226009D02*
X96762874Y-71149819D01*
X96762874Y-71149819D02*
X96800970Y-71073628D01*
X96800970Y-71073628D02*
X96877160Y-71035533D01*
X96877160Y-71035533D02*
X97067636Y-71035533D01*
X97067636Y-71035533D02*
X97143827Y-70997438D01*
X97410494Y-70806961D02*
X97715256Y-70806961D01*
X97524780Y-70540295D02*
X97524780Y-71226009D01*
X97524780Y-71226009D02*
X97562875Y-71302200D01*
X97562875Y-71302200D02*
X97639065Y-71340295D01*
X97639065Y-71340295D02*
X97715256Y-71340295D01*
X98591447Y-70921247D02*
X98858113Y-70921247D01*
X98972399Y-71340295D02*
X98591447Y-71340295D01*
X98591447Y-71340295D02*
X98591447Y-70540295D01*
X98591447Y-70540295D02*
X98972399Y-70540295D01*
X99315257Y-71340295D02*
X99315257Y-70540295D01*
X99315257Y-70540295D02*
X99620019Y-70540295D01*
X99620019Y-70540295D02*
X99696209Y-70578390D01*
X99696209Y-70578390D02*
X99734304Y-70616485D01*
X99734304Y-70616485D02*
X99772400Y-70692676D01*
X99772400Y-70692676D02*
X99772400Y-70806961D01*
X99772400Y-70806961D02*
X99734304Y-70883152D01*
X99734304Y-70883152D02*
X99696209Y-70921247D01*
X99696209Y-70921247D02*
X99620019Y-70959342D01*
X99620019Y-70959342D02*
X99315257Y-70959342D01*
X100077161Y-71302200D02*
X100191447Y-71340295D01*
X100191447Y-71340295D02*
X100381923Y-71340295D01*
X100381923Y-71340295D02*
X100458114Y-71302200D01*
X100458114Y-71302200D02*
X100496209Y-71264104D01*
X100496209Y-71264104D02*
X100534304Y-71187914D01*
X100534304Y-71187914D02*
X100534304Y-71111723D01*
X100534304Y-71111723D02*
X100496209Y-71035533D01*
X100496209Y-71035533D02*
X100458114Y-70997438D01*
X100458114Y-70997438D02*
X100381923Y-70959342D01*
X100381923Y-70959342D02*
X100229542Y-70921247D01*
X100229542Y-70921247D02*
X100153352Y-70883152D01*
X100153352Y-70883152D02*
X100115257Y-70845057D01*
X100115257Y-70845057D02*
X100077161Y-70768866D01*
X100077161Y-70768866D02*
X100077161Y-70692676D01*
X100077161Y-70692676D02*
X100115257Y-70616485D01*
X100115257Y-70616485D02*
X100153352Y-70578390D01*
X100153352Y-70578390D02*
X100229542Y-70540295D01*
X100229542Y-70540295D02*
X100420019Y-70540295D01*
X100420019Y-70540295D02*
X100534304Y-70578390D01*
X92443333Y-68955095D02*
X92443333Y-69526523D01*
X92443333Y-69526523D02*
X92405238Y-69640809D01*
X92405238Y-69640809D02*
X92329047Y-69717000D01*
X92329047Y-69717000D02*
X92214762Y-69755095D01*
X92214762Y-69755095D02*
X92138571Y-69755095D01*
X93205238Y-68955095D02*
X92824286Y-68955095D01*
X92824286Y-68955095D02*
X92786190Y-69336047D01*
X92786190Y-69336047D02*
X92824286Y-69297952D01*
X92824286Y-69297952D02*
X92900476Y-69259857D01*
X92900476Y-69259857D02*
X93090952Y-69259857D01*
X93090952Y-69259857D02*
X93167143Y-69297952D01*
X93167143Y-69297952D02*
X93205238Y-69336047D01*
X93205238Y-69336047D02*
X93243333Y-69412238D01*
X93243333Y-69412238D02*
X93243333Y-69602714D01*
X93243333Y-69602714D02*
X93205238Y-69678904D01*
X93205238Y-69678904D02*
X93167143Y-69717000D01*
X93167143Y-69717000D02*
X93090952Y-69755095D01*
X93090952Y-69755095D02*
X92900476Y-69755095D01*
X92900476Y-69755095D02*
X92824286Y-69717000D01*
X92824286Y-69717000D02*
X92786190Y-69678904D01*
X92054666Y-52340295D02*
X91673714Y-52340295D01*
X91673714Y-52340295D02*
X91673714Y-51540295D01*
X92664190Y-51806961D02*
X92664190Y-52340295D01*
X92473714Y-51502200D02*
X92283237Y-52073628D01*
X92283237Y-52073628D02*
X92778476Y-52073628D01*
X107050295Y-54797046D02*
X106669342Y-55063713D01*
X107050295Y-55254189D02*
X106250295Y-55254189D01*
X106250295Y-55254189D02*
X106250295Y-54949427D01*
X106250295Y-54949427D02*
X106288390Y-54873237D01*
X106288390Y-54873237D02*
X106326485Y-54835142D01*
X106326485Y-54835142D02*
X106402676Y-54797046D01*
X106402676Y-54797046D02*
X106516961Y-54797046D01*
X106516961Y-54797046D02*
X106593152Y-54835142D01*
X106593152Y-54835142D02*
X106631247Y-54873237D01*
X106631247Y-54873237D02*
X106669342Y-54949427D01*
X106669342Y-54949427D02*
X106669342Y-55254189D01*
X106631247Y-54187523D02*
X106631247Y-54454189D01*
X107050295Y-54454189D02*
X106250295Y-54454189D01*
X106250295Y-54454189D02*
X106250295Y-54073237D01*
X106250295Y-53882761D02*
X107050295Y-53616094D01*
X107050295Y-53616094D02*
X106250295Y-53349428D01*
X106250295Y-52930380D02*
X106250295Y-52854190D01*
X106250295Y-52854190D02*
X106288390Y-52777999D01*
X106288390Y-52777999D02*
X106326485Y-52739904D01*
X106326485Y-52739904D02*
X106402676Y-52701809D01*
X106402676Y-52701809D02*
X106555057Y-52663714D01*
X106555057Y-52663714D02*
X106745533Y-52663714D01*
X106745533Y-52663714D02*
X106897914Y-52701809D01*
X106897914Y-52701809D02*
X106974104Y-52739904D01*
X106974104Y-52739904D02*
X107012200Y-52777999D01*
X107012200Y-52777999D02*
X107050295Y-52854190D01*
X107050295Y-52854190D02*
X107050295Y-52930380D01*
X107050295Y-52930380D02*
X107012200Y-53006571D01*
X107012200Y-53006571D02*
X106974104Y-53044666D01*
X106974104Y-53044666D02*
X106897914Y-53082761D01*
X106897914Y-53082761D02*
X106745533Y-53120857D01*
X106745533Y-53120857D02*
X106555057Y-53120857D01*
X106555057Y-53120857D02*
X106402676Y-53082761D01*
X106402676Y-53082761D02*
X106326485Y-53044666D01*
X106326485Y-53044666D02*
X106288390Y-53006571D01*
X106288390Y-53006571D02*
X106250295Y-52930380D01*
X112554667Y-46764104D02*
X112516571Y-46802200D01*
X112516571Y-46802200D02*
X112402286Y-46840295D01*
X112402286Y-46840295D02*
X112326095Y-46840295D01*
X112326095Y-46840295D02*
X112211809Y-46802200D01*
X112211809Y-46802200D02*
X112135619Y-46726009D01*
X112135619Y-46726009D02*
X112097524Y-46649819D01*
X112097524Y-46649819D02*
X112059428Y-46497438D01*
X112059428Y-46497438D02*
X112059428Y-46383152D01*
X112059428Y-46383152D02*
X112097524Y-46230771D01*
X112097524Y-46230771D02*
X112135619Y-46154580D01*
X112135619Y-46154580D02*
X112211809Y-46078390D01*
X112211809Y-46078390D02*
X112326095Y-46040295D01*
X112326095Y-46040295D02*
X112402286Y-46040295D01*
X112402286Y-46040295D02*
X112516571Y-46078390D01*
X112516571Y-46078390D02*
X112554667Y-46116485D01*
X113278476Y-46040295D02*
X112897524Y-46040295D01*
X112897524Y-46040295D02*
X112859428Y-46421247D01*
X112859428Y-46421247D02*
X112897524Y-46383152D01*
X112897524Y-46383152D02*
X112973714Y-46345057D01*
X112973714Y-46345057D02*
X113164190Y-46345057D01*
X113164190Y-46345057D02*
X113240381Y-46383152D01*
X113240381Y-46383152D02*
X113278476Y-46421247D01*
X113278476Y-46421247D02*
X113316571Y-46497438D01*
X113316571Y-46497438D02*
X113316571Y-46687914D01*
X113316571Y-46687914D02*
X113278476Y-46764104D01*
X113278476Y-46764104D02*
X113240381Y-46802200D01*
X113240381Y-46802200D02*
X113164190Y-46840295D01*
X113164190Y-46840295D02*
X112973714Y-46840295D01*
X112973714Y-46840295D02*
X112897524Y-46802200D01*
X112897524Y-46802200D02*
X112859428Y-46764104D01*
X107474104Y-71111332D02*
X107512200Y-71149428D01*
X107512200Y-71149428D02*
X107550295Y-71263713D01*
X107550295Y-71263713D02*
X107550295Y-71339904D01*
X107550295Y-71339904D02*
X107512200Y-71454190D01*
X107512200Y-71454190D02*
X107436009Y-71530380D01*
X107436009Y-71530380D02*
X107359819Y-71568475D01*
X107359819Y-71568475D02*
X107207438Y-71606571D01*
X107207438Y-71606571D02*
X107093152Y-71606571D01*
X107093152Y-71606571D02*
X106940771Y-71568475D01*
X106940771Y-71568475D02*
X106864580Y-71530380D01*
X106864580Y-71530380D02*
X106788390Y-71454190D01*
X106788390Y-71454190D02*
X106750295Y-71339904D01*
X106750295Y-71339904D02*
X106750295Y-71263713D01*
X106750295Y-71263713D02*
X106788390Y-71149428D01*
X106788390Y-71149428D02*
X106826485Y-71111332D01*
X106750295Y-70844666D02*
X106750295Y-70349428D01*
X106750295Y-70349428D02*
X107055057Y-70616094D01*
X107055057Y-70616094D02*
X107055057Y-70501809D01*
X107055057Y-70501809D02*
X107093152Y-70425618D01*
X107093152Y-70425618D02*
X107131247Y-70387523D01*
X107131247Y-70387523D02*
X107207438Y-70349428D01*
X107207438Y-70349428D02*
X107397914Y-70349428D01*
X107397914Y-70349428D02*
X107474104Y-70387523D01*
X107474104Y-70387523D02*
X107512200Y-70425618D01*
X107512200Y-70425618D02*
X107550295Y-70501809D01*
X107550295Y-70501809D02*
X107550295Y-70730380D01*
X107550295Y-70730380D02*
X107512200Y-70806571D01*
X107512200Y-70806571D02*
X107474104Y-70844666D01*
X112407048Y-52340295D02*
X112407048Y-51540295D01*
X113245143Y-52264104D02*
X113207047Y-52302200D01*
X113207047Y-52302200D02*
X113092762Y-52340295D01*
X113092762Y-52340295D02*
X113016571Y-52340295D01*
X113016571Y-52340295D02*
X112902285Y-52302200D01*
X112902285Y-52302200D02*
X112826095Y-52226009D01*
X112826095Y-52226009D02*
X112788000Y-52149819D01*
X112788000Y-52149819D02*
X112749904Y-51997438D01*
X112749904Y-51997438D02*
X112749904Y-51883152D01*
X112749904Y-51883152D02*
X112788000Y-51730771D01*
X112788000Y-51730771D02*
X112826095Y-51654580D01*
X112826095Y-51654580D02*
X112902285Y-51578390D01*
X112902285Y-51578390D02*
X113016571Y-51540295D01*
X113016571Y-51540295D02*
X113092762Y-51540295D01*
X113092762Y-51540295D02*
X113207047Y-51578390D01*
X113207047Y-51578390D02*
X113245143Y-51616485D01*
X113549904Y-51616485D02*
X113588000Y-51578390D01*
X113588000Y-51578390D02*
X113664190Y-51540295D01*
X113664190Y-51540295D02*
X113854666Y-51540295D01*
X113854666Y-51540295D02*
X113930857Y-51578390D01*
X113930857Y-51578390D02*
X113968952Y-51616485D01*
X113968952Y-51616485D02*
X114007047Y-51692676D01*
X114007047Y-51692676D02*
X114007047Y-51768866D01*
X114007047Y-51768866D02*
X113968952Y-51883152D01*
X113968952Y-51883152D02*
X113511809Y-52340295D01*
X113511809Y-52340295D02*
X114007047Y-52340295D01*
X95054667Y-61840295D02*
X94788000Y-61459342D01*
X94597524Y-61840295D02*
X94597524Y-61040295D01*
X94597524Y-61040295D02*
X94902286Y-61040295D01*
X94902286Y-61040295D02*
X94978476Y-61078390D01*
X94978476Y-61078390D02*
X95016571Y-61116485D01*
X95016571Y-61116485D02*
X95054667Y-61192676D01*
X95054667Y-61192676D02*
X95054667Y-61306961D01*
X95054667Y-61306961D02*
X95016571Y-61383152D01*
X95016571Y-61383152D02*
X94978476Y-61421247D01*
X94978476Y-61421247D02*
X94902286Y-61459342D01*
X94902286Y-61459342D02*
X94597524Y-61459342D01*
X95740381Y-61306961D02*
X95740381Y-61840295D01*
X95549905Y-61002200D02*
X95359428Y-61573628D01*
X95359428Y-61573628D02*
X95854667Y-61573628D01*
X88311810Y-63840295D02*
X88045143Y-63459342D01*
X87854667Y-63840295D02*
X87854667Y-63040295D01*
X87854667Y-63040295D02*
X88159429Y-63040295D01*
X88159429Y-63040295D02*
X88235619Y-63078390D01*
X88235619Y-63078390D02*
X88273714Y-63116485D01*
X88273714Y-63116485D02*
X88311810Y-63192676D01*
X88311810Y-63192676D02*
X88311810Y-63306961D01*
X88311810Y-63306961D02*
X88273714Y-63383152D01*
X88273714Y-63383152D02*
X88235619Y-63421247D01*
X88235619Y-63421247D02*
X88159429Y-63459342D01*
X88159429Y-63459342D02*
X87854667Y-63459342D01*
X88654667Y-63840295D02*
X88654667Y-63040295D01*
X88654667Y-63040295D02*
X88959429Y-63040295D01*
X88959429Y-63040295D02*
X89035619Y-63078390D01*
X89035619Y-63078390D02*
X89073714Y-63116485D01*
X89073714Y-63116485D02*
X89111810Y-63192676D01*
X89111810Y-63192676D02*
X89111810Y-63306961D01*
X89111810Y-63306961D02*
X89073714Y-63383152D01*
X89073714Y-63383152D02*
X89035619Y-63421247D01*
X89035619Y-63421247D02*
X88959429Y-63459342D01*
X88959429Y-63459342D02*
X88654667Y-63459342D01*
X89721333Y-63421247D02*
X89454667Y-63421247D01*
X89454667Y-63840295D02*
X89454667Y-63040295D01*
X89454667Y-63040295D02*
X89835619Y-63040295D01*
X90102285Y-63116485D02*
X90140381Y-63078390D01*
X90140381Y-63078390D02*
X90216571Y-63040295D01*
X90216571Y-63040295D02*
X90407047Y-63040295D01*
X90407047Y-63040295D02*
X90483238Y-63078390D01*
X90483238Y-63078390D02*
X90521333Y-63116485D01*
X90521333Y-63116485D02*
X90559428Y-63192676D01*
X90559428Y-63192676D02*
X90559428Y-63268866D01*
X90559428Y-63268866D02*
X90521333Y-63383152D01*
X90521333Y-63383152D02*
X90064190Y-63840295D01*
X90064190Y-63840295D02*
X90559428Y-63840295D01*
X99278476Y-44340295D02*
X99278476Y-43540295D01*
X99278476Y-43540295D02*
X99468952Y-43540295D01*
X99468952Y-43540295D02*
X99583238Y-43578390D01*
X99583238Y-43578390D02*
X99659428Y-43654580D01*
X99659428Y-43654580D02*
X99697523Y-43730771D01*
X99697523Y-43730771D02*
X99735619Y-43883152D01*
X99735619Y-43883152D02*
X99735619Y-43997438D01*
X99735619Y-43997438D02*
X99697523Y-44149819D01*
X99697523Y-44149819D02*
X99659428Y-44226009D01*
X99659428Y-44226009D02*
X99583238Y-44302200D01*
X99583238Y-44302200D02*
X99468952Y-44340295D01*
X99468952Y-44340295D02*
X99278476Y-44340295D01*
X100078476Y-44340295D02*
X100078476Y-43540295D01*
X100078476Y-43540295D02*
X100535619Y-44340295D01*
X100535619Y-44340295D02*
X100535619Y-43540295D01*
X101373714Y-44264104D02*
X101335618Y-44302200D01*
X101335618Y-44302200D02*
X101221333Y-44340295D01*
X101221333Y-44340295D02*
X101145142Y-44340295D01*
X101145142Y-44340295D02*
X101030856Y-44302200D01*
X101030856Y-44302200D02*
X100954666Y-44226009D01*
X100954666Y-44226009D02*
X100916571Y-44149819D01*
X100916571Y-44149819D02*
X100878475Y-43997438D01*
X100878475Y-43997438D02*
X100878475Y-43883152D01*
X100878475Y-43883152D02*
X100916571Y-43730771D01*
X100916571Y-43730771D02*
X100954666Y-43654580D01*
X100954666Y-43654580D02*
X101030856Y-43578390D01*
X101030856Y-43578390D02*
X101145142Y-43540295D01*
X101145142Y-43540295D02*
X101221333Y-43540295D01*
X101221333Y-43540295D02*
X101335618Y-43578390D01*
X101335618Y-43578390D02*
X101373714Y-43616485D01*
X101678475Y-43616485D02*
X101716571Y-43578390D01*
X101716571Y-43578390D02*
X101792761Y-43540295D01*
X101792761Y-43540295D02*
X101983237Y-43540295D01*
X101983237Y-43540295D02*
X102059428Y-43578390D01*
X102059428Y-43578390D02*
X102097523Y-43616485D01*
X102097523Y-43616485D02*
X102135618Y-43692676D01*
X102135618Y-43692676D02*
X102135618Y-43768866D01*
X102135618Y-43768866D02*
X102097523Y-43883152D01*
X102097523Y-43883152D02*
X101640380Y-44340295D01*
X101640380Y-44340295D02*
X102135618Y-44340295D01*
X107550295Y-58854189D02*
X107169342Y-59120856D01*
X107550295Y-59311332D02*
X106750295Y-59311332D01*
X106750295Y-59311332D02*
X106750295Y-59006570D01*
X106750295Y-59006570D02*
X106788390Y-58930380D01*
X106788390Y-58930380D02*
X106826485Y-58892285D01*
X106826485Y-58892285D02*
X106902676Y-58854189D01*
X106902676Y-58854189D02*
X107016961Y-58854189D01*
X107016961Y-58854189D02*
X107093152Y-58892285D01*
X107093152Y-58892285D02*
X107131247Y-58930380D01*
X107131247Y-58930380D02*
X107169342Y-59006570D01*
X107169342Y-59006570D02*
X107169342Y-59311332D01*
X107131247Y-58244666D02*
X107131247Y-58511332D01*
X107550295Y-58511332D02*
X106750295Y-58511332D01*
X106750295Y-58511332D02*
X106750295Y-58130380D01*
X106788390Y-57406571D02*
X106750295Y-57482761D01*
X106750295Y-57482761D02*
X106750295Y-57597047D01*
X106750295Y-57597047D02*
X106788390Y-57711333D01*
X106788390Y-57711333D02*
X106864580Y-57787523D01*
X106864580Y-57787523D02*
X106940771Y-57825618D01*
X106940771Y-57825618D02*
X107093152Y-57863714D01*
X107093152Y-57863714D02*
X107207438Y-57863714D01*
X107207438Y-57863714D02*
X107359819Y-57825618D01*
X107359819Y-57825618D02*
X107436009Y-57787523D01*
X107436009Y-57787523D02*
X107512200Y-57711333D01*
X107512200Y-57711333D02*
X107550295Y-57597047D01*
X107550295Y-57597047D02*
X107550295Y-57520856D01*
X107550295Y-57520856D02*
X107512200Y-57406571D01*
X107512200Y-57406571D02*
X107474104Y-57368475D01*
X107474104Y-57368475D02*
X107207438Y-57368475D01*
X107207438Y-57368475D02*
X107207438Y-57520856D01*
X106750295Y-56873237D02*
X106750295Y-56797047D01*
X106750295Y-56797047D02*
X106788390Y-56720856D01*
X106788390Y-56720856D02*
X106826485Y-56682761D01*
X106826485Y-56682761D02*
X106902676Y-56644666D01*
X106902676Y-56644666D02*
X107055057Y-56606571D01*
X107055057Y-56606571D02*
X107245533Y-56606571D01*
X107245533Y-56606571D02*
X107397914Y-56644666D01*
X107397914Y-56644666D02*
X107474104Y-56682761D01*
X107474104Y-56682761D02*
X107512200Y-56720856D01*
X107512200Y-56720856D02*
X107550295Y-56797047D01*
X107550295Y-56797047D02*
X107550295Y-56873237D01*
X107550295Y-56873237D02*
X107512200Y-56949428D01*
X107512200Y-56949428D02*
X107474104Y-56987523D01*
X107474104Y-56987523D02*
X107397914Y-57025618D01*
X107397914Y-57025618D02*
X107245533Y-57063714D01*
X107245533Y-57063714D02*
X107055057Y-57063714D01*
X107055057Y-57063714D02*
X106902676Y-57025618D01*
X106902676Y-57025618D02*
X106826485Y-56987523D01*
X106826485Y-56987523D02*
X106788390Y-56949428D01*
X106788390Y-56949428D02*
X106750295Y-56873237D01*
X96054667Y-46264104D02*
X96016571Y-46302200D01*
X96016571Y-46302200D02*
X95902286Y-46340295D01*
X95902286Y-46340295D02*
X95826095Y-46340295D01*
X95826095Y-46340295D02*
X95711809Y-46302200D01*
X95711809Y-46302200D02*
X95635619Y-46226009D01*
X95635619Y-46226009D02*
X95597524Y-46149819D01*
X95597524Y-46149819D02*
X95559428Y-45997438D01*
X95559428Y-45997438D02*
X95559428Y-45883152D01*
X95559428Y-45883152D02*
X95597524Y-45730771D01*
X95597524Y-45730771D02*
X95635619Y-45654580D01*
X95635619Y-45654580D02*
X95711809Y-45578390D01*
X95711809Y-45578390D02*
X95826095Y-45540295D01*
X95826095Y-45540295D02*
X95902286Y-45540295D01*
X95902286Y-45540295D02*
X96016571Y-45578390D01*
X96016571Y-45578390D02*
X96054667Y-45616485D01*
X96359428Y-45616485D02*
X96397524Y-45578390D01*
X96397524Y-45578390D02*
X96473714Y-45540295D01*
X96473714Y-45540295D02*
X96664190Y-45540295D01*
X96664190Y-45540295D02*
X96740381Y-45578390D01*
X96740381Y-45578390D02*
X96778476Y-45616485D01*
X96778476Y-45616485D02*
X96816571Y-45692676D01*
X96816571Y-45692676D02*
X96816571Y-45768866D01*
X96816571Y-45768866D02*
X96778476Y-45883152D01*
X96778476Y-45883152D02*
X96321333Y-46340295D01*
X96321333Y-46340295D02*
X96816571Y-46340295D01*
X108054666Y-49840295D02*
X107673714Y-49840295D01*
X107673714Y-49840295D02*
X107673714Y-49040295D01*
X108702285Y-49040295D02*
X108321333Y-49040295D01*
X108321333Y-49040295D02*
X108283237Y-49421247D01*
X108283237Y-49421247D02*
X108321333Y-49383152D01*
X108321333Y-49383152D02*
X108397523Y-49345057D01*
X108397523Y-49345057D02*
X108587999Y-49345057D01*
X108587999Y-49345057D02*
X108664190Y-49383152D01*
X108664190Y-49383152D02*
X108702285Y-49421247D01*
X108702285Y-49421247D02*
X108740380Y-49497438D01*
X108740380Y-49497438D02*
X108740380Y-49687914D01*
X108740380Y-49687914D02*
X108702285Y-49764104D01*
X108702285Y-49764104D02*
X108664190Y-49802200D01*
X108664190Y-49802200D02*
X108587999Y-49840295D01*
X108587999Y-49840295D02*
X108397523Y-49840295D01*
X108397523Y-49840295D02*
X108321333Y-49802200D01*
X108321333Y-49802200D02*
X108283237Y-49764104D01*
X112740381Y-61340295D02*
X112473714Y-60959342D01*
X112283238Y-61340295D02*
X112283238Y-60540295D01*
X112283238Y-60540295D02*
X112588000Y-60540295D01*
X112588000Y-60540295D02*
X112664190Y-60578390D01*
X112664190Y-60578390D02*
X112702285Y-60616485D01*
X112702285Y-60616485D02*
X112740381Y-60692676D01*
X112740381Y-60692676D02*
X112740381Y-60806961D01*
X112740381Y-60806961D02*
X112702285Y-60883152D01*
X112702285Y-60883152D02*
X112664190Y-60921247D01*
X112664190Y-60921247D02*
X112588000Y-60959342D01*
X112588000Y-60959342D02*
X112283238Y-60959342D01*
X113349904Y-60921247D02*
X113464190Y-60959342D01*
X113464190Y-60959342D02*
X113502285Y-60997438D01*
X113502285Y-60997438D02*
X113540381Y-61073628D01*
X113540381Y-61073628D02*
X113540381Y-61187914D01*
X113540381Y-61187914D02*
X113502285Y-61264104D01*
X113502285Y-61264104D02*
X113464190Y-61302200D01*
X113464190Y-61302200D02*
X113388000Y-61340295D01*
X113388000Y-61340295D02*
X113083238Y-61340295D01*
X113083238Y-61340295D02*
X113083238Y-60540295D01*
X113083238Y-60540295D02*
X113349904Y-60540295D01*
X113349904Y-60540295D02*
X113426095Y-60578390D01*
X113426095Y-60578390D02*
X113464190Y-60616485D01*
X113464190Y-60616485D02*
X113502285Y-60692676D01*
X113502285Y-60692676D02*
X113502285Y-60768866D01*
X113502285Y-60768866D02*
X113464190Y-60845057D01*
X113464190Y-60845057D02*
X113426095Y-60883152D01*
X113426095Y-60883152D02*
X113349904Y-60921247D01*
X113349904Y-60921247D02*
X113083238Y-60921247D01*
X113883238Y-61340295D02*
X113883238Y-60540295D01*
X114226094Y-61111723D02*
X114607047Y-61111723D01*
X114149904Y-61340295D02*
X114416571Y-60540295D01*
X114416571Y-60540295D02*
X114683237Y-61340295D01*
X114911808Y-61302200D02*
X115026094Y-61340295D01*
X115026094Y-61340295D02*
X115216570Y-61340295D01*
X115216570Y-61340295D02*
X115292761Y-61302200D01*
X115292761Y-61302200D02*
X115330856Y-61264104D01*
X115330856Y-61264104D02*
X115368951Y-61187914D01*
X115368951Y-61187914D02*
X115368951Y-61111723D01*
X115368951Y-61111723D02*
X115330856Y-61035533D01*
X115330856Y-61035533D02*
X115292761Y-60997438D01*
X115292761Y-60997438D02*
X115216570Y-60959342D01*
X115216570Y-60959342D02*
X115064189Y-60921247D01*
X115064189Y-60921247D02*
X114987999Y-60883152D01*
X114987999Y-60883152D02*
X114949904Y-60845057D01*
X114949904Y-60845057D02*
X114911808Y-60768866D01*
X114911808Y-60768866D02*
X114911808Y-60692676D01*
X114911808Y-60692676D02*
X114949904Y-60616485D01*
X114949904Y-60616485D02*
X114987999Y-60578390D01*
X114987999Y-60578390D02*
X115064189Y-60540295D01*
X115064189Y-60540295D02*
X115254666Y-60540295D01*
X115254666Y-60540295D02*
X115368951Y-60578390D01*
X116130856Y-61340295D02*
X115673713Y-61340295D01*
X115902285Y-61340295D02*
X115902285Y-60540295D01*
X115902285Y-60540295D02*
X115826094Y-60654580D01*
X115826094Y-60654580D02*
X115749904Y-60730771D01*
X115749904Y-60730771D02*
X115673713Y-60768866D01*
X104811810Y-66840295D02*
X104545143Y-66459342D01*
X104354667Y-66840295D02*
X104354667Y-66040295D01*
X104354667Y-66040295D02*
X104659429Y-66040295D01*
X104659429Y-66040295D02*
X104735619Y-66078390D01*
X104735619Y-66078390D02*
X104773714Y-66116485D01*
X104773714Y-66116485D02*
X104811810Y-66192676D01*
X104811810Y-66192676D02*
X104811810Y-66306961D01*
X104811810Y-66306961D02*
X104773714Y-66383152D01*
X104773714Y-66383152D02*
X104735619Y-66421247D01*
X104735619Y-66421247D02*
X104659429Y-66459342D01*
X104659429Y-66459342D02*
X104354667Y-66459342D01*
X105421333Y-66421247D02*
X105154667Y-66421247D01*
X105154667Y-66840295D02*
X105154667Y-66040295D01*
X105154667Y-66040295D02*
X105535619Y-66040295D01*
X106107047Y-66421247D02*
X106221333Y-66459342D01*
X106221333Y-66459342D02*
X106259428Y-66497438D01*
X106259428Y-66497438D02*
X106297524Y-66573628D01*
X106297524Y-66573628D02*
X106297524Y-66687914D01*
X106297524Y-66687914D02*
X106259428Y-66764104D01*
X106259428Y-66764104D02*
X106221333Y-66802200D01*
X106221333Y-66802200D02*
X106145143Y-66840295D01*
X106145143Y-66840295D02*
X105840381Y-66840295D01*
X105840381Y-66840295D02*
X105840381Y-66040295D01*
X105840381Y-66040295D02*
X106107047Y-66040295D01*
X106107047Y-66040295D02*
X106183238Y-66078390D01*
X106183238Y-66078390D02*
X106221333Y-66116485D01*
X106221333Y-66116485D02*
X106259428Y-66192676D01*
X106259428Y-66192676D02*
X106259428Y-66268866D01*
X106259428Y-66268866D02*
X106221333Y-66345057D01*
X106221333Y-66345057D02*
X106183238Y-66383152D01*
X106183238Y-66383152D02*
X106107047Y-66421247D01*
X106107047Y-66421247D02*
X105840381Y-66421247D01*
X106602285Y-66116485D02*
X106640381Y-66078390D01*
X106640381Y-66078390D02*
X106716571Y-66040295D01*
X106716571Y-66040295D02*
X106907047Y-66040295D01*
X106907047Y-66040295D02*
X106983238Y-66078390D01*
X106983238Y-66078390D02*
X107021333Y-66116485D01*
X107021333Y-66116485D02*
X107059428Y-66192676D01*
X107059428Y-66192676D02*
X107059428Y-66268866D01*
X107059428Y-66268866D02*
X107021333Y-66383152D01*
X107021333Y-66383152D02*
X106564190Y-66840295D01*
X106564190Y-66840295D02*
X107059428Y-66840295D01*
X102407048Y-52340295D02*
X102407048Y-51540295D01*
X103245143Y-52264104D02*
X103207047Y-52302200D01*
X103207047Y-52302200D02*
X103092762Y-52340295D01*
X103092762Y-52340295D02*
X103016571Y-52340295D01*
X103016571Y-52340295D02*
X102902285Y-52302200D01*
X102902285Y-52302200D02*
X102826095Y-52226009D01*
X102826095Y-52226009D02*
X102788000Y-52149819D01*
X102788000Y-52149819D02*
X102749904Y-51997438D01*
X102749904Y-51997438D02*
X102749904Y-51883152D01*
X102749904Y-51883152D02*
X102788000Y-51730771D01*
X102788000Y-51730771D02*
X102826095Y-51654580D01*
X102826095Y-51654580D02*
X102902285Y-51578390D01*
X102902285Y-51578390D02*
X103016571Y-51540295D01*
X103016571Y-51540295D02*
X103092762Y-51540295D01*
X103092762Y-51540295D02*
X103207047Y-51578390D01*
X103207047Y-51578390D02*
X103245143Y-51616485D01*
X104007047Y-52340295D02*
X103549904Y-52340295D01*
X103778476Y-52340295D02*
X103778476Y-51540295D01*
X103778476Y-51540295D02*
X103702285Y-51654580D01*
X103702285Y-51654580D02*
X103626095Y-51730771D01*
X103626095Y-51730771D02*
X103549904Y-51768866D01*
X97578476Y-54040295D02*
X97578476Y-54687914D01*
X97578476Y-54687914D02*
X97616571Y-54764104D01*
X97616571Y-54764104D02*
X97654666Y-54802200D01*
X97654666Y-54802200D02*
X97730857Y-54840295D01*
X97730857Y-54840295D02*
X97883238Y-54840295D01*
X97883238Y-54840295D02*
X97959428Y-54802200D01*
X97959428Y-54802200D02*
X97997523Y-54764104D01*
X97997523Y-54764104D02*
X98035619Y-54687914D01*
X98035619Y-54687914D02*
X98035619Y-54040295D01*
X98759428Y-54306961D02*
X98759428Y-54840295D01*
X98568952Y-54002200D02*
X98378475Y-54573628D01*
X98378475Y-54573628D02*
X98873714Y-54573628D01*
X105054667Y-44340295D02*
X104788000Y-43959342D01*
X104597524Y-44340295D02*
X104597524Y-43540295D01*
X104597524Y-43540295D02*
X104902286Y-43540295D01*
X104902286Y-43540295D02*
X104978476Y-43578390D01*
X104978476Y-43578390D02*
X105016571Y-43616485D01*
X105016571Y-43616485D02*
X105054667Y-43692676D01*
X105054667Y-43692676D02*
X105054667Y-43806961D01*
X105054667Y-43806961D02*
X105016571Y-43883152D01*
X105016571Y-43883152D02*
X104978476Y-43921247D01*
X104978476Y-43921247D02*
X104902286Y-43959342D01*
X104902286Y-43959342D02*
X104597524Y-43959342D01*
X105321333Y-43540295D02*
X105854667Y-43540295D01*
X105854667Y-43540295D02*
X105511809Y-44340295D01*
X100616572Y-68340295D02*
X100349905Y-67959342D01*
X100159429Y-68340295D02*
X100159429Y-67540295D01*
X100159429Y-67540295D02*
X100464191Y-67540295D01*
X100464191Y-67540295D02*
X100540381Y-67578390D01*
X100540381Y-67578390D02*
X100578476Y-67616485D01*
X100578476Y-67616485D02*
X100616572Y-67692676D01*
X100616572Y-67692676D02*
X100616572Y-67806961D01*
X100616572Y-67806961D02*
X100578476Y-67883152D01*
X100578476Y-67883152D02*
X100540381Y-67921247D01*
X100540381Y-67921247D02*
X100464191Y-67959342D01*
X100464191Y-67959342D02*
X100159429Y-67959342D01*
X100959429Y-68340295D02*
X100959429Y-67540295D01*
X100959429Y-67540295D02*
X101264191Y-67540295D01*
X101264191Y-67540295D02*
X101340381Y-67578390D01*
X101340381Y-67578390D02*
X101378476Y-67616485D01*
X101378476Y-67616485D02*
X101416572Y-67692676D01*
X101416572Y-67692676D02*
X101416572Y-67806961D01*
X101416572Y-67806961D02*
X101378476Y-67883152D01*
X101378476Y-67883152D02*
X101340381Y-67921247D01*
X101340381Y-67921247D02*
X101264191Y-67959342D01*
X101264191Y-67959342D02*
X100959429Y-67959342D01*
X101568953Y-68416485D02*
X102178476Y-68416485D01*
X102635619Y-67921247D02*
X102368953Y-67921247D01*
X102368953Y-68340295D02*
X102368953Y-67540295D01*
X102368953Y-67540295D02*
X102749905Y-67540295D01*
X103016571Y-68111723D02*
X103397524Y-68111723D01*
X102940381Y-68340295D02*
X103207048Y-67540295D01*
X103207048Y-67540295D02*
X103473714Y-68340295D01*
X103740381Y-67540295D02*
X103740381Y-68187914D01*
X103740381Y-68187914D02*
X103778476Y-68264104D01*
X103778476Y-68264104D02*
X103816571Y-68302200D01*
X103816571Y-68302200D02*
X103892762Y-68340295D01*
X103892762Y-68340295D02*
X104045143Y-68340295D01*
X104045143Y-68340295D02*
X104121333Y-68302200D01*
X104121333Y-68302200D02*
X104159428Y-68264104D01*
X104159428Y-68264104D02*
X104197524Y-68187914D01*
X104197524Y-68187914D02*
X104197524Y-67540295D01*
X104959428Y-68340295D02*
X104578476Y-68340295D01*
X104578476Y-68340295D02*
X104578476Y-67540295D01*
X105111809Y-67540295D02*
X105568952Y-67540295D01*
X105340380Y-68340295D02*
X105340380Y-67540295D01*
X106254666Y-68340295D02*
X105797523Y-68340295D01*
X106026095Y-68340295D02*
X106026095Y-67540295D01*
X106026095Y-67540295D02*
X105949904Y-67654580D01*
X105949904Y-67654580D02*
X105873714Y-67730771D01*
X105873714Y-67730771D02*
X105797523Y-67768866D01*
X91623810Y-64162295D02*
X91357143Y-63781342D01*
X91166667Y-64162295D02*
X91166667Y-63362295D01*
X91166667Y-63362295D02*
X91471429Y-63362295D01*
X91471429Y-63362295D02*
X91547619Y-63400390D01*
X91547619Y-63400390D02*
X91585714Y-63438485D01*
X91585714Y-63438485D02*
X91623810Y-63514676D01*
X91623810Y-63514676D02*
X91623810Y-63628961D01*
X91623810Y-63628961D02*
X91585714Y-63705152D01*
X91585714Y-63705152D02*
X91547619Y-63743247D01*
X91547619Y-63743247D02*
X91471429Y-63781342D01*
X91471429Y-63781342D02*
X91166667Y-63781342D01*
X91966667Y-64162295D02*
X91966667Y-63362295D01*
X91966667Y-63362295D02*
X92271429Y-63362295D01*
X92271429Y-63362295D02*
X92347619Y-63400390D01*
X92347619Y-63400390D02*
X92385714Y-63438485D01*
X92385714Y-63438485D02*
X92423810Y-63514676D01*
X92423810Y-63514676D02*
X92423810Y-63628961D01*
X92423810Y-63628961D02*
X92385714Y-63705152D01*
X92385714Y-63705152D02*
X92347619Y-63743247D01*
X92347619Y-63743247D02*
X92271429Y-63781342D01*
X92271429Y-63781342D02*
X91966667Y-63781342D01*
X93033333Y-63743247D02*
X92766667Y-63743247D01*
X92766667Y-64162295D02*
X92766667Y-63362295D01*
X92766667Y-63362295D02*
X93147619Y-63362295D01*
X93871428Y-64162295D02*
X93414285Y-64162295D01*
X93642857Y-64162295D02*
X93642857Y-63362295D01*
X93642857Y-63362295D02*
X93566666Y-63476580D01*
X93566666Y-63476580D02*
X93490476Y-63552771D01*
X93490476Y-63552771D02*
X93414285Y-63590866D01*
X115611809Y-67416485D02*
X115535619Y-67378390D01*
X115535619Y-67378390D02*
X115459428Y-67302200D01*
X115459428Y-67302200D02*
X115345142Y-67187914D01*
X115345142Y-67187914D02*
X115268952Y-67149819D01*
X115268952Y-67149819D02*
X115192761Y-67149819D01*
X115230857Y-67340295D02*
X115154666Y-67302200D01*
X115154666Y-67302200D02*
X115078476Y-67226009D01*
X115078476Y-67226009D02*
X115040380Y-67073628D01*
X115040380Y-67073628D02*
X115040380Y-66806961D01*
X115040380Y-66806961D02*
X115078476Y-66654580D01*
X115078476Y-66654580D02*
X115154666Y-66578390D01*
X115154666Y-66578390D02*
X115230857Y-66540295D01*
X115230857Y-66540295D02*
X115383238Y-66540295D01*
X115383238Y-66540295D02*
X115459428Y-66578390D01*
X115459428Y-66578390D02*
X115535619Y-66654580D01*
X115535619Y-66654580D02*
X115573714Y-66806961D01*
X115573714Y-66806961D02*
X115573714Y-67073628D01*
X115573714Y-67073628D02*
X115535619Y-67226009D01*
X115535619Y-67226009D02*
X115459428Y-67302200D01*
X115459428Y-67302200D02*
X115383238Y-67340295D01*
X115383238Y-67340295D02*
X115230857Y-67340295D01*
X116335618Y-67340295D02*
X115878475Y-67340295D01*
X116107047Y-67340295D02*
X116107047Y-66540295D01*
X116107047Y-66540295D02*
X116030856Y-66654580D01*
X116030856Y-66654580D02*
X115954666Y-66730771D01*
X115954666Y-66730771D02*
X115878475Y-66768866D01*
X94554667Y-66859504D02*
X94516571Y-66897600D01*
X94516571Y-66897600D02*
X94402286Y-66935695D01*
X94402286Y-66935695D02*
X94326095Y-66935695D01*
X94326095Y-66935695D02*
X94211809Y-66897600D01*
X94211809Y-66897600D02*
X94135619Y-66821409D01*
X94135619Y-66821409D02*
X94097524Y-66745219D01*
X94097524Y-66745219D02*
X94059428Y-66592838D01*
X94059428Y-66592838D02*
X94059428Y-66478552D01*
X94059428Y-66478552D02*
X94097524Y-66326171D01*
X94097524Y-66326171D02*
X94135619Y-66249980D01*
X94135619Y-66249980D02*
X94211809Y-66173790D01*
X94211809Y-66173790D02*
X94326095Y-66135695D01*
X94326095Y-66135695D02*
X94402286Y-66135695D01*
X94402286Y-66135695D02*
X94516571Y-66173790D01*
X94516571Y-66173790D02*
X94554667Y-66211885D01*
X95316571Y-66935695D02*
X94859428Y-66935695D01*
X95088000Y-66935695D02*
X95088000Y-66135695D01*
X95088000Y-66135695D02*
X95011809Y-66249980D01*
X95011809Y-66249980D02*
X94935619Y-66326171D01*
X94935619Y-66326171D02*
X94859428Y-66364266D01*
X107054667Y-44264104D02*
X107016571Y-44302200D01*
X107016571Y-44302200D02*
X106902286Y-44340295D01*
X106902286Y-44340295D02*
X106826095Y-44340295D01*
X106826095Y-44340295D02*
X106711809Y-44302200D01*
X106711809Y-44302200D02*
X106635619Y-44226009D01*
X106635619Y-44226009D02*
X106597524Y-44149819D01*
X106597524Y-44149819D02*
X106559428Y-43997438D01*
X106559428Y-43997438D02*
X106559428Y-43883152D01*
X106559428Y-43883152D02*
X106597524Y-43730771D01*
X106597524Y-43730771D02*
X106635619Y-43654580D01*
X106635619Y-43654580D02*
X106711809Y-43578390D01*
X106711809Y-43578390D02*
X106826095Y-43540295D01*
X106826095Y-43540295D02*
X106902286Y-43540295D01*
X106902286Y-43540295D02*
X107016571Y-43578390D01*
X107016571Y-43578390D02*
X107054667Y-43616485D01*
X107740381Y-43806961D02*
X107740381Y-44340295D01*
X107549905Y-43502200D02*
X107359428Y-44073628D01*
X107359428Y-44073628D02*
X107854667Y-44073628D01*
X92554667Y-55840295D02*
X92288000Y-55459342D01*
X92097524Y-55840295D02*
X92097524Y-55040295D01*
X92097524Y-55040295D02*
X92402286Y-55040295D01*
X92402286Y-55040295D02*
X92478476Y-55078390D01*
X92478476Y-55078390D02*
X92516571Y-55116485D01*
X92516571Y-55116485D02*
X92554667Y-55192676D01*
X92554667Y-55192676D02*
X92554667Y-55306961D01*
X92554667Y-55306961D02*
X92516571Y-55383152D01*
X92516571Y-55383152D02*
X92478476Y-55421247D01*
X92478476Y-55421247D02*
X92402286Y-55459342D01*
X92402286Y-55459342D02*
X92097524Y-55459342D01*
X93240381Y-55040295D02*
X93088000Y-55040295D01*
X93088000Y-55040295D02*
X93011809Y-55078390D01*
X93011809Y-55078390D02*
X92973714Y-55116485D01*
X92973714Y-55116485D02*
X92897524Y-55230771D01*
X92897524Y-55230771D02*
X92859428Y-55383152D01*
X92859428Y-55383152D02*
X92859428Y-55687914D01*
X92859428Y-55687914D02*
X92897524Y-55764104D01*
X92897524Y-55764104D02*
X92935619Y-55802200D01*
X92935619Y-55802200D02*
X93011809Y-55840295D01*
X93011809Y-55840295D02*
X93164190Y-55840295D01*
X93164190Y-55840295D02*
X93240381Y-55802200D01*
X93240381Y-55802200D02*
X93278476Y-55764104D01*
X93278476Y-55764104D02*
X93316571Y-55687914D01*
X93316571Y-55687914D02*
X93316571Y-55497438D01*
X93316571Y-55497438D02*
X93278476Y-55421247D01*
X93278476Y-55421247D02*
X93240381Y-55383152D01*
X93240381Y-55383152D02*
X93164190Y-55345057D01*
X93164190Y-55345057D02*
X93011809Y-55345057D01*
X93011809Y-55345057D02*
X92935619Y-55383152D01*
X92935619Y-55383152D02*
X92897524Y-55421247D01*
X92897524Y-55421247D02*
X92859428Y-55497438D01*
X97230857Y-66840295D02*
X96964190Y-66459342D01*
X96773714Y-66840295D02*
X96773714Y-66040295D01*
X96773714Y-66040295D02*
X97078476Y-66040295D01*
X97078476Y-66040295D02*
X97154666Y-66078390D01*
X97154666Y-66078390D02*
X97192761Y-66116485D01*
X97192761Y-66116485D02*
X97230857Y-66192676D01*
X97230857Y-66192676D02*
X97230857Y-66306961D01*
X97230857Y-66306961D02*
X97192761Y-66383152D01*
X97192761Y-66383152D02*
X97154666Y-66421247D01*
X97154666Y-66421247D02*
X97078476Y-66459342D01*
X97078476Y-66459342D02*
X96773714Y-66459342D01*
X97573714Y-66840295D02*
X97573714Y-66040295D01*
X97573714Y-66040295D02*
X97878476Y-66040295D01*
X97878476Y-66040295D02*
X97954666Y-66078390D01*
X97954666Y-66078390D02*
X97992761Y-66116485D01*
X97992761Y-66116485D02*
X98030857Y-66192676D01*
X98030857Y-66192676D02*
X98030857Y-66306961D01*
X98030857Y-66306961D02*
X97992761Y-66383152D01*
X97992761Y-66383152D02*
X97954666Y-66421247D01*
X97954666Y-66421247D02*
X97878476Y-66459342D01*
X97878476Y-66459342D02*
X97573714Y-66459342D01*
X98183238Y-66916485D02*
X98792761Y-66916485D01*
X99440381Y-66764104D02*
X99402285Y-66802200D01*
X99402285Y-66802200D02*
X99288000Y-66840295D01*
X99288000Y-66840295D02*
X99211809Y-66840295D01*
X99211809Y-66840295D02*
X99097523Y-66802200D01*
X99097523Y-66802200D02*
X99021333Y-66726009D01*
X99021333Y-66726009D02*
X98983238Y-66649819D01*
X98983238Y-66649819D02*
X98945142Y-66497438D01*
X98945142Y-66497438D02*
X98945142Y-66383152D01*
X98945142Y-66383152D02*
X98983238Y-66230771D01*
X98983238Y-66230771D02*
X99021333Y-66154580D01*
X99021333Y-66154580D02*
X99097523Y-66078390D01*
X99097523Y-66078390D02*
X99211809Y-66040295D01*
X99211809Y-66040295D02*
X99288000Y-66040295D01*
X99288000Y-66040295D02*
X99402285Y-66078390D01*
X99402285Y-66078390D02*
X99440381Y-66116485D01*
X99783238Y-66840295D02*
X99783238Y-66040295D01*
X99783238Y-66421247D02*
X100240381Y-66421247D01*
X100240381Y-66840295D02*
X100240381Y-66040295D01*
X101078476Y-66840295D02*
X100811809Y-66459342D01*
X100621333Y-66840295D02*
X100621333Y-66040295D01*
X100621333Y-66040295D02*
X100926095Y-66040295D01*
X100926095Y-66040295D02*
X101002285Y-66078390D01*
X101002285Y-66078390D02*
X101040380Y-66116485D01*
X101040380Y-66116485D02*
X101078476Y-66192676D01*
X101078476Y-66192676D02*
X101078476Y-66306961D01*
X101078476Y-66306961D02*
X101040380Y-66383152D01*
X101040380Y-66383152D02*
X101002285Y-66421247D01*
X101002285Y-66421247D02*
X100926095Y-66459342D01*
X100926095Y-66459342D02*
X100621333Y-66459342D01*
X101840380Y-66078390D02*
X101764190Y-66040295D01*
X101764190Y-66040295D02*
X101649904Y-66040295D01*
X101649904Y-66040295D02*
X101535618Y-66078390D01*
X101535618Y-66078390D02*
X101459428Y-66154580D01*
X101459428Y-66154580D02*
X101421333Y-66230771D01*
X101421333Y-66230771D02*
X101383237Y-66383152D01*
X101383237Y-66383152D02*
X101383237Y-66497438D01*
X101383237Y-66497438D02*
X101421333Y-66649819D01*
X101421333Y-66649819D02*
X101459428Y-66726009D01*
X101459428Y-66726009D02*
X101535618Y-66802200D01*
X101535618Y-66802200D02*
X101649904Y-66840295D01*
X101649904Y-66840295D02*
X101726095Y-66840295D01*
X101726095Y-66840295D02*
X101840380Y-66802200D01*
X101840380Y-66802200D02*
X101878476Y-66764104D01*
X101878476Y-66764104D02*
X101878476Y-66497438D01*
X101878476Y-66497438D02*
X101726095Y-66497438D01*
X102640380Y-66840295D02*
X102183237Y-66840295D01*
X102411809Y-66840295D02*
X102411809Y-66040295D01*
X102411809Y-66040295D02*
X102335618Y-66154580D01*
X102335618Y-66154580D02*
X102259428Y-66230771D01*
X102259428Y-66230771D02*
X102183237Y-66268866D01*
X115000295Y-46309666D02*
X115571723Y-46309666D01*
X115571723Y-46309666D02*
X115686009Y-46347761D01*
X115686009Y-46347761D02*
X115762200Y-46423952D01*
X115762200Y-46423952D02*
X115800295Y-46538237D01*
X115800295Y-46538237D02*
X115800295Y-46614428D01*
X115076485Y-45966809D02*
X115038390Y-45928713D01*
X115038390Y-45928713D02*
X115000295Y-45852523D01*
X115000295Y-45852523D02*
X115000295Y-45662047D01*
X115000295Y-45662047D02*
X115038390Y-45585856D01*
X115038390Y-45585856D02*
X115076485Y-45547761D01*
X115076485Y-45547761D02*
X115152676Y-45509666D01*
X115152676Y-45509666D02*
X115228866Y-45509666D01*
X115228866Y-45509666D02*
X115343152Y-45547761D01*
X115343152Y-45547761D02*
X115800295Y-46004904D01*
X115800295Y-46004904D02*
X115800295Y-45509666D01*
X108554667Y-46840295D02*
X108288000Y-46459342D01*
X108097524Y-46840295D02*
X108097524Y-46040295D01*
X108097524Y-46040295D02*
X108402286Y-46040295D01*
X108402286Y-46040295D02*
X108478476Y-46078390D01*
X108478476Y-46078390D02*
X108516571Y-46116485D01*
X108516571Y-46116485D02*
X108554667Y-46192676D01*
X108554667Y-46192676D02*
X108554667Y-46306961D01*
X108554667Y-46306961D02*
X108516571Y-46383152D01*
X108516571Y-46383152D02*
X108478476Y-46421247D01*
X108478476Y-46421247D02*
X108402286Y-46459342D01*
X108402286Y-46459342D02*
X108097524Y-46459342D01*
X108935619Y-46840295D02*
X109088000Y-46840295D01*
X109088000Y-46840295D02*
X109164190Y-46802200D01*
X109164190Y-46802200D02*
X109202286Y-46764104D01*
X109202286Y-46764104D02*
X109278476Y-46649819D01*
X109278476Y-46649819D02*
X109316571Y-46497438D01*
X109316571Y-46497438D02*
X109316571Y-46192676D01*
X109316571Y-46192676D02*
X109278476Y-46116485D01*
X109278476Y-46116485D02*
X109240381Y-46078390D01*
X109240381Y-46078390D02*
X109164190Y-46040295D01*
X109164190Y-46040295D02*
X109011809Y-46040295D01*
X109011809Y-46040295D02*
X108935619Y-46078390D01*
X108935619Y-46078390D02*
X108897524Y-46116485D01*
X108897524Y-46116485D02*
X108859428Y-46192676D01*
X108859428Y-46192676D02*
X108859428Y-46383152D01*
X108859428Y-46383152D02*
X108897524Y-46459342D01*
X108897524Y-46459342D02*
X108935619Y-46497438D01*
X108935619Y-46497438D02*
X109011809Y-46535533D01*
X109011809Y-46535533D02*
X109164190Y-46535533D01*
X109164190Y-46535533D02*
X109240381Y-46497438D01*
X109240381Y-46497438D02*
X109278476Y-46459342D01*
X109278476Y-46459342D02*
X109316571Y-46383152D01*
X112760476Y-71562295D02*
X112760476Y-70762295D01*
X112760476Y-71143247D02*
X113217619Y-71143247D01*
X113217619Y-71562295D02*
X113217619Y-70762295D01*
X113522380Y-70762295D02*
X114017618Y-70762295D01*
X114017618Y-70762295D02*
X113750952Y-71067057D01*
X113750952Y-71067057D02*
X113865237Y-71067057D01*
X113865237Y-71067057D02*
X113941428Y-71105152D01*
X113941428Y-71105152D02*
X113979523Y-71143247D01*
X113979523Y-71143247D02*
X114017618Y-71219438D01*
X114017618Y-71219438D02*
X114017618Y-71409914D01*
X114017618Y-71409914D02*
X113979523Y-71486104D01*
X113979523Y-71486104D02*
X113941428Y-71524200D01*
X113941428Y-71524200D02*
X113865237Y-71562295D01*
X113865237Y-71562295D02*
X113636666Y-71562295D01*
X113636666Y-71562295D02*
X113560475Y-71524200D01*
X113560475Y-71524200D02*
X113522380Y-71486104D01*
X103311810Y-60340295D02*
X103045143Y-59959342D01*
X102854667Y-60340295D02*
X102854667Y-59540295D01*
X102854667Y-59540295D02*
X103159429Y-59540295D01*
X103159429Y-59540295D02*
X103235619Y-59578390D01*
X103235619Y-59578390D02*
X103273714Y-59616485D01*
X103273714Y-59616485D02*
X103311810Y-59692676D01*
X103311810Y-59692676D02*
X103311810Y-59806961D01*
X103311810Y-59806961D02*
X103273714Y-59883152D01*
X103273714Y-59883152D02*
X103235619Y-59921247D01*
X103235619Y-59921247D02*
X103159429Y-59959342D01*
X103159429Y-59959342D02*
X102854667Y-59959342D01*
X103921333Y-59921247D02*
X103654667Y-59921247D01*
X103654667Y-60340295D02*
X103654667Y-59540295D01*
X103654667Y-59540295D02*
X104035619Y-59540295D01*
X104607047Y-59921247D02*
X104721333Y-59959342D01*
X104721333Y-59959342D02*
X104759428Y-59997438D01*
X104759428Y-59997438D02*
X104797524Y-60073628D01*
X104797524Y-60073628D02*
X104797524Y-60187914D01*
X104797524Y-60187914D02*
X104759428Y-60264104D01*
X104759428Y-60264104D02*
X104721333Y-60302200D01*
X104721333Y-60302200D02*
X104645143Y-60340295D01*
X104645143Y-60340295D02*
X104340381Y-60340295D01*
X104340381Y-60340295D02*
X104340381Y-59540295D01*
X104340381Y-59540295D02*
X104607047Y-59540295D01*
X104607047Y-59540295D02*
X104683238Y-59578390D01*
X104683238Y-59578390D02*
X104721333Y-59616485D01*
X104721333Y-59616485D02*
X104759428Y-59692676D01*
X104759428Y-59692676D02*
X104759428Y-59768866D01*
X104759428Y-59768866D02*
X104721333Y-59845057D01*
X104721333Y-59845057D02*
X104683238Y-59883152D01*
X104683238Y-59883152D02*
X104607047Y-59921247D01*
X104607047Y-59921247D02*
X104340381Y-59921247D01*
X105559428Y-60340295D02*
X105102285Y-60340295D01*
X105330857Y-60340295D02*
X105330857Y-59540295D01*
X105330857Y-59540295D02*
X105254666Y-59654580D01*
X105254666Y-59654580D02*
X105178476Y-59730771D01*
X105178476Y-59730771D02*
X105102285Y-59768866D01*
X103054667Y-44340295D02*
X102788000Y-43959342D01*
X102597524Y-44340295D02*
X102597524Y-43540295D01*
X102597524Y-43540295D02*
X102902286Y-43540295D01*
X102902286Y-43540295D02*
X102978476Y-43578390D01*
X102978476Y-43578390D02*
X103016571Y-43616485D01*
X103016571Y-43616485D02*
X103054667Y-43692676D01*
X103054667Y-43692676D02*
X103054667Y-43806961D01*
X103054667Y-43806961D02*
X103016571Y-43883152D01*
X103016571Y-43883152D02*
X102978476Y-43921247D01*
X102978476Y-43921247D02*
X102902286Y-43959342D01*
X102902286Y-43959342D02*
X102597524Y-43959342D01*
X103511809Y-43883152D02*
X103435619Y-43845057D01*
X103435619Y-43845057D02*
X103397524Y-43806961D01*
X103397524Y-43806961D02*
X103359428Y-43730771D01*
X103359428Y-43730771D02*
X103359428Y-43692676D01*
X103359428Y-43692676D02*
X103397524Y-43616485D01*
X103397524Y-43616485D02*
X103435619Y-43578390D01*
X103435619Y-43578390D02*
X103511809Y-43540295D01*
X103511809Y-43540295D02*
X103664190Y-43540295D01*
X103664190Y-43540295D02*
X103740381Y-43578390D01*
X103740381Y-43578390D02*
X103778476Y-43616485D01*
X103778476Y-43616485D02*
X103816571Y-43692676D01*
X103816571Y-43692676D02*
X103816571Y-43730771D01*
X103816571Y-43730771D02*
X103778476Y-43806961D01*
X103778476Y-43806961D02*
X103740381Y-43845057D01*
X103740381Y-43845057D02*
X103664190Y-43883152D01*
X103664190Y-43883152D02*
X103511809Y-43883152D01*
X103511809Y-43883152D02*
X103435619Y-43921247D01*
X103435619Y-43921247D02*
X103397524Y-43959342D01*
X103397524Y-43959342D02*
X103359428Y-44035533D01*
X103359428Y-44035533D02*
X103359428Y-44187914D01*
X103359428Y-44187914D02*
X103397524Y-44264104D01*
X103397524Y-44264104D02*
X103435619Y-44302200D01*
X103435619Y-44302200D02*
X103511809Y-44340295D01*
X103511809Y-44340295D02*
X103664190Y-44340295D01*
X103664190Y-44340295D02*
X103740381Y-44302200D01*
X103740381Y-44302200D02*
X103778476Y-44264104D01*
X103778476Y-44264104D02*
X103816571Y-44187914D01*
X103816571Y-44187914D02*
X103816571Y-44035533D01*
X103816571Y-44035533D02*
X103778476Y-43959342D01*
X103778476Y-43959342D02*
X103740381Y-43921247D01*
X103740381Y-43921247D02*
X103664190Y-43883152D01*
X114050295Y-58354189D02*
X113669342Y-58620856D01*
X114050295Y-58811332D02*
X113250295Y-58811332D01*
X113250295Y-58811332D02*
X113250295Y-58506570D01*
X113250295Y-58506570D02*
X113288390Y-58430380D01*
X113288390Y-58430380D02*
X113326485Y-58392285D01*
X113326485Y-58392285D02*
X113402676Y-58354189D01*
X113402676Y-58354189D02*
X113516961Y-58354189D01*
X113516961Y-58354189D02*
X113593152Y-58392285D01*
X113593152Y-58392285D02*
X113631247Y-58430380D01*
X113631247Y-58430380D02*
X113669342Y-58506570D01*
X113669342Y-58506570D02*
X113669342Y-58811332D01*
X113631247Y-57744666D02*
X113631247Y-58011332D01*
X114050295Y-58011332D02*
X113250295Y-58011332D01*
X113250295Y-58011332D02*
X113250295Y-57630380D01*
X113288390Y-56906571D02*
X113250295Y-56982761D01*
X113250295Y-56982761D02*
X113250295Y-57097047D01*
X113250295Y-57097047D02*
X113288390Y-57211333D01*
X113288390Y-57211333D02*
X113364580Y-57287523D01*
X113364580Y-57287523D02*
X113440771Y-57325618D01*
X113440771Y-57325618D02*
X113593152Y-57363714D01*
X113593152Y-57363714D02*
X113707438Y-57363714D01*
X113707438Y-57363714D02*
X113859819Y-57325618D01*
X113859819Y-57325618D02*
X113936009Y-57287523D01*
X113936009Y-57287523D02*
X114012200Y-57211333D01*
X114012200Y-57211333D02*
X114050295Y-57097047D01*
X114050295Y-57097047D02*
X114050295Y-57020856D01*
X114050295Y-57020856D02*
X114012200Y-56906571D01*
X114012200Y-56906571D02*
X113974104Y-56868475D01*
X113974104Y-56868475D02*
X113707438Y-56868475D01*
X113707438Y-56868475D02*
X113707438Y-57020856D01*
X113326485Y-56563714D02*
X113288390Y-56525618D01*
X113288390Y-56525618D02*
X113250295Y-56449428D01*
X113250295Y-56449428D02*
X113250295Y-56258952D01*
X113250295Y-56258952D02*
X113288390Y-56182761D01*
X113288390Y-56182761D02*
X113326485Y-56144666D01*
X113326485Y-56144666D02*
X113402676Y-56106571D01*
X113402676Y-56106571D02*
X113478866Y-56106571D01*
X113478866Y-56106571D02*
X113593152Y-56144666D01*
X113593152Y-56144666D02*
X114050295Y-56601809D01*
X114050295Y-56601809D02*
X114050295Y-56106571D01*
X109811810Y-60340295D02*
X109545143Y-59959342D01*
X109354667Y-60340295D02*
X109354667Y-59540295D01*
X109354667Y-59540295D02*
X109659429Y-59540295D01*
X109659429Y-59540295D02*
X109735619Y-59578390D01*
X109735619Y-59578390D02*
X109773714Y-59616485D01*
X109773714Y-59616485D02*
X109811810Y-59692676D01*
X109811810Y-59692676D02*
X109811810Y-59806961D01*
X109811810Y-59806961D02*
X109773714Y-59883152D01*
X109773714Y-59883152D02*
X109735619Y-59921247D01*
X109735619Y-59921247D02*
X109659429Y-59959342D01*
X109659429Y-59959342D02*
X109354667Y-59959342D01*
X110421333Y-59921247D02*
X110154667Y-59921247D01*
X110154667Y-60340295D02*
X110154667Y-59540295D01*
X110154667Y-59540295D02*
X110535619Y-59540295D01*
X111259428Y-59578390D02*
X111183238Y-59540295D01*
X111183238Y-59540295D02*
X111068952Y-59540295D01*
X111068952Y-59540295D02*
X110954666Y-59578390D01*
X110954666Y-59578390D02*
X110878476Y-59654580D01*
X110878476Y-59654580D02*
X110840381Y-59730771D01*
X110840381Y-59730771D02*
X110802285Y-59883152D01*
X110802285Y-59883152D02*
X110802285Y-59997438D01*
X110802285Y-59997438D02*
X110840381Y-60149819D01*
X110840381Y-60149819D02*
X110878476Y-60226009D01*
X110878476Y-60226009D02*
X110954666Y-60302200D01*
X110954666Y-60302200D02*
X111068952Y-60340295D01*
X111068952Y-60340295D02*
X111145143Y-60340295D01*
X111145143Y-60340295D02*
X111259428Y-60302200D01*
X111259428Y-60302200D02*
X111297524Y-60264104D01*
X111297524Y-60264104D02*
X111297524Y-59997438D01*
X111297524Y-59997438D02*
X111145143Y-59997438D01*
X112059428Y-60340295D02*
X111602285Y-60340295D01*
X111830857Y-60340295D02*
X111830857Y-59540295D01*
X111830857Y-59540295D02*
X111754666Y-59654580D01*
X111754666Y-59654580D02*
X111678476Y-59730771D01*
X111678476Y-59730771D02*
X111602285Y-59768866D01*
X114050295Y-54797046D02*
X113669342Y-55063713D01*
X114050295Y-55254189D02*
X113250295Y-55254189D01*
X113250295Y-55254189D02*
X113250295Y-54949427D01*
X113250295Y-54949427D02*
X113288390Y-54873237D01*
X113288390Y-54873237D02*
X113326485Y-54835142D01*
X113326485Y-54835142D02*
X113402676Y-54797046D01*
X113402676Y-54797046D02*
X113516961Y-54797046D01*
X113516961Y-54797046D02*
X113593152Y-54835142D01*
X113593152Y-54835142D02*
X113631247Y-54873237D01*
X113631247Y-54873237D02*
X113669342Y-54949427D01*
X113669342Y-54949427D02*
X113669342Y-55254189D01*
X113631247Y-54187523D02*
X113631247Y-54454189D01*
X114050295Y-54454189D02*
X113250295Y-54454189D01*
X113250295Y-54454189D02*
X113250295Y-54073237D01*
X113250295Y-53882761D02*
X114050295Y-53616094D01*
X114050295Y-53616094D02*
X113250295Y-53349428D01*
X113326485Y-53120857D02*
X113288390Y-53082761D01*
X113288390Y-53082761D02*
X113250295Y-53006571D01*
X113250295Y-53006571D02*
X113250295Y-52816095D01*
X113250295Y-52816095D02*
X113288390Y-52739904D01*
X113288390Y-52739904D02*
X113326485Y-52701809D01*
X113326485Y-52701809D02*
X113402676Y-52663714D01*
X113402676Y-52663714D02*
X113478866Y-52663714D01*
X113478866Y-52663714D02*
X113593152Y-52701809D01*
X113593152Y-52701809D02*
X114050295Y-53158952D01*
X114050295Y-53158952D02*
X114050295Y-52663714D01*
X110921333Y-71540295D02*
X110921333Y-72111723D01*
X110921333Y-72111723D02*
X110883238Y-72226009D01*
X110883238Y-72226009D02*
X110807047Y-72302200D01*
X110807047Y-72302200D02*
X110692762Y-72340295D01*
X110692762Y-72340295D02*
X110616571Y-72340295D01*
X111226095Y-71540295D02*
X111721333Y-71540295D01*
X111721333Y-71540295D02*
X111454667Y-71845057D01*
X111454667Y-71845057D02*
X111568952Y-71845057D01*
X111568952Y-71845057D02*
X111645143Y-71883152D01*
X111645143Y-71883152D02*
X111683238Y-71921247D01*
X111683238Y-71921247D02*
X111721333Y-71997438D01*
X111721333Y-71997438D02*
X111721333Y-72187914D01*
X111721333Y-72187914D02*
X111683238Y-72264104D01*
X111683238Y-72264104D02*
X111645143Y-72302200D01*
X111645143Y-72302200D02*
X111568952Y-72340295D01*
X111568952Y-72340295D02*
X111340381Y-72340295D01*
X111340381Y-72340295D02*
X111264190Y-72302200D01*
X111264190Y-72302200D02*
X111226095Y-72264104D01*
X95778476Y-44340295D02*
X95778476Y-43540295D01*
X95778476Y-43540295D02*
X95968952Y-43540295D01*
X95968952Y-43540295D02*
X96083238Y-43578390D01*
X96083238Y-43578390D02*
X96159428Y-43654580D01*
X96159428Y-43654580D02*
X96197523Y-43730771D01*
X96197523Y-43730771D02*
X96235619Y-43883152D01*
X96235619Y-43883152D02*
X96235619Y-43997438D01*
X96235619Y-43997438D02*
X96197523Y-44149819D01*
X96197523Y-44149819D02*
X96159428Y-44226009D01*
X96159428Y-44226009D02*
X96083238Y-44302200D01*
X96083238Y-44302200D02*
X95968952Y-44340295D01*
X95968952Y-44340295D02*
X95778476Y-44340295D01*
X96578476Y-44340295D02*
X96578476Y-43540295D01*
X96578476Y-43540295D02*
X97035619Y-44340295D01*
X97035619Y-44340295D02*
X97035619Y-43540295D01*
X97873714Y-44264104D02*
X97835618Y-44302200D01*
X97835618Y-44302200D02*
X97721333Y-44340295D01*
X97721333Y-44340295D02*
X97645142Y-44340295D01*
X97645142Y-44340295D02*
X97530856Y-44302200D01*
X97530856Y-44302200D02*
X97454666Y-44226009D01*
X97454666Y-44226009D02*
X97416571Y-44149819D01*
X97416571Y-44149819D02*
X97378475Y-43997438D01*
X97378475Y-43997438D02*
X97378475Y-43883152D01*
X97378475Y-43883152D02*
X97416571Y-43730771D01*
X97416571Y-43730771D02*
X97454666Y-43654580D01*
X97454666Y-43654580D02*
X97530856Y-43578390D01*
X97530856Y-43578390D02*
X97645142Y-43540295D01*
X97645142Y-43540295D02*
X97721333Y-43540295D01*
X97721333Y-43540295D02*
X97835618Y-43578390D01*
X97835618Y-43578390D02*
X97873714Y-43616485D01*
X98635618Y-44340295D02*
X98178475Y-44340295D01*
X98407047Y-44340295D02*
X98407047Y-43540295D01*
X98407047Y-43540295D02*
X98330856Y-43654580D01*
X98330856Y-43654580D02*
X98254666Y-43730771D01*
X98254666Y-43730771D02*
X98178475Y-43768866D01*
X109545553Y-56340295D02*
X109278886Y-55959342D01*
X109088410Y-56340295D02*
X109088410Y-55540295D01*
X109088410Y-55540295D02*
X109393172Y-55540295D01*
X109393172Y-55540295D02*
X109469362Y-55578390D01*
X109469362Y-55578390D02*
X109507457Y-55616485D01*
X109507457Y-55616485D02*
X109545553Y-55692676D01*
X109545553Y-55692676D02*
X109545553Y-55806961D01*
X109545553Y-55806961D02*
X109507457Y-55883152D01*
X109507457Y-55883152D02*
X109469362Y-55921247D01*
X109469362Y-55921247D02*
X109393172Y-55959342D01*
X109393172Y-55959342D02*
X109088410Y-55959342D01*
X110155076Y-55921247D02*
X109888410Y-55921247D01*
X109888410Y-56340295D02*
X109888410Y-55540295D01*
X109888410Y-55540295D02*
X110269362Y-55540295D01*
X110459838Y-55540295D02*
X110726505Y-56340295D01*
X110726505Y-56340295D02*
X110993171Y-55540295D01*
X111678885Y-56340295D02*
X111221742Y-56340295D01*
X111450314Y-56340295D02*
X111450314Y-55540295D01*
X111450314Y-55540295D02*
X111374123Y-55654580D01*
X111374123Y-55654580D02*
X111297933Y-55730771D01*
X111297933Y-55730771D02*
X111221742Y-55768866D01*
%TO.C,J5*%
D12*
X88895800Y-70034400D02*
X88895800Y-67434400D01*
X91555800Y-67434400D02*
X88895800Y-67434400D01*
X91555800Y-70034400D02*
X88895800Y-70034400D01*
X91555800Y-70034400D02*
X91555800Y-67434400D01*
X91555800Y-71304400D02*
X91555800Y-72634400D01*
X91555800Y-72634400D02*
X90225800Y-72634400D01*
%TO.C,L4*%
D13*
X89000000Y-48100000D02*
X89000000Y-48100000D01*
X89100000Y-48100000D02*
X89100000Y-48100000D01*
D14*
X89560000Y-45660000D02*
X94840000Y-45660000D01*
X89560000Y-50940000D02*
X89560000Y-45660000D01*
X94840000Y-45660000D02*
X94840000Y-50940000D01*
X94840000Y-50940000D02*
X89560000Y-50940000D01*
D13*
X89000000Y-48100000D02*
G75*
G02*
X89100000Y-48100000I50000J0D01*
G01*
X89100000Y-48100000D02*
G75*
G02*
X89000000Y-48100000I-50000J0D01*
G01*
%TO.C,RFV0*%
D12*
X108267300Y-53839342D02*
X108267300Y-54313858D01*
X109312300Y-53839342D02*
X109312300Y-54313858D01*
%TO.C,C5*%
X112659420Y-44590000D02*
X112940580Y-44590000D01*
X112659420Y-45610000D02*
X112940580Y-45610000D01*
%TO.C,C3*%
X105056052Y-70057600D02*
X103633548Y-70057600D01*
X105056052Y-71877600D02*
X103633548Y-71877600D01*
%TO.C,IC2*%
X111790000Y-50810000D02*
X111790000Y-50085000D01*
X112515000Y-47590000D02*
X111790000Y-47590000D01*
X112515000Y-50810000D02*
X111790000Y-50810000D01*
X114285000Y-47590000D02*
X115010000Y-47590000D01*
X114285000Y-50810000D02*
X115010000Y-50810000D01*
X115010000Y-47590000D02*
X115010000Y-48315000D01*
X115010000Y-50810000D02*
X115010000Y-50085000D01*
%TO.C,R4*%
X95124536Y-62358600D02*
X95578664Y-62358600D01*
X95124536Y-63828600D02*
X95578664Y-63828600D01*
%TO.C,RPF2*%
X89062742Y-64577500D02*
X89537258Y-64577500D01*
X89062742Y-65622500D02*
X89537258Y-65622500D01*
%TO.C,DNC2*%
X100677500Y-46074758D02*
X100677500Y-45600242D01*
X101722500Y-46074758D02*
X101722500Y-45600242D01*
%TO.C,RFG0*%
X108267300Y-57750942D02*
X108267300Y-58225458D01*
X109312300Y-57750942D02*
X109312300Y-58225458D01*
%TO.C,C2*%
X97390000Y-45696920D02*
X97390000Y-45978080D01*
X98410000Y-45696920D02*
X98410000Y-45978080D01*
%TO.C,L5*%
X109440000Y-49599622D02*
X109440000Y-48800378D01*
X110560000Y-49599622D02*
X110560000Y-48800378D01*
%TO.C,J1*%
X88928000Y-40152200D02*
X90258000Y-40152200D01*
X88928000Y-41482200D02*
X88928000Y-40152200D01*
X91528000Y-40152200D02*
X114448000Y-40152200D01*
X91528000Y-42812200D02*
X91528000Y-40152200D01*
X91528000Y-42812200D02*
X114448000Y-42812200D01*
X114448000Y-42812200D02*
X114448000Y-40152200D01*
%TO.C,RBIAS1*%
X114490300Y-59063658D02*
X114490300Y-58589142D01*
X115535300Y-59063658D02*
X115535300Y-58589142D01*
D10*
%TO.C,RFB2*%
G36*
X105138718Y-64332774D02*
G01*
X105148657Y-64346175D01*
X105159861Y-64358538D01*
X105172224Y-64369742D01*
X105185625Y-64379681D01*
X105230281Y-64409518D01*
X105242400Y-64416781D01*
X105242400Y-64615218D01*
X105230281Y-64622481D01*
X105185625Y-64652318D01*
X105172224Y-64662257D01*
X105159861Y-64673461D01*
X105148657Y-64685824D01*
X105138718Y-64699225D01*
X105134077Y-64706171D01*
X105122400Y-64694494D01*
X105122400Y-64337506D01*
X105134077Y-64325828D01*
X105138718Y-64332774D01*
G37*
G36*
X106002400Y-64337506D02*
G01*
X106002400Y-64694494D01*
X105990722Y-64706171D01*
X105986081Y-64699225D01*
X105976142Y-64685824D01*
X105964938Y-64673461D01*
X105952575Y-64662257D01*
X105939174Y-64652318D01*
X105894518Y-64622481D01*
X105882400Y-64615218D01*
X105882400Y-64416781D01*
X105894518Y-64409518D01*
X105939174Y-64379681D01*
X105952575Y-64369742D01*
X105964938Y-64358538D01*
X105976142Y-64346175D01*
X105986081Y-64332774D01*
X105990722Y-64325828D01*
X106002400Y-64337506D01*
G37*
%TO.C,IC1*%
D12*
X102900000Y-47590000D02*
X100700000Y-47590000D01*
X102900000Y-47590000D02*
X105100000Y-47590000D01*
X102900000Y-50810000D02*
X100700000Y-50810000D01*
X102900000Y-50810000D02*
X106500000Y-50810000D01*
%TO.C,U4*%
X96090000Y-60610000D02*
X96090000Y-59885000D01*
X96815000Y-55390000D02*
X96090000Y-55390000D01*
X96815000Y-60610000D02*
X96090000Y-60610000D01*
X99585000Y-55390000D02*
X100310000Y-55390000D01*
X99585000Y-60610000D02*
X100310000Y-60610000D01*
X100310000Y-55390000D02*
X100310000Y-56115000D01*
X100310000Y-60610000D02*
X100310000Y-59885000D01*
%TO.C,R7*%
X103873100Y-46033458D02*
X103873100Y-45558942D01*
X104918100Y-46033458D02*
X104918100Y-45558942D01*
%TO.C,RP_FAULT1*%
X102365000Y-64727064D02*
X102365000Y-64272936D01*
X103835000Y-64727064D02*
X103835000Y-64272936D01*
%TO.C,RPF1*%
X92262742Y-64577500D02*
X92737258Y-64577500D01*
X92262742Y-65622500D02*
X92737258Y-65622500D01*
%TO.C,Q1*%
X109494800Y-63501400D02*
X109494800Y-69391400D01*
X114634800Y-63046400D02*
X114634800Y-69391400D01*
%TO.C,C1*%
X92623580Y-66063400D02*
X92342420Y-66063400D01*
X92623580Y-67083400D02*
X92342420Y-67083400D01*
%TO.C,C4*%
X105490000Y-45940580D02*
X105490000Y-45659420D01*
X106510000Y-45940580D02*
X106510000Y-45659420D01*
%TO.C,R6*%
X94077500Y-55462742D02*
X94077500Y-55937258D01*
X95122500Y-55462742D02*
X95122500Y-55937258D01*
%TO.C,RP_CHRG1*%
X99065000Y-64727064D02*
X99065000Y-64272936D01*
X100535000Y-64727064D02*
X100535000Y-64272936D01*
%TO.C,J2*%
X116848800Y-47813000D02*
X116848800Y-70733000D01*
X116848800Y-47813000D02*
X119508800Y-47813000D01*
X116848800Y-70733000D02*
X119508800Y-70733000D01*
X118178800Y-45213000D02*
X119508800Y-45213000D01*
X119508800Y-45213000D02*
X119508800Y-46543000D01*
X119508800Y-47813000D02*
X119508800Y-70733000D01*
%TO.C,R9*%
X108162742Y-44577500D02*
X108637258Y-44577500D01*
X108162742Y-45622500D02*
X108637258Y-45622500D01*
%TO.C,RFB1*%
X103377500Y-57562742D02*
X103377500Y-58037258D01*
X104422500Y-57562742D02*
X104422500Y-58037258D01*
%TO.C,R8*%
X102272900Y-46058858D02*
X102272900Y-45584342D01*
X103317900Y-46058858D02*
X103317900Y-45584342D01*
%TO.C,J4*%
X83858000Y-68133000D02*
X83858000Y-45213000D01*
X83858000Y-70733000D02*
X83858000Y-69403000D01*
X85188000Y-70733000D02*
X83858000Y-70733000D01*
X86518000Y-45213000D02*
X83858000Y-45213000D01*
X86518000Y-68133000D02*
X83858000Y-68133000D01*
X86518000Y-68133000D02*
X86518000Y-45213000D01*
%TO.C,RFG2*%
X111391500Y-57750942D02*
X111391500Y-58225458D01*
X112436500Y-57750942D02*
X112436500Y-58225458D01*
%TO.C,RFG1*%
X109842100Y-57750942D02*
X109842100Y-58225458D01*
X110887100Y-57750942D02*
X110887100Y-58225458D01*
%TO.C,RFV2*%
X111391500Y-53864742D02*
X111391500Y-54339258D01*
X112436500Y-53864742D02*
X112436500Y-54339258D01*
%TO.C,J3*%
X88943200Y-73168200D02*
X88943200Y-75828200D01*
X111863200Y-73168200D02*
X88943200Y-73168200D01*
X111863200Y-73168200D02*
X111863200Y-75828200D01*
X111863200Y-75828200D02*
X88943200Y-75828200D01*
X114463200Y-74498200D02*
X114463200Y-75828200D01*
X114463200Y-75828200D02*
X113133200Y-75828200D01*
%TO.C,DNC1*%
X99077500Y-46074758D02*
X99077500Y-45600242D01*
X100122500Y-46074758D02*
X100122500Y-45600242D01*
%TO.C,RFV1*%
X109842100Y-53839342D02*
X109842100Y-54313858D01*
X110887100Y-53839342D02*
X110887100Y-54313858D01*
%TD*%
%LPC*%
D15*
%TO.C,J5*%
X90225800Y-71304400D03*
D16*
X90225800Y-68764400D03*
%TD*%
D17*
%TO.C,L4*%
X90545000Y-48300000D03*
X93855000Y-48300000D03*
%TD*%
D18*
%TO.C,RFV0*%
X108789800Y-53251600D03*
X108789800Y-54901600D03*
%TD*%
D19*
%TO.C,C5*%
X112025000Y-45100000D03*
X113575000Y-45100000D03*
%TD*%
D20*
%TO.C,C3*%
X105819800Y-70967600D03*
X102869800Y-70967600D03*
%TD*%
D21*
%TO.C,IC2*%
X111962500Y-48700000D03*
X111962500Y-49200000D03*
X111962500Y-49700000D03*
D22*
X112900000Y-50637500D03*
X113400000Y-50637500D03*
X113900000Y-50637500D03*
D21*
X114837500Y-49700000D03*
X114837500Y-49200000D03*
X114837500Y-48700000D03*
D22*
X113900000Y-47762500D03*
X113400000Y-47762500D03*
X112900000Y-47762500D03*
D23*
X113400000Y-49200000D03*
%TD*%
D24*
%TO.C,R4*%
X94439100Y-63093600D03*
X96264100Y-63093600D03*
%TD*%
D25*
%TO.C,RPF2*%
X88475000Y-65100000D03*
X90125000Y-65100000D03*
%TD*%
D26*
%TO.C,DNC2*%
X101200000Y-46662500D03*
X101200000Y-45012500D03*
%TD*%
D18*
%TO.C,RFG0*%
X108789800Y-57163200D03*
X108789800Y-58813200D03*
%TD*%
D27*
%TO.C,C2*%
X97900000Y-45062500D03*
X97900000Y-46612500D03*
%TD*%
D28*
%TO.C,L5*%
X110000000Y-50262500D03*
X110000000Y-48137500D03*
%TD*%
D29*
%TO.C,H4*%
X85188000Y-74473000D03*
%TD*%
D15*
%TO.C,J1*%
X90258000Y-41482200D03*
D16*
X92798000Y-41482200D03*
X95338000Y-41482200D03*
X97878000Y-41482200D03*
X100418000Y-41482200D03*
X102958000Y-41482200D03*
X105498000Y-41482200D03*
X108038000Y-41482200D03*
X110578000Y-41482200D03*
X113118000Y-41482200D03*
%TD*%
D26*
%TO.C,RBIAS1*%
X115012800Y-59651400D03*
X115012800Y-58001400D03*
%TD*%
D30*
%TO.C,RFB2*%
X105562400Y-64006000D03*
X105562400Y-65026000D03*
%TD*%
D31*
%TO.C,IC1*%
X105762500Y-50175000D03*
X105762500Y-49525000D03*
X105762500Y-48875000D03*
X105762500Y-48225000D03*
X100037500Y-48225000D03*
X100037500Y-48875000D03*
X100037500Y-49525000D03*
X100037500Y-50175000D03*
%TD*%
D32*
%TO.C,U4*%
X96250000Y-56500000D03*
X96250000Y-57000000D03*
X96250000Y-57500000D03*
X96250000Y-58000000D03*
X96250000Y-58500000D03*
X96250000Y-59000000D03*
X96250000Y-59500000D03*
D33*
X97200000Y-60450000D03*
X97700000Y-60450000D03*
X98200000Y-60450000D03*
X98700000Y-60450000D03*
X99200000Y-60450000D03*
D32*
X100150000Y-59500000D03*
X100150000Y-59000000D03*
X100150000Y-58500000D03*
X100150000Y-58000000D03*
X100150000Y-57500000D03*
X100150000Y-57000000D03*
X100150000Y-56500000D03*
D33*
X99200000Y-55550000D03*
X98700000Y-55550000D03*
X98200000Y-55550000D03*
X97700000Y-55550000D03*
X97200000Y-55550000D03*
D34*
X98200000Y-58000000D03*
%TD*%
D29*
%TO.C,H1*%
X85188000Y-41473000D03*
%TD*%
D26*
%TO.C,R7*%
X104395600Y-46621200D03*
X104395600Y-44971200D03*
%TD*%
D35*
%TO.C,RP_FAULT1*%
X103100000Y-65412500D03*
X103100000Y-63587500D03*
%TD*%
D25*
%TO.C,RPF1*%
X91675000Y-65100000D03*
X93325000Y-65100000D03*
%TD*%
D36*
%TO.C,Q1*%
X113969800Y-63776400D03*
X112699800Y-63776400D03*
X111429800Y-63776400D03*
X110159800Y-63776400D03*
D37*
X112064800Y-67136400D03*
D38*
X113969800Y-69241400D03*
X112699800Y-69241400D03*
X111429800Y-69241400D03*
X110159800Y-69241400D03*
%TD*%
D39*
%TO.C,C1*%
X93258000Y-66573400D03*
X91708000Y-66573400D03*
%TD*%
D40*
%TO.C,C4*%
X106000000Y-46575000D03*
X106000000Y-45025000D03*
%TD*%
D29*
%TO.C,H2*%
X118188000Y-41473000D03*
%TD*%
D18*
%TO.C,R6*%
X94600000Y-54875000D03*
X94600000Y-56525000D03*
%TD*%
D35*
%TO.C,RP_CHRG1*%
X99800000Y-65412500D03*
X99800000Y-63587500D03*
%TD*%
D15*
%TO.C,J2*%
X118178800Y-46543000D03*
D16*
X118178800Y-49083000D03*
X118178800Y-51623000D03*
X118178800Y-54163000D03*
X118178800Y-56703000D03*
X118178800Y-59243000D03*
X118178800Y-61783000D03*
X118178800Y-64323000D03*
X118178800Y-66863000D03*
X118178800Y-69403000D03*
%TD*%
D25*
%TO.C,R9*%
X107575000Y-45100000D03*
X109225000Y-45100000D03*
%TD*%
D29*
%TO.C,H3*%
X118188000Y-74473000D03*
%TD*%
D18*
%TO.C,RFB1*%
X103900000Y-56975000D03*
X103900000Y-58625000D03*
%TD*%
D26*
%TO.C,R8*%
X102795400Y-46646600D03*
X102795400Y-44996600D03*
%TD*%
D15*
%TO.C,J4*%
X85188000Y-69403000D03*
D16*
X85188000Y-66863000D03*
X85188000Y-64323000D03*
X85188000Y-61783000D03*
X85188000Y-59243000D03*
X85188000Y-56703000D03*
X85188000Y-54163000D03*
X85188000Y-51623000D03*
X85188000Y-49083000D03*
X85188000Y-46543000D03*
%TD*%
D18*
%TO.C,RFG2*%
X111914000Y-57163200D03*
X111914000Y-58813200D03*
%TD*%
%TO.C,RFG1*%
X110364600Y-57163200D03*
X110364600Y-58813200D03*
%TD*%
%TO.C,RFV2*%
X111914000Y-53277000D03*
X111914000Y-54927000D03*
%TD*%
D15*
%TO.C,J3*%
X113133200Y-74498200D03*
D16*
X110593200Y-74498200D03*
X108053200Y-74498200D03*
X105513200Y-74498200D03*
X102973200Y-74498200D03*
X100433200Y-74498200D03*
X97893200Y-74498200D03*
X95353200Y-74498200D03*
X92813200Y-74498200D03*
X90273200Y-74498200D03*
%TD*%
D26*
%TO.C,DNC1*%
X99600000Y-46662500D03*
X99600000Y-45012500D03*
%TD*%
D18*
%TO.C,RFV1*%
X110364600Y-53251600D03*
X110364600Y-54901600D03*
%TD*%
%LPD*%
M02*
