M48
; DRILL file KiCad 10.0.5 date 2026-10-02T22:23:58
; FORMAT={-:-/ absolute / metric / decimal}
; #@! TF.CreationDate,2026-10-02T22:23:58-03:00
; #@! TF.GenerationSoftware,Kicad,Pcbnew,10.0.5
; #@! TF.FileFunction,Plated,1,4,PTH
FMAT,2
METRIC
; #@! TA.AperFunction,Plated,PTH,ViaDrill
T1C0.300
; #@! TA.AperFunction,Plated,PTH,ViaDrill
T2C0.400
; #@! TA.AperFunction,Plated,PTH,ComponentDrill
T3C1.000
; #@! TA.AperFunction,Plated,PTH,ComponentDrill
T4C3.200
%
G90
G05
T1
X87.4Y-60.25
X87.4Y-63.15
X87.438Y-66.603
X87.65Y-50.05
X87.713Y-70.128
X88.0Y-48.9
X88.1Y-57.5
X88.188Y-68.603
X89.2Y-43.9
X89.6Y-52.4
X89.6Y-66.7
X91.6Y-43.8
X91.6Y-52.4
X92.1Y-63.0
X92.2Y-61.0
X92.4Y-59.2
X92.613Y-70.653
X93.3Y-56.8
X93.8Y-43.8
X94.263Y-71.803
X95.148Y-49.784
X95.713Y-70.553
X96.2Y-43.8
X96.622Y-64.668
X96.672Y-65.938
X96.8Y-72.2
X97.488Y-56.912
X97.5Y-59.1
X98.2Y-58.0
X98.339Y-50.536
X98.538Y-70.528
X99.338Y-43.603
X99.365Y-53.442
X99.396Y-52.496
X99.563Y-71.378
X99.599Y-66.424
X100.663Y-67.453
X100.663Y-69.503
X100.938Y-71.903
X101.1Y-52.3
X101.1Y-55.2
X101.244Y-43.6
X101.552Y-59.224
X101.695Y-60.875
X101.721Y-60.014
X101.803Y-65.43
X102.972Y-66.904
X103.3Y-49.4
X104.3Y-48.05
X104.874Y-57.1
X104.926Y-61.071
X104.926Y-62.321
X105.2Y-58.65
X107.188Y-51.562
X107.226Y-50.249
X107.3Y-63.1
X107.326Y-54.915
X107.342Y-56.286
X107.4Y-47.9
X107.5Y-65.3
X107.723Y-58.903
X107.825Y-57.597
X108.675Y-51.943
X109.5Y-43.5
X110.6Y-45.1
X110.675Y-51.968
X111.5Y-51.5
X111.7Y-43.5
X112.854Y-59.284
X113.235Y-56.896
X113.4Y-49.2
X114.263Y-61.9
X115.4Y-46.5
X116.138Y-63.703
X116.238Y-59.853
T2
X91.796Y-67.92
X95.098Y-47.396
X95.098Y-48.666
X95.606Y-67.869
X96.2Y-55.5
X96.42Y-53.578
X96.608Y-68.668
X97.688Y-54.0
X101.6Y-66.904
X104.343Y-66.904
X105.55Y-59.75
X108.1Y-70.0
X108.1Y-71.3
X114.901Y-51.45
X115.0Y-56.8
X115.927Y-51.46
T3
X85.188Y-46.543
X85.188Y-49.083
X85.188Y-51.623
X85.188Y-54.163
X85.188Y-56.703
X85.188Y-59.243
X85.188Y-61.783
X85.188Y-64.323
X85.188Y-66.863
X85.188Y-69.403
X90.226Y-68.764
X90.226Y-71.304
X90.258Y-41.482
X90.273Y-74.498
X92.798Y-41.482
X92.813Y-74.498
X95.338Y-41.482
X95.353Y-74.498
X97.878Y-41.482
X97.893Y-74.498
X100.418Y-41.482
X100.433Y-74.498
X102.958Y-41.482
X102.973Y-74.498
X105.498Y-41.482
X105.513Y-74.498
X108.038Y-41.482
X108.053Y-74.498
X110.578Y-41.482
X110.593Y-74.498
X113.118Y-41.482
X113.133Y-74.498
X118.179Y-46.543
X118.179Y-49.083
X118.179Y-51.623
X118.179Y-54.163
X118.179Y-56.703
X118.179Y-59.243
X118.179Y-61.783
X118.179Y-64.323
X118.179Y-66.863
X118.179Y-69.403
T4
X85.188Y-41.473
X85.188Y-74.473
X118.188Y-41.473
X118.188Y-74.473
M30
