%TF.GenerationSoftware,KiCad,Pcbnew,10.0.5*%
%TF.CreationDate,2026-10-02T22:24:03-03:00*%
%TF.ProjectId,PQ_EPS,50515f45-5053-42e6-9b69-6361645f7063,1.3*%
%TF.SameCoordinates,Original*%
%TF.FileFunction,Legend,Bot*%
%TF.FilePolarity,Positive*%
%FSLAX46Y46*%
G04 Gerber Fmt 4.6, Leading zero omitted, Abs format (unit mm)*
G04 Created by KiCad (PCBNEW 10.0.5) date 2026-10-02 22:24:03*
%MOMM*%
%LPD*%
G01*
G04 APERTURE LIST*
G04 Aperture macros list*
%AMRoundRect*
0 Rectangle with rounded corners*
0 $1 Rounding radius*
0 $2 $3 $4 $5 $6 $7 $8 $9 X,Y pos of 4 corners*
0 Add a 4 corners polygon primitive as box body*
4,1,4,$2,$3,$4,$5,$6,$7,$8,$9,$2,$3,0*
0 Add four circle primitives for the rounded corners*
1,1,$1+$1,$2,$3*
1,1,$1+$1,$4,$5*
1,1,$1+$1,$6,$7*
1,1,$1+$1,$8,$9*
0 Add four rect primitives between the rounded corners*
20,1,$1+$1,$2,$3,$4,$5,0*
20,1,$1+$1,$4,$5,$6,$7,0*
20,1,$1+$1,$6,$7,$8,$9,0*
20,1,$1+$1,$8,$9,$2,$3,0*%
G04 Aperture macros list end*
%ADD10C,0.000000*%
%ADD11C,0.150000*%
%ADD12C,0.120000*%
%ADD13C,0.200000*%
%ADD14R,1.700000X1.700000*%
%ADD15O,1.700000X1.700000*%
%ADD16C,6.400000*%
%ADD17RoundRect,0.225000X0.225000X0.250000X-0.225000X0.250000X-0.225000X-0.250000X0.225000X-0.250000X0*%
%ADD18RoundRect,0.200000X-0.200000X-0.275000X0.200000X-0.275000X0.200000X0.275000X-0.200000X0.275000X0*%
%ADD19RoundRect,0.225000X-0.250000X0.225000X-0.250000X-0.225000X0.250000X-0.225000X0.250000X0.225000X0*%
%ADD20RoundRect,0.218750X-0.218750X-0.381250X0.218750X-0.381250X0.218750X0.381250X-0.218750X0.381250X0*%
%ADD21RoundRect,0.218750X0.218750X0.381250X-0.218750X0.381250X-0.218750X-0.381250X0.218750X-0.381250X0*%
%ADD22RoundRect,0.100000X0.100000X-0.637500X0.100000X0.637500X-0.100000X0.637500X-0.100000X-0.637500X0*%
%ADD23RoundRect,0.225000X-0.225000X-0.250000X0.225000X-0.250000X0.225000X0.250000X-0.225000X0.250000X0*%
%ADD24RoundRect,0.200000X0.200000X0.275000X-0.200000X0.275000X-0.200000X-0.275000X0.200000X-0.275000X0*%
%ADD25RoundRect,0.250000X0.800000X-0.450000X0.800000X0.450000X-0.800000X0.450000X-0.800000X-0.450000X0*%
%ADD26R,2.040000X1.800000*%
%ADD27R,0.850000X0.750000*%
%ADD28R,1.000000X1.000000*%
G04 APERTURE END LIST*
D10*
G36*
X114764200Y-72972352D02*
G01*
X114764200Y-73034484D01*
X114720266Y-73078418D01*
X102703236Y-73078418D01*
X105853506Y-73078155D01*
X105868557Y-73068765D01*
X105882580Y-73057899D01*
X105895431Y-73045670D01*
X105911545Y-73028698D01*
X105923258Y-73015015D01*
X105938260Y-72995545D01*
X105949339Y-72979367D01*
X105958538Y-72962052D01*
X105965743Y-72943816D01*
X105970849Y-72928418D01*
X114720266Y-72928418D01*
X114764200Y-72972352D01*
G37*
G36*
X102585450Y-72941870D02*
G01*
X102591623Y-72955891D01*
X102597576Y-72967951D01*
X102605033Y-72981512D01*
X102613658Y-72994360D01*
X102623385Y-73006396D01*
X102635768Y-73020404D01*
X102642831Y-73027934D01*
X102643231Y-73028336D01*
X102643539Y-73028645D01*
X102663813Y-73048919D01*
X102676538Y-73060452D01*
X102690332Y-73070683D01*
X102703236Y-73078418D01*
X88658134Y-73078418D01*
X88614200Y-73034484D01*
X88614200Y-72972352D01*
X88658134Y-72928418D01*
X102580884Y-72928418D01*
X102585450Y-72941870D01*
G37*
D11*
X86689200Y-45003418D02*
X86689200Y-71003418D01*
X86689200Y-71003419D02*
G75*
G02*
X88689190Y-73003422I-1500000J-3499981D01*
G01*
X88689199Y-43003418D02*
G75*
G02*
X86689196Y-45003408I-3499999J1500018D01*
G01*
X88689200Y-43003418D02*
X114689200Y-43003418D01*
X114689201Y-73003418D02*
G75*
G02*
X116689196Y-71003410I3499999J-1499982D01*
G01*
X116689200Y-45003417D02*
G75*
G02*
X114689192Y-43003422I1500000J3500017D01*
G01*
X116689200Y-71003418D02*
X116689200Y-45003418D01*
X106892761Y-50764104D02*
X106930857Y-50802200D01*
X106930857Y-50802200D02*
X107045142Y-50840295D01*
X107045142Y-50840295D02*
X107121333Y-50840295D01*
X107121333Y-50840295D02*
X107235619Y-50802200D01*
X107235619Y-50802200D02*
X107311809Y-50726009D01*
X107311809Y-50726009D02*
X107349904Y-50649819D01*
X107349904Y-50649819D02*
X107388000Y-50497438D01*
X107388000Y-50497438D02*
X107388000Y-50383152D01*
X107388000Y-50383152D02*
X107349904Y-50230771D01*
X107349904Y-50230771D02*
X107311809Y-50154580D01*
X107311809Y-50154580D02*
X107235619Y-50078390D01*
X107235619Y-50078390D02*
X107121333Y-50040295D01*
X107121333Y-50040295D02*
X107045142Y-50040295D01*
X107045142Y-50040295D02*
X106930857Y-50078390D01*
X106930857Y-50078390D02*
X106892761Y-50116485D01*
X106549904Y-50840295D02*
X106549904Y-50040295D01*
X106207048Y-50802200D02*
X106092762Y-50840295D01*
X106092762Y-50840295D02*
X105902286Y-50840295D01*
X105902286Y-50840295D02*
X105826095Y-50802200D01*
X105826095Y-50802200D02*
X105788000Y-50764104D01*
X105788000Y-50764104D02*
X105749905Y-50687914D01*
X105749905Y-50687914D02*
X105749905Y-50611723D01*
X105749905Y-50611723D02*
X105788000Y-50535533D01*
X105788000Y-50535533D02*
X105826095Y-50497438D01*
X105826095Y-50497438D02*
X105902286Y-50459342D01*
X105902286Y-50459342D02*
X106054667Y-50421247D01*
X106054667Y-50421247D02*
X106130857Y-50383152D01*
X106130857Y-50383152D02*
X106168952Y-50345057D01*
X106168952Y-50345057D02*
X106207048Y-50268866D01*
X106207048Y-50268866D02*
X106207048Y-50192676D01*
X106207048Y-50192676D02*
X106168952Y-50116485D01*
X106168952Y-50116485D02*
X106130857Y-50078390D01*
X106130857Y-50078390D02*
X106054667Y-50040295D01*
X106054667Y-50040295D02*
X105864190Y-50040295D01*
X105864190Y-50040295D02*
X105749905Y-50078390D01*
X105483238Y-50040295D02*
X104988000Y-50040295D01*
X104988000Y-50040295D02*
X105254666Y-50345057D01*
X105254666Y-50345057D02*
X105140381Y-50345057D01*
X105140381Y-50345057D02*
X105064190Y-50383152D01*
X105064190Y-50383152D02*
X105026095Y-50421247D01*
X105026095Y-50421247D02*
X104988000Y-50497438D01*
X104988000Y-50497438D02*
X104988000Y-50687914D01*
X104988000Y-50687914D02*
X105026095Y-50764104D01*
X105026095Y-50764104D02*
X105064190Y-50802200D01*
X105064190Y-50802200D02*
X105140381Y-50840295D01*
X105140381Y-50840295D02*
X105368952Y-50840295D01*
X105368952Y-50840295D02*
X105445143Y-50802200D01*
X105445143Y-50802200D02*
X105483238Y-50764104D01*
X88550295Y-59963714D02*
X88169342Y-59697047D01*
X88550295Y-59506571D02*
X87750295Y-59506571D01*
X87750295Y-59506571D02*
X87750295Y-59811333D01*
X87750295Y-59811333D02*
X87788390Y-59887523D01*
X87788390Y-59887523D02*
X87826485Y-59925618D01*
X87826485Y-59925618D02*
X87902676Y-59963714D01*
X87902676Y-59963714D02*
X88016961Y-59963714D01*
X88016961Y-59963714D02*
X88093152Y-59925618D01*
X88093152Y-59925618D02*
X88131247Y-59887523D01*
X88131247Y-59887523D02*
X88169342Y-59811333D01*
X88169342Y-59811333D02*
X88169342Y-59506571D01*
X88512200Y-60268475D02*
X88550295Y-60382761D01*
X88550295Y-60382761D02*
X88550295Y-60573237D01*
X88550295Y-60573237D02*
X88512200Y-60649428D01*
X88512200Y-60649428D02*
X88474104Y-60687523D01*
X88474104Y-60687523D02*
X88397914Y-60725618D01*
X88397914Y-60725618D02*
X88321723Y-60725618D01*
X88321723Y-60725618D02*
X88245533Y-60687523D01*
X88245533Y-60687523D02*
X88207438Y-60649428D01*
X88207438Y-60649428D02*
X88169342Y-60573237D01*
X88169342Y-60573237D02*
X88131247Y-60420856D01*
X88131247Y-60420856D02*
X88093152Y-60344666D01*
X88093152Y-60344666D02*
X88055057Y-60306571D01*
X88055057Y-60306571D02*
X87978866Y-60268475D01*
X87978866Y-60268475D02*
X87902676Y-60268475D01*
X87902676Y-60268475D02*
X87826485Y-60306571D01*
X87826485Y-60306571D02*
X87788390Y-60344666D01*
X87788390Y-60344666D02*
X87750295Y-60420856D01*
X87750295Y-60420856D02*
X87750295Y-60611333D01*
X87750295Y-60611333D02*
X87788390Y-60725618D01*
X88550295Y-61487523D02*
X88550295Y-61030380D01*
X88550295Y-61258952D02*
X87750295Y-61258952D01*
X87750295Y-61258952D02*
X87864580Y-61182761D01*
X87864580Y-61182761D02*
X87940771Y-61106571D01*
X87940771Y-61106571D02*
X87978866Y-61030380D01*
X105821332Y-56340295D02*
X106087999Y-55959342D01*
X106278475Y-56340295D02*
X106278475Y-55540295D01*
X106278475Y-55540295D02*
X105973713Y-55540295D01*
X105973713Y-55540295D02*
X105897523Y-55578390D01*
X105897523Y-55578390D02*
X105859428Y-55616485D01*
X105859428Y-55616485D02*
X105821332Y-55692676D01*
X105821332Y-55692676D02*
X105821332Y-55806961D01*
X105821332Y-55806961D02*
X105859428Y-55883152D01*
X105859428Y-55883152D02*
X105897523Y-55921247D01*
X105897523Y-55921247D02*
X105973713Y-55959342D01*
X105973713Y-55959342D02*
X106278475Y-55959342D01*
X105554666Y-55540295D02*
X105059428Y-55540295D01*
X105059428Y-55540295D02*
X105326094Y-55845057D01*
X105326094Y-55845057D02*
X105211809Y-55845057D01*
X105211809Y-55845057D02*
X105135618Y-55883152D01*
X105135618Y-55883152D02*
X105097523Y-55921247D01*
X105097523Y-55921247D02*
X105059428Y-55997438D01*
X105059428Y-55997438D02*
X105059428Y-56187914D01*
X105059428Y-56187914D02*
X105097523Y-56264104D01*
X105097523Y-56264104D02*
X105135618Y-56302200D01*
X105135618Y-56302200D02*
X105211809Y-56340295D01*
X105211809Y-56340295D02*
X105440380Y-56340295D01*
X105440380Y-56340295D02*
X105516571Y-56302200D01*
X105516571Y-56302200D02*
X105554666Y-56264104D01*
X93164189Y-46764104D02*
X93202285Y-46802200D01*
X93202285Y-46802200D02*
X93316570Y-46840295D01*
X93316570Y-46840295D02*
X93392761Y-46840295D01*
X93392761Y-46840295D02*
X93507047Y-46802200D01*
X93507047Y-46802200D02*
X93583237Y-46726009D01*
X93583237Y-46726009D02*
X93621332Y-46649819D01*
X93621332Y-46649819D02*
X93659428Y-46497438D01*
X93659428Y-46497438D02*
X93659428Y-46383152D01*
X93659428Y-46383152D02*
X93621332Y-46230771D01*
X93621332Y-46230771D02*
X93583237Y-46154580D01*
X93583237Y-46154580D02*
X93507047Y-46078390D01*
X93507047Y-46078390D02*
X93392761Y-46040295D01*
X93392761Y-46040295D02*
X93316570Y-46040295D01*
X93316570Y-46040295D02*
X93202285Y-46078390D01*
X93202285Y-46078390D02*
X93164189Y-46116485D01*
X92554666Y-46421247D02*
X92821332Y-46421247D01*
X92821332Y-46840295D02*
X92821332Y-46040295D01*
X92821332Y-46040295D02*
X92440380Y-46040295D01*
X91716571Y-46840295D02*
X92173714Y-46840295D01*
X91945142Y-46840295D02*
X91945142Y-46040295D01*
X91945142Y-46040295D02*
X92021333Y-46154580D01*
X92021333Y-46154580D02*
X92097523Y-46230771D01*
X92097523Y-46230771D02*
X92173714Y-46268866D01*
X96821333Y-54340295D02*
X97202285Y-54340295D01*
X97202285Y-54340295D02*
X97202285Y-53540295D01*
X96135619Y-54340295D02*
X96592762Y-54340295D01*
X96364190Y-54340295D02*
X96364190Y-53540295D01*
X96364190Y-53540295D02*
X96440381Y-53654580D01*
X96440381Y-53654580D02*
X96516571Y-53730771D01*
X96516571Y-53730771D02*
X96592762Y-53768866D01*
X106321333Y-54340295D02*
X106702285Y-54340295D01*
X106702285Y-54340295D02*
X106702285Y-53540295D01*
X106130857Y-53540295D02*
X105635619Y-53540295D01*
X105635619Y-53540295D02*
X105902285Y-53845057D01*
X105902285Y-53845057D02*
X105788000Y-53845057D01*
X105788000Y-53845057D02*
X105711809Y-53883152D01*
X105711809Y-53883152D02*
X105673714Y-53921247D01*
X105673714Y-53921247D02*
X105635619Y-53997438D01*
X105635619Y-53997438D02*
X105635619Y-54187914D01*
X105635619Y-54187914D02*
X105673714Y-54264104D01*
X105673714Y-54264104D02*
X105711809Y-54302200D01*
X105711809Y-54302200D02*
X105788000Y-54340295D01*
X105788000Y-54340295D02*
X106016571Y-54340295D01*
X106016571Y-54340295D02*
X106092762Y-54302200D01*
X106092762Y-54302200D02*
X106130857Y-54264104D01*
X106750295Y-55368476D02*
X107397914Y-55368476D01*
X107397914Y-55368476D02*
X107474104Y-55406571D01*
X107474104Y-55406571D02*
X107512200Y-55444666D01*
X107512200Y-55444666D02*
X107550295Y-55520857D01*
X107550295Y-55520857D02*
X107550295Y-55673238D01*
X107550295Y-55673238D02*
X107512200Y-55749428D01*
X107512200Y-55749428D02*
X107474104Y-55787523D01*
X107474104Y-55787523D02*
X107397914Y-55825619D01*
X107397914Y-55825619D02*
X106750295Y-55825619D01*
X106826485Y-56168475D02*
X106788390Y-56206571D01*
X106788390Y-56206571D02*
X106750295Y-56282761D01*
X106750295Y-56282761D02*
X106750295Y-56473237D01*
X106750295Y-56473237D02*
X106788390Y-56549428D01*
X106788390Y-56549428D02*
X106826485Y-56587523D01*
X106826485Y-56587523D02*
X106902676Y-56625618D01*
X106902676Y-56625618D02*
X106978866Y-56625618D01*
X106978866Y-56625618D02*
X107093152Y-56587523D01*
X107093152Y-56587523D02*
X107550295Y-56130380D01*
X107550295Y-56130380D02*
X107550295Y-56625618D01*
X98125704Y-56587523D02*
X97478085Y-56587523D01*
X97478085Y-56587523D02*
X97401895Y-56549428D01*
X97401895Y-56549428D02*
X97363800Y-56511333D01*
X97363800Y-56511333D02*
X97325704Y-56435142D01*
X97325704Y-56435142D02*
X97325704Y-56282761D01*
X97325704Y-56282761D02*
X97363800Y-56206571D01*
X97363800Y-56206571D02*
X97401895Y-56168476D01*
X97401895Y-56168476D02*
X97478085Y-56130380D01*
X97478085Y-56130380D02*
X98125704Y-56130380D01*
X98125704Y-55825619D02*
X98125704Y-55330381D01*
X98125704Y-55330381D02*
X97820942Y-55597047D01*
X97820942Y-55597047D02*
X97820942Y-55482762D01*
X97820942Y-55482762D02*
X97782847Y-55406571D01*
X97782847Y-55406571D02*
X97744752Y-55368476D01*
X97744752Y-55368476D02*
X97668561Y-55330381D01*
X97668561Y-55330381D02*
X97478085Y-55330381D01*
X97478085Y-55330381D02*
X97401895Y-55368476D01*
X97401895Y-55368476D02*
X97363800Y-55406571D01*
X97363800Y-55406571D02*
X97325704Y-55482762D01*
X97325704Y-55482762D02*
X97325704Y-55711333D01*
X97325704Y-55711333D02*
X97363800Y-55787524D01*
X97363800Y-55787524D02*
X97401895Y-55825619D01*
X97430856Y-52764104D02*
X97468952Y-52802200D01*
X97468952Y-52802200D02*
X97583237Y-52840295D01*
X97583237Y-52840295D02*
X97659428Y-52840295D01*
X97659428Y-52840295D02*
X97773714Y-52802200D01*
X97773714Y-52802200D02*
X97849904Y-52726009D01*
X97849904Y-52726009D02*
X97887999Y-52649819D01*
X97887999Y-52649819D02*
X97926095Y-52497438D01*
X97926095Y-52497438D02*
X97926095Y-52383152D01*
X97926095Y-52383152D02*
X97887999Y-52230771D01*
X97887999Y-52230771D02*
X97849904Y-52154580D01*
X97849904Y-52154580D02*
X97773714Y-52078390D01*
X97773714Y-52078390D02*
X97659428Y-52040295D01*
X97659428Y-52040295D02*
X97583237Y-52040295D01*
X97583237Y-52040295D02*
X97468952Y-52078390D01*
X97468952Y-52078390D02*
X97430856Y-52116485D01*
X97087999Y-52840295D02*
X97087999Y-52040295D01*
X96707047Y-52840295D02*
X96707047Y-52040295D01*
X96707047Y-52040295D02*
X96249904Y-52840295D01*
X96249904Y-52840295D02*
X96249904Y-52040295D01*
X95449905Y-52840295D02*
X95907048Y-52840295D01*
X95678476Y-52840295D02*
X95678476Y-52040295D01*
X95678476Y-52040295D02*
X95754667Y-52154580D01*
X95754667Y-52154580D02*
X95830857Y-52230771D01*
X95830857Y-52230771D02*
X95907048Y-52268866D01*
X107202285Y-60340295D02*
X107468952Y-59959342D01*
X107659428Y-60340295D02*
X107659428Y-59540295D01*
X107659428Y-59540295D02*
X107354666Y-59540295D01*
X107354666Y-59540295D02*
X107278476Y-59578390D01*
X107278476Y-59578390D02*
X107240381Y-59616485D01*
X107240381Y-59616485D02*
X107202285Y-59692676D01*
X107202285Y-59692676D02*
X107202285Y-59806961D01*
X107202285Y-59806961D02*
X107240381Y-59883152D01*
X107240381Y-59883152D02*
X107278476Y-59921247D01*
X107278476Y-59921247D02*
X107354666Y-59959342D01*
X107354666Y-59959342D02*
X107659428Y-59959342D01*
X106897524Y-60302200D02*
X106783238Y-60340295D01*
X106783238Y-60340295D02*
X106592762Y-60340295D01*
X106592762Y-60340295D02*
X106516571Y-60302200D01*
X106516571Y-60302200D02*
X106478476Y-60264104D01*
X106478476Y-60264104D02*
X106440381Y-60187914D01*
X106440381Y-60187914D02*
X106440381Y-60111723D01*
X106440381Y-60111723D02*
X106478476Y-60035533D01*
X106478476Y-60035533D02*
X106516571Y-59997438D01*
X106516571Y-59997438D02*
X106592762Y-59959342D01*
X106592762Y-59959342D02*
X106745143Y-59921247D01*
X106745143Y-59921247D02*
X106821333Y-59883152D01*
X106821333Y-59883152D02*
X106859428Y-59845057D01*
X106859428Y-59845057D02*
X106897524Y-59768866D01*
X106897524Y-59768866D02*
X106897524Y-59692676D01*
X106897524Y-59692676D02*
X106859428Y-59616485D01*
X106859428Y-59616485D02*
X106821333Y-59578390D01*
X106821333Y-59578390D02*
X106745143Y-59540295D01*
X106745143Y-59540295D02*
X106554666Y-59540295D01*
X106554666Y-59540295D02*
X106440381Y-59578390D01*
X106135619Y-59616485D02*
X106097523Y-59578390D01*
X106097523Y-59578390D02*
X106021333Y-59540295D01*
X106021333Y-59540295D02*
X105830857Y-59540295D01*
X105830857Y-59540295D02*
X105754666Y-59578390D01*
X105754666Y-59578390D02*
X105716571Y-59616485D01*
X105716571Y-59616485D02*
X105678476Y-59692676D01*
X105678476Y-59692676D02*
X105678476Y-59768866D01*
X105678476Y-59768866D02*
X105716571Y-59883152D01*
X105716571Y-59883152D02*
X106173714Y-60340295D01*
X106173714Y-60340295D02*
X105678476Y-60340295D01*
X107240380Y-62340295D02*
X107507047Y-61959342D01*
X107697523Y-62340295D02*
X107697523Y-61540295D01*
X107697523Y-61540295D02*
X107392761Y-61540295D01*
X107392761Y-61540295D02*
X107316571Y-61578390D01*
X107316571Y-61578390D02*
X107278476Y-61616485D01*
X107278476Y-61616485D02*
X107240380Y-61692676D01*
X107240380Y-61692676D02*
X107240380Y-61806961D01*
X107240380Y-61806961D02*
X107278476Y-61883152D01*
X107278476Y-61883152D02*
X107316571Y-61921247D01*
X107316571Y-61921247D02*
X107392761Y-61959342D01*
X107392761Y-61959342D02*
X107697523Y-61959342D01*
X106897523Y-62340295D02*
X106897523Y-61540295D01*
X106897523Y-61921247D02*
X106440380Y-61921247D01*
X106440380Y-62340295D02*
X106440380Y-61540295D01*
X106097524Y-61616485D02*
X106059428Y-61578390D01*
X106059428Y-61578390D02*
X105983238Y-61540295D01*
X105983238Y-61540295D02*
X105792762Y-61540295D01*
X105792762Y-61540295D02*
X105716571Y-61578390D01*
X105716571Y-61578390D02*
X105678476Y-61616485D01*
X105678476Y-61616485D02*
X105640381Y-61692676D01*
X105640381Y-61692676D02*
X105640381Y-61768866D01*
X105640381Y-61768866D02*
X105678476Y-61883152D01*
X105678476Y-61883152D02*
X106135619Y-62340295D01*
X106135619Y-62340295D02*
X105640381Y-62340295D01*
X97645142Y-63840295D02*
X97911809Y-63459342D01*
X98102285Y-63840295D02*
X98102285Y-63040295D01*
X98102285Y-63040295D02*
X97797523Y-63040295D01*
X97797523Y-63040295D02*
X97721333Y-63078390D01*
X97721333Y-63078390D02*
X97683238Y-63116485D01*
X97683238Y-63116485D02*
X97645142Y-63192676D01*
X97645142Y-63192676D02*
X97645142Y-63306961D01*
X97645142Y-63306961D02*
X97683238Y-63383152D01*
X97683238Y-63383152D02*
X97721333Y-63421247D01*
X97721333Y-63421247D02*
X97797523Y-63459342D01*
X97797523Y-63459342D02*
X98102285Y-63459342D01*
X96921333Y-63840295D02*
X97302285Y-63840295D01*
X97302285Y-63840295D02*
X97302285Y-63040295D01*
X96730857Y-63040295D02*
X96235619Y-63040295D01*
X96235619Y-63040295D02*
X96502285Y-63345057D01*
X96502285Y-63345057D02*
X96388000Y-63345057D01*
X96388000Y-63345057D02*
X96311809Y-63383152D01*
X96311809Y-63383152D02*
X96273714Y-63421247D01*
X96273714Y-63421247D02*
X96235619Y-63497438D01*
X96235619Y-63497438D02*
X96235619Y-63687914D01*
X96235619Y-63687914D02*
X96273714Y-63764104D01*
X96273714Y-63764104D02*
X96311809Y-63802200D01*
X96311809Y-63802200D02*
X96388000Y-63840295D01*
X96388000Y-63840295D02*
X96616571Y-63840295D01*
X96616571Y-63840295D02*
X96692762Y-63802200D01*
X96692762Y-63802200D02*
X96730857Y-63764104D01*
X115474104Y-51235143D02*
X115512200Y-51197047D01*
X115512200Y-51197047D02*
X115550295Y-51082762D01*
X115550295Y-51082762D02*
X115550295Y-51006571D01*
X115550295Y-51006571D02*
X115512200Y-50892285D01*
X115512200Y-50892285D02*
X115436009Y-50816095D01*
X115436009Y-50816095D02*
X115359819Y-50778000D01*
X115359819Y-50778000D02*
X115207438Y-50739904D01*
X115207438Y-50739904D02*
X115093152Y-50739904D01*
X115093152Y-50739904D02*
X114940771Y-50778000D01*
X114940771Y-50778000D02*
X114864580Y-50816095D01*
X114864580Y-50816095D02*
X114788390Y-50892285D01*
X114788390Y-50892285D02*
X114750295Y-51006571D01*
X114750295Y-51006571D02*
X114750295Y-51082762D01*
X114750295Y-51082762D02*
X114788390Y-51197047D01*
X114788390Y-51197047D02*
X114826485Y-51235143D01*
X115550295Y-51578000D02*
X114750295Y-51578000D01*
X115550295Y-51958952D02*
X114750295Y-51958952D01*
X114750295Y-51958952D02*
X115550295Y-52416095D01*
X115550295Y-52416095D02*
X114750295Y-52416095D01*
X114826485Y-52758951D02*
X114788390Y-52797047D01*
X114788390Y-52797047D02*
X114750295Y-52873237D01*
X114750295Y-52873237D02*
X114750295Y-53063713D01*
X114750295Y-53063713D02*
X114788390Y-53139904D01*
X114788390Y-53139904D02*
X114826485Y-53177999D01*
X114826485Y-53177999D02*
X114902676Y-53216094D01*
X114902676Y-53216094D02*
X114978866Y-53216094D01*
X114978866Y-53216094D02*
X115093152Y-53177999D01*
X115093152Y-53177999D02*
X115550295Y-52720856D01*
X115550295Y-52720856D02*
X115550295Y-53216094D01*
X107464189Y-57764104D02*
X107502285Y-57802200D01*
X107502285Y-57802200D02*
X107616570Y-57840295D01*
X107616570Y-57840295D02*
X107692761Y-57840295D01*
X107692761Y-57840295D02*
X107807047Y-57802200D01*
X107807047Y-57802200D02*
X107883237Y-57726009D01*
X107883237Y-57726009D02*
X107921332Y-57649819D01*
X107921332Y-57649819D02*
X107959428Y-57497438D01*
X107959428Y-57497438D02*
X107959428Y-57383152D01*
X107959428Y-57383152D02*
X107921332Y-57230771D01*
X107921332Y-57230771D02*
X107883237Y-57154580D01*
X107883237Y-57154580D02*
X107807047Y-57078390D01*
X107807047Y-57078390D02*
X107692761Y-57040295D01*
X107692761Y-57040295D02*
X107616570Y-57040295D01*
X107616570Y-57040295D02*
X107502285Y-57078390D01*
X107502285Y-57078390D02*
X107464189Y-57116485D01*
X106968951Y-57040295D02*
X106816570Y-57040295D01*
X106816570Y-57040295D02*
X106740380Y-57078390D01*
X106740380Y-57078390D02*
X106664189Y-57154580D01*
X106664189Y-57154580D02*
X106626094Y-57306961D01*
X106626094Y-57306961D02*
X106626094Y-57573628D01*
X106626094Y-57573628D02*
X106664189Y-57726009D01*
X106664189Y-57726009D02*
X106740380Y-57802200D01*
X106740380Y-57802200D02*
X106816570Y-57840295D01*
X106816570Y-57840295D02*
X106968951Y-57840295D01*
X106968951Y-57840295D02*
X107045142Y-57802200D01*
X107045142Y-57802200D02*
X107121332Y-57726009D01*
X107121332Y-57726009D02*
X107159428Y-57573628D01*
X107159428Y-57573628D02*
X107159428Y-57306961D01*
X107159428Y-57306961D02*
X107121332Y-57154580D01*
X107121332Y-57154580D02*
X107045142Y-57078390D01*
X107045142Y-57078390D02*
X106968951Y-57040295D01*
X106283237Y-57040295D02*
X106283237Y-57687914D01*
X106283237Y-57687914D02*
X106245142Y-57764104D01*
X106245142Y-57764104D02*
X106207047Y-57802200D01*
X106207047Y-57802200D02*
X106130856Y-57840295D01*
X106130856Y-57840295D02*
X105978475Y-57840295D01*
X105978475Y-57840295D02*
X105902285Y-57802200D01*
X105902285Y-57802200D02*
X105864190Y-57764104D01*
X105864190Y-57764104D02*
X105826094Y-57687914D01*
X105826094Y-57687914D02*
X105826094Y-57040295D01*
X105559428Y-57040295D02*
X105102285Y-57040295D01*
X105330857Y-57840295D02*
X105330857Y-57040295D01*
X104873714Y-57116485D02*
X104835618Y-57078390D01*
X104835618Y-57078390D02*
X104759428Y-57040295D01*
X104759428Y-57040295D02*
X104568952Y-57040295D01*
X104568952Y-57040295D02*
X104492761Y-57078390D01*
X104492761Y-57078390D02*
X104454666Y-57116485D01*
X104454666Y-57116485D02*
X104416571Y-57192676D01*
X104416571Y-57192676D02*
X104416571Y-57268866D01*
X104416571Y-57268866D02*
X104454666Y-57383152D01*
X104454666Y-57383152D02*
X104911809Y-57840295D01*
X104911809Y-57840295D02*
X104416571Y-57840295D01*
X96321332Y-56340295D02*
X96587999Y-55959342D01*
X96778475Y-56340295D02*
X96778475Y-55540295D01*
X96778475Y-55540295D02*
X96473713Y-55540295D01*
X96473713Y-55540295D02*
X96397523Y-55578390D01*
X96397523Y-55578390D02*
X96359428Y-55616485D01*
X96359428Y-55616485D02*
X96321332Y-55692676D01*
X96321332Y-55692676D02*
X96321332Y-55806961D01*
X96321332Y-55806961D02*
X96359428Y-55883152D01*
X96359428Y-55883152D02*
X96397523Y-55921247D01*
X96397523Y-55921247D02*
X96473713Y-55959342D01*
X96473713Y-55959342D02*
X96778475Y-55959342D01*
X95559428Y-56340295D02*
X96016571Y-56340295D01*
X95787999Y-56340295D02*
X95787999Y-55540295D01*
X95787999Y-55540295D02*
X95864190Y-55654580D01*
X95864190Y-55654580D02*
X95940380Y-55730771D01*
X95940380Y-55730771D02*
X96016571Y-55768866D01*
X97964189Y-57764104D02*
X98002285Y-57802200D01*
X98002285Y-57802200D02*
X98116570Y-57840295D01*
X98116570Y-57840295D02*
X98192761Y-57840295D01*
X98192761Y-57840295D02*
X98307047Y-57802200D01*
X98307047Y-57802200D02*
X98383237Y-57726009D01*
X98383237Y-57726009D02*
X98421332Y-57649819D01*
X98421332Y-57649819D02*
X98459428Y-57497438D01*
X98459428Y-57497438D02*
X98459428Y-57383152D01*
X98459428Y-57383152D02*
X98421332Y-57230771D01*
X98421332Y-57230771D02*
X98383237Y-57154580D01*
X98383237Y-57154580D02*
X98307047Y-57078390D01*
X98307047Y-57078390D02*
X98192761Y-57040295D01*
X98192761Y-57040295D02*
X98116570Y-57040295D01*
X98116570Y-57040295D02*
X98002285Y-57078390D01*
X98002285Y-57078390D02*
X97964189Y-57116485D01*
X97468951Y-57040295D02*
X97316570Y-57040295D01*
X97316570Y-57040295D02*
X97240380Y-57078390D01*
X97240380Y-57078390D02*
X97164189Y-57154580D01*
X97164189Y-57154580D02*
X97126094Y-57306961D01*
X97126094Y-57306961D02*
X97126094Y-57573628D01*
X97126094Y-57573628D02*
X97164189Y-57726009D01*
X97164189Y-57726009D02*
X97240380Y-57802200D01*
X97240380Y-57802200D02*
X97316570Y-57840295D01*
X97316570Y-57840295D02*
X97468951Y-57840295D01*
X97468951Y-57840295D02*
X97545142Y-57802200D01*
X97545142Y-57802200D02*
X97621332Y-57726009D01*
X97621332Y-57726009D02*
X97659428Y-57573628D01*
X97659428Y-57573628D02*
X97659428Y-57306961D01*
X97659428Y-57306961D02*
X97621332Y-57154580D01*
X97621332Y-57154580D02*
X97545142Y-57078390D01*
X97545142Y-57078390D02*
X97468951Y-57040295D01*
X96783237Y-57040295D02*
X96783237Y-57687914D01*
X96783237Y-57687914D02*
X96745142Y-57764104D01*
X96745142Y-57764104D02*
X96707047Y-57802200D01*
X96707047Y-57802200D02*
X96630856Y-57840295D01*
X96630856Y-57840295D02*
X96478475Y-57840295D01*
X96478475Y-57840295D02*
X96402285Y-57802200D01*
X96402285Y-57802200D02*
X96364190Y-57764104D01*
X96364190Y-57764104D02*
X96326094Y-57687914D01*
X96326094Y-57687914D02*
X96326094Y-57040295D01*
X96059428Y-57040295D02*
X95602285Y-57040295D01*
X95830857Y-57840295D02*
X95830857Y-57040295D01*
X95411809Y-57040295D02*
X94916571Y-57040295D01*
X94916571Y-57040295D02*
X95183237Y-57345057D01*
X95183237Y-57345057D02*
X95068952Y-57345057D01*
X95068952Y-57345057D02*
X94992761Y-57383152D01*
X94992761Y-57383152D02*
X94954666Y-57421247D01*
X94954666Y-57421247D02*
X94916571Y-57497438D01*
X94916571Y-57497438D02*
X94916571Y-57687914D01*
X94916571Y-57687914D02*
X94954666Y-57764104D01*
X94954666Y-57764104D02*
X94992761Y-57802200D01*
X94992761Y-57802200D02*
X95068952Y-57840295D01*
X95068952Y-57840295D02*
X95297523Y-57840295D01*
X95297523Y-57840295D02*
X95373714Y-57802200D01*
X95373714Y-57802200D02*
X95411809Y-57764104D01*
X90664189Y-46340295D02*
X90930856Y-45959342D01*
X91121332Y-46340295D02*
X91121332Y-45540295D01*
X91121332Y-45540295D02*
X90816570Y-45540295D01*
X90816570Y-45540295D02*
X90740380Y-45578390D01*
X90740380Y-45578390D02*
X90702285Y-45616485D01*
X90702285Y-45616485D02*
X90664189Y-45692676D01*
X90664189Y-45692676D02*
X90664189Y-45806961D01*
X90664189Y-45806961D02*
X90702285Y-45883152D01*
X90702285Y-45883152D02*
X90740380Y-45921247D01*
X90740380Y-45921247D02*
X90816570Y-45959342D01*
X90816570Y-45959342D02*
X91121332Y-45959342D01*
X90054666Y-45921247D02*
X90321332Y-45921247D01*
X90321332Y-46340295D02*
X90321332Y-45540295D01*
X90321332Y-45540295D02*
X89940380Y-45540295D01*
X89673714Y-45616485D02*
X89635618Y-45578390D01*
X89635618Y-45578390D02*
X89559428Y-45540295D01*
X89559428Y-45540295D02*
X89368952Y-45540295D01*
X89368952Y-45540295D02*
X89292761Y-45578390D01*
X89292761Y-45578390D02*
X89254666Y-45616485D01*
X89254666Y-45616485D02*
X89216571Y-45692676D01*
X89216571Y-45692676D02*
X89216571Y-45768866D01*
X89216571Y-45768866D02*
X89254666Y-45883152D01*
X89254666Y-45883152D02*
X89711809Y-46340295D01*
X89711809Y-46340295D02*
X89216571Y-46340295D01*
X106930856Y-52764104D02*
X106968952Y-52802200D01*
X106968952Y-52802200D02*
X107083237Y-52840295D01*
X107083237Y-52840295D02*
X107159428Y-52840295D01*
X107159428Y-52840295D02*
X107273714Y-52802200D01*
X107273714Y-52802200D02*
X107349904Y-52726009D01*
X107349904Y-52726009D02*
X107387999Y-52649819D01*
X107387999Y-52649819D02*
X107426095Y-52497438D01*
X107426095Y-52497438D02*
X107426095Y-52383152D01*
X107426095Y-52383152D02*
X107387999Y-52230771D01*
X107387999Y-52230771D02*
X107349904Y-52154580D01*
X107349904Y-52154580D02*
X107273714Y-52078390D01*
X107273714Y-52078390D02*
X107159428Y-52040295D01*
X107159428Y-52040295D02*
X107083237Y-52040295D01*
X107083237Y-52040295D02*
X106968952Y-52078390D01*
X106968952Y-52078390D02*
X106930856Y-52116485D01*
X106587999Y-52840295D02*
X106587999Y-52040295D01*
X106207047Y-52840295D02*
X106207047Y-52040295D01*
X106207047Y-52040295D02*
X105749904Y-52840295D01*
X105749904Y-52840295D02*
X105749904Y-52040295D01*
X105445143Y-52040295D02*
X104949905Y-52040295D01*
X104949905Y-52040295D02*
X105216571Y-52345057D01*
X105216571Y-52345057D02*
X105102286Y-52345057D01*
X105102286Y-52345057D02*
X105026095Y-52383152D01*
X105026095Y-52383152D02*
X104988000Y-52421247D01*
X104988000Y-52421247D02*
X104949905Y-52497438D01*
X104949905Y-52497438D02*
X104949905Y-52687914D01*
X104949905Y-52687914D02*
X104988000Y-52764104D01*
X104988000Y-52764104D02*
X105026095Y-52802200D01*
X105026095Y-52802200D02*
X105102286Y-52840295D01*
X105102286Y-52840295D02*
X105330857Y-52840295D01*
X105330857Y-52840295D02*
X105407048Y-52802200D01*
X105407048Y-52802200D02*
X105445143Y-52764104D01*
X110464189Y-67264104D02*
X110502285Y-67302200D01*
X110502285Y-67302200D02*
X110616570Y-67340295D01*
X110616570Y-67340295D02*
X110692761Y-67340295D01*
X110692761Y-67340295D02*
X110807047Y-67302200D01*
X110807047Y-67302200D02*
X110883237Y-67226009D01*
X110883237Y-67226009D02*
X110921332Y-67149819D01*
X110921332Y-67149819D02*
X110959428Y-66997438D01*
X110959428Y-66997438D02*
X110959428Y-66883152D01*
X110959428Y-66883152D02*
X110921332Y-66730771D01*
X110921332Y-66730771D02*
X110883237Y-66654580D01*
X110883237Y-66654580D02*
X110807047Y-66578390D01*
X110807047Y-66578390D02*
X110692761Y-66540295D01*
X110692761Y-66540295D02*
X110616570Y-66540295D01*
X110616570Y-66540295D02*
X110502285Y-66578390D01*
X110502285Y-66578390D02*
X110464189Y-66616485D01*
X109968951Y-66540295D02*
X109816570Y-66540295D01*
X109816570Y-66540295D02*
X109740380Y-66578390D01*
X109740380Y-66578390D02*
X109664189Y-66654580D01*
X109664189Y-66654580D02*
X109626094Y-66806961D01*
X109626094Y-66806961D02*
X109626094Y-67073628D01*
X109626094Y-67073628D02*
X109664189Y-67226009D01*
X109664189Y-67226009D02*
X109740380Y-67302200D01*
X109740380Y-67302200D02*
X109816570Y-67340295D01*
X109816570Y-67340295D02*
X109968951Y-67340295D01*
X109968951Y-67340295D02*
X110045142Y-67302200D01*
X110045142Y-67302200D02*
X110121332Y-67226009D01*
X110121332Y-67226009D02*
X110159428Y-67073628D01*
X110159428Y-67073628D02*
X110159428Y-66806961D01*
X110159428Y-66806961D02*
X110121332Y-66654580D01*
X110121332Y-66654580D02*
X110045142Y-66578390D01*
X110045142Y-66578390D02*
X109968951Y-66540295D01*
X109283237Y-66540295D02*
X109283237Y-67187914D01*
X109283237Y-67187914D02*
X109245142Y-67264104D01*
X109245142Y-67264104D02*
X109207047Y-67302200D01*
X109207047Y-67302200D02*
X109130856Y-67340295D01*
X109130856Y-67340295D02*
X108978475Y-67340295D01*
X108978475Y-67340295D02*
X108902285Y-67302200D01*
X108902285Y-67302200D02*
X108864190Y-67264104D01*
X108864190Y-67264104D02*
X108826094Y-67187914D01*
X108826094Y-67187914D02*
X108826094Y-66540295D01*
X108559428Y-66540295D02*
X108102285Y-66540295D01*
X108330857Y-67340295D02*
X108330857Y-66540295D01*
X107873714Y-66616485D02*
X107835618Y-66578390D01*
X107835618Y-66578390D02*
X107759428Y-66540295D01*
X107759428Y-66540295D02*
X107568952Y-66540295D01*
X107568952Y-66540295D02*
X107492761Y-66578390D01*
X107492761Y-66578390D02*
X107454666Y-66616485D01*
X107454666Y-66616485D02*
X107416571Y-66692676D01*
X107416571Y-66692676D02*
X107416571Y-66768866D01*
X107416571Y-66768866D02*
X107454666Y-66883152D01*
X107454666Y-66883152D02*
X107911809Y-67340295D01*
X107911809Y-67340295D02*
X107416571Y-67340295D01*
X94050295Y-69887524D02*
X93250295Y-69887524D01*
X93250295Y-69887524D02*
X93250295Y-70078000D01*
X93250295Y-70078000D02*
X93288390Y-70192286D01*
X93288390Y-70192286D02*
X93364580Y-70268476D01*
X93364580Y-70268476D02*
X93440771Y-70306571D01*
X93440771Y-70306571D02*
X93593152Y-70344667D01*
X93593152Y-70344667D02*
X93707438Y-70344667D01*
X93707438Y-70344667D02*
X93859819Y-70306571D01*
X93859819Y-70306571D02*
X93936009Y-70268476D01*
X93936009Y-70268476D02*
X94012200Y-70192286D01*
X94012200Y-70192286D02*
X94050295Y-70078000D01*
X94050295Y-70078000D02*
X94050295Y-69887524D01*
X93516961Y-71030381D02*
X94050295Y-71030381D01*
X93212200Y-70839905D02*
X93783628Y-70649428D01*
X93783628Y-70649428D02*
X93783628Y-71144667D01*
X115550295Y-55844667D02*
X115169342Y-55578000D01*
X115550295Y-55387524D02*
X114750295Y-55387524D01*
X114750295Y-55387524D02*
X114750295Y-55692286D01*
X114750295Y-55692286D02*
X114788390Y-55768476D01*
X114788390Y-55768476D02*
X114826485Y-55806571D01*
X114826485Y-55806571D02*
X114902676Y-55844667D01*
X114902676Y-55844667D02*
X115016961Y-55844667D01*
X115016961Y-55844667D02*
X115093152Y-55806571D01*
X115093152Y-55806571D02*
X115131247Y-55768476D01*
X115131247Y-55768476D02*
X115169342Y-55692286D01*
X115169342Y-55692286D02*
X115169342Y-55387524D01*
X114826485Y-56149428D02*
X114788390Y-56187524D01*
X114788390Y-56187524D02*
X114750295Y-56263714D01*
X114750295Y-56263714D02*
X114750295Y-56454190D01*
X114750295Y-56454190D02*
X114788390Y-56530381D01*
X114788390Y-56530381D02*
X114826485Y-56568476D01*
X114826485Y-56568476D02*
X114902676Y-56606571D01*
X114902676Y-56606571D02*
X114978866Y-56606571D01*
X114978866Y-56606571D02*
X115093152Y-56568476D01*
X115093152Y-56568476D02*
X115550295Y-56111333D01*
X115550295Y-56111333D02*
X115550295Y-56606571D01*
X113050295Y-69887524D02*
X112250295Y-69887524D01*
X112250295Y-69887524D02*
X112250295Y-70078000D01*
X112250295Y-70078000D02*
X112288390Y-70192286D01*
X112288390Y-70192286D02*
X112364580Y-70268476D01*
X112364580Y-70268476D02*
X112440771Y-70306571D01*
X112440771Y-70306571D02*
X112593152Y-70344667D01*
X112593152Y-70344667D02*
X112707438Y-70344667D01*
X112707438Y-70344667D02*
X112859819Y-70306571D01*
X112859819Y-70306571D02*
X112936009Y-70268476D01*
X112936009Y-70268476D02*
X113012200Y-70192286D01*
X113012200Y-70192286D02*
X113050295Y-70078000D01*
X113050295Y-70078000D02*
X113050295Y-69887524D01*
X112250295Y-71068476D02*
X112250295Y-70687524D01*
X112250295Y-70687524D02*
X112631247Y-70649428D01*
X112631247Y-70649428D02*
X112593152Y-70687524D01*
X112593152Y-70687524D02*
X112555057Y-70763714D01*
X112555057Y-70763714D02*
X112555057Y-70954190D01*
X112555057Y-70954190D02*
X112593152Y-71030381D01*
X112593152Y-71030381D02*
X112631247Y-71068476D01*
X112631247Y-71068476D02*
X112707438Y-71106571D01*
X112707438Y-71106571D02*
X112897914Y-71106571D01*
X112897914Y-71106571D02*
X112974104Y-71068476D01*
X112974104Y-71068476D02*
X113012200Y-71030381D01*
X113012200Y-71030381D02*
X113050295Y-70954190D01*
X113050295Y-70954190D02*
X113050295Y-70763714D01*
X113050295Y-70763714D02*
X113012200Y-70687524D01*
X113012200Y-70687524D02*
X112974104Y-70649428D01*
X91464189Y-67264104D02*
X91502285Y-67302200D01*
X91502285Y-67302200D02*
X91616570Y-67340295D01*
X91616570Y-67340295D02*
X91692761Y-67340295D01*
X91692761Y-67340295D02*
X91807047Y-67302200D01*
X91807047Y-67302200D02*
X91883237Y-67226009D01*
X91883237Y-67226009D02*
X91921332Y-67149819D01*
X91921332Y-67149819D02*
X91959428Y-66997438D01*
X91959428Y-66997438D02*
X91959428Y-66883152D01*
X91959428Y-66883152D02*
X91921332Y-66730771D01*
X91921332Y-66730771D02*
X91883237Y-66654580D01*
X91883237Y-66654580D02*
X91807047Y-66578390D01*
X91807047Y-66578390D02*
X91692761Y-66540295D01*
X91692761Y-66540295D02*
X91616570Y-66540295D01*
X91616570Y-66540295D02*
X91502285Y-66578390D01*
X91502285Y-66578390D02*
X91464189Y-66616485D01*
X90968951Y-66540295D02*
X90816570Y-66540295D01*
X90816570Y-66540295D02*
X90740380Y-66578390D01*
X90740380Y-66578390D02*
X90664189Y-66654580D01*
X90664189Y-66654580D02*
X90626094Y-66806961D01*
X90626094Y-66806961D02*
X90626094Y-67073628D01*
X90626094Y-67073628D02*
X90664189Y-67226009D01*
X90664189Y-67226009D02*
X90740380Y-67302200D01*
X90740380Y-67302200D02*
X90816570Y-67340295D01*
X90816570Y-67340295D02*
X90968951Y-67340295D01*
X90968951Y-67340295D02*
X91045142Y-67302200D01*
X91045142Y-67302200D02*
X91121332Y-67226009D01*
X91121332Y-67226009D02*
X91159428Y-67073628D01*
X91159428Y-67073628D02*
X91159428Y-66806961D01*
X91159428Y-66806961D02*
X91121332Y-66654580D01*
X91121332Y-66654580D02*
X91045142Y-66578390D01*
X91045142Y-66578390D02*
X90968951Y-66540295D01*
X90283237Y-66540295D02*
X90283237Y-67187914D01*
X90283237Y-67187914D02*
X90245142Y-67264104D01*
X90245142Y-67264104D02*
X90207047Y-67302200D01*
X90207047Y-67302200D02*
X90130856Y-67340295D01*
X90130856Y-67340295D02*
X89978475Y-67340295D01*
X89978475Y-67340295D02*
X89902285Y-67302200D01*
X89902285Y-67302200D02*
X89864190Y-67264104D01*
X89864190Y-67264104D02*
X89826094Y-67187914D01*
X89826094Y-67187914D02*
X89826094Y-66540295D01*
X89559428Y-66540295D02*
X89102285Y-66540295D01*
X89330857Y-67340295D02*
X89330857Y-66540295D01*
X88416571Y-67340295D02*
X88873714Y-67340295D01*
X88645142Y-67340295D02*
X88645142Y-66540295D01*
X88645142Y-66540295D02*
X88721333Y-66654580D01*
X88721333Y-66654580D02*
X88797523Y-66730771D01*
X88797523Y-66730771D02*
X88873714Y-66768866D01*
X88474104Y-56006572D02*
X88512200Y-55968476D01*
X88512200Y-55968476D02*
X88550295Y-55854191D01*
X88550295Y-55854191D02*
X88550295Y-55778000D01*
X88550295Y-55778000D02*
X88512200Y-55663714D01*
X88512200Y-55663714D02*
X88436009Y-55587524D01*
X88436009Y-55587524D02*
X88359819Y-55549429D01*
X88359819Y-55549429D02*
X88207438Y-55511333D01*
X88207438Y-55511333D02*
X88093152Y-55511333D01*
X88093152Y-55511333D02*
X87940771Y-55549429D01*
X87940771Y-55549429D02*
X87864580Y-55587524D01*
X87864580Y-55587524D02*
X87788390Y-55663714D01*
X87788390Y-55663714D02*
X87750295Y-55778000D01*
X87750295Y-55778000D02*
X87750295Y-55854191D01*
X87750295Y-55854191D02*
X87788390Y-55968476D01*
X87788390Y-55968476D02*
X87826485Y-56006572D01*
X87750295Y-56501810D02*
X87750295Y-56654191D01*
X87750295Y-56654191D02*
X87788390Y-56730381D01*
X87788390Y-56730381D02*
X87864580Y-56806572D01*
X87864580Y-56806572D02*
X88016961Y-56844667D01*
X88016961Y-56844667D02*
X88283628Y-56844667D01*
X88283628Y-56844667D02*
X88436009Y-56806572D01*
X88436009Y-56806572D02*
X88512200Y-56730381D01*
X88512200Y-56730381D02*
X88550295Y-56654191D01*
X88550295Y-56654191D02*
X88550295Y-56501810D01*
X88550295Y-56501810D02*
X88512200Y-56425619D01*
X88512200Y-56425619D02*
X88436009Y-56349429D01*
X88436009Y-56349429D02*
X88283628Y-56311333D01*
X88283628Y-56311333D02*
X88016961Y-56311333D01*
X88016961Y-56311333D02*
X87864580Y-56349429D01*
X87864580Y-56349429D02*
X87788390Y-56425619D01*
X87788390Y-56425619D02*
X87750295Y-56501810D01*
X87750295Y-57187524D02*
X88397914Y-57187524D01*
X88397914Y-57187524D02*
X88474104Y-57225619D01*
X88474104Y-57225619D02*
X88512200Y-57263714D01*
X88512200Y-57263714D02*
X88550295Y-57339905D01*
X88550295Y-57339905D02*
X88550295Y-57492286D01*
X88550295Y-57492286D02*
X88512200Y-57568476D01*
X88512200Y-57568476D02*
X88474104Y-57606571D01*
X88474104Y-57606571D02*
X88397914Y-57644667D01*
X88397914Y-57644667D02*
X87750295Y-57644667D01*
X88550295Y-58444666D02*
X88550295Y-57987523D01*
X88550295Y-58216095D02*
X87750295Y-58216095D01*
X87750295Y-58216095D02*
X87864580Y-58139904D01*
X87864580Y-58139904D02*
X87940771Y-58063714D01*
X87940771Y-58063714D02*
X87978866Y-57987523D01*
X107145142Y-63840295D02*
X107411809Y-63459342D01*
X107602285Y-63840295D02*
X107602285Y-63040295D01*
X107602285Y-63040295D02*
X107297523Y-63040295D01*
X107297523Y-63040295D02*
X107221333Y-63078390D01*
X107221333Y-63078390D02*
X107183238Y-63116485D01*
X107183238Y-63116485D02*
X107145142Y-63192676D01*
X107145142Y-63192676D02*
X107145142Y-63306961D01*
X107145142Y-63306961D02*
X107183238Y-63383152D01*
X107183238Y-63383152D02*
X107221333Y-63421247D01*
X107221333Y-63421247D02*
X107297523Y-63459342D01*
X107297523Y-63459342D02*
X107602285Y-63459342D01*
X106421333Y-63840295D02*
X106802285Y-63840295D01*
X106802285Y-63840295D02*
X106802285Y-63040295D01*
X106192762Y-63116485D02*
X106154666Y-63078390D01*
X106154666Y-63078390D02*
X106078476Y-63040295D01*
X106078476Y-63040295D02*
X105888000Y-63040295D01*
X105888000Y-63040295D02*
X105811809Y-63078390D01*
X105811809Y-63078390D02*
X105773714Y-63116485D01*
X105773714Y-63116485D02*
X105735619Y-63192676D01*
X105735619Y-63192676D02*
X105735619Y-63268866D01*
X105735619Y-63268866D02*
X105773714Y-63383152D01*
X105773714Y-63383152D02*
X106230857Y-63840295D01*
X106230857Y-63840295D02*
X105735619Y-63840295D01*
X87825704Y-49454189D02*
X88206657Y-49720856D01*
X87825704Y-49911332D02*
X88625704Y-49911332D01*
X88625704Y-49911332D02*
X88625704Y-49606570D01*
X88625704Y-49606570D02*
X88587609Y-49530380D01*
X88587609Y-49530380D02*
X88549514Y-49492285D01*
X88549514Y-49492285D02*
X88473323Y-49454189D01*
X88473323Y-49454189D02*
X88359038Y-49454189D01*
X88359038Y-49454189D02*
X88282847Y-49492285D01*
X88282847Y-49492285D02*
X88244752Y-49530380D01*
X88244752Y-49530380D02*
X88206657Y-49606570D01*
X88206657Y-49606570D02*
X88206657Y-49911332D01*
X88244752Y-48844666D02*
X88244752Y-49111332D01*
X87825704Y-49111332D02*
X88625704Y-49111332D01*
X88625704Y-49111332D02*
X88625704Y-48730380D01*
X87825704Y-48006571D02*
X87825704Y-48463714D01*
X87825704Y-48235142D02*
X88625704Y-48235142D01*
X88625704Y-48235142D02*
X88511419Y-48311333D01*
X88511419Y-48311333D02*
X88435228Y-48387523D01*
X88435228Y-48387523D02*
X88397133Y-48463714D01*
X97702285Y-60840295D02*
X97968952Y-60459342D01*
X98159428Y-60840295D02*
X98159428Y-60040295D01*
X98159428Y-60040295D02*
X97854666Y-60040295D01*
X97854666Y-60040295D02*
X97778476Y-60078390D01*
X97778476Y-60078390D02*
X97740381Y-60116485D01*
X97740381Y-60116485D02*
X97702285Y-60192676D01*
X97702285Y-60192676D02*
X97702285Y-60306961D01*
X97702285Y-60306961D02*
X97740381Y-60383152D01*
X97740381Y-60383152D02*
X97778476Y-60421247D01*
X97778476Y-60421247D02*
X97854666Y-60459342D01*
X97854666Y-60459342D02*
X98159428Y-60459342D01*
X97397524Y-60802200D02*
X97283238Y-60840295D01*
X97283238Y-60840295D02*
X97092762Y-60840295D01*
X97092762Y-60840295D02*
X97016571Y-60802200D01*
X97016571Y-60802200D02*
X96978476Y-60764104D01*
X96978476Y-60764104D02*
X96940381Y-60687914D01*
X96940381Y-60687914D02*
X96940381Y-60611723D01*
X96940381Y-60611723D02*
X96978476Y-60535533D01*
X96978476Y-60535533D02*
X97016571Y-60497438D01*
X97016571Y-60497438D02*
X97092762Y-60459342D01*
X97092762Y-60459342D02*
X97245143Y-60421247D01*
X97245143Y-60421247D02*
X97321333Y-60383152D01*
X97321333Y-60383152D02*
X97359428Y-60345057D01*
X97359428Y-60345057D02*
X97397524Y-60268866D01*
X97397524Y-60268866D02*
X97397524Y-60192676D01*
X97397524Y-60192676D02*
X97359428Y-60116485D01*
X97359428Y-60116485D02*
X97321333Y-60078390D01*
X97321333Y-60078390D02*
X97245143Y-60040295D01*
X97245143Y-60040295D02*
X97054666Y-60040295D01*
X97054666Y-60040295D02*
X96940381Y-60078390D01*
X96673714Y-60040295D02*
X96178476Y-60040295D01*
X96178476Y-60040295D02*
X96445142Y-60345057D01*
X96445142Y-60345057D02*
X96330857Y-60345057D01*
X96330857Y-60345057D02*
X96254666Y-60383152D01*
X96254666Y-60383152D02*
X96216571Y-60421247D01*
X96216571Y-60421247D02*
X96178476Y-60497438D01*
X96178476Y-60497438D02*
X96178476Y-60687914D01*
X96178476Y-60687914D02*
X96216571Y-60764104D01*
X96216571Y-60764104D02*
X96254666Y-60802200D01*
X96254666Y-60802200D02*
X96330857Y-60840295D01*
X96330857Y-60840295D02*
X96559428Y-60840295D01*
X96559428Y-60840295D02*
X96635619Y-60802200D01*
X96635619Y-60802200D02*
X96673714Y-60764104D01*
X116050295Y-53966666D02*
X116050295Y-53585714D01*
X116050295Y-53585714D02*
X115250295Y-53585714D01*
X115326485Y-54195237D02*
X115288390Y-54233333D01*
X115288390Y-54233333D02*
X115250295Y-54309523D01*
X115250295Y-54309523D02*
X115250295Y-54499999D01*
X115250295Y-54499999D02*
X115288390Y-54576190D01*
X115288390Y-54576190D02*
X115326485Y-54614285D01*
X115326485Y-54614285D02*
X115402676Y-54652380D01*
X115402676Y-54652380D02*
X115478866Y-54652380D01*
X115478866Y-54652380D02*
X115593152Y-54614285D01*
X115593152Y-54614285D02*
X116050295Y-54157142D01*
X116050295Y-54157142D02*
X116050295Y-54652380D01*
X107164189Y-47840295D02*
X107430856Y-47459342D01*
X107621332Y-47840295D02*
X107621332Y-47040295D01*
X107621332Y-47040295D02*
X107316570Y-47040295D01*
X107316570Y-47040295D02*
X107240380Y-47078390D01*
X107240380Y-47078390D02*
X107202285Y-47116485D01*
X107202285Y-47116485D02*
X107164189Y-47192676D01*
X107164189Y-47192676D02*
X107164189Y-47306961D01*
X107164189Y-47306961D02*
X107202285Y-47383152D01*
X107202285Y-47383152D02*
X107240380Y-47421247D01*
X107240380Y-47421247D02*
X107316570Y-47459342D01*
X107316570Y-47459342D02*
X107621332Y-47459342D01*
X106554666Y-47421247D02*
X106821332Y-47421247D01*
X106821332Y-47840295D02*
X106821332Y-47040295D01*
X106821332Y-47040295D02*
X106440380Y-47040295D01*
X106211809Y-47040295D02*
X105716571Y-47040295D01*
X105716571Y-47040295D02*
X105983237Y-47345057D01*
X105983237Y-47345057D02*
X105868952Y-47345057D01*
X105868952Y-47345057D02*
X105792761Y-47383152D01*
X105792761Y-47383152D02*
X105754666Y-47421247D01*
X105754666Y-47421247D02*
X105716571Y-47497438D01*
X105716571Y-47497438D02*
X105716571Y-47687914D01*
X105716571Y-47687914D02*
X105754666Y-47764104D01*
X105754666Y-47764104D02*
X105792761Y-47802200D01*
X105792761Y-47802200D02*
X105868952Y-47840295D01*
X105868952Y-47840295D02*
X106097523Y-47840295D01*
X106097523Y-47840295D02*
X106173714Y-47802200D01*
X106173714Y-47802200D02*
X106211809Y-47764104D01*
X114164189Y-48264104D02*
X114202285Y-48302200D01*
X114202285Y-48302200D02*
X114316570Y-48340295D01*
X114316570Y-48340295D02*
X114392761Y-48340295D01*
X114392761Y-48340295D02*
X114507047Y-48302200D01*
X114507047Y-48302200D02*
X114583237Y-48226009D01*
X114583237Y-48226009D02*
X114621332Y-48149819D01*
X114621332Y-48149819D02*
X114659428Y-47997438D01*
X114659428Y-47997438D02*
X114659428Y-47883152D01*
X114659428Y-47883152D02*
X114621332Y-47730771D01*
X114621332Y-47730771D02*
X114583237Y-47654580D01*
X114583237Y-47654580D02*
X114507047Y-47578390D01*
X114507047Y-47578390D02*
X114392761Y-47540295D01*
X114392761Y-47540295D02*
X114316570Y-47540295D01*
X114316570Y-47540295D02*
X114202285Y-47578390D01*
X114202285Y-47578390D02*
X114164189Y-47616485D01*
X113554666Y-47921247D02*
X113821332Y-47921247D01*
X113821332Y-48340295D02*
X113821332Y-47540295D01*
X113821332Y-47540295D02*
X113440380Y-47540295D01*
X113173714Y-47616485D02*
X113135618Y-47578390D01*
X113135618Y-47578390D02*
X113059428Y-47540295D01*
X113059428Y-47540295D02*
X112868952Y-47540295D01*
X112868952Y-47540295D02*
X112792761Y-47578390D01*
X112792761Y-47578390D02*
X112754666Y-47616485D01*
X112754666Y-47616485D02*
X112716571Y-47692676D01*
X112716571Y-47692676D02*
X112716571Y-47768866D01*
X112716571Y-47768866D02*
X112754666Y-47883152D01*
X112754666Y-47883152D02*
X113211809Y-48340295D01*
X113211809Y-48340295D02*
X112716571Y-48340295D01*
X103550295Y-69887524D02*
X102750295Y-69887524D01*
X102750295Y-69887524D02*
X102750295Y-70078000D01*
X102750295Y-70078000D02*
X102788390Y-70192286D01*
X102788390Y-70192286D02*
X102864580Y-70268476D01*
X102864580Y-70268476D02*
X102940771Y-70306571D01*
X102940771Y-70306571D02*
X103093152Y-70344667D01*
X103093152Y-70344667D02*
X103207438Y-70344667D01*
X103207438Y-70344667D02*
X103359819Y-70306571D01*
X103359819Y-70306571D02*
X103436009Y-70268476D01*
X103436009Y-70268476D02*
X103512200Y-70192286D01*
X103512200Y-70192286D02*
X103550295Y-70078000D01*
X103550295Y-70078000D02*
X103550295Y-69887524D01*
X102750295Y-71030381D02*
X102750295Y-70878000D01*
X102750295Y-70878000D02*
X102788390Y-70801809D01*
X102788390Y-70801809D02*
X102826485Y-70763714D01*
X102826485Y-70763714D02*
X102940771Y-70687524D01*
X102940771Y-70687524D02*
X103093152Y-70649428D01*
X103093152Y-70649428D02*
X103397914Y-70649428D01*
X103397914Y-70649428D02*
X103474104Y-70687524D01*
X103474104Y-70687524D02*
X103512200Y-70725619D01*
X103512200Y-70725619D02*
X103550295Y-70801809D01*
X103550295Y-70801809D02*
X103550295Y-70954190D01*
X103550295Y-70954190D02*
X103512200Y-71030381D01*
X103512200Y-71030381D02*
X103474104Y-71068476D01*
X103474104Y-71068476D02*
X103397914Y-71106571D01*
X103397914Y-71106571D02*
X103207438Y-71106571D01*
X103207438Y-71106571D02*
X103131247Y-71068476D01*
X103131247Y-71068476D02*
X103093152Y-71030381D01*
X103093152Y-71030381D02*
X103055057Y-70954190D01*
X103055057Y-70954190D02*
X103055057Y-70801809D01*
X103055057Y-70801809D02*
X103093152Y-70725619D01*
X103093152Y-70725619D02*
X103131247Y-70687524D01*
X103131247Y-70687524D02*
X103207438Y-70649428D01*
X115892761Y-49764104D02*
X115930857Y-49802200D01*
X115930857Y-49802200D02*
X116045142Y-49840295D01*
X116045142Y-49840295D02*
X116121333Y-49840295D01*
X116121333Y-49840295D02*
X116235619Y-49802200D01*
X116235619Y-49802200D02*
X116311809Y-49726009D01*
X116311809Y-49726009D02*
X116349904Y-49649819D01*
X116349904Y-49649819D02*
X116388000Y-49497438D01*
X116388000Y-49497438D02*
X116388000Y-49383152D01*
X116388000Y-49383152D02*
X116349904Y-49230771D01*
X116349904Y-49230771D02*
X116311809Y-49154580D01*
X116311809Y-49154580D02*
X116235619Y-49078390D01*
X116235619Y-49078390D02*
X116121333Y-49040295D01*
X116121333Y-49040295D02*
X116045142Y-49040295D01*
X116045142Y-49040295D02*
X115930857Y-49078390D01*
X115930857Y-49078390D02*
X115892761Y-49116485D01*
X115549904Y-49840295D02*
X115549904Y-49040295D01*
X115207048Y-49802200D02*
X115092762Y-49840295D01*
X115092762Y-49840295D02*
X114902286Y-49840295D01*
X114902286Y-49840295D02*
X114826095Y-49802200D01*
X114826095Y-49802200D02*
X114788000Y-49764104D01*
X114788000Y-49764104D02*
X114749905Y-49687914D01*
X114749905Y-49687914D02*
X114749905Y-49611723D01*
X114749905Y-49611723D02*
X114788000Y-49535533D01*
X114788000Y-49535533D02*
X114826095Y-49497438D01*
X114826095Y-49497438D02*
X114902286Y-49459342D01*
X114902286Y-49459342D02*
X115054667Y-49421247D01*
X115054667Y-49421247D02*
X115130857Y-49383152D01*
X115130857Y-49383152D02*
X115168952Y-49345057D01*
X115168952Y-49345057D02*
X115207048Y-49268866D01*
X115207048Y-49268866D02*
X115207048Y-49192676D01*
X115207048Y-49192676D02*
X115168952Y-49116485D01*
X115168952Y-49116485D02*
X115130857Y-49078390D01*
X115130857Y-49078390D02*
X115054667Y-49040295D01*
X115054667Y-49040295D02*
X114864190Y-49040295D01*
X114864190Y-49040295D02*
X114749905Y-49078390D01*
X114445143Y-49116485D02*
X114407047Y-49078390D01*
X114407047Y-49078390D02*
X114330857Y-49040295D01*
X114330857Y-49040295D02*
X114140381Y-49040295D01*
X114140381Y-49040295D02*
X114064190Y-49078390D01*
X114064190Y-49078390D02*
X114026095Y-49116485D01*
X114026095Y-49116485D02*
X113988000Y-49192676D01*
X113988000Y-49192676D02*
X113988000Y-49268866D01*
X113988000Y-49268866D02*
X114026095Y-49383152D01*
X114026095Y-49383152D02*
X114483238Y-49840295D01*
X114483238Y-49840295D02*
X113988000Y-49840295D01*
X97664189Y-49340295D02*
X97930856Y-48959342D01*
X98121332Y-49340295D02*
X98121332Y-48540295D01*
X98121332Y-48540295D02*
X97816570Y-48540295D01*
X97816570Y-48540295D02*
X97740380Y-48578390D01*
X97740380Y-48578390D02*
X97702285Y-48616485D01*
X97702285Y-48616485D02*
X97664189Y-48692676D01*
X97664189Y-48692676D02*
X97664189Y-48806961D01*
X97664189Y-48806961D02*
X97702285Y-48883152D01*
X97702285Y-48883152D02*
X97740380Y-48921247D01*
X97740380Y-48921247D02*
X97816570Y-48959342D01*
X97816570Y-48959342D02*
X98121332Y-48959342D01*
X97054666Y-48921247D02*
X97321332Y-48921247D01*
X97321332Y-49340295D02*
X97321332Y-48540295D01*
X97321332Y-48540295D02*
X96940380Y-48540295D01*
X96292761Y-48540295D02*
X96445142Y-48540295D01*
X96445142Y-48540295D02*
X96521333Y-48578390D01*
X96521333Y-48578390D02*
X96559428Y-48616485D01*
X96559428Y-48616485D02*
X96635618Y-48730771D01*
X96635618Y-48730771D02*
X96673714Y-48883152D01*
X96673714Y-48883152D02*
X96673714Y-49187914D01*
X96673714Y-49187914D02*
X96635618Y-49264104D01*
X96635618Y-49264104D02*
X96597523Y-49302200D01*
X96597523Y-49302200D02*
X96521333Y-49340295D01*
X96521333Y-49340295D02*
X96368952Y-49340295D01*
X96368952Y-49340295D02*
X96292761Y-49302200D01*
X96292761Y-49302200D02*
X96254666Y-49264104D01*
X96254666Y-49264104D02*
X96216571Y-49187914D01*
X96216571Y-49187914D02*
X96216571Y-48997438D01*
X96216571Y-48997438D02*
X96254666Y-48921247D01*
X96254666Y-48921247D02*
X96292761Y-48883152D01*
X96292761Y-48883152D02*
X96368952Y-48845057D01*
X96368952Y-48845057D02*
X96521333Y-48845057D01*
X96521333Y-48845057D02*
X96597523Y-48883152D01*
X96597523Y-48883152D02*
X96635618Y-48921247D01*
X96635618Y-48921247D02*
X96673714Y-48997438D01*
X107164189Y-49340295D02*
X107430856Y-48959342D01*
X107621332Y-49340295D02*
X107621332Y-48540295D01*
X107621332Y-48540295D02*
X107316570Y-48540295D01*
X107316570Y-48540295D02*
X107240380Y-48578390D01*
X107240380Y-48578390D02*
X107202285Y-48616485D01*
X107202285Y-48616485D02*
X107164189Y-48692676D01*
X107164189Y-48692676D02*
X107164189Y-48806961D01*
X107164189Y-48806961D02*
X107202285Y-48883152D01*
X107202285Y-48883152D02*
X107240380Y-48921247D01*
X107240380Y-48921247D02*
X107316570Y-48959342D01*
X107316570Y-48959342D02*
X107621332Y-48959342D01*
X106554666Y-48921247D02*
X106821332Y-48921247D01*
X106821332Y-49340295D02*
X106821332Y-48540295D01*
X106821332Y-48540295D02*
X106440380Y-48540295D01*
X105792761Y-48806961D02*
X105792761Y-49340295D01*
X105983237Y-48502200D02*
X106173714Y-49073628D01*
X106173714Y-49073628D02*
X105678475Y-49073628D01*
X96050295Y-58387524D02*
X95250295Y-58387524D01*
X95250295Y-58387524D02*
X95250295Y-58578000D01*
X95250295Y-58578000D02*
X95288390Y-58692286D01*
X95288390Y-58692286D02*
X95364580Y-58768476D01*
X95364580Y-58768476D02*
X95440771Y-58806571D01*
X95440771Y-58806571D02*
X95593152Y-58844667D01*
X95593152Y-58844667D02*
X95707438Y-58844667D01*
X95707438Y-58844667D02*
X95859819Y-58806571D01*
X95859819Y-58806571D02*
X95936009Y-58768476D01*
X95936009Y-58768476D02*
X96012200Y-58692286D01*
X96012200Y-58692286D02*
X96050295Y-58578000D01*
X96050295Y-58578000D02*
X96050295Y-58387524D01*
X96050295Y-59606571D02*
X96050295Y-59149428D01*
X96050295Y-59378000D02*
X95250295Y-59378000D01*
X95250295Y-59378000D02*
X95364580Y-59301809D01*
X95364580Y-59301809D02*
X95440771Y-59225619D01*
X95440771Y-59225619D02*
X95478866Y-59149428D01*
X100964189Y-67264104D02*
X101002285Y-67302200D01*
X101002285Y-67302200D02*
X101116570Y-67340295D01*
X101116570Y-67340295D02*
X101192761Y-67340295D01*
X101192761Y-67340295D02*
X101307047Y-67302200D01*
X101307047Y-67302200D02*
X101383237Y-67226009D01*
X101383237Y-67226009D02*
X101421332Y-67149819D01*
X101421332Y-67149819D02*
X101459428Y-66997438D01*
X101459428Y-66997438D02*
X101459428Y-66883152D01*
X101459428Y-66883152D02*
X101421332Y-66730771D01*
X101421332Y-66730771D02*
X101383237Y-66654580D01*
X101383237Y-66654580D02*
X101307047Y-66578390D01*
X101307047Y-66578390D02*
X101192761Y-66540295D01*
X101192761Y-66540295D02*
X101116570Y-66540295D01*
X101116570Y-66540295D02*
X101002285Y-66578390D01*
X101002285Y-66578390D02*
X100964189Y-66616485D01*
X100468951Y-66540295D02*
X100316570Y-66540295D01*
X100316570Y-66540295D02*
X100240380Y-66578390D01*
X100240380Y-66578390D02*
X100164189Y-66654580D01*
X100164189Y-66654580D02*
X100126094Y-66806961D01*
X100126094Y-66806961D02*
X100126094Y-67073628D01*
X100126094Y-67073628D02*
X100164189Y-67226009D01*
X100164189Y-67226009D02*
X100240380Y-67302200D01*
X100240380Y-67302200D02*
X100316570Y-67340295D01*
X100316570Y-67340295D02*
X100468951Y-67340295D01*
X100468951Y-67340295D02*
X100545142Y-67302200D01*
X100545142Y-67302200D02*
X100621332Y-67226009D01*
X100621332Y-67226009D02*
X100659428Y-67073628D01*
X100659428Y-67073628D02*
X100659428Y-66806961D01*
X100659428Y-66806961D02*
X100621332Y-66654580D01*
X100621332Y-66654580D02*
X100545142Y-66578390D01*
X100545142Y-66578390D02*
X100468951Y-66540295D01*
X99783237Y-66540295D02*
X99783237Y-67187914D01*
X99783237Y-67187914D02*
X99745142Y-67264104D01*
X99745142Y-67264104D02*
X99707047Y-67302200D01*
X99707047Y-67302200D02*
X99630856Y-67340295D01*
X99630856Y-67340295D02*
X99478475Y-67340295D01*
X99478475Y-67340295D02*
X99402285Y-67302200D01*
X99402285Y-67302200D02*
X99364190Y-67264104D01*
X99364190Y-67264104D02*
X99326094Y-67187914D01*
X99326094Y-67187914D02*
X99326094Y-66540295D01*
X99059428Y-66540295D02*
X98602285Y-66540295D01*
X98830857Y-67340295D02*
X98830857Y-66540295D01*
X98411809Y-66540295D02*
X97916571Y-66540295D01*
X97916571Y-66540295D02*
X98183237Y-66845057D01*
X98183237Y-66845057D02*
X98068952Y-66845057D01*
X98068952Y-66845057D02*
X97992761Y-66883152D01*
X97992761Y-66883152D02*
X97954666Y-66921247D01*
X97954666Y-66921247D02*
X97916571Y-66997438D01*
X97916571Y-66997438D02*
X97916571Y-67187914D01*
X97916571Y-67187914D02*
X97954666Y-67264104D01*
X97954666Y-67264104D02*
X97992761Y-67302200D01*
X97992761Y-67302200D02*
X98068952Y-67340295D01*
X98068952Y-67340295D02*
X98297523Y-67340295D01*
X98297523Y-67340295D02*
X98373714Y-67302200D01*
X98373714Y-67302200D02*
X98411809Y-67264104D01*
X102664189Y-46264104D02*
X102702285Y-46302200D01*
X102702285Y-46302200D02*
X102816570Y-46340295D01*
X102816570Y-46340295D02*
X102892761Y-46340295D01*
X102892761Y-46340295D02*
X103007047Y-46302200D01*
X103007047Y-46302200D02*
X103083237Y-46226009D01*
X103083237Y-46226009D02*
X103121332Y-46149819D01*
X103121332Y-46149819D02*
X103159428Y-45997438D01*
X103159428Y-45997438D02*
X103159428Y-45883152D01*
X103159428Y-45883152D02*
X103121332Y-45730771D01*
X103121332Y-45730771D02*
X103083237Y-45654580D01*
X103083237Y-45654580D02*
X103007047Y-45578390D01*
X103007047Y-45578390D02*
X102892761Y-45540295D01*
X102892761Y-45540295D02*
X102816570Y-45540295D01*
X102816570Y-45540295D02*
X102702285Y-45578390D01*
X102702285Y-45578390D02*
X102664189Y-45616485D01*
X102054666Y-45921247D02*
X102321332Y-45921247D01*
X102321332Y-46340295D02*
X102321332Y-45540295D01*
X102321332Y-45540295D02*
X101940380Y-45540295D01*
X101711809Y-45540295D02*
X101216571Y-45540295D01*
X101216571Y-45540295D02*
X101483237Y-45845057D01*
X101483237Y-45845057D02*
X101368952Y-45845057D01*
X101368952Y-45845057D02*
X101292761Y-45883152D01*
X101292761Y-45883152D02*
X101254666Y-45921247D01*
X101254666Y-45921247D02*
X101216571Y-45997438D01*
X101216571Y-45997438D02*
X101216571Y-46187914D01*
X101216571Y-46187914D02*
X101254666Y-46264104D01*
X101254666Y-46264104D02*
X101292761Y-46302200D01*
X101292761Y-46302200D02*
X101368952Y-46340295D01*
X101368952Y-46340295D02*
X101597523Y-46340295D01*
X101597523Y-46340295D02*
X101673714Y-46302200D01*
X101673714Y-46302200D02*
X101711809Y-46264104D01*
X105050295Y-58387524D02*
X104250295Y-58387524D01*
X104250295Y-58387524D02*
X104250295Y-58578000D01*
X104250295Y-58578000D02*
X104288390Y-58692286D01*
X104288390Y-58692286D02*
X104364580Y-58768476D01*
X104364580Y-58768476D02*
X104440771Y-58806571D01*
X104440771Y-58806571D02*
X104593152Y-58844667D01*
X104593152Y-58844667D02*
X104707438Y-58844667D01*
X104707438Y-58844667D02*
X104859819Y-58806571D01*
X104859819Y-58806571D02*
X104936009Y-58768476D01*
X104936009Y-58768476D02*
X105012200Y-58692286D01*
X105012200Y-58692286D02*
X105050295Y-58578000D01*
X105050295Y-58578000D02*
X105050295Y-58387524D01*
X104250295Y-59111333D02*
X104250295Y-59606571D01*
X104250295Y-59606571D02*
X104555057Y-59339905D01*
X104555057Y-59339905D02*
X104555057Y-59454190D01*
X104555057Y-59454190D02*
X104593152Y-59530381D01*
X104593152Y-59530381D02*
X104631247Y-59568476D01*
X104631247Y-59568476D02*
X104707438Y-59606571D01*
X104707438Y-59606571D02*
X104897914Y-59606571D01*
X104897914Y-59606571D02*
X104974104Y-59568476D01*
X104974104Y-59568476D02*
X105012200Y-59530381D01*
X105012200Y-59530381D02*
X105050295Y-59454190D01*
X105050295Y-59454190D02*
X105050295Y-59225619D01*
X105050295Y-59225619D02*
X105012200Y-59149428D01*
X105012200Y-59149428D02*
X104974104Y-59111333D01*
X87750295Y-52868476D02*
X88397914Y-52868476D01*
X88397914Y-52868476D02*
X88474104Y-52906571D01*
X88474104Y-52906571D02*
X88512200Y-52944666D01*
X88512200Y-52944666D02*
X88550295Y-53020857D01*
X88550295Y-53020857D02*
X88550295Y-53173238D01*
X88550295Y-53173238D02*
X88512200Y-53249428D01*
X88512200Y-53249428D02*
X88474104Y-53287523D01*
X88474104Y-53287523D02*
X88397914Y-53325619D01*
X88397914Y-53325619D02*
X87750295Y-53325619D01*
X88550295Y-54125618D02*
X88550295Y-53668475D01*
X88550295Y-53897047D02*
X87750295Y-53897047D01*
X87750295Y-53897047D02*
X87864580Y-53820856D01*
X87864580Y-53820856D02*
X87940771Y-53744666D01*
X87940771Y-53744666D02*
X87978866Y-53668475D01*
X97740380Y-62340295D02*
X98007047Y-61959342D01*
X98197523Y-62340295D02*
X98197523Y-61540295D01*
X98197523Y-61540295D02*
X97892761Y-61540295D01*
X97892761Y-61540295D02*
X97816571Y-61578390D01*
X97816571Y-61578390D02*
X97778476Y-61616485D01*
X97778476Y-61616485D02*
X97740380Y-61692676D01*
X97740380Y-61692676D02*
X97740380Y-61806961D01*
X97740380Y-61806961D02*
X97778476Y-61883152D01*
X97778476Y-61883152D02*
X97816571Y-61921247D01*
X97816571Y-61921247D02*
X97892761Y-61959342D01*
X97892761Y-61959342D02*
X98197523Y-61959342D01*
X97397523Y-62340295D02*
X97397523Y-61540295D01*
X97397523Y-61921247D02*
X96940380Y-61921247D01*
X96940380Y-62340295D02*
X96940380Y-61540295D01*
X96635619Y-61540295D02*
X96140381Y-61540295D01*
X96140381Y-61540295D02*
X96407047Y-61845057D01*
X96407047Y-61845057D02*
X96292762Y-61845057D01*
X96292762Y-61845057D02*
X96216571Y-61883152D01*
X96216571Y-61883152D02*
X96178476Y-61921247D01*
X96178476Y-61921247D02*
X96140381Y-61997438D01*
X96140381Y-61997438D02*
X96140381Y-62187914D01*
X96140381Y-62187914D02*
X96178476Y-62264104D01*
X96178476Y-62264104D02*
X96216571Y-62302200D01*
X96216571Y-62302200D02*
X96292762Y-62340295D01*
X96292762Y-62340295D02*
X96521333Y-62340295D01*
X96521333Y-62340295D02*
X96597524Y-62302200D01*
X96597524Y-62302200D02*
X96635619Y-62264104D01*
X100076189Y-46199795D02*
X100342856Y-45818842D01*
X100533332Y-46199795D02*
X100533332Y-45399795D01*
X100533332Y-45399795D02*
X100228570Y-45399795D01*
X100228570Y-45399795D02*
X100152380Y-45437890D01*
X100152380Y-45437890D02*
X100114285Y-45475985D01*
X100114285Y-45475985D02*
X100076189Y-45552176D01*
X100076189Y-45552176D02*
X100076189Y-45666461D01*
X100076189Y-45666461D02*
X100114285Y-45742652D01*
X100114285Y-45742652D02*
X100152380Y-45780747D01*
X100152380Y-45780747D02*
X100228570Y-45818842D01*
X100228570Y-45818842D02*
X100533332Y-45818842D01*
X99466666Y-45780747D02*
X99733332Y-45780747D01*
X99733332Y-46199795D02*
X99733332Y-45399795D01*
X99733332Y-45399795D02*
X99352380Y-45399795D01*
X98666666Y-45399795D02*
X99047618Y-45399795D01*
X99047618Y-45399795D02*
X99085714Y-45780747D01*
X99085714Y-45780747D02*
X99047618Y-45742652D01*
X99047618Y-45742652D02*
X98971428Y-45704557D01*
X98971428Y-45704557D02*
X98780952Y-45704557D01*
X98780952Y-45704557D02*
X98704761Y-45742652D01*
X98704761Y-45742652D02*
X98666666Y-45780747D01*
X98666666Y-45780747D02*
X98628571Y-45856938D01*
X98628571Y-45856938D02*
X98628571Y-46047414D01*
X98628571Y-46047414D02*
X98666666Y-46123604D01*
X98666666Y-46123604D02*
X98704761Y-46161700D01*
X98704761Y-46161700D02*
X98780952Y-46199795D01*
X98780952Y-46199795D02*
X98971428Y-46199795D01*
X98971428Y-46199795D02*
X99047618Y-46161700D01*
X99047618Y-46161700D02*
X99085714Y-46123604D01*
X88050295Y-65520857D02*
X87669342Y-65254190D01*
X88050295Y-65063714D02*
X87250295Y-65063714D01*
X87250295Y-65063714D02*
X87250295Y-65368476D01*
X87250295Y-65368476D02*
X87288390Y-65444666D01*
X87288390Y-65444666D02*
X87326485Y-65482761D01*
X87326485Y-65482761D02*
X87402676Y-65520857D01*
X87402676Y-65520857D02*
X87516961Y-65520857D01*
X87516961Y-65520857D02*
X87593152Y-65482761D01*
X87593152Y-65482761D02*
X87631247Y-65444666D01*
X87631247Y-65444666D02*
X87669342Y-65368476D01*
X87669342Y-65368476D02*
X87669342Y-65063714D01*
X88050295Y-66244666D02*
X88050295Y-65863714D01*
X88050295Y-65863714D02*
X87250295Y-65863714D01*
X88050295Y-66930380D02*
X88050295Y-66473237D01*
X88050295Y-66701809D02*
X87250295Y-66701809D01*
X87250295Y-66701809D02*
X87364580Y-66625618D01*
X87364580Y-66625618D02*
X87440771Y-66549428D01*
X87440771Y-66549428D02*
X87478866Y-66473237D01*
X88550295Y-62925619D02*
X88169342Y-62658952D01*
X88550295Y-62468476D02*
X87750295Y-62468476D01*
X87750295Y-62468476D02*
X87750295Y-62773238D01*
X87750295Y-62773238D02*
X87788390Y-62849428D01*
X87788390Y-62849428D02*
X87826485Y-62887523D01*
X87826485Y-62887523D02*
X87902676Y-62925619D01*
X87902676Y-62925619D02*
X88016961Y-62925619D01*
X88016961Y-62925619D02*
X88093152Y-62887523D01*
X88093152Y-62887523D02*
X88131247Y-62849428D01*
X88131247Y-62849428D02*
X88169342Y-62773238D01*
X88169342Y-62773238D02*
X88169342Y-62468476D01*
X88550295Y-63268476D02*
X87750295Y-63268476D01*
X88131247Y-63268476D02*
X88131247Y-63725619D01*
X88550295Y-63725619D02*
X87750295Y-63725619D01*
X88550295Y-64525618D02*
X88550295Y-64068475D01*
X88550295Y-64297047D02*
X87750295Y-64297047D01*
X87750295Y-64297047D02*
X87864580Y-64220856D01*
X87864580Y-64220856D02*
X87940771Y-64144666D01*
X87940771Y-64144666D02*
X87978866Y-64068475D01*
X97892761Y-51264104D02*
X97930857Y-51302200D01*
X97930857Y-51302200D02*
X98045142Y-51340295D01*
X98045142Y-51340295D02*
X98121333Y-51340295D01*
X98121333Y-51340295D02*
X98235619Y-51302200D01*
X98235619Y-51302200D02*
X98311809Y-51226009D01*
X98311809Y-51226009D02*
X98349904Y-51149819D01*
X98349904Y-51149819D02*
X98388000Y-50997438D01*
X98388000Y-50997438D02*
X98388000Y-50883152D01*
X98388000Y-50883152D02*
X98349904Y-50730771D01*
X98349904Y-50730771D02*
X98311809Y-50654580D01*
X98311809Y-50654580D02*
X98235619Y-50578390D01*
X98235619Y-50578390D02*
X98121333Y-50540295D01*
X98121333Y-50540295D02*
X98045142Y-50540295D01*
X98045142Y-50540295D02*
X97930857Y-50578390D01*
X97930857Y-50578390D02*
X97892761Y-50616485D01*
X97549904Y-51340295D02*
X97549904Y-50540295D01*
X97207048Y-51302200D02*
X97092762Y-51340295D01*
X97092762Y-51340295D02*
X96902286Y-51340295D01*
X96902286Y-51340295D02*
X96826095Y-51302200D01*
X96826095Y-51302200D02*
X96788000Y-51264104D01*
X96788000Y-51264104D02*
X96749905Y-51187914D01*
X96749905Y-51187914D02*
X96749905Y-51111723D01*
X96749905Y-51111723D02*
X96788000Y-51035533D01*
X96788000Y-51035533D02*
X96826095Y-50997438D01*
X96826095Y-50997438D02*
X96902286Y-50959342D01*
X96902286Y-50959342D02*
X97054667Y-50921247D01*
X97054667Y-50921247D02*
X97130857Y-50883152D01*
X97130857Y-50883152D02*
X97168952Y-50845057D01*
X97168952Y-50845057D02*
X97207048Y-50768866D01*
X97207048Y-50768866D02*
X97207048Y-50692676D01*
X97207048Y-50692676D02*
X97168952Y-50616485D01*
X97168952Y-50616485D02*
X97130857Y-50578390D01*
X97130857Y-50578390D02*
X97054667Y-50540295D01*
X97054667Y-50540295D02*
X96864190Y-50540295D01*
X96864190Y-50540295D02*
X96749905Y-50578390D01*
X95988000Y-51340295D02*
X96445143Y-51340295D01*
X96216571Y-51340295D02*
X96216571Y-50540295D01*
X96216571Y-50540295D02*
X96292762Y-50654580D01*
X96292762Y-50654580D02*
X96368952Y-50730771D01*
X96368952Y-50730771D02*
X96445143Y-50768866D01*
X115050295Y-58387524D02*
X114250295Y-58387524D01*
X114250295Y-58387524D02*
X114250295Y-58578000D01*
X114250295Y-58578000D02*
X114288390Y-58692286D01*
X114288390Y-58692286D02*
X114364580Y-58768476D01*
X114364580Y-58768476D02*
X114440771Y-58806571D01*
X114440771Y-58806571D02*
X114593152Y-58844667D01*
X114593152Y-58844667D02*
X114707438Y-58844667D01*
X114707438Y-58844667D02*
X114859819Y-58806571D01*
X114859819Y-58806571D02*
X114936009Y-58768476D01*
X114936009Y-58768476D02*
X115012200Y-58692286D01*
X115012200Y-58692286D02*
X115050295Y-58578000D01*
X115050295Y-58578000D02*
X115050295Y-58387524D01*
X114326485Y-59149428D02*
X114288390Y-59187524D01*
X114288390Y-59187524D02*
X114250295Y-59263714D01*
X114250295Y-59263714D02*
X114250295Y-59454190D01*
X114250295Y-59454190D02*
X114288390Y-59530381D01*
X114288390Y-59530381D02*
X114326485Y-59568476D01*
X114326485Y-59568476D02*
X114402676Y-59606571D01*
X114402676Y-59606571D02*
X114478866Y-59606571D01*
X114478866Y-59606571D02*
X114593152Y-59568476D01*
X114593152Y-59568476D02*
X115050295Y-59111333D01*
X115050295Y-59111333D02*
X115050295Y-59606571D01*
%TO.C,CIS3*%
D12*
X103665580Y-50090000D02*
X103384420Y-50090000D01*
X103665580Y-51110000D02*
X103384420Y-51110000D01*
%TO.C,RS1*%
X90162742Y-59777500D02*
X90637258Y-59777500D01*
X90162742Y-60822500D02*
X90637258Y-60822500D01*
%TO.C,R3*%
X103262742Y-55377500D02*
X103737258Y-55377500D01*
X103262742Y-56422500D02*
X103737258Y-56422500D01*
%TO.C,CF1*%
X92190000Y-48159420D02*
X92190000Y-48440580D01*
X93210000Y-48159420D02*
X93210000Y-48440580D01*
%TO.C,L1*%
X93800378Y-53540000D02*
X94599622Y-53540000D01*
X93800378Y-54660000D02*
X94599622Y-54660000D01*
%TO.C,L3*%
X104099622Y-53540000D02*
X103300378Y-53540000D01*
X104099622Y-54660000D02*
X103300378Y-54660000D01*
%TO.C,U2*%
X108065000Y-53700000D02*
X108065000Y-51500000D01*
X108065000Y-53700000D02*
X108065000Y-55900000D01*
X111285000Y-53700000D02*
X111285000Y-51500000D01*
X111285000Y-53700000D02*
X111285000Y-57300000D01*
%TO.C,U3*%
X98490000Y-53700000D02*
X98490000Y-51500000D01*
X98490000Y-53700000D02*
X98490000Y-55900000D01*
X101710000Y-53700000D02*
X101710000Y-51500000D01*
X101710000Y-53700000D02*
X101710000Y-57300000D01*
%TO.C,CIN1*%
X93959420Y-51890000D02*
X94240580Y-51890000D01*
X93959420Y-52910000D02*
X94240580Y-52910000D01*
%TO.C,RS2*%
X109237742Y-59677500D02*
X109712258Y-59677500D01*
X109237742Y-60722500D02*
X109712258Y-60722500D01*
%TO.C,RH2*%
X109712258Y-61377500D02*
X109237742Y-61377500D01*
X109712258Y-62422500D02*
X109237742Y-62422500D01*
%TO.C,RL3*%
X99662742Y-63177500D02*
X100137258Y-63177500D01*
X99662742Y-64222500D02*
X100137258Y-64222500D01*
%TO.C,CIN2*%
X112934420Y-51790000D02*
X113215580Y-51790000D01*
X112934420Y-52810000D02*
X113215580Y-52810000D01*
%TO.C,COUT2*%
X109615580Y-57990000D02*
X109334420Y-57990000D01*
X109615580Y-59010000D02*
X109334420Y-59010000D01*
%TO.C,R1*%
X93862742Y-55277500D02*
X94337258Y-55277500D01*
X93862742Y-56322500D02*
X94337258Y-56322500D01*
%TO.C,COUT3*%
X100040580Y-58090000D02*
X99759420Y-58090000D01*
X100040580Y-59110000D02*
X99759420Y-59110000D01*
%TO.C,RF2*%
X90537258Y-46977500D02*
X90062742Y-46977500D01*
X90537258Y-48022500D02*
X90062742Y-48022500D01*
%TO.C,CIN3*%
X103359420Y-51790000D02*
X103640580Y-51790000D01*
X103359420Y-52810000D02*
X103640580Y-52810000D01*
%TO.C,COUT2*%
X109615580Y-64790000D02*
X109334420Y-64790000D01*
X109615580Y-65810000D02*
X109334420Y-65810000D01*
%TO.C,D4*%
X92540000Y-69260000D02*
X92540000Y-64200000D01*
X95260000Y-69260000D02*
X92540000Y-69260000D01*
X95260000Y-69260000D02*
X95260000Y-64200000D01*
%TO.C,R2*%
X112837742Y-55377500D02*
X113312258Y-55377500D01*
X112837742Y-56422500D02*
X113312258Y-56422500D01*
%TO.C,D5*%
X111315000Y-69260000D02*
X111315000Y-64200000D01*
X114035000Y-69260000D02*
X111315000Y-69260000D01*
X114035000Y-69260000D02*
X114035000Y-64200000D01*
%TO.C,COUT1*%
X90540580Y-64890000D02*
X90259420Y-64890000D01*
X90540580Y-65910000D02*
X90259420Y-65910000D01*
%TO.C,COU1*%
X90540580Y-58090000D02*
X90259420Y-58090000D01*
X90540580Y-59110000D02*
X90259420Y-59110000D01*
%TO.C,RL2*%
X109237742Y-63077500D02*
X109712258Y-63077500D01*
X109237742Y-64122500D02*
X109712258Y-64122500D01*
%TO.C,RF1*%
X90537258Y-48577500D02*
X90062742Y-48577500D01*
X90537258Y-49622500D02*
X90062742Y-49622500D01*
%TO.C,RS3*%
X99662742Y-59777500D02*
X100137258Y-59777500D01*
X99662742Y-60822500D02*
X100137258Y-60822500D01*
%TO.C,L2*%
X113774622Y-53540000D02*
X112975378Y-53540000D01*
X113774622Y-54660000D02*
X112975378Y-54660000D01*
%TO.C,RF3*%
X109712258Y-46877500D02*
X109237742Y-46877500D01*
X109712258Y-47922500D02*
X109237742Y-47922500D01*
%TO.C,CF2*%
X111265000Y-48059420D02*
X111265000Y-48340580D01*
X112285000Y-48059420D02*
X112285000Y-48340580D01*
%TO.C,D6*%
X101916400Y-69250800D02*
X101916400Y-64190800D01*
X104636400Y-69250800D02*
X101916400Y-69250800D01*
X104636400Y-69250800D02*
X104636400Y-64190800D01*
%TO.C,CIS2*%
X113215580Y-50090000D02*
X112934420Y-50090000D01*
X113215580Y-51110000D02*
X112934420Y-51110000D01*
%TO.C,RF6*%
X100037258Y-48477500D02*
X99562742Y-48477500D01*
X100037258Y-49522500D02*
X99562742Y-49522500D01*
%TO.C,RF4*%
X109712258Y-48477500D02*
X109237742Y-48477500D01*
X109712258Y-49522500D02*
X109237742Y-49522500D01*
%TO.C,D1*%
D13*
X92506800Y-62525600D02*
X92506800Y-61735600D01*
X92956800Y-62525600D02*
X92506800Y-62525600D01*
X95250000Y-61735600D02*
X95250000Y-62525600D01*
X95250000Y-62525600D02*
X94800000Y-62525600D01*
D10*
G36*
X93849911Y-62637800D02*
G01*
X93808489Y-62637800D01*
X93795489Y-62624800D01*
X93862911Y-62624800D01*
X93849911Y-62637800D01*
G37*
G36*
X93949911Y-62637800D02*
G01*
X93908489Y-62637800D01*
X93895489Y-62624800D01*
X93962911Y-62624800D01*
X93949911Y-62637800D01*
G37*
G36*
X93860102Y-62630332D02*
G01*
X93829200Y-62640373D01*
X93798298Y-62630332D01*
X93794278Y-62624800D01*
X93864121Y-62624800D01*
X93860102Y-62630332D01*
G37*
G36*
X93941003Y-62672865D02*
G01*
X93879200Y-62692946D01*
X93817397Y-62672865D01*
X93782475Y-62624800D01*
X93975924Y-62624800D01*
X93941003Y-62672865D01*
G37*
G36*
X93960102Y-62630332D02*
G01*
X93929200Y-62640373D01*
X93898298Y-62630332D01*
X93894278Y-62624800D01*
X93964121Y-62624800D01*
X93960102Y-62630332D01*
G37*
%TO.C,COUT3*%
D12*
X100040580Y-64818000D02*
X99759420Y-64818000D01*
X100040580Y-65838000D02*
X99759420Y-65838000D01*
%TO.C,CF3*%
X101590000Y-48059420D02*
X101590000Y-48340580D01*
X102610000Y-48059420D02*
X102610000Y-48340580D01*
%TO.C,D3*%
D13*
X101904800Y-62576400D02*
X101904800Y-61786400D01*
X102354800Y-62576400D02*
X101904800Y-62576400D01*
X104648000Y-61786400D02*
X104648000Y-62576400D01*
X104648000Y-62576400D02*
X104198000Y-62576400D01*
D10*
G36*
X103247911Y-62688600D02*
G01*
X103206489Y-62688600D01*
X103193489Y-62675600D01*
X103260911Y-62675600D01*
X103247911Y-62688600D01*
G37*
G36*
X103347911Y-62688600D02*
G01*
X103306489Y-62688600D01*
X103293489Y-62675600D01*
X103360911Y-62675600D01*
X103347911Y-62688600D01*
G37*
G36*
X103258102Y-62681132D02*
G01*
X103227200Y-62691173D01*
X103196298Y-62681132D01*
X103192278Y-62675600D01*
X103262121Y-62675600D01*
X103258102Y-62681132D01*
G37*
G36*
X103339003Y-62723665D02*
G01*
X103277200Y-62743746D01*
X103215397Y-62723665D01*
X103180475Y-62675600D01*
X103373924Y-62675600D01*
X103339003Y-62723665D01*
G37*
G36*
X103358102Y-62681132D02*
G01*
X103327200Y-62691173D01*
X103296298Y-62681132D01*
X103292278Y-62675600D01*
X103362121Y-62675600D01*
X103358102Y-62681132D01*
G37*
%TO.C,U1*%
D12*
X88990000Y-53800000D02*
X88990000Y-51600000D01*
X88990000Y-53800000D02*
X88990000Y-56000000D01*
X92210000Y-53800000D02*
X92210000Y-51600000D01*
X92210000Y-53800000D02*
X92210000Y-57400000D01*
%TO.C,RH3*%
X100137258Y-61477500D02*
X99662742Y-61477500D01*
X100137258Y-62522500D02*
X99662742Y-62522500D01*
%TO.C,RF5*%
X100037258Y-46877500D02*
X99562742Y-46877500D01*
X100037258Y-47922500D02*
X99562742Y-47922500D01*
%TO.C,RL1*%
X90162742Y-63177500D02*
X90637258Y-63177500D01*
X90162742Y-64222500D02*
X90637258Y-64222500D01*
%TO.C,RH1*%
X90637258Y-61477500D02*
X90162742Y-61477500D01*
X90637258Y-62522500D02*
X90162742Y-62522500D01*
%TO.C,CIS1*%
X94240580Y-50190000D02*
X93959420Y-50190000D01*
X94240580Y-51210000D02*
X93959420Y-51210000D01*
%TO.C,D2*%
D13*
X111302800Y-62576400D02*
X111302800Y-61786400D01*
X111752800Y-62576400D02*
X111302800Y-62576400D01*
X114046000Y-61786400D02*
X114046000Y-62576400D01*
X114046000Y-62576400D02*
X113596000Y-62576400D01*
D10*
G36*
X112645911Y-62688600D02*
G01*
X112604489Y-62688600D01*
X112591489Y-62675600D01*
X112658911Y-62675600D01*
X112645911Y-62688600D01*
G37*
G36*
X112745911Y-62688600D02*
G01*
X112704489Y-62688600D01*
X112691489Y-62675600D01*
X112758911Y-62675600D01*
X112745911Y-62688600D01*
G37*
G36*
X112656102Y-62681132D02*
G01*
X112625200Y-62691173D01*
X112594298Y-62681132D01*
X112590278Y-62675600D01*
X112660121Y-62675600D01*
X112656102Y-62681132D01*
G37*
G36*
X112737003Y-62723665D02*
G01*
X112675200Y-62743746D01*
X112613397Y-62723665D01*
X112578475Y-62675600D01*
X112771924Y-62675600D01*
X112737003Y-62723665D01*
G37*
G36*
X112756102Y-62681132D02*
G01*
X112725200Y-62691173D01*
X112694298Y-62681132D01*
X112690278Y-62675600D01*
X112760121Y-62675600D01*
X112756102Y-62681132D01*
G37*
%TD*%
%LPC*%
D14*
%TO.C,J5*%
X90225800Y-71304400D03*
D15*
X90225800Y-68764400D03*
%TD*%
D16*
%TO.C,H4*%
X85188000Y-74473000D03*
%TD*%
D14*
%TO.C,J1*%
X90258000Y-41482200D03*
D15*
X92798000Y-41482200D03*
X95338000Y-41482200D03*
X97878000Y-41482200D03*
X100418000Y-41482200D03*
X102958000Y-41482200D03*
X105498000Y-41482200D03*
X108038000Y-41482200D03*
X110578000Y-41482200D03*
X113118000Y-41482200D03*
%TD*%
D16*
%TO.C,H1*%
X85188000Y-41473000D03*
%TD*%
%TO.C,H2*%
X118188000Y-41473000D03*
%TD*%
D14*
%TO.C,J2*%
X118178800Y-46543000D03*
D15*
X118178800Y-49083000D03*
X118178800Y-51623000D03*
X118178800Y-54163000D03*
X118178800Y-56703000D03*
X118178800Y-59243000D03*
X118178800Y-61783000D03*
X118178800Y-64323000D03*
X118178800Y-66863000D03*
X118178800Y-69403000D03*
%TD*%
D16*
%TO.C,H3*%
X118188000Y-74473000D03*
%TD*%
D14*
%TO.C,J4*%
X85188000Y-69403000D03*
D15*
X85188000Y-66863000D03*
X85188000Y-64323000D03*
X85188000Y-61783000D03*
X85188000Y-59243000D03*
X85188000Y-56703000D03*
X85188000Y-54163000D03*
X85188000Y-51623000D03*
X85188000Y-49083000D03*
X85188000Y-46543000D03*
%TD*%
D14*
%TO.C,J3*%
X113133200Y-74498200D03*
D15*
X110593200Y-74498200D03*
X108053200Y-74498200D03*
X105513200Y-74498200D03*
X102973200Y-74498200D03*
X100433200Y-74498200D03*
X97893200Y-74498200D03*
X95353200Y-74498200D03*
X92813200Y-74498200D03*
X90273200Y-74498200D03*
%TD*%
D17*
%TO.C,CIS3*%
X104300000Y-50600000D03*
X102750000Y-50600000D03*
%TD*%
D18*
%TO.C,RS1*%
X89575000Y-60300000D03*
X91225000Y-60300000D03*
%TD*%
%TO.C,R3*%
X102675000Y-55900000D03*
X104325000Y-55900000D03*
%TD*%
D19*
%TO.C,CF1*%
X92700000Y-47525000D03*
X92700000Y-49075000D03*
%TD*%
D20*
%TO.C,L1*%
X93137500Y-54100000D03*
X95262500Y-54100000D03*
%TD*%
D21*
%TO.C,L3*%
X104762500Y-54100000D03*
X102637500Y-54100000D03*
%TD*%
D22*
%TO.C,U2*%
X110650000Y-56562500D03*
X110000000Y-56562500D03*
X109350000Y-56562500D03*
X108700000Y-56562500D03*
X108700000Y-50837500D03*
X109350000Y-50837500D03*
X110000000Y-50837500D03*
X110650000Y-50837500D03*
%TD*%
%TO.C,U3*%
X101075000Y-56562500D03*
X100425000Y-56562500D03*
X99775000Y-56562500D03*
X99125000Y-56562500D03*
X99125000Y-50837500D03*
X99775000Y-50837500D03*
X100425000Y-50837500D03*
X101075000Y-50837500D03*
%TD*%
D23*
%TO.C,CIN1*%
X93325000Y-52400000D03*
X94875000Y-52400000D03*
%TD*%
D18*
%TO.C,RS2*%
X108650000Y-60200000D03*
X110300000Y-60200000D03*
%TD*%
D24*
%TO.C,RH2*%
X110300000Y-61900000D03*
X108650000Y-61900000D03*
%TD*%
D18*
%TO.C,RL3*%
X99075000Y-63700000D03*
X100725000Y-63700000D03*
%TD*%
D23*
%TO.C,CIN2*%
X112300000Y-52300000D03*
X113850000Y-52300000D03*
%TD*%
D17*
%TO.C,COUT2*%
X110250000Y-58500000D03*
X108700000Y-58500000D03*
%TD*%
D18*
%TO.C,R1*%
X93275000Y-55800000D03*
X94925000Y-55800000D03*
%TD*%
D17*
%TO.C,COUT3*%
X100675000Y-58600000D03*
X99125000Y-58600000D03*
%TD*%
D24*
%TO.C,RF2*%
X91125000Y-47500000D03*
X89475000Y-47500000D03*
%TD*%
D23*
%TO.C,CIN3*%
X102725000Y-52300000D03*
X104275000Y-52300000D03*
%TD*%
D17*
%TO.C,COUT2*%
X110250000Y-65300000D03*
X108700000Y-65300000D03*
%TD*%
D25*
%TO.C,D4*%
X93900000Y-68300000D03*
X93900000Y-63900000D03*
%TD*%
D18*
%TO.C,R2*%
X112250000Y-55900000D03*
X113900000Y-55900000D03*
%TD*%
D25*
%TO.C,D5*%
X112675000Y-68300000D03*
X112675000Y-63900000D03*
%TD*%
D17*
%TO.C,COUT1*%
X91175000Y-65400000D03*
X89625000Y-65400000D03*
%TD*%
%TO.C,COU1*%
X91175000Y-58600000D03*
X89625000Y-58600000D03*
%TD*%
D18*
%TO.C,RL2*%
X108650000Y-63600000D03*
X110300000Y-63600000D03*
%TD*%
D24*
%TO.C,RF1*%
X91125000Y-49100000D03*
X89475000Y-49100000D03*
%TD*%
D18*
%TO.C,RS3*%
X99075000Y-60300000D03*
X100725000Y-60300000D03*
%TD*%
D21*
%TO.C,L2*%
X114437500Y-54100000D03*
X112312500Y-54100000D03*
%TD*%
D24*
%TO.C,RF3*%
X110300000Y-47400000D03*
X108650000Y-47400000D03*
%TD*%
D19*
%TO.C,CF2*%
X111775000Y-47425000D03*
X111775000Y-48975000D03*
%TD*%
D25*
%TO.C,D6*%
X103276400Y-68290800D03*
X103276400Y-63890800D03*
%TD*%
D17*
%TO.C,CIS2*%
X113850000Y-50600000D03*
X112300000Y-50600000D03*
%TD*%
D24*
%TO.C,RF6*%
X100625000Y-49000000D03*
X98975000Y-49000000D03*
%TD*%
%TO.C,RF4*%
X110300000Y-49000000D03*
X108650000Y-49000000D03*
%TD*%
D26*
%TO.C,D1*%
X93878400Y-60809800D03*
D27*
X93878400Y-62079800D03*
D28*
X93878400Y-58219000D03*
%TD*%
D17*
%TO.C,COUT3*%
X100675000Y-65328000D03*
X99125000Y-65328000D03*
%TD*%
D19*
%TO.C,CF3*%
X102100000Y-47425000D03*
X102100000Y-48975000D03*
%TD*%
D26*
%TO.C,D3*%
X103276400Y-60860600D03*
D27*
X103276400Y-62130600D03*
D28*
X103276400Y-58269800D03*
%TD*%
D22*
%TO.C,U1*%
X91575000Y-56662500D03*
X90925000Y-56662500D03*
X90275000Y-56662500D03*
X89625000Y-56662500D03*
X89625000Y-50937500D03*
X90275000Y-50937500D03*
X90925000Y-50937500D03*
X91575000Y-50937500D03*
%TD*%
D24*
%TO.C,RH3*%
X100725000Y-62000000D03*
X99075000Y-62000000D03*
%TD*%
%TO.C,RF5*%
X100625000Y-47400000D03*
X98975000Y-47400000D03*
%TD*%
D18*
%TO.C,RL1*%
X89575000Y-63700000D03*
X91225000Y-63700000D03*
%TD*%
D24*
%TO.C,RH1*%
X91225000Y-62000000D03*
X89575000Y-62000000D03*
%TD*%
D17*
%TO.C,CIS1*%
X94875000Y-50700000D03*
X93325000Y-50700000D03*
%TD*%
D26*
%TO.C,D2*%
X112674400Y-60860600D03*
D27*
X112674400Y-62130600D03*
D28*
X112674400Y-58269800D03*
%TD*%
%LPD*%
M02*
