%TF.GenerationSoftware,KiCad,Pcbnew,10.0.5*%
%TF.CreationDate,2026-10-02T22:24:03-03:00*%
%TF.ProjectId,PQ_EPS,50515f45-5053-42e6-9b69-6361645f7063,1.3*%
%TF.SameCoordinates,Original*%
%TF.FileFunction,Paste,Top*%
%TF.FilePolarity,Positive*%
%FSLAX46Y46*%
G04 Gerber Fmt 4.6, Leading zero omitted, Abs format (unit mm)*
G04 Created by KiCad (PCBNEW 10.0.5) date 2026-10-02 22:24:03*
%MOMM*%
%LPD*%
G01*
G04 APERTURE LIST*
G04 Aperture macros list*
%AMRoundRect*
0 Rectangle with rounded corners*
0 $1 Rounding radius*
0 $2 $3 $4 $5 $6 $7 $8 $9 X,Y pos of 4 corners*
0 Add a 4 corners polygon primitive as box body*
4,1,4,$2,$3,$4,$5,$6,$7,$8,$9,$2,$3,0*
0 Add four circle primitives for the rounded corners*
1,1,$1+$1,$2,$3*
1,1,$1+$1,$4,$5*
1,1,$1+$1,$6,$7*
1,1,$1+$1,$8,$9*
0 Add four rect primitives between the rounded corners*
20,1,$1+$1,$2,$3,$4,$5,0*
20,1,$1+$1,$4,$5,$6,$7,0*
20,1,$1+$1,$6,$7,$8,$9,0*
20,1,$1+$1,$8,$9,$2,$3,0*%
G04 Aperture macros list end*
%ADD10R,1.180000X4.400000*%
%ADD11RoundRect,0.200000X-0.275000X0.200000X-0.275000X-0.200000X0.275000X-0.200000X0.275000X0.200000X0*%
%ADD12RoundRect,0.225000X-0.225000X-0.250000X0.225000X-0.250000X0.225000X0.250000X-0.225000X0.250000X0*%
%ADD13RoundRect,0.250000X0.325000X0.650000X-0.325000X0.650000X-0.325000X-0.650000X0.325000X-0.650000X0*%
%ADD14RoundRect,0.160000X-0.160000X-0.160000X0.160000X-0.160000X0.160000X0.160000X-0.160000X0.160000X0*%
%ADD15RoundRect,0.062500X-0.350000X-0.062500X0.350000X-0.062500X0.350000X0.062500X-0.350000X0.062500X0*%
%ADD16RoundRect,0.062500X-0.062500X-0.350000X0.062500X-0.350000X0.062500X0.350000X-0.062500X0.350000X0*%
%ADD17RoundRect,0.250000X-0.262500X-0.450000X0.262500X-0.450000X0.262500X0.450000X-0.262500X0.450000X0*%
%ADD18RoundRect,0.200000X-0.200000X-0.275000X0.200000X-0.275000X0.200000X0.275000X-0.200000X0.275000X0*%
%ADD19RoundRect,0.200000X0.275000X-0.200000X0.275000X0.200000X-0.275000X0.200000X-0.275000X-0.200000X0*%
%ADD20RoundRect,0.225000X-0.250000X0.225000X-0.250000X-0.225000X0.250000X-0.225000X0.250000X0.225000X0*%
%ADD21RoundRect,0.218750X0.381250X-0.218750X0.381250X0.218750X-0.381250X0.218750X-0.381250X-0.218750X0*%
%ADD22RoundRect,0.135000X-0.185000X0.135000X-0.185000X-0.135000X0.185000X-0.135000X0.185000X0.135000X0*%
%ADD23RoundRect,0.100000X0.637500X0.100000X-0.637500X0.100000X-0.637500X-0.100000X0.637500X-0.100000X0*%
%ADD24RoundRect,0.245000X-0.290000X-0.245000X0.290000X-0.245000X0.290000X0.245000X-0.290000X0.245000X0*%
%ADD25RoundRect,0.062500X-0.362500X-0.062500X0.362500X-0.062500X0.362500X0.062500X-0.362500X0.062500X0*%
%ADD26RoundRect,0.062500X-0.062500X-0.362500X0.062500X-0.362500X0.062500X0.362500X-0.062500X0.362500X0*%
%ADD27RoundRect,0.250000X0.450000X-0.262500X0.450000X0.262500X-0.450000X0.262500X-0.450000X-0.262500X0*%
%ADD28R,0.610000X1.270000*%
%ADD29R,3.910000X3.810000*%
%ADD30R,0.610000X1.020000*%
%ADD31RoundRect,0.225000X0.225000X0.250000X-0.225000X0.250000X-0.225000X-0.250000X0.225000X-0.250000X0*%
%ADD32RoundRect,0.225000X0.250000X-0.225000X0.250000X0.225000X-0.250000X0.225000X-0.250000X-0.225000X0*%
G04 APERTURE END LIST*
D10*
%TO.C,L4*%
X90545000Y-48300000D03*
X93855000Y-48300000D03*
%TD*%
D11*
%TO.C,RFV0*%
X108789800Y-53251600D03*
X108789800Y-54901600D03*
%TD*%
D12*
%TO.C,C5*%
X112025000Y-45100000D03*
X113575000Y-45100000D03*
%TD*%
D13*
%TO.C,C3*%
X105819800Y-70967600D03*
X102869800Y-70967600D03*
%TD*%
D14*
%TO.C,IC2*%
X113000000Y-48800000D03*
X113000000Y-49600000D03*
X113800000Y-48800000D03*
X113800000Y-49600000D03*
D15*
X111962500Y-48700000D03*
X111962500Y-49200000D03*
X111962500Y-49700000D03*
D16*
X112900000Y-50637500D03*
X113400000Y-50637500D03*
X113900000Y-50637500D03*
D15*
X114837500Y-49700000D03*
X114837500Y-49200000D03*
X114837500Y-48700000D03*
D16*
X113900000Y-47762500D03*
X113400000Y-47762500D03*
X112900000Y-47762500D03*
%TD*%
D17*
%TO.C,R4*%
X94439100Y-63093600D03*
X96264100Y-63093600D03*
%TD*%
D18*
%TO.C,RPF2*%
X88475000Y-65100000D03*
X90125000Y-65100000D03*
%TD*%
D19*
%TO.C,DNC2*%
X101200000Y-46662500D03*
X101200000Y-45012500D03*
%TD*%
D11*
%TO.C,RFG0*%
X108789800Y-57163200D03*
X108789800Y-58813200D03*
%TD*%
D20*
%TO.C,C2*%
X97900000Y-45062500D03*
X97900000Y-46612500D03*
%TD*%
D21*
%TO.C,L5*%
X110000000Y-50262500D03*
X110000000Y-48137500D03*
%TD*%
D19*
%TO.C,RBIAS1*%
X115012800Y-59651400D03*
X115012800Y-58001400D03*
%TD*%
D22*
%TO.C,RFB2*%
X105562400Y-64006000D03*
X105562400Y-65026000D03*
%TD*%
D23*
%TO.C,IC1*%
X105762500Y-50175000D03*
X105762500Y-49525000D03*
X105762500Y-48875000D03*
X105762500Y-48225000D03*
X100037500Y-48225000D03*
X100037500Y-48875000D03*
X100037500Y-49525000D03*
X100037500Y-50175000D03*
%TD*%
D24*
%TO.C,U4*%
X97540000Y-56780000D03*
X97540000Y-58000000D03*
X97540000Y-59220000D03*
X98860000Y-56780000D03*
X98860000Y-58000000D03*
X98860000Y-59220000D03*
D25*
X96250000Y-56500000D03*
X96250000Y-57000000D03*
X96250000Y-57500000D03*
X96250000Y-58000000D03*
X96250000Y-58500000D03*
X96250000Y-59000000D03*
X96250000Y-59500000D03*
D26*
X97200000Y-60450000D03*
X97700000Y-60450000D03*
X98200000Y-60450000D03*
X98700000Y-60450000D03*
X99200000Y-60450000D03*
D25*
X100150000Y-59500000D03*
X100150000Y-59000000D03*
X100150000Y-58500000D03*
X100150000Y-58000000D03*
X100150000Y-57500000D03*
X100150000Y-57000000D03*
X100150000Y-56500000D03*
D26*
X99200000Y-55550000D03*
X98700000Y-55550000D03*
X98200000Y-55550000D03*
X97700000Y-55550000D03*
X97200000Y-55550000D03*
%TD*%
D19*
%TO.C,R7*%
X104395600Y-46621200D03*
X104395600Y-44971200D03*
%TD*%
D27*
%TO.C,RP_FAULT1*%
X103100000Y-65412500D03*
X103100000Y-63587500D03*
%TD*%
D18*
%TO.C,RPF1*%
X91675000Y-65100000D03*
X93325000Y-65100000D03*
%TD*%
D28*
%TO.C,Q1*%
X113969800Y-63776400D03*
X112699800Y-63776400D03*
X111429800Y-63776400D03*
X110159800Y-63776400D03*
D29*
X112064800Y-67136400D03*
D30*
X113969800Y-69241400D03*
X112699800Y-69241400D03*
X111429800Y-69241400D03*
X110159800Y-69241400D03*
%TD*%
D31*
%TO.C,C1*%
X93258000Y-66573400D03*
X91708000Y-66573400D03*
%TD*%
D32*
%TO.C,C4*%
X106000000Y-46575000D03*
X106000000Y-45025000D03*
%TD*%
D11*
%TO.C,R6*%
X94600000Y-54875000D03*
X94600000Y-56525000D03*
%TD*%
D27*
%TO.C,RP_CHRG1*%
X99800000Y-65412500D03*
X99800000Y-63587500D03*
%TD*%
D18*
%TO.C,R9*%
X107575000Y-45100000D03*
X109225000Y-45100000D03*
%TD*%
D11*
%TO.C,RFB1*%
X103900000Y-56975000D03*
X103900000Y-58625000D03*
%TD*%
D19*
%TO.C,R8*%
X102795400Y-46646600D03*
X102795400Y-44996600D03*
%TD*%
D11*
%TO.C,RFG2*%
X111914000Y-57163200D03*
X111914000Y-58813200D03*
%TD*%
%TO.C,RFG1*%
X110364600Y-57163200D03*
X110364600Y-58813200D03*
%TD*%
%TO.C,RFV2*%
X111914000Y-53277000D03*
X111914000Y-54927000D03*
%TD*%
D19*
%TO.C,DNC1*%
X99600000Y-46662500D03*
X99600000Y-45012500D03*
%TD*%
D11*
%TO.C,RFV1*%
X110364600Y-53251600D03*
X110364600Y-54901600D03*
%TD*%
M02*
