%TF.GenerationSoftware,KiCad,Pcbnew,10.0.5*%
%TF.CreationDate,2026-10-02T22:28:14-03:00*%
%TF.ProjectId,PQ_Lat_Board,50515f4c-6174-45f4-926f-6172642e6b69,rev?*%
%TF.SameCoordinates,Original*%
%TF.FileFunction,Legend,Bot*%
%TF.FilePolarity,Positive*%
%FSLAX46Y46*%
G04 Gerber Fmt 4.6, Leading zero omitted, Abs format (unit mm)*
G04 Created by KiCad (PCBNEW 10.0.5) date 2026-10-02 22:28:14*
%MOMM*%
%LPD*%
G01*
G04 APERTURE LIST*
G04 Aperture macros list*
%AMRoundRect*
0 Rectangle with rounded corners*
0 $1 Rounding radius*
0 $2 $3 $4 $5 $6 $7 $8 $9 X,Y pos of 4 corners*
0 Add a 4 corners polygon primitive as box body*
4,1,4,$2,$3,$4,$5,$6,$7,$8,$9,$2,$3,0*
0 Add four circle primitives for the rounded corners*
1,1,$1+$1,$2,$3*
1,1,$1+$1,$4,$5*
1,1,$1+$1,$6,$7*
1,1,$1+$1,$8,$9*
0 Add four rect primitives between the rounded corners*
20,1,$1+$1,$2,$3,$4,$5,0*
20,1,$1+$1,$4,$5,$6,$7,0*
20,1,$1+$1,$6,$7,$8,$9,0*
20,1,$1+$1,$8,$9,$2,$3,0*%
G04 Aperture macros list end*
%ADD10C,0.150000*%
%ADD11C,0.300000*%
%ADD12C,0.000000*%
%ADD13C,0.120000*%
%ADD14C,4.400000*%
%ADD15C,3.500000*%
%ADD16C,2.600000*%
%ADD17RoundRect,0.571429X1.428571X-2.928571X1.428571X2.928571X-1.428571X2.928571X-1.428571X-2.928571X0*%
%ADD18RoundRect,0.800000X1.200000X-2.700000X1.200000X2.700000X-1.200000X2.700000X-1.200000X-2.700000X0*%
%ADD19RoundRect,0.571429X1.428571X-1.928571X1.428571X1.928571X-1.428571X1.928571X-1.428571X-1.928571X0*%
%ADD20RoundRect,1.250000X1.250000X-1.250000X1.250000X1.250000X-1.250000X1.250000X-1.250000X-1.250000X0*%
%ADD21C,1.600000*%
%ADD22O,1.600000X1.600000*%
%ADD23R,1.000000X1.500000*%
%ADD24R,2.000000X2.000000*%
G04 APERTURE END LIST*
D10*
X115621179Y-47432733D02*
X116383084Y-47432733D01*
X116002131Y-47051780D02*
X116002131Y-47813685D01*
X114096600Y-68567124D02*
X114058504Y-68452838D01*
X114058504Y-68452838D02*
X114058504Y-68262362D01*
X114058504Y-68262362D02*
X114096600Y-68186171D01*
X114096600Y-68186171D02*
X114134695Y-68148076D01*
X114134695Y-68148076D02*
X114210885Y-68109981D01*
X114210885Y-68109981D02*
X114287076Y-68109981D01*
X114287076Y-68109981D02*
X114363266Y-68148076D01*
X114363266Y-68148076D02*
X114401361Y-68186171D01*
X114401361Y-68186171D02*
X114439457Y-68262362D01*
X114439457Y-68262362D02*
X114477552Y-68414743D01*
X114477552Y-68414743D02*
X114515647Y-68490933D01*
X114515647Y-68490933D02*
X114553742Y-68529028D01*
X114553742Y-68529028D02*
X114629933Y-68567124D01*
X114629933Y-68567124D02*
X114706123Y-68567124D01*
X114706123Y-68567124D02*
X114782314Y-68529028D01*
X114782314Y-68529028D02*
X114820409Y-68490933D01*
X114820409Y-68490933D02*
X114858504Y-68414743D01*
X114858504Y-68414743D02*
X114858504Y-68224266D01*
X114858504Y-68224266D02*
X114820409Y-68109981D01*
X114134695Y-67309980D02*
X114096600Y-67348076D01*
X114096600Y-67348076D02*
X114058504Y-67462361D01*
X114058504Y-67462361D02*
X114058504Y-67538552D01*
X114058504Y-67538552D02*
X114096600Y-67652838D01*
X114096600Y-67652838D02*
X114172790Y-67729028D01*
X114172790Y-67729028D02*
X114248980Y-67767123D01*
X114248980Y-67767123D02*
X114401361Y-67805219D01*
X114401361Y-67805219D02*
X114515647Y-67805219D01*
X114515647Y-67805219D02*
X114668028Y-67767123D01*
X114668028Y-67767123D02*
X114744219Y-67729028D01*
X114744219Y-67729028D02*
X114820409Y-67652838D01*
X114820409Y-67652838D02*
X114858504Y-67538552D01*
X114858504Y-67538552D02*
X114858504Y-67462361D01*
X114858504Y-67462361D02*
X114820409Y-67348076D01*
X114820409Y-67348076D02*
X114782314Y-67309980D01*
X114058504Y-66548076D02*
X114058504Y-67005219D01*
X114058504Y-66776647D02*
X114858504Y-66776647D01*
X114858504Y-66776647D02*
X114744219Y-66852838D01*
X114744219Y-66852838D02*
X114668028Y-66929028D01*
X114668028Y-66929028D02*
X114629933Y-67005219D01*
X116179979Y-82510180D02*
X116179979Y-83510180D01*
X116179979Y-83510180D02*
X116418074Y-83510180D01*
X116418074Y-83510180D02*
X116560931Y-83462561D01*
X116560931Y-83462561D02*
X116656169Y-83367323D01*
X116656169Y-83367323D02*
X116703788Y-83272085D01*
X116703788Y-83272085D02*
X116751407Y-83081609D01*
X116751407Y-83081609D02*
X116751407Y-82938752D01*
X116751407Y-82938752D02*
X116703788Y-82748276D01*
X116703788Y-82748276D02*
X116656169Y-82653038D01*
X116656169Y-82653038D02*
X116560931Y-82557800D01*
X116560931Y-82557800D02*
X116418074Y-82510180D01*
X116418074Y-82510180D02*
X116179979Y-82510180D01*
X116725620Y-73944066D02*
X115963716Y-73944066D01*
X116827220Y-62209266D02*
X116065316Y-62209266D01*
X117691495Y-67806876D02*
X117691495Y-68264019D01*
X118491495Y-68035447D02*
X117691495Y-68035447D01*
X118491495Y-68530686D02*
X117691495Y-68530686D01*
X118491495Y-68987829D02*
X118034352Y-68644971D01*
X117691495Y-68987829D02*
X118148638Y-68530686D01*
X118491495Y-69749733D02*
X118491495Y-69292590D01*
X118491495Y-69521162D02*
X117691495Y-69521162D01*
X117691495Y-69521162D02*
X117805780Y-69444971D01*
X117805780Y-69444971D02*
X117881971Y-69368781D01*
X117881971Y-69368781D02*
X117920066Y-69292590D01*
X98090475Y-43862295D02*
X98090475Y-43062295D01*
X98090475Y-43062295D02*
X97899999Y-43062295D01*
X97899999Y-43062295D02*
X97785713Y-43100390D01*
X97785713Y-43100390D02*
X97709523Y-43176580D01*
X97709523Y-43176580D02*
X97671428Y-43252771D01*
X97671428Y-43252771D02*
X97633332Y-43405152D01*
X97633332Y-43405152D02*
X97633332Y-43519438D01*
X97633332Y-43519438D02*
X97671428Y-43671819D01*
X97671428Y-43671819D02*
X97709523Y-43748009D01*
X97709523Y-43748009D02*
X97785713Y-43824200D01*
X97785713Y-43824200D02*
X97899999Y-43862295D01*
X97899999Y-43862295D02*
X98090475Y-43862295D01*
X96871428Y-43862295D02*
X97328571Y-43862295D01*
X97099999Y-43862295D02*
X97099999Y-43062295D01*
X97099999Y-43062295D02*
X97176190Y-43176580D01*
X97176190Y-43176580D02*
X97252380Y-43252771D01*
X97252380Y-43252771D02*
X97328571Y-43290866D01*
%TO.C,SC1*%
D11*
X82769600Y-48304400D02*
X113503600Y-48304400D01*
X82769600Y-88944400D02*
X82769600Y-48304400D01*
X113503600Y-48304400D02*
X113503600Y-88944400D01*
X113503600Y-88944400D02*
X82769600Y-88944400D01*
D12*
%TO.C,Annotation4*%
G36*
X75831398Y-49950475D02*
G01*
X75845712Y-49972885D01*
X75895935Y-50055139D01*
X75968641Y-50176838D01*
X76056259Y-50325422D01*
X76353291Y-50831162D01*
X76530282Y-51132060D01*
X76699760Y-51419927D01*
X76856357Y-51686626D01*
X76940080Y-51829581D01*
X77012955Y-51953326D01*
X77182324Y-52241193D01*
X77351658Y-52529060D01*
X77520986Y-52816927D01*
X77616586Y-52979327D01*
X77700095Y-53120102D01*
X77729175Y-53169078D01*
X77752990Y-53209747D01*
X77762155Y-53225643D01*
X77769082Y-53237873D01*
X77773463Y-53245908D01*
X77774603Y-53248187D01*
X77774991Y-53249219D01*
X77487736Y-53251861D01*
X76797094Y-53252959D01*
X75819194Y-53252959D01*
X75819194Y-51597727D01*
X75821059Y-50428760D01*
X75823078Y-50073189D01*
X75825543Y-49942637D01*
X75831398Y-49950475D01*
G37*
G36*
X78973022Y-51624536D02*
G01*
X79076871Y-51684932D01*
X79171989Y-51739939D01*
X79254672Y-51787722D01*
X79328623Y-51830753D01*
X79688456Y-52037994D01*
X79914649Y-52168004D01*
X80048290Y-52245235D01*
X80122242Y-52288272D01*
X80204924Y-52336070D01*
X80403890Y-52450965D01*
X80679057Y-52609457D01*
X80928823Y-52753277D01*
X81119324Y-52863493D01*
X81309824Y-52973773D01*
X81599625Y-53140920D01*
X81640763Y-53164702D01*
X81679010Y-53187021D01*
X81713538Y-53207378D01*
X81743518Y-53225276D01*
X81768124Y-53240217D01*
X81786527Y-53251702D01*
X81797900Y-53259235D01*
X81800692Y-53261363D01*
X81801318Y-53261990D01*
X81801414Y-53262315D01*
X78861169Y-53258225D01*
X78860019Y-53007430D01*
X78860800Y-52408000D01*
X78862956Y-51560300D01*
X78973022Y-51624536D01*
G37*
G36*
X78776082Y-54058001D02*
G01*
X78776557Y-54567849D01*
X78775857Y-54723791D01*
X78775295Y-54766622D01*
X78774598Y-54782067D01*
X78774596Y-54782067D01*
X78773465Y-54784368D01*
X78769661Y-54780986D01*
X78730053Y-54716968D01*
X78354993Y-54078460D01*
X78075596Y-53602780D01*
X77947589Y-53386492D01*
X77945531Y-53383231D01*
X77943531Y-53379974D01*
X77939746Y-53373552D01*
X77936316Y-53367391D01*
X77934760Y-53364460D01*
X77933323Y-53361656D01*
X77932017Y-53359000D01*
X77930852Y-53356512D01*
X77929837Y-53354213D01*
X77928984Y-53352124D01*
X77928302Y-53350265D01*
X77927802Y-53348657D01*
X77927495Y-53347320D01*
X77927390Y-53346275D01*
X77929040Y-53345227D01*
X77933992Y-53344247D01*
X77953804Y-53342489D01*
X78033096Y-53339787D01*
X78165345Y-53338167D01*
X78350630Y-53337627D01*
X78773869Y-53337627D01*
X78776082Y-54058001D01*
G37*
G36*
X80308641Y-53342424D02*
G01*
X81760522Y-53349890D01*
X81760542Y-53350014D01*
X81760404Y-53350226D01*
X81759666Y-53350903D01*
X81756453Y-53353210D01*
X81751124Y-53356661D01*
X81743922Y-53361110D01*
X81724875Y-53372407D01*
X81701255Y-53385919D01*
X81628166Y-53427565D01*
X81538424Y-53479264D01*
X81295007Y-53619908D01*
X81011374Y-53783618D01*
X80712924Y-53955860D01*
X80031357Y-54349155D01*
X79747724Y-54512832D01*
X79370957Y-54730319D01*
X79087324Y-54893452D01*
X79009435Y-54938378D01*
X78944441Y-54976283D01*
X78899137Y-55003177D01*
X78885991Y-55011248D01*
X78880315Y-55015070D01*
X78880313Y-55015070D01*
X78879459Y-55015826D01*
X78878559Y-55016561D01*
X78877622Y-55017271D01*
X78876656Y-55017952D01*
X78875667Y-55018601D01*
X78874664Y-55019213D01*
X78873653Y-55019785D01*
X78872643Y-55020313D01*
X78871641Y-55020793D01*
X78870656Y-55021221D01*
X78869693Y-55021594D01*
X78868761Y-55021908D01*
X78867868Y-55022158D01*
X78867021Y-55022342D01*
X78866228Y-55022455D01*
X78865497Y-55022494D01*
X78862867Y-54955976D01*
X78860713Y-54774863D01*
X78858724Y-54179497D01*
X78858724Y-53336502D01*
X80308641Y-53342424D01*
G37*
G36*
X75866403Y-49835225D02*
G01*
X75868290Y-49835801D01*
X75870726Y-49836725D01*
X75877107Y-49839551D01*
X75885273Y-49843567D01*
X75894954Y-49848634D01*
X75905880Y-49854614D01*
X75917780Y-49861370D01*
X75930384Y-49868765D01*
X76010499Y-49915739D01*
X76115526Y-49976468D01*
X76224614Y-50039321D01*
X76314493Y-50091400D01*
X76746293Y-50340488D01*
X77186560Y-50594399D01*
X77546393Y-50801926D01*
X77877245Y-50992449D01*
X78067092Y-51102380D01*
X78738075Y-51488870D01*
X78774058Y-51509540D01*
X78774058Y-53264162D01*
X78505977Y-53258561D01*
X78262444Y-53254606D01*
X78053384Y-53252960D01*
X77868871Y-53252960D01*
X77833213Y-53191577D01*
X77573649Y-52749193D01*
X77247790Y-52194626D01*
X77080799Y-51910993D01*
X76742178Y-51335260D01*
X76572687Y-51047394D01*
X76416090Y-50780694D01*
X76332368Y-50637739D01*
X76259493Y-50513994D01*
X76090140Y-50226127D01*
X75998168Y-50069780D01*
X75923370Y-49943560D01*
X75910875Y-49922441D01*
X75899361Y-49902596D01*
X75889068Y-49884471D01*
X75880240Y-49868510D01*
X75873118Y-49855156D01*
X75867944Y-49844856D01*
X75866163Y-49840989D01*
X75864959Y-49838052D01*
X75864363Y-49836101D01*
X75864303Y-49835512D01*
X75864406Y-49835190D01*
X75864672Y-49835054D01*
X75865096Y-49835016D01*
X75866403Y-49835225D01*
G37*
G36*
X76879497Y-53334629D02*
G01*
X77829864Y-53341860D01*
X77906715Y-53473093D01*
X78088233Y-53782126D01*
X78426888Y-54357860D01*
X78596270Y-54645727D01*
X78685789Y-54798034D01*
X78753872Y-54914544D01*
X78753873Y-54914544D01*
X78753874Y-54914544D01*
X78753875Y-54914544D01*
X78753875Y-54914545D01*
X78764340Y-54932828D01*
X78773820Y-54949884D01*
X78782129Y-54965341D01*
X78789079Y-54978825D01*
X78791987Y-54984710D01*
X78794484Y-54989962D01*
X78796548Y-54994534D01*
X78798155Y-54998379D01*
X78799282Y-55001451D01*
X78799905Y-55003703D01*
X78800021Y-55004507D01*
X78800002Y-55005089D01*
X78799845Y-55005442D01*
X78799548Y-55005561D01*
X78794340Y-55003382D01*
X78782188Y-54997137D01*
X78740201Y-54974201D01*
X78679888Y-54940255D01*
X78607549Y-54898803D01*
X78333794Y-54740729D01*
X78177162Y-54650007D01*
X77707261Y-54379118D01*
X77457495Y-54235244D01*
X77266994Y-54125027D01*
X77076494Y-54014801D01*
X76720894Y-53809577D01*
X76306028Y-53570235D01*
X76031679Y-53412583D01*
X76015334Y-53403199D01*
X76000265Y-53394447D01*
X75986457Y-53386317D01*
X75973896Y-53378799D01*
X75962567Y-53371883D01*
X75952457Y-53365559D01*
X75943550Y-53359819D01*
X75935833Y-53354651D01*
X75929291Y-53350045D01*
X75923910Y-53345993D01*
X75921651Y-53344172D01*
X75919676Y-53342485D01*
X75917984Y-53340931D01*
X75916573Y-53339509D01*
X75915442Y-53338219D01*
X75914588Y-53337058D01*
X75914011Y-53336025D01*
X75913707Y-53335119D01*
X75913676Y-53334340D01*
X75913761Y-53333997D01*
X75913915Y-53333685D01*
X75914422Y-53333154D01*
X75915197Y-53332745D01*
X75995597Y-53331239D01*
X76204207Y-53331093D01*
X76879497Y-53334629D01*
G37*
G36*
X81872858Y-49774816D02*
G01*
X81872858Y-51400453D01*
X81872858Y-51527999D01*
X81872857Y-51527999D01*
X81871968Y-52765148D01*
X81869828Y-53277655D01*
X81625435Y-52850793D01*
X80598234Y-51049789D01*
X80412521Y-50725090D01*
X80362544Y-50639158D01*
X80360126Y-50639205D01*
X80353116Y-50642213D01*
X80315253Y-50662782D01*
X80073691Y-50801806D01*
X79773124Y-50975347D01*
X79044991Y-51396422D01*
X78954252Y-51448587D01*
X78914320Y-51471196D01*
X78879309Y-51490769D01*
X78850191Y-51506769D01*
X78827940Y-51518654D01*
X78813527Y-51525887D01*
X78809563Y-51527589D01*
X78808446Y-51527933D01*
X78807924Y-51527926D01*
X78803691Y-51276281D01*
X78799457Y-50676275D01*
X78799117Y-50608198D01*
X78876592Y-50608198D01*
X78877930Y-50909305D01*
X78879774Y-51157095D01*
X78881880Y-51325914D01*
X78882956Y-51372692D01*
X78884006Y-51390105D01*
X78884333Y-51390476D01*
X78884798Y-51390759D01*
X78886124Y-51391067D01*
X78887954Y-51391040D01*
X78890258Y-51390693D01*
X78893005Y-51390036D01*
X78896165Y-51389083D01*
X78899706Y-51387845D01*
X78903598Y-51386336D01*
X78912313Y-51382550D01*
X78922067Y-51377826D01*
X78932612Y-51372261D01*
X78943706Y-51365955D01*
X79561457Y-51009229D01*
X80223845Y-50626346D01*
X80275715Y-50595875D01*
X80437945Y-50595875D01*
X80437952Y-50598109D01*
X80438525Y-50601218D01*
X80439646Y-50605167D01*
X80441302Y-50609926D01*
X80443477Y-50615460D01*
X80449323Y-50628724D01*
X80457064Y-50644700D01*
X80466576Y-50663125D01*
X80477739Y-50683737D01*
X80490431Y-50706275D01*
X80996653Y-51593493D01*
X81612349Y-52672993D01*
X81612350Y-52672993D01*
X81678607Y-52788689D01*
X81734009Y-52884641D01*
X81772756Y-52950864D01*
X81784073Y-52969706D01*
X81789053Y-52977370D01*
X81792138Y-52864802D01*
X81794542Y-52542212D01*
X81796658Y-51400453D01*
X81794531Y-50280235D01*
X81792226Y-49940242D01*
X81790866Y-49847751D01*
X81789406Y-49815494D01*
X81788299Y-49815707D01*
X81786499Y-49816331D01*
X81780983Y-49818730D01*
X81773180Y-49822524D01*
X81763410Y-49827543D01*
X81751995Y-49833619D01*
X81739255Y-49840585D01*
X81725960Y-49848104D01*
X81711090Y-49856512D01*
X81441058Y-50012236D01*
X80698811Y-50441252D01*
X80506702Y-50553362D01*
X80482098Y-50567979D01*
X80456905Y-50582945D01*
X80438517Y-50594547D01*
X80438158Y-50595096D01*
X80437945Y-50595875D01*
X80275715Y-50595875D01*
X80323201Y-50567979D01*
X80298041Y-50524053D01*
X80089090Y-50157599D01*
X79908130Y-49840038D01*
X80001725Y-49840038D01*
X80005656Y-49849021D01*
X80016923Y-49870735D01*
X80058306Y-49946644D01*
X80119552Y-50056336D01*
X80194341Y-50188380D01*
X80194341Y-50188379D01*
X80233207Y-50256261D01*
X80269799Y-50319573D01*
X80303293Y-50376930D01*
X80332864Y-50426948D01*
X80357688Y-50468242D01*
X80376939Y-50499427D01*
X80389793Y-50519117D01*
X80393563Y-50524219D01*
X80394739Y-50525509D01*
X80395425Y-50525929D01*
X80396485Y-50525765D01*
X80397903Y-50525368D01*
X80399656Y-50524748D01*
X80401719Y-50523919D01*
X80406680Y-50521682D01*
X80412596Y-50518754D01*
X80419277Y-50515232D01*
X80426530Y-50511215D01*
X80434166Y-50506800D01*
X80441992Y-50502085D01*
X80463800Y-50488945D01*
X80495014Y-50470491D01*
X80568991Y-50427433D01*
X80954225Y-50204810D01*
X81203991Y-50060938D01*
X81305923Y-50002314D01*
X81386879Y-49955564D01*
X81449136Y-49919324D01*
X81473963Y-49904720D01*
X81494969Y-49892232D01*
X81512438Y-49881691D01*
X81526655Y-49872927D01*
X81537905Y-49865768D01*
X81546471Y-49860045D01*
X81552638Y-49855587D01*
X81554911Y-49853780D01*
X81556691Y-49852225D01*
X81558013Y-49850901D01*
X81558914Y-49849787D01*
X81559428Y-49848861D01*
X81559591Y-49848104D01*
X81557798Y-49847369D01*
X81552535Y-49846655D01*
X81532310Y-49845304D01*
X81458030Y-49843011D01*
X81348095Y-49841462D01*
X81213850Y-49840894D01*
X80842421Y-49839243D01*
X80434917Y-49835276D01*
X80318856Y-49833884D01*
X80224043Y-49833020D01*
X80148699Y-49832705D01*
X80091043Y-49832957D01*
X80068293Y-49833303D01*
X80049297Y-49833797D01*
X80033835Y-49834444D01*
X80021682Y-49835244D01*
X80012617Y-49836202D01*
X80006418Y-49837318D01*
X80004323Y-49837937D01*
X80002861Y-49838596D01*
X80002004Y-49839296D01*
X80001725Y-49840038D01*
X79908130Y-49840038D01*
X79905298Y-49835069D01*
X79397152Y-49830123D01*
X79199263Y-49828563D01*
X79036094Y-49827976D01*
X78924562Y-49828372D01*
X78893446Y-49828942D01*
X78881584Y-49829763D01*
X78878842Y-49891005D01*
X78877002Y-50056000D01*
X78876594Y-50608198D01*
X78876592Y-50608198D01*
X78799117Y-50608198D01*
X78795225Y-49828194D01*
X78219491Y-49822417D01*
X76739286Y-49810795D01*
X76388650Y-49808007D01*
X76102561Y-49804736D01*
X75910468Y-49801389D01*
X75858873Y-49799815D01*
X75841820Y-49798374D01*
X75963660Y-49724280D01*
X75970860Y-49719984D01*
X76125314Y-49719984D01*
X76128827Y-49721332D01*
X76147636Y-49723753D01*
X76240891Y-49727723D01*
X76424529Y-49730949D01*
X76717990Y-49733936D01*
X76717989Y-49733937D01*
X78255084Y-49745209D01*
X78653928Y-49746329D01*
X78756112Y-49745736D01*
X78791636Y-49744365D01*
X78792692Y-48942787D01*
X78787947Y-48303044D01*
X78868625Y-48303044D01*
X78868907Y-48887751D01*
X78869220Y-48942787D01*
X78872242Y-49474009D01*
X78877652Y-49744110D01*
X78922339Y-49747224D01*
X79034771Y-49750012D01*
X79371784Y-49753969D01*
X79706526Y-49754709D01*
X79816119Y-49753474D01*
X79856831Y-49750957D01*
X79361392Y-48881187D01*
X78981892Y-48226510D01*
X79081753Y-48226510D01*
X79188993Y-48421007D01*
X79439067Y-48864133D01*
X79907664Y-49684260D01*
X79946873Y-49750957D01*
X79947482Y-49751994D01*
X80294221Y-49757173D01*
X80294220Y-49757173D01*
X80677831Y-49760986D01*
X81141066Y-49763345D01*
X81531087Y-49763754D01*
X81695057Y-49761717D01*
X81694541Y-49761114D01*
X81693027Y-49759939D01*
X81687207Y-49755997D01*
X81665834Y-49742621D01*
X81634201Y-49723587D01*
X81595574Y-49700890D01*
X81343691Y-49553039D01*
X81013490Y-49358488D01*
X80725623Y-49188827D01*
X80437757Y-49019416D01*
X80128724Y-48837454D01*
X79819690Y-48655560D01*
X79510657Y-48473602D01*
X79385924Y-48399775D01*
X79287746Y-48341808D01*
X79213005Y-48297905D01*
X79158584Y-48266272D01*
X79138019Y-48254495D01*
X79121365Y-48245111D01*
X79108233Y-48237897D01*
X79098232Y-48232628D01*
X79090973Y-48229079D01*
X79086067Y-48227026D01*
X79084374Y-48226490D01*
X79083123Y-48226245D01*
X79082266Y-48226260D01*
X79081753Y-48226510D01*
X78981892Y-48226510D01*
X78872381Y-48037593D01*
X78868625Y-48303044D01*
X78787947Y-48303044D01*
X78786743Y-48140783D01*
X78783185Y-48141373D01*
X78771724Y-48147007D01*
X78708463Y-48183125D01*
X78304156Y-48422799D01*
X77647990Y-48812357D01*
X76970657Y-49214316D01*
X76377990Y-49565704D01*
X76283401Y-49621880D01*
X76204234Y-49669420D01*
X76148777Y-49703310D01*
X76132532Y-49713569D01*
X76125323Y-49718535D01*
X76125314Y-49719984D01*
X75970860Y-49719984D01*
X76246758Y-49555373D01*
X77741124Y-48668217D01*
X78583441Y-48168090D01*
X78773633Y-48054395D01*
X78841472Y-48012773D01*
X78845058Y-48010267D01*
X78848282Y-48008112D01*
X78851218Y-48006320D01*
X78853939Y-48004902D01*
X78855242Y-48004336D01*
X78856518Y-48003869D01*
X78857777Y-48003500D01*
X78859028Y-48003232D01*
X78860281Y-48003066D01*
X78861544Y-48003003D01*
X78862826Y-48003044D01*
X78864137Y-48003191D01*
X78865486Y-48003446D01*
X78866883Y-48003810D01*
X78868335Y-48004283D01*
X78869853Y-48004869D01*
X78873121Y-48006379D01*
X78876761Y-48008352D01*
X78880847Y-48010799D01*
X78885450Y-48013731D01*
X78896505Y-48021094D01*
X78925479Y-48039230D01*
X78979096Y-48071572D01*
X79129658Y-48160565D01*
X79438692Y-48342198D01*
X79726559Y-48511627D01*
X80014426Y-48680931D01*
X80323459Y-48862994D01*
X80632492Y-49045057D01*
X80920359Y-49214367D01*
X81229392Y-49396319D01*
X81760675Y-49709111D01*
X81850494Y-49761717D01*
X81872858Y-49774816D01*
G37*
%TO.C,Annotation3*%
G36*
X79996199Y-76206579D02*
G01*
X79996199Y-76682791D01*
X79963459Y-76682791D01*
X79930720Y-76682791D01*
X79930720Y-76206579D01*
X79930720Y-75730366D01*
X79963459Y-75730366D01*
X79996199Y-75730366D01*
X79996199Y-76206579D01*
G37*
G36*
X80841477Y-75394040D02*
G01*
X80841477Y-75432733D01*
X80028939Y-75432733D01*
X79216400Y-75432733D01*
X79216400Y-75394040D01*
X79216400Y-75355348D01*
X80028939Y-75355348D01*
X80841477Y-75355348D01*
X80841477Y-75394040D01*
G37*
G36*
X80384817Y-70641353D02*
G01*
X80385431Y-70646610D01*
X80386235Y-70683847D01*
X80382410Y-70727787D01*
X80374504Y-70775023D01*
X80363068Y-70822142D01*
X80348652Y-70865736D01*
X80335796Y-70894590D01*
X80308688Y-70941626D01*
X80274763Y-70989152D01*
X80236090Y-71034795D01*
X80194739Y-71076183D01*
X80152777Y-71110945D01*
X80112276Y-71136709D01*
X80088465Y-71149183D01*
X80106323Y-71153249D01*
X80107746Y-71153515D01*
X80121209Y-71154768D01*
X80144038Y-71155917D01*
X80174132Y-71156888D01*
X80209386Y-71157613D01*
X80247699Y-71158019D01*
X80371216Y-71158723D01*
X80371216Y-71194439D01*
X80371216Y-71230155D01*
X79793808Y-71230155D01*
X79216400Y-71230155D01*
X79216400Y-71191463D01*
X79216400Y-71152770D01*
X79570771Y-71152770D01*
X79635661Y-71152761D01*
X79700086Y-71152710D01*
X79754449Y-71152585D01*
X79799736Y-71152356D01*
X79836931Y-71151993D01*
X79867022Y-71151463D01*
X79890995Y-71150736D01*
X79909835Y-71149781D01*
X79924528Y-71148567D01*
X79936061Y-71147063D01*
X79945419Y-71145238D01*
X79953590Y-71143062D01*
X79961558Y-71140503D01*
X80011501Y-71120788D01*
X80077217Y-71085264D01*
X80136986Y-71041532D01*
X80189669Y-70990733D01*
X80234128Y-70934009D01*
X80269224Y-70872502D01*
X80293819Y-70807353D01*
X80298978Y-70785968D01*
X80305852Y-70741682D01*
X80309955Y-70689951D01*
X80313422Y-70617031D01*
X80347488Y-70617031D01*
X80381554Y-70617031D01*
X80384817Y-70641353D01*
G37*
G36*
X80370950Y-72474751D02*
G01*
X80371216Y-72525838D01*
X79989316Y-72974774D01*
X79607415Y-73423710D01*
X80224446Y-73425226D01*
X80841477Y-73426742D01*
X80841477Y-73462430D01*
X80841477Y-73498118D01*
X80028939Y-73498118D01*
X79216400Y-73498118D01*
X79216400Y-73462402D01*
X79216400Y-73426686D01*
X79363729Y-73426649D01*
X79511057Y-73426611D01*
X79665826Y-73245733D01*
X79677142Y-73232488D01*
X79710245Y-73193495D01*
X79740521Y-73157470D01*
X79767145Y-73125420D01*
X79789290Y-73098352D01*
X79806131Y-73077273D01*
X79816842Y-73063189D01*
X79820595Y-73057108D01*
X79819475Y-73055472D01*
X79810828Y-73046719D01*
X79794256Y-73031202D01*
X79770500Y-73009576D01*
X79740299Y-72982502D01*
X79704392Y-72950635D01*
X79663518Y-72914635D01*
X79618419Y-72875159D01*
X79569832Y-72832864D01*
X79518498Y-72788410D01*
X79216400Y-72527459D01*
X79216400Y-72480025D01*
X79216431Y-72473458D01*
X79216986Y-72452636D01*
X79218095Y-72438074D01*
X79219569Y-72432592D01*
X79223431Y-72435552D01*
X79235639Y-72445734D01*
X79255480Y-72462579D01*
X79282237Y-72485472D01*
X79315196Y-72513796D01*
X79353641Y-72546936D01*
X79396859Y-72584276D01*
X79444133Y-72625201D01*
X79494748Y-72669096D01*
X79547991Y-72715343D01*
X79594987Y-72756164D01*
X79645964Y-72800360D01*
X79693692Y-72841654D01*
X79737454Y-72879429D01*
X79776536Y-72913071D01*
X79810221Y-72941966D01*
X79837794Y-72965498D01*
X79858539Y-72983052D01*
X79871741Y-72994013D01*
X79876683Y-72997767D01*
X79879233Y-72995280D01*
X79888871Y-72984599D01*
X79904991Y-72966245D01*
X79926893Y-72941028D01*
X79953881Y-72909756D01*
X79985256Y-72873240D01*
X80020320Y-72832288D01*
X80058375Y-72787710D01*
X80098723Y-72740315D01*
X80124971Y-72709453D01*
X80165306Y-72662072D01*
X80203541Y-72617212D01*
X80238875Y-72575809D01*
X80270507Y-72538799D01*
X80297636Y-72507120D01*
X80319463Y-72481707D01*
X80335185Y-72463497D01*
X80344004Y-72453426D01*
X80370683Y-72423663D01*
X80370950Y-72474751D01*
G37*
G36*
X79263565Y-71537218D02*
G01*
X79275849Y-71538998D01*
X79287789Y-71541998D01*
X79291893Y-71546458D01*
X79290652Y-71553917D01*
X79286824Y-71565865D01*
X79275196Y-71606125D01*
X79267741Y-71641083D01*
X79263689Y-71675046D01*
X79262267Y-71712320D01*
X79262372Y-71728935D01*
X79266995Y-71780761D01*
X79278785Y-71823793D01*
X79298467Y-71859077D01*
X79326765Y-71887659D01*
X79364404Y-71910587D01*
X79412107Y-71928908D01*
X79412608Y-71929063D01*
X79420532Y-71931375D01*
X79428802Y-71933377D01*
X79438305Y-71935097D01*
X79449932Y-71936560D01*
X79464572Y-71937795D01*
X79483114Y-71938827D01*
X79506448Y-71939684D01*
X79535462Y-71940392D01*
X79571045Y-71940980D01*
X79614088Y-71941473D01*
X79665479Y-71941898D01*
X79726107Y-71942283D01*
X79796863Y-71942654D01*
X79878634Y-71943038D01*
X80305737Y-71944990D01*
X80305737Y-71742341D01*
X80305737Y-71539693D01*
X80338477Y-71539693D01*
X80371216Y-71539693D01*
X80371216Y-71742084D01*
X80371216Y-71944474D01*
X80534915Y-71944474D01*
X80698613Y-71944474D01*
X80698613Y-71976450D01*
X80698613Y-72008425D01*
X80622716Y-72012108D01*
X80622318Y-72012127D01*
X80585932Y-72013859D01*
X80543040Y-72015848D01*
X80498962Y-72017852D01*
X80459018Y-72019625D01*
X80371216Y-72023460D01*
X80371216Y-72126831D01*
X80371216Y-72230202D01*
X80338477Y-72230202D01*
X80305737Y-72230202D01*
X80305737Y-72126288D01*
X80305737Y-72022374D01*
X79878634Y-72020283D01*
X79842102Y-72020104D01*
X79761219Y-72019684D01*
X79690961Y-72019233D01*
X79630422Y-72018686D01*
X79578695Y-72017978D01*
X79534874Y-72017042D01*
X79498050Y-72015815D01*
X79467318Y-72014230D01*
X79441770Y-72012221D01*
X79420500Y-72009724D01*
X79402601Y-72006672D01*
X79387166Y-72003000D01*
X79373288Y-71998644D01*
X79360061Y-71993536D01*
X79346577Y-71987613D01*
X79331929Y-71980807D01*
X79288371Y-71955115D01*
X79250450Y-71919977D01*
X79221270Y-71876773D01*
X79200762Y-71825421D01*
X79199416Y-71820115D01*
X79195792Y-71794403D01*
X79194058Y-71760955D01*
X79194098Y-71722905D01*
X79195795Y-71683385D01*
X79199032Y-71645524D01*
X79203692Y-71612457D01*
X79209657Y-71587314D01*
X79213661Y-71575104D01*
X79221112Y-71554240D01*
X79227770Y-71541933D01*
X79235692Y-71536269D01*
X79246938Y-71535335D01*
X79263565Y-71537218D01*
G37*
G36*
X80725296Y-80168156D02*
G01*
X80757476Y-80176426D01*
X80799087Y-80193264D01*
X80837009Y-80217437D01*
X80874876Y-80250955D01*
X80900031Y-80278279D01*
X80932717Y-80324951D01*
X80955231Y-80375278D01*
X80968246Y-80430933D01*
X80972435Y-80493590D01*
X80971644Y-80521245D01*
X80963021Y-80583539D01*
X80944629Y-80639611D01*
X80916128Y-80690326D01*
X80877179Y-80736553D01*
X80869609Y-80743962D01*
X80831614Y-80775923D01*
X80792525Y-80799160D01*
X80749914Y-80814604D01*
X80701353Y-80823188D01*
X80648198Y-80825667D01*
X80644415Y-80825843D01*
X80608752Y-80824688D01*
X80556493Y-80817313D01*
X80510284Y-80802298D01*
X80467529Y-80778689D01*
X80425632Y-80745534D01*
X80422336Y-80742487D01*
X80391726Y-80707497D01*
X80364632Y-80664960D01*
X80343223Y-80618779D01*
X80329666Y-80572855D01*
X80329536Y-80572196D01*
X80325963Y-80543163D01*
X80324559Y-80507229D01*
X80324756Y-80496252D01*
X80360229Y-80496252D01*
X80363037Y-80531186D01*
X80369177Y-80561516D01*
X80374968Y-80587201D01*
X80380249Y-80606257D01*
X80385786Y-80621403D01*
X80392343Y-80635358D01*
X80403808Y-80655143D01*
X80435640Y-80695319D01*
X80474896Y-80730150D01*
X80518882Y-80757455D01*
X80564905Y-80775054D01*
X80597230Y-80781307D01*
X80648198Y-80784132D01*
X80699902Y-80779708D01*
X80748683Y-80768427D01*
X80790879Y-80750685D01*
X80811861Y-80736854D01*
X80838470Y-80714743D01*
X80864390Y-80689194D01*
X80886438Y-80663378D01*
X80901432Y-80640469D01*
X80918842Y-80598946D01*
X80932018Y-80543167D01*
X80935124Y-80486281D01*
X80928414Y-80430114D01*
X80912141Y-80376489D01*
X80886559Y-80327232D01*
X80851921Y-80284166D01*
X80851035Y-80283278D01*
X80809806Y-80250281D01*
X80762119Y-80225823D01*
X80710019Y-80210158D01*
X80655551Y-80203539D01*
X80600761Y-80206218D01*
X80547695Y-80218448D01*
X80498398Y-80240482D01*
X80464673Y-80264716D01*
X80429573Y-80301148D01*
X80400109Y-80344152D01*
X80378118Y-80390990D01*
X80365435Y-80438920D01*
X80363590Y-80451743D01*
X80360229Y-80496252D01*
X80324756Y-80496252D01*
X80325243Y-80469055D01*
X80327936Y-80433302D01*
X80332557Y-80404631D01*
X80348785Y-80355108D01*
X80376820Y-80303756D01*
X80416022Y-80255093D01*
X80438750Y-80233250D01*
X80486884Y-80199020D01*
X80540259Y-80175212D01*
X80598221Y-80162009D01*
X80660118Y-80159596D01*
X80725296Y-80168156D01*
G37*
G36*
X80705222Y-80972230D02*
G01*
X80739727Y-80977872D01*
X80774668Y-80988376D01*
X80827243Y-81013713D01*
X80873651Y-81048288D01*
X80912682Y-81090924D01*
X80943131Y-81140449D01*
X80963787Y-81195687D01*
X80966131Y-81205821D01*
X80970835Y-81242105D01*
X80971969Y-81282900D01*
X80969540Y-81323064D01*
X80963556Y-81357455D01*
X80960233Y-81369104D01*
X80941667Y-81415463D01*
X80916078Y-81459617D01*
X80885567Y-81498339D01*
X80852234Y-81528404D01*
X80827785Y-81546115D01*
X80853977Y-81546157D01*
X80869568Y-81546563D01*
X80894757Y-81547957D01*
X80920349Y-81549994D01*
X80930406Y-81550966D01*
X80947530Y-81553193D01*
X80956505Y-81556332D01*
X80959962Y-81561742D01*
X80960530Y-81570786D01*
X80960530Y-81587783D01*
X80549419Y-81587783D01*
X80510169Y-81587783D01*
X80138308Y-81587783D01*
X80140174Y-81568437D01*
X80142039Y-81549091D01*
X80292369Y-81547500D01*
X80442698Y-81545910D01*
X80410924Y-81513623D01*
X80401398Y-81503410D01*
X80368557Y-81457820D01*
X80344094Y-81405623D01*
X80328886Y-81349064D01*
X80323995Y-81292558D01*
X80360988Y-81292558D01*
X80365821Y-81348750D01*
X80380903Y-81401729D01*
X80405709Y-81450127D01*
X80439713Y-81492578D01*
X80482390Y-81527715D01*
X80510169Y-81546115D01*
X80635642Y-81546059D01*
X80761116Y-81546003D01*
X80792351Y-81528090D01*
X80819222Y-81510351D01*
X80859643Y-81473479D01*
X80893060Y-81429553D01*
X80917838Y-81380889D01*
X80932346Y-81329800D01*
X80935402Y-81303884D01*
X80933620Y-81251143D01*
X80921923Y-81199615D01*
X80901218Y-81151180D01*
X80872414Y-81107720D01*
X80836418Y-81071119D01*
X80794138Y-81043258D01*
X80759397Y-81028837D01*
X80707677Y-81016229D01*
X80653056Y-81011453D01*
X80598507Y-81014503D01*
X80547004Y-81025370D01*
X80501521Y-81044045D01*
X80489764Y-81051275D01*
X80462039Y-81073363D01*
X80434215Y-81101233D01*
X80409583Y-81131408D01*
X80391433Y-81160410D01*
X80384312Y-81176580D01*
X80374906Y-81203482D01*
X80367884Y-81229843D01*
X80366929Y-81234520D01*
X80360988Y-81292558D01*
X80323995Y-81292558D01*
X80323807Y-81290388D01*
X80323894Y-81283793D01*
X80330472Y-81221298D01*
X80346942Y-81163429D01*
X80372586Y-81111167D01*
X80406686Y-81065494D01*
X80448523Y-81027391D01*
X80497379Y-80997841D01*
X80552535Y-80977824D01*
X80583151Y-80972416D01*
X80622471Y-80969501D01*
X80664649Y-80969439D01*
X80705222Y-80972230D01*
G37*
G36*
X79607788Y-67803240D02*
G01*
X79647233Y-67803529D01*
X79724736Y-67804144D01*
X79791760Y-67804798D01*
X79849281Y-67805562D01*
X79898274Y-67806507D01*
X79939718Y-67807704D01*
X79974587Y-67809224D01*
X80003858Y-67811138D01*
X80028508Y-67813517D01*
X80049513Y-67816433D01*
X80067849Y-67819956D01*
X80084492Y-67824157D01*
X80100420Y-67829108D01*
X80116608Y-67834879D01*
X80134032Y-67841543D01*
X80138452Y-67843289D01*
X80198727Y-67873750D01*
X80252167Y-67913614D01*
X80298215Y-67962193D01*
X80336313Y-68018796D01*
X80365902Y-68082734D01*
X80386425Y-68153318D01*
X80389241Y-68168763D01*
X80393655Y-68209452D01*
X80395561Y-68255621D01*
X80394962Y-68303029D01*
X80391861Y-68347434D01*
X80386263Y-68384593D01*
X80369918Y-68445846D01*
X80339589Y-68522720D01*
X80299960Y-68594544D01*
X80251920Y-68659975D01*
X80196356Y-68717669D01*
X80134156Y-68766281D01*
X80090444Y-68795517D01*
X80149528Y-68795517D01*
X80177235Y-68795796D01*
X80213884Y-68796628D01*
X80253056Y-68797879D01*
X80289914Y-68799416D01*
X80371216Y-68803315D01*
X80371216Y-68835132D01*
X80371216Y-68866949D01*
X79793808Y-68866949D01*
X79216400Y-68866949D01*
X79216400Y-68831233D01*
X79216400Y-68795517D01*
X79578581Y-68795517D01*
X79620448Y-68795512D01*
X79689546Y-68795467D01*
X79748219Y-68795352D01*
X79797427Y-68795140D01*
X79838132Y-68794805D01*
X79871297Y-68794317D01*
X79897882Y-68793652D01*
X79918850Y-68792781D01*
X79935161Y-68791678D01*
X79947778Y-68790315D01*
X79957662Y-68788666D01*
X79965775Y-68786702D01*
X79973078Y-68784398D01*
X80034915Y-68757626D01*
X80096674Y-68719849D01*
X80154785Y-68673161D01*
X80207367Y-68619079D01*
X80252538Y-68559120D01*
X80256704Y-68552621D01*
X80288623Y-68491367D01*
X80311581Y-68424758D01*
X80325433Y-68354805D01*
X80330034Y-68283521D01*
X80325240Y-68212917D01*
X80310905Y-68145005D01*
X80286886Y-68081798D01*
X80259231Y-68034116D01*
X80219584Y-67987238D01*
X80171358Y-67948562D01*
X80114489Y-67918038D01*
X80048916Y-67895618D01*
X80042564Y-67893974D01*
X80032569Y-67891595D01*
X80022185Y-67889559D01*
X80010452Y-67887834D01*
X79996409Y-67886385D01*
X79979098Y-67885181D01*
X79957559Y-67884187D01*
X79930832Y-67883370D01*
X79897958Y-67882697D01*
X79857976Y-67882134D01*
X79809928Y-67881649D01*
X79752854Y-67881208D01*
X79685794Y-67880778D01*
X79607788Y-67880326D01*
X79216400Y-67878108D01*
X79216400Y-67839254D01*
X79216400Y-67800400D01*
X79607788Y-67803240D01*
G37*
G36*
X79238580Y-76875450D02*
G01*
X79253189Y-76877362D01*
X79269760Y-76880356D01*
X79283872Y-76883651D01*
X79291099Y-76886464D01*
X79291061Y-76891366D01*
X79287910Y-76904729D01*
X79282155Y-76923075D01*
X79277879Y-76936728D01*
X79269077Y-76974526D01*
X79262979Y-77015200D01*
X79260178Y-77054116D01*
X79261265Y-77086636D01*
X79266612Y-77120612D01*
X79279523Y-77164418D01*
X79298894Y-77199693D01*
X79325537Y-77227775D01*
X79360264Y-77250007D01*
X79360288Y-77250019D01*
X79373501Y-77256597D01*
X79385957Y-77262317D01*
X79398560Y-77267244D01*
X79412216Y-77271444D01*
X79427829Y-77274983D01*
X79446302Y-77277925D01*
X79468541Y-77280336D01*
X79495450Y-77282281D01*
X79527933Y-77283827D01*
X79566895Y-77285038D01*
X79613240Y-77285980D01*
X79667873Y-77286717D01*
X79731697Y-77287317D01*
X79805618Y-77287843D01*
X79890539Y-77288362D01*
X80305737Y-77290819D01*
X80305737Y-77088001D01*
X80305737Y-76885182D01*
X80338477Y-76885182D01*
X80371216Y-76885182D01*
X80371216Y-77087572D01*
X80371216Y-77289963D01*
X80534915Y-77289963D01*
X80698613Y-77289963D01*
X80698613Y-77319726D01*
X80698514Y-77330398D01*
X80697975Y-77344356D01*
X80697125Y-77350065D01*
X80697104Y-77350070D01*
X80690633Y-77350481D01*
X80673870Y-77351319D01*
X80648366Y-77352511D01*
X80615672Y-77353987D01*
X80577338Y-77355675D01*
X80534915Y-77357506D01*
X80374193Y-77364371D01*
X80372564Y-77467054D01*
X80370935Y-77569738D01*
X80338336Y-77569738D01*
X80305737Y-77569738D01*
X80305737Y-77469059D01*
X80305737Y-77368381D01*
X79890539Y-77365529D01*
X79863094Y-77365337D01*
X79782628Y-77364717D01*
X79712950Y-77364075D01*
X79653208Y-77363388D01*
X79602549Y-77362635D01*
X79560121Y-77361794D01*
X79525072Y-77360843D01*
X79496551Y-77359759D01*
X79473705Y-77358521D01*
X79455681Y-77357107D01*
X79441629Y-77355494D01*
X79430696Y-77353661D01*
X79406293Y-77348207D01*
X79349648Y-77330323D01*
X79302659Y-77306808D01*
X79264482Y-77277178D01*
X79234274Y-77240949D01*
X79233102Y-77239190D01*
X79221604Y-77221456D01*
X79213395Y-77207953D01*
X79210185Y-77201483D01*
X79209483Y-77198003D01*
X79206239Y-77185495D01*
X79201300Y-77167933D01*
X79201189Y-77167547D01*
X79197353Y-77149120D01*
X79195090Y-77125079D01*
X79194285Y-77093351D01*
X79194821Y-77051856D01*
X79195109Y-77040968D01*
X79196403Y-77007049D01*
X79198359Y-76981197D01*
X79201381Y-76960385D01*
X79205876Y-76941587D01*
X79212249Y-76921780D01*
X79213955Y-76916923D01*
X79221265Y-76896738D01*
X79226953Y-76882009D01*
X79229908Y-76875642D01*
X79230358Y-76875403D01*
X79238580Y-76875450D01*
G37*
G36*
X79467720Y-79165949D02*
G01*
X79474179Y-79172296D01*
X79481139Y-79182664D01*
X79485768Y-79190244D01*
X79493231Y-79203882D01*
X79496175Y-79211550D01*
X79494152Y-79214864D01*
X79484909Y-79225012D01*
X79469892Y-79239766D01*
X79450993Y-79257215D01*
X79401194Y-79307174D01*
X79350913Y-79372337D01*
X79311196Y-79442860D01*
X79282182Y-79518492D01*
X79264009Y-79598979D01*
X79261670Y-79618460D01*
X79259435Y-79659732D01*
X79259582Y-79705659D01*
X79261954Y-79752133D01*
X79266396Y-79795046D01*
X79272754Y-79830293D01*
X79284939Y-79873544D01*
X79314437Y-79947265D01*
X79352932Y-80014598D01*
X79399689Y-80074776D01*
X79453975Y-80127035D01*
X79515055Y-80170606D01*
X79582194Y-80204726D01*
X79654657Y-80228626D01*
X79679051Y-80233198D01*
X79717504Y-80237201D01*
X79761603Y-80239296D01*
X79807957Y-80239484D01*
X79853172Y-80237763D01*
X79893856Y-80234136D01*
X79926615Y-80228602D01*
X79984539Y-80212010D01*
X80049866Y-80184129D01*
X80109325Y-80147246D01*
X80165025Y-80100228D01*
X80204649Y-80058156D01*
X80250938Y-79994795D01*
X80286755Y-79925871D01*
X80312294Y-79851056D01*
X80317315Y-79828713D01*
X80324270Y-79780302D01*
X80327989Y-79726624D01*
X80328376Y-79671739D01*
X80325335Y-79619705D01*
X80318773Y-79574581D01*
X80318305Y-79572349D01*
X80300120Y-79506838D01*
X80274458Y-79444096D01*
X80243032Y-79388336D01*
X80242612Y-79387704D01*
X80223475Y-79362217D01*
X80197878Y-79332495D01*
X80168663Y-79301547D01*
X80138667Y-79272387D01*
X80110730Y-79248025D01*
X80085374Y-79227553D01*
X80101801Y-79202298D01*
X80107952Y-79193296D01*
X80117186Y-79181596D01*
X80122744Y-79176999D01*
X80125182Y-79177762D01*
X80135498Y-79183604D01*
X80149767Y-79193326D01*
X80188715Y-79223953D01*
X80248995Y-79282695D01*
X80299414Y-79347915D01*
X80339718Y-79419207D01*
X80369656Y-79496165D01*
X80388975Y-79578383D01*
X80389249Y-79580071D01*
X80395094Y-79636136D01*
X80396302Y-79698619D01*
X80393082Y-79763210D01*
X80385645Y-79825600D01*
X80374200Y-79881478D01*
X80366786Y-79907074D01*
X80338161Y-79979051D01*
X80299601Y-80047809D01*
X80252421Y-80111706D01*
X80197937Y-80169104D01*
X80137466Y-80218360D01*
X80072323Y-80257834D01*
X80046359Y-80269953D01*
X79978718Y-80293447D01*
X79905415Y-80309017D01*
X79828759Y-80316626D01*
X79751059Y-80316236D01*
X79674624Y-80307808D01*
X79601763Y-80291305D01*
X79534786Y-80266688D01*
X79503129Y-80250820D01*
X79440988Y-80210371D01*
X79383548Y-80160476D01*
X79331815Y-80102495D01*
X79286792Y-80037785D01*
X79249486Y-79967705D01*
X79220900Y-79893612D01*
X79202040Y-79816867D01*
X79197781Y-79784839D01*
X79194655Y-79741076D01*
X79193420Y-79693508D01*
X79194089Y-79646024D01*
X79196675Y-79602510D01*
X79201191Y-79566855D01*
X79204159Y-79551238D01*
X79222746Y-79478473D01*
X79248538Y-79412344D01*
X79282673Y-79350728D01*
X79326290Y-79291502D01*
X79380528Y-79232544D01*
X79394820Y-79218369D01*
X79419398Y-79194391D01*
X79437603Y-79177842D01*
X79450807Y-79168040D01*
X79460388Y-79164303D01*
X79467720Y-79165949D01*
G37*
G36*
X79853168Y-69199076D02*
G01*
X79920118Y-69207449D01*
X79980824Y-69221156D01*
X79992792Y-69224779D01*
X80065675Y-69253856D01*
X80133408Y-69292992D01*
X80195183Y-69341261D01*
X80250192Y-69397732D01*
X80297628Y-69461479D01*
X80336683Y-69531575D01*
X80366549Y-69607089D01*
X80386418Y-69687096D01*
X80390204Y-69714039D01*
X80393668Y-69756411D01*
X80395366Y-69802993D01*
X80395250Y-69849798D01*
X80393269Y-69892836D01*
X80389376Y-69928120D01*
X80380588Y-69972277D01*
X80355341Y-70053480D01*
X80319321Y-70130135D01*
X80272989Y-70201338D01*
X80216805Y-70266189D01*
X80193927Y-70288160D01*
X80133873Y-70336317D01*
X80069783Y-70374324D01*
X80000835Y-70402475D01*
X79926205Y-70421066D01*
X79845072Y-70430390D01*
X79790832Y-70430605D01*
X79756611Y-70430741D01*
X79744500Y-70430146D01*
X79681517Y-70424379D01*
X79625763Y-70413956D01*
X79573765Y-70398063D01*
X79522049Y-70375890D01*
X79460925Y-70341105D01*
X79397842Y-70292811D01*
X79341649Y-70235878D01*
X79293109Y-70171338D01*
X79252986Y-70100223D01*
X79222044Y-70023563D01*
X79201048Y-69942391D01*
X79198428Y-69924819D01*
X79195550Y-69889021D01*
X79194329Y-69847962D01*
X79260165Y-69847962D01*
X79262135Y-69890220D01*
X79266465Y-69924489D01*
X79271411Y-69948014D01*
X79294112Y-70023143D01*
X79326532Y-70092366D01*
X79369404Y-70157339D01*
X79392604Y-70185764D01*
X79445910Y-70238350D01*
X79506240Y-70281965D01*
X79574336Y-70317105D01*
X79650945Y-70344264D01*
X79667776Y-70347372D01*
X79697604Y-70349930D01*
X79738724Y-70351491D01*
X79790832Y-70352038D01*
X79807465Y-70352030D01*
X79844965Y-70351763D01*
X79873810Y-70350982D01*
X79896363Y-70349491D01*
X79914992Y-70347091D01*
X79932063Y-70343587D01*
X79949941Y-70338780D01*
X79962644Y-70334922D01*
X80034784Y-70305879D01*
X80101852Y-70266564D01*
X80162440Y-70217922D01*
X80215141Y-70160896D01*
X80220143Y-70154500D01*
X80256662Y-70100708D01*
X80285837Y-70042781D01*
X80309515Y-69977120D01*
X80313833Y-69962615D01*
X80318581Y-69944566D01*
X80321882Y-69927398D01*
X80323993Y-69908555D01*
X80325174Y-69885478D01*
X80325683Y-69855612D01*
X80325780Y-69816398D01*
X80325596Y-69778277D01*
X80324898Y-69746023D01*
X80323471Y-69720779D01*
X80321100Y-69699995D01*
X80317568Y-69681128D01*
X80312660Y-69661629D01*
X80292405Y-69600986D01*
X80258990Y-69532406D01*
X80215540Y-69469401D01*
X80161339Y-69410784D01*
X80114689Y-69371149D01*
X80053942Y-69332080D01*
X79988337Y-69303021D01*
X79917148Y-69283726D01*
X79839649Y-69273952D01*
X79755116Y-69273452D01*
X79691259Y-69279559D01*
X79618755Y-69295705D01*
X79552124Y-69321730D01*
X79490430Y-69358016D01*
X79432733Y-69404945D01*
X79428480Y-69408953D01*
X79374663Y-69466533D01*
X79331805Y-69526966D01*
X79299105Y-69591561D01*
X79275763Y-69661629D01*
X79273306Y-69672122D01*
X79267126Y-69709796D01*
X79262790Y-69754096D01*
X79260427Y-69801369D01*
X79260165Y-69847962D01*
X79194329Y-69847962D01*
X79194296Y-69846851D01*
X79194579Y-69801348D01*
X79196315Y-69755548D01*
X79199417Y-69712490D01*
X79203800Y-69675211D01*
X79209379Y-69646747D01*
X79215055Y-69626610D01*
X79245017Y-69544693D01*
X79283890Y-69470169D01*
X79331357Y-69403437D01*
X79387099Y-69344895D01*
X79450800Y-69294943D01*
X79522141Y-69253978D01*
X79559463Y-69236908D01*
X79596580Y-69222855D01*
X79633555Y-69212652D01*
X79674398Y-69205210D01*
X79723121Y-69199440D01*
X79784560Y-69196421D01*
X79853168Y-69199076D01*
G37*
G36*
X79844696Y-73827657D02*
G01*
X79903574Y-73835211D01*
X79963736Y-73847349D01*
X80020836Y-73863171D01*
X80070526Y-73881776D01*
X80116607Y-73905760D01*
X80173660Y-73945356D01*
X80227358Y-73993397D01*
X80275818Y-74047944D01*
X80317158Y-74107061D01*
X80349498Y-74168813D01*
X80369599Y-74224077D01*
X80386434Y-74296871D01*
X80395091Y-74373936D01*
X80395576Y-74452880D01*
X80387898Y-74531312D01*
X80372061Y-74606840D01*
X80348074Y-74677071D01*
X80335902Y-74704102D01*
X80303827Y-74761352D01*
X80263732Y-74815919D01*
X80213808Y-74870403D01*
X80170403Y-74910835D01*
X80121984Y-74948068D01*
X80071889Y-74977420D01*
X80017049Y-75000655D01*
X79954397Y-75019538D01*
X79953079Y-75019873D01*
X79935179Y-75023871D01*
X79916349Y-75026793D01*
X79894397Y-75028786D01*
X79867126Y-75029996D01*
X79861244Y-75030093D01*
X79832344Y-75030569D01*
X79787856Y-75030652D01*
X79773527Y-75030614D01*
X79735017Y-75030371D01*
X79705461Y-75029781D01*
X79682613Y-75028631D01*
X79664227Y-75026711D01*
X79648060Y-75023808D01*
X79631866Y-75019711D01*
X79613398Y-75014209D01*
X79548363Y-74990292D01*
X79490097Y-74960075D01*
X79435848Y-74921802D01*
X79382596Y-74873635D01*
X79348789Y-74837100D01*
X79297119Y-74767709D01*
X79255128Y-74691916D01*
X79223310Y-74610678D01*
X79202161Y-74524952D01*
X79199772Y-74510249D01*
X79193791Y-74447921D01*
X79192856Y-74380160D01*
X79196769Y-74311102D01*
X79205333Y-74244886D01*
X79218352Y-74185650D01*
X79231971Y-74144108D01*
X79263318Y-74074915D01*
X79304226Y-74007778D01*
X79353287Y-73944896D01*
X79409088Y-73888465D01*
X79455203Y-73847243D01*
X79477008Y-73869048D01*
X79498813Y-73890853D01*
X79450635Y-73938006D01*
X79431012Y-73957783D01*
X79377605Y-74019325D01*
X79334984Y-74082255D01*
X79302317Y-74148160D01*
X79278774Y-74218628D01*
X79263523Y-74295243D01*
X79258689Y-74353898D01*
X79259503Y-74418902D01*
X79265697Y-74485245D01*
X79276879Y-74548768D01*
X79292660Y-74605313D01*
X79305750Y-74639257D01*
X79339760Y-74706368D01*
X79382036Y-74768013D01*
X79431382Y-74822950D01*
X79486602Y-74869934D01*
X79546499Y-74907721D01*
X79609876Y-74935068D01*
X79627138Y-74940510D01*
X79672874Y-74952059D01*
X79717603Y-74959658D01*
X79756604Y-74962428D01*
X79781903Y-74962473D01*
X79781903Y-74428717D01*
X79847382Y-74428717D01*
X79847410Y-74500142D01*
X79847499Y-74575103D01*
X79847647Y-74645848D01*
X79847848Y-74711521D01*
X79848096Y-74771270D01*
X79848389Y-74824238D01*
X79848720Y-74869573D01*
X79849085Y-74906421D01*
X79849479Y-74933925D01*
X79849898Y-74951233D01*
X79850337Y-74957490D01*
X79851099Y-74957996D01*
X79861244Y-74958892D01*
X79879728Y-74957111D01*
X79903926Y-74953135D01*
X79931217Y-74947445D01*
X79958978Y-74940523D01*
X79984585Y-74932849D01*
X79995374Y-74929105D01*
X80063319Y-74898447D01*
X80125904Y-74857880D01*
X80182016Y-74808515D01*
X80230537Y-74751462D01*
X80270353Y-74687830D01*
X80300349Y-74618728D01*
X80317413Y-74558270D01*
X80329377Y-74482866D01*
X80332310Y-74406042D01*
X80326283Y-74330172D01*
X80311367Y-74257629D01*
X80287632Y-74190786D01*
X80270572Y-74156895D01*
X80232128Y-74099403D01*
X80184834Y-74046833D01*
X80130496Y-74000836D01*
X80070918Y-73963062D01*
X80007907Y-73935162D01*
X80005581Y-73934357D01*
X79975732Y-73925138D01*
X79942847Y-73916593D01*
X79910502Y-73909512D01*
X79882274Y-73904684D01*
X79861740Y-73902899D01*
X79847382Y-73902899D01*
X79847382Y-74428717D01*
X79781903Y-74428717D01*
X79781903Y-74393994D01*
X79781903Y-73825515D01*
X79799130Y-73825515D01*
X79844696Y-73827657D01*
G37*
G36*
X79545285Y-77819754D02*
G01*
X79588913Y-77819778D01*
X79667043Y-77819983D01*
X79734804Y-77820437D01*
X79793217Y-77821190D01*
X79843302Y-77822290D01*
X79886080Y-77823787D01*
X79922571Y-77825729D01*
X79953796Y-77828167D01*
X79980776Y-77831148D01*
X80004532Y-77834722D01*
X80026083Y-77838938D01*
X80046451Y-77843845D01*
X80072430Y-77851463D01*
X80138981Y-77879152D01*
X80199265Y-77916602D01*
X80252632Y-77963185D01*
X80298431Y-78018271D01*
X80336011Y-78081231D01*
X80364720Y-78151436D01*
X80365197Y-78152900D01*
X80379693Y-78204543D01*
X80389317Y-78256531D01*
X80394582Y-78312559D01*
X80396003Y-78376323D01*
X80395990Y-78378474D01*
X80390808Y-78468187D01*
X80376449Y-78550697D01*
X80352731Y-78626592D01*
X80319471Y-78696461D01*
X80276485Y-78760892D01*
X80275702Y-78761905D01*
X80256280Y-78786487D01*
X80242042Y-78802334D01*
X80231157Y-78810253D01*
X80221794Y-78811053D01*
X80212123Y-78805543D01*
X80200310Y-78794532D01*
X80178136Y-78772358D01*
X80199416Y-78749944D01*
X80200256Y-78749056D01*
X80235108Y-78705418D01*
X80266531Y-78653059D01*
X80292963Y-78594952D01*
X80312841Y-78534069D01*
X80313318Y-78532242D01*
X80318101Y-78512219D01*
X80321536Y-78493000D01*
X80323830Y-78472045D01*
X80325190Y-78446811D01*
X80325822Y-78414759D01*
X80325935Y-78373347D01*
X80325679Y-78332033D01*
X80324925Y-78299801D01*
X80323467Y-78274524D01*
X80321098Y-78253720D01*
X80317612Y-78234907D01*
X80312802Y-78215601D01*
X80302968Y-78183408D01*
X80274802Y-78117055D01*
X80238427Y-78058764D01*
X80194264Y-78008967D01*
X80142736Y-77968096D01*
X80084264Y-77936585D01*
X80019272Y-77914866D01*
X80003304Y-77911578D01*
X79978166Y-77907684D01*
X79949078Y-77904120D01*
X79918288Y-77901058D01*
X79888050Y-77898673D01*
X79860613Y-77897137D01*
X79838228Y-77896623D01*
X79823146Y-77897305D01*
X79817619Y-77899355D01*
X79820140Y-77904910D01*
X79827851Y-77917658D01*
X79838942Y-77934371D01*
X79851884Y-77954167D01*
X79887735Y-78021035D01*
X79917546Y-78095570D01*
X79940950Y-78175612D01*
X79957581Y-78259003D01*
X79967071Y-78343583D01*
X79969055Y-78427194D01*
X79963166Y-78507675D01*
X79949037Y-78582869D01*
X79936092Y-78627118D01*
X79908014Y-78696913D01*
X79872909Y-78758589D01*
X79831254Y-78811577D01*
X79783528Y-78855307D01*
X79730210Y-78889209D01*
X79671779Y-78912715D01*
X79655977Y-78916501D01*
X79622393Y-78921154D01*
X79584035Y-78923462D01*
X79573678Y-78923435D01*
X79545000Y-78923359D01*
X79509387Y-78920784D01*
X79481294Y-78915672D01*
X79431706Y-78896928D01*
X79379891Y-78866025D01*
X79332563Y-78825547D01*
X79291030Y-78776632D01*
X79256599Y-78720414D01*
X79253433Y-78714205D01*
X79238854Y-78684484D01*
X79228087Y-78659390D01*
X79219699Y-78634829D01*
X79212261Y-78606707D01*
X79204339Y-78570930D01*
X79199343Y-78540600D01*
X79195045Y-78494505D01*
X79193335Y-78449938D01*
X79257547Y-78449938D01*
X79264534Y-78521562D01*
X79278620Y-78588691D01*
X79299439Y-78650267D01*
X79326620Y-78705229D01*
X79359797Y-78752516D01*
X79398601Y-78791069D01*
X79442663Y-78819827D01*
X79469636Y-78831310D01*
X79520105Y-78844173D01*
X79573678Y-78848674D01*
X79626810Y-78844629D01*
X79675952Y-78831856D01*
X79722669Y-78808992D01*
X79767474Y-78774967D01*
X79806499Y-78732000D01*
X79839467Y-78680995D01*
X79866099Y-78622855D01*
X79886121Y-78558483D01*
X79899253Y-78488784D01*
X79905221Y-78414659D01*
X79903746Y-78337013D01*
X79894552Y-78256750D01*
X79877362Y-78174772D01*
X79868125Y-78140638D01*
X79848082Y-78077699D01*
X79826095Y-78023610D01*
X79801274Y-77976322D01*
X79772730Y-77933786D01*
X79744579Y-77896337D01*
X79651278Y-77898224D01*
X79557976Y-77900110D01*
X79513638Y-77922045D01*
X79511543Y-77923091D01*
X79460565Y-77955104D01*
X79413263Y-77997198D01*
X79370575Y-78047914D01*
X79333442Y-78105797D01*
X79302805Y-78169388D01*
X79279602Y-78237231D01*
X79264774Y-78307868D01*
X79258029Y-78374880D01*
X79257547Y-78449938D01*
X79193335Y-78449938D01*
X79193092Y-78443614D01*
X79193523Y-78391783D01*
X79196374Y-78342871D01*
X79201685Y-78300736D01*
X79208507Y-78266809D01*
X79229156Y-78194151D01*
X79256875Y-78125196D01*
X79290759Y-78061532D01*
X79329900Y-78004743D01*
X79373393Y-77956415D01*
X79420333Y-77918132D01*
X79448661Y-77898959D01*
X79381640Y-77895097D01*
X79362933Y-77894112D01*
X79327504Y-77892627D01*
X79293245Y-77891599D01*
X79265510Y-77891208D01*
X79216400Y-77891181D01*
X79216400Y-77855465D01*
X79216400Y-77819749D01*
X79545285Y-77819754D01*
G37*
%TO.C,TK1*%
D13*
X119254000Y-61402400D02*
X122694000Y-61402400D01*
X119254000Y-70642400D02*
X119254000Y-61402400D01*
X120974000Y-60712400D02*
X120974000Y-61402400D01*
X120974000Y-71332400D02*
X120974000Y-70642400D01*
X122694000Y-61402400D02*
X122694000Y-70642400D01*
X122694000Y-70642400D02*
X119254000Y-70642400D01*
%TO.C,D1*%
D10*
X98012400Y-44471000D02*
X96742400Y-44471000D01*
X98012400Y-45996000D02*
X96742400Y-45996000D01*
X100552400Y-44471000D02*
X100552400Y-45996000D01*
D12*
%TO.C,Annotation6*%
G36*
X77004769Y-70885421D02*
G01*
X77005778Y-70885578D01*
X77006864Y-70885836D01*
X77008016Y-70886187D01*
X77009222Y-70886628D01*
X77010471Y-70887153D01*
X77011753Y-70887757D01*
X77013056Y-70888436D01*
X77014369Y-70889184D01*
X77015680Y-70889997D01*
X77016979Y-70890869D01*
X77018255Y-70891796D01*
X77019496Y-70892773D01*
X77020691Y-70893794D01*
X77021829Y-70894855D01*
X77022898Y-70895950D01*
X77033482Y-70906110D01*
X77033482Y-71384900D01*
X77456815Y-71384900D01*
X77699365Y-71385032D01*
X77826226Y-71385958D01*
X77858440Y-71386967D01*
X77876332Y-71388472D01*
X77884768Y-71390572D01*
X77888615Y-71393367D01*
X77889391Y-71394191D01*
X77890132Y-71395073D01*
X77890838Y-71396010D01*
X77891507Y-71396997D01*
X77892736Y-71399109D01*
X77893814Y-71401377D01*
X77894739Y-71403772D01*
X77895506Y-71406263D01*
X77896112Y-71408819D01*
X77896553Y-71411411D01*
X77896825Y-71414008D01*
X77896925Y-71416580D01*
X77896848Y-71419096D01*
X77896592Y-71421525D01*
X77896153Y-71423838D01*
X77895863Y-71424941D01*
X77895526Y-71426004D01*
X77895141Y-71427022D01*
X77894708Y-71427992D01*
X77894226Y-71428911D01*
X77893695Y-71429773D01*
X77892809Y-71431043D01*
X77891844Y-71432237D01*
X77891307Y-71432806D01*
X77890721Y-71433356D01*
X77890076Y-71433888D01*
X77889363Y-71434403D01*
X77888570Y-71434900D01*
X77887689Y-71435379D01*
X77886709Y-71435843D01*
X77885621Y-71436289D01*
X77884415Y-71436719D01*
X77883081Y-71437134D01*
X77881609Y-71437532D01*
X77879990Y-71437916D01*
X77878213Y-71438284D01*
X77876268Y-71438638D01*
X77874147Y-71438977D01*
X77871838Y-71439302D01*
X77869332Y-71439613D01*
X77866620Y-71439911D01*
X77860536Y-71440467D01*
X77853507Y-71440972D01*
X77845454Y-71441429D01*
X77836299Y-71441841D01*
X77825962Y-71442209D01*
X77814365Y-71442536D01*
X77801429Y-71442825D01*
X77787076Y-71443077D01*
X77771226Y-71443296D01*
X77753801Y-71443484D01*
X77734723Y-71443642D01*
X77691289Y-71443882D01*
X77640295Y-71444035D01*
X77581110Y-71444121D01*
X77435648Y-71444167D01*
X77180008Y-71443882D01*
X77045335Y-71442209D01*
X77010761Y-71440467D01*
X76991307Y-71437916D01*
X76985676Y-71436289D01*
X76981934Y-71434403D01*
X76977602Y-71429773D01*
X76977285Y-71427955D01*
X76976970Y-71423545D01*
X76976358Y-71407488D01*
X76975273Y-71350239D01*
X76974506Y-71266717D01*
X76974215Y-71165613D01*
X76974215Y-70906110D01*
X76984798Y-70895950D01*
X76985868Y-70894855D01*
X76987006Y-70893794D01*
X76988201Y-70892773D01*
X76989442Y-70891796D01*
X76990717Y-70890869D01*
X76992017Y-70889997D01*
X76993328Y-70889184D01*
X76994641Y-70888436D01*
X76995944Y-70887757D01*
X76997226Y-70887153D01*
X76998475Y-70886628D01*
X76999681Y-70886187D01*
X77000833Y-70885836D01*
X77001919Y-70885578D01*
X77002928Y-70885421D01*
X77003848Y-70885367D01*
X77004769Y-70885421D01*
G37*
G36*
X77410196Y-78642738D02*
G01*
X77875068Y-78812283D01*
X77888615Y-78818209D01*
X77888615Y-78850383D01*
X77888536Y-78857985D01*
X77888298Y-78864604D01*
X77887901Y-78870251D01*
X77887643Y-78872713D01*
X77887345Y-78874936D01*
X77887008Y-78876921D01*
X77886631Y-78878668D01*
X77886214Y-78880180D01*
X77885758Y-78881458D01*
X77885261Y-78882503D01*
X77884726Y-78883315D01*
X77884150Y-78883897D01*
X77883535Y-78884249D01*
X77352516Y-79077607D01*
X77327698Y-79086468D01*
X77093734Y-79169999D01*
X76979295Y-79209369D01*
X76976437Y-79209359D01*
X76973736Y-79209168D01*
X76972443Y-79209003D01*
X76971188Y-79208793D01*
X76969971Y-79208536D01*
X76968791Y-79208232D01*
X76967649Y-79207881D01*
X76966543Y-79207482D01*
X76965475Y-79207036D01*
X76964442Y-79206542D01*
X76963445Y-79205999D01*
X76962485Y-79205408D01*
X76961559Y-79204767D01*
X76960668Y-79204078D01*
X76959813Y-79203338D01*
X76958991Y-79202549D01*
X76958204Y-79201710D01*
X76957450Y-79200820D01*
X76956730Y-79199879D01*
X76956044Y-79198887D01*
X76955390Y-79197844D01*
X76954768Y-79196749D01*
X76954179Y-79195601D01*
X76953622Y-79194402D01*
X76952602Y-79191844D01*
X76951706Y-79189073D01*
X76950932Y-79186086D01*
X76950481Y-79183982D01*
X76950171Y-79181951D01*
X76950019Y-79179982D01*
X76950043Y-79178067D01*
X76950259Y-79176195D01*
X76950685Y-79174357D01*
X76951338Y-79172545D01*
X76952235Y-79170747D01*
X76953393Y-79168955D01*
X76954829Y-79167159D01*
X76956560Y-79165349D01*
X76958604Y-79163516D01*
X76960977Y-79161651D01*
X76963697Y-79159744D01*
X76966781Y-79157785D01*
X76970246Y-79155765D01*
X76974109Y-79153674D01*
X76978388Y-79151503D01*
X76983099Y-79149242D01*
X76988259Y-79146882D01*
X76993886Y-79144413D01*
X76999996Y-79141826D01*
X77006608Y-79139111D01*
X77013737Y-79136258D01*
X77029619Y-79130103D01*
X77047778Y-79123283D01*
X77068353Y-79115723D01*
X77091478Y-79107346D01*
X77184188Y-79074114D01*
X77238798Y-79054853D01*
X77266315Y-79045116D01*
X77266315Y-78847578D01*
X77325476Y-78847578D01*
X77326032Y-78964147D01*
X77326726Y-79003007D01*
X77327698Y-79018446D01*
X77329049Y-79018274D01*
X77332550Y-79017309D01*
X77345558Y-79013161D01*
X77392468Y-78997121D01*
X77461287Y-78972905D01*
X77544868Y-78943093D01*
X77766113Y-78862607D01*
X77792221Y-78852546D01*
X77794859Y-78851050D01*
X77794635Y-78850383D01*
X77725685Y-78824665D01*
X77561802Y-78764023D01*
X77397443Y-78704015D01*
X77327698Y-78678933D01*
X77326726Y-78693400D01*
X77326032Y-78731565D01*
X77325476Y-78847578D01*
X77266315Y-78847578D01*
X77266315Y-78654803D01*
X77117302Y-78601039D01*
X77063845Y-78581736D01*
X77022786Y-78566465D01*
X76992591Y-78554419D01*
X76981089Y-78549353D01*
X76971728Y-78544789D01*
X76964317Y-78540627D01*
X76958663Y-78536766D01*
X76954577Y-78533105D01*
X76951864Y-78529543D01*
X76950336Y-78525977D01*
X76949798Y-78522309D01*
X76950061Y-78518435D01*
X76950932Y-78514256D01*
X76951724Y-78511455D01*
X76952666Y-78508771D01*
X76953750Y-78506214D01*
X76954967Y-78503792D01*
X76956307Y-78501514D01*
X76957763Y-78499388D01*
X76959325Y-78497424D01*
X76960986Y-78495630D01*
X76962736Y-78494014D01*
X76964566Y-78492585D01*
X76966468Y-78491353D01*
X76967444Y-78490812D01*
X76968434Y-78490325D01*
X76969438Y-78489890D01*
X76970454Y-78489510D01*
X76971482Y-78489185D01*
X76972520Y-78488917D01*
X76973568Y-78488707D01*
X76974623Y-78488555D01*
X76975686Y-78488464D01*
X76976755Y-78488433D01*
X77410196Y-78642738D01*
G37*
G36*
X77920365Y-76029713D02*
G01*
X78081655Y-76308690D01*
X78078651Y-76314828D01*
X78069451Y-76331523D01*
X78035141Y-76391980D01*
X77984083Y-76480854D01*
X77921635Y-76588936D01*
X77760345Y-76867066D01*
X77747645Y-76867066D01*
X77576076Y-76867066D01*
X77115185Y-76867066D01*
X76955165Y-76591053D01*
X76842135Y-76394838D01*
X76810927Y-76339593D01*
X76876848Y-76339593D01*
X76887465Y-76358484D01*
X76916377Y-76408808D01*
X77011468Y-76573273D01*
X77146512Y-76805683D01*
X77422525Y-76806953D01*
X77576076Y-76807270D01*
X77658110Y-76806635D01*
X77679080Y-76805812D01*
X77690297Y-76804572D01*
X77693094Y-76803777D01*
X77694469Y-76802855D01*
X77694760Y-76801800D01*
X77694305Y-76800603D01*
X77652977Y-76728636D01*
X77559262Y-76566500D01*
X77428028Y-76340016D01*
X77152438Y-76338746D01*
X77002076Y-76338705D01*
X76957811Y-76338693D01*
X76898597Y-76339044D01*
X76876848Y-76339593D01*
X76810927Y-76339593D01*
X76807766Y-76333997D01*
X76796276Y-76312500D01*
X77480522Y-76312500D01*
X77524165Y-76390644D01*
X77615353Y-76548402D01*
X77705907Y-76703144D01*
X77747645Y-76772240D01*
X77882530Y-76541788D01*
X78015192Y-76311653D01*
X78012605Y-76306354D01*
X78004899Y-76292358D01*
X77976351Y-76242067D01*
X77882265Y-76078819D01*
X77746798Y-75844716D01*
X77746678Y-75844447D01*
X77746555Y-75844195D01*
X77746431Y-75843961D01*
X77746304Y-75843744D01*
X77746175Y-75843544D01*
X77746045Y-75843362D01*
X77745913Y-75843197D01*
X77745780Y-75843049D01*
X77745645Y-75842919D01*
X77745510Y-75842806D01*
X77745373Y-75842711D01*
X77745236Y-75842633D01*
X77745098Y-75842572D01*
X77744959Y-75842528D01*
X77744821Y-75842502D01*
X77744682Y-75842494D01*
X77744543Y-75842502D01*
X77744404Y-75842528D01*
X77744266Y-75842572D01*
X77744128Y-75842633D01*
X77743990Y-75842711D01*
X77743854Y-75842806D01*
X77743718Y-75842919D01*
X77743584Y-75843049D01*
X77743450Y-75843197D01*
X77743319Y-75843362D01*
X77743188Y-75843544D01*
X77743060Y-75843744D01*
X77742933Y-75843961D01*
X77742808Y-75844195D01*
X77742685Y-75844447D01*
X77742565Y-75844716D01*
X77609215Y-76077550D01*
X77556007Y-76170875D01*
X77515023Y-76244396D01*
X77488962Y-76293231D01*
X77482370Y-76306867D01*
X77480832Y-76310722D01*
X77480522Y-76312500D01*
X76796276Y-76312500D01*
X76795145Y-76310383D01*
X76798409Y-76303688D01*
X76807766Y-76286590D01*
X76815814Y-76272347D01*
X76882556Y-76272347D01*
X76882558Y-76272633D01*
X76882606Y-76272910D01*
X76882705Y-76273178D01*
X76882861Y-76273437D01*
X76883079Y-76273688D01*
X76883364Y-76273931D01*
X76883721Y-76274165D01*
X76884156Y-76274392D01*
X76884673Y-76274610D01*
X76885277Y-76274820D01*
X76885975Y-76275023D01*
X76886771Y-76275218D01*
X76887670Y-76275405D01*
X76889799Y-76275757D01*
X76892403Y-76276081D01*
X76895525Y-76276377D01*
X76899206Y-76276645D01*
X76903486Y-76276888D01*
X76908409Y-76277105D01*
X76914015Y-76277299D01*
X76920346Y-76277469D01*
X76927443Y-76277617D01*
X76935349Y-76277743D01*
X76953750Y-76277935D01*
X76975881Y-76278053D01*
X77002076Y-76278104D01*
X77032666Y-76278095D01*
X77067983Y-76278034D01*
X77154132Y-76277786D01*
X77428452Y-76276516D01*
X77560955Y-76045800D01*
X77693458Y-75815083D01*
X77421678Y-75813813D01*
X77288838Y-75813581D01*
X77204773Y-75814183D01*
X77160158Y-75815658D01*
X77149729Y-75816736D01*
X77145665Y-75818046D01*
X77102684Y-75890257D01*
X77013585Y-76043312D01*
X76924804Y-76197082D01*
X76882775Y-76271436D01*
X76882595Y-76272053D01*
X76882556Y-76272347D01*
X76815814Y-76272347D01*
X76842135Y-76225769D01*
X76893015Y-76137087D01*
X76955165Y-76029713D01*
X77114762Y-75753700D01*
X77760345Y-75753700D01*
X77920365Y-76029713D01*
G37*
G36*
X76980434Y-69798927D02*
G01*
X76981879Y-69799044D01*
X76983334Y-69799240D01*
X76984798Y-69799517D01*
X77024744Y-69813216D01*
X77124340Y-69848783D01*
X77441998Y-69963771D01*
X77886498Y-70125906D01*
X77887768Y-70158080D01*
X77887990Y-70164623D01*
X77888033Y-70170819D01*
X77887917Y-70176520D01*
X77887663Y-70181575D01*
X77887289Y-70185836D01*
X77886816Y-70189155D01*
X77886548Y-70190415D01*
X77886264Y-70191383D01*
X77885964Y-70192041D01*
X77885652Y-70192370D01*
X77436389Y-70356782D01*
X77326852Y-70396203D01*
X76983952Y-70519606D01*
X76982564Y-70519845D01*
X76981181Y-70520005D01*
X76979804Y-70520089D01*
X76978434Y-70520097D01*
X76977075Y-70520031D01*
X76975726Y-70519892D01*
X76974391Y-70519682D01*
X76973071Y-70519402D01*
X76971767Y-70519053D01*
X76970482Y-70518636D01*
X76969218Y-70518153D01*
X76967975Y-70517605D01*
X76966756Y-70516994D01*
X76965563Y-70516320D01*
X76964398Y-70515586D01*
X76963261Y-70514791D01*
X76962156Y-70513939D01*
X76961083Y-70513030D01*
X76960045Y-70512065D01*
X76959044Y-70511045D01*
X76958080Y-70509973D01*
X76957157Y-70508849D01*
X76956275Y-70507674D01*
X76955436Y-70506450D01*
X76954643Y-70505179D01*
X76953897Y-70503861D01*
X76953200Y-70502498D01*
X76952553Y-70501092D01*
X76951959Y-70499643D01*
X76951419Y-70498152D01*
X76950935Y-70496622D01*
X76950508Y-70495053D01*
X76950056Y-70492914D01*
X76949745Y-70490855D01*
X76949599Y-70488864D01*
X76949640Y-70486929D01*
X76949892Y-70485038D01*
X76950376Y-70483179D01*
X76950713Y-70482258D01*
X76951117Y-70481340D01*
X76951590Y-70480424D01*
X76952136Y-70479509D01*
X76952757Y-70478593D01*
X76953456Y-70477675D01*
X76955100Y-70475825D01*
X76957092Y-70473947D01*
X76959453Y-70472030D01*
X76962207Y-70470061D01*
X76965376Y-70468029D01*
X76968983Y-70465922D01*
X76973051Y-70463727D01*
X76977603Y-70461433D01*
X76982661Y-70459028D01*
X76988248Y-70456500D01*
X76994388Y-70453836D01*
X77001102Y-70451026D01*
X77008414Y-70448057D01*
X77016347Y-70444917D01*
X77024922Y-70441594D01*
X77044095Y-70434353D01*
X77066113Y-70426237D01*
X77091160Y-70417151D01*
X77119418Y-70407000D01*
X77266315Y-70354506D01*
X77266315Y-70159350D01*
X77325582Y-70159350D01*
X77325899Y-70280477D01*
X77326296Y-70317287D01*
X77326852Y-70330800D01*
X77791248Y-70163160D01*
X77772995Y-70155143D01*
X77721901Y-70135061D01*
X77564130Y-70074895D01*
X77403819Y-70015046D01*
X77349550Y-69995362D01*
X77326852Y-69987900D01*
X77326698Y-69988789D01*
X77326554Y-69991395D01*
X77326296Y-70001414D01*
X77325899Y-70038224D01*
X77325661Y-70092735D01*
X77325582Y-70159350D01*
X77266315Y-70159350D01*
X77266315Y-69964193D01*
X77119418Y-69911700D01*
X77066113Y-69892463D01*
X77024922Y-69877106D01*
X76994388Y-69864864D01*
X76982661Y-69859673D01*
X76973051Y-69854974D01*
X76965376Y-69850671D01*
X76959453Y-69846671D01*
X76955100Y-69842876D01*
X76952136Y-69839191D01*
X76950376Y-69835521D01*
X76949640Y-69831771D01*
X76949745Y-69827845D01*
X76950508Y-69823647D01*
X76950935Y-69822078D01*
X76951419Y-69820548D01*
X76951960Y-69819058D01*
X76952555Y-69817609D01*
X76953203Y-69816203D01*
X76953903Y-69814842D01*
X76954652Y-69813525D01*
X76955450Y-69812256D01*
X76956294Y-69811035D01*
X76957182Y-69809864D01*
X76958115Y-69808745D01*
X76959088Y-69807677D01*
X76960102Y-69806664D01*
X76961154Y-69805706D01*
X76962243Y-69804805D01*
X76963367Y-69803962D01*
X76964525Y-69803178D01*
X76965714Y-69802455D01*
X76966934Y-69801795D01*
X76968182Y-69801199D01*
X76969457Y-69800667D01*
X76970757Y-69800202D01*
X76972082Y-69799805D01*
X76973428Y-69799477D01*
X76974795Y-69799220D01*
X76976180Y-69799035D01*
X76977583Y-69798924D01*
X76979002Y-69798887D01*
X76980434Y-69798927D01*
G37*
G36*
X77429298Y-77396233D02*
G01*
X77700245Y-77396531D01*
X77782453Y-77397327D01*
X77836968Y-77398932D01*
X77869656Y-77401628D01*
X77879647Y-77403474D01*
X77886379Y-77405698D01*
X77890587Y-77408337D01*
X77893002Y-77411426D01*
X77895388Y-77419093D01*
X77895930Y-77421696D01*
X77896285Y-77424263D01*
X77896456Y-77426786D01*
X77896447Y-77429260D01*
X77896259Y-77431676D01*
X77895894Y-77434028D01*
X77895357Y-77436309D01*
X77894648Y-77438513D01*
X77893770Y-77440633D01*
X77892726Y-77442662D01*
X77891518Y-77444592D01*
X77890150Y-77446418D01*
X77888622Y-77448132D01*
X77886938Y-77449728D01*
X77885101Y-77451198D01*
X77883112Y-77452536D01*
X77880755Y-77453226D01*
X77876262Y-77453870D01*
X77869453Y-77454470D01*
X77860146Y-77455030D01*
X77833314Y-77456041D01*
X77794318Y-77456928D01*
X77741708Y-77457716D01*
X77674038Y-77458430D01*
X77487718Y-77459733D01*
X77101638Y-77461849D01*
X77493222Y-77720083D01*
X77772040Y-77904868D01*
X77858089Y-77963089D01*
X77891155Y-77986783D01*
X77891920Y-77987910D01*
X77892629Y-77989067D01*
X77893280Y-77990251D01*
X77893875Y-77991459D01*
X77894414Y-77992690D01*
X77894896Y-77993941D01*
X77895693Y-77996493D01*
X77896266Y-77999094D01*
X77896617Y-78001725D01*
X77896747Y-78004366D01*
X77896658Y-78006997D01*
X77896351Y-78009598D01*
X77895827Y-78012150D01*
X77895086Y-78014632D01*
X77894636Y-78015841D01*
X77894132Y-78017025D01*
X77893574Y-78018181D01*
X77892964Y-78019308D01*
X77892300Y-78020403D01*
X77891583Y-78021463D01*
X77890814Y-78022486D01*
X77889992Y-78023469D01*
X77889118Y-78024410D01*
X77888192Y-78025306D01*
X77887367Y-78026000D01*
X77886430Y-78026652D01*
X77885306Y-78027266D01*
X77883921Y-78027842D01*
X77882199Y-78028381D01*
X77880067Y-78028886D01*
X77877448Y-78029358D01*
X77874268Y-78029797D01*
X77870453Y-78030207D01*
X77865927Y-78030587D01*
X77860616Y-78030940D01*
X77854445Y-78031267D01*
X77847339Y-78031569D01*
X77839224Y-78031848D01*
X77830024Y-78032106D01*
X77819665Y-78032344D01*
X77795169Y-78032765D01*
X77765140Y-78033124D01*
X77728977Y-78033431D01*
X77686083Y-78033700D01*
X77635859Y-78033941D01*
X77577707Y-78034167D01*
X77435225Y-78034620D01*
X77151307Y-78035129D01*
X77067344Y-78034463D01*
X77013321Y-78032662D01*
X76982693Y-78029332D01*
X76974107Y-78026972D01*
X76968917Y-78024082D01*
X76966304Y-78020615D01*
X76965450Y-78016521D01*
X76965748Y-78006256D01*
X76965778Y-78004372D01*
X76965867Y-78002532D01*
X76966014Y-78000742D01*
X76966218Y-77999007D01*
X76966480Y-77997331D01*
X76966798Y-77995719D01*
X76967172Y-77994177D01*
X76967601Y-77992710D01*
X76968084Y-77991321D01*
X76968622Y-77990017D01*
X76969213Y-77988803D01*
X76969856Y-77987682D01*
X76970552Y-77986661D01*
X76971299Y-77985744D01*
X76972097Y-77984936D01*
X76972945Y-77984243D01*
X76973657Y-77983777D01*
X76974783Y-77983334D01*
X76978420Y-77982508D01*
X76984139Y-77981759D01*
X76992220Y-77981081D01*
X77002945Y-77980467D01*
X77016596Y-77979912D01*
X77053802Y-77978951D01*
X77106088Y-77978149D01*
X77175709Y-77977456D01*
X77375958Y-77976200D01*
X77771775Y-77974083D01*
X77382732Y-77718389D01*
X77103543Y-77534980D01*
X76979295Y-77452536D01*
X76977259Y-77450990D01*
X76975431Y-77449514D01*
X76973801Y-77448089D01*
X76973056Y-77447390D01*
X76972356Y-77446696D01*
X76971701Y-77446005D01*
X76971088Y-77445314D01*
X76970517Y-77444623D01*
X76969986Y-77443927D01*
X76969493Y-77443224D01*
X76969038Y-77442513D01*
X76968620Y-77441790D01*
X76968236Y-77441053D01*
X76967885Y-77440301D01*
X76967567Y-77439530D01*
X76967279Y-77438738D01*
X76967021Y-77437922D01*
X76966791Y-77437081D01*
X76966588Y-77436212D01*
X76966411Y-77435312D01*
X76966258Y-77434379D01*
X76966019Y-77432405D01*
X76965862Y-77430271D01*
X76965775Y-77427956D01*
X76965748Y-77425443D01*
X76965583Y-77420022D01*
X76965523Y-77417582D01*
X76965612Y-77415315D01*
X76965743Y-77414244D01*
X76965947Y-77413213D01*
X76966238Y-77412223D01*
X76966627Y-77411272D01*
X76967128Y-77410358D01*
X76967752Y-77409483D01*
X76968512Y-77408644D01*
X76969420Y-77407841D01*
X76970488Y-77407074D01*
X76971729Y-77406341D01*
X76973155Y-77405641D01*
X76974779Y-77404974D01*
X76976613Y-77404340D01*
X76978668Y-77403736D01*
X76980959Y-77403163D01*
X76983496Y-77402620D01*
X76986293Y-77402106D01*
X76989361Y-77401620D01*
X76992713Y-77401161D01*
X76996362Y-77400728D01*
X77004598Y-77399940D01*
X77014167Y-77399249D01*
X77025169Y-77398648D01*
X77037702Y-77398132D01*
X77051865Y-77397694D01*
X77067758Y-77397327D01*
X77085478Y-77397025D01*
X77105124Y-77396783D01*
X77126797Y-77396594D01*
X77150593Y-77396451D01*
X77204954Y-77396280D01*
X77268998Y-77396221D01*
X77429298Y-77396233D01*
G37*
G36*
X77426811Y-73568453D02*
G01*
X77881418Y-73734823D01*
X77881961Y-73735150D01*
X77882476Y-73735497D01*
X77882965Y-73735868D01*
X77883429Y-73736265D01*
X77883868Y-73736693D01*
X77884283Y-73737153D01*
X77884675Y-73737649D01*
X77885043Y-73738184D01*
X77885389Y-73738761D01*
X77885714Y-73739383D01*
X77886017Y-73740054D01*
X77886300Y-73740777D01*
X77886563Y-73741553D01*
X77886807Y-73742388D01*
X77887032Y-73743283D01*
X77887239Y-73744243D01*
X77887429Y-73745269D01*
X77887602Y-73746365D01*
X77887759Y-73747534D01*
X77887901Y-73748780D01*
X77888027Y-73750105D01*
X77888140Y-73751513D01*
X77888324Y-73754588D01*
X77888459Y-73758030D01*
X77888549Y-73761864D01*
X77888599Y-73766114D01*
X77888615Y-73770807D01*
X77888536Y-73778390D01*
X77888298Y-73784962D01*
X77887901Y-73790541D01*
X77887643Y-73792965D01*
X77887345Y-73795148D01*
X77887008Y-73797093D01*
X77886631Y-73798802D01*
X77886214Y-73800279D01*
X77885758Y-73801524D01*
X77885261Y-73802542D01*
X77884726Y-73803334D01*
X77884150Y-73803902D01*
X77883535Y-73804250D01*
X77435648Y-73967233D01*
X77331932Y-74004881D01*
X77160045Y-74067272D01*
X77075916Y-74096922D01*
X77019618Y-74115400D01*
X76985187Y-74124511D01*
X76974309Y-74126119D01*
X76966661Y-74126063D01*
X76961499Y-74124567D01*
X76958077Y-74121859D01*
X76953472Y-74113707D01*
X76952870Y-74112359D01*
X76952336Y-74111014D01*
X76951868Y-74109672D01*
X76951467Y-74108336D01*
X76951132Y-74107004D01*
X76950864Y-74105677D01*
X76950663Y-74104357D01*
X76950528Y-74103044D01*
X76950460Y-74101738D01*
X76950457Y-74100440D01*
X76950521Y-74099151D01*
X76950651Y-74097871D01*
X76950848Y-74096601D01*
X76951110Y-74095342D01*
X76951438Y-74094094D01*
X76951831Y-74092858D01*
X76952291Y-74091634D01*
X76952816Y-74090423D01*
X76953407Y-74089225D01*
X76954063Y-74088042D01*
X76954785Y-74086874D01*
X76955572Y-74085721D01*
X76956424Y-74084585D01*
X76957341Y-74083465D01*
X76958324Y-74082362D01*
X76959371Y-74081278D01*
X76960484Y-74080212D01*
X76961661Y-74079165D01*
X76964211Y-74077132D01*
X76967018Y-74075183D01*
X76968856Y-74074211D01*
X76972093Y-74072743D01*
X76982457Y-74068437D01*
X76997484Y-74062503D01*
X77016548Y-74055181D01*
X77064292Y-74037321D01*
X77120688Y-74016763D01*
X77264198Y-73965117D01*
X77265468Y-73769113D01*
X77265595Y-73703053D01*
X77326336Y-73703053D01*
X77326428Y-73769113D01*
X77327288Y-73842489D01*
X77328545Y-73895743D01*
X77330119Y-73928121D01*
X77331001Y-73936246D01*
X77331461Y-73938251D01*
X77331932Y-73938870D01*
X77350883Y-73932321D01*
X77399083Y-73915057D01*
X77554182Y-73858860D01*
X77784052Y-73775886D01*
X77786364Y-73774938D01*
X77788503Y-73774014D01*
X77790414Y-73773141D01*
X77792042Y-73772341D01*
X77793333Y-73771641D01*
X77793835Y-73771336D01*
X77794232Y-73771064D01*
X77794517Y-73770831D01*
X77794684Y-73770637D01*
X77794721Y-73770556D01*
X77794726Y-73770487D01*
X77794697Y-73770429D01*
X77794635Y-73770383D01*
X77775823Y-73763081D01*
X77725738Y-73744348D01*
X77562225Y-73684023D01*
X77397866Y-73623857D01*
X77328122Y-73598933D01*
X77327889Y-73599817D01*
X77327667Y-73602409D01*
X77327262Y-73612368D01*
X77326916Y-73628111D01*
X77326640Y-73648940D01*
X77326336Y-73703053D01*
X77265595Y-73703053D01*
X77265733Y-73631001D01*
X77265528Y-73588972D01*
X77265045Y-73573533D01*
X77218650Y-73557453D01*
X77119630Y-73521728D01*
X77019657Y-73485129D01*
X76970405Y-73466430D01*
X76968811Y-73465585D01*
X76967285Y-73464718D01*
X76965825Y-73463828D01*
X76964433Y-73462916D01*
X76963108Y-73461982D01*
X76961850Y-73461024D01*
X76960660Y-73460044D01*
X76959537Y-73459041D01*
X76958482Y-73458015D01*
X76957495Y-73456966D01*
X76956575Y-73455894D01*
X76955723Y-73454799D01*
X76954939Y-73453680D01*
X76954223Y-73452538D01*
X76953575Y-73451373D01*
X76952996Y-73450184D01*
X76952484Y-73448972D01*
X76952041Y-73447736D01*
X76951666Y-73446476D01*
X76951359Y-73445193D01*
X76951121Y-73443885D01*
X76950952Y-73442554D01*
X76950851Y-73441199D01*
X76950819Y-73439819D01*
X76950856Y-73438416D01*
X76950962Y-73436988D01*
X76951137Y-73435536D01*
X76951381Y-73434059D01*
X76951694Y-73432558D01*
X76952076Y-73431032D01*
X76952528Y-73429482D01*
X76953048Y-73427906D01*
X76953943Y-73425246D01*
X76954887Y-73422816D01*
X76955891Y-73420607D01*
X76956418Y-73419584D01*
X76956964Y-73418613D01*
X76957530Y-73417693D01*
X76958117Y-73416824D01*
X76958726Y-73416005D01*
X76959359Y-73415234D01*
X76960016Y-73414510D01*
X76960700Y-73413833D01*
X76961411Y-73413201D01*
X76962150Y-73412614D01*
X76962919Y-73412070D01*
X76963719Y-73411568D01*
X76964552Y-73411108D01*
X76965418Y-73410688D01*
X76966318Y-73410308D01*
X76967255Y-73409966D01*
X76968229Y-73409661D01*
X76969241Y-73409392D01*
X76970293Y-73409159D01*
X76971386Y-73408961D01*
X76973699Y-73408662D01*
X76976191Y-73408489D01*
X76978872Y-73408433D01*
X77426811Y-73568453D01*
G37*
G36*
X77858392Y-72544868D02*
G01*
X77859915Y-72544972D01*
X77861430Y-72545146D01*
X77862932Y-72545389D01*
X77864418Y-72545702D01*
X77865882Y-72546084D01*
X77867322Y-72546535D01*
X77868732Y-72547056D01*
X77870108Y-72547646D01*
X77871447Y-72548306D01*
X77872744Y-72549035D01*
X77873995Y-72549834D01*
X77875196Y-72550702D01*
X77876342Y-72551640D01*
X77877430Y-72552647D01*
X77878455Y-72553724D01*
X77879149Y-72554533D01*
X77879801Y-72555405D01*
X77880415Y-72556382D01*
X77880990Y-72557510D01*
X77881529Y-72558833D01*
X77882032Y-72560394D01*
X77882502Y-72562240D01*
X77882940Y-72564412D01*
X77883346Y-72566957D01*
X77883723Y-72569919D01*
X77884072Y-72573341D01*
X77884393Y-72577268D01*
X77884690Y-72581744D01*
X77884962Y-72586815D01*
X77885212Y-72592523D01*
X77885440Y-72598914D01*
X77885839Y-72613920D01*
X77886169Y-72632189D01*
X77886443Y-72654073D01*
X77886670Y-72679929D01*
X77886863Y-72710111D01*
X77887033Y-72744974D01*
X77887345Y-72830160D01*
X77887365Y-72934690D01*
X77886869Y-73021877D01*
X77885976Y-73082632D01*
X77884805Y-73107867D01*
X77884369Y-73109239D01*
X77883856Y-73110578D01*
X77883270Y-73111881D01*
X77882614Y-73113148D01*
X77881890Y-73114375D01*
X77881101Y-73115562D01*
X77880251Y-73116707D01*
X77879341Y-73117808D01*
X77878376Y-73118864D01*
X77877358Y-73119874D01*
X77876291Y-73120834D01*
X77875176Y-73121745D01*
X77874017Y-73122604D01*
X77872817Y-73123409D01*
X77871579Y-73124159D01*
X77870306Y-73124853D01*
X77869000Y-73125488D01*
X77867666Y-73126064D01*
X77866305Y-73126577D01*
X77864920Y-73127028D01*
X77863515Y-73127414D01*
X77862092Y-73127734D01*
X77860655Y-73127985D01*
X77859207Y-73128167D01*
X77857749Y-73128277D01*
X77856286Y-73128315D01*
X77854820Y-73128278D01*
X77853354Y-73128164D01*
X77851892Y-73127973D01*
X77850435Y-73127703D01*
X77848987Y-73127351D01*
X77847552Y-73126917D01*
X77845625Y-73126198D01*
X77843812Y-73125454D01*
X77842108Y-73124664D01*
X77840511Y-73123807D01*
X77839016Y-73122860D01*
X77837621Y-73121802D01*
X77836322Y-73120610D01*
X77835116Y-73119263D01*
X77834547Y-73118525D01*
X77834000Y-73117740D01*
X77833474Y-73116905D01*
X77832969Y-73116018D01*
X77832020Y-73114076D01*
X77831151Y-73111892D01*
X77830357Y-73109444D01*
X77829636Y-73106711D01*
X77828983Y-73103670D01*
X77828396Y-73100299D01*
X77827871Y-73096578D01*
X77827404Y-73092484D01*
X77826993Y-73087996D01*
X77826633Y-73083091D01*
X77826322Y-73077748D01*
X77826056Y-73071945D01*
X77825831Y-73065660D01*
X77825644Y-73058872D01*
X77825372Y-73043699D01*
X77825211Y-73026250D01*
X77825134Y-73006351D01*
X77825115Y-72983829D01*
X77825115Y-72866567D01*
X77407285Y-72866567D01*
X77203238Y-72866302D01*
X77073169Y-72865402D01*
X77002949Y-72863709D01*
X76985867Y-72862515D01*
X76978448Y-72861063D01*
X76977208Y-72860371D01*
X76976029Y-72859568D01*
X76974910Y-72858662D01*
X76973853Y-72857657D01*
X76972859Y-72856562D01*
X76971928Y-72855381D01*
X76971061Y-72854121D01*
X76970260Y-72852788D01*
X76969524Y-72851389D01*
X76968854Y-72849930D01*
X76968252Y-72848418D01*
X76967718Y-72846857D01*
X76967253Y-72845256D01*
X76966857Y-72843620D01*
X76966532Y-72841954D01*
X76966278Y-72840267D01*
X76966095Y-72838563D01*
X76965986Y-72836850D01*
X76965950Y-72835133D01*
X76965988Y-72833418D01*
X76966102Y-72831713D01*
X76966291Y-72830023D01*
X76966556Y-72828354D01*
X76966899Y-72826714D01*
X76967321Y-72825107D01*
X76967821Y-72823541D01*
X76968400Y-72822021D01*
X76969061Y-72820555D01*
X76969802Y-72819147D01*
X76970626Y-72817805D01*
X76971532Y-72816535D01*
X76972522Y-72815343D01*
X76973225Y-72814650D01*
X76974031Y-72813997D01*
X76975014Y-72813384D01*
X76976243Y-72812810D01*
X76977792Y-72812272D01*
X76979732Y-72811771D01*
X76982133Y-72811305D01*
X76985070Y-72810872D01*
X76988612Y-72810471D01*
X76992831Y-72810101D01*
X76997800Y-72809761D01*
X77003590Y-72809449D01*
X77010272Y-72809165D01*
X77017919Y-72808907D01*
X77026602Y-72808674D01*
X77036392Y-72808464D01*
X77047362Y-72808276D01*
X77059583Y-72808110D01*
X77088066Y-72807835D01*
X77122414Y-72807630D01*
X77163200Y-72807485D01*
X77210999Y-72807389D01*
X77266384Y-72807333D01*
X77402205Y-72807300D01*
X77824692Y-72807300D01*
X77825962Y-72684957D01*
X77826881Y-72617779D01*
X77827457Y-72595808D01*
X77828237Y-72579970D01*
X77829314Y-72569052D01*
X77829994Y-72565061D01*
X77830784Y-72561846D01*
X77831695Y-72559256D01*
X77832739Y-72557140D01*
X77835275Y-72553724D01*
X77836300Y-72552647D01*
X77837388Y-72551640D01*
X77838534Y-72550702D01*
X77839735Y-72549834D01*
X77840986Y-72549035D01*
X77842283Y-72548306D01*
X77843622Y-72547646D01*
X77844998Y-72547056D01*
X77846409Y-72546535D01*
X77847848Y-72546084D01*
X77849312Y-72545702D01*
X77850798Y-72545389D01*
X77852300Y-72545146D01*
X77853815Y-72544972D01*
X77855338Y-72544868D01*
X77856865Y-72544833D01*
X77858392Y-72544868D01*
G37*
G36*
X77434802Y-79666569D02*
G01*
X77880995Y-79667416D01*
X77889038Y-79677576D01*
X77889998Y-79678774D01*
X77890894Y-79679985D01*
X77891725Y-79681209D01*
X77892493Y-79682444D01*
X77893196Y-79683688D01*
X77893836Y-79684940D01*
X77894413Y-79686200D01*
X77894925Y-79687465D01*
X77895375Y-79688734D01*
X77895761Y-79690007D01*
X77896085Y-79691281D01*
X77896346Y-79692556D01*
X77896544Y-79693829D01*
X77896680Y-79695101D01*
X77896753Y-79696368D01*
X77896764Y-79697631D01*
X77896713Y-79698888D01*
X77896601Y-79700137D01*
X77896426Y-79701378D01*
X77896190Y-79702608D01*
X77895893Y-79703827D01*
X77895535Y-79705033D01*
X77895115Y-79706225D01*
X77894634Y-79707401D01*
X77894093Y-79708561D01*
X77893491Y-79709703D01*
X77892829Y-79710825D01*
X77892106Y-79711926D01*
X77891323Y-79713006D01*
X77890480Y-79714062D01*
X77889577Y-79715094D01*
X77888615Y-79716099D01*
X77887818Y-79716869D01*
X77886969Y-79717590D01*
X77886503Y-79717933D01*
X77885998Y-79718264D01*
X77885444Y-79718585D01*
X77884834Y-79718894D01*
X77884158Y-79719193D01*
X77883408Y-79719480D01*
X77882575Y-79719758D01*
X77881651Y-79720025D01*
X77880626Y-79720282D01*
X77879492Y-79720529D01*
X77878240Y-79720766D01*
X77876861Y-79720994D01*
X77875347Y-79721213D01*
X77873689Y-79721422D01*
X77869906Y-79721815D01*
X77865441Y-79722173D01*
X77860226Y-79722499D01*
X77854190Y-79722794D01*
X77847264Y-79723059D01*
X77839377Y-79723297D01*
X77830460Y-79723508D01*
X77820442Y-79723694D01*
X77809255Y-79723857D01*
X77796828Y-79723998D01*
X77783092Y-79724120D01*
X77751411Y-79724308D01*
X77713653Y-79724434D01*
X77669260Y-79724510D01*
X77617673Y-79724550D01*
X77490682Y-79724566D01*
X77215621Y-79725413D01*
X77131946Y-79726352D01*
X77101215Y-79727529D01*
X77109304Y-79733506D01*
X77132191Y-79749146D01*
X77215991Y-79805211D01*
X77339876Y-79887311D01*
X77491105Y-79987033D01*
X77768812Y-80170971D01*
X77855079Y-80229206D01*
X77889038Y-80253309D01*
X77889998Y-80254553D01*
X77890894Y-80255822D01*
X77891725Y-80257113D01*
X77892492Y-80258425D01*
X77893195Y-80259755D01*
X77893833Y-80261101D01*
X77894408Y-80262462D01*
X77894919Y-80263833D01*
X77895366Y-80265214D01*
X77895749Y-80266602D01*
X77896068Y-80267995D01*
X77896324Y-80269390D01*
X77896516Y-80270786D01*
X77896644Y-80272180D01*
X77896709Y-80273569D01*
X77896711Y-80274952D01*
X77896650Y-80276327D01*
X77896525Y-80277690D01*
X77896338Y-80279040D01*
X77896087Y-80280375D01*
X77895773Y-80281693D01*
X77895397Y-80282990D01*
X77894958Y-80284265D01*
X77894456Y-80285516D01*
X77893891Y-80286740D01*
X77893264Y-80287935D01*
X77892574Y-80289099D01*
X77891822Y-80290229D01*
X77891008Y-80291324D01*
X77890131Y-80292381D01*
X77889193Y-80293398D01*
X77888192Y-80294373D01*
X77887368Y-80295066D01*
X77886436Y-80295719D01*
X77885322Y-80296333D01*
X77883953Y-80296909D01*
X77882253Y-80297448D01*
X77880150Y-80297953D01*
X77877571Y-80298424D01*
X77874440Y-80298864D01*
X77870685Y-80299273D01*
X77866232Y-80299653D01*
X77861007Y-80300006D01*
X77854936Y-80300333D01*
X77847946Y-80300636D01*
X77839963Y-80300915D01*
X77830913Y-80301173D01*
X77820723Y-80301411D01*
X77796626Y-80301832D01*
X77767083Y-80302190D01*
X77731503Y-80302498D01*
X77689298Y-80302767D01*
X77639877Y-80303008D01*
X77582650Y-80303234D01*
X77442422Y-80303686D01*
X77130266Y-80303845D01*
X76992418Y-80302416D01*
X76990976Y-80302144D01*
X76989514Y-80301808D01*
X76988040Y-80301414D01*
X76986565Y-80300967D01*
X76985096Y-80300474D01*
X76983645Y-80299938D01*
X76982220Y-80299367D01*
X76980830Y-80298765D01*
X76979484Y-80298138D01*
X76978193Y-80297492D01*
X76976965Y-80296833D01*
X76975809Y-80296165D01*
X76974735Y-80295495D01*
X76973753Y-80294828D01*
X76972871Y-80294170D01*
X76972098Y-80293526D01*
X76971256Y-80292576D01*
X76970476Y-80291553D01*
X76969757Y-80290463D01*
X76969100Y-80289311D01*
X76968503Y-80288101D01*
X76967968Y-80286838D01*
X76967493Y-80285527D01*
X76967078Y-80284173D01*
X76966724Y-80282780D01*
X76966429Y-80281354D01*
X76966019Y-80278420D01*
X76965845Y-80275409D01*
X76965907Y-80272359D01*
X76966202Y-80269310D01*
X76966728Y-80266299D01*
X76967484Y-80263365D01*
X76968467Y-80260546D01*
X76969043Y-80259192D01*
X76969676Y-80257881D01*
X76970365Y-80256618D01*
X76971109Y-80255408D01*
X76971909Y-80254256D01*
X76972764Y-80253166D01*
X76973674Y-80252143D01*
X76974638Y-80251193D01*
X76975460Y-80250499D01*
X76976383Y-80249846D01*
X76977470Y-80249232D01*
X76978789Y-80248655D01*
X76980404Y-80248114D01*
X76982381Y-80247607D01*
X76984785Y-80247132D01*
X76987682Y-80246688D01*
X76991137Y-80246273D01*
X76995216Y-80245886D01*
X76999984Y-80245525D01*
X77005505Y-80245187D01*
X77011847Y-80244873D01*
X77019074Y-80244579D01*
X77027252Y-80244305D01*
X77036445Y-80244049D01*
X77058142Y-80243583D01*
X77084689Y-80243168D01*
X77116608Y-80242792D01*
X77154423Y-80242442D01*
X77198657Y-80242103D01*
X77249835Y-80241764D01*
X77375112Y-80241033D01*
X77766695Y-80238916D01*
X77367068Y-79976449D01*
X76967865Y-79713983D01*
X76967865Y-79694933D01*
X76967886Y-79692132D01*
X76967955Y-79689590D01*
X76968080Y-79687289D01*
X76968269Y-79685209D01*
X76968529Y-79683333D01*
X76968870Y-79681642D01*
X76969298Y-79680118D01*
X76969823Y-79678740D01*
X76970452Y-79677492D01*
X76971193Y-79676354D01*
X76972055Y-79675308D01*
X76973044Y-79674335D01*
X76974171Y-79673417D01*
X76975441Y-79672534D01*
X76976865Y-79671669D01*
X76978448Y-79670803D01*
X76981081Y-79670048D01*
X76985973Y-79669371D01*
X76993380Y-79668768D01*
X77003557Y-79668236D01*
X77033247Y-79667380D01*
X77077085Y-79666781D01*
X77137116Y-79666421D01*
X77215383Y-79666278D01*
X77434802Y-79666569D01*
G37*
G36*
X77249382Y-68708164D02*
G01*
X77273501Y-68708373D01*
X77293349Y-68708726D01*
X77309694Y-68709287D01*
X77323306Y-68710121D01*
X77334954Y-68711293D01*
X77345406Y-68712866D01*
X77355431Y-68714906D01*
X77365798Y-68717476D01*
X77376716Y-68720635D01*
X77387097Y-68724088D01*
X77396963Y-68727854D01*
X77406333Y-68731949D01*
X77415226Y-68736392D01*
X77423663Y-68741200D01*
X77431663Y-68746390D01*
X77439247Y-68751979D01*
X77446434Y-68757984D01*
X77453243Y-68764424D01*
X77459696Y-68771315D01*
X77465811Y-68778675D01*
X77471609Y-68786521D01*
X77477109Y-68794871D01*
X77482331Y-68803742D01*
X77487295Y-68813151D01*
X77496820Y-68831406D01*
X77501265Y-68839820D01*
X77501365Y-68839875D01*
X77501507Y-68839881D01*
X77501688Y-68839840D01*
X77501909Y-68839752D01*
X77502168Y-68839620D01*
X77502464Y-68839443D01*
X77503163Y-68838960D01*
X77503999Y-68838314D01*
X77504963Y-68837513D01*
X77506048Y-68836566D01*
X77507245Y-68835481D01*
X77508546Y-68834267D01*
X77509943Y-68832933D01*
X77512993Y-68829938D01*
X77516331Y-68826567D01*
X77519892Y-68822887D01*
X77526473Y-68816070D01*
X77533369Y-68809742D01*
X77540597Y-68803896D01*
X77548176Y-68798526D01*
X77556121Y-68793624D01*
X77564451Y-68789185D01*
X77573183Y-68785201D01*
X77582333Y-68781665D01*
X77591921Y-68778571D01*
X77601962Y-68775911D01*
X77612475Y-68773680D01*
X77623476Y-68771869D01*
X77634983Y-68770473D01*
X77647014Y-68769484D01*
X77659586Y-68768895D01*
X77672715Y-68768701D01*
X77690945Y-68769095D01*
X77708187Y-68770287D01*
X77724462Y-68772292D01*
X77739794Y-68775123D01*
X77754205Y-68778795D01*
X77767719Y-68783323D01*
X77780359Y-68788719D01*
X77792148Y-68795000D01*
X77803108Y-68802178D01*
X77813263Y-68810269D01*
X77822634Y-68819286D01*
X77831247Y-68829243D01*
X77839122Y-68840156D01*
X77846284Y-68852038D01*
X77852755Y-68864903D01*
X77858558Y-68878767D01*
X77862760Y-68889837D01*
X77866498Y-68900381D01*
X77869800Y-68910682D01*
X77872700Y-68921027D01*
X77875228Y-68931702D01*
X77877415Y-68942993D01*
X77879292Y-68955186D01*
X77880889Y-68968566D01*
X77882239Y-68983420D01*
X77883371Y-69000032D01*
X77884318Y-69018690D01*
X77885109Y-69039679D01*
X77886351Y-69089794D01*
X77887345Y-69152663D01*
X77889462Y-69322843D01*
X77878878Y-69333426D01*
X77867872Y-69344433D01*
X77825115Y-69344433D01*
X77456815Y-69344433D01*
X77432685Y-69344433D01*
X77219742Y-69344169D01*
X77084546Y-69343269D01*
X77011978Y-69341576D01*
X76994453Y-69340382D01*
X76986915Y-69338930D01*
X76976332Y-69333426D01*
X76976332Y-69285167D01*
X77033482Y-69285167D01*
X77456815Y-69285167D01*
X77456815Y-69137423D01*
X77520315Y-69137423D01*
X77520315Y-69285167D01*
X77825115Y-69285167D01*
X77825115Y-69143773D01*
X77824745Y-69086226D01*
X77823739Y-69034236D01*
X77822258Y-68993517D01*
X77821388Y-68979170D01*
X77820458Y-68969783D01*
X77818327Y-68955510D01*
X77815891Y-68942196D01*
X77813132Y-68929809D01*
X77810034Y-68918315D01*
X77806578Y-68907682D01*
X77802748Y-68897877D01*
X77798526Y-68888867D01*
X77793894Y-68880619D01*
X77788836Y-68873100D01*
X77783334Y-68866278D01*
X77777371Y-68860119D01*
X77770928Y-68854591D01*
X77763990Y-68849660D01*
X77756538Y-68845295D01*
X77748556Y-68841461D01*
X77740025Y-68838127D01*
X77733037Y-68835983D01*
X77725180Y-68834155D01*
X77716586Y-68832639D01*
X77707389Y-68831433D01*
X77697720Y-68830535D01*
X77687712Y-68829941D01*
X77677498Y-68829651D01*
X77667212Y-68829660D01*
X77656985Y-68829968D01*
X77646950Y-68830570D01*
X77637240Y-68831465D01*
X77627987Y-68832650D01*
X77619325Y-68834123D01*
X77611386Y-68835881D01*
X77604303Y-68837922D01*
X77598208Y-68840244D01*
X77594386Y-68841984D01*
X77590694Y-68843796D01*
X77587130Y-68845684D01*
X77583692Y-68847651D01*
X77580376Y-68849702D01*
X77577180Y-68851842D01*
X77574100Y-68854074D01*
X77571135Y-68856403D01*
X77568280Y-68858833D01*
X77565534Y-68861368D01*
X77562893Y-68864013D01*
X77560354Y-68866772D01*
X77557915Y-68869649D01*
X77555572Y-68872648D01*
X77553323Y-68875774D01*
X77551165Y-68879031D01*
X77549096Y-68882423D01*
X77547111Y-68885955D01*
X77545209Y-68889630D01*
X77543386Y-68893453D01*
X77541640Y-68897429D01*
X77539967Y-68901561D01*
X77536832Y-68910312D01*
X77533957Y-68919739D01*
X77531319Y-68929878D01*
X77528896Y-68940763D01*
X77526665Y-68952426D01*
X77525055Y-68963970D01*
X77523708Y-68977463D01*
X77522610Y-68993585D01*
X77521744Y-69013016D01*
X77521096Y-69036436D01*
X77520652Y-69064524D01*
X77520397Y-69097960D01*
X77520315Y-69137423D01*
X77456815Y-69137423D01*
X77456815Y-69108213D01*
X77456451Y-69037365D01*
X77455492Y-68974811D01*
X77454136Y-68927417D01*
X77453371Y-68911552D01*
X77452582Y-68902050D01*
X77451271Y-68894295D01*
X77449580Y-68886463D01*
X77447535Y-68878606D01*
X77445160Y-68870777D01*
X77442483Y-68863026D01*
X77439530Y-68855408D01*
X77436325Y-68847972D01*
X77432897Y-68840773D01*
X77429270Y-68833861D01*
X77425470Y-68827289D01*
X77421524Y-68821109D01*
X77417458Y-68815373D01*
X77413298Y-68810133D01*
X77409069Y-68805441D01*
X77404799Y-68801349D01*
X77400512Y-68797910D01*
X77394576Y-68793768D01*
X77388748Y-68790061D01*
X77382897Y-68786763D01*
X77379921Y-68785262D01*
X77376891Y-68783854D01*
X77373789Y-68782537D01*
X77370600Y-68781309D01*
X77367306Y-68780166D01*
X77363893Y-68779106D01*
X77360342Y-68778125D01*
X77356638Y-68777221D01*
X77348706Y-68775632D01*
X77339966Y-68774316D01*
X77330286Y-68773250D01*
X77319535Y-68772411D01*
X77307583Y-68771776D01*
X77294300Y-68771322D01*
X77279553Y-68771026D01*
X77263213Y-68770866D01*
X77245148Y-68770817D01*
X77218320Y-68770886D01*
X77196657Y-68771128D01*
X77179329Y-68771599D01*
X77165509Y-68772352D01*
X77154367Y-68773442D01*
X77145076Y-68774925D01*
X77136807Y-68776854D01*
X77128732Y-68779283D01*
X77122346Y-68781567D01*
X77116061Y-68784276D01*
X77109899Y-68787389D01*
X77103881Y-68790885D01*
X77098029Y-68794744D01*
X77092366Y-68798943D01*
X77086912Y-68803463D01*
X77081689Y-68808281D01*
X77076719Y-68813378D01*
X77072024Y-68818731D01*
X77067626Y-68824320D01*
X77063545Y-68830123D01*
X77059804Y-68836120D01*
X77056425Y-68842289D01*
X77053429Y-68848609D01*
X77050838Y-68855060D01*
X77048351Y-68862114D01*
X77046117Y-68869444D01*
X77044124Y-68877257D01*
X77042359Y-68885758D01*
X77040806Y-68895155D01*
X77039453Y-68905654D01*
X77038286Y-68917462D01*
X77037292Y-68930784D01*
X77036456Y-68945828D01*
X77035765Y-68962799D01*
X77035206Y-68981905D01*
X77034765Y-69003352D01*
X77034181Y-69054095D01*
X77033905Y-69116680D01*
X77033482Y-69285167D01*
X76976332Y-69285167D01*
X76976332Y-69120067D01*
X76976755Y-68906284D01*
X76987762Y-68865643D01*
X76991496Y-68852551D01*
X76995409Y-68840243D01*
X76999522Y-68828689D01*
X77003855Y-68817860D01*
X77008429Y-68807724D01*
X77013263Y-68798254D01*
X77018380Y-68789418D01*
X77023798Y-68781188D01*
X77029539Y-68773534D01*
X77035622Y-68766424D01*
X77042069Y-68759831D01*
X77048900Y-68753724D01*
X77056136Y-68748074D01*
X77063796Y-68742850D01*
X77071901Y-68738023D01*
X77080472Y-68733563D01*
X77088061Y-68729925D01*
X77095647Y-68726620D01*
X77103315Y-68723637D01*
X77111150Y-68720962D01*
X77119238Y-68718583D01*
X77127665Y-68716485D01*
X77136516Y-68714657D01*
X77145877Y-68713084D01*
X77155833Y-68711755D01*
X77166470Y-68710656D01*
X77177873Y-68709774D01*
X77190128Y-68709096D01*
X77203321Y-68708609D01*
X77217538Y-68708300D01*
X77232862Y-68708156D01*
X77249382Y-68708164D01*
G37*
G36*
X77679244Y-74555210D02*
G01*
X77692169Y-74555697D01*
X77703989Y-74556566D01*
X77715074Y-74557851D01*
X77725797Y-74559589D01*
X77736530Y-74561812D01*
X77747645Y-74564556D01*
X77761496Y-74568386D01*
X77774497Y-74572753D01*
X77786679Y-74577686D01*
X77798075Y-74583216D01*
X77803488Y-74586215D01*
X77808716Y-74589374D01*
X77813764Y-74592698D01*
X77818636Y-74596190D01*
X77823335Y-74599854D01*
X77827866Y-74603694D01*
X77832233Y-74607713D01*
X77836439Y-74611917D01*
X77840489Y-74616307D01*
X77844387Y-74620889D01*
X77848137Y-74625665D01*
X77851742Y-74630640D01*
X77858537Y-74641201D01*
X77864803Y-74652603D01*
X77870573Y-74664875D01*
X77875879Y-74678048D01*
X77880753Y-74692153D01*
X77885228Y-74707220D01*
X77886659Y-74712651D01*
X77887940Y-74717953D01*
X77889080Y-74723299D01*
X77890090Y-74728869D01*
X77890978Y-74734838D01*
X77891754Y-74741383D01*
X77892428Y-74748681D01*
X77893007Y-74756908D01*
X77893502Y-74766242D01*
X77893922Y-74776859D01*
X77894277Y-74788935D01*
X77894575Y-74802648D01*
X77895039Y-74835691D01*
X77895388Y-74877400D01*
X77895851Y-74946436D01*
X77895701Y-74971958D01*
X77895283Y-74992494D01*
X77894586Y-75008803D01*
X77893602Y-75021644D01*
X77892321Y-75031777D01*
X77890732Y-75039960D01*
X77888151Y-75049246D01*
X77885175Y-75058289D01*
X77881813Y-75067085D01*
X77878071Y-75075628D01*
X77873958Y-75083914D01*
X77869479Y-75091939D01*
X77864643Y-75099697D01*
X77859458Y-75107184D01*
X77853930Y-75114395D01*
X77848068Y-75121325D01*
X77841878Y-75127970D01*
X77835368Y-75134324D01*
X77828545Y-75140384D01*
X77821418Y-75146144D01*
X77813992Y-75151600D01*
X77806277Y-75156747D01*
X77798278Y-75161580D01*
X77790005Y-75166094D01*
X77781463Y-75170286D01*
X77772661Y-75174149D01*
X77763606Y-75177679D01*
X77754306Y-75180873D01*
X77744767Y-75183724D01*
X77734998Y-75186228D01*
X77725005Y-75188381D01*
X77714797Y-75190177D01*
X77704380Y-75191612D01*
X77693763Y-75192681D01*
X77682952Y-75193380D01*
X77671954Y-75193704D01*
X77660779Y-75193647D01*
X77649432Y-75193206D01*
X77630922Y-75191799D01*
X77613470Y-75189624D01*
X77597042Y-75186659D01*
X77581606Y-75182881D01*
X77567127Y-75178267D01*
X77553572Y-75172794D01*
X77540907Y-75166440D01*
X77529099Y-75159181D01*
X77518115Y-75150994D01*
X77507921Y-75141856D01*
X77498483Y-75131745D01*
X77489769Y-75120638D01*
X77481744Y-75108511D01*
X77474375Y-75095341D01*
X77467629Y-75081106D01*
X77461472Y-75065783D01*
X77458627Y-75057205D01*
X77454354Y-75042480D01*
X77442316Y-74997785D01*
X77426944Y-74938088D01*
X77409825Y-74869780D01*
X77392938Y-74802509D01*
X77378234Y-74745637D01*
X77367260Y-74705116D01*
X77363656Y-74692848D01*
X77361565Y-74686900D01*
X77360201Y-74684432D01*
X77358651Y-74681954D01*
X77356923Y-74679468D01*
X77355023Y-74676979D01*
X77352957Y-74674490D01*
X77350730Y-74672005D01*
X77345822Y-74667063D01*
X77340349Y-74662182D01*
X77334359Y-74657395D01*
X77327904Y-74652730D01*
X77321031Y-74648218D01*
X77313791Y-74643889D01*
X77306234Y-74639775D01*
X77298409Y-74635905D01*
X77290366Y-74632310D01*
X77282154Y-74629019D01*
X77273823Y-74626065D01*
X77265422Y-74623476D01*
X77257002Y-74621283D01*
X77238539Y-74617728D01*
X77220063Y-74615601D01*
X77201704Y-74614854D01*
X77183587Y-74615436D01*
X77165839Y-74617298D01*
X77148588Y-74620390D01*
X77131961Y-74624663D01*
X77116085Y-74630067D01*
X77101087Y-74636553D01*
X77087094Y-74644070D01*
X77074233Y-74652570D01*
X77062632Y-74662002D01*
X77057344Y-74667053D01*
X77052418Y-74672318D01*
X77047870Y-74677791D01*
X77043717Y-74683467D01*
X77039974Y-74689338D01*
X77036657Y-74695399D01*
X77033782Y-74701644D01*
X77031365Y-74708066D01*
X77030382Y-74711281D01*
X77029494Y-74714797D01*
X77028696Y-74718704D01*
X77027985Y-74723095D01*
X77027356Y-74728061D01*
X77026804Y-74733695D01*
X77026325Y-74740087D01*
X77025915Y-74747331D01*
X77025569Y-74755517D01*
X77025284Y-74764737D01*
X77024876Y-74786648D01*
X77024657Y-74813797D01*
X77024592Y-74846920D01*
X77024905Y-74889561D01*
X77025591Y-74925402D01*
X77026742Y-74955378D01*
X77028455Y-74980428D01*
X77030822Y-75001490D01*
X77033938Y-75019501D01*
X77037898Y-75035398D01*
X77042795Y-75050119D01*
X77044751Y-75055139D01*
X77046813Y-75059962D01*
X77048987Y-75064591D01*
X77051280Y-75069030D01*
X77053699Y-75073282D01*
X77056251Y-75077352D01*
X77058942Y-75081243D01*
X77061779Y-75084959D01*
X77064768Y-75088502D01*
X77067917Y-75091878D01*
X77071232Y-75095089D01*
X77074719Y-75098139D01*
X77078385Y-75101032D01*
X77082237Y-75103771D01*
X77086282Y-75106361D01*
X77090526Y-75108804D01*
X77094976Y-75111105D01*
X77099638Y-75113267D01*
X77104520Y-75115293D01*
X77109627Y-75117187D01*
X77114967Y-75118954D01*
X77120546Y-75120596D01*
X77126372Y-75122118D01*
X77132449Y-75123522D01*
X77138786Y-75124813D01*
X77145389Y-75125994D01*
X77159418Y-75128040D01*
X77174592Y-75129692D01*
X77190962Y-75130977D01*
X77203100Y-75131936D01*
X77213299Y-75132934D01*
X77221762Y-75134013D01*
X77225405Y-75134594D01*
X77228691Y-75135210D01*
X77231645Y-75135865D01*
X77234291Y-75136566D01*
X77236656Y-75137316D01*
X77238765Y-75138120D01*
X77240644Y-75138984D01*
X77242317Y-75139913D01*
X77243810Y-75140911D01*
X77245148Y-75141983D01*
X77246111Y-75142920D01*
X77247014Y-75143904D01*
X77247856Y-75144933D01*
X77248639Y-75146004D01*
X77249362Y-75147114D01*
X77250024Y-75148261D01*
X77250626Y-75149442D01*
X77251168Y-75150655D01*
X77251648Y-75151897D01*
X77252068Y-75153165D01*
X77252426Y-75154458D01*
X77252724Y-75155772D01*
X77252960Y-75157105D01*
X77253134Y-75158454D01*
X77253247Y-75159817D01*
X77253298Y-75161192D01*
X77253286Y-75162575D01*
X77253213Y-75163964D01*
X77253077Y-75165357D01*
X77252879Y-75166750D01*
X77252618Y-75168143D01*
X77252295Y-75169531D01*
X77251908Y-75170912D01*
X77251459Y-75172284D01*
X77250946Y-75173645D01*
X77250370Y-75174991D01*
X77249730Y-75176320D01*
X77249026Y-75177630D01*
X77248259Y-75178917D01*
X77247427Y-75180181D01*
X77246532Y-75181417D01*
X77245572Y-75182623D01*
X77244187Y-75184342D01*
X77243514Y-75185123D01*
X77242844Y-75185854D01*
X77242168Y-75186537D01*
X77241478Y-75187173D01*
X77240765Y-75187764D01*
X77240022Y-75188312D01*
X77239240Y-75188817D01*
X77238410Y-75189281D01*
X77237524Y-75189706D01*
X77236575Y-75190094D01*
X77235553Y-75190446D01*
X77234451Y-75190764D01*
X77233260Y-75191048D01*
X77231972Y-75191301D01*
X77230579Y-75191525D01*
X77229071Y-75191720D01*
X77227442Y-75191889D01*
X77225683Y-75192032D01*
X77223784Y-75192152D01*
X77221739Y-75192250D01*
X77219539Y-75192328D01*
X77217175Y-75192386D01*
X77211924Y-75192453D01*
X77205920Y-75192462D01*
X77199096Y-75192427D01*
X77191385Y-75192360D01*
X77177549Y-75191960D01*
X77164003Y-75191083D01*
X77150778Y-75189740D01*
X77137906Y-75187941D01*
X77125419Y-75185696D01*
X77113347Y-75183013D01*
X77101723Y-75179904D01*
X77090579Y-75176379D01*
X77079945Y-75172447D01*
X77069855Y-75168117D01*
X77060338Y-75163401D01*
X77051427Y-75158308D01*
X77043154Y-75152847D01*
X77035550Y-75147030D01*
X77028646Y-75140865D01*
X77022475Y-75134363D01*
X77018584Y-75129662D01*
X77014702Y-75124479D01*
X77010849Y-75118857D01*
X77007043Y-75112839D01*
X77003305Y-75106469D01*
X76999652Y-75099790D01*
X76996105Y-75092846D01*
X76992683Y-75085680D01*
X76989405Y-75078335D01*
X76986289Y-75070855D01*
X76983356Y-75063283D01*
X76980625Y-75055663D01*
X76978114Y-75048038D01*
X76975843Y-75040451D01*
X76973832Y-75032946D01*
X76972098Y-75025566D01*
X76970200Y-75014825D01*
X76968477Y-75000988D01*
X76965590Y-74965784D01*
X76963496Y-74923455D01*
X76962256Y-74877506D01*
X76961929Y-74831437D01*
X76962573Y-74788751D01*
X76964250Y-74752951D01*
X76965494Y-74738728D01*
X76967018Y-74727540D01*
X76969574Y-74714635D01*
X76972642Y-74702269D01*
X76976229Y-74690433D01*
X76980340Y-74679121D01*
X76984982Y-74668325D01*
X76990161Y-74658037D01*
X76995883Y-74648250D01*
X77002155Y-74638957D01*
X77008982Y-74630150D01*
X77016372Y-74621822D01*
X77024329Y-74613965D01*
X77032860Y-74606572D01*
X77041972Y-74599636D01*
X77051670Y-74593148D01*
X77061961Y-74587102D01*
X77072852Y-74581490D01*
X77080361Y-74577916D01*
X77087681Y-74574650D01*
X77094861Y-74571682D01*
X77101949Y-74569002D01*
X77108996Y-74566599D01*
X77116049Y-74564464D01*
X77123158Y-74562587D01*
X77130372Y-74560958D01*
X77137740Y-74559567D01*
X77145310Y-74558405D01*
X77153133Y-74557461D01*
X77161256Y-74556725D01*
X77169728Y-74556187D01*
X77178600Y-74555838D01*
X77187919Y-74555668D01*
X77197735Y-74555667D01*
X77212830Y-74555896D01*
X77227329Y-74556588D01*
X77241252Y-74557748D01*
X77254621Y-74559384D01*
X77267453Y-74561501D01*
X77279769Y-74564105D01*
X77291589Y-74567203D01*
X77302933Y-74570801D01*
X77313821Y-74574904D01*
X77324272Y-74579520D01*
X77334306Y-74584655D01*
X77343944Y-74590313D01*
X77353204Y-74596503D01*
X77362108Y-74603230D01*
X77370673Y-74610500D01*
X77378922Y-74618319D01*
X77386593Y-74626152D01*
X77390138Y-74629958D01*
X77393516Y-74633769D01*
X77396746Y-74637643D01*
X77399848Y-74641640D01*
X77402841Y-74645818D01*
X77405744Y-74650235D01*
X77408577Y-74654950D01*
X77411360Y-74660023D01*
X77414111Y-74665511D01*
X77416851Y-74671474D01*
X77419598Y-74677969D01*
X77422373Y-74685056D01*
X77425194Y-74692794D01*
X77428081Y-74701240D01*
X77431054Y-74710454D01*
X77434132Y-74720495D01*
X77437335Y-74731420D01*
X77440681Y-74743290D01*
X77447884Y-74770094D01*
X77455896Y-74801378D01*
X77464872Y-74837611D01*
X77474970Y-74879261D01*
X77499148Y-74980693D01*
X77506256Y-75009308D01*
X77509518Y-75021442D01*
X77512669Y-75032287D01*
X77515770Y-75041961D01*
X77518883Y-75050583D01*
X77522071Y-75058272D01*
X77525395Y-75065148D01*
X77528918Y-75071329D01*
X77532701Y-75076935D01*
X77536806Y-75082085D01*
X77541297Y-75086897D01*
X77546233Y-75091490D01*
X77551678Y-75095985D01*
X77557694Y-75100499D01*
X77564342Y-75105153D01*
X77570253Y-75108950D01*
X77576108Y-75112408D01*
X77581953Y-75115538D01*
X77587830Y-75118349D01*
X77593784Y-75120850D01*
X77599860Y-75123049D01*
X77606100Y-75124958D01*
X77612549Y-75126584D01*
X77619251Y-75127938D01*
X77626250Y-75129027D01*
X77633590Y-75129863D01*
X77641316Y-75130454D01*
X77649470Y-75130809D01*
X77658098Y-75130937D01*
X77667242Y-75130849D01*
X77676948Y-75130553D01*
X77691800Y-75130079D01*
X77698028Y-75129802D01*
X77703605Y-75129462D01*
X77708642Y-75129029D01*
X77713248Y-75128477D01*
X77717534Y-75127777D01*
X77721610Y-75126902D01*
X77725587Y-75125823D01*
X77729576Y-75124513D01*
X77733686Y-75122944D01*
X77738027Y-75121088D01*
X77742712Y-75118916D01*
X77747848Y-75116402D01*
X77759922Y-75110233D01*
X77767725Y-75106130D01*
X77774960Y-75102056D01*
X77781654Y-75097982D01*
X77787835Y-75093875D01*
X77793530Y-75089707D01*
X77798766Y-75085446D01*
X77803570Y-75081062D01*
X77807970Y-75076525D01*
X77811993Y-75071805D01*
X77815666Y-75066870D01*
X77819017Y-75061691D01*
X77822072Y-75056238D01*
X77824860Y-75050480D01*
X77827407Y-75044386D01*
X77829741Y-75037926D01*
X77831888Y-75031069D01*
X77832941Y-75027218D01*
X77833877Y-75023196D01*
X77834700Y-75018872D01*
X77835414Y-75014116D01*
X77836021Y-75008798D01*
X77836524Y-75002785D01*
X77836927Y-74995947D01*
X77837233Y-74988154D01*
X77837444Y-74979275D01*
X77837565Y-74969178D01*
X77837544Y-74944809D01*
X77837196Y-74914001D01*
X77836545Y-74875706D01*
X77835734Y-74829178D01*
X77834739Y-74792561D01*
X77833338Y-74764100D01*
X77832415Y-74752379D01*
X77831306Y-74742039D01*
X77829985Y-74732859D01*
X77828422Y-74724621D01*
X77826589Y-74717105D01*
X77824460Y-74710091D01*
X77822006Y-74703359D01*
X77819199Y-74696691D01*
X77812415Y-74682667D01*
X77810210Y-74678432D01*
X77807953Y-74674377D01*
X77805637Y-74670497D01*
X77803252Y-74666789D01*
X77800790Y-74663249D01*
X77798241Y-74659873D01*
X77795597Y-74656656D01*
X77792849Y-74653595D01*
X77789988Y-74650687D01*
X77787006Y-74647926D01*
X77783893Y-74645309D01*
X77780640Y-74642833D01*
X77777240Y-74640492D01*
X77773682Y-74638284D01*
X77769958Y-74636204D01*
X77766060Y-74634248D01*
X77761978Y-74632412D01*
X77757704Y-74630693D01*
X77753229Y-74629086D01*
X77748543Y-74627588D01*
X77743639Y-74626194D01*
X77738506Y-74624900D01*
X77733138Y-74623704D01*
X77727524Y-74622600D01*
X77721655Y-74621584D01*
X77715524Y-74620653D01*
X77702436Y-74619030D01*
X77688190Y-74617699D01*
X77672715Y-74616627D01*
X77663770Y-74616019D01*
X77655644Y-74615296D01*
X77648305Y-74614443D01*
X77641719Y-74613445D01*
X77635852Y-74612285D01*
X77630671Y-74610949D01*
X77626142Y-74609420D01*
X77622233Y-74607684D01*
X77618908Y-74605724D01*
X77617455Y-74604655D01*
X77616136Y-74603525D01*
X77614946Y-74602332D01*
X77613881Y-74601073D01*
X77612938Y-74599746D01*
X77612112Y-74598350D01*
X77611399Y-74596883D01*
X77610795Y-74595343D01*
X77609895Y-74592034D01*
X77609379Y-74588409D01*
X77609215Y-74584453D01*
X77609254Y-74582732D01*
X77609369Y-74581060D01*
X77609561Y-74579439D01*
X77609830Y-74577867D01*
X77610176Y-74576347D01*
X77610599Y-74574877D01*
X77611099Y-74573458D01*
X77611676Y-74572090D01*
X77612329Y-74570774D01*
X77613060Y-74569510D01*
X77613867Y-74568297D01*
X77614751Y-74567137D01*
X77615713Y-74566029D01*
X77616751Y-74564974D01*
X77617866Y-74563971D01*
X77619058Y-74563022D01*
X77620326Y-74562126D01*
X77621672Y-74561283D01*
X77623095Y-74560495D01*
X77624594Y-74559760D01*
X77626170Y-74559080D01*
X77627824Y-74558454D01*
X77629554Y-74557883D01*
X77631361Y-74557366D01*
X77633245Y-74556905D01*
X77635205Y-74556500D01*
X77637243Y-74556150D01*
X77639358Y-74555856D01*
X77641549Y-74555618D01*
X77643818Y-74555436D01*
X77646163Y-74555311D01*
X77648585Y-74555243D01*
X77664840Y-74555070D01*
X77679244Y-74555210D01*
G37*
%TD*%
%LPC*%
D14*
%TO.C,H1*%
X81050000Y-46050000D03*
%TD*%
D15*
%TO.C,H3*%
X121000000Y-87000000D03*
%TD*%
D14*
%TO.C,H4*%
X79000000Y-84000000D03*
%TD*%
%TO.C,H2*%
X118950000Y-46050000D03*
%TD*%
D16*
%TO.C,H5*%
X78505200Y-66022400D03*
%TD*%
D17*
%TO.C,SC1*%
X116503600Y-78124000D03*
D18*
X116450000Y-57905600D03*
D19*
X116500800Y-86455200D03*
D20*
X90643600Y-81324400D03*
X105883600Y-81324400D03*
X90643600Y-55924400D03*
X105883600Y-55924400D03*
D19*
X116500800Y-50844400D03*
%TD*%
D21*
%TO.C,TK1*%
X120974000Y-59672400D03*
D22*
X120974000Y-72372400D03*
%TD*%
D23*
%TO.C,D1*%
X95771300Y-45221000D03*
D24*
X99256800Y-45221000D03*
%TD*%
%LPD*%
M02*
