M48
; DRILL file KiCad 10.0.5 date 2026-10-02T22:28:09
; FORMAT={-:-/ absolute / metric / decimal}
; #@! TF.CreationDate,2026-10-02T22:28:09-03:00
; #@! TF.GenerationSoftware,Kicad,Pcbnew,10.0.5
; #@! TF.FileFunction,Plated,1,6,PTH
FMAT,2
METRIC
; #@! TA.AperFunction,Plated,PTH,ViaDrill
T1C0.305
; #@! TA.AperFunction,Plated,PTH,ViaDrill
T2C0.400
; #@! TA.AperFunction,Plated,PTH,ComponentDrill
T3C0.800
; #@! TA.AperFunction,Plated,PTH,ComponentDrill
T4C2.200
%
G90
G05
T1
X94.152Y-45.169
X96.184Y-49.408
X99.2Y-66.64
X99.201Y-65.76
X101.772Y-45.169
X103.753Y-83.244
X115.04Y-82.92
X115.742Y-55.151
X115.742Y-57.285
X115.767Y-60.739
X115.767Y-75.293
X115.767Y-80.932
X116.732Y-78.037
X117.697Y-55.151
X117.697Y-57.285
X117.697Y-60.739
X117.875Y-75.293
X117.875Y-80.932
T2
X93.44Y-47.074
T3
X120.974Y-59.672
X120.974Y-72.372
T4
X78.505Y-66.022
X79.0Y-84.0
X81.05Y-46.05
X118.95Y-46.05
X121.0Y-87.0
M30
