%TF.GenerationSoftware,KiCad,Pcbnew,10.0.5*%
%TF.CreationDate,2026-10-02T22:28:14-03:00*%
%TF.ProjectId,PQ_Lat_Board,50515f4c-6174-45f4-926f-6172642e6b69,rev?*%
%TF.SameCoordinates,Original*%
%TF.FileFunction,Copper,L6,Bot*%
%TF.FilePolarity,Positive*%
%FSLAX46Y46*%
G04 Gerber Fmt 4.6, Leading zero omitted, Abs format (unit mm)*
G04 Created by KiCad (PCBNEW 10.0.5) date 2026-10-02 22:28:14*
%MOMM*%
%LPD*%
G01*
G04 APERTURE LIST*
G04 Aperture macros list*
%AMRoundRect*
0 Rectangle with rounded corners*
0 $1 Rounding radius*
0 $2 $3 $4 $5 $6 $7 $8 $9 X,Y pos of 4 corners*
0 Add a 4 corners polygon primitive as box body*
4,1,4,$2,$3,$4,$5,$6,$7,$8,$9,$2,$3,0*
0 Add four circle primitives for the rounded corners*
1,1,$1+$1,$2,$3*
1,1,$1+$1,$4,$5*
1,1,$1+$1,$6,$7*
1,1,$1+$1,$8,$9*
0 Add four rect primitives between the rounded corners*
20,1,$1+$1,$2,$3,$4,$5,0*
20,1,$1+$1,$4,$5,$6,$7,0*
20,1,$1+$1,$6,$7,$8,$9,0*
20,1,$1+$1,$8,$9,$2,$3,0*%
G04 Aperture macros list end*
%TA.AperFunction,ComponentPad*%
%ADD10C,4.400000*%
%TD*%
%TA.AperFunction,ComponentPad*%
%ADD11C,3.500000*%
%TD*%
%TA.AperFunction,ComponentPad*%
%ADD12C,2.600000*%
%TD*%
%TA.AperFunction,SMDPad,CuDef*%
%ADD13RoundRect,0.571429X1.428571X-2.928571X1.428571X2.928571X-1.428571X2.928571X-1.428571X-2.928571X0*%
%TD*%
%TA.AperFunction,SMDPad,CuDef*%
%ADD14RoundRect,0.800000X1.200000X-2.700000X1.200000X2.700000X-1.200000X2.700000X-1.200000X-2.700000X0*%
%TD*%
%TA.AperFunction,SMDPad,CuDef*%
%ADD15RoundRect,0.571429X1.428571X-1.928571X1.428571X1.928571X-1.428571X1.928571X-1.428571X-1.928571X0*%
%TD*%
%TA.AperFunction,SMDPad,CuDef*%
%ADD16RoundRect,1.250000X1.250000X-1.250000X1.250000X1.250000X-1.250000X1.250000X-1.250000X-1.250000X0*%
%TD*%
%TA.AperFunction,ComponentPad*%
%ADD17C,1.600000*%
%TD*%
%TA.AperFunction,ComponentPad*%
%ADD18O,1.600000X1.600000*%
%TD*%
%TA.AperFunction,SMDPad,CuDef*%
%ADD19R,1.000000X1.500000*%
%TD*%
%TA.AperFunction,SMDPad,CuDef*%
%ADD20R,2.000000X2.000000*%
%TD*%
%TA.AperFunction,ViaPad*%
%ADD21C,0.610000*%
%TD*%
%TA.AperFunction,ViaPad*%
%ADD22C,0.800000*%
%TD*%
%TA.AperFunction,Conductor*%
%ADD23C,1.000000*%
%TD*%
%TA.AperFunction,Conductor*%
%ADD24C,5.000000*%
%TD*%
%TA.AperFunction,Conductor*%
%ADD25C,0.250000*%
%TD*%
G04 APERTURE END LIST*
D10*
%TO.P,H1,1,1*%
%TO.N,GND*%
X81050000Y-46050000D03*
%TD*%
D11*
%TO.P,H3,1,1*%
%TO.N,GND*%
X121000000Y-87000000D03*
%TD*%
D10*
%TO.P,H4,1,1*%
%TO.N,GND*%
X79000000Y-84000000D03*
%TD*%
%TO.P,H2,1,1*%
%TO.N,GND*%
X118950000Y-46050000D03*
%TD*%
D12*
%TO.P,H5,1,1*%
%TO.N,/Antenna Connector*%
X78505200Y-66022400D03*
%TD*%
D13*
%TO.P,SC1,1*%
%TO.N,GND*%
X116503600Y-78124000D03*
D14*
X116450000Y-57905600D03*
D15*
%TO.P,SC1,2*%
%TO.N,unconnected-(SC1-Pad2)*%
X116500800Y-86455200D03*
D16*
%TO.P,SC1,3*%
%TO.N,/SOLAR*%
X90643600Y-81324400D03*
X105883600Y-81324400D03*
X90643600Y-55924400D03*
X105883600Y-55924400D03*
D15*
X116500800Y-50844400D03*
%TD*%
D17*
%TO.P,TK1,1*%
%TO.N,/BURNCOMMS*%
X120974000Y-59672400D03*
D18*
%TO.P,TK1,2*%
%TO.N,GND*%
X120974000Y-72372400D03*
%TD*%
D19*
%TO.P,D1,1*%
%TO.N,/PH-*%
X95771300Y-45221000D03*
D20*
%TO.P,D1,2*%
%TO.N,/PH+*%
X99256800Y-45221000D03*
%TD*%
D21*
%TO.N,GND*%
X115767000Y-60739200D03*
X117697400Y-57284800D03*
X117697400Y-55151200D03*
X117875200Y-75293400D03*
X117875200Y-80932200D03*
X115767000Y-75293400D03*
X115767000Y-80932200D03*
X115741600Y-55151200D03*
X116732200Y-78036600D03*
X117697400Y-60739200D03*
X115741600Y-57284800D03*
D22*
%TO.N,/SOLAR*%
X93440400Y-47074000D03*
D21*
%TO.N,/VCC_MAG*%
X103752800Y-83243600D03*
X99200000Y-66640000D03*
X96183600Y-49408000D03*
X99201000Y-65760000D03*
X115040000Y-82920000D03*
%TO.N,/PH-*%
X94151600Y-45169000D03*
%TO.N,/PH+*%
X101771600Y-45169000D03*
%TD*%
%TO.N,/SOLAR*%
D23*
X113633400Y-47074000D02*
X115716200Y-49156800D01*
D24*
X105883600Y-81324400D02*
X105883600Y-55924400D01*
D23*
X93440400Y-47074000D02*
X103651200Y-47074000D01*
X103651200Y-47074000D02*
X113633400Y-47074000D01*
X105883600Y-49306400D02*
X103651200Y-47074000D01*
X90643600Y-49870800D02*
X90643600Y-55924400D01*
X93440400Y-47074000D02*
X90643600Y-49870800D01*
D24*
X90643600Y-81324400D02*
X90643600Y-55924400D01*
D23*
X105883600Y-55924400D02*
X105883600Y-49306400D01*
%TO.N,/PH-*%
D25*
X95719300Y-45169000D02*
X95771300Y-45221000D01*
X94151600Y-45169000D02*
X95719300Y-45169000D01*
%TO.N,/PH+*%
X101771600Y-45169000D02*
X98973300Y-45169000D01*
X98973300Y-45169000D02*
X98921300Y-45221000D01*
%TD*%
M02*
