%TF.GenerationSoftware,KiCad,Pcbnew,10.0.5*%
%TF.CreationDate,2026-10-02T22:40:24-03:00*%
%TF.ProjectId,PQ1_TopBoard,5051315f-546f-4704-926f-6172642e6b69,rev?*%
%TF.SameCoordinates,Original*%
%TF.FileFunction,Copper,L2,Bot*%
%TF.FilePolarity,Positive*%
%FSLAX46Y46*%
G04 Gerber Fmt 4.6, Leading zero omitted, Abs format (unit mm)*
G04 Created by KiCad (PCBNEW 10.0.5) date 2026-10-02 22:40:24*
%MOMM*%
%LPD*%
G01*
G04 APERTURE LIST*
G04 Aperture macros list*
%AMRoundRect*
0 Rectangle with rounded corners*
0 $1 Rounding radius*
0 $2 $3 $4 $5 $6 $7 $8 $9 X,Y pos of 4 corners*
0 Add a 4 corners polygon primitive as box body*
4,1,4,$2,$3,$4,$5,$6,$7,$8,$9,$2,$3,0*
0 Add four circle primitives for the rounded corners*
1,1,$1+$1,$2,$3*
1,1,$1+$1,$4,$5*
1,1,$1+$1,$6,$7*
1,1,$1+$1,$8,$9*
0 Add four rect primitives between the rounded corners*
20,1,$1+$1,$2,$3,$4,$5,0*
20,1,$1+$1,$4,$5,$6,$7,0*
20,1,$1+$1,$6,$7,$8,$9,0*
20,1,$1+$1,$8,$9,$2,$3,0*%
G04 Aperture macros list end*
%TA.AperFunction,ComponentPad*%
%ADD10C,5.500000*%
%TD*%
%TA.AperFunction,SMDPad,CuDef*%
%ADD11RoundRect,0.200000X0.600000X-0.200000X0.600000X0.200000X-0.600000X0.200000X-0.600000X-0.200000X0*%
%TD*%
%TA.AperFunction,SMDPad,CuDef*%
%ADD12RoundRect,0.250001X1.249999X-0.799999X1.249999X0.799999X-1.249999X0.799999X-1.249999X-0.799999X0*%
%TD*%
%TA.AperFunction,SMDPad,CuDef*%
%ADD13RoundRect,0.250000X-0.262500X-0.450000X0.262500X-0.450000X0.262500X0.450000X-0.262500X0.450000X0*%
%TD*%
%TA.AperFunction,SMDPad,CuDef*%
%ADD14R,1.550000X0.700000*%
%TD*%
%TA.AperFunction,SMDPad,CuDef*%
%ADD15RoundRect,0.250000X0.262500X0.450000X-0.262500X0.450000X-0.262500X-0.450000X0.262500X-0.450000X0*%
%TD*%
%TA.AperFunction,SMDPad,CuDef*%
%ADD16RoundRect,0.225000X-0.250000X0.225000X-0.250000X-0.225000X0.250000X-0.225000X0.250000X0.225000X0*%
%TD*%
%TA.AperFunction,ViaPad*%
%ADD17C,0.800000*%
%TD*%
%TA.AperFunction,Conductor*%
%ADD18C,0.200000*%
%TD*%
%TA.AperFunction,Conductor*%
%ADD19C,0.250000*%
%TD*%
%TA.AperFunction,Conductor*%
%ADD20C,0.400000*%
%TD*%
G04 APERTURE END LIST*
D10*
%TO.P,H1,1,1*%
%TO.N,GND*%
X86256000Y-41774000D03*
%TD*%
%TO.P,H2,1,1*%
%TO.N,GND*%
X119256000Y-41774000D03*
%TD*%
%TO.P,H3,1,1*%
%TO.N,GND*%
X119256000Y-74774000D03*
%TD*%
%TO.P,H4,1,1*%
%TO.N,GND*%
X86256000Y-74774000D03*
%TD*%
D11*
%TO.P,J1,1,Pin_1*%
%TO.N,/SOLAR_Y*%
X96031000Y-63255000D03*
%TO.P,J1,2,Pin_2*%
%TO.N,GND*%
X96031000Y-62005000D03*
%TO.P,J1,3,Pin_3*%
X96031000Y-60755000D03*
%TO.P,J1,4,Pin_4*%
%TO.N,/3V3_PERM*%
X96031000Y-59505000D03*
%TO.P,J1,5,Pin_5*%
%TO.N,/SDA*%
X96031000Y-58255000D03*
%TO.P,J1,6,Pin_6*%
%TO.N,/SCL*%
X96031000Y-57005000D03*
%TO.P,J1,7,Pin_7*%
%TO.N,/PH-*%
X96031000Y-55755000D03*
%TO.P,J1,8,Pin_8*%
%TO.N,/PH+*%
X96031000Y-54505000D03*
%TO.P,J1,9,Pin_9*%
%TO.N,/BURNCOMMS*%
X96031000Y-53255000D03*
D12*
%TO.P,J1,MP,MountPin*%
%TO.N,GND*%
X93131000Y-65805000D03*
X93131000Y-50705000D03*
%TD*%
D13*
%TO.P,VA0,1*%
%TO.N,Net-(IC1-A0)*%
X113316000Y-51905000D03*
%TO.P,VA0,2*%
%TO.N,/3V3_PERM*%
X115141000Y-51905000D03*
%TD*%
D14*
%TO.P,IC1,1,SDA*%
%TO.N,/SDA*%
X108251500Y-58230400D03*
%TO.P,IC1,2,SCL*%
%TO.N,/SCL*%
X108251500Y-56960400D03*
%TO.P,IC1,3,ALERT*%
%TO.N,GND*%
X108251500Y-55690400D03*
%TO.P,IC1,4,GND*%
X108251500Y-54420400D03*
%TO.P,IC1,5,A2*%
%TO.N,Net-(IC1-A2)*%
X113651500Y-54420400D03*
%TO.P,IC1,6,A1*%
%TO.N,Net-(IC1-A1)*%
X113651500Y-55690400D03*
%TO.P,IC1,7,A0*%
%TO.N,Net-(IC1-A0)*%
X113651500Y-56960400D03*
%TO.P,IC1,8,VDD*%
%TO.N,/3V3_PERM*%
X113651500Y-58230400D03*
%TD*%
D15*
%TO.P,GA0,1*%
%TO.N,Net-(IC1-A0)*%
X108791000Y-51879600D03*
%TO.P,GA0,2*%
%TO.N,GND*%
X106966000Y-51879600D03*
%TD*%
D16*
%TO.P,C1,1*%
%TO.N,/3V3_PERM*%
X113542700Y-60070800D03*
%TO.P,C1,2*%
%TO.N,GND*%
X113542700Y-61620800D03*
%TD*%
D13*
%TO.P,VA2,1*%
%TO.N,Net-(IC1-A2)*%
X113341400Y-47358400D03*
%TO.P,VA2,2*%
%TO.N,/3V3_PERM*%
X115166400Y-47358400D03*
%TD*%
D15*
%TO.P,GA1,1*%
%TO.N,Net-(IC1-A1)*%
X108791000Y-49568200D03*
%TO.P,GA1,2*%
%TO.N,GND*%
X106966000Y-49568200D03*
%TD*%
%TO.P,GA2,1*%
%TO.N,Net-(IC1-A2)*%
X108765600Y-47307600D03*
%TO.P,GA2,2*%
%TO.N,GND*%
X106940600Y-47307600D03*
%TD*%
D13*
%TO.P,VA1,1*%
%TO.N,Net-(IC1-A1)*%
X113341400Y-49593600D03*
%TO.P,VA1,2*%
%TO.N,/3V3_PERM*%
X115166400Y-49593600D03*
%TD*%
D17*
%TO.N,GND*%
X99256000Y-73074000D03*
X94256000Y-63074000D03*
X104256000Y-38074000D03*
X89256000Y-78074000D03*
X114256000Y-43074000D03*
X114256000Y-63074000D03*
X84256000Y-68074000D03*
X119256000Y-53074000D03*
X84256000Y-53074000D03*
X124256000Y-68074000D03*
X84256000Y-38074000D03*
X94256000Y-43074000D03*
X104256000Y-53074000D03*
X124256000Y-38074000D03*
X109256000Y-78074000D03*
%TO.N,/PH-*%
X99168200Y-41706800D03*
%TO.N,/PH+*%
X107347000Y-41745000D03*
%TD*%
%TO.N,/PH-*%
D18*
X99168200Y-41706800D02*
X99168200Y-53987800D01*
X99168200Y-53987800D02*
X97401000Y-55755000D01*
X97401000Y-55755000D02*
X96031000Y-55755000D01*
%TO.N,/PH+*%
X98763000Y-39967000D02*
X97949000Y-40781000D01*
X107347000Y-41745000D02*
X105569000Y-39967000D01*
X97949000Y-40781000D02*
X97949000Y-53556000D01*
X105569000Y-39967000D02*
X98763000Y-39967000D01*
X96981000Y-54524000D02*
X96274648Y-54524000D01*
X97949000Y-53556000D02*
X96981000Y-54524000D01*
%TO.N,/SDA*%
D19*
X96050000Y-58274000D02*
X108207900Y-58274000D01*
X108207900Y-58274000D02*
X108251500Y-58230400D01*
X96031000Y-58255000D02*
X96050000Y-58274000D01*
%TO.N,/SCL*%
X96031000Y-57005000D02*
X96050000Y-57024000D01*
X96050000Y-57024000D02*
X108187900Y-57024000D01*
X108187900Y-57024000D02*
X108251500Y-56960400D01*
%TO.N,/3V3_PERM*%
D20*
X115600100Y-53403600D02*
X115141000Y-52944500D01*
X113542700Y-60070800D02*
X114647900Y-60070800D01*
D19*
X115166400Y-49593600D02*
X115166400Y-47358400D01*
D20*
X115600100Y-59118600D02*
X115600100Y-53403600D01*
X96031000Y-59505000D02*
X96050000Y-59524000D01*
X110432800Y-60070800D02*
X113542700Y-60070800D01*
X114647900Y-60070800D02*
X115600100Y-59118600D01*
X115141000Y-51905000D02*
X115141000Y-49619000D01*
X113542700Y-60070800D02*
X113542700Y-58289200D01*
X109886000Y-59524000D02*
X110432800Y-60070800D01*
X113542700Y-58289200D02*
X113551500Y-58280400D01*
X96050000Y-59524000D02*
X109886000Y-59524000D01*
X115141000Y-52944500D02*
X115141000Y-51905000D01*
%TO.N,Net-(IC1-A0)*%
D19*
X108791000Y-51879600D02*
X109707300Y-51879600D01*
X113949100Y-53505200D02*
X113316000Y-52872100D01*
X114584100Y-53505200D02*
X113949100Y-53505200D01*
X114990500Y-56580500D02*
X114990500Y-53911600D01*
X109707300Y-51879600D02*
X110215300Y-52387600D01*
X110215300Y-52387600D02*
X110215300Y-55461000D01*
X113316000Y-52872100D02*
X113316000Y-51905000D01*
X110215300Y-55461000D02*
X111764700Y-57010400D01*
X114990500Y-53911600D02*
X114584100Y-53505200D01*
X113651500Y-56960400D02*
X114610600Y-56960400D01*
X111764700Y-57010400D02*
X113551500Y-57010400D01*
X114610600Y-56960400D02*
X114990500Y-56580500D01*
%TO.N,Net-(IC1-A1)*%
X107878500Y-46519027D02*
X107878500Y-48679200D01*
X111002700Y-54699000D02*
X112044100Y-55740400D01*
X111002700Y-50685800D02*
X111002700Y-54699000D01*
X113444673Y-45936000D02*
X108461527Y-45936000D01*
X114178900Y-48756100D02*
X114178900Y-46670227D01*
X112044100Y-55740400D02*
X113551500Y-55740400D01*
X108791000Y-49568200D02*
X109885100Y-49568200D01*
X107878500Y-48679200D02*
X108767500Y-49568200D01*
X113341400Y-49593600D02*
X114178900Y-48756100D01*
X114178900Y-46670227D02*
X113444673Y-45936000D01*
X108767500Y-49568200D02*
X108791000Y-49568200D01*
X109885100Y-49568200D02*
X111002700Y-50685800D01*
X108461527Y-45936000D02*
X107878500Y-46519027D01*
%TO.N,Net-(IC1-A2)*%
X110367700Y-47358400D02*
X108816400Y-47358400D01*
X108816400Y-47358400D02*
X108765600Y-47307600D01*
X110367700Y-47358400D02*
X111942500Y-48933200D01*
X112501300Y-54470400D02*
X113551500Y-54470400D01*
X111942500Y-48933200D02*
X111942500Y-53911600D01*
X113341400Y-47358400D02*
X110367700Y-47358400D01*
X111942500Y-53911600D02*
X112501300Y-54470400D01*
%TD*%
%TA.AperFunction,Conductor*%
%TO.N,GND*%
G36*
X127697621Y-33294502D02*
G01*
X127744114Y-33348158D01*
X127755500Y-33400500D01*
X127755500Y-83147500D01*
X127735498Y-83215621D01*
X127681842Y-83262114D01*
X127629500Y-83273500D01*
X77882500Y-83273500D01*
X77814379Y-83253498D01*
X77767886Y-83199842D01*
X77756500Y-83147500D01*
X77756500Y-74613938D01*
X82998000Y-74613938D01*
X82998000Y-74934061D01*
X83029374Y-75252609D01*
X83029376Y-75252625D01*
X83091827Y-75566584D01*
X83184747Y-75872901D01*
X83307251Y-76168654D01*
X83458151Y-76450969D01*
X83635990Y-76717123D01*
X83686113Y-76778199D01*
X83686114Y-76778200D01*
X84875464Y-75588849D01*
X84887557Y-75612583D01*
X85035588Y-75816330D01*
X85213670Y-75994412D01*
X85417417Y-76142443D01*
X85441149Y-76154535D01*
X84251798Y-77343885D01*
X84312876Y-77394009D01*
X84579030Y-77571848D01*
X84861345Y-77722748D01*
X85157098Y-77845252D01*
X85463415Y-77938172D01*
X85463414Y-77938172D01*
X85777374Y-78000623D01*
X85777390Y-78000625D01*
X86095938Y-78031999D01*
X86095954Y-78032000D01*
X86416046Y-78032000D01*
X86416061Y-78031999D01*
X86734609Y-78000625D01*
X86734625Y-78000623D01*
X87048584Y-77938172D01*
X87354901Y-77845252D01*
X87650654Y-77722748D01*
X87932969Y-77571848D01*
X88199120Y-77394012D01*
X88199126Y-77394007D01*
X88260200Y-77343885D01*
X87070850Y-76154535D01*
X87094583Y-76142443D01*
X87298330Y-75994412D01*
X87476412Y-75816330D01*
X87624443Y-75612583D01*
X87636535Y-75588850D01*
X88825885Y-76778200D01*
X88876007Y-76717126D01*
X88876012Y-76717120D01*
X89053848Y-76450969D01*
X89204748Y-76168654D01*
X89327252Y-75872901D01*
X89420172Y-75566584D01*
X89482623Y-75252625D01*
X89482625Y-75252609D01*
X89513999Y-74934061D01*
X89514000Y-74934045D01*
X89514000Y-74613954D01*
X89513999Y-74613938D01*
X115998000Y-74613938D01*
X115998000Y-74934061D01*
X116029374Y-75252609D01*
X116029376Y-75252625D01*
X116091827Y-75566584D01*
X116184747Y-75872901D01*
X116307251Y-76168654D01*
X116458151Y-76450969D01*
X116635990Y-76717123D01*
X116686113Y-76778199D01*
X116686114Y-76778200D01*
X117875464Y-75588849D01*
X117887557Y-75612583D01*
X118035588Y-75816330D01*
X118213670Y-75994412D01*
X118417417Y-76142443D01*
X118441149Y-76154535D01*
X117251798Y-77343885D01*
X117312876Y-77394009D01*
X117579030Y-77571848D01*
X117861345Y-77722748D01*
X118157098Y-77845252D01*
X118463415Y-77938172D01*
X118463414Y-77938172D01*
X118777374Y-78000623D01*
X118777390Y-78000625D01*
X119095938Y-78031999D01*
X119095954Y-78032000D01*
X119416046Y-78032000D01*
X119416061Y-78031999D01*
X119734609Y-78000625D01*
X119734625Y-78000623D01*
X120048584Y-77938172D01*
X120354901Y-77845252D01*
X120650654Y-77722748D01*
X120932969Y-77571848D01*
X121199120Y-77394012D01*
X121199126Y-77394007D01*
X121260200Y-77343885D01*
X120070850Y-76154535D01*
X120094583Y-76142443D01*
X120298330Y-75994412D01*
X120476412Y-75816330D01*
X120624443Y-75612583D01*
X120636535Y-75588850D01*
X121825885Y-76778200D01*
X121876007Y-76717126D01*
X121876012Y-76717120D01*
X122053848Y-76450969D01*
X122204748Y-76168654D01*
X122327252Y-75872901D01*
X122420172Y-75566584D01*
X122482623Y-75252625D01*
X122482625Y-75252609D01*
X122513999Y-74934061D01*
X122514000Y-74934045D01*
X122514000Y-74613954D01*
X122513999Y-74613938D01*
X122482625Y-74295390D01*
X122482623Y-74295374D01*
X122420172Y-73981415D01*
X122327252Y-73675098D01*
X122204748Y-73379345D01*
X122053848Y-73097030D01*
X121876009Y-72830876D01*
X121825885Y-72769798D01*
X120636534Y-73959148D01*
X120624443Y-73935417D01*
X120476412Y-73731670D01*
X120298330Y-73553588D01*
X120094583Y-73405557D01*
X120070850Y-73393464D01*
X121260200Y-72204114D01*
X121260199Y-72204113D01*
X121199123Y-72153990D01*
X120932969Y-71976151D01*
X120650654Y-71825251D01*
X120354901Y-71702747D01*
X120048584Y-71609827D01*
X120048585Y-71609827D01*
X119734625Y-71547376D01*
X119734609Y-71547374D01*
X119416061Y-71516000D01*
X119095938Y-71516000D01*
X118777390Y-71547374D01*
X118777374Y-71547376D01*
X118463415Y-71609827D01*
X118157098Y-71702747D01*
X117861345Y-71825251D01*
X117579030Y-71976151D01*
X117312877Y-72153989D01*
X117251798Y-72204113D01*
X118441149Y-73393464D01*
X118417417Y-73405557D01*
X118213670Y-73553588D01*
X118035588Y-73731670D01*
X117887557Y-73935417D01*
X117875464Y-73959149D01*
X116686113Y-72769798D01*
X116635989Y-72830877D01*
X116458151Y-73097030D01*
X116307251Y-73379345D01*
X116184747Y-73675098D01*
X116091827Y-73981415D01*
X116029376Y-74295374D01*
X116029374Y-74295390D01*
X115998000Y-74613938D01*
X89513999Y-74613938D01*
X89482625Y-74295390D01*
X89482623Y-74295374D01*
X89420172Y-73981415D01*
X89327252Y-73675098D01*
X89204748Y-73379345D01*
X89053848Y-73097030D01*
X88876009Y-72830876D01*
X88825885Y-72769798D01*
X87636534Y-73959148D01*
X87624443Y-73935417D01*
X87476412Y-73731670D01*
X87298330Y-73553588D01*
X87094583Y-73405557D01*
X87070850Y-73393464D01*
X88260200Y-72204114D01*
X88260199Y-72204113D01*
X88199123Y-72153990D01*
X87932969Y-71976151D01*
X87650654Y-71825251D01*
X87354901Y-71702747D01*
X87048584Y-71609827D01*
X87048585Y-71609827D01*
X86734625Y-71547376D01*
X86734609Y-71547374D01*
X86416061Y-71516000D01*
X86095938Y-71516000D01*
X85777390Y-71547374D01*
X85777374Y-71547376D01*
X85463415Y-71609827D01*
X85157098Y-71702747D01*
X84861345Y-71825251D01*
X84579030Y-71976151D01*
X84312877Y-72153989D01*
X84251798Y-72204113D01*
X85441149Y-73393464D01*
X85417417Y-73405557D01*
X85213670Y-73553588D01*
X85035588Y-73731670D01*
X84887557Y-73935417D01*
X84875464Y-73959149D01*
X83686113Y-72769798D01*
X83635989Y-72830877D01*
X83458151Y-73097030D01*
X83307251Y-73379345D01*
X83184747Y-73675098D01*
X83091827Y-73981415D01*
X83029376Y-74295374D01*
X83029374Y-74295390D01*
X82998000Y-74613938D01*
X77756500Y-74613938D01*
X77756500Y-66655507D01*
X91123001Y-66655507D01*
X91133605Y-66759318D01*
X91189342Y-66927525D01*
X91282366Y-67078339D01*
X91282371Y-67078345D01*
X91407654Y-67203628D01*
X91407660Y-67203633D01*
X91558474Y-67296657D01*
X91726678Y-67352393D01*
X91726681Y-67352394D01*
X91830484Y-67362999D01*
X92731000Y-67362999D01*
X93531000Y-67362999D01*
X94431507Y-67362999D01*
X94535318Y-67352394D01*
X94703525Y-67296657D01*
X94854339Y-67203633D01*
X94854345Y-67203628D01*
X94979628Y-67078345D01*
X94979633Y-67078339D01*
X95072657Y-66927525D01*
X95128393Y-66759321D01*
X95128394Y-66759318D01*
X95138999Y-66655515D01*
X95139000Y-66655515D01*
X95139000Y-66205000D01*
X93531000Y-66205000D01*
X93531000Y-67362999D01*
X92731000Y-67362999D01*
X92731000Y-66205000D01*
X91123001Y-66205000D01*
X91123001Y-66655507D01*
X77756500Y-66655507D01*
X77756500Y-64954484D01*
X91123000Y-64954484D01*
X91123000Y-65405000D01*
X92731000Y-65405000D01*
X93531000Y-65405000D01*
X95138999Y-65405000D01*
X95138999Y-64954492D01*
X95128394Y-64850681D01*
X95072657Y-64682474D01*
X94979633Y-64531660D01*
X94979628Y-64531654D01*
X94854345Y-64406371D01*
X94854339Y-64406366D01*
X94703525Y-64313342D01*
X94535321Y-64257606D01*
X94535318Y-64257605D01*
X94431515Y-64247000D01*
X93531000Y-64247000D01*
X93531000Y-65405000D01*
X92731000Y-65405000D01*
X92731000Y-64247000D01*
X91830492Y-64247000D01*
X91726681Y-64257605D01*
X91558474Y-64313342D01*
X91407660Y-64406366D01*
X91407654Y-64406371D01*
X91282371Y-64531654D01*
X91282366Y-64531660D01*
X91189342Y-64682474D01*
X91133606Y-64850678D01*
X91133605Y-64850681D01*
X91123000Y-64954484D01*
X77756500Y-64954484D01*
X77756500Y-62405000D01*
X94751745Y-62405000D01*
X94780633Y-62497706D01*
X94869578Y-62644840D01*
X94869586Y-62644850D01*
X94943583Y-62718847D01*
X94977609Y-62781159D01*
X94972544Y-62851973D01*
X94936909Y-62947514D01*
X94930500Y-63007121D01*
X94930500Y-63502864D01*
X94930502Y-63502885D01*
X94936908Y-63562480D01*
X94936908Y-63562481D01*
X94987201Y-63697326D01*
X94987203Y-63697329D01*
X95073453Y-63812546D01*
X95131061Y-63855671D01*
X95188669Y-63898796D01*
X95188671Y-63898796D01*
X95188673Y-63898798D01*
X95249030Y-63921309D01*
X95323514Y-63949090D01*
X95323517Y-63949091D01*
X95383127Y-63955500D01*
X96678872Y-63955499D01*
X96738483Y-63949091D01*
X96873331Y-63898796D01*
X96988546Y-63812546D01*
X97074796Y-63697331D01*
X97125091Y-63562483D01*
X97131500Y-63502873D01*
X97131499Y-63007128D01*
X97125091Y-62947517D01*
X97089454Y-62851971D01*
X97084391Y-62781159D01*
X97118416Y-62718846D01*
X97192417Y-62644845D01*
X97192421Y-62644840D01*
X97281366Y-62497706D01*
X97310255Y-62405000D01*
X94751745Y-62405000D01*
X77756500Y-62405000D01*
X77756500Y-61686468D01*
X98255500Y-61686468D01*
X98255500Y-61693263D01*
X98255500Y-68861531D01*
X98285898Y-69033936D01*
X98293289Y-69054244D01*
X98295457Y-69060748D01*
X98296741Y-69064982D01*
X98299452Y-69071525D01*
X98301445Y-69076651D01*
X98345771Y-69198436D01*
X98345776Y-69198447D01*
X98363765Y-69229606D01*
X98371053Y-69244384D01*
X98371945Y-69246538D01*
X98371946Y-69246541D01*
X98381398Y-69260687D01*
X98385749Y-69267684D01*
X98433304Y-69350053D01*
X98433310Y-69350061D01*
X98467210Y-69390462D01*
X98475451Y-69401446D01*
X98481118Y-69409927D01*
X98481123Y-69409933D01*
X98492308Y-69421118D01*
X98499734Y-69429221D01*
X98545836Y-69484162D01*
X98545837Y-69484163D01*
X98600788Y-69530273D01*
X98608867Y-69537676D01*
X98620072Y-69548881D01*
X98628547Y-69554544D01*
X98639534Y-69562784D01*
X98679944Y-69596693D01*
X98762333Y-69644260D01*
X98769318Y-69648604D01*
X98783466Y-69658057D01*
X98785610Y-69658945D01*
X98800396Y-69666235D01*
X98831555Y-69684225D01*
X98953404Y-69728574D01*
X98958441Y-69730533D01*
X98965013Y-69733256D01*
X98965020Y-69733257D01*
X98969220Y-69734531D01*
X98975750Y-69736708D01*
X98996062Y-69744101D01*
X99168468Y-69774500D01*
X99168469Y-69774500D01*
X106343531Y-69774500D01*
X106343532Y-69774500D01*
X106515938Y-69744101D01*
X106536293Y-69736692D01*
X106542761Y-69734537D01*
X106546976Y-69733258D01*
X106546987Y-69733256D01*
X106553600Y-69730516D01*
X106558566Y-69728585D01*
X106680445Y-69684225D01*
X106711609Y-69666232D01*
X106726391Y-69658943D01*
X106728537Y-69658055D01*
X106742684Y-69648602D01*
X106749655Y-69644266D01*
X106832056Y-69596693D01*
X106872471Y-69562780D01*
X106883443Y-69554550D01*
X106891928Y-69548881D01*
X106903139Y-69537669D01*
X106911199Y-69530283D01*
X106966163Y-69484163D01*
X107012283Y-69429199D01*
X107019669Y-69421139D01*
X107030881Y-69409928D01*
X107036550Y-69401443D01*
X107044780Y-69390471D01*
X107078693Y-69350056D01*
X107126266Y-69267655D01*
X107130602Y-69260684D01*
X107140055Y-69246537D01*
X107140947Y-69244384D01*
X107148234Y-69229606D01*
X107166225Y-69198445D01*
X107210585Y-69076566D01*
X107212516Y-69071600D01*
X107215256Y-69064987D01*
X107215258Y-69064976D01*
X107216537Y-69060761D01*
X107218692Y-69054293D01*
X107226101Y-69033938D01*
X107256500Y-68861532D01*
X107256500Y-68774000D01*
X107256500Y-68773500D01*
X107256500Y-62020800D01*
X112578494Y-62020800D01*
X112623852Y-62157684D01*
X112713809Y-62303528D01*
X112713814Y-62303534D01*
X112834965Y-62424685D01*
X112834971Y-62424690D01*
X112980811Y-62514645D01*
X113142700Y-62568289D01*
X113942700Y-62568289D01*
X114104588Y-62514645D01*
X114250428Y-62424690D01*
X114250434Y-62424685D01*
X114371585Y-62303534D01*
X114371590Y-62303528D01*
X114461547Y-62157684D01*
X114506906Y-62020800D01*
X113942700Y-62020800D01*
X113942700Y-62568289D01*
X113142700Y-62568289D01*
X113142700Y-62020800D01*
X112578494Y-62020800D01*
X107256500Y-62020800D01*
X107256500Y-61773793D01*
X107256500Y-61686468D01*
X107226101Y-61514062D01*
X107218708Y-61493750D01*
X107216531Y-61487220D01*
X107215257Y-61483020D01*
X107215256Y-61483013D01*
X107212533Y-61476441D01*
X107210574Y-61471404D01*
X107166225Y-61349555D01*
X107148233Y-61318391D01*
X107140945Y-61303610D01*
X107140057Y-61301466D01*
X107130604Y-61287318D01*
X107126260Y-61280333D01*
X107078693Y-61197944D01*
X107044782Y-61157531D01*
X107036540Y-61146542D01*
X107030881Y-61138072D01*
X107019676Y-61126867D01*
X107012273Y-61118788D01*
X106966163Y-61063837D01*
X106966162Y-61063836D01*
X106911221Y-61017734D01*
X106903118Y-61010308D01*
X106891933Y-60999123D01*
X106891927Y-60999118D01*
X106883446Y-60993451D01*
X106872462Y-60985210D01*
X106832061Y-60951310D01*
X106832053Y-60951304D01*
X106749684Y-60903749D01*
X106742687Y-60899398D01*
X106728541Y-60889946D01*
X106728538Y-60889945D01*
X106726384Y-60889053D01*
X106711606Y-60881765D01*
X106680447Y-60863776D01*
X106680436Y-60863771D01*
X106558651Y-60819445D01*
X106553525Y-60817452D01*
X106546982Y-60814741D01*
X106542748Y-60813457D01*
X106536244Y-60811289D01*
X106515936Y-60803898D01*
X106349203Y-60774500D01*
X106343532Y-60773500D01*
X106256207Y-60773500D01*
X99256500Y-60773500D01*
X99256000Y-60773500D01*
X99168468Y-60773500D01*
X99162797Y-60774500D01*
X98996065Y-60803898D01*
X98975751Y-60811291D01*
X98969254Y-60813457D01*
X98965008Y-60814745D01*
X98958455Y-60817459D01*
X98953347Y-60819445D01*
X98831560Y-60863772D01*
X98831559Y-60863772D01*
X98800391Y-60881767D01*
X98785621Y-60889051D01*
X98783465Y-60889944D01*
X98783451Y-60889951D01*
X98769314Y-60899396D01*
X98762324Y-60903743D01*
X98679950Y-60951303D01*
X98679941Y-60951309D01*
X98639531Y-60985216D01*
X98628558Y-60993448D01*
X98622442Y-60997534D01*
X98620074Y-60999118D01*
X98620071Y-60999120D01*
X98608873Y-61010317D01*
X98600776Y-61017736D01*
X98545836Y-61063836D01*
X98499736Y-61118776D01*
X98492317Y-61126873D01*
X98481120Y-61138071D01*
X98481119Y-61138072D01*
X98479534Y-61140442D01*
X98475448Y-61146558D01*
X98467216Y-61157531D01*
X98433309Y-61197941D01*
X98433303Y-61197950D01*
X98385743Y-61280324D01*
X98381396Y-61287314D01*
X98371951Y-61301451D01*
X98371944Y-61301465D01*
X98371051Y-61303621D01*
X98363767Y-61318391D01*
X98345772Y-61349559D01*
X98345772Y-61349560D01*
X98301445Y-61471347D01*
X98299459Y-61476455D01*
X98297108Y-61482130D01*
X98297106Y-61482138D01*
X98296744Y-61483013D01*
X98296194Y-61485775D01*
X98285899Y-61514062D01*
X98255500Y-61686468D01*
X77756500Y-61686468D01*
X77756500Y-61605000D01*
X94751745Y-61605000D01*
X95631000Y-61605000D01*
X96431000Y-61605000D01*
X97310255Y-61605000D01*
X97281365Y-61512291D01*
X97240798Y-61445185D01*
X97222673Y-61376541D01*
X97240798Y-61314815D01*
X97281365Y-61247708D01*
X97310255Y-61155000D01*
X96431000Y-61155000D01*
X96431000Y-61605000D01*
X95631000Y-61605000D01*
X95631000Y-61155000D01*
X94751745Y-61155000D01*
X94780634Y-61247707D01*
X94780634Y-61247709D01*
X94821202Y-61314817D01*
X94839325Y-61383461D01*
X94821202Y-61445183D01*
X94780634Y-61512290D01*
X94780634Y-61512292D01*
X94751745Y-61605000D01*
X77756500Y-61605000D01*
X77756500Y-60355000D01*
X94751745Y-60355000D01*
X97310255Y-60355000D01*
X97281366Y-60262293D01*
X97253190Y-60215684D01*
X97235067Y-60147040D01*
X97256932Y-60079494D01*
X97311844Y-60034492D01*
X97361019Y-60024500D01*
X109626496Y-60024500D01*
X109694617Y-60044502D01*
X109715586Y-60061400D01*
X110125486Y-60471300D01*
X110239614Y-60537192D01*
X110366908Y-60571300D01*
X110498692Y-60571300D01*
X112779527Y-60571300D01*
X112847648Y-60591302D01*
X112879930Y-60621174D01*
X112882909Y-60625103D01*
X112908127Y-60691469D01*
X112893462Y-60760935D01*
X112848656Y-60808468D01*
X112834973Y-60816907D01*
X112834965Y-60816914D01*
X112713814Y-60938065D01*
X112713809Y-60938071D01*
X112623852Y-61083915D01*
X112578493Y-61220799D01*
X112578494Y-61220800D01*
X114506906Y-61220800D01*
X114506906Y-61220799D01*
X114461547Y-61083915D01*
X114371590Y-60938071D01*
X114371585Y-60938065D01*
X114250434Y-60816914D01*
X114250425Y-60816907D01*
X114236745Y-60808469D01*
X114189267Y-60755683D01*
X114177865Y-60685608D01*
X114202500Y-60625090D01*
X114205484Y-60621155D01*
X114262585Y-60578969D01*
X114305873Y-60571300D01*
X114713790Y-60571300D01*
X114713792Y-60571300D01*
X114841086Y-60537192D01*
X114955214Y-60471300D01*
X116000600Y-59425914D01*
X116066492Y-59311786D01*
X116100600Y-59184493D01*
X116100600Y-59052708D01*
X116100600Y-53337708D01*
X116066492Y-53210414D01*
X116022008Y-53133365D01*
X116000602Y-53096289D01*
X116000598Y-53096284D01*
X115964012Y-53059698D01*
X115907414Y-53003100D01*
X115811925Y-52907611D01*
X115777899Y-52845299D01*
X115782964Y-52774484D01*
X115800623Y-52742382D01*
X115834694Y-52697453D01*
X115887861Y-52627342D01*
X115943377Y-52486564D01*
X115954000Y-52398102D01*
X115954000Y-51411898D01*
X115943377Y-51323436D01*
X115933360Y-51298036D01*
X115887861Y-51182658D01*
X115887858Y-51182654D01*
X115796422Y-51062077D01*
X115691366Y-50982410D01*
X115649173Y-50925311D01*
X115641500Y-50882013D01*
X115641500Y-50635257D01*
X115661502Y-50567136D01*
X115695693Y-50534907D01*
X115694374Y-50533168D01*
X115701238Y-50527962D01*
X115701242Y-50527961D01*
X115821822Y-50436522D01*
X115913261Y-50315942D01*
X115968777Y-50175164D01*
X115979400Y-50086702D01*
X115979400Y-49100498D01*
X115968777Y-49012036D01*
X115958760Y-48986636D01*
X115913261Y-48871258D01*
X115913258Y-48871254D01*
X115821822Y-48750677D01*
X115701245Y-48659241D01*
X115701239Y-48659237D01*
X115671674Y-48647578D01*
X115615642Y-48603979D01*
X115592075Y-48537008D01*
X115591900Y-48530364D01*
X115591900Y-48421635D01*
X115611902Y-48353514D01*
X115665558Y-48307021D01*
X115671664Y-48304424D01*
X115701242Y-48292761D01*
X115821822Y-48201322D01*
X115913261Y-48080742D01*
X115968777Y-47939964D01*
X115979400Y-47851502D01*
X115979400Y-46865298D01*
X115968777Y-46776836D01*
X115939770Y-46703281D01*
X115913261Y-46636058D01*
X115913258Y-46636054D01*
X115821822Y-46515477D01*
X115701245Y-46424041D01*
X115701241Y-46424038D01*
X115560464Y-46368522D01*
X115560465Y-46368522D01*
X115472005Y-46357900D01*
X115472002Y-46357900D01*
X114860798Y-46357900D01*
X114860794Y-46357900D01*
X114772335Y-46368522D01*
X114638803Y-46421182D01*
X114568094Y-46427565D01*
X114505159Y-46394707D01*
X114503484Y-46393063D01*
X114471921Y-46361500D01*
X114440163Y-46329742D01*
X113705936Y-45595515D01*
X113705934Y-45595514D01*
X113705932Y-45595512D01*
X113608914Y-45539499D01*
X113608911Y-45539498D01*
X113608910Y-45539497D01*
X113608908Y-45539496D01*
X113608907Y-45539496D01*
X113579909Y-45531726D01*
X113500691Y-45510500D01*
X108517546Y-45510500D01*
X108405509Y-45510500D01*
X108347517Y-45526038D01*
X108297292Y-45539496D01*
X108297285Y-45539499D01*
X108200267Y-45595512D01*
X108200257Y-45595520D01*
X107658854Y-46136924D01*
X107596542Y-46170950D01*
X107530126Y-46167434D01*
X107357418Y-46110205D01*
X107357419Y-46110205D01*
X107340600Y-46108486D01*
X107340600Y-48237765D01*
X107363121Y-48279008D01*
X107366000Y-48305791D01*
X107366000Y-53078711D01*
X107382819Y-53076994D01*
X107382833Y-53076991D01*
X107551021Y-53021259D01*
X107701839Y-52928234D01*
X107701845Y-52928229D01*
X107827129Y-52802945D01*
X107827134Y-52802939D01*
X107896306Y-52690794D01*
X107949092Y-52643316D01*
X108019167Y-52631913D01*
X108084282Y-52660205D01*
X108103944Y-52680807D01*
X108135577Y-52722522D01*
X108256154Y-52813958D01*
X108256158Y-52813961D01*
X108396935Y-52869477D01*
X108396934Y-52869477D01*
X108424894Y-52872834D01*
X108485398Y-52880100D01*
X108485401Y-52880100D01*
X109096599Y-52880100D01*
X109096602Y-52880100D01*
X109185064Y-52869477D01*
X109325842Y-52813961D01*
X109446422Y-52722522D01*
X109537861Y-52601942D01*
X109546585Y-52579820D01*
X109590183Y-52523786D01*
X109657153Y-52500218D01*
X109726234Y-52516599D01*
X109775493Y-52567728D01*
X109789800Y-52626043D01*
X109789800Y-55404982D01*
X109789800Y-55517018D01*
X109811026Y-55596236D01*
X109818796Y-55625234D01*
X109818799Y-55625241D01*
X109874812Y-55722259D01*
X109874820Y-55722269D01*
X111424215Y-57271663D01*
X111503437Y-57350885D01*
X111526993Y-57364485D01*
X111600463Y-57406903D01*
X111708681Y-57435900D01*
X111708682Y-57435900D01*
X112525501Y-57435900D01*
X112593622Y-57455902D01*
X112614636Y-57476309D01*
X112616037Y-57474909D01*
X112647433Y-57506305D01*
X112681459Y-57568617D01*
X112676394Y-57639432D01*
X112647433Y-57684495D01*
X112624295Y-57707632D01*
X112624294Y-57707634D01*
X112578914Y-57810409D01*
X112576000Y-57835529D01*
X112576000Y-58625259D01*
X112576001Y-58625266D01*
X112578914Y-58650390D01*
X112578916Y-58650394D01*
X112624293Y-58753165D01*
X112703732Y-58832604D01*
X112703734Y-58832605D01*
X112703735Y-58832606D01*
X112806509Y-58877985D01*
X112806508Y-58877985D01*
X112810978Y-58878503D01*
X112831635Y-58880900D01*
X112916201Y-58880899D01*
X112984320Y-58900900D01*
X113030813Y-58954555D01*
X113042200Y-59006899D01*
X113042200Y-59313668D01*
X113022198Y-59381789D01*
X112992334Y-59414065D01*
X112917624Y-59470719D01*
X112917622Y-59470722D01*
X112879922Y-59520435D01*
X112822826Y-59562627D01*
X112779527Y-59570300D01*
X110692304Y-59570300D01*
X110624183Y-59550298D01*
X110603213Y-59533399D01*
X110193314Y-59123500D01*
X110193312Y-59123499D01*
X110193310Y-59123497D01*
X110079190Y-59057610D01*
X110079187Y-59057609D01*
X110079186Y-59057608D01*
X110079184Y-59057607D01*
X110079183Y-59057607D01*
X110045073Y-59048467D01*
X109951892Y-59023500D01*
X109951890Y-59023500D01*
X109312562Y-59023500D01*
X109244441Y-59003498D01*
X109197948Y-58949842D01*
X109187844Y-58879568D01*
X109217338Y-58814988D01*
X109223467Y-58808405D01*
X109278704Y-58753167D01*
X109278706Y-58753165D01*
X109324085Y-58650391D01*
X109327000Y-58625265D01*
X109326999Y-57835536D01*
X109324085Y-57810409D01*
X109278706Y-57707635D01*
X109255565Y-57684494D01*
X109221541Y-57622185D01*
X109226605Y-57551369D01*
X109255565Y-57506305D01*
X109278706Y-57483165D01*
X109324085Y-57380391D01*
X109327000Y-57355265D01*
X109326999Y-56565536D01*
X109324085Y-56540409D01*
X109324083Y-56540406D01*
X109323018Y-56531214D01*
X109335039Y-56461243D01*
X109372673Y-56415827D01*
X109389406Y-56403301D01*
X109476944Y-56286365D01*
X109476944Y-56286364D01*
X109527994Y-56149493D01*
X109534499Y-56088997D01*
X109534500Y-56088985D01*
X109534500Y-56040400D01*
X106968500Y-56040400D01*
X106968500Y-56088997D01*
X106975005Y-56149493D01*
X107026055Y-56286364D01*
X107026055Y-56286365D01*
X107108870Y-56396991D01*
X107133681Y-56463511D01*
X107118590Y-56532885D01*
X107068388Y-56583087D01*
X107008002Y-56598500D01*
X97164690Y-56598500D01*
X97096569Y-56578498D01*
X97063822Y-56548009D01*
X96994576Y-56455508D01*
X96969765Y-56388988D01*
X96984856Y-56319614D01*
X96994577Y-56304489D01*
X97008146Y-56286364D01*
X97068314Y-56205990D01*
X97125150Y-56163444D01*
X97169181Y-56155500D01*
X97453725Y-56155500D01*
X97453727Y-56155500D01*
X97555588Y-56128207D01*
X97646913Y-56075480D01*
X98367893Y-55354500D01*
X98903397Y-54818997D01*
X106968500Y-54818997D01*
X106975005Y-54879495D01*
X107024190Y-55011369D01*
X107029254Y-55082185D01*
X107024190Y-55099431D01*
X106975005Y-55231304D01*
X106968500Y-55291802D01*
X106968500Y-55340400D01*
X107901500Y-55340400D01*
X108601500Y-55340400D01*
X109534500Y-55340400D01*
X109534500Y-55291814D01*
X109534499Y-55291802D01*
X109527994Y-55231307D01*
X109478808Y-55099433D01*
X109473743Y-55028617D01*
X109478808Y-55011367D01*
X109527994Y-54879492D01*
X109534499Y-54818997D01*
X109534500Y-54818985D01*
X109534500Y-54770400D01*
X108601500Y-54770400D01*
X108601500Y-55340400D01*
X107901500Y-55340400D01*
X107901500Y-54770400D01*
X106968500Y-54770400D01*
X106968500Y-54818997D01*
X98903397Y-54818997D01*
X99093280Y-54629114D01*
X99488674Y-54233719D01*
X99488680Y-54233713D01*
X99541407Y-54142388D01*
X99568700Y-54040527D01*
X99568700Y-54021802D01*
X106968500Y-54021802D01*
X106968500Y-54070400D01*
X107901500Y-54070400D01*
X108601500Y-54070400D01*
X109534500Y-54070400D01*
X109534500Y-54021814D01*
X109534499Y-54021802D01*
X109527994Y-53961306D01*
X109476944Y-53824435D01*
X109476944Y-53824434D01*
X109389404Y-53707495D01*
X109272465Y-53619955D01*
X109135593Y-53568905D01*
X109075097Y-53562400D01*
X108601500Y-53562400D01*
X108601500Y-54070400D01*
X107901500Y-54070400D01*
X107901500Y-53562400D01*
X107427902Y-53562400D01*
X107367406Y-53568905D01*
X107230535Y-53619955D01*
X107230534Y-53619955D01*
X107113595Y-53707495D01*
X107026055Y-53824434D01*
X107026055Y-53824435D01*
X106975005Y-53961306D01*
X106968500Y-54021802D01*
X99568700Y-54021802D01*
X99568700Y-53935073D01*
X99568700Y-52380116D01*
X105945500Y-52380116D01*
X105956105Y-52483918D01*
X105956106Y-52483921D01*
X106011842Y-52652125D01*
X106104865Y-52802939D01*
X106104870Y-52802945D01*
X106230154Y-52928229D01*
X106230160Y-52928234D01*
X106380978Y-53021259D01*
X106549166Y-53076991D01*
X106549180Y-53076994D01*
X106566000Y-53078711D01*
X106566000Y-52279600D01*
X105945500Y-52279600D01*
X105945500Y-52380116D01*
X99568700Y-52380116D01*
X99568700Y-50068716D01*
X105945500Y-50068716D01*
X105956105Y-50172518D01*
X105956106Y-50172521D01*
X106011842Y-50340725D01*
X106104865Y-50491539D01*
X106104870Y-50491545D01*
X106230154Y-50616829D01*
X106235916Y-50621385D01*
X106235079Y-50622443D01*
X106277355Y-50669448D01*
X106288757Y-50739523D01*
X106260462Y-50804638D01*
X106235678Y-50826114D01*
X106235916Y-50826415D01*
X106230154Y-50830970D01*
X106104870Y-50956254D01*
X106104865Y-50956260D01*
X106011842Y-51107074D01*
X105956106Y-51275278D01*
X105956105Y-51275281D01*
X105945500Y-51379083D01*
X105945500Y-51479600D01*
X106566000Y-51479600D01*
X106566000Y-49968200D01*
X105945500Y-49968200D01*
X105945500Y-50068716D01*
X99568700Y-50068716D01*
X99568700Y-47808116D01*
X105920100Y-47808116D01*
X105930705Y-47911918D01*
X105930706Y-47911921D01*
X105986442Y-48080125D01*
X106079465Y-48230939D01*
X106079470Y-48230945D01*
X106209950Y-48361425D01*
X106207565Y-48363809D01*
X106240017Y-48409387D01*
X106243390Y-48480304D01*
X106210040Y-48539685D01*
X106104865Y-48644860D01*
X106011842Y-48795674D01*
X105956106Y-48963878D01*
X105956105Y-48963881D01*
X105945500Y-49067683D01*
X105945500Y-49168200D01*
X106566000Y-49168200D01*
X106566000Y-48638034D01*
X106543479Y-48596792D01*
X106540600Y-48570009D01*
X106540600Y-47707600D01*
X105920100Y-47707600D01*
X105920100Y-47808116D01*
X99568700Y-47808116D01*
X99568700Y-46807083D01*
X105920100Y-46807083D01*
X105920100Y-46907600D01*
X106540600Y-46907600D01*
X106540600Y-46108486D01*
X106540599Y-46108486D01*
X106523780Y-46110205D01*
X106355574Y-46165942D01*
X106204760Y-46258965D01*
X106204754Y-46258970D01*
X106079470Y-46384254D01*
X106079465Y-46384260D01*
X105986442Y-46535074D01*
X105930706Y-46703278D01*
X105930705Y-46703281D01*
X105920100Y-46807083D01*
X99568700Y-46807083D01*
X99568700Y-42348292D01*
X99588702Y-42280171D01*
X99610623Y-42255550D01*
X99610365Y-42255292D01*
X99712309Y-42153347D01*
X99712314Y-42153342D01*
X99788975Y-42038611D01*
X99841780Y-41911128D01*
X99868700Y-41775793D01*
X99868700Y-41637807D01*
X99841780Y-41502472D01*
X99788975Y-41374989D01*
X99712314Y-41260258D01*
X99712309Y-41260252D01*
X99614747Y-41162690D01*
X99614741Y-41162685D01*
X99557181Y-41124225D01*
X99500011Y-41086025D01*
X99419621Y-41052726D01*
X99372531Y-41033221D01*
X99372528Y-41033220D01*
X99237195Y-41006300D01*
X99237193Y-41006300D01*
X99099207Y-41006300D01*
X99099204Y-41006300D01*
X98963871Y-41033220D01*
X98963868Y-41033221D01*
X98836389Y-41086025D01*
X98721658Y-41162685D01*
X98721652Y-41162690D01*
X98624090Y-41260252D01*
X98624085Y-41260258D01*
X98580265Y-41325840D01*
X98525788Y-41371368D01*
X98455345Y-41380215D01*
X98391301Y-41349574D01*
X98353989Y-41289172D01*
X98349500Y-41255838D01*
X98349500Y-40999083D01*
X98369502Y-40930962D01*
X98386405Y-40909988D01*
X98891988Y-40404405D01*
X98954300Y-40370379D01*
X98981083Y-40367500D01*
X105350917Y-40367500D01*
X105419038Y-40387502D01*
X105440012Y-40404405D01*
X106610198Y-41574590D01*
X106644223Y-41636902D01*
X106646137Y-41669817D01*
X106646500Y-41669817D01*
X106646500Y-41676006D01*
X106646500Y-41676007D01*
X106646500Y-41813993D01*
X106673420Y-41949328D01*
X106726225Y-42076811D01*
X106774238Y-42148668D01*
X106802885Y-42191541D01*
X106802890Y-42191547D01*
X106900452Y-42289109D01*
X106900458Y-42289114D01*
X107015189Y-42365775D01*
X107142672Y-42418580D01*
X107278007Y-42445500D01*
X107278008Y-42445500D01*
X107415992Y-42445500D01*
X107415993Y-42445500D01*
X107551328Y-42418580D01*
X107678811Y-42365775D01*
X107793542Y-42289114D01*
X107891114Y-42191542D01*
X107967775Y-42076811D01*
X108020580Y-41949328D01*
X108047500Y-41813993D01*
X108047500Y-41676007D01*
X108035154Y-41613938D01*
X115998000Y-41613938D01*
X115998000Y-41934061D01*
X116029374Y-42252609D01*
X116029376Y-42252625D01*
X116091827Y-42566584D01*
X116184747Y-42872901D01*
X116307251Y-43168654D01*
X116458151Y-43450969D01*
X116635990Y-43717123D01*
X116686113Y-43778199D01*
X116686114Y-43778200D01*
X117875464Y-42588849D01*
X117887557Y-42612583D01*
X118035588Y-42816330D01*
X118213670Y-42994412D01*
X118417417Y-43142443D01*
X118441149Y-43154535D01*
X117251798Y-44343885D01*
X117312876Y-44394009D01*
X117579030Y-44571848D01*
X117861345Y-44722748D01*
X118157098Y-44845252D01*
X118463415Y-44938172D01*
X118463414Y-44938172D01*
X118777374Y-45000623D01*
X118777390Y-45000625D01*
X119095938Y-45031999D01*
X119095954Y-45032000D01*
X119416046Y-45032000D01*
X119416061Y-45031999D01*
X119734609Y-45000625D01*
X119734625Y-45000623D01*
X120048584Y-44938172D01*
X120354901Y-44845252D01*
X120650654Y-44722748D01*
X120932969Y-44571848D01*
X121199120Y-44394012D01*
X121199126Y-44394007D01*
X121260200Y-44343885D01*
X120070850Y-43154535D01*
X120094583Y-43142443D01*
X120298330Y-42994412D01*
X120476412Y-42816330D01*
X120624443Y-42612583D01*
X120636535Y-42588850D01*
X121825885Y-43778200D01*
X121876007Y-43717126D01*
X121876012Y-43717120D01*
X122053848Y-43450969D01*
X122204748Y-43168654D01*
X122327252Y-42872901D01*
X122420172Y-42566584D01*
X122482623Y-42252625D01*
X122482625Y-42252609D01*
X122513999Y-41934061D01*
X122514000Y-41934045D01*
X122514000Y-41613954D01*
X122513999Y-41613938D01*
X122482625Y-41295390D01*
X122482623Y-41295374D01*
X122420172Y-40981415D01*
X122327252Y-40675098D01*
X122204748Y-40379345D01*
X122053848Y-40097030D01*
X121876009Y-39830876D01*
X121825885Y-39769798D01*
X120636534Y-40959148D01*
X120624443Y-40935417D01*
X120476412Y-40731670D01*
X120298330Y-40553588D01*
X120094583Y-40405557D01*
X120070850Y-40393464D01*
X121260200Y-39204114D01*
X121260199Y-39204113D01*
X121199123Y-39153990D01*
X120932969Y-38976151D01*
X120650654Y-38825251D01*
X120354901Y-38702747D01*
X120048584Y-38609827D01*
X120048585Y-38609827D01*
X119734625Y-38547376D01*
X119734609Y-38547374D01*
X119416061Y-38516000D01*
X119095938Y-38516000D01*
X118777390Y-38547374D01*
X118777374Y-38547376D01*
X118463415Y-38609827D01*
X118157098Y-38702747D01*
X117861345Y-38825251D01*
X117579030Y-38976151D01*
X117312877Y-39153989D01*
X117251798Y-39204113D01*
X118441149Y-40393464D01*
X118417417Y-40405557D01*
X118213670Y-40553588D01*
X118035588Y-40731670D01*
X117887557Y-40935417D01*
X117875464Y-40959149D01*
X116686113Y-39769798D01*
X116635989Y-39830877D01*
X116458151Y-40097030D01*
X116307251Y-40379345D01*
X116184747Y-40675098D01*
X116091827Y-40981415D01*
X116029376Y-41295374D01*
X116029374Y-41295390D01*
X115998000Y-41613938D01*
X108035154Y-41613938D01*
X108020580Y-41540672D01*
X107967775Y-41413189D01*
X107891114Y-41298458D01*
X107891109Y-41298452D01*
X107793547Y-41200890D01*
X107793541Y-41200885D01*
X107732072Y-41159813D01*
X107678811Y-41124225D01*
X107586588Y-41086025D01*
X107551331Y-41071421D01*
X107551328Y-41071420D01*
X107415995Y-41044500D01*
X107415993Y-41044500D01*
X107278007Y-41044500D01*
X107271817Y-41044500D01*
X107271817Y-41043321D01*
X107208265Y-41031259D01*
X107176592Y-41008200D01*
X105814913Y-39646520D01*
X105814911Y-39646519D01*
X105814909Y-39646517D01*
X105723592Y-39593795D01*
X105723590Y-39593794D01*
X105723588Y-39593793D01*
X105621727Y-39566500D01*
X98815727Y-39566500D01*
X98710273Y-39566500D01*
X98608412Y-39593793D01*
X98608410Y-39593794D01*
X98608407Y-39593795D01*
X98517090Y-39646517D01*
X98517080Y-39646525D01*
X97628525Y-40535080D01*
X97628517Y-40535090D01*
X97575792Y-40626411D01*
X97575793Y-40626412D01*
X97548500Y-40728272D01*
X97548500Y-53337917D01*
X97528498Y-53406038D01*
X97511599Y-53427007D01*
X97426702Y-53511905D01*
X97346594Y-53592013D01*
X97284282Y-53626038D01*
X97213466Y-53620973D01*
X97156631Y-53578426D01*
X97131820Y-53511905D01*
X97131499Y-53502917D01*
X97131499Y-53502882D01*
X97131500Y-53502873D01*
X97131499Y-53007128D01*
X97125091Y-52947517D01*
X97090137Y-52853800D01*
X97074798Y-52812673D01*
X97074796Y-52812670D01*
X97074796Y-52812669D01*
X97022179Y-52742382D01*
X96988546Y-52697453D01*
X96911591Y-52639845D01*
X96873331Y-52611204D01*
X96873329Y-52611203D01*
X96873326Y-52611201D01*
X96738483Y-52560909D01*
X96738486Y-52560909D01*
X96678873Y-52554500D01*
X95383135Y-52554500D01*
X95383114Y-52554502D01*
X95323519Y-52560908D01*
X95323518Y-52560908D01*
X95188673Y-52611201D01*
X95188670Y-52611203D01*
X95073453Y-52697453D01*
X94987203Y-52812670D01*
X94987201Y-52812673D01*
X94936909Y-52947515D01*
X94930500Y-53007121D01*
X94930500Y-53502864D01*
X94930502Y-53502885D01*
X94936908Y-53562480D01*
X94936908Y-53562481D01*
X94987201Y-53697326D01*
X94987203Y-53697329D01*
X94987204Y-53697331D01*
X95038956Y-53766463D01*
X95067424Y-53804491D01*
X95092235Y-53871011D01*
X95077144Y-53940385D01*
X95067424Y-53955509D01*
X94987203Y-54062670D01*
X94987201Y-54062673D01*
X94936909Y-54197515D01*
X94930500Y-54257121D01*
X94930500Y-54752864D01*
X94930502Y-54752885D01*
X94936908Y-54812480D01*
X94936908Y-54812481D01*
X94987201Y-54947326D01*
X94987203Y-54947329D01*
X94987204Y-54947331D01*
X95063813Y-55049667D01*
X95067424Y-55054491D01*
X95092235Y-55121011D01*
X95077144Y-55190385D01*
X95067424Y-55205509D01*
X94987203Y-55312670D01*
X94987201Y-55312673D01*
X94936909Y-55447515D01*
X94930500Y-55507121D01*
X94930500Y-56002864D01*
X94930502Y-56002885D01*
X94936908Y-56062480D01*
X94936908Y-56062481D01*
X94987201Y-56197326D01*
X94987203Y-56197329D01*
X94987204Y-56197331D01*
X95006273Y-56222804D01*
X95067424Y-56304491D01*
X95092235Y-56371011D01*
X95077144Y-56440385D01*
X95067424Y-56455509D01*
X94987203Y-56562670D01*
X94987201Y-56562673D01*
X94936909Y-56697515D01*
X94930500Y-56757121D01*
X94930500Y-57252864D01*
X94930502Y-57252885D01*
X94936908Y-57312480D01*
X94936908Y-57312481D01*
X94987201Y-57447326D01*
X94987203Y-57447329D01*
X94987204Y-57447331D01*
X95031352Y-57506305D01*
X95067424Y-57554491D01*
X95092235Y-57621011D01*
X95077144Y-57690385D01*
X95067424Y-57705509D01*
X94987203Y-57812670D01*
X94987201Y-57812673D01*
X94936909Y-57947515D01*
X94930500Y-58007121D01*
X94930500Y-58502864D01*
X94930502Y-58502885D01*
X94936908Y-58562480D01*
X94936908Y-58562481D01*
X94987201Y-58697326D01*
X94987203Y-58697329D01*
X94987204Y-58697331D01*
X95029003Y-58753167D01*
X95067424Y-58804491D01*
X95092235Y-58871011D01*
X95077144Y-58940385D01*
X95067424Y-58955509D01*
X94987203Y-59062670D01*
X94987201Y-59062673D01*
X94936909Y-59197515D01*
X94930500Y-59257121D01*
X94930500Y-59752864D01*
X94930502Y-59752885D01*
X94936908Y-59812479D01*
X94972544Y-59908025D01*
X94977608Y-59978841D01*
X94943584Y-60041152D01*
X94869583Y-60115153D01*
X94869578Y-60115159D01*
X94780633Y-60262293D01*
X94751745Y-60355000D01*
X77756500Y-60355000D01*
X77756500Y-51555507D01*
X91123001Y-51555507D01*
X91133605Y-51659318D01*
X91189342Y-51827525D01*
X91282366Y-51978339D01*
X91282371Y-51978345D01*
X91407654Y-52103628D01*
X91407660Y-52103633D01*
X91558474Y-52196657D01*
X91726678Y-52252393D01*
X91726681Y-52252394D01*
X91830484Y-52262999D01*
X92731000Y-52262999D01*
X93531000Y-52262999D01*
X94431507Y-52262999D01*
X94535318Y-52252394D01*
X94703525Y-52196657D01*
X94854339Y-52103633D01*
X94854345Y-52103628D01*
X94979628Y-51978345D01*
X94979633Y-51978339D01*
X95072657Y-51827525D01*
X95128393Y-51659321D01*
X95128394Y-51659318D01*
X95138999Y-51555515D01*
X95139000Y-51555515D01*
X95139000Y-51105000D01*
X93531000Y-51105000D01*
X93531000Y-52262999D01*
X92731000Y-52262999D01*
X92731000Y-51105000D01*
X91123001Y-51105000D01*
X91123001Y-51555507D01*
X77756500Y-51555507D01*
X77756500Y-49854484D01*
X91123000Y-49854484D01*
X91123000Y-50305000D01*
X92731000Y-50305000D01*
X93531000Y-50305000D01*
X95138999Y-50305000D01*
X95138999Y-49854492D01*
X95128394Y-49750681D01*
X95072657Y-49582474D01*
X94979633Y-49431660D01*
X94979628Y-49431654D01*
X94854345Y-49306371D01*
X94854339Y-49306366D01*
X94703525Y-49213342D01*
X94535321Y-49157606D01*
X94535318Y-49157605D01*
X94431515Y-49147000D01*
X93531000Y-49147000D01*
X93531000Y-50305000D01*
X92731000Y-50305000D01*
X92731000Y-49147000D01*
X91830492Y-49147000D01*
X91726681Y-49157605D01*
X91558474Y-49213342D01*
X91407660Y-49306366D01*
X91407654Y-49306371D01*
X91282371Y-49431654D01*
X91282366Y-49431660D01*
X91189342Y-49582474D01*
X91133606Y-49750678D01*
X91133605Y-49750681D01*
X91123000Y-49854484D01*
X77756500Y-49854484D01*
X77756500Y-41613938D01*
X82998000Y-41613938D01*
X82998000Y-41934061D01*
X83029374Y-42252609D01*
X83029376Y-42252625D01*
X83091827Y-42566584D01*
X83184747Y-42872901D01*
X83307251Y-43168654D01*
X83458151Y-43450969D01*
X83635990Y-43717123D01*
X83686113Y-43778199D01*
X83686114Y-43778200D01*
X84875464Y-42588849D01*
X84887557Y-42612583D01*
X85035588Y-42816330D01*
X85213670Y-42994412D01*
X85417417Y-43142443D01*
X85441149Y-43154535D01*
X84251798Y-44343885D01*
X84312876Y-44394009D01*
X84579030Y-44571848D01*
X84861345Y-44722748D01*
X85157098Y-44845252D01*
X85463415Y-44938172D01*
X85463414Y-44938172D01*
X85777374Y-45000623D01*
X85777390Y-45000625D01*
X86095938Y-45031999D01*
X86095954Y-45032000D01*
X86416046Y-45032000D01*
X86416061Y-45031999D01*
X86734609Y-45000625D01*
X86734625Y-45000623D01*
X87048584Y-44938172D01*
X87354901Y-44845252D01*
X87650654Y-44722748D01*
X87932969Y-44571848D01*
X88199120Y-44394012D01*
X88199126Y-44394007D01*
X88260200Y-44343885D01*
X87070850Y-43154535D01*
X87094583Y-43142443D01*
X87298330Y-42994412D01*
X87476412Y-42816330D01*
X87624443Y-42612583D01*
X87636535Y-42588850D01*
X88825885Y-43778200D01*
X88876007Y-43717126D01*
X88876012Y-43717120D01*
X89053848Y-43450969D01*
X89204748Y-43168654D01*
X89327252Y-42872901D01*
X89420172Y-42566584D01*
X89482623Y-42252625D01*
X89482625Y-42252609D01*
X89513999Y-41934061D01*
X89514000Y-41934045D01*
X89514000Y-41613954D01*
X89513999Y-41613938D01*
X89482625Y-41295390D01*
X89482623Y-41295374D01*
X89420172Y-40981415D01*
X89327252Y-40675098D01*
X89204748Y-40379345D01*
X89053848Y-40097030D01*
X88876009Y-39830876D01*
X88825885Y-39769798D01*
X87636534Y-40959148D01*
X87624443Y-40935417D01*
X87476412Y-40731670D01*
X87298330Y-40553588D01*
X87094583Y-40405557D01*
X87070850Y-40393464D01*
X88260200Y-39204114D01*
X88260199Y-39204113D01*
X88199123Y-39153990D01*
X87932969Y-38976151D01*
X87650654Y-38825251D01*
X87354901Y-38702747D01*
X87048584Y-38609827D01*
X87048585Y-38609827D01*
X86734625Y-38547376D01*
X86734609Y-38547374D01*
X86416061Y-38516000D01*
X86095938Y-38516000D01*
X85777390Y-38547374D01*
X85777374Y-38547376D01*
X85463415Y-38609827D01*
X85157098Y-38702747D01*
X84861345Y-38825251D01*
X84579030Y-38976151D01*
X84312877Y-39153989D01*
X84251798Y-39204113D01*
X85441149Y-40393464D01*
X85417417Y-40405557D01*
X85213670Y-40553588D01*
X85035588Y-40731670D01*
X84887557Y-40935417D01*
X84875464Y-40959149D01*
X83686113Y-39769798D01*
X83635989Y-39830877D01*
X83458151Y-40097030D01*
X83307251Y-40379345D01*
X83184747Y-40675098D01*
X83091827Y-40981415D01*
X83029376Y-41295374D01*
X83029374Y-41295390D01*
X82998000Y-41613938D01*
X77756500Y-41613938D01*
X77756500Y-33400500D01*
X77776502Y-33332379D01*
X77830158Y-33285886D01*
X77882500Y-33274500D01*
X127629500Y-33274500D01*
X127697621Y-33294502D01*
G37*
%TD.AperFunction*%
%TD*%
M02*
