M48
; DRILL file KiCad 10.0.5 date 2026-10-02T22:39:59
; FORMAT={-:-/ absolute / metric / decimal}
; #@! TF.CreationDate,2026-10-02T22:39:59-03:00
; #@! TF.GenerationSoftware,Kicad,Pcbnew,10.0.5
; #@! TF.FileFunction,Plated,1,2,PTH
FMAT,2
METRIC
; #@! TA.AperFunction,Plated,PTH,ViaDrill
T1C0.400
; #@! TA.AperFunction,Plated,PTH,ComponentDrill
T2C3.200
%
G90
G05
T1
X84.256Y-38.074
X84.256Y-53.074
X84.256Y-68.074
X89.256Y-78.074
X94.256Y-43.074
X94.256Y-63.074
X99.168Y-41.707
X99.256Y-73.074
X104.256Y-38.074
X104.256Y-53.074
X107.347Y-41.745
X109.256Y-78.074
X114.256Y-43.074
X114.256Y-63.074
X119.256Y-53.074
X124.256Y-38.074
X124.256Y-68.074
T2
X86.256Y-41.774
X86.256Y-74.774
X119.256Y-41.774
X119.256Y-74.774
M30
