%TF.GenerationSoftware,KiCad,Pcbnew,10.0.5*%
%TF.CreationDate,2026-10-02T22:40:24-03:00*%
%TF.ProjectId,PQ1_TopBoard,5051315f-546f-4704-926f-6172642e6b69,rev?*%
%TF.SameCoordinates,Original*%
%TF.FileFunction,Legend,Bot*%
%TF.FilePolarity,Positive*%
%FSLAX46Y46*%
G04 Gerber Fmt 4.6, Leading zero omitted, Abs format (unit mm)*
G04 Created by KiCad (PCBNEW 10.0.5) date 2026-10-02 22:40:24*
%MOMM*%
%LPD*%
G01*
G04 APERTURE LIST*
G04 Aperture macros list*
%AMRoundRect*
0 Rectangle with rounded corners*
0 $1 Rounding radius*
0 $2 $3 $4 $5 $6 $7 $8 $9 X,Y pos of 4 corners*
0 Add a 4 corners polygon primitive as box body*
4,1,4,$2,$3,$4,$5,$6,$7,$8,$9,$2,$3,0*
0 Add four circle primitives for the rounded corners*
1,1,$1+$1,$2,$3*
1,1,$1+$1,$4,$5*
1,1,$1+$1,$6,$7*
1,1,$1+$1,$8,$9*
0 Add four rect primitives between the rounded corners*
20,1,$1+$1,$2,$3,$4,$5,0*
20,1,$1+$1,$4,$5,$6,$7,0*
20,1,$1+$1,$6,$7,$8,$9,0*
20,1,$1+$1,$8,$9,$2,$3,0*%
G04 Aperture macros list end*
%ADD10C,0.203000*%
%ADD11C,0.150000*%
%ADD12C,0.120000*%
%ADD13C,0.200000*%
%ADD14C,5.500000*%
%ADD15RoundRect,0.200000X0.600000X-0.200000X0.600000X0.200000X-0.600000X0.200000X-0.600000X-0.200000X0*%
%ADD16RoundRect,0.250001X1.249999X-0.799999X1.249999X0.799999X-1.249999X0.799999X-1.249999X-0.799999X0*%
%ADD17RoundRect,0.250000X-0.262500X-0.450000X0.262500X-0.450000X0.262500X0.450000X-0.262500X0.450000X0*%
%ADD18R,1.550000X0.700000*%
%ADD19RoundRect,0.250000X0.262500X0.450000X-0.262500X0.450000X-0.262500X-0.450000X0.262500X-0.450000X0*%
%ADD20RoundRect,0.225000X-0.250000X0.225000X-0.250000X-0.225000X0.250000X-0.225000X0.250000X0.225000X0*%
G04 APERTURE END LIST*
D10*
X114690724Y-74157685D02*
X113529581Y-74157685D01*
X114110152Y-76189685D02*
X114110152Y-74157685D01*
X112465200Y-74157685D02*
X112078153Y-74157685D01*
X112078153Y-74157685D02*
X111884629Y-74254447D01*
X111884629Y-74254447D02*
X111691105Y-74447971D01*
X111691105Y-74447971D02*
X111594343Y-74835019D01*
X111594343Y-74835019D02*
X111594343Y-75512352D01*
X111594343Y-75512352D02*
X111691105Y-75899400D01*
X111691105Y-75899400D02*
X111884629Y-76092924D01*
X111884629Y-76092924D02*
X112078153Y-76189685D01*
X112078153Y-76189685D02*
X112465200Y-76189685D01*
X112465200Y-76189685D02*
X112658724Y-76092924D01*
X112658724Y-76092924D02*
X112852248Y-75899400D01*
X112852248Y-75899400D02*
X112949010Y-75512352D01*
X112949010Y-75512352D02*
X112949010Y-74835019D01*
X112949010Y-74835019D02*
X112852248Y-74447971D01*
X112852248Y-74447971D02*
X112658724Y-74254447D01*
X112658724Y-74254447D02*
X112465200Y-74157685D01*
X110723486Y-76189685D02*
X110723486Y-74157685D01*
X110723486Y-74157685D02*
X109949391Y-74157685D01*
X109949391Y-74157685D02*
X109755867Y-74254447D01*
X109755867Y-74254447D02*
X109659105Y-74351209D01*
X109659105Y-74351209D02*
X109562343Y-74544733D01*
X109562343Y-74544733D02*
X109562343Y-74835019D01*
X109562343Y-74835019D02*
X109659105Y-75028543D01*
X109659105Y-75028543D02*
X109755867Y-75125304D01*
X109755867Y-75125304D02*
X109949391Y-75222066D01*
X109949391Y-75222066D02*
X110723486Y-75222066D01*
X106465963Y-75125304D02*
X106175677Y-75222066D01*
X106175677Y-75222066D02*
X106078915Y-75318828D01*
X106078915Y-75318828D02*
X105982153Y-75512352D01*
X105982153Y-75512352D02*
X105982153Y-75802638D01*
X105982153Y-75802638D02*
X106078915Y-75996162D01*
X106078915Y-75996162D02*
X106175677Y-76092924D01*
X106175677Y-76092924D02*
X106369201Y-76189685D01*
X106369201Y-76189685D02*
X107143296Y-76189685D01*
X107143296Y-76189685D02*
X107143296Y-74157685D01*
X107143296Y-74157685D02*
X106465963Y-74157685D01*
X106465963Y-74157685D02*
X106272439Y-74254447D01*
X106272439Y-74254447D02*
X106175677Y-74351209D01*
X106175677Y-74351209D02*
X106078915Y-74544733D01*
X106078915Y-74544733D02*
X106078915Y-74738257D01*
X106078915Y-74738257D02*
X106175677Y-74931781D01*
X106175677Y-74931781D02*
X106272439Y-75028543D01*
X106272439Y-75028543D02*
X106465963Y-75125304D01*
X106465963Y-75125304D02*
X107143296Y-75125304D01*
X104724248Y-74157685D02*
X104337201Y-74157685D01*
X104337201Y-74157685D02*
X104143677Y-74254447D01*
X104143677Y-74254447D02*
X103950153Y-74447971D01*
X103950153Y-74447971D02*
X103853391Y-74835019D01*
X103853391Y-74835019D02*
X103853391Y-75512352D01*
X103853391Y-75512352D02*
X103950153Y-75899400D01*
X103950153Y-75899400D02*
X104143677Y-76092924D01*
X104143677Y-76092924D02*
X104337201Y-76189685D01*
X104337201Y-76189685D02*
X104724248Y-76189685D01*
X104724248Y-76189685D02*
X104917772Y-76092924D01*
X104917772Y-76092924D02*
X105111296Y-75899400D01*
X105111296Y-75899400D02*
X105208058Y-75512352D01*
X105208058Y-75512352D02*
X105208058Y-74835019D01*
X105208058Y-74835019D02*
X105111296Y-74447971D01*
X105111296Y-74447971D02*
X104917772Y-74254447D01*
X104917772Y-74254447D02*
X104724248Y-74157685D01*
X103079296Y-75609114D02*
X102111677Y-75609114D01*
X103272820Y-76189685D02*
X102595486Y-74157685D01*
X102595486Y-74157685D02*
X101918153Y-76189685D01*
X100079677Y-76189685D02*
X100757010Y-75222066D01*
X101240820Y-76189685D02*
X101240820Y-74157685D01*
X101240820Y-74157685D02*
X100466725Y-74157685D01*
X100466725Y-74157685D02*
X100273201Y-74254447D01*
X100273201Y-74254447D02*
X100176439Y-74351209D01*
X100176439Y-74351209D02*
X100079677Y-74544733D01*
X100079677Y-74544733D02*
X100079677Y-74835019D01*
X100079677Y-74835019D02*
X100176439Y-75028543D01*
X100176439Y-75028543D02*
X100273201Y-75125304D01*
X100273201Y-75125304D02*
X100466725Y-75222066D01*
X100466725Y-75222066D02*
X101240820Y-75222066D01*
X99208820Y-76189685D02*
X99208820Y-74157685D01*
X99208820Y-74157685D02*
X98725010Y-74157685D01*
X98725010Y-74157685D02*
X98434725Y-74254447D01*
X98434725Y-74254447D02*
X98241201Y-74447971D01*
X98241201Y-74447971D02*
X98144439Y-74641495D01*
X98144439Y-74641495D02*
X98047677Y-75028543D01*
X98047677Y-75028543D02*
X98047677Y-75318828D01*
X98047677Y-75318828D02*
X98144439Y-75705876D01*
X98144439Y-75705876D02*
X98241201Y-75899400D01*
X98241201Y-75899400D02*
X98434725Y-76092924D01*
X98434725Y-76092924D02*
X98725010Y-76189685D01*
X98725010Y-76189685D02*
X99208820Y-76189685D01*
X95628630Y-76189685D02*
X95628630Y-74157685D01*
X95628630Y-74157685D02*
X94854535Y-74157685D01*
X94854535Y-74157685D02*
X94661011Y-74254447D01*
X94661011Y-74254447D02*
X94564249Y-74351209D01*
X94564249Y-74351209D02*
X94467487Y-74544733D01*
X94467487Y-74544733D02*
X94467487Y-74835019D01*
X94467487Y-74835019D02*
X94564249Y-75028543D01*
X94564249Y-75028543D02*
X94661011Y-75125304D01*
X94661011Y-75125304D02*
X94854535Y-75222066D01*
X94854535Y-75222066D02*
X95628630Y-75222066D01*
X92241963Y-76383209D02*
X92435487Y-76286447D01*
X92435487Y-76286447D02*
X92629011Y-76092924D01*
X92629011Y-76092924D02*
X92919297Y-75802638D01*
X92919297Y-75802638D02*
X93112820Y-75705876D01*
X93112820Y-75705876D02*
X93306344Y-75705876D01*
X93209582Y-76189685D02*
X93403106Y-76092924D01*
X93403106Y-76092924D02*
X93596630Y-75899400D01*
X93596630Y-75899400D02*
X93693392Y-75512352D01*
X93693392Y-75512352D02*
X93693392Y-74835019D01*
X93693392Y-74835019D02*
X93596630Y-74447971D01*
X93596630Y-74447971D02*
X93403106Y-74254447D01*
X93403106Y-74254447D02*
X93209582Y-74157685D01*
X93209582Y-74157685D02*
X92822535Y-74157685D01*
X92822535Y-74157685D02*
X92629011Y-74254447D01*
X92629011Y-74254447D02*
X92435487Y-74447971D01*
X92435487Y-74447971D02*
X92338725Y-74835019D01*
X92338725Y-74835019D02*
X92338725Y-75512352D01*
X92338725Y-75512352D02*
X92435487Y-75899400D01*
X92435487Y-75899400D02*
X92629011Y-76092924D01*
X92629011Y-76092924D02*
X92822535Y-76189685D01*
X92822535Y-76189685D02*
X93209582Y-76189685D01*
X90403487Y-76189685D02*
X91564630Y-76189685D01*
X90984058Y-76189685D02*
X90984058Y-74157685D01*
X90984058Y-74157685D02*
X91177582Y-74447971D01*
X91177582Y-74447971D02*
X91371106Y-74641495D01*
X91371106Y-74641495D02*
X91564630Y-74738257D01*
D11*
X98522666Y-57817295D02*
X98522666Y-58388723D01*
X98522666Y-58388723D02*
X98560761Y-58503009D01*
X98560761Y-58503009D02*
X98636952Y-58579200D01*
X98636952Y-58579200D02*
X98751237Y-58617295D01*
X98751237Y-58617295D02*
X98827428Y-58617295D01*
X97722666Y-58617295D02*
X98179809Y-58617295D01*
X97951237Y-58617295D02*
X97951237Y-57817295D01*
X97951237Y-57817295D02*
X98027428Y-57931580D01*
X98027428Y-57931580D02*
X98103618Y-58007771D01*
X98103618Y-58007771D02*
X98179809Y-58045866D01*
X118246475Y-51492695D02*
X117979808Y-52292695D01*
X117979808Y-52292695D02*
X117713142Y-51492695D01*
X117484571Y-52064123D02*
X117103618Y-52064123D01*
X117560761Y-52292695D02*
X117294094Y-51492695D01*
X117294094Y-51492695D02*
X117027428Y-52292695D01*
X116608380Y-51492695D02*
X116532190Y-51492695D01*
X116532190Y-51492695D02*
X116455999Y-51530790D01*
X116455999Y-51530790D02*
X116417904Y-51568885D01*
X116417904Y-51568885D02*
X116379809Y-51645076D01*
X116379809Y-51645076D02*
X116341714Y-51797457D01*
X116341714Y-51797457D02*
X116341714Y-51987933D01*
X116341714Y-51987933D02*
X116379809Y-52140314D01*
X116379809Y-52140314D02*
X116417904Y-52216504D01*
X116417904Y-52216504D02*
X116455999Y-52254600D01*
X116455999Y-52254600D02*
X116532190Y-52292695D01*
X116532190Y-52292695D02*
X116608380Y-52292695D01*
X116608380Y-52292695D02*
X116684571Y-52254600D01*
X116684571Y-52254600D02*
X116722666Y-52216504D01*
X116722666Y-52216504D02*
X116760761Y-52140314D01*
X116760761Y-52140314D02*
X116798857Y-51987933D01*
X116798857Y-51987933D02*
X116798857Y-51797457D01*
X116798857Y-51797457D02*
X116760761Y-51645076D01*
X116760761Y-51645076D02*
X116722666Y-51568885D01*
X116722666Y-51568885D02*
X116684571Y-51530790D01*
X116684571Y-51530790D02*
X116608380Y-51492695D01*
X110475048Y-59513104D02*
X110475048Y-60313104D01*
X111313143Y-59589295D02*
X111275047Y-59551200D01*
X111275047Y-59551200D02*
X111160762Y-59513104D01*
X111160762Y-59513104D02*
X111084571Y-59513104D01*
X111084571Y-59513104D02*
X110970285Y-59551200D01*
X110970285Y-59551200D02*
X110894095Y-59627390D01*
X110894095Y-59627390D02*
X110856000Y-59703580D01*
X110856000Y-59703580D02*
X110817904Y-59855961D01*
X110817904Y-59855961D02*
X110817904Y-59970247D01*
X110817904Y-59970247D02*
X110856000Y-60122628D01*
X110856000Y-60122628D02*
X110894095Y-60198819D01*
X110894095Y-60198819D02*
X110970285Y-60275009D01*
X110970285Y-60275009D02*
X111084571Y-60313104D01*
X111084571Y-60313104D02*
X111160762Y-60313104D01*
X111160762Y-60313104D02*
X111275047Y-60275009D01*
X111275047Y-60275009D02*
X111313143Y-60236914D01*
X112075047Y-59513104D02*
X111617904Y-59513104D01*
X111846476Y-59513104D02*
X111846476Y-60313104D01*
X111846476Y-60313104D02*
X111770285Y-60198819D01*
X111770285Y-60198819D02*
X111694095Y-60122628D01*
X111694095Y-60122628D02*
X111617904Y-60084533D01*
X105770285Y-51505390D02*
X105846475Y-51467295D01*
X105846475Y-51467295D02*
X105960761Y-51467295D01*
X105960761Y-51467295D02*
X106075047Y-51505390D01*
X106075047Y-51505390D02*
X106151237Y-51581580D01*
X106151237Y-51581580D02*
X106189332Y-51657771D01*
X106189332Y-51657771D02*
X106227428Y-51810152D01*
X106227428Y-51810152D02*
X106227428Y-51924438D01*
X106227428Y-51924438D02*
X106189332Y-52076819D01*
X106189332Y-52076819D02*
X106151237Y-52153009D01*
X106151237Y-52153009D02*
X106075047Y-52229200D01*
X106075047Y-52229200D02*
X105960761Y-52267295D01*
X105960761Y-52267295D02*
X105884570Y-52267295D01*
X105884570Y-52267295D02*
X105770285Y-52229200D01*
X105770285Y-52229200D02*
X105732189Y-52191104D01*
X105732189Y-52191104D02*
X105732189Y-51924438D01*
X105732189Y-51924438D02*
X105884570Y-51924438D01*
X105427428Y-52038723D02*
X105046475Y-52038723D01*
X105503618Y-52267295D02*
X105236951Y-51467295D01*
X105236951Y-51467295D02*
X104970285Y-52267295D01*
X104551237Y-51467295D02*
X104475047Y-51467295D01*
X104475047Y-51467295D02*
X104398856Y-51505390D01*
X104398856Y-51505390D02*
X104360761Y-51543485D01*
X104360761Y-51543485D02*
X104322666Y-51619676D01*
X104322666Y-51619676D02*
X104284571Y-51772057D01*
X104284571Y-51772057D02*
X104284571Y-51962533D01*
X104284571Y-51962533D02*
X104322666Y-52114914D01*
X104322666Y-52114914D02*
X104360761Y-52191104D01*
X104360761Y-52191104D02*
X104398856Y-52229200D01*
X104398856Y-52229200D02*
X104475047Y-52267295D01*
X104475047Y-52267295D02*
X104551237Y-52267295D01*
X104551237Y-52267295D02*
X104627428Y-52229200D01*
X104627428Y-52229200D02*
X104665523Y-52191104D01*
X104665523Y-52191104D02*
X104703618Y-52114914D01*
X104703618Y-52114914D02*
X104741714Y-51962533D01*
X104741714Y-51962533D02*
X104741714Y-51772057D01*
X104741714Y-51772057D02*
X104703618Y-51619676D01*
X104703618Y-51619676D02*
X104665523Y-51543485D01*
X104665523Y-51543485D02*
X104627428Y-51505390D01*
X104627428Y-51505390D02*
X104551237Y-51467295D01*
X113701432Y-63560104D02*
X113739528Y-63598200D01*
X113739528Y-63598200D02*
X113853813Y-63636295D01*
X113853813Y-63636295D02*
X113930004Y-63636295D01*
X113930004Y-63636295D02*
X114044290Y-63598200D01*
X114044290Y-63598200D02*
X114120480Y-63522009D01*
X114120480Y-63522009D02*
X114158575Y-63445819D01*
X114158575Y-63445819D02*
X114196671Y-63293438D01*
X114196671Y-63293438D02*
X114196671Y-63179152D01*
X114196671Y-63179152D02*
X114158575Y-63026771D01*
X114158575Y-63026771D02*
X114120480Y-62950580D01*
X114120480Y-62950580D02*
X114044290Y-62874390D01*
X114044290Y-62874390D02*
X113930004Y-62836295D01*
X113930004Y-62836295D02*
X113853813Y-62836295D01*
X113853813Y-62836295D02*
X113739528Y-62874390D01*
X113739528Y-62874390D02*
X113701432Y-62912485D01*
X112939528Y-63636295D02*
X113396671Y-63636295D01*
X113168099Y-63636295D02*
X113168099Y-62836295D01*
X113168099Y-62836295D02*
X113244290Y-62950580D01*
X113244290Y-62950580D02*
X113320480Y-63026771D01*
X113320480Y-63026771D02*
X113396671Y-63064866D01*
X118246475Y-46946095D02*
X117979808Y-47746095D01*
X117979808Y-47746095D02*
X117713142Y-46946095D01*
X117484571Y-47517523D02*
X117103618Y-47517523D01*
X117560761Y-47746095D02*
X117294094Y-46946095D01*
X117294094Y-46946095D02*
X117027428Y-47746095D01*
X116798857Y-47022285D02*
X116760761Y-46984190D01*
X116760761Y-46984190D02*
X116684571Y-46946095D01*
X116684571Y-46946095D02*
X116494095Y-46946095D01*
X116494095Y-46946095D02*
X116417904Y-46984190D01*
X116417904Y-46984190D02*
X116379809Y-47022285D01*
X116379809Y-47022285D02*
X116341714Y-47098476D01*
X116341714Y-47098476D02*
X116341714Y-47174666D01*
X116341714Y-47174666D02*
X116379809Y-47288952D01*
X116379809Y-47288952D02*
X116836952Y-47746095D01*
X116836952Y-47746095D02*
X116341714Y-47746095D01*
X105770285Y-49193990D02*
X105846475Y-49155895D01*
X105846475Y-49155895D02*
X105960761Y-49155895D01*
X105960761Y-49155895D02*
X106075047Y-49193990D01*
X106075047Y-49193990D02*
X106151237Y-49270180D01*
X106151237Y-49270180D02*
X106189332Y-49346371D01*
X106189332Y-49346371D02*
X106227428Y-49498752D01*
X106227428Y-49498752D02*
X106227428Y-49613038D01*
X106227428Y-49613038D02*
X106189332Y-49765419D01*
X106189332Y-49765419D02*
X106151237Y-49841609D01*
X106151237Y-49841609D02*
X106075047Y-49917800D01*
X106075047Y-49917800D02*
X105960761Y-49955895D01*
X105960761Y-49955895D02*
X105884570Y-49955895D01*
X105884570Y-49955895D02*
X105770285Y-49917800D01*
X105770285Y-49917800D02*
X105732189Y-49879704D01*
X105732189Y-49879704D02*
X105732189Y-49613038D01*
X105732189Y-49613038D02*
X105884570Y-49613038D01*
X105427428Y-49727323D02*
X105046475Y-49727323D01*
X105503618Y-49955895D02*
X105236951Y-49155895D01*
X105236951Y-49155895D02*
X104970285Y-49955895D01*
X104284571Y-49955895D02*
X104741714Y-49955895D01*
X104513142Y-49955895D02*
X104513142Y-49155895D01*
X104513142Y-49155895D02*
X104589333Y-49270180D01*
X104589333Y-49270180D02*
X104665523Y-49346371D01*
X104665523Y-49346371D02*
X104741714Y-49384466D01*
X105770285Y-46907990D02*
X105846475Y-46869895D01*
X105846475Y-46869895D02*
X105960761Y-46869895D01*
X105960761Y-46869895D02*
X106075047Y-46907990D01*
X106075047Y-46907990D02*
X106151237Y-46984180D01*
X106151237Y-46984180D02*
X106189332Y-47060371D01*
X106189332Y-47060371D02*
X106227428Y-47212752D01*
X106227428Y-47212752D02*
X106227428Y-47327038D01*
X106227428Y-47327038D02*
X106189332Y-47479419D01*
X106189332Y-47479419D02*
X106151237Y-47555609D01*
X106151237Y-47555609D02*
X106075047Y-47631800D01*
X106075047Y-47631800D02*
X105960761Y-47669895D01*
X105960761Y-47669895D02*
X105884570Y-47669895D01*
X105884570Y-47669895D02*
X105770285Y-47631800D01*
X105770285Y-47631800D02*
X105732189Y-47593704D01*
X105732189Y-47593704D02*
X105732189Y-47327038D01*
X105732189Y-47327038D02*
X105884570Y-47327038D01*
X105427428Y-47441323D02*
X105046475Y-47441323D01*
X105503618Y-47669895D02*
X105236951Y-46869895D01*
X105236951Y-46869895D02*
X104970285Y-47669895D01*
X104741714Y-46946085D02*
X104703618Y-46907990D01*
X104703618Y-46907990D02*
X104627428Y-46869895D01*
X104627428Y-46869895D02*
X104436952Y-46869895D01*
X104436952Y-46869895D02*
X104360761Y-46907990D01*
X104360761Y-46907990D02*
X104322666Y-46946085D01*
X104322666Y-46946085D02*
X104284571Y-47022276D01*
X104284571Y-47022276D02*
X104284571Y-47098466D01*
X104284571Y-47098466D02*
X104322666Y-47212752D01*
X104322666Y-47212752D02*
X104779809Y-47669895D01*
X104779809Y-47669895D02*
X104284571Y-47669895D01*
X118246475Y-49130495D02*
X117979808Y-49930495D01*
X117979808Y-49930495D02*
X117713142Y-49130495D01*
X117484571Y-49701923D02*
X117103618Y-49701923D01*
X117560761Y-49930495D02*
X117294094Y-49130495D01*
X117294094Y-49130495D02*
X117027428Y-49930495D01*
X116341714Y-49930495D02*
X116798857Y-49930495D01*
X116570285Y-49930495D02*
X116570285Y-49130495D01*
X116570285Y-49130495D02*
X116646476Y-49244780D01*
X116646476Y-49244780D02*
X116722666Y-49320971D01*
X116722666Y-49320971D02*
X116798857Y-49359066D01*
%TO.C,J1*%
D12*
X90921000Y-51645000D02*
X91371000Y-51645000D01*
X90921000Y-64865000D02*
X90921000Y-51645000D01*
X91371000Y-64865000D02*
X90921000Y-64865000D01*
X94891000Y-51645000D02*
X95341000Y-51645000D01*
X94891000Y-64865000D02*
X95341000Y-64865000D01*
X95341000Y-51645000D02*
X95341000Y-52595000D01*
X95341000Y-63915000D02*
X96831000Y-63915000D01*
X95341000Y-64865000D02*
X95341000Y-63915000D01*
%TO.C,VA0*%
X114001436Y-51170000D02*
X114455564Y-51170000D01*
X114001436Y-52640000D02*
X114455564Y-52640000D01*
%TO.C,IC1*%
D13*
X107476500Y-58930400D02*
X109026500Y-58930400D01*
X109376500Y-53875400D02*
X109376500Y-58775400D01*
X109376500Y-58775400D02*
X112526500Y-58775400D01*
X112526500Y-53875400D02*
X109376500Y-53875400D01*
X112526500Y-58775400D02*
X112526500Y-53875400D01*
%TO.C,GA0*%
D12*
X108105564Y-51144600D02*
X107651436Y-51144600D01*
X108105564Y-52614600D02*
X107651436Y-52614600D01*
%TO.C,C1*%
X113032700Y-60705220D02*
X113032700Y-60986380D01*
X114052700Y-60705220D02*
X114052700Y-60986380D01*
%TO.C,VA2*%
X114026836Y-46623400D02*
X114480964Y-46623400D01*
X114026836Y-48093400D02*
X114480964Y-48093400D01*
%TO.C,GA1*%
X108105564Y-48833200D02*
X107651436Y-48833200D01*
X108105564Y-50303200D02*
X107651436Y-50303200D01*
%TO.C,GA2*%
X108080164Y-46572600D02*
X107626036Y-46572600D01*
X108080164Y-48042600D02*
X107626036Y-48042600D01*
%TO.C,VA1*%
X114026836Y-48858600D02*
X114480964Y-48858600D01*
X114026836Y-50328600D02*
X114480964Y-50328600D01*
%TD*%
%LPC*%
D14*
%TO.C,H1*%
X86256000Y-41774000D03*
%TD*%
%TO.C,H2*%
X119256000Y-41774000D03*
%TD*%
%TO.C,H3*%
X119256000Y-74774000D03*
%TD*%
%TO.C,H4*%
X86256000Y-74774000D03*
%TD*%
D15*
%TO.C,J1*%
X96031000Y-63255000D03*
X96031000Y-62005000D03*
X96031000Y-60755000D03*
X96031000Y-59505000D03*
X96031000Y-58255000D03*
X96031000Y-57005000D03*
X96031000Y-55755000D03*
X96031000Y-54505000D03*
X96031000Y-53255000D03*
D16*
X93131000Y-65805000D03*
X93131000Y-50705000D03*
%TD*%
D17*
%TO.C,VA0*%
X113316000Y-51905000D03*
X115141000Y-51905000D03*
%TD*%
D18*
%TO.C,IC1*%
X108251500Y-58230400D03*
X108251500Y-56960400D03*
X108251500Y-55690400D03*
X108251500Y-54420400D03*
X113651500Y-54420400D03*
X113651500Y-55690400D03*
X113651500Y-56960400D03*
X113651500Y-58230400D03*
%TD*%
D19*
%TO.C,GA0*%
X108791000Y-51879600D03*
X106966000Y-51879600D03*
%TD*%
D20*
%TO.C,C1*%
X113542700Y-60070800D03*
X113542700Y-61620800D03*
%TD*%
D17*
%TO.C,VA2*%
X113341400Y-47358400D03*
X115166400Y-47358400D03*
%TD*%
D19*
%TO.C,GA1*%
X108791000Y-49568200D03*
X106966000Y-49568200D03*
%TD*%
%TO.C,GA2*%
X108765600Y-47307600D03*
X106940600Y-47307600D03*
%TD*%
D17*
%TO.C,VA1*%
X113341400Y-49593600D03*
X115166400Y-49593600D03*
%TD*%
%LPD*%
M02*
